P3
# 8-bit ppm - RGB
50 50
255
 76 186 195  76 186 195  76 186 195  76 186 195  76 186 195  76 186 195  76 186 195  76
186 195  76 186 195  76 186 193  76 186 195  76 186 195  76 186 195  76 186 195  76 186
195  76 186 197  76 186 195  76 186 195  76 186 195  76 186 195  76 186 195  76 186 195
 76 186 195  76 186 195  76 186 195  76 184 194  78 186 196  76 186 195  75 181 192  76
186 197  76 186 195  54 131 137   0   0   0  43 104 109  76 186 195  75 185 194  76 186
195  76 186 195  76 186 193  76 186 195  76 186 195  76 186 195  76 186 195  76 186 195
 76 186 195  77 185 195  77 185 195  76 186 195  77 185 195  77 185 195
 76 186 195  76 186 195  76 186 195  76 186 195  76 186 195  76 186 195  76 186 195  76
186 195  76 186 195  76 186 195  76 186 195  76 186 195  77 185 195  76 186 195  76 186
195  78 186 196  76 186 195  76 186 195  76 186 195  76 186 195  76 186 195  76 186 195
 76 186 195  76 186 195  76 184 194  76 186 195  70 170 178  30  71  75  11  29  29  24
 55  58  66 163 170  50 120 127   0   0   0   0   0   0  61 148 153  74 186 197  75 183
193  76 186 195  76 186 195  77 187 196  76 186 195  76 186 195  76 186 195  76 186 195
 76 186 195  77 185 195  77 185 195  76 186 195  78 186 196  78 186 196
 76 186 195  77 185 195  76 186 195  76 186 195  76 186 195  76 186 195  76 186 195  76
186 195  75 185 194  77 187 196  76 186 195  76 186 197  77 185 195  77 185 195  76 184
194  77 187 196  76 186 195  77 185 195  76 186 195  76 186 195  76 186 193  76 186 193
 76 186 195  77 185 195  74 183 190  76 186 195  42 103 108   1   0   0   0   0   0   0
  0   2   3   7   6  35  86  91   5   7   6   0   0   0  37  95  98  76 186 197  74 180
191  76 186 195  76 186 195  76 186 195  76 186 195  76 186 195  76 186 195  76 186 195
 76 186 195  76 186 195  76 186 195  76 186 195  76 186 195  76 186 195
 76 186 195  74 187 195  76 186 195  76 186 195  76 186 195  76 186 195  76 186 195  76
186 195  77 187 196  76 186 195  76 186 195  77 187 196  76 186 195  75 185 194  76 186
193  76 184 197  75 185 194  75 185 196  76 184 196  76 184 196  76 184 196  76 184 196
 76 184 194  76 184 196  75 184 191  76 186 195  65 164 170   9  23  23   0   0   0   5
  7   6   0   0   0   0   0   0   5   9  10   0   0   0  32  80  84  76 186 195  75 181
192  76 186 195  76 186 195  74 187 193  76 186 195  76 186 195  76 186 195  76 186 195
 76 186 195  76 186 195  76 186 195  76 186 195  76 186 195  76 186 195
 76 186 195  77 185 195  76 186 195  76 186 195  76 186 195  76 186 195  76 186 195  76
186 195  76 186 195  76 186 195  76 186 195  75 185 196  76 186 195  76 186 197  76 184
194  76 186 193  77 185 195  77 185 195  76 186 195  76 186 195  76 186 193  76 186 193
 76 186 195  76 186 193  76 186 197  77 187 194  77 185 195  70 168 179  15  36  39   0
  0   2   2   4   3   1   1   1   3   1   2   0   0   0  41  96 100  77 186 193  75 183
193  77 185 195  76 186 195  76 186 195  76 186 195  76 186 195  76 186 195  76 186 195
 76 186 195  76 186 195  76 186 195  76 186 195  76 186 195  76 186 195
 76 186 195  74 187 195  76 186 195  76 186 195  76 186 195  76 186 195  76 186 195  76
186 195  76 186 195  76 186 195  75 185 194  77 187 194  76 186 195  72 171 177  65 162
171  69 163 173  67 161 169  67 161 169  67 160 168  67 159 170  67 159 170  67 159 170
 67 160 168  67 159 170  67 160 168  65 162 171  64 157 165  71 168 175  65 153 163  23
 52  58   9  22  30  10  25  30  11  24  30   8  19  23  59 142 150  76 186 195  75 181
192  74 187 195  76 186 195  76 186 195  76 186 195  76 186 195  76 186 195  76 186 195
 76 186 195  76 186 195  76 186 195  76 186 195  76 186 195  76 186 195
 76 186 195  76 186 195  76 186 195  76 186 195  76 186 195  76 186 195  76 186 195  76
186 195  76 186 195  76 184 196  75 185 192  72 174 184  27  66  69   3   7   8   1   1
  1   0   0   0   1   0   0   1   0   0   0   0   0   0   0   0   0   0   0   0   0   0
  0   0   0   0   0   0   0   0   0   0   0   0   0   0   0   0   0   2   0   4   0   6
 12  10   0   0   0   1   1   3   1   1   1   0   0   0  58 141 149  76 186 197  76 184
194  77 187 196  76 186 195  77 187 196  76 186 195  76 186 195  76 186 195  76 186 195
 76 186 195  74 187 195  76 186 195  76 186 195  76 186 195  76 186 195
 76 186 195  76 186 195  76 186 195  76 186 195  76 186 195  76 186 195  76 186 195  76
186 195  75 183 193  76 186 195  72 174 184  10  26  26   1   1   1  24  47  53  45  79
 90  43  75  87  43  77  88  43  77  88  43  77  88  43  77  88  43  77  88  43  77  88
 43  77  88  43  77  88  43  77  89  42  76  87  44  76  88  44  76  88  46  76  88  44
 76  88  44  76  88  46  80  92  39  69  79   1   0   0   0   0   0  57 137 144  77 187
196  75 183 193  77 187 196  76 186 195  76 186 195  76 186 195  76 186 195  76 186 195
 76 186 195  74 187 195  74 187 195  76 186 195  76 186 195  76 186 195
 76 186 195  76 186 195  76 186 195  76 186 195  76 186 195  76 186 197  76 186 195  75
185 194  74 184 193  76 186 195  27  66  71   0   0   0  79 136 153 120 200 225 125 209
235 127 208 235 125 209 235 125 209 235 125 209 235 125 209 235 124 208 234 125 209 235
125 209 235 125 209 235 125 209 235 125 209 235 125 209 235 127 208 235 127 208 235 125
209 235 126 207 234 126 207 234 124 205 234  96 162 184   3  11  14   2   2   2  71 171
179  76 186 195  75 183 193  76 186 195  76 186 195  76 186 195  76 186 195  76 186 195
 76 186 195  76 186 195  76 186 195  76 186 195  76 186 195  76 186 195
 76 186 195  74 187 195  76 186 195  77 185 195  74 186 197  76 186 195  77 187 194  74
182 192  76 186 195  64 148 156   1   1   1  74 129 147 137 224 251 141 228 255 138 223
251 138 223 251 137 224 251 137 224 249 138 224 249 138 223 251 138 224 249 138 223 251
138 223 251 138 223 251 138 224 249 138 224 249 138 224 249 138 223 251 138 224 249 137
223 248 138 224 249 139 223 247 139 225 250 143 230 255 105 177 199   0   1   0  37  86
 90  75 185 194  75 183 195  76 186 195  76 186 195  76 186 195  76 186 195  76 186 195
 76 186 195  76 186 195  76 186 195  76 186 195  76 186 195  76 186 195
 76 186 195  76 186 195  77 187 196  76 186 195  77 187 196  76 186 195  75 185 196  75
183 193  76 186 195  24  59  61  12  34  45 128 212 238 136 222 247 124 207 237 117 206
236 118 207 239 118 207 239 119 208 240 119 208 240 119 208 240 119 208 240 119 208 238
119 208 240 119 208 240 119 208 240 119 208 238 119 208 240 119 208 238 119 208 240 122
208 241 119 208 240 120 209 241 119 208 236 131 212 241 141 226 254  73 120 138   5  10
 13  78 180 190  76 186 195  76 184 194  76 186 195  76 186 195  76 186 195  76 186 195
 76 186 195  76 186 195  76 186 195  76 186 195  76 186 195  76 186 195
 76 186 195  77 181 192  73 184 188  75 185 196  74 187 193  76 186 195  73 186 194  77
185 195  76 184 194   8  18  19  85 141 156 134 223 251  89 191 239  41 178 238  25 176
239  26 175 239  26 176 237  26 176 237  26 175 239  29 176 238  29 176 238  29 176 240
 28 175 239  28 175 237  29 175 242  29 175 242  30 177 239  27 176 240  31 177 238  29
174 237  31 176 239  31 176 239  35 176 239  73 186 238 126 216 250 115 190 209   0   0
  2  63 146 154  76 186 195  73 181 193  76 186 195  76 186 195  76 186 195  76 186 195
 76 186 195  76 186 195  76 186 195  76 186 195  76 186 195  76 186 195
 76 184 194  74 187 195  77 187 196  76 186 193  77 183 194  77 185 195  75 181 192  76
186 195  70 167 176   0   0   0 108 176 197  88 198 247   1 164 233   1 171 238   1 172
236   1 171 240   1 171 238   1 171 238   1 172 236   1 171 238   1 171 238   0 171 235
  1 172 236   1 171 238   2 172 239   1 172 236   0 170 237   2 171 236   0 171 239   2
172 239   0 171 237   1 171 238   0 170 237   0 166 238  47 181 242 119 202 232  40  58
 60  41 100 106  76 186 195  77 181 192  76 186 195  76 186 195  76 186 195  76 186 195
 76 186 195  76 186 195  76 186 195  76 186 195  76 186 195  76 186 195
 77 187 196  67 165 174  65 162 168  77 185 197  73 186 194  75 181 192  73 187 195  76
186 195  57 151 163  10   0   0  78 171 212   1 175 245  16 172 238  20 175 239  15 174
239  15 174 240  16 175 240  15 174 239  17 173 240  17 173 239  17 173 239  17 173 240
 17 173 240  17 173 240  17 173 240  17 173 240  18 173 239  17 173 240  18 173 239  16
172 238  18 173 239  18 173 239  17 172 236  29 174 237   0 170 241  67 184 235  49  82
 89  34  84  85  76 186 195  75 181 192  76 186 195  76 186 195  76 186 195  76 186 195
 76 186 195  76 186 195  76 186 195  76 186 195  76 186 195  76 186 195
 74 178 187  13  33  34   8  18  20  46 111 117  77 185 195  76 186 195  72 179 187  76
186 195  61 150 164   8   0   0   2 148 207   8 178 245   6 172 238   0 173 239   0 173
239   2 172 239   0 173 239   0 173 239   0 173 239   0 173 239   0 172 238   0 173 239
  0 173 239   0 173 239   0 173 239   0 173 239   0 173 239   2 172 239   0 174 239   0
173 239   0 173 239   0 173 241   0 173 239   0 173 241  15 176 240   2 171 234   0  63
 90  33  81  85  76 186 195  75 183 193  76 186 195  76 186 195  76 186 195  76 186 195
 76 186 195  76 186 195  76 186 195  76 186 195  76 186 195  76 186 195
 57 140 148   0   0   2   0   0   0   0   0   0  33  82  86  76 186 195  76 186 195  77
185 195  59 151 162   0   0   0   6 150 210   5 178 244   1 170 237   2 172 239   1 174
238   0 174 239   0 173 239   0 173 239   0 173 239   0 173 239   0 173 239   0 173 239
  0 173 239   0 173 239   0 173 239   0 173 239   0 173 239   0 173 239   1 171 238   1
170 235   1 170 235   1 170 235   0 171 235   2 171 238   1 174 240  12 173 235   0  61
 89  53  92  97  74 187 195  73 177 188  76 186 195  76 186 195  76 186 195  76 186 195
 76 186 195  76 186 195  76 186 195  76 186 195  76 186 195  76 186 195
 54 129 135   0   0   2   4  10  10   2   2   2   0   0   0  31  76  81  75 185 194  76
186 195  58 147 159   0   0   0   5 151 210   2 178 245   0 171 235   2 173 237   0 173
239   0 173 239   0 173 239   0 173 239   0 173 239   0 173 239   0 173 239   0 173 239
  0 173 239   0 173 239   0 173 239   0 173 239   2 173 237   1 171 238   0 173 239  39
182 248  49 183 252  38 181 247   0 173 239   0 171 235   1 174 240   3 172 237   5  62
 89  23  53  55  77 187 196  76 186 195  75 183 193  77 185 195  76 186 195  77 187 196
 76 186 195  76 186 195  76 186 195  76 186 195  77 187 196  76 186 195
 58 142 150   1   1   1   0   1   0   2   3   5   1   5   6   0   0   0  32  85  90  76
186 195  56 150 162   0   0   0   1 151 209   0 178 244   2 171 236   0 173 239   0 173
239   0 173 239   0 173 239   0 173 239   0 173 239   0 173 239   0 173 239   0 173 239
  0 173 239   0 173 239   0 173 239   0 173 239   1 172 236   3 173 240  37 182 247   0
154 214   2 136 199   2 153 216  45 181 247   3 173 240   0 173 239   0 169 236  11  65
 89   0   0   0  21  54  95  77 170 178  75 185 194  76 184 196  75 183 193  77 187 196
 77 185 195  76 186 195  77 185 195  76 186 195  76 186 195  75 185 194
 72 174 184   5  13  15   0   0   0   0   2   1   2   2   2   3   3   1   0   0   0  51
121 128  64 164 174   1   0   0   1 151 209   1 177 244   0 172 236   1 174 240   0 173
239   2 172 239   0 173 239   0 173 239   0 173 239   0 173 239   0 173 239   0 173 239
  0 173 239   0 173 239   0 173 239   1 171 238   0 172 238  31 178 242   0 113 167  31
 69  92  98 101 108  16  57  77   0 105 160  32 175 241   1 174 240  24 171 233   2  57
 95 137  66   2 140  41   0  10  21  51  53 149 161  77 186 193  74 187 195  75 179 188
 74 186 197  76 186 195  74 187 195  77 185 195  75 185 194  76 186 195
 76 186 193  31  72  76   0   0   2   7   8  10   1   1   3   0   2   3   0   0   0   4
  8  11  39 109 119   1   1   3   0 150 208   1 177 244   1 172 236   0 173 239   0 173
239   0 173 239   0 173 239   0 173 239   0 173 239   0 173 239   0 173 239   0 173 239
  0 173 239   0 173 239   1 174 242   0 172 238  30 181 244   2 115 169 116 103  84 219
218 214 239 238 236 220 217 212 119 106  87   1 112 165  31 182 247  35 172 236   0   0
 60 182 160 147 242 192 155 157  21   0   1   0   0  39 115 138  76 186 193  76 186 195
 73 179 190  76 185 192  76 186 195  77 187 198  74 187 195  76 186 195
 76 186 195  67 165 174   6  10   9   0   0   0   2   2   0   0   0   0   2   3   7   0
  0   0   0  17  24   2   3   5   0 150 208   2 178 245   1 172 236   0 173 239   0 173
239   0 173 239   0 173 239   0 173 239   0 173 239   0 173 239   0 173 239   0 173 239
  0 173 239   0 173 239   1 170 233  16 175 241   1 157 215  39  20   4 227 228 230 255
255 255 254 254 254 255 255 255 240 244 243  88  84  75   1 155 217  45 179 242   1   4
  9 172 178 178 253 255 254 244 213 195 193 115  31  44   0   0  23  61  71  83 178 184
 74 187 195  75 183 193  76 182 193  76 185 192  75 185 194  76 186 195
 76 184 194  77 187 196  52 129 135   5  10  13   0   0   2   1   1   3   0   0   0   0
  2   1   1  15  26   0   0   0   0 152 209   1 177 244   1 172 236   0 173 239   0 173
237   0 173 239   0 173 239   0 173 239   0 173 239   0 173 239   0 173 239   0 173 239
  0 173 239   0 173 239   2 172 241  30 179 245   4  97 140 154 150 149 253 254 255 252
250 251 253 253 253 255 255 255 255 254 255 196 195 190   1 100 155  52 182 244   2  24
 74 170 116  72 251 215 193 249 240 235 244 231 215 215 166 134 114  39   0  13  28  33
 66 146 153  76 186 197  76 186 195  77 181 190  76 186 195  75 185 194
 77 187 196  75 182 190  76 186 195  69 162 170  19  47  48   0   0   0   1   1   1   0
  0   0   0  17  25   2   2   2   0 152 209   2 178 245   1 172 236   0 173 239   0 173
239   0 173 239   0 173 239   0 173 239   0 173 239   0 173 239   0 173 239   0 173 239
  0 173 239   0 173 239   5 174 241   3 168 231  17  73  96 192 196 195 248 248 250 255
255 255 252 251 255 223 223 225 253 252 255 240 239 237  37  98 129  18 173 235   2  56
 94 168  83   1 250 130   0 238 150  68 243 197 171 249 215 190 229 179 144 151  90  35
  3   4   6  42 102 110  76 186 195  76 186 195  72 178 189  76 184 194
 75 185 194  76 186 197  58 142 152  39  92  97  18  42  44   0   0   0   1   1   1   0
  0   0   1  18  28   2   1   0   0 152 209   1 177 244   2 173 237   0 174 239   0 173
239   0 173 239   0 173 239   0 173 239   0 173 239   0 173 239   0 173 239   0 173 239
  0 173 239   0 173 239  15 176 241   2 158 216  78  95 102 204 206 205 245 246 248 255
254 255 173 174 176 165 166 168 255 255 255 249 250 245 102 121 137   3 164 229   1  54
 94 177 105   5 249 165  67 248 145   6 249 136   6 248 162  77 245 186 131 237 170  91
199 116   2  84  49  11  30  74  77  78 182 189  76 186 195  76 186 195
 76 186 195  61 148 155   5  11  11   0   0   0   0   0   0   0   0   2   0   0   0   3
  4   6   1  15  26   0   0   0   0 152 207   2 177 242   1 172 234   2 173 235   3 172
237   2 172 239   0 173 239   0 173 237   0 173 239   2 173 237   2 173 237   0 173 239
  0 173 239   1 171 238  19 175 242   2 153 208  92 103 109 203 204 206 242 243 245 254
254 255  58  58  58 147 147 149 225 229 230 252 250 251 113 127 140   1 160 225   2  68
100 130  67   0 200 119  38 192 119  53 193 120  52 194 101   0 187  97   0 199 117  31
203 121  22 135  78   9   1   1   1  25  30  26  57 137 144  76 186 195
 76 186 195  42 101 107   0   0   0   5  13  15   1   2   4   3   4   6   2   6   5   0
  0   0   8  35  44   2   3   5   0 150 208   1 177 244   0 171 235   0 172 238   1 171
238   0 173 239   0 174 239   0 173 239   1 172 236   1 174 240   1 174 240   1 171 238
  0 173 241   1 170 235  11 176 240   3 155 210  72  94 105 196 200 201 225 229 230 254
254 255 132 136 137   1   1   3 165 169 170 254 253 251  80 107 126   1 166 230  28  70
 94   4  10  10   9  24  45   8  22  23   9  23  24   8  27  60   8  23  46   8  22  25
  7  21  22  50  45  26   9  25  25   3   7   8  13  37  37  58 141 149
 76 186 197  64 157 164   1   1   3   0   0   0   1   1   1   0   0   0   0   0   0  20
 51  54  53 135 147   1   1   1  46 152 209  54 181 244  58 175 237  56 177 238  51 176
238  34 175 238   6 173 236   1 172 236   0 173 239   2 172 241   1 166 229   1 174 242
  0 172 238   3 167 228   3 172 239  18 166 222   1  74 106 187 187 187 212 213 218 251
252 254 235 235 233 148 152 151 240 241 243 237 233 232   3  80 122  12 177 240  13  63
 88  32  73  77  72 175 189  63 157 165  65 159 167  65 159 169  67 159 170  68 160 171
 67 161 169  65 159 167  71 164 171  67 167 175  61 149 158  65 162 169
 75 183 193  77 187 194  48 117 124   5   9  10   0   0   2   4   9  12  29  73  76  74
182 192  61 159 172  14   0   0   0 142 208   1 166 242   1 160 235   0 161 235   1 165
236   0 173 239  33 173 234   1 171 238   1 181 250   3 140 190   2 164 223   1 174 242
  1 174 240   2 162 220   1 170 237  30 172 230   2 106 143 131 130 128 213 221 223 214
218 221 250 251 253 255 255 255 255 255 255 161 157 148   3 112 166  37 182 247   1  58
 83  47  86  89  74 187 195  77 187 198  76 186 193  76 186 195  75 185 194  77 185 197
 73 186 194  76 186 197  75 185 194  76 186 197  74 187 193  76 186 195
 76 184 194  76 186 197  76 185 192  62 155 162  54 129 135  63 151 160  76 186 195  77
185 195  67 151 159   0   0   2 154 190 214 179 222 254 162 208 241 139 200 244  99 189
239   2 166 235   1 163 237  15 184 251   3 126 175   2 124 173   0 176 245   1 172 236
  0 174 242   3 155 212   0 168 231   6 170 233   5 148 192   0  49  72 169 165 162 215
216 220 221 226 229 237 245 247 192 192 190   2  29  48   1 165 226  11 175 238   1  61
 87  50  87  93  78 186 196  76 186 193  76 186 197  76 186 195  77 187 196  76 186 193
 78 186 196  74 181 189  75 184 191  76 180 191  76 179 193  75 183 193
 77 187 196  75 185 194  74 186 197  77 185 195  76 186 195  77 185 195  77 185 197  76
186 195  73 156 164   0   0   0 225 225 223 255 253 255 254 254 255 250 254 255 237 244
250 229 241 253 181 220 251   1 108 150   9  73 101   6 171 235   3 173 240   0 173 237
  0 173 239   2 147 200   3 170 233   0 176 243  21 159 213   3 121 157   2  39  58 133
126 120 158 154 151 126 122 119   3   4   6   2 132 176  22 177 243   3 172 237   5  62
 89  28  70  69  65 173 186  62 148 159  61 151 159  62 150 159  69 163 165  62 146 156
 59 148 154  77 185 197  75 185 194  76 186 195  74 187 195  76 186 195
 76 186 195  76 186 195  75 183 195  75 181 192  75 183 193  75 181 192  74 180 191  74
187 195  73 156 164   0   0   2 224 224 224 255 255 255 255 255 253 255 255 255 255 255
255 254 254 254 151 144 134   1   4  21  20 171 234   3 176 244   1 172 236   1 175 243
  9 168 233  27 137 186   1 175 243   5 174 241   2 173 237  24 161 211   1 126 166   2
 80 116   0  67  94   2  72 105   3 130 173  30 171 232   0 175 242   4 171 234   2  66
 93   1   6   9   7  17  18   6  14  16  64  46  24  62  50  24   2   2   2  12  18  14
 53 130 138  74 187 195  75 185 194  76 186 195  76 186 195  76 186 195
 76 186 195  76 186 195  76 186 195  76 186 195  76 186 195  76 186 195  75 183 193  77
187 196  70 157 164   0   0   0 221 223 222 255 255 255 251 251 253 254 254 255 252 253
255 133 132 128   1   3   2  24 173 237   4 164 224   1 168 231   4 174 241   3 174 238
  1 153 212  17 136 186  43 170 231   1  85 121   4  98 136   2 145 197  27 165 219  18
148 192   0 142 186  21 154 203  32 174 232   0 173 239   0 173 239  29 172 236   1  21
 72 149 131 119 226 197 183 224 161 116 203 120  24  81  43   4   7  18  20  66 140 141
 76 186 195  76 186 195  76 186 195  76 186 195  77 187 196  76 186 195
 76 186 195  76 186 195  76 186 195  76 186 195  76 186 195  76 186 195  75 183 193  76
184 194  72 156 164   1   0   0 224 224 224 255 255 255 251 251 253 255 255 255 199 199
199   2   2   2  20 166 227  10 137 188   3 132 181   3 172 237   2 134 183   2 176 244
 29 120 164   1 145 205   2 158 227  48   2   2   0   0   0   6  48  70   2 150 206  11
173 232  25 171 230  12 173 237   0 173 239   1 172 236   0 173 239  38 173 236   1  24
 78 177 133  98 242 196 144 217 144  75 116  66   7  29  68  71  77 177 185  76 186 195
 76 186 197  76 184 194  76 186 195  76 186 197  76 186 195  76 186 195
 76 186 195  76 186 195  76 186 195  76 186 195  76 186 195  76 186 195  76 184 194  76
186 195  71 155 163   0   0   2 224 222 223 255 255 255 253 251 252 254 254 255 130 120
111   2 118 175  42 133 178   1  85 119   1 172 234   3 102 141  20 152 208   3 166 235
101 108 114 220 232 244  76 185 242   2 104 160  47   1   3   1   0   0   6  91 129   2
178 247   0 172 238   0 173 239   3 172 239   0 170 237   4 174 241  32 171 235   2  51
 94 171 100  12 198 108   0   0   0   0  42 101 107  76 186 195  77 187 196  75 183 195
 75 183 193  76 186 195  76 186 195  76 186 195  76 186 195  76 186 195
 76 186 195  76 186 195  76 186 195  76 186 195  76 186 195  75 185 194  74 184 193  75
188 196  78 166 176   0   0   2 208 212 211 255 255 253 252 253 255 253 253 253 108 118
127   1 103 151  21  47  61   0 169 234   2 115 159   0 102 142  40 189 255   3 103 162
170 165 159 253 255 254 233 244 250  82 183 239   1 129 186  40 100 134   3 136 189   2
176 244   1 170 235   0 174 235   0 173 237   0 172 238   0 175 240   4 168 231   2  46
 71  79  29   2   9  26  43  56 137 154  77 187 196  76 186 195  75 183 193  76 186 195
 76 186 195  77 187 196  75 185 194  77 185 195  76 186 195  76 186 195
 76 186 195  76 186 195  76 186 195  76 186 195  76 186 195  76 186 195  76 186 195  76
186 195  82 180 189   5  13  16 177 177 177 254 254 254 252 250 251 255 255 255 135 140
143   4   4   6  32 147 202   3 155 212   3   3   5   7 172 238  25 170 233   2   4   3
228 228 226 255 254 255 255 254 255 231 245 254  48 182 245   2 171 236  23 178 240   2
172 239   2 172 241   0 173 241   2 172 239   1 170 235   0 176 243   3 153 213  13   2
  0  21  48  67  69 167 180  77 187 198  76 186 193  74 182 192  76 186 195  77 186 193
 75 185 194  76 186 195  76 186 195  76 186 195  76 186 195  76 186 195
 76 186 195  76 186 195  76 186 195  76 186 195  76 186 195  76 186 195  75 185 194  76
184 194  75 188 194  18  46  49  91  91  91 252 254 253 253 255 254 255 255 255 171 170
168   0   0   2  39 176 240   0  54  78   1 121 166  33 188 254   0 101 153 121 111 102
254 254 255 252 254 253 251 252 254 255 255 253 208 231 249   0 168 243  29 174 241   0
174 239   1 172 236   1 172 236   0 173 239   0 169 232   0 180 248   2 115 159   2   0
  3  74 172 183  77 187 194  75 183 193  75 185 196  75 188 196  76 186 197  76 186 195
 76 186 195  76 186 195  76 186 195  76 186 197  76 186 195  76 186 195
 76 186 195  76 186 195  76 186 195  76 186 195  76 186 195  76 186 195  76 186 195  75
181 192  76 186 193  68 135 141   0   0   0 182 186 187 255 255 255 255 254 255 171 168
161   3  64 119  40 156 213   0   3   2   3 170 233  39 169 229   1   1   1 200 202 201
255 254 255 254 252 253 254 254 254 254 254 255 255 255 253 153 203 240   0 164 237  39
174 239   0 173 239   0 172 238   1 171 240   0 182 250   3 159 217   0   0   0  19  51
 50  76 186 193  74 180 193  76 184 194  76 186 193  75 185 194  76 186 195  74 187 195
 73 186 194  76 186 195  76 186 195  76 186 195  76 186 195  76 186 195
 76 186 195  76 186 195  76 186 195  76 186 195  76 186 195  76 186 195  75 185 194  76
184 194  75 188 196  76 186 197  10  28  28   0   0   0 185 191 191 254 254 254 176 175
171   2  23  90  41 114 154   1  84 118  22 185 254   1  99 144  92  79  61 249 253 254
254 254 255 254 254 254 255 253 255 254 254 254 254 254 255 236 249 255  37 178 241   1
173 244  18 174 241   1 176 241   2 175 241   3 154 209   2  57  77   1   1   1  58 152
162  76 186 195  76 182 193  76 186 195  76 186 195  77 187 198  76 186 195  76 186 195
 77 187 196  76 186 195  76 186 195  76 186 195  76 186 195  76 186 195
 76 186 195  76 186 195  76 186 195  75 185 194  76 186 195  76 186 195  74 187 195  76
186 195  75 183 193  76 186 195  70 160 168   0   0   0   0   0   0 113 117 118 106 101
 95   1   3  18   8   2   2   2 135 186   1 170 233  11   1   2  81  73  70 129 134 138
125 126 128 127 131 132 126 131 134 127 131 132 125 131 131 132 134 133  54  98 123   3
 88 119  11  90 121   5  91 124   2  86 114   0   7  13   0   1   0  39 103 113  76 186
195  75 183 195  76 186 195  76 186 195  76 186 195  76 186 195  78 186 196  76 186 195
 77 187 196  75 185 194  77 185 195  76 186 195  76 186 195  76 186 195
 76 186 195  76 186 195  76 186 195  76 186 195  76 186 195  76 186 195  76 186 195  76
186 195  77 187 196  75 183 193  76 186 197  66 153 162  11  25  26   0   0   0   1   1
  3   0   1  24  20   0   1   1 155 214  25 131 179   0   0   0   0   0   8   0   1   0
  1   0   5   0   0   0   0   0   0   1   0   0   0   0   0   1   1   1   1   1   1   4
  0   0   0   0   0   0   0   2   0   0   0   2   3   5  41 108 117  76 186 195  76 186
195  76 184 194  77 185 195  76 186 195  76 186 195  76 186 195  76 186 195  76 186 195
 76 186 195  76 186 195  76 186 195  76 186 195  76 186 195  76 186 195
 76 186 195  76 186 195  76 186 195  76 186 195  76 186 195  76 186 195  76 186 195  76
186 195  76 186 195  76 186 195  76 186 195  76 186 195  83 182 188  55 132 150 189 119
 34 141 115  64   4  12  14  42 153 209   2  74 114 130  61   6 166 109  66   5 113 159
 29  28  34  32  67  69  58 137 142  56 124 133  57 127 134  53 128 134  50 125 131  52
126 135  50 127 133  50 124 133  50 128 138  66 168 178  75 185 194  75 188 196  76 184
196  76 186 195  76 186 195  76 186 195  76 186 195  76 186 195  76 186 195  76 186 195
 76 186 195  76 186 195  76 186 195  76 186 195  76 186 195  76 186 195
 76 186 195  76 186 195  76 186 195  76 186 195  76 186 195  76 186 195  76 186 195  76
186 195  76 186 195  77 186 193  81 185 192  78 185 193  75 188 196 156 172 127 255 152
 37 108 173 153   7  15  17  45 131 178   0   2  61 216 122   0 183 124  86   2 127 183
 36   1   0  64 161 168  76 186 195  76 186 195  77 187 196  76 186 195  76 186 197  77
187 196  76 186 197  77 187 198  77 187 194  76 186 195  77 187 196  76 182 193  76 186
195  76 186 195  76 186 195  76 186 195  76 186 195  76 186 195  76 186 195  76 186 195
 76 186 195  76 186 195  76 186 195  76 186 195  76 186 195  76 186 195
 76 186 195  76 186 195  76 186 195  76 186 195  76 186 195  76 186 195  76 186 195  76
186 195  74 187 195  76 186 193  74 187 195  77 185 197 150 166 117 253 158  32 158 167
112  76 184 194  51  48  29   1  74 107  76  45  25 215 139  17  76  58  58   0  68 103
 30  34  37  76 186 195  76 184 194  77 183 194  75 185 194  74 187 195  77 187 196  77
187 194  77 187 196  75 185 194  76 186 195  76 184 196  75 183 195  76 186 195  74 187
195  76 186 195  76 186 195  76 186 195  76 186 195  76 186 195  76 186 195  76 186 195
 76 186 195  76 186 195  76 186 195  76 186 195  76 186 195  76 186 195
 76 186 195  76 186 195  76 186 195  76 186 195  76 186 195  76 186 195  76 186 195  76
186 195  77 186 193  75 185 194 136 171 137 232 150  41 254 161  32 255 151  30 114 176
155  77 187 196  51  97  97   0   0   0 145  83  11 194 166  92  26  67  71  26   0   0
 35  84  88  76 186 195  74 184 193  76 186 195  76 184 194  77 183 194  77 183 194  75
183 195  76 184 194  77 185 197  76 184 194  76 186 195  77 187 194  76 186 197  76 186
193  76 186 195  76 186 195  76 186 195  76 186 195  76 186 195  76 186 195  76 186 195
 76 186 195  76 186 195  76 186 195  76 186 195  76 186 195  76 186 195
 76 186 195  76 186 195  76 186 195  76 186 195  76 186 195  76 186 195  76 186 195  76
186 195  80 184 193  74 187 195 176 161  96 236 148  40 133 173 137 231 150  45 125 173
147  75 185 194 179 156  88  98  54   7 136  87  21 203 165  80  64 152 161   6   2   1
 50 105 109  73 186 194  77 181 192  76 186 195  76 186 197  76 186 195  76 186 195  76
186 195  76 186 195  75 185 194  76 184 196  74 187 195  76 186 195  76 186 195  76 186
195  76 186 197  76 186 195  76 186 195  76 186 195  76 186 195  76 186 195  76 186 195
 76 186 195  76 186 195  76 186 195  76 186 195  76 186 195  76 186 195
 76 186 195  76 186 195  76 186 195  76 186 195  76 186 195  76 186 195  76 186 195  76
186 195  76 186 195  77 185 195  89 183 182  76 186 195 111 178 161 243 146  31  95 181
176  76 186 195 126 179 148  94 137 118 159 112  42 207 161  75  75 185 192  58 107 104
 53 120 126  76 186 195  74 184 193  76 186 195  77 187 196  77 185 195  77 187 196  76
186 195  76 186 195  77 187 196  77 187 196  76 186 195  76 186 195  76 186 195  77 185
195  76 186 195  76 186 195  76 186 195  76 186 195  76 186 195  76 186 195  76 186 195
 76 186 195  76 186 195  76 186 195  76 186 195  76 186 195  76 186 195
 76 186 195  76 186 195  76 186 195  76 186 195  76 186 195  76 186 195  76 186 195  76
186 195  76 186 195  77 185 195  76 186 195  76 186 195 225 152  50 202 156  73  76 186
195  80 184 193  76 186 193  76 186 195 229 150  47 152 168 121  76 186 195  76 186 195
 76 184 194  77 187 196  76 186 195  76 186 195  76 186 195  74 187 195  77 185 195  76
186 195  76 186 195  76 186 195  76 186 195  76 186 195  76 186 195  76 186 195  73 186
194  76 186 195  76 186 195  74 187 195  76 186 195  76 186 195  76 186 195  76 186 195
 76 186 195  76 186 195  76 186 195  76 186 195  76 186 195  76 186 195
 76 186 195  76 186 195  76 186 195  76 186 195  76 186 195  76 186 195  76 186 195  76
186 195  76 186 195  76 186 195  78 187 194  76 186 195 128 174 146  96 181 176  77 187
194  78 187 194  77 186 193  76 186 195 136 171 137  88 184 183  76 186 195  77 185 195
 74 187 195  78 188 197  76 186 195  76 186 195  76 186 195  76 186 195  76 186 195  76
186 195  76 186 195  76 186 195  76 186 195  76 186 195  76 186 195  76 186 195  76 186
195  76 186 195  76 186 195  76 186 195  76 186 195  76 186 195  76 186 195  76 186 195
 76 186 195  74 187 195  77 185 195  76 186 195  78 186 196  76 186 195
 76 186 195  76 186 195  76 186 195  76 186 195  76 186 195  76 186 195  76 186 195  76
186 195  76 186 195  74 187 195  76 186 195  76 186 195  78 187 194  76 186 195  77 184
192  76 186 195  76 186 195  77 185 195  76 186 195  77 187 196  77 185 195  77 187 196
 76 186 195  76 186 195  76 186 195  76 186 195  76 186 195  76 186 195  76 186 195  76
186 195  76 186 195  76 186 195  76 186 195  76 186 195  76 186 195  76 186 195  76 186
195  76 186 195  76 186 195  76 186 195  76 186 195  76 186 195  76 186 195  76 186 195
 76 186 195  74 187 195  77 185 195  76 186 195  78 186 196  76 186 195
