P3
# 8-bit ppm - RGB
50 50
255
 76 186 195  76 186 195  76 186 195  76 186 195  76 186 195  76 186 195  76 186 195  76
186 195  74 187 195  76 186 195  76 186 195  76 184 194  75 185 194  77 185 195  75 183
193  75 183 193  76 186 195  74 187 195  76 186 195  74 187 195  75 185 196  77 187 194
 76 186 195  76 186 195  78 184 195  76 186 195  76 186 195  75 185 194  76 186 195  76
186 195  71 174 181  16  37  42  36  86  93  76 186 197  76 186 195  76 186 195  76 186
195  74 187 195  76 186 195  76 186 195  76 186 195  76 186 195  76 186 195  76 186 195
 76 186 195  76 186 195  76 186 195  76 186 195  77 186 191  88 191 198
 76 186 195  76 186 195  76 186 195  76 186 195  76 186 195  76 186 195  76 186 195  76
186 195  76 186 195  76 186 195  75 185 192  76 186 195  76 186 193  76 184 194  77 187
196  76 186 195  75 185 194  76 186 193  77 187 196  76 186 195  77 185 195  76 186 195
 76 186 195  76 184 194  74 187 195  75 185 196  49 119 126  25  54  60  24  59  61  55
138 146  67 161 169   0   0   0   0   0   0  50 123 129  77 187 194  74 182 192  77 187
196  76 186 193  77 185 195  76 186 195  76 186 195  76 186 195  76 186 195  76 186 195
 76 186 195  76 186 195  76 186 195  76 186 195  76 186 195  78 186 196
 76 186 195  76 186 195  76 186 195  76 186 195  76 186 195  76 186 195  76 186 195  76
186 195  77 185 195  76 184 194  76 186 195  60 144 152  67 171 178  76 186 195  73 183
190  59 142 150  77 185 195  76 186 195  74 187 195  75 185 194  76 186 195  77 185 195
 76 186 195  76 184 194  76 186 195  70 170 178   0   0   0   0   0   0   0   0   0   0
  0   0  37  90  95  11  26  29   0   0   0  22  56  58  76 186 195  75 183 193  76 186
195  74 187 195  77 185 195  76 186 195  76 186 195  76 186 195  76 186 195  76 186 195
 76 186 195  76 186 195  76 186 195  76 186 195  76 186 195  76 186 195
 76 186 195  76 186 195  76 186 195  76 186 195  76 186 195  76 186 195  76 186 195  76
186 195  74 187 195  75 185 194  72 179 185   8  32  44  57 140 146  76 186 195  56 136
145   5  17  17  74 180 193  73 183 192  72 179 187  75 179 190  76 180 191  72 180 190
 73 179 190  74 181 189  74 180 191  72 181 188  23  57  59   1   1   3   3   4   6   3
  1   2   2   0   1   5  14  13   0   0   0  18  46  49  77 187 196  76 184 194  77 183
196  74 187 195  76 186 195  76 186 195  76 186 195  76 186 195  76 186 195  76 186 195
 76 186 195  76 186 195  76 186 195  76 186 195  76 186 195  75 185 194
 76 186 195  76 186 195  76 186 195  76 186 195  76 186 195  76 186 195  76 186 195  76
186 195  75 183 193  78 186 196  51 129 139   0   0   0  34  87  95  77 185 195  32  80
 84   1   0   0  53 130 136  77 187 196  77 187 196  76 186 197  73 186 194  77 186 193
 76 186 195  76 186 195  76 186 195  76 186 195  76 186 195  32  80  84   2   2   2   3
  3   3   0   0   0   0   0   0   2   0   3  21  52  54  77 185 195  75 185 196  76 185
192  76 186 195  76 186 195  76 186 197  76 186 195  76 186 195  76 186 195  76 186 195
 76 186 195  76 186 195  76 186 195  76 186 195  76 186 195  77 187 196
 76 186 195  76 186 195  76 186 195  76 186 195  76 186 195  76 186 195  76 186 195  76
186 195  74 184 193  74 187 195  32  80  84   1  58  87   7  27  36  55 134 141  23  61
 72  23  61  80  36  76  83  71 168 177  70 162 173  72 164 175  71 165 173  70 165 171
 71 165 175  71 165 175  71 165 175  72 162 171  72 169 178  73 167 177  42  92  99  23
 42  48  23  43  50  21  44  50   8  22  25  46 111 117  75 188 196  74 180 191  74 187
195  76 186 195  76 186 195  76 186 195  76 186 195  76 186 195  76 186 195  76 186 195
 76 186 195  76 186 195  76 186 195  76 186 195  77 187 196  74 187 195
 76 186 195  76 186 195  76 186 195  76 186 195  76 186 195  76 186 195  76 186 195  76
186 195  75 183 193  76 186 195  22  56  58   0 131 180   0  57  84   7   2   6   2   2
  2   2   2   4   0   0   0   3   7   8   6  10  11   5   9  10   5   9  10   5   9  10
  4  10  10   4   8   9   4   9  12   5   9  10   3   4   6   9  14  17  10  21  25   1
  0   0   0   0   0   2   2   2   1   5   8  50 117 125  77 185 195  76 186 195  76 182
193  75 185 192  76 186 195  76 186 195  76 186 195  76 186 195  76 186 195  76 186 195
 76 186 195  76 186 195  76 186 195  76 186 195  76 186 195  76 186 195
 76 186 195  76 186 195  76 186 195  76 186 195  76 186 195  76 186 195  76 186 195  76
186 195  75 183 193  76 186 195  21  51  53   1 153 212   9 132 181   0   0   0  34  70
 84  51  89  99  45  79  91  50  86  98  48  84  96  47  85  96  49  85  99  49  85  97
 49  85  97  51  87  99  50  86  98  50  86  98  50  87  97  50  86  98  50  86  98  49
 85  97  50  87  97  50  84  96   1   3   0   0   0   0  48 115 123  76 186 195  75 183
195  76 186 195  76 186 195  77 187 196  76 186 195  76 186 195  76 186 195  76 186 195
 76 186 195  76 186 195  76 186 195  76 186 195  76 186 195  76 186 195
 76 186 197  77 187 196  76 186 195  76 186 195  76 186 197  74 187 195  76 186 195  75
183 193  76 186 195  63 169 182   7   8  10   1 134 185   7 177 244   1  47  71  38  59
 60 122 203 230 126 207 234 121 204 234 123 207 233 123 207 233 123 207 233 123 207 235
122 207 235 123 207 235 123 207 235 123 207 235 123 207 235 123 207 235 122 206 234 122
206 234 124 205 232 125 206 233 110 184 208  42  72  82   0   0   0  63 150 159  76 186
195  75 183 193  77 187 196  75 185 194  76 186 195  76 186 195  76 186 195  76 186 195
 76 186 195  76 186 195  76 186 195  76 186 195  76 186 195  76 186 195
 76 186 195  76 186 195  76 186 193  76 186 197  76 186 193  76 186 195  74 187 195  77
183 194  76 186 195  30  88 100   0   0   0   3 108 148   1 181 250  10 155 210   2   2
  4  85 144 162 139 229 255 140 224 250 139 224 252 140 225 253 141 227 252 139 225 248
140 226 251 141 227 252 140 226 251 140 226 251 141 227 252 139 225 250 140 226 251 139
225 250 140 226 251 139 225 250 140 227 255 117 198 225  19  38  44  16  40  42  76 186
195  77 183 196  76 184 194  74 187 195  76 186 195  76 186 195  76 186 195  76 186 195
 76 186 195  76 186 195  76 186 195  76 186 195  76 186 195  76 186 195
 76 186 197  76 186 195  76 186 195  76 186 195  76 186 197  76 186 195  75 185 194  76
186 195  70 170 178   5  16  22  18  29  25   3  67  94   2 169 232   3 179 246   0 135
185   0   0   2  95 165 190 122 214 251 119 205 240 118 208 242 120 206 241 119 208 238
118 207 239 117 207 241 118 207 239 117 207 241 120 206 239 118 206 241 118 206 241 118
206 241 120 206 239 119 205 240 128 213 241 143 231 253  93 158 178   1   0   0  69 164
170  77 185 195  76 182 193  76 186 197  76 186 195  76 186 195  76 186 195  76 186 195
 76 186 195  76 186 195  76 186 195  76 186 195  76 186 195  76 186 195
 76 186 195  73 181 191  74 180 191  76 186 197  77 186 193  76 186 195  76 182 193  77
187 196  52 129 135   1  10  17  16  27  29   0   2   0   2 149 203   1 177 244  10 179
246   3 117 162   0   1   3  31 158 213  26 180 242  27 174 236  25 176 237  26 175 239
 26 175 239  26 175 239  26 175 241  26 175 239  24 175 240  26 175 239  26 175 239  27
176 240  26 175 239  26 177 240  44 179 235 113 207 243 128 208 231   0   5  21  42 101
107  76 186 195  74 180 191  76 186 195  76 186 195  76 186 195  76 186 195  76 186 195
 76 186 195  76 186 195  76 186 195  76 186 195  76 186 195  76 186 195
 75 185 194  78 186 196  76 186 197  74 181 189  76 186 195  75 185 196  74 183 190  77
185 195  39 104 110   0   0   0   0  54  78   3  26  41   0  92 128   2 177 242   0 172
238   8 177 244   3  88 127   1   3   2   2 167 233   0 172 243   2 171 238   2 171 238
  1 171 238   0 171 235   1 172 236   0 171 235   2 171 236   1 170 235   1 171 238   2
171 238   2 171 236   2 171 236   0 170 239   2 171 238 115 209 247  69 106 116  28  67
 70  76 186 195  76 182 193  76 186 195  76 186 195  76 186 195  76 186 195  76 186 195
 76 186 195  76 186 195  76 186 195  76 186 195  76 186 195  76 186 195
 76 186 195  61 149 158  69 167 176  76 186 193  74 183 188  76 186 195  75 183 195  76
186 195  34 100 116   0   0   0   4 112 156   1 146 199   2   0   3   2 154 209   1 175
245   1 174 240   7 174 237  12  55  74  10  89 120  12 178 246  10 173 238   9 172 237
 12 173 238  10 173 238  10 173 240  10 173 240   9 174 240   9 174 240  10 173 238   9
174 238  10 173 238   8 173 237  15 174 239   0 169 238  51 185 244  57 112 130  20  54
 56  76 186 197  75 183 193  76 186 195  76 186 195  76 186 195  76 186 195  76 186 195
 76 186 195  76 186 195  76 186 195  76 186 195  76 186 195  76 186 195
 62 149 158   0   0   0   5  13  16  49 120 124  74 186 197  76 184 196  75 181 192  76
186 195  34 100 112   0   0   0   2 109 151   1 181 250   0  79 110   1  63  86   1 178
242   0 171 235   0 176 243   1 165 226   2   2   2   1 133 182   1 180 248   0 171 235
  0 172 238   0 173 239   0 173 239   0 173 239   0 173 239   0 173 239   0 173 241   0
173 239   0 173 239   0 173 239   0 173 239   8 173 237   0 176 243   0  93 129  24  55
 57  76 186 195  75 183 193  76 186 195  76 186 195  76 186 195  76 186 195  76 186 195
 76 186 195  76 186 195  76 186 195  76 186 195  76 186 195  76 186 195
 43 106 111   0   0   0   0   0   0   1   1   1  43  98 103  76 186 195  73 180 188  76
186 195  35  97 108   0   0   0   3  50  68   2 172 239   2 167 231   1   3   2   1 123
170   0 182 250   0 169 232   0 179 247   2 147 202   1   3   2   0 164 225   1 175 243
  1 172 236   0 173 239   0 174 239   0 173 239   0 173 239   0 173 239   1 172 236   0
171 235   0 171 235   1 172 236   0 173 237   1 171 238   7 177 244   0  94 132  28  63
 65  76 186 197  72 179 187  75 185 194  76 186 195  76 186 195  76 186 195  76 186 195
 76 186 195  76 186 195  76 186 195  76 186 195  76 186 195  76 186 195
 42  97 102   0   0   2   3   4   6   0   0   0   0   0   0  37  94 101  76 186 195  76
186 195  36  85  89   0  74 101   3  74 100   1 121 166   1 185 255   1 155 214   2  19
 29   2 147 202   0 181 246   0 169 234   1 181 249   1 112 155   2  96 132   1 179 249
  1 172 236   2 172 239   1 171 238   0 173 239   3 172 239   0 171 235   5 174 241  27
180 247  19 179 247   0 173 239   1 171 238   1 171 238   4 177 243   0  92 129  13  21
 23  78 178 188  76 186 197  74 183 190  76 186 195  76 186 195  77 185 195  76 186 195
 76 186 195  77 185 195  76 186 195  76 186 195  76 186 195  76 186 195
 49 116 124   0   0   0   1   3   2   1   1   3   1   1   1   0   0   0  46 109 118  76
186 195  33  81  85   0  86 121   4 147 200   1   1   3   3 148 203   1 185 255   1 157
216   3 101 138   2 159 218   0 174 242   0 173 239   0 173 239   3  68 100   2 154 209
  1 177 244   1 172 236   0 173 239   2 172 239   2 171 238  20 179 245   8 168 228   1
133 190   1 143 199  32 175 239   2 175 243   1 170 235   1 177 246   9  94 133   0   1
  0   5  14  57  69 144 141  75 185 194  75 185 192  75 185 192  76 186 193  77 187 198
 76 186 193  77 185 195  76 186 197  76 186 197  76 186 195  76 186 195
 66 156 165   0   0   0   1   0   0   0   2   1   2   0   1   0   0   0   0   0   0  64
162 175  42  96 104   1  85 121   5 150 207   0   0   0   2   2   4   2 149 203   1 185
255   0 169 234   2 159 218   0 172 238   1 170 235   2 181 249   1 144 196   2 105 146
  0 179 247   0 171 235   1 174 238   0 171 235  21 177 244   1 134 187   2   1   6 112
105  97  74  62  38   1  17  79  13 167 229   0 174 241  31 176 243   0  87 132 137  67
  5 169  85   0   0   0   0  39 105 117  76 186 197  75 185 194  76 182 195  73 186 194
 76 186 197  74 187 195  77 187 196  76 186 195  76 186 195  76 186 195
 74 187 195  21  50  56   0   0   2   3   4   6   0   2   1   1   3   2   1   0   2  11
 38  49  24  64  64   1  85 123   1 144 196   3  69 101   1 100 139   0   0   2   0 132
181   1 180 248   1 177 246   3 172 237   0 174 239   1 171 238   0 174 245   0 107 147
  1 162 224   0 175 242   0 170 237  23 180 243   1 143 199  73  55   5 223 227 226 254
254 255 251 251 253 176 173 166   1  45  90  18 173 239  38 181 247   0  62 113 147 140
132 248 214 187 193  97   5   0   0   2  23  55  78  78 182 189  77 187 194  76 182 193
 76 186 193  76 186 193  76 186 195  77 187 196  76 186 195  76 186 195
 77 187 196  62 155 162   1   1   0   0   0   0   2   2   2   0   0   0   2   2   4   0
 13  22   1   0   0   0  83 115   1 146 201   1  78 108   2 178 245   2 124 171   2   2
  0   0  91 127   0 164 225   0 178 242   0 173 239   3 172 237   2 179 243   2 147 202
  2 140 194   2 178 247   3 172 237  24 173 237   4  27  71 201 201 203 255 254 255 253
253 253 255 255 253 255 254 255 162 157 151   2 117 174  52 188 254   1  57 105 146 137
132 254 254 254 249 235 222 221 152  87  95   0   1  10  20  32  71 156 159  74 187 195
 75 183 195  74 184 193  75 188 194  77 187 196  76 186 195  76 186 195
 75 183 193  77 187 198  55 134 141   3   7   8   1   1   1   1   1   3   1   0   0   1
 14  23   0   2   1   1  77 111   2 162 220   2  50  72   2 167 231   0 182 249   2 163
227   3 107 150   3  87 121   3 148 201   2 172 239   0 173 237   0 174 242   3 168 232
  1 137 187   0 173 239  26 179 246   4 137 188 110 107  98 235 239 240 254 255 255 255
255 255 255 255 255 255 255 255 238 237 235   5  84 117  32 178 245   3  87 131 140  67
  1 248 180 131 245 228 218 252 245 237 238 192 158 142  74   1   1   1   0  48 112 124
 77 185 195  77 185 195  75 185 194  76 184 194  76 186 195  76 186 195
 74 187 195  76 184 196  77 185 195  65 160 166  14  34  35   0   0   0   1   1   3   0
 13  20   1   1   1   1  68  97   2 175 241   0  64  91   1 139 193   0 179 247   0 173
239   1 181 250   2 171 236   3 159 218   1 170 235   2 172 239   0 174 235   0 173 239
  2 147 202   1 170 235  26 179 246   2 105 148 159 158 154 237 241 244 255 254 255 255
255 255 211 212 214 244 244 246 255 255 255 122 130 133   1 162 226   2  96 140 143  68
  3 250 142   0 242 125   1 244 164 103 249 213 191 244 199 166 184 117  47   0   0   0
 28  71  80  77 186 193  76 186 195  77 185 195  76 186 195  76 186 195
 76 186 195  76 186 195  41  98 103  15  39  41   6  16  17   0   0   0   1   1   1   2
 12  22   0   0   0   2  63  92   0 179 247   2 128 176   1  53  75   2 175 243   1 176
241   1 170 235   1 174 240   1 177 244   0 173 239   2 173 237   1 171 238   0 175 242
  4 160 219   7 168 232  12 175 240   2  95 128 177 176 174 235 236 238 255 255 255 200
202 201  86  87  89 254 254 254 255 255 255 156 156 154   0 147 211   1 102 146 142  69
  1 253 157  62 248 154  58 250 143   1 247 131   0 246 162  89 249 168  89 218 135   8
100  57  14  14  34  35  75 164 168  76 186 195  76 186 195  76 186 195
 76 186 195  38  95 102   0   0   0   0   0   0   0   0   0   1   1   3   2   2   2   1
 11  20   1   1   3   1  66  94   0 173 237   2 172 239   1  71  97   1  93 130   2 169
232   0 176 245   0 175 240   0 174 239   2 172 239   0 173 239   2 171 238   3 173 240
  2 169 232   7 170 237  13 172 235   2  92 124 179 178 176 224 228 229 254 254 255 153
155 154  66  66  68 193 197 198 252 252 252 163 162 158   1 144 210   2 107 146  89   1
  0 166  98  37 159  92   1 160  98  39 162 102  52 161  85   0 156  84   0 178 103  24
132  77  10   0   0   0  16   5   0  50 120 127  76 186 195  76 184 194
 76 186 195  29  70  72   1   1   0   5  11  11   2   3   5   2   2   2   0   1   0   4
 21  29  16  37  38   7  68  96  31 172 236  28 177 241  25 170 233  17 100 134   5  80
111   1 134 185   0 157 216   1 166 230   2 171 234   2 172 241   0 173 239   0 173 241
  0 173 239   4 173 240  27 174 235   1  95 131 169 168 166 213 217 218 255 255 255 209
211 208   1   1   3 102 103 105 253 253 255 132 136 137   1 156 222  40 104 142   6  14
 16  20  47  76  20  44  46  17  45  48  17  45  46  18  44  69  19  47  61  18  46  49
 17  43  44  38  59  54  17  43  44  15  36  37  58 141 149  76 186 195
 76 186 197  61 149 158   1   1   1   0   0   0   0   0   0   0   0   0   1   1   1  54
140 151  42  95 101   1  67 101   2 171 238   4 170 240   0 172 238   2 181 249  26 160
219  38 134 182  31 137 184   9 150 203   4 165 227   0 173 239   2 172 239   2 172 239
  1 171 238   2 172 239  29 173 235   3 116 158 133 133 131 211 215 218 225 229 228 253
254 255 203 204 206 249 249 251 247 247 245  39  79 102   3 176 242   4  99 137  44  58
 58  73 186 192  76 186 195  76 186 195  76 186 197  76 186 195  74 187 195  76 184 194
 75 188 196  76 186 195  74 187 195  76 186 195  72 178 189  76 186 195
 75 183 193  74 187 195  50 125 130  11  26  29  10  21  23  21  51  53  58 141 149  76
186 193  35  80  85   0  68  97   3 172 237   1 171 240   1 167 235   0 163 232   0 172
246   0 178 252   0 178 248  27 177 246  36 177 241  13 174 239   0 173 237   0 174 239
  2 173 237   0 175 240  13 174 239   0 148 196  31  64  79 193 193 191 212 217 223 234
238 239 255 255 255 255 255 255 174 169 163   3  97 143  38 187 253   1  90 130  23  54
 57  76 186 197  75 184 191  76 186 195  77 185 195  75 183 193  76 184 194  74 187 195
 75 185 194  73 186 194  75 183 193  77 187 196  74 187 195  76 186 195
 76 186 195  74 182 194  76 186 195  76 182 193  68 166 175  76 186 195  76 186 195  77
185 197  35  84  88  87  94 100 206 232 247 206 228 249 190 220 244 168 213 246 133 196
239  80 179 236   2 168 236   1 165 234   1 167 237  22 173 236  38 175 239   0 173 239
  1 174 240   2 173 237   0 174 239  27 163 213   2 105 145  94  90  87 195 194 192 203
204 206 211 215 214 184 182 183   0  30  42   3 158 214  12 181 248   1  93 130  40  60
 61  74 187 195  76 186 195  76 186 193  76 186 197  75 185 194  78 186 196  76 186 193
 75 185 194  76 184 194  77 185 195  75 185 194  75 185 192  77 187 196
 76 186 195  76 186 195  73 180 188  76 186 195  76 186 195  74 184 195  73 177 186  77
187 196  36  85  91 109 109 107 252 253 255 255 255 255 255 255 255 255 255 255 254 254
254 237 246 253 200 228 249 146 200 244  53 177 237   1 166 239   0 168 238  40 175 238
 23 174 239   0 172 238   5 178 244   0 175 238  32 156 202   3  87 123  47  54  62 130
128 129 105 105 105   1   3   0   2 136 179  21 176 240   1 177 244  14  94 131  13  33
 34  50 119 126  47 112 118  46 113 119  48 117 122  56 119 126  43 102 108  56 133 141
 74 184 193  75 185 194  76 186 195  74 187 195  76 186 193  76 186 195
 76 186 195  76 186 195  76 186 195  75 181 192  75 179 190  75 185 194  76 182 193  77
185 195  34  85  88 104 105 107 247 251 254 251 252 254 251 252 254 253 254 255 255 255
255 255 255 255 255 255 255 254 254 255 226 240 251 159 207 243  39 176 238   0 164 237
 12 173 238  36 177 240   1 164 229   5 157 216   4 160 218  40 160 205   1 122 159   1
 76 117   2  89 130  42 146 189  26 172 231   2 171 238  13 176 243   3  92 132  67  20
  0 119 100  93 119  88  68 137  81  22  80  43   1   0   0   0  22  24  23  56 139 145
 77 187 198  75 183 193  76 186 195  76 186 195  76 186 195  75 185 194
 76 186 195  76 186 195  76 186 195  76 186 195  76 186 195  76 186 195  75 181 192  76
186 195  36  85  89 106 106 106 252 253 255 255 255 255 255 254 255 255 255 255 253 255
254 252 253 255 251 252 254 255 255 255 255 255 255 255 253 255 218 236 248 129 196 241
  0 165 238   1 174 242  41  96 126   2   2   4   5 102 145   3 155 210  33 164 216  47
163 212  43 166 217  14 171 232   1 171 238   1 172 236  33 178 245   2  76 121 136 115
 94 246 212 187 239 183 135 203 124  34  83  44   1  28  68  75  77 181 188  76 186 195
 75 185 194  76 186 195  76 186 195  76 186 195  76 186 197  76 186 195
 76 186 195  76 186 195  76 186 195  76 186 195  76 186 195  76 186 195  75 183 193  76
186 195  36  85  89 107 107 107 252 253 255 255 255 255 255 253 254 255 255 255 255 254
255 255 255 255 255 254 255 253 255 254 251 252 254 255 255 255 255 255 255 252 254 253
179 216 245   0 173 241   1  93 138  40   0   0   0   0   0   5  93 131   1 170 235   1
168 231   2 171 238   0 173 239   2 173 237   1 171 238  37 177 244   1  82 129 153  96
 25 245 174 110 193 115  33  45  27   7  43 103 111  76 186 193  76 186 195  72 179 187
 75 188 196  76 186 195  76 186 195  76 186 195  76 186 195  76 186 195
 76 186 195  76 186 195  76 186 195  76 186 195  76 186 195  76 186 195  75 183 193  75
185 194  35  86  91 101 101 101 252 253 255 255 255 255 253 255 252 255 255 255 255 255
255 255 255 255 254 254 254 254 255 255 255 254 255 254 255 255 252 251 255 254 255 255
254 253 255 202 230 252   1 166 229   2  87 128  36   2   3   2   2   4   4 168 229   3
176 244   2 172 239   0 170 237   0 173 239   0 170 237  28 177 243   1  88 129 130  49
  2 163  75   1   9  27  27  55 138 144  76 186 195  76 186 195  73 180 188  75 188 196
 76 186 195  75 188 196  77 185 195  76 186 193  76 186 195  76 186 195
 74 187 195  76 186 195  76 186 195  76 186 195  76 186 195  75 185 194  74 180 191  76
186 195  43 100 107  55  55  55 242 244 243 255 255 255 255 253 255 255 255 255 255 255
255 254 255 255 254 255 255 254 255 255 255 255 253 255 255 255 255 255 255 251 252 254
255 255 255 255 254 255 209 234 254   1 166 230   2 139 191  22 149 202   0 173 237   1
171 238   0 173 239   0 173 239   0 174 239   0 173 237   2 172 239   2  71 100  14   0
  2  24  63 104  77 175 184  76 186 195  74 183 188  76 182 193  76 186 195  77 185 195
 77 187 196  76 186 195  76 186 195  76 186 195  76 186 195  76 186 195
 76 186 195  76 186 195  76 186 195  76 186 195  76 186 195  76 186 195  76 184 194  76
186 195  72 152 161   0   0   0 212 216 217 254 255 255 252 252 252 255 254 255 255 255
253 255 255 255 254 254 252 255 255 255 255 255 255 255 255 255 255 254 255 254 255 255
255 254 255 253 254 255 255 255 253 196 227 255   0 173 247  36 181 248   2 172 239   2
172 239   0 173 239   0 174 239   1 172 234   1 175 243   2 159 218   8   0   0  30  72
 84  76 186 193  77 185 195  72 179 187  76 184 194  76 186 195  77 185 195  76 186 195
 77 185 195  76 186 195  76 186 195  76 186 195  76 186 195  76 186 195
 77 185 195  76 186 195  76 186 195  76 186 195  76 186 195  76 186 195  75 185 194  76
186 195  81 185 194   5  15  17 130 128 129 252 254 253 255 253 254 247 249 246 250 250
252 249 249 249 250 250 250 250 250 250 249 251 248 250 250 250 249 249 249 250 249 247
250 252 251 249 251 250 249 250 252 253 254 249 140 198 236   0 157 230  39 173 234   0
169 233   3 170 233   0 169 234   0 171 235   1 181 250   3 112 153   0   0   0  75 175
185  76 186 197  74 178 189  77 187 196  76 186 195  74 187 193  74 187 195  76 186 195
 76 186 197  77 185 195  75 188 196  76 186 197  76 186 195  76 186 195
 76 186 195  74 187 195  76 186 195  76 186 195  76 186 195  76 186 195  76 186 195  74
182 192  73 186 194  58 109 114   0   1   0 183 191 193 255 255 255 255 254 255 255 255
253 255 255 255 255 255 255 255 255 255 255 255 255 254 254 254 255 254 255 254 255 255
255 254 255 255 255 255 255 255 255 255 255 255 253 254 255  76 187 251   0 178 248  18
181 248   1 181 250   0 180 248   1 181 249   5 148 200   1   0   0  24  57  62  76 186
193  75 181 192  77 185 195  76 186 195  75 185 194  76 186 195  77 185 195  77 187 196
 76 184 194  77 187 194  75 185 194  77 187 196  76 186 195  76 186 195
 76 186 195  75 185 194  76 186 195  76 186 195  76 186 195  76 186 195  76 186 195  76
184 194  76 186 197  78 182 191  10  21  23   0   0   0 166 175 174 214 218 221 217 217
215 213 217 218 215 219 220 215 219 220 216 220 221 220 218 219 214 219 222 213 217 220
213 219 219 213 219 217 215 219 220 211 216 219 222 224 223 129 178 210   5 145 204  32
153 206   4 151 205   4 151 205   6 130 176   0  13  22   0   2   1  62 164 174  76 186
195  75 185 194  76 186 197  76 186 195  74 186 197  74 187 195  77 187 196  75 185 194
 77 187 198  76 186 195  77 185 195  77 186 193  76 186 195  76 186 195
 76 186 195  76 186 195  76 186 195  76 186 195  76 186 195  76 186 195  76 186 195  76
186 195  76 184 194  76 186 195  74 162 171   8  13  16   0   0   0   4   0   3   2   3
  8   0   0   4  15  10   6   0   4   7  28  15   7   0   1   6   1   0   6  22  13   8
  2   6   9   8   8   8   9   9   9   6   7   9   4   8  11  42  33  16   0   0   5   2
  6   9   0   5  11   2   3   8   0   0   0   0   0   0  52 138 151  76 186 195  75 183
193  76 186 195  76 186 195  76 186 195  76 186 195  76 186 195  76 186 195  76 186 195
 76 186 195  76 186 195  76 186 195  77 186 193  76 186 195  76 186 195
 76 186 195  76 186 195  76 186 195  76 186 195  76 186 195  76 186 195  76 186 195  76
186 195  76 186 195  75 183 195  76 186 195  78 171 179  60  90  88  14  34  35  90  26
  1   9  20  22  11  26  29   9  23  24  11  25  26  76  11   5  52  20  21  15  36  37
 14  34  35  15  33  35  15  36  39  15  36  37  15  36  37  15  36  37  26  36  38  15
 36  39  16  37  40  15  36  37  24  63  66  60 156 168  77 187 196  76 185 192  76 184
194  76 186 195  76 186 195  76 186 195  76 186 195  76 186 195  76 186 195  76 186 195
 76 186 195  76 186 195  76 186 195  76 186 195  76 186 195  76 186 195
 76 186 195  76 186 195  76 186 195  76 186 195  76 186 195  76 186 195  76 186 195  76
186 195  76 186 195  76 186 195  83 183 189  76 186 197  74 187 193 174 163 110 226 149
 59  77 179 189  84 181 187  71 181 192 104 175 169 235 146  52 100 179 176  73 185 196
 81 183 193  81 185 194  81 185 194  81 185 194  81 185 196  75 182 190  72 181 194  74
182 194  72 182 193  72 182 191  76 186 195  76 186 193  74 187 195  76 184 194  76 186
195  77 187 196  76 186 195  74 187 195  76 186 195  76 186 195  76 186 195  76 186 195
 76 186 195  76 186 195  76 186 195  76 186 195  76 186 195  76 186 195
 76 186 195  76 186 195  76 186 195  76 186 195  76 186 195  76 186 195  76 186 195  76
186 195  74 186 197  76 186 195  76 186 195  75 188 196 128 174 145 255 151  28 144 172
134  75 188 196  76 186 197  75 185 194 192 163  89 198 161  80  77 185 197  75 185 194
 76 186 195  76 186 193  76 186 195  76 186 195  77 186 193  77 187 194  76 184 194  76
186 195  76 186 195  76 186 197  75 185 194  75 183 193  76 184 194  75 185 194  75 188
196  76 186 197  76 186 195  76 186 195  76 186 195  76 186 195  76 186 195  76 186 195
 76 186 195  76 186 195  76 186 195  76 186 195  76 186 195  76 186 195
 76 186 195  76 186 195  76 186 195  76 186 195  76 186 195  76 186 195  76 186 195  76
186 195  76 186 195  77 185 195 101 181 170 176 162 100 255 163  30 221 151  55  76 186
195  77 185 195  76 186 195 160 167 115 253 164  34 117 176 154  74 187 195  81 184 191
 73 183 192  76 182 195  76 184 194  75 181 192  75 183 193  75 182 190  76 185 192  75
183 195  75 183 193  75 184 191  74 184 193  77 185 195  76 186 195  76 186 195  76 185
192  76 186 195  76 186 197  76 186 195  76 186 195  76 186 195  76 186 195  76 186 195
 76 186 195  76 186 195  76 186 195  76 186 195  76 186 195  76 186 195
 76 186 195  76 186 195  76 186 195  76 186 195  76 186 195  76 186 195  76 186 195  76
186 195  77 185 195  82 185 190 240 147  34 255 153  32 215 154  64 209 154  64  75 185
194  85 185 185 207 155  69 251 149  29 240 148  41 120 174 150  77 185 195  78 187 194
 78 186 198  76 186 195  74 187 195  77 187 194  77 187 196  77 187 198  76 186 197  76
186 193  76 186 195  76 186 195  77 185 195  77 187 196  75 185 194  75 185 194  74 186
197  76 186 195  76 186 197  76 186 195  76 186 195  76 186 195  76 186 195  76 186 195
 76 186 195  76 186 195  76 186 195  76 186 195  76 186 195  76 186 195
 76 186 195  76 186 195  76 186 195  76 186 195  76 186 195  76 186 195  76 186 195  76
186 195  76 186 195  79 187 197 153 166 120  91 183 180 150 168 120 217 154  61  76 186
193  98 179 172 220 152  55 111 178 161 207 155  69 135 172 137  76 186 195  78 185 191
 73 186 194  76 186 197  76 186 195  76 186 195  76 186 195  75 185 194  77 187 194  76
186 195  74 187 195  74 187 195  76 186 195  74 186 197  76 186 195  76 186 195  76 186
193  76 186 195  76 186 195  77 185 195  76 186 195  76 186 195  76 186 195  76 186 195
 76 186 195  76 186 195  76 186 195  76 186 195  76 186 195  76 186 195
 76 186 195  76 186 195  76 186 195  76 186 195  76 186 195  76 186 195  76 186 195  76
186 195  76 186 195  76 185 190  76 186 193  82 185 192 245 146  29 159 167 116  76 186
195  85 184 189  77 185 197 110 178 161 244 147  34  92 180 179  77 187 198  77 186 193
 77 187 196  76 186 195  77 187 196  77 187 196  77 187 196  76 186 195  76 186 195  76
186 195  76 186 195  76 186 197  76 186 195  77 187 196  76 186 195  76 186 195  76 186
195  76 186 195  76 186 195  76 186 195  76 186 195  76 186 195  76 186 195  76 186 195
 76 186 195  76 186 195  76 186 195  76 186 195  76 186 195  76 186 195
 76 186 195  76 186 195  76 186 195  76 186 195  76 186 195  76 186 195  76 186 195  76
186 195  76 186 195  77 186 193  76 186 195 107 179 167 218 152  56  84 183 186  76 186
195  78 185 191  76 186 195 132 173 143 177 162  97  76 186 197  78 187 192  76 186 197
 77 187 194  76 186 195  76 186 195  75 185 194  76 186 195  76 186 195  76 186 195  76
186 195  74 187 195  76 186 195  76 186 195  76 186 195  74 187 195  76 186 193  76 186
193  76 186 195  77 185 197  76 186 195  76 186 195  76 186 195  76 186 195  76 186 195
 76 186 195  76 186 195  76 186 195  76 186 195  76 186 195  76 186 195
 76 186 195  76 186 195  77 185 195  76 186 195  76 186 195  76 186 195  76 186 195  76
186 195  76 186 195  76 186 195  76 186 195  77 186 191  83 184 188  74 187 195  77 186
193  76 186 195  77 185 195  76 186 195  76 186 195  77 185 195  76 186 195  76 186 195
 76 186 195  76 186 195  76 186 195  76 186 195  77 187 196  76 186 195  76 186 195  76
186 195  76 186 195  76 186 195  76 186 195  76 186 195  76 186 195  76 186 195  76 186
195  76 186 195  76 186 195  76 186 195  76 186 195  76 186 195  76 186 195  76 186 195
 76 186 195  76 186 195  76 186 195  76 186 195  77 185 195  78 186 196
 76 186 195  76 186 195  77 185 195  76 186 195  76 186 195  76 186 195  76 186 195  76
186 195  76 186 195  76 186 195  76 186 195  74 187 195  77 185 195  77 186 193  76 186
195  76 186 195  76 186 195  76 186 195  76 186 195  77 185 195  76 186 195  76 186 195
 76 186 195  76 186 195  76 186 195  76 186 195  77 187 196  76 186 195  76 186 195  76
186 195  75 183 193  73 181 191  76 186 195  76 186 195  76 186 195  76 186 195  76 186
195  76 186 195  76 186 195  76 186 195  76 186 195  76 186 195  76 186 195  76 186 195
 76 186 195  76 186 195  76 186 195  76 186 195  77 185 195  76 186 195
