P3
# 8-bit ppm - RGB
50 50
255
 77 187 196  78 188 197  77 187 196  76 186 195  76 186 195  76 186 195  76 186 195  76
186 195  76 186 195  76 186 195  76 186 195  76 186 195  76 186 195  77 187 196  75 185
194  76 186 195  76 186 195  76 186 195  76 186 195  76 186 195  76 186 195  76 186 195
 76 186 195  77 187 196  76 184 194  76 186 197  76 186 195  57 139 150  52 129 135  71
171 181  74 187 195  18  44  45   0   0   0  46 113 119  76 186 195  75 185 194  76 186
195  76 186 195  76 186 195  76 186 195  76 186 195  76 186 195  76 186 195  76 186 195
 76 186 195  76 186 195  76 186 195  76 186 195  76 186 195  76 186 195
 81 189 199  76 186 195  76 186 195  76 186 195  73 186 194  76 186 195  76 186 195  74
187 195  76 186 195  76 186 195  76 186 195  76 186 195  74 186 197  77 187 196  76 186
195  76 186 195  76 186 195  76 186 195  77 187 196  75 185 194  76 186 195  75 185 194
 76 186 195  76 186 195  75 185 196  76 186 195  34  83  89   5   6   8   1   1   3  12
 33  34  57 140 148  26  57  60   0   0   0  10  26  26  75 183 193  76 186 193  75 185
196  76 186 193  76 186 195  76 186 195  76 186 195  76 186 195  76 186 195  76 186 195
 76 186 195  76 186 195  76 186 195  76 186 195  76 186 195  76 186 195
 75 185 194  77 187 196  76 186 195  76 186 195  77 187 196  76 186 195  76 186 195  76
186 195  76 186 195  76 186 195  76 186 195  76 186 195  77 185 195  76 184 194  75 185
194  75 185 194  76 184 194  77 185 195  75 183 193  77 185 195  76 184 194  77 185 195
 76 184 194  76 184 194  76 182 193  77 185 195  14  35  38   0   1   3   2   4   3   0
  0   0   8  20  20  17  41  43   0   0   2   2   0   3  66 159 166  76 186 197  75 185
192  76 186 195  76 186 193  76 186 195  76 186 195  76 186 195  76 186 195  76 186 195
 76 186 195  76 186 195  76 186 195  76 186 195  76 186 195  76 186 195
 77 185 195  77 187 196  76 186 195  76 186 195  76 186 195  76 186 195  76 186 195  76
186 195  76 186 195  77 187 196  76 186 195  75 181 192  73 179 192  74 184 195  76 182
193  74 182 192  74 182 192  75 181 192  76 184 194  75 183 193  76 184 194  75 183 193
 75 183 193  76 184 194  73 183 190  76 186 195  64 155 160  10  21  23   2   0   1   4
 10  10   0   2   1   1   1   1   1   2   4   0   1   0  60 154 162  77 187 196  75 183
195  76 186 195  76 186 195  76 186 197  76 186 195  76 186 195  76 186 195  76 186 195
 76 186 195  76 186 195  76 186 195  76 186 195  76 186 195  76 186 195
 76 186 195  76 186 195  76 186 195  76 186 195  76 186 195  77 187 196  76 186 195  76
186 195  76 186 195  76 186 195  76 182 193  76 186 193  77 185 195  76 186 193  77 187
196  75 188 194  77 187 196  77 187 196  75 185 194  76 186 195  75 185 194  76 186 195
 76 186 195  76 186 195  77 187 196  76 186 195  76 186 197  70 170 178  22  55  60   1
  0   0   3   4   6   1   1   1   0   0   2   5  13  15  71 171 179  76 186 195  76 184
194  77 185 195  74 187 195  76 186 197  76 186 195  76 186 195  76 186 195  76 186 195
 76 186 195  76 186 195  76 186 195  76 186 195  76 186 195  76 186 195
 77 185 195  76 186 195  76 186 195  76 186 195  76 186 195  76 186 195  76 186 195  76
186 195  76 186 195  77 183 194  75 188 196  76 186 197  64 157 165  58 128 138  55 123
132  54 122 131  55 123 132  54 122 131  55 122 131  53 121 130  54 121 130  54 121 130
 54 121 130  54 121 130  53 121 130  56 120 130  52 119 127  59 133 142  50 110 118  22
 49  58  22  42  51  25  48  54  23  46  52  28  71  77  75 185 194  76 185 192  75 185
196  76 186 195  76 186 195  74 187 195  76 186 195  76 186 195  76 186 195  76 186 195
 76 186 195  76 186 195  76 186 195  76 186 195  76 186 195  76 186 195
 76 186 195  76 186 195  76 186 195  76 186 195  76 186 195  76 186 195  76 186 195  76
186 195  75 185 194  76 186 197  77 186 193  48 111 118   3   4   6   0   0   0   0   0
  0   0   0   0   1   0   0   1   0   0   0   0   0   1   0   0   0   0   0   0   0   0
  0   1   0   0   0   0   0   0   0   0   1   0   0   0   0   0   0   0   1   1   3   2
  2   2   1   0   0   1   1   3   0   0   2   9  27  31  62 149 158  77 185 195  76 185
192  76 186 195  76 186 195  76 186 195  76 186 195  76 186 195  76 186 195  76 186 195
 76 186 195  76 186 195  76 186 195  76 186 195  76 186 195  76 186 195
 76 186 195  76 186 195  76 186 195  76 186 195  76 186 195  76 186 195  76 186 195  76
186 195  75 183 195  76 186 195  47 112 118   0   0   2  28  49  54  81 134 152  85 140
161  84 141 158  85 142 161  84 141 160  84 141 160  84 141 160  84 141 160  84 141 160
 84 141 160  84 141 160  84 140 161  83 140 159  84 141 160  85 142 161  84 141 160  83
140 159  84 141 160  86 143 162  70 119 134   0   0   0   1   1   3  64 158 166  76 186
197  75 183 193  76 186 195  76 186 195  76 186 195  76 186 195  76 186 195  76 186 195
 76 186 195  76 186 195  76 186 195  76 186 195  76 186 195  76 186 195
 76 186 195  76 186 197  76 186 195  76 186 195  76 186 195  76 186 195  76 186 195  75
183 193  76 186 195  66 156 165   1   0   0  48  84  96 117 197 224 130 217 245 131 218
246 132 217 246 131 218 246 131 218 246 131 218 246 131 218 246 131 218 246 131 218 246
131 218 246 131 218 246 131 218 246 131 218 246 131 218 246 131 218 246 132 219 247 132
219 247 132 217 246 131 218 246 129 215 240  98 169 189   1   1   1  16  41  45  76 186
195  76 186 195  76 184 196  76 186 195  76 186 195  76 186 195  76 186 195  76 186 195
 76 186 195  76 186 195  76 186 195  76 186 195  76 186 195  76 186 195
 77 187 198  78 186 196  74 187 193  76 186 195  76 186 195  77 185 195  75 185 194  75
185 194  76 186 195  22  53  56   2   3   7 118 198 223 143 230 255 142 222 247 141 223
245 139 223 247 139 223 247 139 223 247 139 223 247 139 223 247 139 223 247 139 223 247
139 223 247 139 223 247 139 223 247 139 223 247 141 223 247 141 223 247 139 223 247 139
223 247 139 223 247 139 223 247 141 225 249 140 225 254  87 152 170   0   0   0  61 145
155  77 185 195  76 182 193  76 186 195  76 186 195  76 186 195  76 186 195  76 186 195
 76 186 195  76 186 195  76 186 195  76 186 195  76 186 195  76 186 195
 75 188 196  74 187 195  76 186 197  74 187 193  76 186 195  76 186 195  76 184 194  76
186 195  72 176 185   2   3   5  83 142 160 142 227 255 122 208 241  99 198 239  96 199
240 100 199 240  99 198 239  99 198 239  99 198 239  99 198 239  99 198 239  99 198 240
 99 198 239  99 198 239  99 198 239 100 199 240  97 199 239  99 198 239 100 197 239 100
197 239 100 197 239 102 197 239 103 201 238 130 220 246 133 215 239  22  54  67  28  61
 66  76 186 195  74 184 193  76 186 195  76 186 195  76 186 195  76 186 195  76 186 195
 76 186 195  76 186 195  76 186 195  76 186 195  76 186 195  76 186 195
 76 184 196  72 179 185  72 179 187  76 184 197  77 186 193  77 186 193  75 183 193  77
185 195  58 138 147   1   1   0 121 196 217 114 209 249  28 174 235   2 172 241   1 169
239   0 170 239   1 171 240   1 171 240   1 171 240   0 170 237   0 170 239   1 171 238
  1 171 240   1 171 240   1 171 240   1 171 240   1 171 240   2 170 240   1 171 238   1
171 240   1 171 238   1 171 238   1 174 240  65 182 236 131 220 250  90 141 158  10  24
 25  78 186 196  78 184 195  76 186 195  76 186 195  76 186 195  76 186 195  76 186 195
 76 186 195  76 186 195  76 186 195  76 186 195  76 186 195  76 186 195
 75 185 194  77 187 198  76 186 195  74 183 190  74 182 192  76 186 195  74 180 191  74
187 195  40  97 104  45  65  64 109 199 231   1 174 240   1 169 239   1 172 236   0 172
240   1 171 238   1 171 238   1 172 236   1 172 236   1 171 238   1 172 236   1 171 238
  1 172 236   1 172 236   1 172 236   1 172 236   1 171 238   0 172 236   1 171 240   2
172 239   1 171 238   2 171 238   1 171 238   0 166 236  75 193 247 100 167 186   3   7
  8  73 175 185  74 187 195  75 183 193  76 186 195  76 186 195  76 186 195  76 186 195
 76 186 195  76 186 195  76 186 195  76 186 195  76 186 195  76 186 195
 75 183 193  46 111 117  57 140 148  75 185 194  76 186 195  76 184 194  74 182 192  76
186 195  39  90  95  42  76  87  48 180 236   1 171 240  23 174 239  11 172 237  11 172
237  10 173 240   9 172 237  10 173 238  10 173 238  10 173 238  10 173 238  10 174 237
 10 173 238   9 172 237  10 173 240  10 173 240   9 172 237  10 173 240  10 174 237  12
173 238  12 173 238  10 173 238  16 175 240   5 172 235   1 177 246  61 154 197   0   0
  2  63 165 177  77 185 195  75 183 193  76 186 195  76 186 195  76 186 195  76 186 195
 76 186 195  76 186 195  76 186 195  76 186 195  76 186 195  76 186 195
 52 129 135   0   0   0   4   8   9  40  95  99  75 185 194  76 186 195  72 179 187  76
186 195  37  90  95   0  57  84   3 168 232  11 175 238   0 173 239   1 174 240   1 174
240   0 174 239   0 173 239   0 173 239   0 173 239   0 173 239   0 173 239   0 173 239
  0 173 239   0 173 239   0 173 239   0 173 237   0 173 239   0 173 237   0 172 240   0
173 239   0 173 241   2 172 241   0 172 238   5 171 237   3 179 246   2 137 193   2   2
  2  65 163 176  74 187 195  76 184 196  76 186 195  76 186 195  76 186 195  76 186 195
 76 186 195  76 186 195  76 186 195  76 186 195  76 186 195  76 186 195
 37  87  94   0   0   0   0   0   0   0   0   0  31  75  78  74 187 195  76 182 193  76
186 197  39  90  95   0  63  91   5 178 244   0 173 239   0 170 234   2 172 239   0 173
237   0 173 239   0 173 239   0 173 239   0 173 239   0 173 239   0 173 239   0 173 239
  0 173 239   0 173 239   0 173 239   0 173 239   0 173 239   2 172 239   0 171 235   0
169 236   0 169 234   0 169 234   2 172 239   0 171 235   4 178 246   2 140 194   7   3
  2  78 180 190  76 186 197  74 178 185  76 186 195  76 186 195  76 186 195  76 186 195
 76 186 195  76 186 195  76 186 195  76 186 195  76 186 195  76 186 195
 36  85  89   0   0   0   6  10   9   0   0   0   0   0   0  33  78  83  76 186 193  76
186 195  36  89  94   1  30  44   4 155 210   1 181 250   0 180 248   0 175 240   1 170
235   1 170 235   0 170 237   1 171 238   0 173 239   0 173 239   0 173 239   0 172 236
  1 174 240   0 173 239   0 173 239   0 173 239   2 173 237   0 169 234  24 178 246  55
188 254  56 189 255  31 182 247   3 169 235   3 172 237   1 177 246  11 142 196   0   0
  0  36 108 120  76 186 195  76 186 195  74 178 189  76 186 195  76 186 195  76 186 195
 76 186 193  74 187 195  76 186 195  76 186 195  76 186 195  76 186 195
 44 107 112   0   0   0   1   3   2   2   3   5   0   2   1   0   0   0  38  93  98  76
186 195  34  91  98   0   1   0   3  44  62   1 106 146   1 155 214   0 175 240   2 182
251   1 181 250   1 177 244   1 172 236   0 170 234   2 172 239   0 173 239   0 173 239
  1 174 240   0 173 239   0 173 239   2 173 237   4 170 236  30 180 248  16 165 229   2
107 170   0  98 159   2 154 213  41 181 248   0 169 234   4 178 246   2 143 196  33   1
  2   0  12  36  23  72 102  84 182 185  76 186 193  74 178 187  76 184 194  76 186 195
 76 186 193  76 184 194  76 186 193  76 186 195  74 187 195  76 186 195
 61 149 158   0   0   0   2   2   2   0   1   0   2   3   5   1   0   0   0   0   2  58
141 147  43 108 114   0   0   2   3   4   6   3  36  51   2   2   4   0  60  84   1 118
162   2 149 203   1 170 233   1 181 249   0 183 251   0 175 240   0 169 236   0 173 239
  0 173 237   0 173 239   1 171 238   0 171 235  24 179 245   2 148 205   1  15  62 131
130 128 137 136 132   2   3   5   2 123 178  35 180 245   1 177 244   1 139 194  43   3
  3 196 107   3 111   1   2  12  32  85  83 163 164  76 186 197  77 181 192  75 184 191
 76 184 194  74 187 195  77 187 196  77 185 195  78 186 196  76 186 195
 78 186 196  18  44  45   0   0   2   5   9  10   1   1   1   2   3   5   1   0   0   8
 22  23  24  59  61   2  20  32   2   2   4   0 111 156   0 146 200   0  75 104   1   2
  4   2   2   4   3  21  33   3  88 126   1 140 189   2 175 241   0 183 251   0 169 234
  0 173 241   0 175 240   2 171 238   8 177 242   1 162 224   3  17  46 207 203 202 255
251 252 252 250 251 221 222 216  81  69  55   2 142 201  34 184 253   1 139 193  11   1
  2 236 223 214 236 168 119 141   1   0   4  10  34  56 136 147  76 186 197  77 185 197
 72 181 188  76 186 195  75 185 192  77 187 196  76 186 195  76 186 195
 76 186 195  61 151 159   1   1   0   0   0   0   1   3   2   0   0   2   2   4   3   0
  0   0   1   3   2   0   0   0   2  31  49   2  53  74   4 133 183   3 179 248   1 168
231   1 144 194   0 117 160   1  93 130   2  66  94   2  71 100   0 147 201   2 182 250
  1 172 236   2 173 237   1 172 234  28 178 246   2  89 134 161 158 149 254 254 252 254
255 255 255 255 255 255 254 255 219 220 214   0  67 102  18 183 249   1 139 194   3   1
  2 234 234 234 252 254 253 244 206 185 178  81   0   1   1   1  32  82 109  76 186 195
 76 186 195  72 179 187  76 186 195  76 184 194  76 186 195  75 185 194
 76 182 193  76 186 195  52 126 135   6  10  11   0   0   2   2   2   4   0   0   0   1
  1   3   0   5  11   1   1   0   2   3   7   1 108 150   1  95 131   2  97 137   2 150
206   2 175 241   1 180 246   0 173 239   2 164 223   0 139 190   1  75 102   3 132 184
  1 180 248   0 170 237  16 176 244   3 160 219  56  64  66 213 217 218 254 255 255 250
250 250 255 255 255 255 255 255 255 255 255 139 136 131   1 152 217  28 151 203  13   1
  1 225 154  98 250 204 178 251 237 228 247 229 215 210 147 104  68   0   0  17  40  56
 86 171 173  77 185 195  72 179 187  77 185 195  76 186 195  76 186 195
 75 185 194  77 187 196  76 186 193  63 153 161  14  35  38   0   0   0   1   1   3   1
 11  20   1   1   3   1  63  88   1  74 104   1  46  69   2 111 152   3 126 175   4 122
168   2 132 178   2 154 211   1 175 236   1 180 248   0 179 247   0 163 226   3  99 134
  1 153 210   2 176 244  25 178 245   2 135 186 118 117 112 225 229 230 254 254 254 255
255 255 217 219 218 214 215 217 255 254 255 194 189 183   2 124 183  30 152 207  13   1
  1 226 125   0 247 135   0 239 151  70 245 189 156 247 207 181 223 165 120 117  64   0
  6  15  20  50 125 131  76 186 195  75 183 193  72 180 190  77 185 195
 76 186 195  75 185 194  37  90  95  17  43  42   5  13  15   0   0   0   0   0   0   2
 14  26   1   3   2   0  80 113   2 116 160   1  23  34   2 113 156   1  89 124   3 108
148   3 129 177   2 145 198   2 159 220   3 168 234   1 171 240   1 181 249   1 165 228
  2 128 176   1 171 238  28 179 244   2 119 163 141 140 138 225 226 228 255 255 255 243
241 244  65  66  68 234 235 237 255 254 255 212 209 204   2 115 169  21 152 208  16   2
  2 235 149  64 247 157  37 248 146  10 249 146   8 248 161  74 242 175 104 244 157  50
180 105  16  28  17  11  40  97 102  76 186 195  76 186 195  75 183 193
 76 186 195  37  90  95   0   0   0   0   0   2   0   0   2   0   1   0   1   3   2   2
 12  22   0   0   0   1  68  95   4 161 222   3  53  76   4 102 141   5 146 200   4 145
199   2 143 196   2 148 205   2 158 216   1 172 236   1 174 240   1 172 236   0 179 247
  3 159 218   1 165 228  29 180 243   3 114 159 146 145 140 214 218 221 254 254 255 213
215 214   2   0   1 173 174 176 234 238 239 222 219 214   1 107 164  29 151 206   6   2
  1 149  89  37 163  96  26 160  97  43 161  94   6 160  82   0 159  87   1 171 100  20
161  94  15  65  35   1   0   1   0  29  48  46  67 164 170  76 186 195
 76 186 195  20  54  56   0   0   0   3  12  11   2   2   0   2   8   8   1   0   0   1
 11  20  15  36  37   0  54  78   1 174 240   1 155 215   3  87 123   1  75 108   2 106
149   2 130 179   3 138 191   4 151 205   2 162 222   0 172 233   0 173 239   0 170 237
  1 174 240   0 171 233  29 176 240   3 123 168 133 133 131 207 211 214 245 246 248 241
241 241   1   3   0   1   3   2 238 242 243 208 203 197   1 115 177  37 153 210   2   0
  3  15  36  67  19  43  43  16  42  43  17  41  53  17  43  68  18  44  45  17  43  44
 17  43  44  22  46  48  18  42  42  13  31  33  31  79  83  75 177 187
 73 186 194  55 134 141   0   2   0   1   0   0   0   0   0   0   0   0   0   0   0  53
132 145  39  96 101   7  61  85  54 175 236  53 183 245  57 173 232  58 155 206  48 136
182  29 127 174   3 126 175   1 137 187   2 158 216   3 172 239   0 172 238   2 172 239
  0 174 239   1 174 240  20 173 238   0 144 188  88  96  99 204 208 209 213 217 220 255
255 255 219 217 218 207 207 207 255 255 255 155 150 146   1 143 201  37 150 204   1   3
  2  65 163 176  76 186 195  72 178 189  73 183 192  73 183 190  74 182 194  75 181 192
 73 179 190  77 181 192  76 184 194  73 182 189  70 173 180  75 181 192
 76 184 194  76 186 195  44 107 112   5  13  15   3   7  10  17  41  43  53 130 136  76
186 197  44  92  94   2  55  86   2 162 230   0 162 237   0 164 238   2 167 243   1 169
242   0 173 239  52 176 238  52 177 241  15 176 238   1 171 238   1 174 240   1 172 234
  1 174 238   0 173 237   3 174 236  24 161 211   0  67  96 173 173 173 215 219 222 221
222 224 254 254 252 255 255 253 236 236 238   3  45  57   2 173 237  17 146 198   2   4
  3  70 168 179  76 186 193  79 183 192  77 187 196  77 185 197  76 186 195  77 185 195
 77 187 196  76 186 197  74 187 193  75 185 194  76 186 195  76 186 195
 76 184 194  77 187 196  76 186 195  69 166 175  64 157 164  75 184 191  76 186 195  76
186 195  37  87  94  70  81  87 197 225 247 198 226 250 182 217 245 155 207 246 109 191
241   3 173 240   0 165 239   0 165 238  31 176 243  56 177 238   9 174 238   2 172 239
  3 172 237   0 173 237   1 174 242  19 167 223   2 127 167  57  53  44 188 189 193 215
218 223 223 228 232 221 225 228 108  99  84   1 112 155  28 184 250   1 139 193   1   3
  2  79 177 188  76 186 195  76 186 195  76 186 197  73 186 194  75 185 194  76 186 195
 76 186 195  75 182 190  75 183 195  76 184 194  75 183 193  76 186 195
 76 186 195  77 183 196  76 186 195  76 186 195  77 187 196  76 186 195  75 181 192  76
186 195  36  89  94  94  93  91 251 253 252 254 254 254 255 255 255 254 254 255 250 251
253 230 243 251 197 225 247 130 197 241   0 169 236   1 163 238  37 177 238  46 176 236
  1 171 238   1 171 238   3 172 239   2 172 239  20 152 200   2 106 143  48  40  38 130
127 122 132 128 127  51  36  13   2  82 117  21 166 221   0 180 248   3 141 195   2   2
  0  45 132 147  59 138 155  54 131 137  55 133 137  56 135 142  60 139 146  49 120 124
 67 165 174  77 187 196  76 185 192  76 186 197  76 186 195  76 186 197
 76 186 197  75 188 196  75 185 194  75 185 194  75 183 193  76 186 195  74 183 190  76
186 193  37  90  95  93  91  92 250 252 251 255 255 255 255 255 255 254 255 255 255 255
255 255 255 255 255 255 255 253 254 255 224 238 251 152 205 245   3 165 237   0 167 239
 55 176 237   3 172 237   1 174 240   4 169 235   4 169 232  17 153 200   2 123 162   1
 85 121   1  77 109   3 113 150  15 158 210   4 173 240   1 177 246   2 143 196   1   1
  1  57   1   2  46   0   2  56  33  17  93  57   9  12   4   1   0   0   0  31  73  72
 72 179 187  76 186 195  76 184 196  76 186 195  77 185 195  76 186 195
 76 186 195  78 186 196  76 186 195  76 186 195  76 186 195  76 186 195  75 181 192  76
186 195  35  90  95  92  92  92 247 251 252 255 254 255 254 254 255 254 253 255 255 253
255 255 255 255 255 255 255 255 255 255 255 255 255 254 254 255 219 237 251 108 190 240
  1 160 235  45 180 245  26 132 180   1  37  59   2  97 135   5 156 209  20 161 212   1
149 193   2 152 197  23 164 218   8 173 237   1 172 236  13 179 245   1 142 195  20   2
  0 214 194 183 239 195 168 232 158  89 161  92   1   0   0  10  56 108 106  77 185 195
 77 187 196  77 185 195  77 187 196  76 186 195  76 186 197  76 186 195
 76 186 195  76 186 195  76 186 195  76 186 195  76 186 195  76 186 195  74 182 192  76
186 195  37  90  96  93  91  92 250 251 253 254 254 254 255 255 255 255 255 255 254 255
255 255 255 255 254 254 255 254 254 255 255 255 255 255 255 255 255 255 255 249 253 254
171 211 244   2 171 246  13 120 164  31   0   0   0   0   0   3  79 111   1 168 230  12
171 234  12 173 237   0 174 242   0 173 239   2 171 236  14 179 245   3 141 195   3   3
  3 239 169 118 243 165  91 152  89  20   8  20  20  66 147 151  76 186 195  76 186 195
 76 186 195  76 186 195  76 186 195  76 186 195  76 186 195  76 186 195
 76 186 195  76 186 195  76 186 195  76 186 195  76 186 195  76 186 195  74 180 191  76
186 195  36  91  95  90  90  90 250 250 252 255 255 255 254 254 254 255 255 255 255 255
255 255 254 255 255 255 255 255 255 255 255 255 255 254 254 255 254 255 255 254 255 255
253 253 255 200 226 249   1 164 233   0  79 112  29   0   0   0   2   1   2 143 197   0
178 248   2 171 238   0 173 239   0 173 239   2 171 236  13 178 244   2 140 195  56   5
  4 201 121  10 115  56   1  20  50  52  70 170 180  76 186 195  74 187 195  75 185 194
 76 186 195  76 186 195  76 186 195  76 186 195  76 186 195  76 186 195
 76 186 195  76 186 195  76 186 195  76 186 195  76 186 195  76 186 195  75 181 192  76
186 195  43 102 108  52  54  53 242 243 245 255 255 255 255 255 255 255 255 255 255 255
255 255 255 255 255 255 253 255 255 255 254 255 255 255 255 255 255 255 253 254 254 255
255 255 255 255 255 255 211 234 252   2 167 231  10 128 174  17 114 157   3 164 226   1
174 242   1 171 238   0 172 238   0 173 239   1 172 236   4 178 246   3 132 182  31   1
  1  31  26  33  35  87  98  76 186 195  75 185 194  73 186 192  77 183 194  76 186 195
 77 187 196  76 186 195  76 186 195  76 186 193  76 186 195  76 186 195
 76 186 195  76 186 195  76 186 195  76 186 195  76 186 195  76 186 195  75 183 193  77
187 196  73 150 158   1   0   0 216 220 221 255 255 255 253 253 255 255 254 255 255 255
255 255 255 255 255 255 255 254 254 254 254 254 254 254 255 255 255 254 255 255 255 255
254 254 255 255 254 255 255 255 255 199 227 249   1 168 244  35 180 243   2 172 239   1
171 238   0 173 239   0 174 239   0 172 238   0 171 235   2 176 244   3 102 141   3   4
  8  49 132 150  77 186 193  74 187 195  75 185 192  77 183 196  75 188 196  77 187 196
 76 186 195  74 187 195  76 186 195  76 186 195  76 186 195  76 186 195
 76 186 195  76 186 195  76 186 195  76 186 195  76 186 195  76 186 195  76 186 195  76
186 195  79 179 187   2  10  12 153 153 153 254 254 254 252 252 254 253 253 253 254 254
254 254 254 254 254 254 252 254 254 254 254 254 254 255 253 254 253 255 254 253 253 253
253 255 254 253 254 255 255 253 254 255 255 255 158 208 241   2 164 239  39 176 238   0
173 239   1 171 238   1 171 238   1 170 237   1 174 242   4 168 229   2  21  35  29  70
 74  76 186 195  76 186 195  77 183 194  76 186 195  74 187 195  77 185 195  76 186 195
 76 186 195  76 186 195  76 186 197  76 186 195  76 186 195  76 186 195
 76 186 195  76 186 195  76 186 195  76 186 195  76 186 195  76 186 195  76 186 195  75
183 193  76 186 195  42  77  81   0   0   0 216 220 223 255 255 255 255 255 255 255 255
253 254 254 254 255 255 255 254 255 255 255 255 255 255 255 255 255 254 255 255 255 255
255 255 255 255 254 255 255 254 255 255 255 255 248 252 255  75 181 239   1 170 237  25
174 240   0 173 239   0 173 239   0 176 243   1 180 248   3 106 146   0   0   0  56 150
162  76 186 195  75 182 190  76 186 195  76 186 195  77 185 195  76 186 195  78 187 194
 73 186 194  76 186 195  76 186 195  75 185 194  76 186 195  76 186 195
 76 186 195  76 186 195  76 186 195  76 186 195  76 186 195  76 186 195  76 186 195  74
184 193  77 187 196  73 168 174   0   0   0  48  50  49 213 215 214 254 254 255 254 254
254 254 254 255 254 254 255 254 254 255 254 254 255 254 252 255 254 254 255 254 254 255
253 253 255 254 254 252 255 254 252 253 254 255 253 255 254 189 221 246   1 167 237  35
174 238   0 173 237   2 173 237   2 169 232   5 118 162   0   0   0  18  62  71  76 186
195  75 183 193  77 185 195  77 187 196  76 186 197  75 185 194  76 186 195  76 186 195
 76 186 195  76 186 193  76 186 193  74 187 195  76 186 195  76 186 195
 76 186 195  76 186 195  76 186 195  76 186 195  76 186 195  76 186 195  76 186 195  76
186 195  75 183 193  76 186 195  60 125 131   0   0   0   0   0   0 103 105 104 114 110
107 105 109 110 106 110 111 105 109 110 105 111 111 114 110 107 108 110 107 105 111 111
106 110 111 106 110 111 107 111 112 106 110 113 111 111 111  98 106 109   3  72 103  10
 77 106   5  74 105   3  77 104   3  51  71   0   0   0   7  15  17  69 169 179  76 186
195  76 184 194  76 186 195  76 186 195  76 186 195  78 186 196  75 188 196  76 186 195
 76 186 195  76 186 195  76 186 195  76 186 195  76 186 195  76 186 195
 76 186 195  76 186 195  76 186 195  76 186 195  76 186 195  76 186 195  76 186 195  76
186 195  76 186 195  76 184 194  76 186 195  48 125 131  21   7   7   0   0   0   1   3
  2   0   0   0   0   0   0   0   0   2   0   0   0   0   0   0   0   0   0   0   0   0
  0   0   0   0   0   0   0   0   0   0   0   0   0   0   0   1   0   0   7   0   0   0
  0   0   0   1   0   1   0   0   0   0   0  16  44  48  66 165 171  76 186 193  75 183
193  76 186 195  75 185 194  76 186 197  76 186 195  76 186 195  76 186 195  76 186 195
 76 186 195  76 186 195  76 186 195  76 186 195  76 186 195  76 186 195
 76 186 195  76 186 195  76 186 195  76 186 195  76 186 195  76 186 195  76 186 195  76
186 195  76 186 195  75 185 194  77 185 195  76 186 195  73 179 192 111 141 117 206 121
 28  95 133 116  51 123 135  71 130 128  49 121 135 188 123  43 138 136  95  57 140 154
 71 140 143  60 139 146  61 138 144  60 139 144  61 140 147  57 136 143  56 136 147  54
137 145  54 136 147  54 134 143  60 148 158  76 186 195  76 186 195  76 186 195  76 186
195  77 185 195  76 186 195  77 187 198  76 186 195  76 186 195  76 186 195  76 186 195
 76 186 195  76 186 195  76 186 195  76 186 195  76 186 195  76 186 195
 76 186 195  76 186 195  76 186 195  76 186 195  76 186 195  76 186 195  76 186 195  76
186 195  76 186 195  77 185 195  79 184 188  76 186 195  76 186 197 222 158  61 214 159
 69  76 186 195  76 186 195  76 186 195 103 184 169 245 152  39  88 186 185  76 186 195
 76 186 195  76 186 195  76 186 195  77 185 195  77 187 194  76 186 197  75 185 192  77
185 195  77 187 196  75 185 194  76 186 195  75 185 194  76 184 194  76 186 195  76 186
197  75 185 194  76 186 195  76 186 193  76 186 195  76 186 195  76 186 195  76 186 195
 76 186 195  76 186 195  76 186 195  76 186 195  76 186 195  76 186 195
 76 186 195  76 186 195  76 186 195  76 186 195  76 186 195  76 186 195  76 186 195  76
186 195  76 186 195  74 187 195  76 186 195  87 182 186 202 158  72 252 150  30 103 180
170  76 186 195  76 186 195  73 186 194 228 150  50 179 160  92  76 186 195  80 185 189
 76 184 194  76 184 194  75 184 191  75 185 192  75 183 193  76 183 191  77 185 195  77
183 194  75 183 193  74 184 193  76 182 193  76 184 194  75 185 194  76 186 195  76 186
195  76 186 195  76 186 193  76 186 195  76 186 195  76 186 195  76 186 195  76 186 195
 76 186 195  76 186 195  76 186 195  76 186 195  76 186 195  76 186 195
 76 186 195  76 186 195  76 186 195  76 186 195  76 186 195  76 186 195  76 186 195  76
186 195  76 186 195  78 184 195 176 163  97 252 150  29 255 160  34 218 154  57  76 184
194  74 187 195 100 179 173 218 152  58 252 169  33 137 171 136  74 186 197  81 184 191
 74 187 193  76 186 197  77 185 197  77 185 195  77 187 194  76 186 195  76 186 193  74
187 195  74 187 195  76 186 195  76 186 195  76 186 195  75 185 194  76 186 197  76 186
193  76 186 195  77 187 196  76 186 195  76 186 195  76 186 195  76 186 195  76 186 195
 76 186 195  76 186 195  76 186 195  76 186 195  76 186 195  76 186 195
 76 186 195  76 186 195  76 186 195  76 186 195  76 186 195  76 186 195  76 186 195  76
186 195  76 186 195  76 186 195 223 153  55 191 159  84 150 169 121 229 150  47  77 185
195  82 184 194 251 149  31 211 154  63 202 157  76 163 167 108  75 185 194  80 184 191
 76 186 195  76 186 195  74 187 195  74 187 195  76 186 195  77 185 195  76 186 197  76
186 195  76 186 195  74 186 197  76 186 193  76 186 195  74 187 195  76 186 195  74 187
195  76 186 195  76 186 195  76 186 195  76 186 195  76 186 195  76 186 195  76 186 195
 76 186 195  76 186 195  76 186 195  76 186 195  76 186 195  76 186 195
 76 186 195  76 186 195  76 186 195  76 186 195  76 186 195  76 186 195  76 186 195  76
186 195  76 186 195  77 187 194  88 182 182  76 186 195 176 162  99 212 155  64  76 186
195  81 184 189 139 171 130  76 186 195 206 155  66 152 169 124  76 186 197  81 185 194
 76 186 197  76 186 195  76 186 195  76 186 195  76 186 197  76 186 197  74 187 195  76
186 195  76 186 195  75 185 194  76 186 197  76 184 194  77 185 195  76 186 197  77 187
196  76 186 197  74 187 195  76 186 195  76 186 195  76 186 195  76 186 195  76 186 195
 76 186 195  76 186 195  76 186 195  76 186 195  76 186 195  76 186 195
 76 186 195  76 186 195  76 186 195  76 186 195  76 186 195  76 186 195  76 186 195  76
186 195  76 186 195  77 186 193  76 186 195  96 181 175 255 160  34 137 171 136  76 186
195  81 184 189  76 186 195 111 178 160 247 146  28  94 182 181  76 186 195  77 186 193
 77 185 195  76 186 195  76 186 195  76 186 195  76 186 195  76 186 195  76 186 195  76
186 195  76 186 195  76 186 195  76 186 195  76 186 195  77 185 195  76 186 195  77 185
195  76 186 195  76 186 195  76 186 195  76 186 195  76 186 195  76 186 195  76 186 195
 76 186 195  76 186 195  76 186 195  76 186 195  77 187 196  77 187 196
 77 185 195  76 186 195  76 186 195  76 186 195  76 186 195  76 186 195  76 186 195  76
186 195  76 186 195  77 185 195  77 187 196  86 184 185 157 167 117  77 185 195  76 186
195  78 187 194  76 186 195  92 182 180 130 171 141  76 186 195  77 186 193  76 186 195
 76 186 195  76 186 195  76 186 195  76 186 195  76 186 195  76 186 195  76 186 195  76
186 195  76 186 195  76 186 195  76 186 195  76 186 195  76 186 195  76 186 195  76 186
195  76 186 195  76 186 195  76 186 195  76 186 195  76 186 195  76 186 195  76 186 195
 76 186 195  76 186 195  76 186 195  76 186 195  76 186 195  76 186 195
 77 185 195  76 186 195  76 186 195  76 186 195  76 186 195  76 186 195  76 186 195  76
186 195  77 187 196  76 186 195  76 186 195  76 186 193  77 187 196  76 186 195  77 185
195  77 187 196  76 186 193  77 187 196  76 186 195  77 186 193  76 186 195  76 186 195
 76 186 195  76 186 195  76 186 195  76 186 195  76 186 195  76 186 195  76 186 195  76
186 195  76 186 195  76 186 195  76 186 195  76 186 195  76 186 195  76 186 195  76 186
195  76 186 195  76 186 195  76 186 195  76 186 195  76 186 195  76 186 195  76 186 195
 76 186 195  76 186 195  76 186 195  76 186 195  76 186 195  76 186 195
