P3
# 8-bit ppm - RGB
39 38
255
 76 186 195  76 186 195  76 186 195  76 186 195  76 186 195  76 186 195  76 186 195  76
186 195  76 186 195  76 186 195  76 186 195  76 186 195  76 186 195  76 186 195  76 186
195  76 186 195  76 186 195  76 186 195  76 186 195  76 186 195  76 186 195  76 186 195
 76 186 195  76 186 195  76 186 195  77 187 194  74 187 195  77 185 195  76 186 195  79
185 196 113 197 207 224 231 223 242 228 199 236 224 228 235 222 232 226 219 199 165 205
205 207 224 231 188 217 195
 76 186 195  76 186 195  76 186 195  76 186 195  76 186 195  76 186 195  76 186 195  76
186 195  76 186 195  76 186 195  76 186 195  76 186 195  76 186 195  76 186 195  76 186
195  76 186 195  76 186 195  76 186 195  76 186 195  76 186 195  76 186 195  76 186 195
 76 186 195  76 186 195  75 185 194  76 186 195  77 185 195 119 203 211 167 218 223 194
228 229 247 244 229 254 238 212 249 223 162 242 228 142 235 222 146 237 228 127 255 225
197 250 229 162 202 211 184
 76 186 195  76 186 195  76 186 195  76 186 195  76 186 195  76 186 195  76 186 195  76
186 195  76 186 195  76 186 195  76 186 195  76 186 195  76 186 195  76 186 195  76 186
195  76 186 195  76 186 195  76 186 195  76 186 195  76 186 195  76 186 195  76 186 195
 76 186 195  76 186 195  76 186 195 120 200 207 174 216 212 211 218 211 213 202 196 202
188 175 205 184 155 214 187 144 233 209 119 240 233  93 244 248  76 245 242 101 252 235
145 244 221 125 219 212 192
 76 186 195  76 186 195  76 186 195  76 186 195  76 186 195  76 186 195  76 186 195  76
186 195  76 186 195  76 186 195  76 186 195  76 186 195  76 186 195  76 186 195  76 186
195  76 186 195  76 186 195  76 186 195  76 186 195  76 186 195  76 186 195  76 186 195
 76 186 195  76 186 195 143 208 212 180 197 191 186 174 158 207 191 174 229 213 200 230
208 187 224 194 156 230 193 141 219 209  49 246 235 130 255 252 197 255 245 173 251 246
 67 240 220 123 218 219 185
 76 186 195  76 186 195  76 186 195  76 186 195  76 186 195  76 186 195  76 186 195  76
186 195  77 185 195  76 186 197  76 186 195  76 186 195  76 186 195  76 186 195  77 187
196  76 186 195  77 185 195  75 185 194  76 186 195  76 186 195  76 186 195  76 186 195
 81 188 196 141 206 202 168 170 146 214 206 185 225 236 230 206 237 239 227 245 247 214
234 223 244 240 202 246 239 185 247 232 139 254 251 170 255 249 253 255 248 220 248 248
 72 236 217 161 227 224 217
 76 186 195  76 186 195  76 186 195  76 186 195  76 186 195  76 186 195  76 186 195  76
186 195  76 186 195  75 185 194  76 186 193  74 187 195  77 187 194  76 186 195  76 186
195  76 186 195  76 186 195  76 186 195  80 186 197  79 187 197  78 188 195  86 190 199
165 207 205 169 166 149 172 211 228 189 223 232 139 210 212  83 190 196  88 190 200  93
191 200 213 228 233 255 231 229 242 233 106 247 249 112 251 254 149 255 254 146 254 250
 65 240 214 153 234 226 206
 76 186 195  76 186 195  76 186 195  76 186 195  76 186 195  76 186 195  76 186 195  76
186 195  74 187 195  78 186 196  76 186 197  76 186 195  75 185 194  77 187 198  78 188
197  77 187 198  77 185 195  79 185 196  78 186 196  73 185 196  76 186 195 112 197 199
164 158 134 206 223 217 134 207 213 104 197 204  83 190 196  83 190 198  77 187 196  76
186 195  96 191 195 224 211 133 243 233 135 237 227 168 235 235 101 244 240  89 249 226
110 242 211 157 241 226 167
 76 186 195  76 186 195  76 186 195  76 186 195  76 186 195  76 186 195  76 186 195  76
186 195  76 186 195  76 186 195  78 186 196  77 187 194  77 185 197  75 185 194  76 186
193  76 186 193  79 185 196  76 186 197  76 186 197  77 187 194 115 200 205 155 154 134
136 201 203 100 193 201 102 196 206  78 186 196  81 188 194  77 185 195  77 187 194  79
187 197  92 189 195 144 200 187 255 239 240 249 234 211 233 224 167 239 212 167 245 220
128 249 216 161 220 219 217
 76 186 195  76 186 195  76 186 195  76 186 195  76 186 195  76 186 195  76 186 195  76
186 195  76 186 195  76 186 195  74 187 195  76 186 195  76 186 193  76 186 195  76 186
197  79 187 197  97 191 199 133 194 199 127 197 205 124 201 207 143 180 170 214 211 196
119 201 212  86 190 199  77 185 195  78 188 197  77 187 196  77 187 196  77 185 197  74
187 195  78 187 194  90 190 200 108 197 201 166 217 222 213 226 206 215 220 214 193 212
192 229 219 184  93 190 199
 76 186 195  76 186 195  76 186 195  76 186 195  76 186 195  76 186 195  76 186 195  76
186 195  76 186 195  74 187 195  76 186 193  77 185 198  76 186 197  85 189 198 134 204
211 141 149 151   3   5   2   1   1  11  45 102 111  92 114 102 155 144 124 204 196 194
192 229 235  87 190 195  80 189 196  79 185 198  77 185 195  77 185 195  77 185 195  76
186 195  77 187 194  84 188 199  81 188 196  80 186 197  77 187 198  97 194 200  88 191
198  98 191 198  84 191 199
 76 186 195  76 186 195  76 186 195  76 186 195  76 186 195  76 186 195  76 186 195  76
186 195  76 186 193  76 186 195  95 192 199 107 188 192 104 171 177 112 140 143 109 111
110  60  60  60  65  66  70  70  70  72  42  42  34 107 104  95  97  93  84   5   0   0
120 109 103 148 207 205  76 186 193  80 186 197  78 184 195  79 187 197  77 185 195  76
186 195  77 185 195  77 187 196  77 185 195  73 185 196  78 186 196  77 187 196  77 187
198  78 186 196  76 186 195
 76 186 195  76 186 195  76 186 195  76 186 195  76 186 195  76 186 195  76 186 195  76
186 195 104 193 199 110 161 166  38  59  62   1   1   1   0   1   0   0   0   0  26  24
 25  70  70  70  49  41  54  34  34  26  45  51  37  35  39  42  43  42  50  96  86  77
 40  17   0 129 151 138  84 188 199  79 187 197  82 188 199  77 187 196  79 187 197  74
187 195  78 184 195  76 186 195  76 186 195  77 185 195  75 188 196  76 186 195  76 186
197  76 186 195  76 186 195
 76 186 195  76 186 195  76 186 195  76 186 195  75 185 194  76 186 195  86 190 199 112
169 174  13  32  36  13  13  15  47  47  45  67  67  67  61  61  63  56  56  56  60  60
 60  59  59  59  43  42  47  34  33  38  29  29  31  36  32  29  52  44  33  71  56  33
 76  53  21 159 151 115 144 211 217  76 186 197  79 187 197  76 186 197  77 185 195  79
187 197  80 186 197  80 189 196  76 186 195  76 186 195  76 186 195  76 186 195  76 186
195  76 186 195  76 186 195
 76 186 195  76 186 195  78 186 196  76 186 195  77 185 195 108 195 202  83 118 122   0
  0   0  72  72  74  63  63  63  60  60  60  61  61  61  55  56  58  55  55  55  54  54
 54  48  48  48  45  44  49  25  25  27  22  22  22  28  27  22  43  35  25  64  51  32
 96  79  49  77  57  22 156 183 178  86 188 198  78 186 198  77 187 196  78 186 196  77
185 195  75 185 194  76 186 195  76 186 195  76 186 195  76 186 195  76 186 195  76 186
195  76 186 195  76 186 195
 77 185 195  76 186 195  75 185 192  77 186 199 118 199 203  49  73  75  17  19  18  70
 70  70  63  63  61  61  61  61  61  61  63  64  66  65  66  64  65  63  63  63  59  59
 59  56  56  56  45  46  41  35  35  35  25  27  22  32  31  26  54  50  39  64  57  41
101  89  67  58  44  18   1   7   3 147 178 181  92 190 199  79 188 195  77 187 198  76
186 195  77 185 195  76 186 195  76 186 195  76 186 195  76 186 195  76 186 195  76 186
195  76 186 195  76 186 195
 76 186 195  76 186 195  76 184 196 116 199 205  68  88  95  34  36  35  70  70  70  62
 62  60  65  65  63  71  71  71  73  73  73  72  72  72  69  69  71  62  62  62  58  56
 57  60  60  60  56  56  54  57  57  55  38  38  38  37  37  35  38  37  33  37  32  26
 34  27  17  40  32  19  56  58  57   9   1   1 164 194 194  79 188 195  79 186 194  76
184 194  77 187 196  77 186 193  76 186 195  76 186 195  76 186 195  76 186 195  76 186
195  76 186 195  76 186 195
 74 187 195  75 185 194  86 188 198 112 149 155   2   2   2  60  58  59  60  60  60  65
 65  65  74  73  78  73  75  74  77  77  77  77  77  77  82  78  79  75  75  75  69  69
 69  67  65  66  53  53  55  51  51  53  47  47  47  47  45  50  34  34  36  46  44  47
 31  30  28  35  29  31  25  36  32  66  46  47  16   0   1 148 208 206  75 185 194  82
189 197  76 186 195  76 186 195  76 186 195  76 186 195  76 186 195  76 186 195  76 186
195  76 186 195  76 186 195
 75 185 194  76 186 195 127 191 200  10  10   8  68  68  68  57  57  57  69  69  67  71
 71  73  78  78  78  81  81  81  86  86  86  89  89  89  85  85  85  78  78  78  67  67
 67  57  57  57  58  57  62  54  52  55  46  45  50  47  45  46  38  38  38  35  34  39
 33  32  38  24  25  30  17  27  28  40  47  39  55   0   5 139 124 121  98 195 202  77
185 195  75 185 194  77 187 196  76 186 195  76 186 195  76 186 195  76 186 195  76 186
195  76 186 195  76 186 195
 76 186 195  74 186 197  89 129 129   0   0   2  61  61  59  67  67  67  60  58  59  77
 76  74  82  82  82  85  85  85  93  93  93  93  93  93  85  83  84  80  80  80  80  80
 80  73  73  73  60  60  60  58  58  58  48  49  44  41  41  39  46  46  44  32  32  32
 33  33  35  36  35  40  31  20  34   1  19   7  84  54  44  89   4  12 145 206 201  78
186 196  84 188 197  78 186 196  76 186 195  76 186 195  76 186 195  76 186 195  76 186
195  76 186 195  76 186 195
 76 186 195 104 191 198  12  26  27  60  59  57  56  56  56  55  55  53  72  72  74  76
 74  75  84  84  84  85  85  85  96  96  96  98  98  98  88  86  89  83  83  83  79  79
 79  66  66  66  60  60  58  53  53  51  54  55  49  42  43  37  38  39  33  43  42  38
 31  30  28  28  28  28  41  24  42  27  22  18  19  48  16 127   6  23 138 145 138  83
190 198  78 186 196  76 186 195  76 186 195  76 186 195  76 186 195  76 186 195  76 186
195  76 186 195  76 186 195
 77 186 193 112 173 178   0   0   0  66  66  64  54  54  54  63  63  63  63  63  63  72
 72  72  81  81  81  87  87  87  91  91  91  91  91  91  87  87  87  81  81  81  74  74
 74  68  68  68  62  62  62  57  57  57  50  50  50  45  45  45  40  40  40  36  36  36
 32  32  32  30  30  30  27  19  32  19  31  27   8  28  16  86  42  43 113  77  79  88
191 198  77 185 195  76 186 195  76 186 195  76 186 195  76 186 195  76 186 195  76 186
195  76 186 195  76 186 195
 76 186 195  95 139 142  10  10  10  52  52  52  55  55  55  56  56  56  64  64  64  68
 68  68  77  77  77  83  83  83  86  86  86  86  86  86  82  82  82  77  77  77  71  71
 71  65  65  65  59  59  59  55  55  55  49  49  49  44  44  44  39  39  39  36  36  36
 31  31  31  30  30  30  29  27  32  17  26  23   6  22  11  76  44  45  46  20  21  84
188 199  76 184 194  76 186 195  76 186 195  76 186 195  76 186 195  76 186 195  76 186
195  76 186 195  76 186 195
 85 189 200  58  82  84  34  34  34  48  48  48  55  55  53  57  57  57  67  67  67  67
 67  67  71  71  71  75  75  75  78  78  78  78  78  78  75  75  75  72  72  72  66  66
 66  62  62  62  56  56  56  53  53  53  47  47  47  42  42  42  38  38  38  34  34  34
 31  31  31  30  30  30  31  29  32  23  25  24  18  27  22  74  55  57  11   5   5  83
185 195  77 187 196  75 185 194  76 186 195  76 186 195  76 186 195  76 186 195  76 186
195  76 186 195  76 186 195
104 194 202  11  21  22  44  44  44  44  44  44  45  45  45  53  53  53  55  55  55  59
 59  61  66  66  66  69  69  69  71  71  71  71  71  71  69  69  69  66  66  66  62  62
 62  58  58  58  53  53  53  49  49  49  45  45  45  39  39  39  37  37  37  35  35  35
 30  30  30  29  29  29  21  22  17  25  23  24  27  28  32  53  51  56   6   5  10  88
186 195  75 185 194  76 186 195  76 186 195  76 186 195  76 186 195  76 186 195  76 186
195  76 186 195  76 186 195
110 194 202   6  12  12  50  50  50  48  48  48  44  44  42  54  54  54  56  56  56  60
 60  60  61  61  61  63  63  63  65  65  65  64  64  64  63  63  63  62  62  62  58  58
 58  55  55  55  50  50  50  48  48  48  42  42  42  39  39  39  36  36  36  32  32  32
 30  30  30  27  27  27  23  23  23  27  23  24  28  26  27  41  45  48   7  16  21  78
185 193  76 186 195  76 186 195  76 186 195  76 186 195  76 186 195  76 186 195  76 186
195  76 186 195  76 186 195
101 194 199  16  28  28  36  36  36  36  36  36  42  42  42  42  42  44  49  49  49  53
 53  53  56  56  56  57  57  57  58  58  58  57  57  57  57  57  57  56  56  56  53  53
 53  50  50  50  46  46  46  43  43  43  40  40  40  36  36  36  34  34  34  32  32  32
 29  29  29  27  27  27  29  25  24  23  27  28  33  28  34  56  61  64   0   4   7  87
185 194  76 186 195  76 186 195  76 186 195  76 186 195  76 186 195  76 186 195  76 186
195  76 186 195  76 186 195
 83 187 196  64  90  91  19  19  19  41  41  41  42  44  43  43  43  43  46  46  46  50
 50  50  50  50  50  51  51  51  51  51  51  51  51  51  51  51  51  50  50  50  47  47
 47  44  44  44  41  41  41  40  40  40  37  37  37  34  34  34  33  33  33  30  30  30
 29  29  29  26  26  26  27  21  23  21  30  29  36  30  32  63  65  64   2   2   2  98
189 194  74 187 195  76 186 197  76 186 195  76 186 195  76 186 195  76 186 195  76 186
195  76 186 195  76 186 195
 76 186 195  93 134 138   2   2   2  47  47  47  34  36  35  44  44  44  33  33  33  43
 43  43  46  46  46  47  47  47  47  47  47  46  46  46  47  47  47  46  46  46  44  44
 44  39  39  39  40  40  40  38  38  38  35  35  35  32  32  32  31  31  31  29  29  29
 26  26  26  24  24  24  31  20  24  28  40  36  37  32  29  59  58  56   6   6   4 115
192 198  76 186 195  76 186 195  76 186 195  76 186 195  76 186 195  76 186 195  76 186
195  76 186 195  76 186 195
 77 185 195 110 177 183   0   0   0  52  52  52  35  35  35  38  38  38  38  38  38  35
 35  37  40  40  40  42  42  42  42  42  42  42  42  42  41  41  41  40  40  40  38  38
 38  37  37  37  34  34  34  35  35  35  34  34  34  30  30  30  27  27  27  26  26  26
 26  26  26  26  26  26  34  34  34  28  28  28  49  49  49  43  43  43  79  79  81 122
202 211  77 187 196  77 185 195  76 186 195  76 186 195  76 186 195  76 186 195  76 186
195  76 186 195  76 186 195
 76 186 195 102 192 200   9  23  24  54  54  56  28  28  28  29  29  29  39  39  41  30
 32  31  37  37  37  37  37  37  38  38  38  39  39  39  38  38  38  38  38  38  37  37
 37  36  36  36  35  35  35  31  31  31  26  26  26  26  24  25  25  27  26  29  29  29
 31  31  31  33  33  35  33  31  32  43  41  42  56  56  56   0   0   2 146 147 149 120
203 209  76 186 195  76 186 193  76 186 195  76 186 195  76 186 195  76 186 195  76 186
195  76 186 195  76 186 195
 76 186 195  78 184 195 102 131 137   0   0   0  40  40  40  32  30  33  29  28  26  31
 31  31  33  33  33  33  33  33  33  33  33  32  32  32  33  33  33  33  33  33  32  32
 32  33  33  33  27  27  27  26  26  26  29  29  29  28  30  29  26  26  26  24  24  24
 25  25  25  29  29  29  39  39  39  41  41  41  73  73  71   3   3   1 164 205 207  84
188 197  74 187 195  76 186 195  76 186 195  76 186 195  76 186 195  76 186 195  76 186
195  76 186 195  76 186 195
 76 186 195  75 185 194 148 197 203   5   5   7  53  53  53  17  19  16  27  27  29  30
 29  27  30  30  30  31  31  31  31  31  31  32  32  32  29  29  29  30  30  30  29  29
 29  29  29  29  28  28  28  27  27  27  25  25  25  27  27  27  25  25  25  26  28  27
 35  35  35  44  44  44  39  39  39  65  63  64   0   0   0 120 148 151 113 200 209  76
186 195  75 185 194  76 186 193  76 186 195  76 186 195  76 186 195  76 186 195  76 186
195  76 186 195  76 186 195
 76 186 195  76 186 195  99 196 202 124 136 134   0   0   0  62  60  63  19  19  19  24
 24  26  29  29  29  28  28  28  29  29  29  28  28  28  30  30  30  29  29  29  28  28
 28  27  27  27  27  29  28  25  25  25  25  25  25  27  27  27  31  33  32  33  33  33
 39  39  39  42  42  44  55  55  57  58  58  58  44  60  60 126 201 207  74 187 195  76
186 197  74 187 195  76 186 195  76 186 195  76 186 195  76 186 195  76 186 195  76 186
195  76 186 195  76 186 195
 74 187 195  76 186 195  76 186 195 108 198 207  77  83  83   0   0   0  51  51  51  21
 20  18  23  23  23  24  24  24  25  25  25  27  27  27  26  26  26  26  26  26  26  26
 26  26  26  26  22  22  22  26  26  26  31  31  31  34  32  33  36  36  36  39  39  39
 47  47  47  54  54  52  62  62  62   8  12  15 133 190 197  74 186 197  76 186 195  76
186 195  76 186 195  75 185 194  76 186 195  76 186 195  76 186 195  76 186 195  76 186
195  76 186 195  76 186 195
 76 186 195  76 186 195  76 186 195  75 185 194 105 195 203  45  53  55   5   5   5  53
 51  52  28  28  28  27  27  27  26  26  26  25  25  25  26  26  26  26  26  26  27  27
 27  28  28  28  28  28  28  33  33  33  35  35  35  35  35  35  40  40  40  49  49  49
 60  60  60  62  62  62   0   0   0 138 186 190  81 189 199  76 186 195  74 187 193  76
186 195  77 187 196  76 186 195  76 186 195  76 186 195  76 186 195  76 186 195  76 186
195  76 186 195  76 186 195
 76 186 195  76 186 195  77 185 195  77 185 195  77 187 196 122 201 206  83 104 105   5
  6   8  38  38  38  36  36  36  33  33  33  30  30  30  29  29  29  29  29  29  31  31
 31  32  32  32  37  37  39  35  37  36  38  36  37  46  44  47  56  56  56  53  53  51
 29  35  35  17  38  41 146 190 193  87 191 202  76 186 195  76 186 195  76 186 195  76
186 195  76 186 195  76 186 195  76 186 195  76 186 195  76 186 195  76 186 195  76 186
195  76 186 195  76 186 195
 77 187 196  76 186 195  76 186 195  77 187 196  77 185 195  77 185 195  94 193 199 134
172 175   0   0   0   7   7   9  28  28  28  46  46  48  46  46  44  37  37  37  37  37
 37  46  44  45  52  52  52  39  38  36  56  56  56  58  58  58  44  44  44  27  27  27
110 131 132 105 194 200  79 189 198  77 187 196  76 186 195  76 186 195  76 186 195  76
186 195  76 186 195  75 185 194  76 186 195  76 186 195  76 186 195  76 186 195  76 186
195  76 186 195  76 186 195
 76 186 195  76 186 195  76 186 195  76 186 193  76 186 195  77 185 195  77 185 195 110
199 205 145 196 201 117 125 127  36  36  36  10  12  11  25  25  25  38  38  38  39  39
 41  41  41  39  39  39  39  47  47  47  50  50  52  45  45  45  96  96  98 168 170 169
117 197 204  79 187 197  77 187 196  75 185 194  75 185 194  76 186 195  76 186 195  76
186 195  76 186 195  76 186 195  76 186 195  76 186 195  76 186 195  76 186 195  76 186
195  76 186 195  76 186 195
