P3
# 8-bit ppm - RGB
50 50
255
185 166 155 186 171 157 184 167 155 181 166 145 176 158 137 187 169 142 220 206 180 230
213 188 222 205 184 220 206 179 223 209 178 224 210 181 226 211 184 228 213 185 227 213
185 227 213 182 227 213 182 226 211 184 226 212 183 225 213 185 225 213 184 225 213 183
226 213 182 227 213 185 226 212 184 223 210 181 222 209 183 220 207 182 220 205 180 222
204 180 221 204 178 220 205 180 218 205 178 217 204 176 216 203 177 216 203 174 216 203
167 215 201 173 213 198 173 212 197 170 212 197 171 212 195 171 209 195 170 209 195 169
208 193 172 209 192 171 207 192 168 208 193 169 207 192 172 205 190 171
184 166 151 187 170 156 190 173 157 189 171 154 179 159 141 180 161 136 209 191 172 229
209 191 231 213 189 224 209 182 223 209 180 226 212 184 228 214 186 230 216 188 230 216
183 228 215 181 228 214 186 230 217 187 231 219 184 232 220 186 232 219 188 230 219 185
226 216 182 223 210 183 226 213 186 229 216 188 227 213 186 227 212 187 226 213 186 224
212 178 220 208 175 220 205 180 220 205 180 219 205 177 219 204 177 219 204 176 218 203
175 216 203 174 213 200 173 213 198 177 215 198 175 213 198 173 212 197 173 212 197 170
210 195 171 211 194 173 211 194 173 211 193 175 210 193 171 208 191 171
179 164 150 186 172 152 190 176 157 193 175 156 188 169 146 188 169 146 189 165 147 211
191 172 237 218 192 229 212 182 226 212 184 228 214 186 231 216 189 232 217 188 234 220
187 236 224 193 234 221 189 223 212 176 212 201 171 192 180 153 201 189 162 196 185 158
176 165 143 153 141 122 155 144 127 181 169 149 172 160 138 193 180 153 209 196 170 219
207 176 228 215 187 229 215 185 225 211 184 221 207 182 223 205 178 223 205 179 219 205
181 217 204 176 215 202 175 215 201 176 215 201 173 215 200 172 215 200 175 214 199 172
214 199 172 213 198 174 213 198 173 212 195 174 211 194 168 210 193 168
177 162 150 183 169 149 190 177 157 197 179 159 198 177 160 190 173 153 183 162 145 204
185 165 228 211 183 235 218 190 229 215 191 228 214 186 231 218 184 237 223 191 232 219
189 213 201 173 183 171 144 128 121  97  98  91  74  63  54  44  78  67  57  76  64  56
 43  27  23  20   0   6   0   0   0  13   0   0  16   0   0  74  65  51  97  85  70 125
113  96 160 148 131 188 176 151 214 202 174 222 210 180 224 210 179 220 207 178 220 208
179 218 206 177 217 204 177 216 204 176 216 203 174 215 201 172 214 199 175 217 200 177
216 201 176 216 202 174 215 200 173 212 197 172 211 194 173 210 193 172
176 161 150 181 166 155 188 174 157 196 179 163 200 181 170 195 180 161 188 174 147 194
179 157 211 194 169 235 220 196 233 219 193 232 217 190 236 222 189 219 206 175 164 152
128  90  78  64  40  25  28   0   0   0   0   0   0   0   0   0   0   0   0   0   0   0
  0   0   0  13  13  10  20  19  15   0   0   0   6   7   7   0   0   1   0   0   0   0
  0   0   0   0   0  39  31  30 102  94  79 163 154 130 213 200 171 224 211 182 220 207
180 220 208 179 220 208 180 219 206 179 219 206 179 214 201 176 211 197 173 220 203 180
221 204 178 218 203 175 217 202 174 216 198 172 215 196 173 214 193 174
174 160 148 179 164 152 187 170 152 195 178 157 201 184 163 205 187 166 199 184 156 193
174 147 193 168 136 225 207 181 241 229 198 228 215 184 183 169 145 116 103  90  27   0
  0   0   0   0   0   0   0  23  21  18  24  22  18  15  14  11  22  19  15  18  17  13
 14  13  10   7   6   4   7   6   5  16  14  11  11  10   7  15  15   9  21  20  16  23
 22  18  15  15  11   0   0   0   0   0   0   0   0   0 136 128 106 211 199 171 225 213
180 219 210 174 222 208 182 221 207 180 219 207 178 220 207 179 221 207 176 221 207 176
220 206 177 218 203 177 216 201 173 217 200 175 217 198 178 216 197 176
176 161 152 178 163 149 185 165 151 193 174 157 200 183 164 205 190 168 205 191 166 200
183 156 191 170 141 207 192 166 219 206 177 184 173 148  73  61  51   0   0   0  30  28
 23  16  14   9  11  10   7   1   1   1   0   0   0   0   0   0   0   0   0   0   0   0
  0   0   0   0   0   0   0   0   0   0   0   0   0   0   0   0   0   0   0   0   0   2
  1   1   6   5   4  13  12   9  20  19  15   0   0   0   0   0   0 128 120 102 204 195
164 224 213 181 219 207 179 221 209 178 222 210 179 222 208 183 222 208 180 222 208 179
222 207 180 220 205 179 217 202 179 217 202 175 219 202 175 219 201 176
175 159 150 178 162 154 182 163 152 187 170 151 194 180 163 203 189 170 208 194 172 205
191 167 203 189 162 182 168 146 113 100  85  69  63  52  36  29  21  13   9   9   6   4
  4   0   0   0   1   0   0   5   2   2   2   1   1   0   0   0   0   0   0   1   0   0
  0   0   0   0   0   0   0   0   0   0   0   1   0   0   1   0   0   0   0   0   0   0
  0   0   0   0   0   0   0   0   0   0   0  12  11   8   0   0   0   0   0   0 112 105
 85 202 190 163 223 212 181 221 210 180 223 211 177 224 212 182 225 211 185 223 209 181
222 207 183 223 206 183 220 205 181 220 205 177 221 204 177 221 204 178
159 146 139 177 163 154 181 164 149 183 168 147 191 176 157 201 186 166 207 194 172 212
201 176 199 185 160 130 116  95   0   0   0   0   0   0  16   8  11   4   0   3  11   3
  5  13   5   5   9   4   4   0   0   0   2   1   0  10   4   3   8   3   1   5   1   0
  5   1   1   4   1   1   1   1   0   1   0   2   1   0   2   0   0   0   0   0   0   0
  0   0   0   0   0   0   0   0   0   0   0   0   0   0  13  12   9   8   9  11   0   0
  0 110 102  90 201 190 164 230 218 184 226 214 184 226 212 183 228 213 184 225 212 181
223 210 180 223 208 179 224 209 181 224 209 183 224 209 181 225 209 178
138 124 117 161 148 136 181 165 155 181 166 151 187 172 148 197 182 161 207 194 173 203
190 164 146 132 111  42  31   8  38  32  29  32  27  23  11   3   4   6   2   5   0   0
  0   0   0   0   0   0   0   4   0   2   0   0   2   0   0   0   0   0   0   0   0   3
  0   0   1   0   0   0   0   0   0   0   0   0   0   0   2   0   0   0   0   0   0   0
  0   0   0   0   0   0   0   0   0   0   0   0   0   0   0   0   0  13  10   7  21  20
 15   0   0   0 105  95  83 205 194 167 232 219 191 229 214 187 227 214 180 225 213 183
225 213 180 226 212 177 229 212 178 229 212 183 229 212 184 228 211 183
120 106  98 137 123 112 169 154 139 186 169 151 183 168 148 191 176 157 203 186 165 151
136 116  25   0   0   5   1  10  19   9   7  14   1   4   0   0   0   0   0   0  62  31
 32  89  48  45 108  62  62 118  71  69 101  55  51  90  44  43  84  41  41  77  36  39
 64  27  28  46  15  21  36  10  20  29   6  18  19   2  12  13   3   9   6   1   4   4
  0   0   2   0   1   1   0   0   0   0   0   0   0   0   1   0   0   0   0   0  11  10
  9  24  22  19   0   0   0  85  79  67 192 180 158 230 216 188 228 213 180 227 214 183
228 215 186 230 215 185 231 216 181 232 215 185 231 214 187 230 213 186
112  96  90 116 101  92 141 123 116 176 161 146 183 170 151 188 175 156 181 166 143  95
 84  69   0   0   0  35  28  25  17   3   5   0   0   0  55  23  30 121  74  74 149  95
 88 161 101  96 165 103 100 160  99  91 150  93  81 141  86  77 132  76  71 121  70  66
108  59  59  93  47  49  80  38  44  67  29  40  55  24  26  44  19  23  36  13  24  26
  8  16  21   5  10  13   4   6   6   2   4   4   0   2   0   0   0   0   0   0   0   0
  0   7   6   4  29  27  23   0   0   0  81  73  59 200 187 161 237 220 191 230 215 185
231 218 184 233 219 186 233 219 185 232 218 187 230 217 187 230 216 182
131 117 108 112  99  90 113  99  95 134 120 114 172 159 144 185 172 155 130 117 103   0
  0   0  28  21  21  20   6   9   0   0   0  80  49  46 154  98  91 183 116 110 190 123
118 191 123 117 186 119 112 175 110 105 168 104 100 158  97  93 148  89  86 138  84  82
126  76  71 112  64  56 101  51  56  93  47  55  84  42  41  76  35  38  70  30  40  58
 24  33  48  19  30  36  15  24  28  10  17  20   5  15  15   2  12   6   2   6   1   0
  2   0   0   0  15  14  11  15  15  10   0   0   0 133 125 107 218 205 174 233 218 188
233 219 188 234 221 186 235 221 185 234 220 191 232 217 191 231 217 186
123 108 102 130 117 108 117 105  95 117 103  94 151 131 122 165 146 136  66  56  47   0
  0   0  32  23  23   0   0   0  85  52  48 172 112 106 198 130 121 206 136 127 209 138
133 207 136 130 201 133 123 190 123 120 180 115 114 171 106 108 161  96 100 151  90  93
139  85  79 128  77  72 119  67  70 112  62  59 107  59  58 102  52  57  94  45  51  85
 39  48  73  34  45  61  26  37  53  22  34  45  20  33  41  17  26  34  14  20  18   5
 15   0   0   1   0   0   0  13  11   6  22  21  19   0   0   0 144 135 111 227 214 184
237 223 193 234 220 187 235 222 187 235 221 188 235 220 189 233 219 186
103  88  85 118 104  97 126 113  97 120 108  93 130 117 106 119 105  96   0   0   0  29
 18  19   0   0   0  42  10  20 165 109 105 212 142 133 212 141 135 217 144 139 219 146
140 216 144 140 207 137 134 198 131 127 188 122 123 179 114 112 170 104 103 158  97 101
150  91  95 143  86  88 133  82  81 128  79  77 121  74  74 116  68  64 107  59  61  98
 49  57  89  42  52  78  39  41  70  33  41  61  29  38  57  30  36  55  29  29  42  21
 23  14   3   8   0   0   0   0   0   0  33  31  27   0   0   0  90  81  70 212 199 174
242 229 199 237 223 191 238 224 193 237 223 189 236 222 187 234 220 186
122 105 101 106  94  86 117 104  94 122 106 101 115 102  94  64  51  46   0   0   0  27
 16  17   0   0   0 122  76  76 207 138 133 219 147 142 219 146 141 223 150 144 224 150
144 217 145 139 208 138 134 201 133 130 191 124 120 181 115 111 172 106 104 160  99 100
154  96  96 149  93  87 141  89  84 137  86  87 132  83  85 124  75  78 114  67  71 104
 58  58  95  49  58  85  44  48  78  37  47  72  34  39  67  36  37  67  35  44  60  32
 38  40  17  25   5   0   3   0   0   0  18  14  13   5  10   2   0   0   0 164 153 135
227 214 184 231 217 184 228 213 186 225 211 187 225 208 188 224 209 184
127 111 102 122 110 101 115 102  92 125 111  99 106  90  83   4   0   0  28  15  17   0
  0   0  60  30  31 174 113 109 218 145 138 220 147 140 227 152 147 227 152 148 224 149
140 216 143 132 208 137 131 203 130 128 192 125 120 180 114 112 169 105 105 159 100 101
154  98  96 148  95  91 143  91  92 142  90  91 139  87  88 131  80  85 121  74  83 112
 68  73 101  57  61  93  49  52  85  45  46  81  41  50  75  39  48  73  38  50  70  37
 45  58  30  37  30  11  17   0   0   0   0   0   0  31  29  25   0   0   0  67  61  50
198 187 163 234 221 196 229 215 197 229 216 196 230 216 192 232 215 196
107  93  84 119 106  98 120 108  99 117 104  86  95  82  67   0   0   0  15   9  15   0
  0   0 133  83  81 208 136 132 223 148 140 226 152 141 230 154 144 229 152 143 224 146
137 217 142 137 212 139 137 205 131 128 191 124 117 180 114 113 169 105 108 156  97  96
151  95  95 150  97  96 147  94  93 149  92  95 147  93  93 140  89  91 131  81  84 120
 74  82 109  64  69  98  54  56  90  50  51  85  45  53  79  41  53  74  39  47  72  38
 45  66  38  46  50  27  33  14   4   6   0   0   0  20  16  15   1   5   3   0   0   0
168 156 140 229 215 191 228 214 195 222 209 188 219 205 183 217 202 184
111  96  87 106  93  83 120 107  99 113  99  90  59  46  34  10   0   4   0   0   0  78
 44  49 185 121 122 221 146 145 223 148 148 230 154 151 230 155 146 227 152 142 222 148
144 217 145 142 213 141 138 206 133 130 193 125 122 182 117 116 170 106 111 157  97  99
152  94  97 151  96  97 150  97  93 153  98  99 152  95 100 145  92  95 135  84  81 123
 77  77 111  64  70  99  55  65  90  49  62  83  45  54  78  43  53  75  40  49  70  37
 53  70  42  53  65  38  47  41  19  33   2   0   2  10   8   5   6   4   6   0   0   0
131 110  90 186 160 138 197 180 159 193 180 164 176 154 136 184 163 146
125 107  97 118  98  95 115 101  89 114  99  88  47  31  27  14   0   9   0   0   0 121
 78  78 210 139 138 222 147 143 223 150 144 225 153 147 224 152 146 224 152 151 222 150
149 215 145 143 208 138 140 201 131 134 193 125 130 182 117 120 168 104 109 157  97 100
152  96  97 152  97  98 151  98 100 152  97  99 150  97  98 142  90  92 132  82  84 119
 72  79 104  58  65  96  53  58  91  50  59  86  46  58  81  43  53  76  40  53  68  38
 54  69  42  55  71  44  57  57  33  47  20   5  16   3   4   1  16  11  11   0   0   0
118 103  86 173 154 130 183 168 149 189 175 164 177 156 138 178 159 135
112  97  83 124 104 101 118 103  90  98  84  69  43  27  25   9   1   4   9   0   4 153
101  96 218 145 138 221 147 141 203 137 133 179 122 118 185 128 128 194 136 138 193 133
135 191 128 131 191 126 133 191 125 132 184 118 124 173 110 116 161 102 109 153  95 102
150  92  97 151  96  96 148  95  95 147  91  96 143  90  96 131  83  86 125  77  85 117
 67  80  98  50  67  93  48  68  92  46  66  90  46  61  86  45  57  80  45  52  71  44
 48  70  43  54  74  47  61  69  44  62  37  23  39   0   0   0  28  24  21   0   0   0
114 103  94 188 173 153 196 182 163 192 179 161 191 177 157 193 176 158
102  89  78 112  96  89 118 103  92  92  79  69  48  31  29   0   0   0  52  24  30 183
119 112 226 149 138 195 130 124 141  90  92 126  81  88 123  82  84 108  70  71 101  64
 69 105  66  69 121  75  82 137  87  97 147  94 104 150  97 108 151  97 109 151  93 104
147  88  96 143  89  94 139  87  95 135  84  96 133  81  96 120  74  86 108  64  78  96
 55  70  80  43  62  73  37  59  65  32  53  62  30  48  61  31  49  56  32  39  58  34
 42  67  40  54  76  45  63  79  53  78  55  39  62   0   0   0  30  28  25   0   0   0
121 112 102 199 185 167 205 190 173 201 186 171 204 189 169 203 188 170
115 100  90 106  93  80 114 100  85 108  94  77  57  37  38   0   0   0  74  44  48 182
123 116 190 125 117 120  74  75  78  40  50  95  58  59  69  39  39  33   0   0  37   0
  0  36   4   0  42   5  11  48   8  20  78  38  49 109  62  77 133  83  96 147  94 102
146  90 101 136  82  93 124  71  88 119  71  87 114  68  87  97  52  75  67  31  51  43
 21  31  32  14  29  25   8  26  14   3  13  10   3  10  14   6  13  15   6  20  21   7
 20  40  21  34  70  45  63  87  61  88  67  48  75   2   1   5  24  23  20   0   0   0
133 122 110 204 190 173 208 194 175 206 189 173 205 190 173 204 189 171
116  98  90 116 101  91 105  92  81 106  92  77  93  73  67  82  57  60  66  40  44  94
 58  64  96  58  64 103  62  68 121  78  86 113  71  81 110  65  76 104  59  69  92  52
 57  78  42  50  65  34  44  59  28  38  53  20  27  54  17  23  83  42  42 121  74  76
133  80  92 125  74  91 104  56  78  94  50  70  91  48  68  67  30  49  35   7  23  20
  3  15  10   2   5   5   0   6   0   0   6   0   0   2   1   0   2   9   2  10  10   1
  5  14   2  13  53  34  53  90  66  93  80  60  87  18  11  22  10   9   6   0   0   0
149 140 124 208 194 176 205 192 177 205 189 178 207 189 175 206 188 173
 99  85  77 111  96  85 110  96  92 101  88  82 110  88  81  94  64  66  74  41  50 118
 79  77 108  71  79 150 101 111 185 132 143 168 117 129 172 113 120 161 103 107 135  83
 85 110  62  67  97  50  61  92  47  62  92  45  66  89  46  61  62  34  45  53  24  33
 94  55  65  89  50  62  70  33  45  55  24  38  45  21  31  42  20  31  38  17  30  35
 17  33  36  14  32  42  16  32  40  18  31  32  14  27  25  11  24  22   9  22  23   9
 23  25  12  25  37  21  39  60  42  63  62  47  68  38  32  37   0   0   0  36  31  20
174 165 147 213 199 180 206 190 175 207 190 179 208 191 177 207 189 174
102  91  75  99  87  72 109  96  87 119 107  97 129 103  89 114  75  44 104  61  61 144
100  82 106  74  69 163 114 119 191 132 135 169 112 115 174 116 111 162 106  99 135  82
 78 105  55  55  90  34  48  87  32  57  92  41  65 104  49  66 119  72  83  70  47  55
 66  46  51  45  25  32   0   0   1   0   0  14  25  15  30  39  22  41  42  21  41  60
 29  49  77  38  50  79  38  46  72  33  44  58  27  38  49  23  36  39  12  31  50  30
 50  72  53  75  58  43  63  53  46  58  37  30  38  23  19  16   0   0   0  92  87  78
193 182 162 213 198 184 207 190 177 209 192 174 208 191 173 207 190 173
116  98  91 101  83  76  93  80  68 128 112 103 138 114 108  94  60  23 103  63  66 136
 92  85 119  79  63 175 120 107 187 128 123 160 100  98 143  84  78 115  67  62  89  50
 53  65  27  40  55  15  31  61  20  35  74  26  41  97  42  51 119  72  76  75  47  49
 61  22  33  65  28  46  50  22  36  27  10  21  37  18  38  39  18  40  42  20  40  64
 31  45  80  39  48  73  34  42  65  28  40  57  23  35  52  21  32  48  23  38  51  31
 43  73  54  70  63  46  62  86  73  80  92  78  86   0   0   0   0   0   0 124 112 111
204 190 175 215 198 182 209 192 176 210 193 178 207 192 177 207 190 175
105  87  78 108  89  83  88  72  68 125 106 103 139 119 120  81  58  45  90  59  59 118
 90  96 136 103 102 198 142 140 186 131 136 122  75  74  81  22  19  81  41  53   9   0
 13   0   0   0  40  17  32  54  19  34  73  24  39 109  53  59 109  65  66  62  33  32
 98  51  55 120  69  80  84  45  51  41  18  23  31  13  30  33  13  29  30  15  29  20
  4  16  10   1   6  13   3  15  21   6  18  29   6  21  33   8  22  49  31  47  60  41
 62  62  42  51  44  27  23  60  49  46  84  67  74  34  27  31   0   0   0 140 124 113
210 195 178 216 201 184 212 195 183 212 195 183 211 194 180 210 193 179
116 103  83 101  85  79 104  90  79 135 119 114 141 116 114 139  88  83  92  53  53 114
 88  92 149 111 110 213 149 147 203 147 143 165 117 111 145  85  86 141  84  91 104  70
 70  83  48  51  88  40  56  92  44  61 104  55  66 117  61  70  76  40  51  93  44  46
168 104 109 160 101 106 102  55  57  50  18  23  31  13  28  34  15  24  28  12  25  21
 11  25  19   6  19  11   1  12  16   8  24  26  20  35   6   1   9  22  10  26  52  35
 56  61  39  66  78  65  79 116 104 103  94  77  81   0   0   0   0   0   0 158 141 130
219 201 184 217 203 184 215 199 183 215 198 184 214 197 180 213 196 179
105  91  76  79  65  57  93  81  66 142 126 120 152 119 109 151  80  79 111  65  73 105
 76  83 165 116 118 220 146 144 219 148 143 207 140 133 195 123 118 167 102 105 142  90
 94 128  73  80 114  59  66 117  66  77 139  84  89 123  73  76  40   0  12 174 110 109
208 136 136 164 100 102 109  55  61  57  16  27  26  10  23  40  18  31  45  24  36  42
 32  45  45  31  44  52  33  46  45  34  46  43  46  58  36  30  41  35  20  31  47  34
 39  61  44  72  95  82 107 130 118 117  93  78  80   0   0  19   0   0   0 143 125 125
222 202 187 221 207 185 218 201 181 220 202 183 218 201 182 216 199 182
103  87  79  87  74  63  73  59  53 140 122 125 153 110 100 162  74  67 167 102 106 121
 77  77 142  93  98 201 130 135 217 142 141 217 144 135 207 134 129 187 115 115 163  99
101 144  83  89 141  80  85 146  87  93 147  94 100  78  44  53 129  72  76 223 147 148
208 136 139 152  89 101 105  51  69  64  26  35  20   6  22  39  23  39  55  33  44  53
 38  53  52  37  53  60  41  56  61  39  54  55  44  55  51  32  46  53  31  42  53  39
 51  62  49  77 111  99 121 123 111 114  66  51  66  65  53  70   0   0   0  93  72  78
210 191 178 231 214 193 222 205 185 224 205 185 221 204 184 219 202 186
115  97  78  95  80  70 104  92  76 140 122 123 128  82  76 177  80  73 196 118 112 205
135 132 179 114 114 162 109 102 156 105  98 157 106 103 152 101 100 142  89  94 128  77
 80 120  69  73 120  70  75 118  71  79 102  60  71  93  43  50 194 120 126 233 151 162
204 130 139 152  87  96 102  49  64  71  33  44  36  15  25  20   9  30  45  26  38  53
 32  44  57  35  51  61  36  53  65  36  52  64  32  48  61  36  46  62  41  46  59  39
 54  76  62  89 109 103 121  92  88  96  68  54  82  87  70  88   0   0   0  97  74  72
215 198 181 236 222 202 227 210 190 228 208 190 226 208 186 224 206 186
 80  66  56  74  58  46 115  95  89 148 129 127 129  98  92 183  98  93 199 116 112 220
147 145 230 154 148 224 151 140 214 145 140 198 134 132 174 113 112 160  98 102 151  90
 99 148  90  96 150  95 100 159  99 107 158  93 101 182 110 111 218 135 143 221 139 151
194 118 130 152  86  99 104  51  62  73  34  42  52  23  34  31  10  26  30  14  32  35
 18  35  41  22  38  46  27  44  51  30  45  55  31  44  53  32  42  53  33  41  56  34
 45  59  44  62  51  42  58  64  51  69  95  79 107  83  65  81   0   0   0 127 106 102
233 215 196 244 226 203 233 213 194 234 216 192 232 214 188 228 209 189
 93  76  77  52  31  33 105  85  90 141 122 125 117  92  82 186 111 102 203 120 117 210
142 134 227 149 144 231 150 151 234 155 155 224 149 147 205 131 132 191 116 123 184 108
117 179 107 114 178 108 117 184 111 118 189 112 116 207 127 127 217 136 134 209 132 134
183 111 116 152  90 101 117  66  75  80  38  46  54  22  36  43  19  29  45  20  38  51
 21  46  52  23  42  50  26  39  52  27  41  55  27  38  55  27  38  51  28  36  50  27
 36  52  27  42  69  43  65  99  80 111 101  84 115  70  53  64   0   0   0 163 142 134
249 230 206 249 230 203 240 222 197 240 222 199 236 218 197 232 214 190
108  88  83  97  78  75 120 102 104 123 104 105  81  65  61 199 166 173 202 146 152 206
132 119 226 148 142 228 146 145 231 151 148 224 144 150 208 131 142 195 121 131 187 114
121 183 111 118 183 109 118 183 110 114 191 114 117 204 121 123 224 142 144 212 137 142
173 104 111 149  88  99 122  69  78  89  43  50  65  28  38  42  16  25  41  15  33  52
 22  42  58  26  48  63  31  47  68  35  47  68  35  47  70  33  45  63  34  42  59  35
 45  65  36  57  77  57  83 102  86 120 105  90 121  59  45  55   0   0   0 199 177 164
255 245 217 253 236 209 250 232 207 248 230 204 242 224 199 238 219 198
 88  73  57  98  80  67 137 117 112 133 112 100 108  91  87 158 141 156 166 115 132 211
136 129 222 144 141 228 147 148 232 150 150 229 149 152 220 140 147 206 127 137 195 117
130 189 113 124 184 111 116 177 100 108 195 113 124 216 133 142 225 144 152 198 125 135
155  88 103 138  79  94 111  59  76  77  33  50  76  37  54  68  31  44  41  16  23  50
 24  44  60  30  54  65  32  54  67  34  56  67  34  53  64  30  47  60  28  46  58  30
 49  61  38  59  78  62  89  94  80 111 112 102 134 103  94 137 108  82 105 228 217 195
255 255 232 252 243 216 255 240 215 254 236 209 251 232 206 247 226 202
 53  39  36  63  50  34 136 116 116 129 109 103 117  96  78 144  98  81 169 102 104 210
137 136 222 145 141 227 148 149 232 151 154 232 151 154 223 142 147 209 129 138 197 119
130 189 112 126 170  95 110 179 100 112 218 135 144 214 134 143 180 107 116 162  95 108
141  79  97 118  63  86  87  40  66  60  20  44  69  31  53  77  40  60  62  33  44  52
 23  43  68  35  61  73  37  61  77  38  63  76  39  60  71  34  55  65  31  48  62  33
 51  67  43  72  81  64  95 102  84 117  99  88 113  34   0  70 167 155 149 252 251 229
255 255 236 253 252 223 254 251 223 255 246 220 255 242 216 254 235 211
 91  76  68  73  57  55 141 117 121  96  75  73  89  74  58 152 119 112 182 119 115 207
136 127 221 147 140 227 146 144 232 150 147 231 149 149 221 140 147 208 129 137 196 119
129 185 109 124 163  88 104 182 104 113 199 119 127 136  74  83  50   0  17 117  66  78
121  58  78  92  35  60  57  21  38  16   0  10  58  24  38  86  39  62  67  36  54  58
 27  46  72  37  60  77  39  63  81  39  63  79  40  62  76  37  60  67  34  50  65  35
 56  75  50  79  84  66  96 105  89 118  83  67  92   0   0   0 207 200 191 255 255 255
252 252 244 255 254 239 255 255 233 255 254 227 254 251 223 255 243 218
 89  69  55 107  86  81 150 123 124 103  82  77  93  80  76 140 112 111 183 120 116 203
131 118 218 146 135 225 143 142 229 145 149 227 143 150 217 137 143 202 128 133 193 119
128 179 105 117 166  91 108 184 105 115 164  85  89  72   0   0  22   0   0 108  53  64
123  61  74  79  30  41  27   0  12   0   0   0  75  34  47  95  42  58  55  16  41  64
 29  57  77  39  65  82  43  64  83  44  64  81  42  63  74  38  59  65  34  52  69  39
 65  77  53  79  84  66  96 105  89 120  75  56  79  42   0   0 214 209 211 255 255 255
252 252 253 255 255 255 255 255 249 255 255 239 255 255 228 254 246 217
 47  26  24  97  77  80 144 123 121 113  93  84 129 110 104 154 133 126 167 118 113 196
128 125 214 141 144 221 141 146 223 142 147 221 141 146 212 136 138 200 125 130 192 118
124 182 107 115 177 102 110 192 114 119 188 110 113 149  75  81 148  81  86 151  89  91
120  60  75  98  44  68  54  20  36  24   3  18  58  22  38  59  19  38  53  20  42  69
 32  54  84  43  65  88  47  67  86  45  63  82  43  59  72  39  55  63  36  50  70  44
 64  78  54  83  88  70 103 103  87 118   0   0   0 135 124 124 246 244 245 255 255 255
253 253 252 255 255 255 255 255 255 255 254 252 255 255 235 255 242 216
 40  19  29  98  78  85 135 113 112  63  41  23 107  88  80 146 127 114 176 147 133 208
155 144 207 130 133 222 144 145 219 139 140 220 139 142 214 133 142 207 128 135 198 121
126 191 116 118 192 118 117 196 118 120 200 123 125 194 121 125 187 119 124 168 108 111
105  52  65 113  62  80  86  45  60  39  10  26  31   8  27  39  14  36  59  27  44  75
 36  51  84  42  57  88  44  64  83  43  65  78  39  57  73  35  59  67  35  57  71  42
 68  86  62  90  75  48  87 129 119 135 189 182 182 228 226 223 255 255 255 254 254 254
255 255 255 255 255 254 255 254 255 254 255 254 255 253 233 252 233 207
 88  69  64 123 103 106 135 110 109  59  36  24 107  88  88 171 149 138 187 162 141 215
175 153 201 123 121 222 143 137 220 139 137 221 139 145 217 135 146 214 134 139 208 132
133 201 125 127 199 125 128 198 124 130 190 120 126 184 120 125 185 120 125 171 110 114
102  47  58 127  73  82 112  64  72  48  15  33  49  26  44  54  27  45  60  28  48  72
 34  53  77  37  57  80  38  61  78  38  62  73  35  53  69  32  58  68  35  59  73  44
 72  87  65  90  45   0  55 166 159 169 255 254 251 250 249 245 253 253 254 255 255 255
255 255 255 255 255 254 254 254 255 255 255 248 255 245 220 241 216 192
 69  52  43 129 110 114 137 116 113 109  86  81 142 122 118 194 173 159 190 171 151 229
196 170 197 124 119 216 138 136 218 140 139 219 139 141 216 138 142 215 136 139 209 132
134 198 125 131 186 119 126 182 117 124 179 115 121 179 116 120 192 124 131 180 111 118
126  62  75 141  78  92 116  60  73  65  25  36  61  29  48  61  29  52  62  30  50  59
 28  49  64  31  52  71  36  57  71  34  56  68  32  51  63  31  52  63  33  56  73  51
 73  73  48  79  64  16  71 196 191 195 255 255 253 244 243 240 255 255 255 255 255 255
255 255 255 255 254 254 255 255 255 255 252 234 247 227 201 229 204 185
 30   6   8 133 111 118 114  92  94  87  67  55 135 118 104 170 150 134 202 181 159 246
215 181 197 135 123 208 128 130 212 136 135 216 136 138 217 137 139 214 134 135 201 126
132 183 116 123 170 110 115 172 109 117 182 116 124 185 117 124 168  99 112 140  68  87
135  66  86 107  48  65  72  19  35  69  24  37  65  27  40  61  28  48  57  30  46  51
 25  42  56  27  43  63  33  49  63  32  55  59  30  49  60  30  48  63  34  58  79  59
 79  57   0  62 105  85 104 230 228 229 255 255 255 248 246 244 255 255 255 255 255 255
255 254 254 255 255 255 255 255 247 253 236 210 240 212 191 231 201 189
 61  43  40 139 117 116  87  64  67  54  23  29 148 130 120 191 173 158 207 183 166 255
231 200 210 163 144 195 116 118 209 130 130 211 132 132 215 134 135 207 128 128 185 116
116 157  95 100 137  79  84 141  83  94 152  89 102 138  64  82 108  18  50 106  23  54
122  46  70  82  20  39  45   0  20  47   6  32  46   6  26  47  15  32  40  18  32  42
 18  32  55  25  43  61  30  50  58  28  49  55  29  48  60  31  53  65  37  61  77  56
 80  29   0  43 151 141 147 253 253 253 255 255 255 252 251 250 255 255 255 255 255 254
255 255 255 255 255 249 255 244 218 248 225 192 240 214 187 229 201 183
 99  78  76 149 123 124 107  82  77  89  63  62 180 167 156 206 194 177 207 181 165 255
242 206 225 190 158 188 115 112 204 124 126 206 127 129 210 130 132 199 124 121 169 101
104 125  63  72  99  36  53 118  50  66 135  53  75 153  60  91 152  57  87 131  31  63
128  32  59 101  23  44  68   2  23  59   3  26  42   2  20  27   0  10  21   0  10  25
  2  15  46  19  35  61  29  51  57  25  49  56  26  48  55  30  49  66  47  66  55  18
 59  70  38  64 208 204 205 255 255 255 249 249 249 252 252 252 253 253 252 255 254 255
255 255 255 254 253 232 255 241 203 250 225 193 238 212 186 226 199 177
 89  69  71 144 119 122 107  83  79 121 100  93 185 173 153 192 180 161 209 184 161 255
242 199 244 213 172 199 143 125 188 109 113 203 128 128 203 124 127 194 120 120 169 101
107 141  78  85 160  95  97 187 111 118 190 101 115 194  97 120 189  93 115 163  61  88
152  52  86 129  42  71 105  19  49  88  14  40  65  10  31  47   6  28  41   9  24  38
 13  24  39  14  29  53  23  43  55  24  44  54  23  45  54  29  52  65  48  72   0   0
  0 132 124 128 253 252 252 255 255 255 255 255 255 255 255 255 255 255 255 253 252 255
254 254 240 255 253 219 255 238 205 247 219 189 235 207 184 222 195 178
 96  78  83 134 112 114  10   0   0  82  58  51 183 173 161 191 172 165 222 194 171 255
241 202 255 227 187 222 183 157 178 102 103 195 118 119 191 117 118 186 112 111 171 102
105 173 106 109 195 121 121 206 124 127 197 114 121 186  97 110 180  90 107 168  74 101
154  62  93 130  48  79 106  29  62  82  13  46  59   8  33  49  13  34  52  21  41  52
 22  40  43  18  32  43  18  36  47  22  38  48  24  44  47  27  50  55  36  58  38   0
 42  99  90  98 165 161 163 167 167 170 182 181 185 216 216 217 251 250 252 255 255 255
255 255 227 253 247 200 252 227 194 239 210 179 226 199 173 214 187 165
124 102 105 134 110 107  47   0   0 102  80  77 209 204 204 181 167 172 145 120 123 158
140 133 136 120 114 120 101 103 150  92  99 190 116 116 185 113 111 182 110 107 178 106
105 182 111 112 192 116 116 193 116 116 192 115 118 189 106 114 175  92 103 157  77  95
129  57  79 107  41  66  91  31  58  65  16  43  52  14  36  50  19  40  51  22  44  51
 22  43  46  19  35  45  13  37  45  16  39  46  22  44  47  24  46  53  27  49  58  36
 53   0   0   0   0   0   0   0   0   0   0   0   0   0   0   0  92  88 101 195 193 185
255 250 219 255 238 207 248 216 190 233 206 174 221 196 165 209 184 158
 96  79  82  96  79  82  51  32  48  71  59  71  95  91 100  48  44  65   0   0  14   0
  0   0   0   0   0   0   0   0  83  53  62 160  99 104 167 101 101 160  95  98 161  96
 99 163  98 100 166 100 103 166 101 103 166  99 104 161  93  99 147  84  88 127  71  79
105  53  68  85  38  54  78  38  53  62  27  42  48  21  36  44  24  39  44  23  40  43
 24  42  42  21  42  43  20  39  43  22  37  43  24  38  45  26  43  47  29  48  47  26
 42  46  30  33  47  42  42  39  39  39  34  33  34  10   5  13   0   0   0   0   0   0
126 110 103 160 139 137 176 156 150 184 163 146 176 159 139 173 153 137
