P3
# 8-bit ppm - RGB
50 45
255
 85 188 198  78 187 196  76 186 195  76 186 195  76 186 195  76 186 195  76 186 195  76
186 195  76 186 195  76 186 195  76 186 195  76 186 195  76 186 195  76 186 195  77 187
196  76 186 195  76 186 195  76 186 195  76 186 195  76 186 195  76 187 196  76 186 195
 76 186 195  76 186 195  76 186 195  76 186 195  76 186 195  76 186 195  76 186 195  76
186 195  76 186 195  76 186 195  76 186 195  77 187 195  82 187 196  67 185 195  53 185
195  53 185 197  67 188 199  63 185 196  78 185 195  78 186 196  75 186 195  76 185 195
 76 186 194  76 186 195  77 186 194  75 186 194  79 187 195  86 190 199
 76 186 194  76 186 195  76 186 195  76 186 195  76 186 195  76 186 195  76 186 195  76
186 195  76 186 195  76 186 195  76 186 195  76 186 195  76 186 195  76 186 195  76 186
195  76 186 195  76 186 195  76 186 195  76 186 195  76 186 195  76 186 195  76 186 195
 76 186 195  76 186 195  76 186 195  76 186 195  76 186 195  76 186 195  76 186 195  76
186 195  76 186 195  76 186 195  76 186 195  76 185 195  78 189 197 134 202 206 166 207
206 175 202 196 138 171 164 140 197 195  87 192 200  67 183 191  79 187 195  74 186 195
 76 186 194  76 187 195  76 186 194  76 186 195  75 186 195  75 186 195
 76 185 195  76 186 195  77 186 195  76 186 195  75 186 195  76 186 195  76 186 195  76
186 195  76 186 195  76 186 195  76 186 195  76 186 195  76 186 195  76 186 195  76 186
195  76 186 195  76 186 195  76 186 195  76 185 195  76 186 195  76 186 195  76 186 195
 76 186 195  76 186 195  76 186 195  76 186 195  76 186 195  76 186 195  76 186 195  76
186 195  76 186 195  76 186 195  77 186 194  77 189 199  95 177 178 156 152 125 158 134
105 136 108  71 119  77  19 151 138 107 169 208 205  78 193 204  71 185 194  77 186 194
 78 186 194  75 186 194  76 186 195  75 186 196  76 186 195  76 186 195
 76 186 195  76 186 195  76 186 195  76 186 195  76 186 195  76 186 195  76 186 195  76
186 195  76 186 195  76 186 195  76 186 195  76 186 195  76 186 195  76 186 195  76 186
195  76 186 195  76 186 195  75 186 195  75 186 195  77 186 195  78 186 195  77 185 193
 78 185 193  77 186 195  76 186 195  76 186 195  76 186 195  76 186 195  76 186 195  76
186 195  76 186 195  79 187 195  63 182 193 118 200 202 135 144 112  95  18   0 107  51
  0 103  48   0  90  34   0  81   0   0 163 144 115 136 172 157  78 184 190  66 187 199
 70 187 197  77 186 194  76 185 195  76 186 194  76 186 195  76 186 195
 76 186 195  76 186 195  76 186 195  76 186 195  76 186 195  75 187 195  76 186 195  76
186 195  76 186 195  76 186 195  76 186 195  76 186 195  76 186 195  76 186 195  75 186
194  76 186 195  76 186 195  75 186 195  77 186 195  76 185 194  72 187 196  70 190 201
 70 189 201  75 186 196  77 186 194  76 186 195  76 186 195  76 186 195  76 186 195  76
186 195  76 186 195  77 185 194  67 188 199 136 188 179 130 108  56  98  35   2 117  65
 13 111  58   0 137 101  68 146 114  73 163 122  34 171 126  45 165 148 102 126 159 132
101 177 174  72 185 195  74 187 196  76 186 195  76 186 195  76 186 195
 76 186 196  76 186 195  76 186 195  76 186 195  76 187 195  76 187 195  76 186 195  76
186 195  76 186 195  76 186 195  76 186 195  76 186 195  76 186 195  76 186 195  76 186
195  76 186 195  76 185 195  77 187 194  74 184 194  78 190 201  98 180 182 113 165 152
102 166 159  82 183 191  73 188 199  75 185 194  77 186 194  76 186 195  75 186 195  76
186 194  77 186 195  74 185 194  83 191 200 128 161 143 146 105   0 178 132  84 172 127
 67 169 142 105 140 120 114 163 135 116 207 160 121 200 149 100 194 142  89 207 155  97
173 135  79 114 148 129  82 185 191  75 186 195  76 186 194  76 186 195
 76 186 195  76 186 195  76 186 195  76 186 195  76 186 195  76 186 195  76 186 195  76
186 195  76 186 195  76 186 195  76 186 195  76 186 195  76 186 195  76 185 195  76 186
195  75 186 195  78 186 194  73 184 194  86 191 200 129 178 171 144 130  92 158 117  46
161 121  63 131 142 112 104 181 183  78 190 200  74 185 193  77 185 195  76 186 195  76
186 196  76 186 195  75 185 194  76 191 199 140 172 159 170 134  58 198 151 102 200 156
101 187 161 128  39  38  57 120  95  74 208 163 119 189 146  90 187 144  99 191 139 103
194 144  98 181 135  79 120 175 164  65 188 199  78 185 194  76 186 195
 76 186 195  76 186 195  76 186 195  76 186 195  76 186 195  76 186 195  76 186 195  76
186 195  76 186 195  76 186 195  76 186 195  76 186 195  76 185 195  76 186 196  76 186
196  77 185 195  75 185 193  75 190 201 129 178 171 151 123  58 160 122  73 163 125  92
164 125  92 159 122  59 151 135  84 135 181 177  90 191 203  74 184 194  78 186 196  76
185 196  75 186 194  78 186 194  61 188 200 163 197 193 176 146  89 189 143 100 195 149
 99 188 149 101 166 139  92 180 146  96 199 150  95 191 145  93 192 152 104 184 143  98
188 135  90 184 141  81 103 171 165  71 188 200  78 185 195  76 186 195
 76 186 195  76 186 195  76 186 195  76 186 195  76 186 195  76 186 195  76 186 195  76
186 195  76 186 195  76 186 195  76 186 195  76 186 195  76 186 194  76 186 195  77 186
195  73 184 194  73 189 200 120 182 176 146 121  67 165 116  74 167 122  88 165 128  82
165 125  80 162 121  85 164 117  69 159 130  75 131 183 176  77 191 201  75 184 193  82
188 196  79 186 196  76 184 194  87 193 204 146 181 170 175 141  63 191 148  96 190 144
101 196 149  93 194 155 100 199 156 105 194 141  91 202 155 101 178 138  78 174 128  62
168 128  74 122 160 147  73 187 196  77 186 195  75 186 195  75 186 195
 76 186 195  76 186 195  76 186 195  76 186 195  76 186 195  76 186 195  76 186 195  76
186 195  76 186 195  76 186 195  76 186 195  76 186 195  75 186 194  76 185 194  71 184
193  87 192 202 134 185 179 143 128  75 163 124  75 170 124  92 184 140  89 189 148  98
190 147  97 184 140  98 173 130  84 160 118  69 151 130  81 143 185 173  96 195 204  75
184 193  81 186 195  74 186 195 105 195 201 159 166 133 182 139  75 195 151  93 196 152
105 195 146  91 197 147 101 190 143 100 195 151 102 169 131  71 172 138  94 155 158 137
108 180 171  64 186 195  77 187 196  76 185 194  76 186 195  76 186 195
 76 186 195  76 186 195  76 186 195  76 186 195  76 186 195  76 186 195  76 186 195  76
186 195  76 186 195  76 186 195  76 186 195  76 186 196  77 186 194  79 187 196  93 192
201 151 185 174 153 128  83 157 116  70 168 133  88 186 149  98 191 150 101 194 150  90
198 152  95 190 152  98 185 148  95 174 134  88 163 121  75 159 126  74 128 166 158  85
193 204  70 182 192  62 187 196 129 189 188 167 136  82 195 144  98 199 150  99 187 149
 92 195 148 101 200 147  95 196 151  98 168 137  79 173 154 103 185 206 190 105 198 207
 63 186 198  79 187 196  76 186 195  76 186 195  76 186 195  76 186 195
 76 186 195  76 186 195  76 186 195  76 186 195  76 186 195  76 186 195  76 186 195  77
185 195  75 186 195  76 186 196  77 187 196  80 187 194  78 185 196  81 191 203 117 156
138 149 116  54 164 120  77 182 136  92 193 148  96 195 151  96 195 150  98 195 149  97
196 149  95 193 147  94 196 151 101 194 149  98 185 142  93 169 126  79 148 110  32 106
165 155  99 197 205 123 200 207 140 149 121 182 132  76 196 151 101 194 149  98 189 147
 96 192 150 100 194 148  96 195 150  91 160 114  57 168 188 171  79 193 203  60 182 193
 80 186 194  76 186 195  76 186 195  76 186 195  76 186 195  76 186 195
 76 186 195  76 186 195  76 186 195  76 186 195  76 186 195  75 186 195  76 186 194  75
186 194  76 186 196  81 186 195  81 185 194  67 182 192  75 189 197 109 152 138 152 119
 47 177 135  86 191 145 103 195 148 101 193 147  96 192 146  92 195 149  95 193 147  96
194 147  96 193 147  96 194 147  96 195 148  98 196 152 101 195 152 105 184 137  84 154
122  62 143 161 144 162 164 146 167 135  69 192 146  94 193 147  96 191 147  96 193 150
100 192 150 100 195 150  96 185 134  82 135 130  89  73 185 191  74 185 195  79 186 195
 75 186 195  76 186 195  76 186 195  76 186 195  76 186 195  76 186 195
 76 186 195  76 186 195  76 186 195  76 186 195  76 186 195  76 187 195  75 186 194  77
186 195  80 187 196  62 186 197  70 189 203 103 197 207 134 180 174 168 130  51 188 138
 93 197 152  99 193 148  98 193 147  99 192 147  94 194 149  96 196 151  99 194 148  97
194 149  98 195 149  98 194 148  98 193 147  96 193 147  96 196 150 100 199 151  99 193
143  96 179 130  66 173 130  51 191 148  90 197 151 100 193 147  96 193 148  98 190 147
 98 188 146  96 198 149 102 164 127  66  91 170 167  73 188 198  78 185 194  76 186 195
 76 186 195  76 186 195  76 186 195  76 186 195  76 186 195  76 186 195
 76 186 195  76 186 195  76 186 195  76 186 195  76 186 195  76 186 195  77 186 194  78
189 199  84 190 202 129 189 187 142 183 160 154 173 154 164 139  96 190 144  77 202 148
112 187 149  94 189 149  93 194 147  98 195 150  99 195 149  97 194 148  97 193 148  97
194 148  97 192 146  95 194 148  97 196 150  99 194 148  97 188 147  90 193 148 102 197
148 103 200 153  99 197 151 104 193 146 104 192 147  96 195 149  98 193 149  99 190 147
 98 193 152 102 186 137  88 119 152 129  69 188 198  78 185 195  75 186 195  76 185 195
 76 186 195  76 186 195  76 186 195  76 186 195  76 186 195  76 186 195
 76 186 195  76 186 195  76 186 195  76 186 195  76 186 195  77 186 195  72 188 200 121
183 177 149 152 113 172 150  92 176 136  76 172 127  68 182 141  87 193 147 104 193 147
 97 192 150  98 192 148  96 195 149  98 194 148  97 194 148  97 194 148  97 196 150 100
194 151 101 194 149  98 193 147  96 194 148  97 195 148  96 197 150 100 193 150  96 188
145  94 194 146 100 193 147  97 191 147 102 194 148  96 193 146  96 191 146  97 192 150
101 186 137  85 150 139  99  72 182 186  76 187 197  77 186 194  76 185 195  77 186 196
 76 186 195  76 186 195  76 186 195  76 186 195  76 186 195  76 186 195
 76 186 195  76 186 195  76 186 195  76 186 195  75 186 194  79 189 198  84 174 178 162
131  84 177 132  51 164 120  44 169 130  82 176 142  88 187 148  85 192 150 101 191 152
 90 194 147  97 195 147  99 194 148  97 193 147  96 194 148  97 194 148  96 193 147  96
192 148  98 194 150  99 194 148  97 193 147  95 194 147  96 196 148  97 193 148  97 193
151  96 192 149  97 190 144  94 195 152  96 195 151 102 192 147  91 195 150  95 191 147
 99 171 132  80  97 169 164  71 189 199  78 185 194  76 186 195  76 186 195  76 186 195
 76 186 195  76 186 195  76 186 195  76 186 195  76 186 195  76 186 195
 76 185 195  76 186 195  76 186 195  75 186 195  75 186 195  75 188 195 139 152 121 178
128  47 180 163 135 124 179 170 108 179 177 151 160 127 179 140  77 194 147  99 191 150
100 193 150  97 194 147  97 194 148  97 194 148  97 194 148  97 194 148  97 194 148  97
194 148  97 194 148  97 194 148  97 194 148  97 194 148  97 193 148  97 195 148  98 192
147  96 191 148  96 192 149  97 190 147  93 194 151  96 194 146 107 184 138  95 164 124
 49 113 157 142  69 188 198  78 186 194  76 186 195  76 186 195  76 186 195  76 186 195
 76 186 195  76 186 195  76 186 195  76 186 195  76 186 195  76 186 195
 74 186 195  77 186 196  77 186 195  77 185 193  73 189 201  99 168 161 171 127  67 173
150 106 142 197 198  85 193 205  88 194 205 126 169 153 179 141  82 197 149 105 192 150
 99 193 149  97 195 147  97 194 148  97 194 148  97 194 148  97 194 148  97 194 148  97
194 148  97 194 148  97 194 148  97 194 148  97 194 148  97 194 148  97 195 148  98 193
147  96 193 150  99 195 152 101 192 149  96 192 142  93 176 131  96 160 122  67 120 151
129  68 186 193  78 186 195  76 186 195  76 186 195  76 186 195  76 186 195  76 186 195
 76 186 195  76 186 195  76 186 195  76 186 195  76 186 195  76 186 195
 80 188 197  76 186 196  76 186 197  74 184 192  78 195 204 131 161 147 164 104   7 151
155 112  94 191 192  69 183 194  84 188 197 138 168 150 179 135  74 198 150 106 192 148
 98 192 148  96 194 147  96 194 148  97 194 148  97 194 148  97 194 148  97 194 148  97
194 148  97 194 148  97 194 148  97 194 148  97 194 148  97 194 150  98 193 148  96 193
148  96 191 147  96 184 143  92 181 140  94 175 127  90 156 121  10 115 150 125  73 186
195  77 187 195  77 186 195  76 186 195  76 186 195  76 186 195  76 186 195  76 186 195
 76 186 195  76 186 195  76 186 195  76 186 195  76 186 195  76 186 195
 78 185 194  78 186 195  81 186 195  78 188 197  98 192 198 139 143 109 147 104  62 135
117  67  93 177 179  75 188 198  76 189 199 127 167 155 180 135  70 199 149 104 191 148
 97 193 150  99 195 147  97 194 148  97 194 148  97 194 148  97 194 148  97 194 148  97
194 148  97 194 148  97 194 148  97 194 148  97 194 148  97 193 149  98 192 148  96 195
149  98 189 145  95 169 129  81 155 121  70 150 114  29 116 147 128  74 188 197  76 187
196  76 186 194  76 186 195  76 186 195  76 186 195  76 186 195  76 186 195  76 186 195
 76 186 195  76 186 195  76 186 195  76 186 195  76 186 195  76 186 195
 77 187 195  80 186 197  85 190 200  90 193 202 113 156 141 142 111  13 145 106  78 139
112  73  86 174 176  74 188 197  75 189 199 123 167 154 180 136  66 198 150 102 189 146
 94 194 150 100 193 146  98 194 148  97 194 148  97 194 148  97 194 148  97 194 148  97
194 148  97 194 148  96 194 148  98 194 148  97 194 148  97 191 147  96 194 151  98 194
147  98 195 149 101 186 147 100 170 133  76 159 164 134  65 184 195  78 187 196  77 185
194  77 186 196  76 186 195  76 186 195  76 186 195  76 186 195  76 186 195  76 186 195
 76 186 195  76 186 195  76 186 195  76 186 195  76 186 195  76 186 195
 77 187 196  85 188 196 114 188 185  80 189 198 109 154 128 144 107  46 145 109  71 133
125  92  82 183 186  76 187 197  75 189 199 120 166 153 186 137  72 205 150 105 192 147
 93 192 149  98 194 148  94 193 150  97 193 148  97 197 147  94 192 146  88 191 148 106
197 147 101 191 149  92 193 150  96 196 148 104 195 150 100 190 148  93 192 151  94 193
148  98 198 153  97 188 143  90 164 140  98 128 198 198  62 185 196  80 187 195  76 186
195  76 187 195  76 187 195  76 186 195  76 186 195  76 186 195  76 186 195  76 186 195
 76 186 195  76 186 195  76 186 195  76 186 195  76 186 195  76 186 195
 81 188 197  91 190 196 121 115  50 128 176 165 115 166 151 146 100  58 145 103  68 108
152 137  73 188 197  78 185 194  73 188 197 132 169 147 190 137  85 197 142  96 197 153
 97 194 152 100 198 148 100 193 147  97 192 147  99 194 143 103 203 155  99 195 151 102
198 148 103 192 148  93 193 148  98 193 145 101 193 150  95 195 150 101 195 148 103 192
145 101 197 149  96 188 144  82 150 137  99  71 187 197  76 185 194  76 186 195  76 186
196  76 186 195  76 186 195  76 186 195  76 186 195  76 186 195  76 186 195  76 186 195
 76 186 195  76 186 195  76 186 195  76 186 195  76 186 195  76 186 195
 91 191 199  81 187 194 113 136  95 143 121  61 147 116  65 151  99  43 126 140 110  80
182 187  75 187 197  78 186 195  72 184 194 146 147 111 198 145  98 199 150 100 179 146
 83 177 139  84 194 144  97 197 146  96 193 149  99 194 147 112 186 144  91 171 130  58
189 141  84 193 153  98 199 153 102 195 145  98 193 152  98 192 148  98 192 144 100 196
149 104 194 145  94 193 151  86 145 134  97  74 187 196  77 186 195  76 186 196  76 186
195  76 186 195  76 186 196  76 186 195  76 186 195  76 186 195  76 186 195  76 186 195
 76 186 195  76 186 195  76 186 195  76 186 195  76 186 195  76 186 195
 79 186 195  74 185 195  86 181 183 108 152 140 122 141 122 111 156 143  79 181 185  75
188 196  78 185 194  72 188 199  96 176 172 177 139  81 200 151  98 184 147  89 171 145
 96 180 152 113 183 136  85 201 153  96 190 147  88 196 153 110 160 120  56 166 152 118
165 147 102 157 123  54 175 136  80 195 149  95 194 147 104 179 140  85 173 135  72 192
150  95 195 148  97 192 147  86 151 137 103  73 188 196  77 186 195  76 186 195  76 186
195  76 186 195  76 186 195  76 186 195  76 186 195  76 186 195  76 186 195  76 186 195
 76 186 195  76 186 195  76 186 195  76 186 195  76 186 195  76 186 195
 75 186 195  77 186 195  73 187 197  72 190 200  71 188 196  70 189 199  74 187 197  76
185 194  78 186 195  65 185 192 143 150 115 197 145  89 193 147  93 171 140  72 153 183
174 155 191 183 167 127  56 194 151  99 196 152  99 189 146  81 148 145 111 144 201 199
109 187 187 143 176 166 166 138  89 190 148  89 196 147 107 170 132  84 153 120  46 187
149  98 196 150 100 197 149  92 159 141 105  71 186 195  78 186 195  76 185 195  76 186
195  76 186 195  76 186 195  76 186 195  76 186 195  76 186 195  76 186 195  76 186 195
 76 186 195  76 186 195  76 186 195  76 186 195  76 186 195  76 186 195
 76 186 196  76 186 195  76 185 194  77 185 193  77 186 195  77 186 195  76 186 194  78
185 194  71 189 200  99 173 163 182 142  77 200 149 110 180 133  72 148 150 120 112 202
210  63 167 173 172 134  69 194 151 103 194 145  97 180 139  66 108 167 157  70 190 201
 66 185 195 107 197 203 158 161 131 186 141  79 194 144 102 172 138  85 184 176 146 163
133  86 196 152 102 193 144  93 162 136  96  73 184 190  77 186 196  76 186 195  76 186
195  76 186 195  76 186 195  76 186 195  76 186 195  76 186 195  76 186 195  76 186 195
 76 186 195  76 186 195  76 186 195  76 186 195  76 186 195  76 186 195
 76 186 195  76 186 195  76 186 195  76 186 195  76 186 195  77 185 195  76 186 195  78
186 195  59 185 194 145 160 128 195 144  84 196 150 110 173 132  60 125 156 137 106 203
214 105 177 175 169 128  67 199 151 104 198 148  95 160 148  97  81 180 185  77 186 196
 78 185 193  72 187 195 146 168 140 185 137  83 197 147  95 142 160 128  77 190 201 130
152 126 186 141  79 197 148 100 176 142  93  74 178 177  75 188 198  76 186 195  76 186
195  76 186 195  76 186 195  76 186 195  76 186 195  76 186 195  76 186 195  76 186 195
 76 186 195  76 186 195  76 186 195  76 186 195  76 186 195  76 186 195
 76 186 195  76 186 195  76 186 195  76 186 195  76 186 195  75 186 195  76 186 194  77
187 195  69 182 189 165 150 109 199 151  92 196 146  97 174 139  73 107 163 147 100 197
211 123 172 159 174 131  65 201 155 107 191 141  82 128 152 126  69 188 198  79 186 194
 78 186 195  74 187 195 135 157 135 189 144  85 193 147  82 124 164 146  43 192 206 120
161 145 188 140  87 200 150  98 184 148  96  87 176 175  73 188 198  77 186 195  76 186
195  76 186 195  76 186 195  76 186 195  76 186 195  76 186 195  76 186 195  76 186 195
 76 186 195  76 186 195  76 186 195  76 186 195  76 186 195  76 186 195
 76 186 195  76 186 195  76 186 195  76 186 195  76 186 195  76 186 195  77 186 194  75
187 196  85 181 186 170 138 101 194 149  96 194 144  90 145 141 100  82 179 180  98 192
204 124 141 107 186 143  84 196 148  99 183 140  80 106 169 162  71 187 198  78 186 194
 77 187 195  66 185 194 147 149 117 197 147  89 198 148  89 139 159 131  57 189 201 113
164 153 191 147  87 198 144  99 188 154 105  89 177 174  74 187 198  77 185 195  76 186
195  76 185 195  76 185 195  76 186 195  76 186 195  76 186 195  76 186 195  76 186 195
 76 186 195  76 186 195  76 186 195  76 186 195  76 186 195  76 186 195
 76 186 195  76 186 195  76 186 195  76 186 195  76 186 195  76 186 194  77 186 195  74
187 199  93 181 185 162 123  73 192 150  99 174 133  74 123 172 163  77 193 202  95 185
192 145 142 101 189 148  89 199 147  98 162 140  88  76 180 185  76 187 197  77 186 194
 77 187 195  73 184 190 157 147 100 203 147  95 195 141  93 153 156 115  62 187 197 108
168 158 181 140  65 200 145 103 168 142 100  78 180 181  76 187 197  76 186 194  77 186
195  75 186 195  75 186 195  76 186 195  76 186 195  76 186 195  76 186 195  76 186 195
 76 186 195  76 186 195  76 186 195  76 186 195  76 186 195  76 186 195
 76 186 195  76 186 195  76 186 195  76 186 195  76 186 195  76 186 195  77 186 194  74
188 197  93 181 184 166 132  58 192 150  95 149 126  59  95 175 173  75 192 204  85 168
168 166 142  97 194 155  91 197 144  93 154 149 109  66 183 190  77 186 196  76 186 194
 77 187 197  74 183 190 158 147  90 200 147  98 192 144 105 149 137  80  69 184 196  98
164 153 173 132  65 201 147  92 145 142 105  69 187 195  77 186 195  76 186 195  76 186
195  76 186 195  76 186 195  76 186 195  76 186 195  76 186 195  76 186 195  76 186 195
 76 186 195  76 186 195  76 186 195  76 186 195  76 186 195  76 186 195
 76 186 195  76 186 195  76 186 195  76 186 195  76 186 195  76 186 195  77 186 194  73
188 198  94 180 185 171 134  70 192 151  85 153 145 104  99 185 186  67 188 199  90 172
164 179 146  94 183 146  99 197 145  90 158 154 119  60 183 191  79 186 196  76 185 195
 77 186 195  69 183 191 150 146  95 199 146 107 182 140  79 139 159 134  79 193 206 102
157 142 174 131  57 191 146  79 117 156 135  69 187 197  78 186 194  76 186 195  76 186
195  76 186 195  76 186 195  76 186 195  76 186 195  76 186 195  76 186 195  76 186 195
 76 186 195  76 186 195  76 186 195  76 186 195  76 186 195  76 186 195
 76 186 195  76 186 195  76 186 195  76 186 195  76 186 195  76 186 195  77 186 194  71
187 197  96 180 183 173 136  78 185 144  73 157 152 123 102 190 197  68 186 195  74 181
185 150 141  95 192 153 100 194 142  90 148 153 130  71 187 194  77 186 196  77 186 194
 77 187 194  70 184 191 155 145 106 198 148  98 168 141  75 123 181 179  65 194 206 117
159 143 182 138  72 181 140  76 107 175 171  70 188 199  77 186 194  76 186 195  76 186
195  76 186 195  76 186 195  76 186 195  76 186 195  76 186 195  76 186 195  76 186 195
 76 186 195  76 186 195  76 186 195  76 186 195  76 186 195  76 186 195
 76 186 195  76 186 195  76 186 195  76 186 195  76 186 195  76 186 195  76 185 194  72
188 198  95 178 181 174 134  75 193 146  82 160 151 123  98 192 197  72 184 193  67 188
198 125 151 126 189 144  73 194 140  99 147 146 113  69 185 188  78 186 198  77 186 195
 75 187 197  86 183 186 169 137 101 195 143  75 150 154 120 112 193 206  75 190 196 141
158 138 188 138  86 178 136  71  96 177 178  71 188 199  77 186 194  76 186 195  76 186
195  76 186 195  76 186 195  76 186 195  76 186 195  76 186 195  76 186 195  76 186 195
 76 186 195  76 186 195  76 186 195  76 186 195  76 186 195  76 186 195
 76 186 195  76 186 195  76 186 195  76 186 195  76 186 195  76 186 195  77 186 195  73
188 197  89 181 185 176 142  84 197 147  95 159 140  97  85 183 184  74 185 196  74 189
199 107 174 173 171 138  72 204 154 108 151 140  84  65 180 183  78 188 198  78 185 193
 70 188 199 102 163 153 193 143  91 183 139  70 139 169 150  94 194 207  80 185 192 151
151 118 191 142  89 176 133  65  92 176 176  72 188 199  77 186 194  76 186 195  76 186
195  76 186 195  76 186 195  76 186 195  76 186 195  76 186 195  76 186 195  76 186 195
 76 186 195  76 186 195  76 186 195  76 186 195  76 186 195  76 186 195
 76 186 195  76 186 195  76 186 195  76 186 195  76 186 195  75 186 195  77 186 195  77
187 197  74 182 190 167 146  99 203 153 107 159 125  57  95 175 171  79 191 200  75 188
198  81 177 179 154 137  80 196 144  96 175 141  78  92 179 179  74 188 197  79 185 193
 68 188 198 132 160 139 197 146  91 176 141  81 157 185 177  90 195 204  65 179 184 149
143  97 193 150  96 182 132  74  96 175 177  72 189 199  77 185 194  76 186 195  76 186
195  76 186 195  76 186 195  76 186 195  76 186 195  76 186 195  76 186 195  76 186 195
 76 186 195  76 186 195  76 186 195  76 186 195  76 186 195  76 186 195
 76 186 195  76 186 195  76 186 195  76 186 195  76 186 195  76 186 195  77 186 195  78
187 196  67 185 192 151 152 116 186 133  95 166 129  63 127 159 133  82 186 192  74 187
199  82 180 180 137 133  70 198 148  98 186 137  82 124 165 152  76 189 200  77 186 195
 74 184 191 147 153 118 181 134  84 154 126  66 179 183 166 108 195 204  65 177 182 157
143  89 198 154 105 191 138  82 110 173 163  70 188 198  78 186 195  76 186 195  76 186
195  76 186 195  76 186 195  76 186 195  76 186 195  76 186 195  76 186 195  76 186 195
 76 186 195  76 186 195  76 186 195  76 186 195  76 186 195  76 186 195
 76 186 195  76 186 195  76 186 195  76 186 195  76 186 195  76 186 195  76 186 195  78
185 195  67 188 197 121 157 133 168 113  74 167 126  86 154 132  78  98 166 158  73 190
202  84 180 182 144 135  76 195 145  98 187 144  84 150 139  97 114 189 194  66 185 195
 85 187 193 133 149 114 169 121  79 159 125  77 147 130  83 103 183 187  70 180 185 159
140  80 188 134  91 179 134  83 120 146 123  69 187 197  77 186 195  76 186 195  77 186
195  76 186 195  76 186 195  76 186 195  76 186 195  76 186 195  76 186 195  76 186 195
 76 186 195  76 186 195  76 186 195  76 186 195  76 186 195  76 186 195
 75 186 195  76 186 195  76 186 195  76 186 195  76 186 195  76 186 195  76 185 194  77
185 194  70 189 199 101 171 164 151 119  18 164 111  71 159 124  74 100 162 150  68 188
199  96 189 195 154 152 123 193 137  88 191 148 103 167 136  48 136 156 136 108 194 201
 93 194 204 110 164 157 156 121  51 174 117  64 140 127  83  74 181 182  83 182 190 144
134  89 165 119  64 166 124  85 143 135 100  77 185 193  76 186 195  76 186 195  76 186
195  76 186 195  76 186 195  76 186 195  76 186 195  76 186 195  76 186 195  76 186 195
 76 186 195  76 186 195  76 186 195  76 186 195  76 186 195  76 186 195
 76 186 195  76 186 195  76 186 195  76 186 195  76 186 195  76 186 195  76 187 196  76
186 195  74 186 196  83 186 192 147 161 139 170 137  71 130 151 111  90 183 185  71 184
196  89 192 198 134 154 128 167 121  28 170 126  93 164 126  83 160 121  55 132 160 137
 93 185 191  87 187 195 112 161 144 152 141  97 117 161 151  73 184 193  85 190 200 133
152 129 165 121  49 165 125  87 154 130  80  84 177 176  75 187 198  77 186 195  76 186
195  76 186 195  76 186 195  76 186 195  76 186 195  76 186 195  76 186 195  76 186 195
 76 186 195  76 186 195  76 186 195  76 186 195  76 186 195  76 186 195
 76 186 195  76 186 195  76 186 195  76 186 195  76 186 195  77 185 195  76 186 195  76
186 195  77 186 195  72 186 196 106 190 195 121 186 186  98 189 192  80 189 198  77 184
194  69 188 199 139 175 163 154 124  43 155 123  67 162 120  76 173 116  53 141 134  82
 77 178 181  74 187 198  83 188 197  98 186 186  84 189 196  74 186 195  75 189 200  97
167 163 149 119  57 166 122  72 153 125  68  84 174 172  75 188 198  77 185 194  76 186
195  76 186 195  76 186 195  76 186 195  76 186 195  76 186 195  76 186 195  76 186 195
 76 186 195  76 186 195  76 186 195  76 186 195  76 186 195  76 186 195
 76 186 195  76 186 195  76 186 195  76 186 195  76 186 195  76 186 195  76 186 195  76
186 194  76 186 195  77 186 195  68 185 194  67 187 195  74 187 196  77 185 195  81 186
195  71 187 196 117 189 194 117 162 147 120 155 130 124 148 127 144 144 124 109 161 149
 75 187 195  77 186 195  75 185 194  72 186 196  74 186 195  76 186 195  76 186 195  77
188 197 109 158 151 149 135  76 140 149 118  82 182 189  75 187 197  76 185 195  76 185
195  76 186 195  76 186 195  76 186 195  76 186 195  76 186 195  76 186 195  76 186 195
 76 186 195  76 186 195  76 186 195  76 186 195  76 186 195  76 186 195
 80 187 197  77 187 195  76 186 195  76 186 195  76 186 195  76 186 195  76 186 195  76
186 195  76 186 195  78 186 195  84 187 197  80 187 194  80 185 194  80 185 196  84 186
195  79 186 194  81 186 194  85 188 195  89 185 189  80 188 193  81 188 194  81 189 196
 76 185 195  76 186 195  76 186 195  77 186 194  77 186 195  76 186 195  76 186 195  75
185 195  81 188 198 105 185 184 100 185 189  79 187 197  76 186 195  76 186 196  76 186
195  76 186 195  76 186 195  76 186 195  76 186 195  76 186 195  76 186 195  76 186 195
 76 186 195  76 186 195  76 186 195  76 186 195  75 185 194  88 191 199
