P3
# 8-bit ppm - RGB
50 45
255
 81 188 196  77 186 195  76 186 195  76 186 195  76 186 195  76 186 195  76 186 195  76
186 195  76 186 195  76 186 195  76 186 195  76 186 195  76 186 195  76 186 195  76 186
195  76 186 195  76 186 195  76 186 195  76 186 195  76 186 195  76 186 195  76 186 195
 76 186 195  76 186 195  76 186 195  76 186 195  76 186 195  76 186 195  76 186 195  76
186 195  76 186 195  76 186 195  76 186 195  76 186 195  76 186 195  76 186 195  76 186
195  76 186 195  76 186 195  76 186 195  76 186 195  76 186 195  76 186 195  76 186 195
 76 186 195  76 186 195  76 186 195  76 186 195  75 186 195  82 188 196
 76 186 194  76 186 195  75 186 195  76 186 195  76 186 195  76 186 195  76 186 195  76
186 195  76 186 195  76 186 195  76 186 195  76 186 195  76 186 195  76 186 195  76 186
195  76 186 195  76 186 195  76 186 195  76 186 195  76 186 195  76 186 195  76 186 195
 76 186 195  76 186 195  76 186 195  76 186 195  76 186 195  76 186 195  76 186 195  76
186 195  76 186 195  76 186 195  76 186 195  76 186 195  76 186 195  76 186 195  76 186
195  76 186 195  76 186 195  76 186 195  76 186 195  76 186 195  76 186 195  76 186 195
 76 186 195  76 186 195  76 186 195  76 186 195  76 186 195  76 186 195
 76 186 195  76 186 195  76 186 195  76 186 195  76 186 195  76 186 195  76 186 195  76
186 195  76 186 195  76 186 195  76 186 195  76 186 195  76 186 195  76 186 195  76 186
195  76 186 195  76 186 195  76 186 195  76 186 195  76 186 195  76 186 195  76 186 195
 76 186 195  76 186 195  76 186 195  76 186 195  76 186 195  76 186 195  76 186 195  76
186 195  76 186 195  76 186 195  76 186 195  76 186 195  76 186 195  76 186 195  76 186
195  76 186 195  76 186 195  76 186 195  76 186 195  76 186 195  76 186 195  76 186 195
 76 186 195  76 186 195  76 186 195  76 186 195  76 186 195  75 186 195
 76 186 195  76 186 195  76 186 195  76 186 195  76 187 195  76 186 195  76 186 195  76
186 195  76 186 195  76 186 195  76 186 195  76 186 195  76 186 195  76 186 195  76 186
195  76 186 195  76 186 195  76 186 195  76 186 195  76 186 195  76 186 195  76 186 195
 76 186 195  76 186 195  76 186 195  76 186 195  76 186 195  76 186 195  76 186 195  76
186 195  76 186 195  76 186 195  76 186 195  76 186 195  76 186 195  76 186 195  76 186
195  76 186 195  76 186 195  77 186 194  76 185 194  76 186 194  76 186 195  76 186 195
 76 186 195  76 186 195  76 186 195  76 186 195  76 186 195  76 186 195
 76 186 195  76 186 195  76 186 195  76 186 195  76 186 195  76 186 195  76 186 195  76
186 195  76 186 195  76 186 195  76 186 195  76 186 195  76 186 195  76 186 195  76 186
195  76 186 195  76 186 195  76 186 195  76 186 195  76 186 195  76 186 195  76 186 195
 76 186 195  76 186 195  76 186 195  76 186 195  76 186 195  76 186 195  76 186 195  76
186 195  76 186 195  76 186 195  76 186 195  76 186 195  76 186 195  76 186 195  76 186
195  77 186 194  75 186 195  72 187 198  75 188 199  75 186 196  77 185 194  76 186 195
 76 186 195  76 186 195  76 186 195  76 186 195  76 186 195  76 186 195
 76 186 196  76 186 195  75 186 195  76 186 195  76 186 195  76 186 195  76 186 195  76
186 195  76 186 195  76 186 195  76 186 195  76 186 195  76 186 195  76 186 195  76 186
195  76 186 195  76 186 195  76 186 194  76 186 194  76 186 195  76 186 195  76 186 195
 77 186 194  77 185 194  77 186 194  76 186 195  76 186 196  76 186 195  76 186 195  76
186 195  76 186 195  76 186 197  76 186 195  76 186 194  76 186 195  76 186 195  76 185
193  72 188 198  82 186 192  95 181 180  83 173 169  81 184 188  72 189 199  76 186 195
 78 186 195  76 186 195  76 186 195  76 186 195  76 186 195  76 186 195
 76 186 195  76 186 195  76 186 195  76 186 195  76 186 195  76 186 195  76 186 195  76
186 195  76 186 195  76 186 195  76 186 195  76 186 195  76 186 195  76 186 195  76 186
195  76 186 195  76 186 195  76 186 194  76 186 195  76 187 196  76 186 195  76 185 194
 76 187 198  73 189 200  74 186 197  77 185 193  76 186 195  76 186 195  76 186 195  76
186 195  76 186 195  76 186 195  76 186 194  76 186 195  76 186 195  75 185 194  78 190
200  93 174 175  94 112  88 112  97  63 110  83  40  97 101  77  92 164 159  80 189 197
 70 184 194  79 186 195  77 186 195  76 186 194  76 185 195  77 186 195
 76 186 195  76 186 195  76 186 195  76 186 195  76 186 195  76 186 195  76 186 195  76
186 195  76 186 195  76 186 195  76 186 195  76 186 195  76 186 195  76 186 195  76 186
195  76 186 195  76 186 195  76 186 195  76 186 195  77 186 195  76 187 196  74 189 201
 82 179 184  90 171 167  86 181 180  73 188 198  75 186 196  77 186 195  76 186 195  76
186 195  75 187 194  75 186 194  76 186 194  76 186 195  77 186 195  74 188 198  90 178
180 103  97  75  91  23   0 102  38   0 109  36   0 101   0   0 104  74  20 104 156 138
 90 193 200  68 188 197  75 187 197  78 186 195  76 185 195  77 186 196
 76 186 195  76 186 195  76 186 195  76 186 195  76 186 195  76 186 195  76 186 195  76
186 195  76 186 195  76 186 195  76 186 195  76 186 195  76 186 195  76 186 195  76 186
195  76 186 195  76 186 196  76 186 197  77 185 194  74 185 196  78 189 196 107 161 151
147 137  90 152 129  64 146 132  84 114 157 138  77 186 194  76 187 197  76 186 194  76
186 195  76 186 195  76 186 194  76 186 195  77 185 195  77 185 194  70 188 200 119 156
136 165 115  31 164 116  74 144  99  43 131 104  73 150 122  96 145  98  41 159 128  76
139 153 120 105 171 159  81 184 190  68 186 196  77 189 200  82 186 196
 76 186 195  76 186 195  76 186 195  76 186 195  76 186 195  76 186 195  76 186 195  76
186 195  76 186 195  76 186 195  76 186 195  76 186 195  76 186 195  76 186 195  76 186
195  76 186 195  76 186 195  77 186 195  75 185 195  79 187 195 117 153 121 156 118  51
167 120  83 157 120  93 174 121  83 169 109  56 122 150 120  87 190 194  76 186 196  77
185 194  76 186 194  76 186 195  75 185 194  76 186 195  74 184 194  86 192 201 137 153
126 190 142  66 192 151 106 201 151  98 153 122 124 101 101 102 194 160 113 199 142 105
194 143  85 181 141  82 152 146  87 130 157 118 111 178 172  65 186 197
 76 186 195  76 186 195  76 186 195  76 186 195  76 186 195  76 186 195  76 186 195  76
186 195  76 186 195  76 186 195  76 186 195  76 186 195  76 186 195  76 186 195  76 186
195  76 186 195  77 186 195  75 185 194  81 191 199 114 160 145 153 120  69 166 127  79
164 119  81 169 131  88 161 128  85 164 128  87 158 111  56 128 147 126  80 188 196  76
186 197  77 185 194  75 186 196  76 186 195  77 187 195  71 185 194  99 192 200 146 147
122 180 139  73 188 150  98 201 153 106 138 116  93  44  50  32 190 148 104 199 154  91
195 147 108 195 149 100 195 149 103 154 111  61 155 126  63 121 150 126
 76 186 195  76 186 195  76 186 195  76 186 195  76 186 195  76 186 195  76 186 195  76
187 195  76 186 195  76 186 195  76 186 195  77 187 196  76 186 194  76 186 195  75 186
195  75 186 194  74 185 194  78 191 201 107 161 154 149 117  44 162 124  81 168 129  97
187 142  88 192 149  96 183 143  93 172 134  84 166 125  86 155 111  54 112 153 132  71
189 197  78 187 197  77 185 194  78 186 195  79 185 193  72 189 200 103 173 170 170 136
 72 199 149  89 196 146  96 188 147  92 194 154 112 197 154  97 198 150  97 190 148  95
186 148  94 180 143  89 193 151 104 176 133  90 179 138  96 153 108   0
 76 186 195  76 186 195  76 186 195  76 186 195  76 186 195  76 186 195  76 186 195  76
186 195  76 186 195  75 185 195  76 186 195  76 187 195  75 187 195  76 186 195  77 186
194  73 185 194  86 191 200 109 160 150 153 121  55 168 122  77 184 137 100 193 149 102
195 149  97 196 151 100 197 152 101 191 148  99 180 139  90 168 126  83 148 117  64 105
164 140  71 188 197  74 186 196  69 183 191  63 185 197  96 188 192 147 144 109 193 145
 81 193 148 103 195 150 105 191 147  98 189 146  94 198 149  99 195 147  94 198 154 100
195 145 100 188 138  87 174 124  73 189 142  94 171 136  84 127 158 142
 76 186 195  76 186 195  76 186 195  76 186 195  76 186 195  76 186 195  75 186 195  76
186 196  76 186 195  77 186 194  78 186 194  77 186 194  77 186 194  78 186 195  74 186
196  81 188 195 119 157 142 152 116  46 172 127  71 195 142 103 198 147 105 195 149  90
195 151  99 192 146  95 192 146  95 198 152  99 197 150  97 189 144  91 179 133 103 148
120  67 107 157 133  93 187 198  97 196 203 128 200 202 143 153 127 185 137  68 200 148
100 188 151 105 189 149 102 191 147  98 192 149  86 199 146 109 195 149  95 180 139  66
166 142 100 160 140 102 168 141 102 150 128  92 135 138  89  91 182 185
 76 186 195  76 186 195  76 186 195  76 186 195  76 186 195  76 186 195  76 186 195  77
185 195  77 186 196  72 187 198  69 188 198  72 188 198  70 186 195  60 184 196  84 188
197 121 155 137 162 124  57 178 136  88 196 150 112 196 148 100 194 150  92 189 148  90
196 149  99 195 149  97 193 147  93 194 148  96 196 148  97 194 149  94 199 154  94 191
145 106 166 125  59 143 146 117 171 190 175 167 169 138 180 142  78 200 148  97 197 145
103 188 152  93 192 153  96 194 150 104 195 151  90 193 144 100 168 136  89 127 161 144
104 185 183  92 186 193  84 181 184  81 178 177  84 183 189  80 187 196
 76 186 195  76 186 195  76 186 195  76 186 195  76 186 195  76 186 195  77 185 194  74
187 196  68 187 195  97 181 181 115 176 169 111 181 179 114 194 199 138 201 199 138 155
134 177 131  67 190 145 100 196 153 107 192 148  99 190 146  96 191 148  97 194 151  99
190 144  92 195 147  95 192 147  96 192 150  97 191 148  97 190 148  93 194 153  89 194
147  99 191 146 102 185 144  71 171 128  55 176 132  73 193 148  96 189 145  93 192 153
103 196 146  98 196 148  93 192 150  97 195 150 104 175 133  63 108 161 152  79 194 203
 69 185 196  74 185 195  73 186 197  75 187 198  75 186 196  76 186 195
 76 186 195  76 187 195  76 186 195  76 186 195  77 186 195  76 185 194  73 188 197  87
182 189 140 151 130 165 135  79 176 131  66 167 125  51 167 151 112 177 163 127 168 126
 58 201 152  93 195 145  99 193 149  99 191 147  86 197 150 102 193 146 103 193 146  96
195 148  96 194 148  96 193 147  97 193 149  98 192 148  98 191 148  96 189 145 102 192
147 103 196 149 103 194 147  97 199 151 103 200 147  97 198 149 100 193 152 103 187 148
 99 199 146 104 195 147  93 195 152 101 190 137  87 126 145 118  69 186 194  76 185 194
 78 186 194  77 186 195  76 185 194  77 186 194  76 186 195  76 186 195
 75 186 195  76 186 194  77 186 195  79 186 195  74 185 195  75 189 201 101 189 193 139
145 101 178 133  59 162 128  69 151 129  72 170 135  84 172 136  76 170 134  55 191 145
103 192 149  99 194 151  97 194 147  97 195 148  99 194 148  96 194 148  96 194 148  97
194 148  97 194 148  97 194 148  97 194 148  97 194 148  97 195 148  98 194 148  96 193
147  95 194 148  96 194 148  97 193 147  97 196 146  99 191 148  95 193 148  98 200 148
103 191 145  92 195 154 106 196 143  94 151 135  88  76 182 185  77 187 197  77 186 194
 76 186 195  76 186 195  76 186 195  76 186 195  76 186 195  76 186 195
 80 187 195  74 187 197  73 188 200  64 186 195  84 187 193 108 172 161 141 137 103 156
121  41 165 144 103 171 198 199 144 202 207 154 194 190 143 161 145 174 138  76 195 147
 98 194 150  95 192 148  95 193 146  96 194 148  97 194 148  98 194 148  97 193 147  96
194 148  97 194 148  97 194 148  97 194 148  97 194 148  97 193 147  96 193 147  96 194
148  97 195 149  98 195 149  98 195 149  99 190 148 100 191 151  96 188 144  85 197 150
 94 195 152 102 193 145 102 164 131  77  93 169 165  73 188 199  77 185 193  76 186 195
 76 186 195  76 186 195  76 186 195  76 186 195  76 186 195  76 186 195
 88 191 199  89 174 179  89 163 149 130 188 191 116 178 172 134 102   0 145 102  78 144
111  40 149 164 141  98 195 206  67 185 196  74 190 201 131 193 192 162 133  80 195 145
 93 196 150  94 192 149  96 194 148  97 194 148  97 193 147  96 194 148  97 195 149  98
194 148  97 194 148  97 194 148  97 194 148  97 194 148  97 195 149  98 194 148  97 194
148  97 193 147  96 193 147  97 192 146  93 193 149  89 192 146  99 200 150 108 196 148
 99 189 142  82 160 131  78 101 166 161  71 187 196  78 186 195  76 186 196  76 187 195
 76 186 195  76 186 195  76 186 195  76 186 195  76 186 195  76 186 195
 81 182 188 121 127  81 168 138  93 184 164 133 126 105  63 151 113  78 150 113  81 137
106  47 107 172 163  72 187 197  80 185 193  73 186 197 109 184 186 163 138  84 199 150
 98 194 148  93 189 146  94 196 150  99 194 148  97 194 148  97 194 148  97 194 148  97
194 148  97 194 148  97 194 148  97 194 148  97 194 148  97 194 148  97 195 149  98 194
148  97 195 149  98 195 149  99 195 150  96 193 149  87 193 146 107 188 137 105 184 132
 77 149 140  98  87 171 169  70 188 198  78 185 195  76 186 195  76 186 195  76 186 195
 76 186 195  76 186 195  76 186 195  76 186 195  76 186 195  76 186 195
 78 177 177 139 119  62 152  98  68 136 109  54 145 110  81 148 108  69 143  99  33 123
148 119  80 186 194  76 186 196  79 186 195  70 186 195 125 191 188 156 133  77 191 144
 95 194 148  99 195 151  99 193 146  95 194 148  97 194 148  97 194 148  97 194 148  97
194 148  97 194 148  97 194 148  97 194 148  97 194 148  97 194 148  97 194 148  97 194
149  97 195 149  98 193 147  96 190 144  92 180 140  94 172 127  84 161 123  64 124 150
128  74 180 185  75 189 198  76 185 193  76 185 195  76 186 195  76 186 194  76 186 195
 76 186 195  76 186 195  76 186 195  76 186 195  76 186 195  76 186 195
 92 188 194 139 155 138 147 113  76 143 103  48 148 107  41 141 120  59 120 152 130  94
187 193  74 186 196  77 186 195  78 185 193  68 187 200 153 196 190 149 123  74 165 129
 76 192 149  94 193 146 100 194 151  98 189 147  95 193 150  98 193 149  97 193 149  98
193 148 102 192 149 101 191 146  98 190 147  96 195 151  98 190 147  96 195 148  99 198
149  99 187 139  91 172 127  81 163 123  80 157 115  56 149 130  76  99 167 162  69 187
197  76 188 197  78 186 194  76 186 195  76 186 195  76 186 195  76 186 195  76 186 195
 76 186 195  76 186 195  76 186 195  76 186 195  76 186 195  76 186 195
 80 187 198  96 193 197 106 178 170 104 161 147 108 161 149  99 175 175  87 191 199  73
186 195  77 185 193  75 185 193  71 189 198 123 195 204 166 161 132 179 143  75 171 133
 95 165 124  71 188 145  93 192 150  97 192 148  97 193 150  98 190 145  95 195 149  98
193 150  93 193 149  94 192 149  95 193 150  97 195 149  99 192 151  98 189 147  94 193
148  96 192 149  97 168 132  82 155 122  71 167 156 120 108 181 178  65 188 199  79 186
195  76 186 194  76 186 195  76 186 195  76 186 195  76 186 195  76 186 195  76 186 195
 76 186 195  76 186 195  76 186 195  76 186 195  76 186 195  76 186 195
 80 187 195  70 185 194  70 187 198  73 190 202  74 191 202  71 188 198  74 186 195  77
185 194  74 186 197  83 190 200 125 184 188 149 146 106 178 138  79 192 144  97 201 153
114 182 139  91 169 130  77 189 147  95 196 150  99 194 146  96 195 149  98 194 147  98
195 151  97 193 146  94 194 149  94 197 153  99 192 147  95 191 146  93 192 150  95 190
148  93 194 152  98 190 154 101 163 125  53 155 171 144 102 196 205  70 183 193  77 186
195  75 186 195  76 186 195  76 186 195  76 186 195  76 186 195  76 186 195  76 186 195
 76 186 195  76 186 195  76 186 195  76 186 195  76 186 195  76 186 195
 74 186 194  77 185 195  78 185 195  77 185 193  77 184 194  77 186 193  77 185 193  76
189 198  96 189 194 135 157 133 165 130  59 183 142  75 198 153  92 195 147  93 192 150
 93 178 140  79 149 114  46 191 151  98 193 147  95 196 145  97 195 147  99 195 152 104
180 139 103 164 123  84 176 132  87 190 145  95 193 150  94 198 153  99 199 150  99 193
148  93 191 146  92 194 149  98 193 149  98 164 135  73  85 172 171  75 188 199  76 185
194  76 186 195  76 186 195  76 186 195  76 186 195  76 186 195  76 186 195  76 186 195
 76 186 195  76 186 195  76 186 195  76 186 195  76 186 195  76 186 195
 77 186 195  77 186 195  76 186 196  76 186 196  77 186 196  77 186 195  75 187 197  81
179 183 138 147 104 185 137  82 195 146  95 199 151 102 190 140 102 174 134  80 144 131
 57 185 169 140 183 155 126 179 140  77 195 149  98 198 148  99 195 151 103 182 143  91
155 112  47 149 107  48 152 117  75 163 124  82 168 131  84 176 136  87 186 143  90 190
148  94 193 150  98 193 147  97 198 151 103 195 140  78 141 153 120  68 187 193  78 186
196  76 186 195  76 186 195  76 186 195  76 186 195  76 186 195  76 186 195  76 186 195
 76 186 195  76 186 195  76 186 195  76 186 195  76 186 195  76 186 195
 76 186 195  75 186 195  76 185 195  76 186 195  76 186 195  77 185 195  73 189 199 101
162 156 181 131  72 195 151 101 193 150 101 186 139  86 172 147  95 164 179 162 116 192
193 137 191 192 179 144  92 187 147  96 195 152  98 196 146  98 187 146  89 174 149 102
182 179 157 132 138 115 147 114  39 136 101   0 159 124  70 173 132  83 180 142  88 171
134  83 165 123  54 194 151  93 198 151 103 196 143 107 183 145  89 121 166 152  67 187
197  78 186 194  76 186 195  76 186 195  76 186 195  76 186 195  76 186 195  76 186 195
 76 186 195  76 186 195  76 186 195  76 186 195  76 186 195  76 186 195
 76 186 195  76 186 195  76 186 195  76 186 195  76 186 195  78 185 194  71 189 200 103
163 150 183 134  81 203 151  98 187 151  99 175 126  67 137 175 162  72 192 204  62 187
201 137 184 183 175 129  46 193 150 100 192 146 100 199 149  94 161 131  54 140 183 173
114 203 217  89 190 199 119 175 166 192 188 165 166 134  77 197 148 103 195 149  94 167
136  76 174 163 144 142 131  77 175 136  82 197 148 104 194 151  86 175 147 109  89 181
182  72 187 198  77 185 194  76 186 195  76 186 195  76 186 195  76 186 195  76 186 195
 76 186 195  76 186 195  76 186 195  76 186 195  76 186 195  76 186 195
 76 186 195  76 186 195  76 186 195  76 186 195  76 186 195  77 185 194  71 188 198  96
174 170 160 128  81 196 151  98 180 140  77 160 156 131  92 187 197  52 183 193 123 196
196 178 164 139 178 137  75 194 150  95 200 149 104 171 139  66 108 164 153  76 190 201
 64 183 190  72 185 195  77 192 201 137 204 211 174 159 132 184 141  78 199 151 102 160
129  72 102 184 190  82 187 197 146 151 117 175 135  72 191 148  96 197 145  87 124 172
162  63 187 198  79 185 194  76 186 195  76 186 195  76 186 195  76 186 195  76 186 195
 76 186 195  76 186 195  76 186 195  76 186 195  76 186 195  76 186 195
 76 186 195  76 186 195  76 186 195  76 186 195  76 186 195  78 186 194  69 184 193 104
194 202 149 145 108 185 140  84 186 139  72 139 166 149  62 190 202  93 189 195 160 175
140 176 128  65 191 151  99 193 150 104 181 134  57 130 164 136  80 191 199  75 185 194
 80 186 197  78 186 195  73 185 193  70 187 197 154 174 148 180 135  64 202 149 102 175
131  86 130 185 168  73 191 203 127 185 182 153 127  52 195 150 107 201 137  80 137 169
153  58 187 197  79 186 194  76 186 195  76 186 195  76 186 195  76 186 195  76 186 195
 76 186 195  76 186 195  76 186 195  76 186 195  76 186 195  76 186 195
 76 186 195  76 186 195  76 186 195  76 186 195  76 186 195  76 186 195  76 185 194  78
190 202 129 155 127 176 133  74 191 142  73 139 142 110  66 190 202  90 180 180 159 135
 66 194 149  99 194 149  98 183 145  83 144 143  96  82 183 188  75 187 197  77 186 194
 76 186 194  75 187 195  77 186 194  74 188 199 117 167 157 188 141  80 200 144 114 187
140  55 135 146 112  58 186 199 108 192 197 176 172 136 175 131  76 201 148  98 115 169
161  66 188 198  78 186 194  76 186 195  76 186 195  76 186 195  76 186 195  76 186 195
 76 186 195  76 186 195  76 186 195  76 186 195  76 186 195  76 186 195
 76 186 195  76 186 195  76 186 195  76 186 195  76 186 195  76 186 195  78 186 195  71
187 197 133 187 188 166 135  66 192 154 105 170 124  63 156 180 158 135 159 136 194 140
 97 186 156  95 198 145  86 168 139  95 131 191 189  67 187 198  78 185 193  76 186 195
 76 185 193  77 185 194  77 186 195  70 188 199 113 172 165 182 140  65 191 151 106 195
150  89 149 141 107  59 186 197 110 192 197 172 173 146 179 141  60 177 147  99  81 174
176  74 189 198  77 185 194  76 186 195  76 186 195  76 186 195  76 186 195  76 186 195
 76 186 195  76 186 195  76 186 195  76 186 195  76 186 195  76 186 195
 76 186 195  76 186 195  76 186 195  76 186 195  76 186 195  76 186 195  76 186 194  76
186 196  81 183 192 137 141  88 188 143  92 189 146  96 169 142  87 185 155 107 183 143
 92 190 151 103 191 137  73 146 142 112 108 197 207  67 184 191  78 186 195  76 186 195
 77 186 195  77 186 195  77 184 194  80 192 201 127 165 150 192 143  77 200 152 105 182
137  63 155 143 102  75 190 201  80 180 187 157 137  82 194 141  81 157 148 110  68 183
187  78 186 197  76 186 194  76 186 195  76 186 195  76 186 195  76 186 195  76 186 195
 76 186 195  76 186 195  76 186 195  76 186 195  76 186 195  76 186 195
 76 186 195  76 186 195  76 186 195  76 186 195  76 186 195  76 186 195  76 186 196  76
185 193  75 189 199 109 169 153 180 139  72 194 154  95 163 131  76 157 130  83 168 138
 77 190 145 107 194 144  86 142 143 104  99 196 200  71 184 193  77 186 195  76 186 195
 76 186 195  77 186 194  75 189 201  91 174 177 164 135  77 193 148  91 181 140  81 138
152 126 131 186 182  73 189 199 104 181 179 168 130  64 198 142  81 136 152 131  64 188
199  79 185 194  76 186 195  76 186 195  76 186 195  76 186 195  76 186 195  76 186 195
 76 186 195  76 186 195  76 186 195  76 186 195  76 186 195  76 186 195
 76 186 195  76 186 195  76 186 195  76 186 195  76 186 195  76 186 195  75 186 195  77
186 195  75 186 195  75 185 191 146 147 110 175 128  79 168 127  88 166 124  79 162 124
 72 178 138  86 196 150  94 164 144  93 103 186 182  68 186 198  77 186 195  76 186 195
 76 186 194  75 187 196  79 183 186 138 133  91 198 149  90 178 138  73 155 164 137 112
196 203  73 190 200  80 191 199 130 151 121 191 140  87 189 140  79 103 164 149  71 189
201  77 185 193  76 186 195  76 186 195  76 186 195  76 186 195  76 186 195  76 186 195
 76 186 195  76 186 195  76 186 195  76 186 195  76 186 195  76 186 195
 76 186 195  76 186 195  76 186 195  76 186 195  76 186 195  76 186 194  76 186 194  76
186 196  77 185 193  74 189 200  98 171 165 148 117  52 160 115  56 163 124  71 148 106
 38 163 123  59 193 149 100 181 137  81 135 173 159  76 191 202  76 184 192  77 186 195
 76 185 194  75 189 198 127 158 134 194 149  86 187 141  88 169 135  94 159 202 203  82
188 200  69 184 191 114 195 203 159 142 101 191 138  86 192 148  93  98 170 157  71 188
199  77 185 194  76 186 195  76 186 195  76 186 195  76 186 195  76 186 195  76 186 195
 76 186 195  76 186 195  76 186 195  76 186 195  76 186 195  76 186 195
 76 186 195  76 186 195  76 186 195  76 186 195  76 186 195  76 186 195  76 186 195  75
186 194  76 186 195  76 185 195  76 188 196 118 177 162 160 159 127 172 154 118 150 172
157 152 144  94 188 148  98 188 140  92 167 148 105 123 194 198  55 185 196  79 185 192
 74 187 198  95 179 174 164 139  84 190 139 106 170 142  81 159 183 174 111 195 206  84
187 195  75 191 201 110 170 166 171 134  77 192 150 102 191 142  94 106 167 156  70 188
199  78 185 194  76 186 195  76 186 195  76 186 195  76 186 195  76 186 195  76 186 195
 76 186 195  76 186 195  76 186 195  76 186 195  76 186 195  76 186 195
 76 186 195  76 186 195  76 186 195  76 186 195  76 186 194  76 186 196  75 187 195  75
186 195  76 187 195  76 186 195  73 185 194  94 193 203 126 199 206 119 195 201 116 201
206 168 168 129 182 140  82 200 150 105 177 135  66 152 160 139 127 198 199  69 189 199
 76 190 201 117 156 130 162 121  69 169 115  70 145 141  98 101 194 200  72 189 200  84
186 195  78 193 204 101 155 137 157 111  10 165 132  90 178 126  78 126 159 145  65 189
200  78 185 194  76 186 195  76 186 195  76 186 195  76 186 195  76 186 195  76 186 195
 76 186 195  76 186 195  76 186 195  76 186 195  76 186 195  76 186 195
 76 186 195  76 186 195  76 186 195  75 186 195  75 186 195  77 186 195  76 186 195  76
186 195  76 186 195  76 186 195  77 186 195  78 185 192  70 185 195  63 184 195  99 192
197 171 169 152 176 125  71 193 141  92 170 129  98 163 124  69 161 155 113 133 177 171
 75 191 202 103 157 136 161 122  51 172 119  85 158 115  56 131 148 118  91 190 199  79
185 193  60 188 199 138 177 168 163 125  58 162 126  85 164 116  60 129 150 128  67 188
198  78 185 194  76 186 195  76 186 195  76 186 195  76 186 195  76 186 195  76 186 195
 76 186 195  76 186 195  76 186 195  76 186 195  76 186 195  76 186 195
 76 185 196  76 186 195  76 186 195  76 185 194  75 186 194  76 186 195  76 186 195  76
186 195  76 186 195  76 186 195  78 186 194  81 186 196  78 186 195  79 185 195  77 189
198 134 176 161 152 116  41 159 127  77 165 127  80 169 127  80 157 109  66 164 131  84
131 185 180  69 185 195 119 140 116 155 127  61 147 120  62 131 158 126  91 188 192  76
186 195  64 184 194 133 195 202 147 133  99 162 121  71 180 124  74 134 153 134  66 187
199  79 185 195  76 186 195  76 186 195  76 186 195  76 186 195  76 186 195  76 186 195
 76 186 195  76 186 195  76 186 195  76 186 195  75 186 195  76 186 194
 77 185 196  76 186 195  76 186 194  76 186 193  76 186 195  75 186 195  76 186 195  76
186 195  76 186 195  76 185 195  80 187 195  79 186 195  76 186 195  79 185 194  67 184
195 106 193 197 158 172 151 139 116  50 160 124  47 159 110  40 155 122  65 128 138 103
117 188 187  79 188 200  75 184 190  88 171 162  97 168 157  88 182 186  77 187 198  75
186 195  77 185 195  70 189 199 122 160 147 151 109   0 157 118  44 111 161 149  71 188
200  77 185 194  76 186 195  76 186 195  76 186 195  76 186 195  76 186 195  76 186 195
 76 186 195  76 186 195  76 186 195  76 186 195  75 186 195  74 186 194
 77 187 196  76 186 195  76 186 195  76 186 195  76 186 195  76 185 194  76 186 195  76
186 195  76 186 195  76 186 195  77 186 194  76 187 194  77 186 196  77 186 194  79 186
194  67 186 196  90 190 197 111 175 172 128 163 152 134 166 155 121 173 163  83 183 182
 72 187 195  75 185 193  76 186 196  74 188 200  79 189 201  75 186 195  75 185 194  77
186 195  77 186 194  73 186 194 100 189 194 136 184 169 136 166 145 104 177 179  69 187
198  76 186 194  76 186 195  76 186 195  76 186 195  76 186 195  76 186 195  76 186 195
 76 185 194  76 185 194  76 185 195  75 186 195  79 187 197  82 188 198
 81 187 196  79 186 196  74 186 194  75 185 194  75 185 194  76 186 195  75 186 195  76
186 195  76 186 195  76 186 195  76 186 195  77 187 195  77 185 195  75 186 195  75 186
195  78 186 195  71 185 194  71 188 198  83 188 197  87 188 196  76 188 198  74 187 197
 75 186 195  75 186 196  75 186 195  75 185 194  74 185 194  75 186 195  75 186 194  75
186 195  74 187 195  75 185 194  75 186 195  76 189 199  81 187 197  82 187 194  84 187
193  79 186 194  76 186 195  76 186 195  76 186 195  76 186 195  76 186 195  76 186 195
 76 186 195  76 186 195  76 186 195  75 187 195  77 186 196  93 193 201
 88 190 199  87 190 199  75 186 195  80 187 196  83 188 197  85 190 197  82 188 197  77
186 196  76 186 195  76 186 195  77 185 195  77 186 194  76 187 195  76 186 195  78 187
195  80 185 194  84 186 192  91 185 191  94 185 189  91 185 189  89 186 191  89 185 191
 88 185 192  83 186 194  82 186 193  88 185 193  92 186 192  89 186 191  85 185 192  87
185 192  90 185 193  86 186 192  85 186 194  88 185 192  83 185 192  78 186 194  86 185
193  81 187 194  76 186 195  76 185 194  76 186 195  76 186 195  76 186 195  76 186 195
 76 186 195  76 186 195  76 186 195  76 186 195  75 186 195  77 187 196
