P3
# 8-bit ppm - RGB
50 46
255
154 213 219  78 188 197  74 187 195  77 185 195  76 186 195  76 186 195  76 186 195  76
186 195  76 186 195  76 186 195  74 187 195  76 186 195  77 187 196  76 186 195  76 186
195  76 186 195  76 186 193  76 186 195  76 186 195  76 186 197  76 186 195  76 186 197
 76 186 197  74 187 195  76 186 195  77 185 197  76 186 195  76 186 197  78 188 197  76
186 195  76 186 195  76 186 195  76 186 195  77 185 195  76 186 195  78 188 199 111 198
205 129 200 204 144 204 202 131 191 189 133 194 196 131 206 211  81 187 198  73 186 194
 80 186 197  77 185 195  77 185 195  76 186 195  79 187 197 152 213 218
 78 188 197  74 187 195  74 187 195  75 185 194  76 186 195  76 186 195  76 186 195  76
186 195  77 187 196  76 186 193  76 186 195  76 186 195  76 186 195  76 186 195  76 186
193  76 186 195  76 186 195  75 185 194  73 185 197  75 185 192  74 187 195  76 186 195
 77 187 196  76 186 197  77 187 194  76 186 195  75 185 194  77 185 197  74 187 195  76
185 192  76 186 195  77 187 196  77 185 195  76 186 195  78 188 197 144 194 191 178 182
165 178 173 151 170 155 124 147 125  88 144 130 104 233 235 221 194 232 232  46 184 194
 67 184 193  71 185 195  73 185 196  74 184 195  76 185 192  79 187 197
 75 185 194  75 188 196  76 186 195  76 186 195  76 186 193  76 184 194  76 186 195  76
186 193  76 186 195  76 186 195  76 186 195  76 186 195  77 185 195  74 187 193  76 186
197  76 186 195  76 186 195  76 186 195  77 185 195  78 186 198  78 185 193  79 186 194
 79 188 195  75 185 192  76 186 195  76 184 196  76 186 197  76 186 195  76 186 195  77
185 198  77 187 196  75 185 192  76 186 197  75 183 193  94 194 200 131 133 112 115  67
  1 110  62   0  87  15   1  88  47   1  65   4   0 162 143 110 215 215 191 162 203 195
144 204 202 110 195 200  92 192 200  82 190 200  68 186 196  72 186 194
 77 185 195  77 187 196  76 186 195  78 186 196  75 185 196  78 186 196  76 186 195  76
186 195  76 186 195  76 186 195  77 187 196  77 185 195  77 187 198  76 186 195  76 186
197  77 186 193  76 186 195  76 186 195  78 188 199  76 185 192  65 184 196  60 184 194
 62 184 195  76 184 194  79 185 196  74 186 198  78 188 197  77 187 196  76 186 195  75
188 196  76 186 195  76 186 195  79 186 194  59 184 196 149 202 190 126 104  67  89  42
  0 107  62  20 105  58  14 115  76  35 116  81  43 130  94  34 151 117  54 174 150 102
184 168 132 171 175 150 161 185 171 189 214 208 192 228 224 108 195 204
 76 186 195  75 185 194  77 187 194  77 185 197  76 186 195  76 186 197  76 186 195  77
185 197  76 186 195  76 186 195  76 186 195  76 186 195  76 186 195  76 186 195  76 186
195  76 186 195  77 185 195  80 186 197  69 183 191  72 188 199 124 194 201 134 194 192
130 196 194  90 193 200  65 185 194  80 184 193  75 185 194  77 185 197  76 186 195  77
185 195  77 187 196  76 186 195  80 184 191  66 188 199 147 159 139 132  96   0 140 102
 57 148  98  48 147 107  71 146 118  94 157 122  90 188 151 106 188 148  95 181 141  90
180 142  93 178 140  91 156 118  69 168 140 101 211 191 166 156 208 206
 74 187 195  76 186 195  77 187 196  77 187 194  76 185 200  76 189 197  76 186 195  76
186 195  76 186 195  76 186 195  76 186 195  77 187 196  76 186 193  76 186 195  76 186
195  75 185 192  80 187 195  63 183 192 104 194 202 158 199 191 149 148 126 158 142 108
146 137 104 163 184 169 136 202 202  62 183 199  80 187 195  76 186 197  75 185 194  74
187 195  76 185 198  76 186 195  77 185 195  72 194 203 133 148 127 166 128  53 189 152
100 193 146  92 192 157 117 123 104  88  83  56  37 199 161 122 196 149 105 193 147  96
196 149 103 198 154 107 177 135  85 160 127  74 157 122  66 172 192 180
 76 186 195  76 186 195  76 186 195  77 185 195  74 187 195  75 185 194  76 186 195  76
186 195  76 186 195  76 186 195  76 186 195  76 186 197  76 186 195  78 184 195  77 186
193  79 188 195  62 181 193 107 197 205 173 191 179 161 133  94 152 118  70 162 119  76
157 123  77 151 121  71 168 170 146 122 200 200  56 184 197  77 186 193  77 185 197  77
187 196  76 186 195  76 186 197  83 187 194  54 189 203 177 184 153 172 135  67 189 149
 96 194 153  99 191 156 116 132 108  82 110  87  56 188 155 114 193 150 100 192 146  95
188 145  95 182 133  90 188 147  94 188 148  95 163 133  79 182 177 155
 76 186 193  76 186 195  76 186 195  76 186 195  76 186 197  77 185 195  74 187 195  76
186 195  76 186 195  76 186 195  76 186 193  76 186 195  76 186 195  75 185 192  80 187
195  59 182 197 110 199 205 178 191 174 158 127  83 157 120  76 164 125  82 168 127  84
163 124  81 159 124  84 157 116  70 171 169 144 143 205 204  67 185 197  78 185 193  76
186 195  76 186 195  74 187 195  81 185 192  44 188 199 178 187 160 183 143  82 190 147
 95 193 147  96 191 149  99 188 150 103 189 153 103 189 151 102 193 146  94 193 147  95
187 147  96 174 134  83 174 133  87 170 137  94 155 118  73 176 199 189
 77 185 197  76 186 197  75 185 194  77 185 195  76 186 193  76 186 195  76 186 195  76
186 195  76 186 195  77 185 195  75 185 194  76 186 195  77 187 196  81 185 196  56 182
191 126 205 209 187 201 186 158 126  85 155 121  75 164 125  82 170 129  85 177 136  92
173 132  88 168 126  80 162 124  79 156 118  69 175 171 144 125 200 197  56 184 195  79
185 196  77 187 196  77 186 193  74 184 191  90 197 205 148 160 140 180 139  73 191 148
 96 196 149  97 192 146  94 194 151  98 193 152  99 190 147  94 195 154 101 181 144  92
160 124  64 176 145 101 170 139  95 151 119  70 178 166 142 136 201 203
 76 186 195  76 186 193  74 187 195  76 184 194  76 186 197  77 186 193  76 186 195  74
187 193  77 185 195  76 186 195  76 186 197  77 185 195  77 185 195  56 184 195 141 210
213 208 213 193 160 131  91 149 122  71 170 129  85 178 136  88 189 147  99 193 147  95
192 150 100 186 144  98 176 134  86 159 125  80 153 117  65 155 164 143 119 199 200  69
187 196  75 185 194  79 186 194  62 186 198 128 194 194 175 151 113 184 142  86 198 151
 99 195 147  97 196 150  99 195 147  97 189 146  94 189 150  95 175 138  84 165 138  93
157 176 154 176 198 185 164 191 176 147 174 159 123 187 188  72 188 199
 76 186 195  76 186 195  76 186 193  76 186 195  76 186 195  76 186 197  76 186 195  77
185 195  76 186 195  76 186 195  79 187 197  77 186 193  69 187 197 135 203 204 201 204
183 165 138  97 149 115  67 171 130  84 182 145  91 192 151  97 193 151  95 197 150  98
194 148  96 190 150  99 191 149  99 180 140  91 165 129  81 156 121  79 150 146 119 130
193 185  73 190 199  51 180 193 109 196 203 160 174 149 176 130  78 195 149  98 198 152
100 189 146  94 193 150  98 196 149  97 197 151 100 179 139  86 174 146  99 154 184 174
 91 198 206  67 189 202  70 189 201  70 190 199  67 185 195  76 186 195
 76 186 195  74 186 197  76 186 195  75 185 194  75 185 194  76 186 195  77 187 196  76
186 193  78 187 200  81 188 196  70 184 192  60 186 195 153 207 205 164 162 140 149 114
 59 160 124  76 178 137  91 189 147  99 193 151 101 193 150  97 196 150  99 197 147  97
192 146  95 194 148  96 196 148  98 193 150  98 185 144  98 178 137  91 151 110  56 145
135  99 153 199 189 154 214 214 185 199 184 155 128  75 187 145  95 197 146  99 193 147
 96 190 149  95 189 149  98 194 148  97 197 151 102 164 122  66 158 166 143 111 200 206
 57 181 191  82 186 197  78 185 193  79 185 196  78 186 196  76 186 193
 76 186 195  77 187 196  76 186 195  76 186 195  78 188 199  77 187 198  78 185 193  75
185 196  65 184 190  52 180 191  82 190 200 178 221 214 170 163 135 147 109  47 171 135
 85 185 145  94 190 147  95 196 150  99 193 145  95 194 148  99 194 148  96 193 145  97
197 147  97 193 147  96 191 148  96 195 147  97 193 150  98 193 152  99 186 149  97 162
121  68 167 142 102 195 181 146 173 148 107 175 140  85 192 149  97 195 148  94 196 149
 97 194 148  99 191 148  95 191 148  96 185 147  98 156 113  45 109 154 147  74 192 201
 80 182 192  77 183 194  78 186 196  75 185 194  76 186 193  77 185 195
 74 187 195  76 186 197  77 187 198  76 186 195  79 185 198  77 185 195  63 182 194  94
194 202 121 204 210 141 210 215 216 238 233 214 203 183 155 118  64 185 145  96 190 149
 95 193 150  97 196 148  98 192 146  95 194 148  96 195 149 100 194 148  99 194 148  97
194 148  97 193 147  96 193 147  96 195 148  96 192 144  94 194 148  97 195 152 100 194
151  98 178 138  85 166 127  72 174 137  83 190 151  96 193 150  97 194 146  96 194 148
 97 190 147  95 189 146  94 194 153  99 168 131  77 164 136  97 174 197 187  41 184 198
 81 185 194  76 186 195  76 186 195  77 187 196  75 185 192  76 186 195
 77 185 195  76 186 195  76 184 194  78 184 195  69 183 191  63 185 196 146 211 213 213
230 220 215 222 206 211 208 189 215 198 172 169 140 100 184 148  96 196 150  98 191 150
 97 193 147  98 193 147  96 194 148  97 194 148  96 195 149  98 195 147  97 194 148  97
193 147  96 194 148  96 195 149  98 192 149  99 193 145  95 192 146  95 193 147  96 195
149  98 195 152  99 194 153 100 193 150  98 192 149  97 194 148  97 193 150 100 194 148
 97 191 147 100 191 148  98 188 148  95 144 116  53 194 180 151 193 228 224   1 180 192
 84 186 198  75 185 194  77 185 195  76 186 195  76 186 195  76 186 197
 76 186 195  76 186 193  77 187 194  70 183 191  95 193 202 169 215 212 199 201 178 189
171 131 178 154 106 161 134  79 156 124  65 180 140  87 191 150  97 190 147  95 190 147
 95 194 148  96 195 149  98 194 146  96 194 148  97 194 148  97 193 147  96 194 148  99
194 148  97 194 148  97 194 148  97 194 146  96 194 148  99 194 148  99 194 148  96 194
146  96 194 148  97 193 147  96 193 147  96 196 150  99 192 146  95 193 147  96 193 145
 95 194 148  97 189 149 100 166 130  78 148 124  78 208 223 204  98 196 205  74 184 193
 77 186 193  76 186 195  76 186 195  76 186 195  76 186 195  76 186 195
 77 185 195  76 186 197  79 186 194  54 186 199 170 211 205 186 172 143 160 133  80 151
122  57 158 127  63 168 136  79 177 142  84 189 149  87 192 149  99 193 150 100 191 148
 96 193 147  96 195 149  98 194 148  97 194 148  97 194 148  97 194 148  97 194 148  97
194 148  97 193 147  96 194 148  97 193 147  96 192 144  94 195 147  97 197 147  97 195
149  97 196 149  97 193 147  95 192 146  94 196 148  98 194 148  96 193 147  96 194 151
 99 190 148  98 170 136  88 144 116  55 206 198 175 141 209 210  57 183 192  78 186 196
 76 186 195  76 186 195  76 186 195  76 186 195  76 186 195  76 186 195
 76 186 197  78 187 194  53 181 190 138 206 207 188 188 164 142 110  49 176 148 101 189
175 140 164 169 145 170 173 146 175 146 102 181 143  80 190 147  97 193 150 100 192 149
 97 194 146  98 193 147  96 193 147  96 193 147  95 194 148  97 194 148  96 194 148  97
194 148  97 194 148  97 194 148  99 193 145  95 195 147  97 196 148  98 194 146  96 193
147  95 194 148  96 191 148  95 190 147  94 190 147  94 197 151 100 192 149  97 186 146
 93 170 132  87 150 120  70 194 183 153 183 222 215  68 186 198  76 186 195  76 186 195
 77 185 198  76 186 195  77 187 196  76 186 195  76 186 195  76 186 195
 74 187 195  77 185 195  70 188 200 130 189 185 170 144  96 162 130  79 186 177 144 170
216 213  85 195 206 114 197 203 165 158 132 184 141  75 194 152 102 191 148  95 195 149
 98 195 149 100 193 147  96 194 148  99 194 148  97 194 148  97 194 148  97 194 148  97
194 148  97 194 148  97 193 145  95 193 147  96 194 148  96 195 149  98 195 147  97 192
149  97 195 147  97 192 150  94 192 152  93 192 151  95 191 145  94 180 140  91 166 128
 81 151 116  61 191 176 147 174 216 212  71 187 198  76 184 194  78 186 196  76 186 195
 76 186 195  77 187 196  76 186 195  76 186 195  76 186 195  76 186 195
 77 187 196  77 183 194  83 192 197 133 188 183 145 111  48 174 135  78 174 182 167  65
195 205  65 179 189  98 191 199 159 161 140 186 137  70 195 152  99 193 147  98 190 149
 96 194 146  98 194 148  97 194 148  96 194 148  97 194 148  97 194 148  97 194 148  97
194 148  97 194 148  97 196 148  98 193 147  96 195 147  97 194 148  97 194 148  97 195
149  98 191 150  96 192 151  97 189 146  94 184 139  97 171 135  87 152 120  71 145 122
 68 199 184 161 192 223 218  58 188 198  75 183 193  77 186 193  76 186 195  76 186 195
 77 187 196  76 186 195  76 186 195  76 186 195  76 186 195  76 186 195
 77 187 196  68 185 194 101 195 203 198 198 172 138 104  56 151 113  64 167 167 141 132
203 207  56 180 192  94 193 206 154 162 147 185 138  70 194 147 101 194 149  94 194 148
 99 194 146  96 194 148  97 194 148  99 194 148  97 194 148  97 194 148  97 194 148  97
194 148  97 194 148  97 194 148  97 194 148  97 192 149  97 194 148  97 194 148  97 192
149  96 194 147  95 186 144  98 169 133  83 165 127  80 150 117  66 156 130  82 204 202
179 182 221 218  86 189 203  75 183 193  76 189 197  76 186 197  76 186 195  76 186 195
 75 185 192  76 186 193  76 186 195  77 187 194  76 186 195  76 186 195
 74 184 195  58 183 197 164 205 197 156 138 100 139 109  57 137 105  67 152 119  74 142
183 175  64 186 197  77 191 201 137 159 146 184 137  67 192 152  99 194 148  97 192 149
 97 194 148  97 194 148  96 194 148  96 194 148  99 194 148  99 194 148  99 194 148  97
194 148  97 194 148  96 194 148  97 194 148  97 194 146  96 194 148  97 194 148  97 196
148  98 196 150  99 187 145  99 170 129  85 156 123  68 156 133  92 161 191 181 148 212
213  27 179 192  76 186 195  78 188 197  76 186 197  76 186 195  76 186 195  76 186 195
 77 187 196  76 186 195  76 186 195  76 186 195  76 186 195  76 186 195
 98 192 202  89 198 205 146 157 141 139 107  50 141 109  68 145 115  77 135  92   0 115
162 156  85 193 205  81 191 202 143 160 144 184 140  67 193 151 101 194 148  96 195 149
100 195 149  98 194 148  99 194 148  99 194 148  97 194 148  97 194 148  97 194 148  97
194 148  97 194 148  97 194 148  97 194 148  97 194 148  97 195 149  98 194 148  97 194
146  96 195 147  97 198 152 100 169 136  81 194 169 129 184 208 195  46 188 200  51 181
191  83 187 196  76 186 195  79 185 196  77 185 195  76 186 195  77 187 196  76 186 195
 75 185 194  76 186 195  76 186 195  76 186 195  76 186 195  76 186 195
151 177 168 201 222 205 164 163 135 131  91  30 146 114  75 133 108  68 156 129  76 155
188 181  43 186 200 117 190 194 174 159 130 185 141  80 197 151  99 195 148  96 193 147
 98 194 148  99 194 148  97 194 148  97 193 147  96 193 147  95 194 148  97 194 148  97
194 148  97 193 147  96 194 148  97 196 150  98 194 148  96 195 147  97 194 148  97 193
147  96 197 149 101 194 148  96 171 130  68 171 175 151 136 210 211  53 178 190  85 188
195  75 185 194  76 186 195  77 185 195  76 186 195  76 186 195  76 186 195  76 186 195
 77 185 197  77 185 195  76 186 195  76 186 195  76 186 195  76 186 195
101  83   0 201 188 144 182 164 124 132  94  45 144 114  76 130  97  52 160 160 136 136
204 205  45 185 195 128 190 187 175 140  98 189 143  91 199 147  98 193 150  97 194 153
100 195 147  99 192 144  94 193 146  94 197 147  97 193 147  95 193 150  97 194 148  97
197 152  97 195 149  97 193 150  98 193 150 100 193 147  96 196 150  99 193 149 102 193
147  98 194 148  97 194 151  98 172 131  69 163 175 153 130 208 208  58 180 193  79 188
195  76 186 195  77 187 196  76 186 195  76 186 195  76 186 195  76 186 195  76 186 195
 76 186 195  76 186 195  76 186 195  76 186 195  76 186 195  76 186 195
143 121  82 142 120  70 143 114  70 138 110  63 137 101  49 161 143 107 147 196 193  40
183 197 101 196 202 180 189 168 167 127  74 198 148  97 194 151  99 177 140  88 166 131
 75 190 144  92 193 146  94 195 149  97 194 148  99 192 148 103 171 134  82 165 126  67
182 143  88 188 145  95 190 148  98 190 149  95 193 150  98 192 149  97 185 142  90 198
152 101 192 142  92 200 154 102 161 124  70 205 191 156 177 220 213   0 177 192  83 187
196  76 186 195  76 186 195  76 186 195  76 186 195  76 186 195  76 186 195  76 186 195
 76 186 195  76 186 195  76 186 195  76 186 195  76 186 195  76 186 195
159 171 157 148 119  77 149 122  79 154 117  72 154 150 125 167 197 185  91 191 197  53
183 193 159 204 201 173 149 105 179 142  88 196 153 100 178 141  87 178 153 115 197 178
145 173 133  84 191 150  94 192 150  94 197 151 100 179 142  88 156 129  84 204 190 163
181 156 118 154 119  61 171 138  83 191 150  96 191 148  96 183 141  91 164 127  72 187
146  92 196 150  99 194 151  99 165 129  77 206 183 139 180 215 208  18 181 194  80 187
195  76 186 195  74 187 195  76 186 195  76 186 195  76 186 195  76 186 195  76 186 195
 76 186 195  76 186 195  76 186 195  76 186 195  76 186 195  76 186 195
 91 189 198 135 181 179 133 179 176 133 180 174 122 191 194  65 189 199  61 179 189 114
201 206 168 172 148 168 132  72 193 150  98 185 145  94 181 144  92 181 194 177 172 213
207 162 128  82 190 149  93 191 146  89 194 153  99 163 132  78 197 192 162 181 221 220
152 199 193 202 205 174 165 139  88 186 147  92 193 150  98 183 144  89 156 121  63 176
136  85 194 155 100 196 150  99 179 139  90 185 154  98 166 202 198  65 189 199  78 185
193  76 186 193  73 186 194  76 186 195  76 186 195  76 186 195  76 186 195  76 186 195
 76 186 195  76 186 195  76 186 195  76 186 195  76 186 195  76 186 195
 72 186 196  61 189 200  67 191 199  67 189 200  62 184 195  81 184 189  63 188 200 162
195 184 168 141  90 183 142  89 199 153 102 169 127  69 159 159 131 131 209 209  59 178
190 159 132  79 189 152  97 192 151  97 192 152  93 153 122  65 142 197 191  19 182 197
 47 187 197 158 212 210 185 164 119 179 141  92 194 153 100 166 131  73 193 169 123 166
137  93 179 142  90 198 152 101 184 147  95 153 113   0 167 197 197  97 195 206  70 184
194  77 185 195  76 186 195  76 186 195  76 186 195  76 186 195  76 186 195  76 186 195
 76 186 195  76 186 195  76 186 195  76 186 195  76 186 195  76 186 195
 77 187 196  78 185 193  78 184 197  78 184 195  84 186 196  54 182 193 132 201 204 175
175 147 171 133  68 193 153 102 193 150 100 169 128  64 125 143 131  77 193 206 101 185
195 161 128  85 190 149  95 195 152 100 177 141  83 182 153 119 105 188 192  77 187 198
 67 184 193 118 193 198 189 169 132 175 137  88 198 155 105 157 124  53 213 201 161 194
178 145 165 130  75 197 150  98 193 151 101 157 112  11 172 194 189 100 199 204  70 182
194  77 185 195  76 186 195  76 186 195  76 186 195  76 186 195  76 186 195  76 186 195
 76 186 195  76 186 195  76 186 195  76 186 195  76 186 195  76 186 195
 76 186 195  76 186 195  75 185 192  76 186 195  79 186 194  51 185 196 133 191 192 187
158 126 177 141  81 196 150  99 191 150  97 171 133  70 127 141 124  69 193 201 141 191
188 160 133  82 194 153  99 194 154 101 171 123  59 180 188 167 120 201 205  64 182 194
 69 185 196 116 194 196 176 152 106 180 143  91 200 157 107 148 112   2 226 221 191 220
213 184 158 124  63 193 152  96 191 150  97 177 136  74 152 147 118  90 188 197  72 187
192  76 186 195  74 187 195  76 186 197  76 186 195  76 186 195  76 186 195  76 186 195
 76 186 195  76 186 195  76 186 195  76 186 195  76 186 195  76 186 195
 76 186 195  76 186 195  77 185 195  76 186 193  79 186 194  50 184 195 136 193 198 192
165 138 180 140  87 195 149  98 184 148  96 161 130  74 137 168 162  68 193 205 136 145
124 171 132  77 195 154 101 187 145  95 173 132  76 133 179 176  67 191 201  78 185 193
 74 188 198 104 187 191 165 135  83 190 151  96 198 155 102 158 119  42 212 203 172 201
185 159 171 131  80 193 152  99 192 151  97 190 150  91 133 109  63  85 182 191  77 187
198  76 186 195  76 186 195  76 186 195  76 186 195  76 186 195  76 186 195  76 186 195
 76 186 195  76 186 195  76 186 195  76 186 195  76 186 195  76 186 195
 75 185 194  76 186 197  76 186 195  76 186 195  83 187 196  18 180 192 160 210 211 213
191 167 161 116  53 197 154 102 168 133  78 148 169 152  81 189 201 137 206 203 150 146
111 178 139  82 194 153  99 180 135  78 178 162 129 143 202 198  50 182 194  79 186 194
 73 187 198 104 187 191 169 136  83 194 153  99 196 146  96 176 140  80 185 171 142 201
198 179 171 135  85 189 148  92 192 150 100 169 130  63 153 164 147  93 191 200  72 184
195  77 185 195  76 186 195  76 186 195  76 186 195  76 186 195  76 186 195  76 186 195
 76 186 195  76 186 195  76 186 195  76 186 195  76 186 195  76 186 195
 76 186 195  74 187 195  76 186 195  76 186 197  83 187 196  13 178 190 165 215 212 210
192 168 162 118  47 192 155 101 149 114  56  91 182 185  57 190 203 138 171 160 166 133
 78 187 150  98 194 152  96 184 135  76 143 157 142  96 200 207  72 181 194  78 186 196
 72 186 196 109 186 192 171 140  86 193 150  97 194 150 103 171 130  66 134 171 163 163
210 204 166 131  73 188 149  94 176 140  90 190 159 105 168 211 201  53 187 198  77 186
193  77 185 195  75 185 194  76 186 195  76 186 195  76 186 195  76 186 195  76 186 195
 76 186 195  76 186 195  76 186 195  76 186 195  76 186 195  76 186 195
 76 186 195  77 187 196  76 186 195  74 187 195  82 186 195  36 181 192 154 208 208 202
181 150 175 134  68 186 146  87 164 139 101 109 184 187  63 192 205 105 144 137 176 128
 62 189 154  99 188 149  92 184 140  80 138 155 139  91 198 206  71 183 194  77 185 195
 75 187 199 103 186 190 166 133  80 194 153  99 185 147 100 173 140  87 126 184 185 123
197 198 153 115  50 186 150  92 164 125  68 191 182 151 158 212 210  27 179 192  80 187
195  76 186 193  76 186 195  77 185 195  76 186 195  76 186 195  76 186 195  76 186 195
 76 186 195  76 186 195  76 186 195  76 186 195  76 186 195  76 186 195
 76 186 195  75 185 194  76 186 195  76 186 195  83 186 193  37 182 195 157 205 207 204
179 151 173 135  73 183 139  68 172 176 161 113 198 203  54 187 200 127 157 147 174 130
 61 190 150  99 191 151  98 180 135  80 145 163 147  88 195 203  71 183 194  79 186 194
 73 187 197 124 195 195 168 132  84 193 154  99 172 131  75 182 178 151 141 209 209 126
194 197 156 124  65 184 148  88 174 132  74 150 176 163  74 194 203  77 186 193  76 186
195  77 185 195  76 186 195  76 186 197  76 186 195  76 186 195  76 186 195  76 186 195
 76 186 195  76 186 195  76 186 195  76 186 195  76 186 195  76 186 195
 76 186 195  76 186 195  76 186 195  76 186 195  80 187 195  45 183 194 147 201 201 197
173 145 174 138  78 188 139  62 116 165 159  68 191 206  52 180 193 160 207 201 160 142
102 176 140  80 192 151 105 171 132  77 154 166 152  86 196 205  76 184 194  75 185 192
 79 189 200 202 214 200 168 132  82 191 149  91 178 146  97 168 200 189  50 189 202 194
215 208 167 132  76 186 148  85 181 145  95 178 198 187  39 184 197  82 186 197  76 184
194  76 186 195  76 186 195  76 186 195  76 186 195  76 186 195  76 186 195  76 186 195
 76 186 195  76 186 195  76 186 195  76 186 195  76 186 195  76 186 195
 76 186 195  76 186 195  76 186 195  75 185 194  79 186 194  55 184 197 137 192 194 184
160 126 178 143  85 188 142  69 147 169 156  91 195 204  70 182 194  96 199 206 179 178
156 172 133  76 193 151 101 177 130  78 131 152 137  90 197 205  74 184 193  75 185 192
 87 194 202 184 178 156 177 137  88 186 146  84 152 144 108 103 196 203  74 188 196 208
210 196 169 132  77 188 146  86 170 142 103 153 200 194  56 185 198  79 186 194  74 187
195  76 186 197  76 186 195  77 187 196  76 186 195  76 186 195  76 186 195  76 186 195
 76 186 195  76 186 195  76 186 195  76 186 195  76 186 195  76 186 195
 77 185 195  76 186 195  75 185 194  76 186 193  79 186 194  61 186 198 126 187 189 179
155 111 182 145  90 191 146  89 158 135 103  94 187 192  73 187 195  64 183 195 191 219
207 163 133  79 193 154  99 181 136  81 132 151 132  89 196 204  77 183 196  66 184 194
126 202 199 149 138 108 188 145  95 176 139  84 173 172 142  77 189 200  75 187 198 155
157 134 177 138  83 191 144  88 155 139 105 111 194 198  71 184 198  77 187 196  77 185
195  76 186 195  76 186 195  76 186 195  76 186 195  76 186 195  76 186 195  76 186 195
 76 186 195  76 186 195  76 186 195  76 186 195  76 186 195  76 186 195
 76 186 195  76 186 195  76 186 195  76 186 195  79 186 192  61 186 198 120 184 186 176
148 111 182 145  90 193 151 103 148 111  59 159 199 188  91 194 201  65 185 194 105 192
197 148 125  71 185 146  89 188 141  85 154 158 133 104 194 202  73 183 194  57 186 199
153 180 165 177 145  94 189 147  99 169 133  81 201 202 171  78 190 202  72 186 196 132
126 100 181 144  89 193 151  95 169 140  98 145 190 183  60 185 197  78 186 196  74 187
195  76 186 195  76 186 195  76 186 195  76 186 195  76 186 195  76 186 195  76 186 195
 76 186 195  76 186 195  76 186 195  76 186 195  76 186 195  76 186 195
 77 187 196  76 186 195  76 186 195  74 187 195  79 186 194  43 183 193 143 196 201 195
171 137 163 125  63 178 134  89 157 125  78 176 164 126 153 192 187  85 191 204 102 187
192 142 122  69 180 141  82 190 148  98 164 137  86 142 189 183  83 189 200  53 186 199
151 170 150 171 137  76 170 135  93 156 118  71 182 175 146 101 194 201  69 185 198 144
139 110 187 147  94 191 151 100 176 133  80 143 171 157  66 192 201  78 185 193  76 186
195  76 186 195  76 186 195  76 186 195  76 186 195  76 186 195  76 186 195  76 186 195
 76 186 195  76 186 195  74 187 195  76 186 195  76 186 195  76 186 195
 76 186 195  76 186 195  76 186 195  75 185 194  80 187 195  41 180 193 147 208 211 190
185 164 138 100   0 168 127  83 162 128  83 149 122  71 144 125  82 120 182 181  94 191
198 147 125  75 183 143  92 196 149 103 163 128  62 178 178 152 134 205 207   0 178 196
157 198 184 158 137  92 160 121  78 163 126  81 148 119  75 130 173 166  64 189 203 144
132 106 173 133  80 181 140  94 161 119  69 167 171 146 136 204 205  55 180 192  79 185
196  76 186 193  76 186 195  76 186 195  76 186 195  76 186 195  76 186 195  76 186 195
 76 186 195  76 186 195  74 187 195  76 186 195  75 185 196  76 186 195
 77 185 195  77 187 196  76 186 195  76 186 195  78 184 195  72 184 195  82 195 203 146
184 171 164 135  78 148 115  64 153 119  73 154 124  74 151 117  54 112 171 169 113 200
207 197 179 141 169 133  85 190 147  97 176 145  89 155 125  75 179 193 180 121 200 205
 99 199 205 155 150 128 146 109  54 152 120  73 148 105  36 122 146 133  74 194 203 153
139 113 156 119  64 168 127  81 151 118  75 175 149 101 144 193 187  51 186 200  78 185
193  76 186 195  76 186 195  77 187 196  76 186 195  76 186 195  76 186 195  76 186 195
 76 186 195  76 186 195  76 186 195  76 186 195  78 186 196  78 186 196
 76 186 195  73 186 194  76 186 195  74 187 195  76 186 195  79 186 194  69 183 194  97
194 201 170 195 189 190 178 152 168 149 109 165 160 128 143 183 172  77 191 202 116 193
199 203 192 162 141 111  49 174 134  83 171 129  83 158 122  74 160 128  81 178 177 147
110 190 191 178 203 197 197 183 156 191 178 146 185 180 159 153 190 182  56 188 200 168
188 177 162 136  85 159 122  80 162 127  85 157 115  29 113 173 173  73 191 203  77 186
193  76 186 193  77 187 196  76 186 195  76 186 195  76 186 195  76 186 195  76 186 195
 76 186 195  76 186 195  74 187 195  76 186 195  76 186 195  76 185 192
 81 187 198  76 184 196  76 186 195  78 186 198  76 186 195  74 187 195  77 187 196  70
184 194  76 188 199 177 214 207 160 195 188 133 199 195  81 190 203  66 183 192  80 186
197 186 203 193 171 147 111 148 114  50 155 124  70 160 122  77 155 126  82 136  93   0
151 178 171 107 201 209 179 218 213 183 218 212 160 216 213 120 199 204  60 186 195 124
192 193 166 144  97 150 119  65 160 129  83 151 111  23 111 170 168  75 189 200  76 185
192  76 186 195  76 186 195  74 187 195  76 186 195  76 186 195  76 186 195  76 186 195
 76 186 195  76 186 195  77 185 195  76 186 195  75 185 196  78 188 197
152 212 220  77 185 195  77 187 198  76 186 195  76 186 195  76 186 195  76 186 195  77
185 195  75 183 193  29 182 195  48 186 197  59 182 197  75 184 191  80 187 195  54 183
189 136 207 211 182 189 173 159 145 110 164 149 118 170 153 127 170 155 132 163 148 109
157 193 189  90 194 203   1 176 187  12 179 193  41 178 192  65 183 193  77 187 196  76
189 197 140 179 172 161 148 114 159 149 114 164 142 101 118 180 177  69 188 202  78 184
195  76 186 195  76 186 195  76 186 195  76 186 195  76 186 195  76 186 195  76 186 195
 76 186 195  76 186 195  76 186 195  76 186 195  78 186 196 154 213 219
