P3
# 8-bit ppm - RGB
50 54
255
255 255 255 255 255 255 255 255 255 255 255 255 255 255 255 255 255 255 255 255 255 255
255 255 255 255 255 255 255 255 255 255 255 255 255 255 255 255 255 255 255 255 255 255
255 255 255 255 255 255 255 255 255 255 255 255 255 255 255 255 255 255 255 255 255 255
255 255 255 255 255 255 255 255 255 255 255 255 255 255 255 255 255 255 255 255 255 255
255 255 255 255 255 255 255 255 255 255 255 255 255 255 255 255 255 255 255 255 255 255
255 255 255 255 255 255 255 255 255 255 255 255 255 255 255 255 255 255 255 255 255 255
255 255 255 255 255 255 255 255 255 255 255 255 255 255 255 255 255 255
255 255 255 255 255 255 255 255 255 255 255 255 255 255 255 255 255 255 255 255 255 255
255 255 255 255 255 255 255 255 255 255 255 255 255 255 255 255 255 255 255 255 255 255
255 255 255 255 255 255 255 255 255 255 255 255 255 255 255 255 255 255 255 255 255 255
255 255 255 255 255 255 255 255 255 255 255 255 255 255 255 255 255 255 255 255 255 255
255 255 255 255 255 255 255 255 255 255 255 255 255 255 255 255 255 255 255 255 255 255
255 255 255 255 255 255 255 255 255 255 255 255 255 255 255 255 255 255 255 255 255 255
255 255 255 255 255 255 255 255 255 255 255 255 255 255 255 255 255 255
255 255 255 255 255 255 255 255 255 255 255 255 255 255 255 255 255 255 255 255 255 255
255 255 255 255 255 255 255 255 255 255 255 255 255 255 255 255 255 255 255 255 255 255
255 255 255 255 255 255 255 255 255 255 255 255 255 255 255 255 255 255 255 255 255 255
255 255 255 255 255 255 255 255 255 255 255 255 255 255 255 255 255 255 255 255 255 255
255 255 255 255 255 255 255 255 255 255 255 255 255 255 255 255 255 255 255 255 255 255
255 255 255 255 255 255 255 255 255 255 255 255 255 255 255 255 255 255 255 255 255 255
255 255 255 255 255 255 255 255 255 255 255 255 255 255 255 255 255 255
255 255 255 255 255 255 255 255 255 255 255 255 255 255 255 255 255 255 255 255 255 255
255 255 255 255 255 255 255 255 255 255 255 255 255 255 255 255 255 255 255 255 255 255
255 255 255 255 255 255 255 255 255 255 255 255 255 255 255 255 255 255 255 255 255 255
255 255 255 255 255 255 255 255 255 255 255 255 255 255 255 255 255 255 255 255 255 255
255 255 255 255 255 255 255 255 255 255 255 255 255 255 255 255 255 255 255 255 255 255
255 255 255 255 255 255 255 255 255 255 255 255 255 255 255 255 255 255 255 255 255 255
255 255 255 255 255 255 255 255 255 255 255 255 255 255 255 255 255 255
255 255 255 255 255 255 255 255 255 255 255 255 255 255 255 255 255 255 255 255 255 255
255 255 255 255 255 255 255 255 255 255 255 255 255 255 255 255 255 255 255 255 255 255
255 255 255 255 255 255 255 255 255 255 255 255 255 255 255 255 255 255 255 255 255 255
255 255 255 255 255 255 255 255 255 255 255 255 255 255 255 255 255 255 255 255 255 255
255 255 255 255 255 255 255 255 255 255 255 255 255 255 255 255 255 255 255 255 255 255
255 255 255 255 255 255 255 255 255 255 255 255 255 255 255 255 255 255 255 255 255 255
255 255 255 255 255 255 255 255 255 255 255 255 255 255 255 255 255 255
255 255 255 255 255 255 255 255 255 255 255 255 255 255 255 255 255 255 255 255 255 255
255 255 255 255 255 255 255 255 255 255 255 255 255 255 255 255 255 255 255 255 255 255
255 255 255 255 255 255 255 255 255 255 255 255 255 255 255 255 255 255 255 255 255 255
255 255 255 255 255 255 255 255 255 255 255 255 255 255 255 255 255 255 255 255 255 255
255 255 255 255 255 255 255 255 255 255 255 255 255 255 255 255 255 255 255 255 255 255
255 255 255 255 255 255 255 255 255 255 255 255 255 255 255 255 255 255 255 255 255 255
255 255 255 255 255 255 255 255 255 255 255 255 255 255 255 255 255 255
255 255 255 255 255 255 255 255 255 255 255 255 255 255 255 255 255 255 255 255 255 255
255 255 255 255 255 255 255 255 255 255 255 255 255 255 255 255 255 255 255 255 255 255
255 255 255 255 255 255 255 255 255 255 255 255 255 255 255 255 255 255 255 255 255 255
255 255 255 255 255 255 255 255 255 255 255 255 255 255 255 255 255 255 255 255 255 255
255 255 255 255 255 255 255 255 255 255 255 255 255 255 255 255 255 255 255 255 255 255
255 255 255 255 255 255 255 255 255 255 255 255 255 255 255 255 255 255 255 255 255 255
255 255 255 255 255 255 255 255 255 255 255 255 255 255 255 255 255 255
255 255 255 255 255 255 255 255 255 255 255 255 255 255 255 255 255 255 255 255 255 255
255 255 255 255 255 255 255 255 255 255 255 255 255 255 255 255 255 255 255 255 255 255
255 255 255 255 255 255 255 255 255 255 255 255 255 255 255 255 255 255 255 255 255 255
255 255 255 255 255 255 255 255 255 255 255 255 255 255 255 255 255 255 255 255 255 255
255 255 255 255 255 255 255 255 255 255 255 255 255 255 255 255 255 255 255 255 255 255
255 255 255 255 255 255 255 255 255 255 255 255 255 255 255 255 255 255 255 255 255 255
255 255 255 255 255 255 255 255 255 255 255 255 255 255 255 255 255 255
255 255 255 255 255 255 255 255 255 255 255 255 255 255 255 255 255 255 255 255 255 255
255 255 255 255 255 255 255 255 255 255 255 255 255 255 255 255 255 255 255 255 255 255
255 255 255 255 255 255 255 255 255 255 255 255 255 255 255 255 255 255 255 255 255 255
255 255 255 255 255 255 255 255 255 255 255 255 255 255 255 255 255 255 255 255 255 255
255 255 255 255 255 255 255 255 255 255 255 244 254 236 244 254 236 244 253 237 244 253
237 244 254 238 244 254 237 252 255 250 255 255 255 255 255 255 255 255 255 255 255 255
255 255 255 255 255 255 255 255 255 255 255 255 255 255 255 255 255 255
255 255 255 255 255 255 255 255 255 255 255 255 255 255 255 255 255 255 255 255 255 255
255 255 255 255 255 255 255 255 255 255 255 255 255 255 255 255 255 255 255 255 255 255
255 255 255 255 255 255 255 255 255 255 255 255 255 255 255 255 255 255 255 255 255 255
255 255 255 255 255 255 255 255 255 255 255 255 255 255 255 255 255 255 255 255 255 255
255 255 255 255 255 255 255 255 250 255 246 187 185 134 175 176 114 174 177 116 174 179
120 167 178 115 176 191 134 241 251 238 255 255 255 255 255 255 255 255 255 255 255 255
255 255 255 255 255 255 255 255 255 255 255 255 255 255 255 255 255 255
255 255 255 255 255 255 255 255 255 255 255 255 255 255 255 255 255 255 255 255 255 255
255 255 255 255 255 255 255 255 255 255 255 255 255 255 255 255 255 255 255 255 255 255
255 255 255 255 255 255 255 255 255 255 255 255 255 253 253 250 253 252 249 253 252 249
253 252 248 253 252 247 254 254 252 255 255 255 255 255 255 255 255 255 255 255 255 255
255 255 255 255 255 251 255 242 245 252 233 187 178 124 191 173 125 192 174 127 192 174
127 190 173 126 163 169  97 242 248 235 254 255 253 254 255 254 255 255 255 255 255 255
255 255 255 255 255 255 255 255 255 255 255 255 255 255 255 255 255 255
255 255 255 255 255 255 255 255 255 255 255 255 255 255 255 255 255 255 255 255 255 255
255 255 255 255 255 255 255 255 255 255 255 255 255 255 255 255 255 255 255 255 255 255
255 255 255 255 226 218 166 207 188 106 209 192 129 205 188 136 203 186 141 200 185 141
202 187 144 194 179 131 242 241 208 255 255 255 255 255 255 255 255 255 255 255 255 255
255 255 252 253 236 195 180 142 196 191 143 206 189 133 211 191 138 211 191 138 211 191
138 211 192 139 212 192 139 185 193 141 184 194 142 252 254 250 255 255 255 255 255 255
255 255 255 255 255 255 255 255 255 255 255 255 255 255 255 255 255 255
255 255 255 255 255 255 255 255 255 255 255 255 255 255 255 255 255 255 255 255 255 255
255 255 255 255 255 255 255 255 255 255 255 255 255 255 255 255 255 255 255 255 255 255
254 253 252 250 212 196 142 185 166 112 190 172 125 188 171 122 188 171 122 188 170 121
190 173 127 182 162 102 232 229 203 255 255 245 255 255 248 255 255 255 255 255 255 255
255 255 251 252 234 185 166 112 193 176 127 214 193 139 214 194 139 214 193 139 214 193
139 215 194 140 215 195 140 194 176 128 160 155  83 251 252 247 255 255 254 255 255 254
255 255 255 255 255 255 255 255 255 255 255 255 255 255 255 255 255 255
255 255 255 255 255 255 255 255 255 255 255 255 255 255 255 255 255 255 255 255 255 255
255 255 255 255 255 255 255 255 255 255 255 255 255 255 232 218 178 223 206 151 221 203
154 210 195 157 218 201 156 221 202 156 212 193 141 210 190 137 210 190 139 210 190 138
210 190 139 211 190 136 208 192 154 199 185 151 234 231 208 255 255 254 255 255 255 255
255 255 252 252 239 187 170 121 196 178 133 213 193 139 212 192 139 214 194 140 211 190
137 117 105  74  86  78  53 196 177 129 214 194 140 194 196 149 194 196 155 249 252 241
255 255 255 255 255 255 255 255 255 255 255 255 255 255 255 255 255 255
255 255 255 255 255 255 255 255 255 255 255 255 255 255 255 255 255 255 255 255 255 255
255 255 255 255 255 255 255 255 255 255 255 255 255 255 206 170  81 185 167 114 186 167
117 187 168 117 222 204 155 229 210 163 216 196 143 213 193 138 214 194 140 214 194 139
214 193 139 216 195 140 202 183 133 179 157  93 222 216 193 255 255 254 255 255 255 255
255 249 249 251 234 185 168 118 194 177 131 213 193 139 212 192 138 215 194 140 210 190
137  41  37  24   0   0   0 194 176 126 220 199 142 193 175 126 167 152  85 242 246 234
255 255 255 255 255 255 255 255 255 255 255 255 255 255 255 255 255 255
255 255 255 255 255 255 255 255 255 255 255 255 255 255 255 255 255 255 255 255 255 255
255 255 255 255 255 255 255 255 233 217 186 232 211 165 223 192 122 216 200 154 216 200
154 216 200 153 216 196 145 216 196 143 213 193 140 212 192 138 213 193 139 213 192 139
212 192 139 214 194 139 204 186 139 185 166 113 222 214 193 255 255 255 245 244 229 208
200 169 209 201 167 207 187 134 208 189 137 213 193 139 213 193 139 213 193 139 212 192
138 190 172 122 186 168 120 209 189 136 214 194 139 209 190 139 208 188 135 207 202 167
205 206 176 252 254 251 255 255 255 255 255 255 255 255 255 255 255 255
255 255 255 255 255 255 255 255 255 255 255 255 255 255 255 255 255 255 255 255 255 255
255 255 255 255 255 255 255 255 188 146  50 193 175 122 226 208 160 227 209 160 227 209
162 227 209 160 214 194 140 211 191 136 213 193 139 213 193 139 213 193 139 213 193 139
212 192 139 215 194 139 203 184 138 180 161 107 221 214 196 255 255 255 239 237 224 177
156  92 193 175 124 216 195 140 214 194 139 213 193 139 213 193 139 213 193 139 213 193
139 218 197 141 219 198 142 214 194 140 213 193 139 214 193 139 216 195 140 199 180 128
177 155  88 237 241 223 255 255 255 255 255 255 255 255 255 255 255 255
255 255 255 255 255 255 255 255 255 255 255 255 255 255 255 255 255 255 255 255 255 255
255 255 255 255 255 255 255 255 199 160  73 198 182 137 225 206 158 224 206 157 216 198
146 216 197 145 214 194 140 213 193 139 213 193 139 213 193 139 213 193 139 213 193 139
213 193 139 214 193 139 210 190 138 204 183 129 210 196 159 219 211 193 214 201 172 206
186 135 208 190 139 213 192 138 213 192 139 213 193 139 213 193 139 213 193 139 213 193
139 211 190 137 210 189 136 211 191 138 211 191 138 211 191 138 212 191 137 201 184 140
187 168 119 239 241 222 255 255 255 255 255 255 255 255 255 255 255 255
255 255 255 255 255 255 255 255 255 255 255 255 255 255 255 255 255 255 255 255 255 255
255 255 255 255 255 255 255 255 191 155  81 194 177 132 226 208 160 225 207 158 213 192
139 212 191 137 213 193 139 213 193 139 213 193 139 213 193 139 213 193 139 213 193 139
213 193 139 213 193 139 213 193 139 216 196 141 202 182 128 178 159 105 195 175 121 216
195 140 214 193 139 213 193 139 213 193 139 213 193 139 213 193 139 213 193 139 213 193
139 219 198 142 220 199 143 220 199 142 220 199 142 219 198 142 221 201 144 197 181 129
175 153  81 237 238 220 255 255 255 255 255 255 255 255 255 255 255 255
255 255 255 255 255 255 255 255 255 255 255 255 255 255 255 255 255 255 255 255 255 255
255 255 245 236 215 240 222 187 213 178 111 211 193 146 219 200 149 218 199 147 214 194
140 213 193 139 213 193 139 213 193 139 213 193 139 213 193 139 213 193 139 213 193 139
213 193 139 213 193 139 213 192 139 213 193 139 210 190 138 204 185 138 207 189 138 213
193 139 213 192 139 213 193 139 213 193 139 213 193 139 213 192 139 214 194 139 211 191
138 161 146 104 150 135  96 156 141 103 155 141 104 157 143 106 136 123  79 213 210 193
234 231 219 252 252 250 255 255 255 255 255 255 255 255 255 255 255 255
255 255 255 255 255 255 255 255 255 255 255 255 255 255 255 255 255 255 255 255 255 255
255 255 181 149  60 196 171 111 230 212 165 225 207 158 212 191 137 212 191 137 213 193
139 213 193 139 213 193 139 213 193 139 213 193 139 213 193 139 213 193 139 213 193 139
213 193 139 213 193 139 213 193 139 213 193 139 214 193 139 215 195 140 214 194 139 213
193 139 213 193 139 213 193 139 213 193 139 213 193 139 212 192 138 215 194 140 210 189
136   0   0   0   0   0   0   1   1   1   1   1   1   1   1   1   1   1   1 226 223 219
255 255 255 255 255 255 255 255 255 255 255 255 255 255 255 255 255 255
255 255 255 255 255 255 255 255 255 255 255 255 255 255 255 255 255 255 251 247 236 242
228 189 210 181 115 211 193 148 220 201 150 218 199 148 213 193 139 213 193 139 213 193
139 213 193 139 213 193 139 213 193 139 213 193 139 213 193 139 213 193 139 213 193 139
213 193 139 213 193 139 213 193 139 213 193 139 213 193 139 213 192 139 213 192 139 213
193 139 213 193 139 213 193 139 213 193 139 213 193 139 212 192 139 214 193 139 211 190
138 148 134 101 127 113  81 181 174 163 192 184 175 196 188 179 193 184 182 255 255 255
255 255 255 255 255 255 255 255 255 255 255 255 255 255 255 255 255 255
255 255 255 255 255 255 255 255 255 255 255 255 255 255 255 253 251 244 176 153  77 202
182 127 231 213 165 224 205 156 211 191 136 212 192 137 213 193 139 213 193 139 213 193
139 213 193 139 213 193 139 213 193 139 213 193 139 213 193 139 213 193 139 213 193 139
213 193 139 213 193 139 213 193 139 213 193 139 213 193 139 213 193 139 213 193 139 213
193 139 213 193 139 213 193 139 213 193 139 213 193 139 213 193 139 215 194 140 214 194
140 194 175 120 190 169 114 249 247 245 255 255 255 255 255 255 255 255 255 255 255 255
255 255 255 255 255 255 255 255 255 255 255 255 255 255 255 255 255 255
255 255 255 255 255 255 255 255 255 255 255 255 255 255 255 249 244 225 185 167 115 203
186 141 222 203 153 219 199 149 213 193 139 213 193 139 213 193 139 213 193 139 213 193
139 213 193 139 213 193 139 213 193 139 213 193 139 213 193 139 213 193 139 213 193 139
213 193 139 213 193 139 213 193 139 213 193 139 213 193 139 213 193 139 213 193 139 213
193 139 213 193 139 213 193 139 213 193 139 213 193 139 212 192 139 206 187 135 206 188
138 225 209 178 236 219 191 250 247 242 255 255 255 255 255 255 255 255 255 255 255 255
255 255 255 255 255 255 255 255 255 255 255 255 255 255 255 255 255 255
255 255 255 255 255 255 255 255 255 255 255 255 255 255 255 247 240 211 184 165 110 200
182 135 213 193 137 212 192 138 213 193 139 213 193 139 213 193 139 213 193 139 213 193
139 213 193 139 213 193 139 213 193 139 213 193 139 213 193 139 213 193 139 213 193 139
213 193 139 213 193 139 213 193 139 213 193 139 213 193 139 213 193 139 213 193 139 213
193 139 213 193 139 213 193 139 213 193 139 214 193 139 211 191 139 189 172 124 192 176
134 255 255 251 255 255 255 255 255 255 255 255 255 255 255 255 255 255 255 255 255 255
255 255 255 255 255 255 255 255 255 255 255 255 255 255 255 255 255 255
255 255 255 255 255 255 255 255 255 255 255 255 255 255 255 248 241 210 184 165 110 200
182 135 215 194 139 213 193 139 213 193 139 213 193 139 213 193 139 213 193 139 213 193
139 213 193 139 213 193 139 213 192 139 213 193 139 213 193 139 213 193 139 213 192 139
213 193 139 213 193 139 213 193 139 213 193 139 213 193 139 213 193 139 213 193 139 213
193 139 213 193 139 213 193 139 213 192 139 213 193 139 211 191 139 193 175 128 194 178
138 255 255 252 255 255 255 255 255 255 255 255 255 255 255 255 255 255 255 255 255 255
255 255 255 255 255 255 255 255 255 255 255 255 255 255 255 255 255 255
255 255 255 255 255 255 255 255 255 255 255 255 255 255 255 249 243 210 184 165 110 200
182 135 214 194 139 213 193 139 213 193 139 213 193 139 213 193 139 213 193 139 213 193
139 213 193 139 214 193 139 214 194 139 214 194 139 214 194 139 214 194 139 214 194 139
213 193 139 213 193 139 213 193 139 213 193 139 213 193 139 213 193 139 213 193 139 213
193 139 213 193 139 213 193 139 213 193 139 215 194 140 212 192 139 187 169 116 203 179
126 255 255 250 255 255 255 255 255 255 255 255 255 255 255 255 255 255 255 255 255 255
255 255 255 255 255 255 255 255 255 255 255 255 255 255 255 255 255 255
255 255 255 255 255 255 255 255 255 255 255 255 255 255 255 251 247 212 185 166 113 200
183 137 214 193 139 212 192 139 213 193 139 213 193 139 213 193 139 213 193 139 213 193
139 213 192 139 211 191 139 211 191 139 211 191 139 211 191 139 211 191 139 211 191 139
212 192 139 213 193 139 213 193 139 213 193 139 213 193 139 213 193 139 213 193 139 213
193 139 213 193 139 213 193 139 212 192 139 211 191 139 211 191 142 202 188 154 249 248
222 254 255 243 255 255 255 255 255 255 255 255 255 255 255 255 255 255 255 255 255 255
255 255 255 255 255 255 255 255 255 255 255 255 255 255 255 255 255 255
255 255 255 255 255 255 255 255 255 255 255 255 255 255 255 251 247 214 180 161 102 199
180 132 215 194 139 213 193 139 213 193 139 213 193 139 213 193 139 213 193 139 214 193
139 213 193 139 192 174 124 187 170 121 189 171 122 188 171 122 189 171 122 187 169 121
205 185 133 216 195 140 213 193 139 213 193 139 213 193 139 213 193 139 213 193 139 213
193 139 213 192 139 215 194 140 211 190 139 187 167 115 196 181 142 255 255 254 255 255
255 255 255 255 255 255 255 255 255 255 255 255 255 255 255 255 255 255 255 255 255 255
255 255 255 255 255 255 255 255 255 255 255 255 255 255 255 255 255 255
255 255 255 255 255 255 255 255 255 255 255 255 255 255 255 250 249 219 195 177 127 211
195 139 212 192 139 212 192 140 213 193 139 213 193 139 213 193 139 213 193 139 212 192
140 211 192 140 199 184 143 197 182 144 198 183 144 197 182 144 198 183 144 196 182 144
206 189 141 213 193 139 212 192 139 213 193 139 213 193 139 213 193 139 213 193 139 213
193 139 212 192 139 212 192 139 211 191 142 195 179 139 231 224 185 255 255 255 255 255
255 255 255 255 255 255 255 255 255 255 255 255 255 255 255 255 255 255 255 255 255 255
255 255 255 255 255 255 255 255 255 255 255 255 255 255 255 255 255 255
255 255 255 255 255 255 255 255 255 255 255 255 255 255 255 255 255 253 255 255 248 253
249 220 184 165  96 197 179 131 214 193 139 213 193 139 214 193 139 211 192 139 192 174
124 193 176 130 249 246 232 254 254 249 253 253 248 254 254 251 253 251 251 255 255 254
216 208 186 184 164 107 205 186 137 215 194 139 213 192 139 213 193 139 213 192 139 215
194 140 209 190 139 187 168 115 203 190 156 255 255 254 255 255 255 255 255 255 255 255
255 255 255 255 255 255 255 255 255 255 255 255 255 255 255 255 255 255 255 255 255 255
255 255 255 255 255 255 255 255 255 255 255 255 255 255 255 255 255 255
255 255 255 255 255 255 255 255 255 255 255 255 255 255 255 255 255 255 255 255 255 254
252 227 195 178 112 203 190 128 202 186 108 212 192 139 214 193 139 212 192 140 193 176
131 197 179 135 255 254 251 255 255 255 255 255 255 255 255 255 255 255 255 255 255 255
223 212 193 185 167 115 206 187 140 215 194 139 213 192 139 213 193 139 212 192 139 214
194 140 209 190 141 188 170 122 215 201 168 255 255 255 255 255 255 255 255 255 255 255
255 255 255 255 255 255 255 255 255 255 255 255 255 255 255 255 255 255 255 255 255 255
255 255 255 255 255 255 255 255 255 255 255 255 255 255 255 255 255 255
255 255 255 255 255 255 255 255 255 255 255 255 255 255 255 255 255 255 255 255 255 255
255 253 255 255 249 254 251 230 186 171 105 198 180 134 212 191 134 217 198 149 251 251
233 254 253 245 255 255 255 255 255 255 255 255 255 255 255 255 255 255 255 255 255 255
255 255 254 252 252 252 230 221 198 210 188 125 214 194 141 214 194 139 208 189 139 188
169 117 210 197 167 255 255 251 255 255 255 255 255 255 255 255 255 255 255 255 255 255
255 255 255 255 255 255 255 255 255 255 255 255 255 255 255 255 255 255 255 255 255 255
255 255 255 255 255 255 255 255 255 255 255 255 255 255 255 255 255 255
255 255 255 255 255 255 255 255 255 255 255 255 255 255 255 255 255 255 255 255 255 255
255 255 255 255 255 255 255 242 184 170 102 194 177 133 211 190 134 220 202 150 255 255
253 255 255 255 255 255 255 255 255 255 255 255 255 255 255 255 255 255 255 255 255 255
255 255 255 255 255 255 235 227 208 209 187 122 214 194 142 215 195 139 207 188 138 181
162 106 217 207 177 255 255 255 255 255 255 255 255 255 255 255 255 255 255 255 255 255
255 255 255 255 255 255 255 255 255 255 255 255 255 255 255 255 255 255 255 255 255 255
255 255 255 255 255 255 255 255 255 255 255 255 255 255 255 255 255 255
255 255 255 255 255 255 255 255 255 255 255 255 255 255 255 255 255 255 255 255 255 255
255 255 255 255 255 255 255 243 185 173  99 195 178 133 211 190 134 224 206 149 255 255
253 255 255 255 255 255 255 255 255 255 255 255 255 255 255 255 255 255 255 255 255 255
255 255 255 255 255 255 240 235 213 211 188 122 208 190 142 190 171 116 214 203 175 255
255 253 255 255 255 255 255 255 255 255 255 255 255 255 255 255 255 255 255 255 255 255
255 255 255 255 255 255 255 255 255 255 255 255 255 255 255 255 255 255 255 255 255 255
255 255 255 255 255 255 255 255 255 255 255 255 255 255 255 255 255 255
255 255 255 255 255 255 255 255 255 255 255 255 255 255 255 255 255 255 255 255 255 255
255 255 255 255 255 255 255 246 186 172 104 195 178 133 211 190 134 224 206 149 255 255
253 255 255 255 255 255 255 255 255 255 255 255 255 255 255 255 255 255 255 255 255 255
255 255 255 255 255 255 239 234 215 211 188 122 206 189 142 181 162 108 216 206 185 255
255 255 255 255 255 255 255 255 255 255 255 255 255 255 255 255 255 255 255 255 255 255
255 255 255 255 255 255 255 255 255 255 255 255 255 255 255 255 255 255 255 255 255 255
255 255 255 255 255 255 255 255 255 255 255 255 255 255 255 255 255 255
255 255 255 255 255 255 255 255 255 255 255 255 255 255 255 255 255 255 255 255 255 255
255 255 255 255 255 255 255 245 187 171 112 195 178 133 211 190 134 222 205 149 255 255
253 255 255 255 255 255 255 255 255 255 255 255 255 255 255 255 255 255 255 255 255 255
255 255 255 255 255 255 236 230 209 211 188 122 206 189 142 184 165 110 215 206 183 255
255 255 255 255 255 255 255 255 255 255 255 255 255 255 255 255 255 255 255 255 255 255
255 255 255 255 255 255 255 255 255 255 255 255 255 255 255 255 255 255 255 255 255 255
255 255 255 255 255 255 255 255 255 255 255 255 255 255 255 255 255 255
255 255 255 255 255 255 255 255 255 255 255 255 255 255 255 255 255 255 255 255 255 255
255 255 255 255 255 255 255 242 187 171 117 195 178 133 211 190 134 222 204 148 255 255
253 255 255 255 255 255 255 255 255 255 255 255 255 255 255 255 255 255 255 255 255 255
255 255 255 255 255 255 236 230 209 211 188 122 206 189 142 183 164 110 215 206 183 255
255 255 255 255 255 255 255 255 255 255 255 255 255 255 255 255 255 255 255 255 255 255
255 255 255 255 255 255 255 255 255 255 255 255 255 255 255 255 255 255 255 255 255 255
255 255 255 255 255 255 255 255 255 255 255 255 255 255 255 255 255 255
255 255 255 255 255 255 255 255 255 255 255 255 255 255 255 255 255 255 255 255 255 255
255 255 255 255 255 255 255 240 188 170 121 195 178 133 211 190 134 220 202 151 255 255
253 255 255 255 255 255 255 255 255 255 255 255 255 255 255 255 255 255 255 255 255 255
255 255 255 255 255 255 239 236 212 211 188 122 206 189 142 184 165 110 215 206 183 255
255 254 255 255 255 255 255 255 255 255 255 255 255 255 255 255 255 255 255 255 255 255
255 255 255 255 255 255 255 255 255 255 255 255 255 255 255 255 255 255 255 255 255 255
255 255 255 255 255 255 255 255 255 255 255 255 255 255 255 255 255 255
255 255 255 255 255 255 255 255 255 255 255 255 255 255 255 255 255 255 255 255 255 255
255 255 255 255 255 254 254 236 186 168 119 193 176 132 211 190 134 216 199 153 255 255
253 255 255 255 255 255 255 255 255 255 255 255 255 255 255 255 255 255 255 255 255 255
255 255 255 255 255 255 242 239 211 211 188 122 205 188 141 181 162 108 217 209 186 255
255 253 255 255 255 255 255 255 255 255 255 255 255 255 255 255 255 255 255 255 255 255
255 255 255 255 255 255 255 255 255 255 255 255 255 255 255 255 255 255 255 255 255 255
255 255 255 255 255 255 255 255 255 255 255 255 255 255 255 255 255 255
255 255 255 255 255 255 255 255 255 255 255 255 255 255 255 255 255 255 255 255 255 255
255 255 255 255 255 255 255 235 201 182 131 206 187 140 211 190 134 216 198 152 255 255
253 255 255 255 255 255 255 255 255 255 255 255 255 255 255 255 255 255 255 255 255 255
255 255 255 255 255 255 241 236 210 211 189 127 211 193 145 197 176 117 238 236 202 255
255 255 255 255 255 255 255 255 255 255 255 255 255 255 255 255 255 255 255 255 255 255
255 255 255 255 255 255 255 255 255 255 255 255 255 255 255 255 255 255 255 255 255 255
255 255 255 255 255 255 255 255 255 255 255 255 255 255 255 255 255 255
255 255 255 255 255 255 255 255 255 255 255 255 255 255 255 255 255 255 255 255 255 255
255 255 255 255 255 255 254 233 210 186 117 212 190 131 213 192 134 218 200 154 255 255
253 255 255 255 255 255 255 255 255 255 255 255 255 255 255 255 255 255 255 255 255 255
255 255 255 255 255 255 234 225 202 205 180 103 214 194 140 211 188 124 251 251 210 255
255 255 255 255 255 255 255 255 255 255 255 255 255 255 255 255 255 255 255 255 255 255
255 255 255 255 255 255 255 255 255 255 255 255 255 255 255 255 255 255 255 255 255 255
255 255 255 255 255 255 255 255 255 255 255 255 255 255 255 255 255 255
255 255 255 255 255 255 255 255 255 255 255 255 255 255 255 255 255 255 255 255 255 255
255 255 255 255 255 255 255 246 248 241 190 238 228 182 206 186 136 209 191 146 245 239
213 249 243 223 255 255 255 255 255 255 255 255 255 255 255 255 255 255 255 255 255 255
255 255 255 255 255 255 246 242 234 233 223 193 231 222 177 211 189 127 243 239 189 254
253 250 255 255 255 255 255 255 255 255 255 255 255 255 255 255 255 255 255 255 255 255
255 255 255 255 255 255 255 255 255 255 255 255 255 255 255 255 255 255 255 255 255 255
255 255 255 255 255 255 255 255 255 255 255 255 255 255 255 255 255 255
255 255 255 255 255 255 255 255 255 255 255 255 255 255 255 255 255 255 255 255 255 255
255 255 255 255 255 255 255 255 255 255 255 255 255 240 184 166 115 186 167 112 205 180
108 208 185 116 254 253 249 255 255 255 255 255 255 255 255 255 255 255 255 255 255 255
255 255 255 255 255 255 255 255 255 255 255 255 246 242 221 208 183 109 203 182 126 172
147  61 215 213 160 255 255 255 255 255 255 255 255 255 255 255 255 255 255 255 255 255
255 255 255 255 255 255 255 255 255 255 255 255 255 255 255 255 255 255 255 255 255 255
255 255 255 255 255 255 255 255 255 255 255 255 255 255 255 255 255 255
255 255 255 255 255 255 255 255 255 255 255 255 255 255 255 255 255 255 255 255 255 255
255 255 255 255 255 255 255 255 255 255 255 255 255 255 220 211 173 214 204 179 226 214
184 229 215 188 255 255 253 255 255 255 255 255 255 255 255 255 255 255 255 255 255 255
255 255 255 255 255 255 255 255 255 255 255 255 255 254 250 234 224 181 230 239 191 218
231 186 255 255 255 255 255 255 255 255 255 255 255 255 255 255 255 255 255 255 255 255
255 255 255 255 255 255 255 255 255 255 255 255 255 255 255 255 255 255 255 255 255 255
255 255 255 255 255 255 255 255 255 255 255 255 255 255 255 255 255 255
255 255 255 255 255 255 255 255 255 255 255 255 255 255 255 255 255 255 255 255 255 255
255 255 255 255 255 255 255 255 255 255 255 255 255 255 255 255 255 255 255 252 255 255
249 255 255 252 255 255 255 255 255 255 255 255 255 255 255 255 255 255 255 255 255 255
255 255 255 255 255 255 255 255 255 255 255 255 255 255 255 255 255 255 255 255 255 255
255 255 255 255 255 255 255 255 255 255 255 255 255 255 255 255 255 255 255 255 255 255
255 255 255 255 255 255 255 255 255 255 255 255 255 255 255 255 255 255 255 255 255 255
255 255 255 255 255 255 255 255 255 255 255 255 255 255 255 255 255 255
255 255 255 255 255 255 255 255 255 255 255 255 255 255 255 255 255 255 255 255 255 255
255 255 255 255 255 255 255 255 255 255 255 255 255 255 255 255 255 255 255 255 255 255
255 255 255 255 255 255 255 255 255 255 255 255 255 255 255 255 255 255 255 255 255 255
255 255 255 255 255 255 255 255 255 255 255 255 255 255 255 255 255 255 255 255 255 255
255 255 255 255 255 255 255 255 255 255 255 255 255 255 255 255 255 255 255 255 255 255
255 255 255 255 255 255 255 255 255 255 255 255 255 255 255 255 255 255 255 255 255 255
255 255 255 255 255 255 255 255 255 255 255 255 255 255 255 255 255 255
255 255 255 255 255 255 255 255 255 255 255 255 255 255 255 255 255 255 255 255 255 255
255 255 255 255 255 255 255 255 255 255 255 255 255 255 255 255 255 255 255 255 255 255
255 255 255 255 255 255 255 255 255 255 255 255 255 255 255 255 255 255 255 255 255 255
255 255 255 255 255 255 255 255 255 255 255 255 255 255 255 255 255 255 255 255 255 255
255 255 255 255 255 255 255 255 255 255 255 255 255 255 255 255 255 255 255 255 255 255
255 255 255 255 255 255 255 255 255 255 255 255 255 255 255 255 255 255 255 255 255 255
255 255 255 255 255 255 255 255 255 255 255 255 255 255 255 255 255 255
255 255 255 255 255 255 255 255 255 255 255 255 255 255 255 255 255 255 255 255 255 255
255 255 255 255 255 255 255 255 255 255 255 255 255 255 255 255 255 255 255 255 255 255
255 255 255 255 255 255 255 255 255 255 255 255 255 255 255 255 255 255 255 255 255 255
255 255 255 255 255 255 255 255 255 255 255 255 255 255 255 255 255 255 255 255 255 255
255 255 255 255 255 255 255 255 255 255 255 255 255 255 255 255 255 255 255 255 255 255
255 255 255 255 255 255 255 255 255 255 255 255 255 255 255 255 255 255 255 255 255 255
255 255 255 255 255 255 255 255 255 255 255 255 255 255 255 255 255 255
255 255 255 255 255 255 255 255 255 255 255 255 255 255 255 255 255 255 255 255 255 255
255 255 255 255 255 255 255 255 255 255 255 255 255 255 255 255 255 255 255 255 255 255
255 255 255 255 255 255 255 255 255 255 255 255 255 255 255 255 255 255 255 255 255 255
255 255 255 255 255 255 255 255 255 255 255 255 255 255 255 255 255 255 255 255 255 255
255 255 255 255 255 255 255 255 255 255 255 255 255 255 255 255 255 255 255 255 255 255
255 255 255 255 255 255 255 255 255 255 255 255 255 255 255 255 255 255 255 255 255 255
255 255 255 255 255 255 255 255 255 255 255 255 255 255 255 255 255 255
255 255 255 255 255 255 255 255 255 255 255 255 255 255 255 255 255 255 255 255 255 255
255 255 255 255 255 255 255 255 255 255 255 255 255 255 255 255 255 255 255 255 255 255
255 255 255 255 255 255 255 255 255 255 255 255 255 255 255 255 255 255 255 255 255 255
255 255 255 255 255 255 255 255 255 255 255 255 255 255 255 255 255 255 255 255 255 255
255 255 255 255 255 255 255 255 255 255 255 255 255 255 255 255 255 255 255 255 255 255
255 255 255 255 255 255 255 255 255 255 255 255 255 255 255 255 255 255 255 255 255 255
255 255 255 255 255 255 255 255 255 255 255 255 255 255 255 255 255 255
255 255 255 255 255 255 255 255 255 255 255 255 255 255 255 255 255 255 255 255 255 255
255 255 255 255 255 255 255 255 255 255 255 255 255 255 255 255 255 255 255 255 255 255
255 255 255 255 255 255 255 255 255 255 255 255 255 255 255 255 255 255 255 255 255 255
255 255 255 255 255 255 255 255 255 255 255 255 255 255 255 255 255 255 255 255 255 255
255 255 255 255 255 255 255 255 255 255 255 255 255 255 255 255 255 255 255 255 255 255
255 255 255 255 255 255 255 255 255 255 255 255 255 255 255 255 255 255 255 255 255 255
255 255 255 255 255 255 255 255 255 255 255 255 255 255 255 255 255 255
255 255 255 255 255 255 255 255 255 255 255 255 255 255 255 255 255 255 255 255 255 255
255 255 255 255 255 255 255 255 255 255 255 255 255 255 255 255 255 255 255 255 255 255
255 255 255 255 255 255 255 255 255 255 255 255 255 255 255 255 255 255 255 255 255 255
255 255 255 255 255 255 255 255 255 255 255 255 255 255 255 255 255 255 255 255 255 255
255 255 255 255 255 255 255 255 255 255 255 255 255 255 255 255 255 255 255 255 255 255
255 255 255 255 255 255 255 255 255 255 255 255 255 255 255 255 255 255 255 255 255 255
255 255 255 255 255 255 255 255 255 255 255 255 255 255 255 255 255 255
255 255 255 255 255 255 255 255 255 255 255 255 255 255 255 255 255 255 255 255 255 255
255 255 255 255 255 255 255 255 255 255 255 255 255 255 255 255 255 255 255 255 255 255
255 255 255 255 255 255 255 255 255 255 255 255 255 255 255 255 255 255 255 255 255 255
255 255 255 255 255 255 255 255 255 255 255 255 255 255 255 255 255 255 255 255 255 255
255 255 255 255 255 255 255 255 255 255 255 255 255 255 255 255 255 255 255 255 255 255
255 255 255 255 255 255 255 255 255 255 255 255 255 255 255 255 255 255 255 255 255 255
255 255 255 255 255 255 255 255 255 255 255 255 255 255 255 255 255 255
