P3
# 8-bit ppm - RGB
50 49
255
147 212 218  75 187 198  74 187 195  77 187 196  76 186 195  76 186 195  75 185 194  76
186 195  76 186 195  76 186 195  76 186 195  76 186 195  76 186 195  76 186 195  76 186
195  76 186 195  76 186 195  76 186 195  76 186 195  76 186 195  76 186 195  76 186 195
 76 186 195  76 186 195  76 186 195  76 186 195  76 186 195  76 186 195  76 186 195  76
186 195  76 186 195  76 186 195  76 186 195  76 186 195  76 186 195  76 186 195  76 186
195  76 186 195  76 186 195  76 186 195  76 186 195  76 186 197  76 186 195  76 186 195
 76 186 195  76 186 195  76 186 195  76 186 195  75 188 196 147 212 218
 76 186 195  74 187 195  76 186 195  77 185 195  76 186 195  76 186 195  76 186 195  76
186 195  76 186 195  76 186 195  76 186 195  76 186 195  76 186 195  76 186 195  76 186
195  76 186 195  76 186 195  76 186 195  76 186 195  76 186 195  76 186 195  76 186 195
 76 186 195  76 186 195  76 186 195  76 186 195  76 186 195  76 186 195  76 186 195  76
186 195  76 186 195  76 186 195  76 186 195  76 186 195  76 186 195  76 186 195  76 186
195  76 186 195  76 186 195  76 186 195  76 186 195  76 186 195  76 186 195  76 186 195
 76 186 195  76 186 195  76 186 195  76 186 195  74 187 195  77 185 195
 76 186 195  76 186 195  76 186 195  77 185 195  76 186 195  76 186 195  76 186 195  76
186 195  76 186 195  76 186 195  76 186 195  76 186 195  76 186 195  76 186 195  76 186
195  76 186 195  76 186 195  76 186 195  76 186 195  76 186 195  76 186 195  76 186 195
 76 186 195  76 186 195  76 186 195  76 186 195  76 186 195  76 186 195  76 186 195  76
186 195  76 186 195  76 186 195  76 186 195  76 186 195  76 186 195  76 186 195  76 186
195  76 186 195  76 186 195  76 186 195  76 186 195  76 186 195  76 186 195  76 186 195
 76 186 195  76 186 195  76 186 195  76 186 195  76 186 195  76 186 195
 77 186 193  74 187 195  76 186 195  76 186 197  76 186 195  76 186 197  76 186 195  76
186 195  76 186 195  76 186 195  76 186 195  76 186 195  76 186 195  76 186 195  76 186
195  76 186 195  76 186 195  76 186 195  76 186 195  76 186 195  76 186 195  76 186 195
 76 186 195  76 186 195  76 186 195  76 186 195  76 186 195  76 186 195  76 186 195  76
186 195  76 186 195  76 186 195  76 186 195  76 186 195  76 186 195  76 186 195  76 186
195  76 186 195  76 186 195  76 186 195  76 186 195  76 186 195  76 186 195  76 186 195
 76 186 195  76 186 195  76 186 197  76 186 195  74 187 195  78 184 195
 76 186 197  76 184 194  77 185 195  75 185 194  76 185 198  77 187 198  76 186 195  76
186 195  76 186 195  76 186 195  76 186 195  76 186 195  76 186 195  76 186 195  76 186
195  76 186 195  76 186 195  76 186 195  76 186 195  76 186 195  76 186 195  76 186 195
 76 186 195  76 186 195  76 186 195  76 186 195  76 186 195  76 186 195  76 186 195  76
186 195  76 186 195  76 186 195  76 186 195  76 186 195  76 186 195  76 186 195  76 186
195  76 186 195  76 186 195  76 186 195  76 186 197  76 186 195  76 186 195  76 186 195
 76 186 197  76 186 197  76 186 195  76 186 195  76 184 196  76 186 197
 76 186 193  76 186 195  76 186 195  76 186 195  77 187 198  76 186 195  76 186 195  76
186 195  76 186 195  76 186 195  76 186 195  76 186 195  76 186 195  76 186 195  76 186
195  76 186 195  76 186 195  76 186 195  76 186 195  76 186 195  76 186 195  76 186 195
 76 186 195  76 186 195  76 186 195  76 186 195  76 186 195  76 186 195  76 186 195  76
186 195  76 186 195  76 186 195  76 186 195  76 186 195  76 186 195  76 186 195  76 186
195  76 186 195  76 186 195  76 186 195  76 186 195  76 186 195  76 186 195  76 186 195
 76 186 197  76 186 197  76 186 195  76 186 195  76 186 195  76 186 195
 77 185 197  76 186 195  77 187 196  76 186 195  76 186 195  76 186 195  76 186 197  76
186 197  76 186 195  76 186 195  76 186 195  76 186 195  76 186 195  76 186 195  76 186
195  76 186 195  76 186 195  76 186 195  76 186 195  76 186 195  76 186 195  76 186 195
 76 186 195  76 186 195  76 186 195  76 186 195  76 186 195  76 186 195  76 186 195  76
186 195  76 186 195  76 186 195  76 186 195  76 186 195  76 186 195  76 186 195  76 186
195  76 186 195  76 186 195  76 186 195  76 186 195  76 186 195  76 186 195  76 186 195
 76 186 195  76 186 195  76 186 195  76 186 195  76 186 195  76 186 197
 77 183 194  75 185 194  76 186 195  77 187 196  76 186 197  77 187 196  76 186 195  76
186 195  76 186 195  76 186 195  76 186 195  76 186 195  76 186 195  76 186 195  76 186
195  76 186 195  76 186 195  76 186 195  76 186 195  76 186 195  76 186 195  76 186 195
 76 186 195  76 186 195  76 186 195  76 186 195  76 186 195  76 186 195  76 186 195  76
186 195  76 186 195  76 186 195  76 186 195  76 186 195  76 186 195  76 186 195  77 185
195  76 186 195  76 186 195  76 186 195  76 186 197  76 186 197  76 186 197  76 186 197
 76 186 195  76 186 195  76 186 195  76 186 197  76 186 195  76 186 195
 77 185 195  76 186 195  76 186 195  76 186 195  76 186 195  76 186 195  76 186 195  76
186 195  76 186 195  76 186 195  76 186 195  76 186 195  76 186 195  76 186 195  76 186
195  76 186 195  76 186 195  76 184 194  76 186 195  76 186 195  77 187 196  75 188 196
 76 186 197  76 186 195  77 187 196  76 186 195  77 187 196  76 186 195  76 186 195  77
185 195  76 186 195  77 187 196  74 187 195  76 186 195  76 186 197  76 186 195  78 187
194  81 185 194  77 186 193  76 185 192  77 185 195  76 186 195  76 186 195  76 186 195
 76 186 195  76 186 195  76 186 197  76 186 197  76 186 195  76 186 195
 77 185 195  76 186 195  76 186 195  76 186 195  76 186 195  76 186 195  76 186 195  76
186 195  76 186 195  76 186 195  76 186 195  76 186 195  76 186 195  76 186 195  76 186
195  76 186 195  76 186 195  76 186 195  77 185 195  76 186 195  77 187 196  79 187 199
 77 187 196  76 186 195  77 187 196  77 185 195  76 186 195  76 186 195  76 186 195  76
186 195  75 185 194  76 186 195  76 186 195  77 187 196  76 186 195  77 187 194  66 184
193  52 185 200  77 191 201  73 191 201  76 190 201  77 185 195  77 188 192  76 186 197
 76 186 195  76 186 195  76 186 195  76 186 195  76 186 195  74 187 195
 76 186 195  76 186 195  76 186 195  76 186 195  76 186 195  76 186 195  76 186 195  76
186 195  76 186 195  76 186 195  76 186 195  76 186 195  76 186 195  76 186 195  76 186
195  75 188 196  76 186 193  77 187 196  76 186 197  77 185 195  76 184 194  77 185 195
 78 190 201  79 187 197  77 186 193  72 185 193  76 186 195  76 186 195  76 186 195  77
185 195  77 187 196  76 186 195  76 186 195  76 186 195  80 186 197  54 182 193 131 200
205 167 182 175  66 111 108  93 136 129  85 147 144  81 183 193  82 189 197  78 188 195
 79 183 192  79 186 194  79 185 196  76 186 195  75 185 192  77 187 196
 77 185 195  76 186 195  76 186 195  76 186 195  74 187 195  76 186 195  76 186 195  76
186 195  76 186 195  76 186 195  76 186 195  76 186 195  76 186 195  76 186 195  76 186
195  73 186 194  76 186 195  76 186 195  76 186 195  76 186 195  78 187 194  82 189 197
 92 177 179  89 184 188  76 188 200  92 191 197  77 187 196  75 185 196  75 188 196  79
187 199  76 186 195  77 187 196  77 186 193  76 186 193  77 186 193  68 187 201 102 180
182 132  91  38  89   1   0 105  37   0 103  21   0  84  90  78  87 133 120  92 161 156
 66 194 205  66 188 201  62 186 196  77 185 197  77 187 198  74 187 195
 74 187 195  76 186 195  76 186 195  76 186 195  76 186 195  76 186 195  76 186 195  76
186 195  76 186 195  76 186 195  76 186 195  76 186 195  76 186 195  76 186 195  76 186
195  75 188 196  74 187 195  76 185 198  74 187 195  77 184 192  72 188 199 105 173 173
148 120  72 143 134 103 101 163 158 109 194 196 126 204 208  78 186 196  76 186 195  76
186 197  76 186 195  77 187 196  76 186 195  76 186 197  76 185 192  78 188 199 131 148
129 148 104  44 149 108  65 129  91  46 134 100  72 142 105  76 132  84   2 151 129  90
117 153 143 129 165 153 136 196 194  78 192 200  74 188 198  78 186 196
 76 186 195  76 186 195  76 186 195  76 186 195  76 186 195  76 186 195  76 186 195  76
186 195  76 186 195  76 186 195  76 186 195  76 186 195  76 186 195  76 186 195  76 186
195  75 185 194  76 186 193  76 186 195  82 186 195  73 190 199  81 179 180 146 130  96
167 126  72 164 123  70 162 126  76 114 142 119 136 198 197 109 197 206  70 184 194  76
186 193  76 186 195  76 186 195  76 186 197  76 186 197  77 185 195  70 187 196 149 134
 95 193 149  88 195 149  98 189 149 100 145 120 102 140 115  93 194 161 116 190 147  95
187 139  73 175 140  74 161 142 100 134 143 124  93 176 182  76 184 194
 74 187 195  76 186 195  76 186 195  76 186 195  76 186 195  76 186 195  76 186 195  76
186 195  76 186 195  76 186 195  76 186 195  76 186 195  76 186 195  76 186 195  76 186
195  77 185 195  77 185 195  78 187 194  74 190 201  94 172 176 149 135  98 166 119  73
165 124  81 167 128  85 162 125  81 166 117  59 118 145 128  72 186 197  79 187 197  78
184 195  76 186 195  76 186 197  76 186 195  77 187 196  78 184 195  80 188 198 142 133
100 185 145  84 190 149  96 196 157 114 114  93  74  67  49  27 191 154 112 195 152 102
195 149 100 192 150 100 185 148  96 152 116  66 156 119  51 108 161 151
 76 186 195  76 186 195  76 186 195  76 186 195  76 186 195  76 186 195  76 186 195  76
186 195  76 186 195  76 186 195  76 186 195  77 185 195  76 186 195  76 186 195  76 186
195  78 184 195  74 188 198  83 186 193 120 140 128 153 122  78 166 120  69 175 133  87
190 144  95 192 145 101 179 137  91 168 130  85 163 116  62 135 140 116  79 184 188  73
187 198  78 185 193  76 186 197  76 186 195  78 185 193  68 190 201 109 161 159 172 133
 74 194 152  96 192 149  99 190 148  98 191 154 112 186 149 105 190 147  97 194 148  99
193 147  96 187 144  92 193 151 103 167 129  82 173 141  92 137 109  25
 76 186 195  76 186 195  76 186 197  76 186 195  76 186 195  74 187 195  76 186 195  76
186 195  76 186 195  76 186 195  76 186 195  77 185 195  76 185 198  76 184 194  82 186
195  72 190 200  99 190 195 129 131 107 159 115  55 168 125  82 186 143 100 196 150  98
195 147  97 196 150 101 194 151 101 187 145  97 176 135  91 161 115  56 134 133 102  88
176 178  72 188 199  81 185 194  81 185 194  75 187 198  75 183 195 150 141 112 192 145
 89 195 149  98 195 149 100 194 148  97 193 147  96 202 152 102 193 148  93 194 152 102
189 149  96 176 137  82 175 135  86 189 148 102 172 140  93 157 165 140
 77 187 196  75 185 194  76 186 195  74 186 197  76 186 195  76 186 195  76 186 195  77
187 196  79 188 195  79 186 194  79 186 194  82 186 197  77 187 194  72 185 191  90 192
202 136 188 186 143 134 105 156 113  45 177 136  92 194 147 101 196 150  99 193 146  94
191 149  93 193 147  95 194 148  96 195 152 100 191 148  98 183 142  98 169 127  69 135
124  78  90 171 172  67 191 203  65 189 201  79 187 197 130 139 120 189 140  81 190 152
105 192 149  99 190 149  95 190 149  95 191 148  98 193 146 100 189 148  95 182 140  82
178 138  87 180 142  97 176 135  82 153 114  49 151 120  73 147 201 201
 76 186 195  77 187 196  75 185 194  78 186 196  76 186 197  77 185 195  77 185 197  73
186 194  58 186 197  60 188 199  54 186 199  49 183 194  69 183 194  89 196 204 143 183
174 159 127  86 164 122  64 184 143  99 199 148 103 194 148  96 193 146  92 195 149  98
197 151  99 194 148  96 193 146  94 194 148  96 196 148  98 196 150  98 191 149  99 181
140  87 147 123  77 113 162 156 112 176 178 140 154 131 183 144  87 194 151 101 192 149
 97 191 149  99 194 151  99 194 148  97 192 149  99 187 147  98 169 133  85 138 151 134
169 186 176 184 196 184 138 162 149 118 145 130 120 170 169  97 195 206
 74 186 197  76 186 193  77 187 196  76 186 195  76 186 193  78 186 196  72 185 193  92
192 200 152 197 192 149 170 155 171 186 167 182 214 209  87 194 202 185 205 193 162 133
 93 178 137  84 193 152  99 196 150 101 191 145  94 189 148  94 194 153  99 192 146  94
193 146  94 194 149  94 195 149  97 192 146  97 189 148  95 197 149  99 196 148 100 196
149 103 189 149  98 180 136  76 172 131  77 178 137  81 189 148  95 194 146  96 192 151
 98 192 149  99 193 147  95 191 148  95 194 151  99 169 128  72 160 164 139  99 198 203
 49 187 197  39 184 195  65 189 201  72 189 204  69 189 198  74 184 191
 77 186 193  76 186 195  75 185 192  77 187 194  79 185 196  69 183 193  89 192 199 148
167 148 161 134  83 171 141  81 173 139  76 156 138 100 196 184 158 174 145 113 183 143
 82 193 150 100 197 149 103 191 148  95 194 148  96 194 148  99 192 146  97 198 147 100
194 146  98 192 146  97 194 148  97 191 150  94 193 147  96 194 148  97 194 146  96 195
147  99 195 147  99 192 152  99 192 150 100 195 149 100 195 152 100 190 148  98 194 148
 96 193 147  96 193 147  95 196 153 101 184 140  80 131 130 102  83 183 189  84 186 198
 81 185 196  83 185 195  78 184 195  77 186 191  78 186 196  78 187 194
 82 186 195  76 184 194  80 187 193  83 185 195  68 185 194  99 197 206 123 162 155 163
123  51 168 134  70 148 119  54 156 129  62 174 135  76 174 131  63 175 136  79 190 149
 96 193 150  97 193 145  95 194 148  97 195 149 100 196 148  98 194 148  96 194 148  97
194 148  97 194 148  97 194 148  97 195 147  99 194 148  96 197 149 101 194 147  95 194
146  96 194 146  96 197 147  97 192 149  97 192 146  95 196 148  98 193 147  98 194 147
101 192 146  94 200 155 100 187 143  98 153 120  67  94 175 176  71 187 198  76 184 194
 79 185 196  77 185 197  76 186 195  77 187 196  78 186 196  77 185 197
 46 186 196  74 192 202  59 186 201  19 184 198 107 180 184 160 160 126 150 119  63 166
131  73 172 185 175 100 187 194  81 180 186 103 176 180 148 131 101 189 148  94 192 149
 97 194 151 101 195 148  96 192 149  97 193 147  96 194 148  97 194 148  97 194 148  96
192 149  97 194 148  97 195 149  98 194 148  97 195 148  96 193 145  95 193 146  94 195
147  97 195 147  97 195 149  98 192 149  97 195 149  98 188 145  92 194 147  93 196 149
 95 195 149 100 187 150 105 164 120  59 151 141 116 110 197 204  71 185 193  77 185 195
 78 186 196  76 186 195  76 186 195  76 186 195  76 186 195  76 186 195
188 211 193  78 137 135 147 183 173 169 201 188 117 102  61 142 105  50 139 108  64 160
138  91 124 186 185  53 188 202  79 186 194  61 193 205 113 158 155 179 134  69 194 153
100 193 147  96 191 148  96 194 148  99 194 148  97 194 148  97 198 148  98 194 148  96
194 148  97 194 148  96 195 147  97 194 146  96 194 146  96 195 147  97 195 149  97 194
148  97 194 148  96 195 148  96 192 146  95 193 147  95 194 148  99 198 150 102 194 147
 95 188 148  97 162 125  70 120 134 117 137 193 192  83 187 194  73 186 194  74 186 197
 77 187 196  76 186 195  76 186 195  76 186 195  77 187 196  76 186 195
165 141  95 137 104  23 215 202 149 153 129  81 141 107  59 149 116  75 138 100  53 142
141 111 106 190 192  69 185 196  81 183 193  68 187 199 120 157 150 182 137  72 197 154
104 188 144  97 196 150  99 194 148  97 192 149  97 194 148  97 194 148  97 194 148  97
194 148  96 194 148  96 194 148  97 194 148  97 194 146  96 194 148  97 194 148  97 193
147  96 194 148  99 195 149  98 196 148  98 192 151  97 191 148  96 190 143  99 176 138
 93 149 110  31 118 145 130  72 189 198  57 186 199  77 185 195  77 186 193  77 185 197
 76 186 195  76 186 195  77 185 195  76 186 195  76 186 195  76 186 195
127  95  12 139 113  65 138 109  65 131 107  63 143 114  74 140 107  56 135 108  53  96
167 171  73 187 198  77 185 195  78 185 193  68 190 201 113 156 149 178 133  68 192 150
102 191 149 101 191 148  96 194 148  96 193 147  98 195 147  99 194 148  97 194 148  96
194 148  96 192 149  97 195 149  98 193 146 100 194 148  99 196 148  98 193 150  97 193
147  96 197 149  99 192 146  95 189 143  92 178 140  91 166 129  84 150 114  62 157 122
 66 156 158 137  68 182 193  78 186 198  78 185 193  78 186 196  76 186 195  76 186 195
 76 186 195  76 186 195  76 186 195  76 186 195  76 186 195  76 186 195
129 174 167 154 125  85 142 103  34 146 100  23 148 107  51 148 123  85  98 169 171  71
191 200  77 186 193  76 186 197  75 184 191  62 194 206 116 159 150 154 115  24 182 144
 97 196 149 103 189 147  97 194 151  98 189 146  94 195 150  95 191 148  95 196 148  98
192 146  97 195 147  97 192 146  95 190 151  96 195 149  98 192 149  97 194 147  95 195
147  97 179 133  84 171 129  81 163 122  76 158 116  58 161 124  69 169 153 119 194 206
194 105 194 200  70 187 194  79 185 198  76 186 195  77 187 196  75 185 194  76 186 195
 77 187 196  76 186 195  76 186 195  77 187 196  76 186 195  76 186 195
127 207 208 171 202 196 111 146 139 115 147 136 130 154 141 142 192 189  59 189 199  78
187 194  76 186 193  77 185 195  68 190 201 124 185 180 161 152 123 179 138  85 166 122
 77 177 133  86 194 151  99 190 148  90 194 151  98 191 150  97 191 145  94 194 147  95
194 148  97 192 149  97 197 147  96 195 148  96 196 151  96 195 147  97 193 150  97 197
149 101 188 145  95 160 124  76 166 131  75 139 149 123 166 184 170 160 209 205  64 190
197  66 184 194  79 186 194  77 185 195  75 185 196  77 185 195  76 186 195  77 185 195
 76 186 195  76 186 195  76 186 195  76 186 195  76 186 195  76 186 195
 67 181 192  45 183 194  71 189 199  71 190 204  67 192 204  60 185 197  79 185 196  71
183 194  72 188 199  72 186 196 102 162 160 167 139  92 181 140  87 198 151 105 192 146
 97 173 133  84 176 136  87 196 153 100 192 146  97 197 147  97 195 147  99 196 145  98
196 150  99 193 147  95 196 150  98 196 150  98 191 148  98 190 147  94 193 145  97 192
146  94 192 153  98 184 149  94 170 124  49 115 174 172   8 192 208  58 180 191  76 186
197  79 185 196  74 187 195  76 186 195  76 186 195  74 187 195  76 186 195  76 186 195
 76 186 195  76 186 195  76 186 195  77 185 195  76 186 195  76 186 195
 77 187 194  83 185 195  78 185 193  78 185 193  78 185 191  82 186 193  69 186 195  91
194 201 107 177 176 142 128  89 168 136  77 189 147  87 194 151 101 193 147  96 191 151
 98 160 121  62 168 131  76 195 154 100 194 144  94 197 151 100 191 145  93 194 154 105
172 131  87 170 129  86 182 138  91 193 150  98 194 151  98 197 150  98 196 149  97 193
147  95 190 147  95 192 150 100 191 145  93 151 128  78  87 171 173  75 189 199  79 187
199  76 186 195  77 185 195  76 186 195  77 185 195  76 186 195  76 186 195  76 186 193
 76 186 195  76 186 195  76 186 195  77 185 195  76 186 195  76 186 195
 76 186 195  76 186 195  75 185 196  74 187 195  76 186 197  77 186 193  69 186 195 126
154 139 171 138  85 183 141  85 194 151  98 191 150  96 183 141  83 158 127  80 157 139
101 203 181 140 168 134  86 190 147  95 198 148  97 194 146  96 194 152 104 175 133  85
150 106  37 142 106  54 157 122  80 165 127  78 175 134  88 183 141  91 187 146  92 190
149  95 196 153 101 189 146  94 195 152 102 183 142  86 151 138 103 100 189 195  70 188
200  77 186 193  74 187 195  76 186 193  76 186 195  76 186 195  77 187 196  77 185 195
 77 185 195  74 187 195  76 186 195  76 186 195  76 186 195  76 186 195
 74 187 195  76 186 195  74 187 195  76 186 195  76 186 195  74 188 198  88 171 175 152
120  59 188 148  95 195 151 104 195 147  97 170 136  91 169 162 133 108 184 184  70 186
197 183 183 155 178 139  84 194 152 102 193 147  95 193 150  98 179 138  85 185 169 136
165 168 147 170 144 109 137  94  15 136 103  50 164 127  82 171 131  82 179 144  89 169
129  76 174 132  72 190 153 101 192 149  99 190 148 100 181 141  92 146 160 137  86 179
186  73 185 196  74 187 195  76 186 195  76 186 195  76 186 197  76 186 195  76 186 195
 76 186 195  76 186 195  77 185 195  76 186 195  76 186 195  76 186 195
 76 186 193  76 186 195  76 186 195  76 186 195  77 185 195  74 188 198  91 165 166 163
126  72 195 152  99 194 151  99 185 138  82 155 144 116 115 200 203  61 183 194  66 191
203 129 143 126 185 142  76 191 149  99 194 151 101 184 141  75 158 135  93 123 194 194
114 204 212 155 195 195 145 179 165 197 188 147 164 127  72 197 154 102 190 145  88 153
140 106 127 146 127 158 119  42 188 142  90 194 148  96 194 152 102 181 139  83 142 143
112  69 187 197  78 187 194  74 187 195  76 186 195  76 186 195  76 186 195  76 186 195
 76 186 195  76 186 195  76 186 195  76 186 195  76 186 195  76 186 195
 76 186 195  76 186 195  76 186 195  76 186 193  77 185 195  75 184 197  74 186 197 134
132 107 184 144  91 189 149  96 171 134  80 104 178 179  72 186 196  77 187 196 118 190
188 165 143 106 189 142  88 194 151  99 184 147  92 159 137 100 106 184 186  59 187 198
 69 181 192  18 179 195 106 203 212 202 222 210 174 142 101 188 147  93 188 147  91 136
135 113  67 187 196  91 174 180 138 135 102 183 144  89 193 147  96 193 146  90 120 175
167  65 187 200  80 187 195  74 187 195  76 186 195  76 186 195  76 186 195  76 186 195
 76 186 195  76 186 195  76 186 195  76 186 195  76 186 195  76 186 195
 77 185 195  76 186 195  76 186 195  76 186 195  76 186 195  78 185 191  72 190 200 104
170 166 173 128  63 188 148  97 176 139  84  95 186 191  53 187 198  85 189 198 150 149
121 181 141  82 196 153 101 190 148 100 171 132  73 170 194 181  82 195 203  76 184 194
 78 188 197  86 186 192  18 180 193 138 194 193 191 162 128 180 138  78 193 146  92 156
143 111 107 195 197  65 193 204  98 168 168 168 124  55 196 153 103 193 147  95 130 163
144  81 180 185  77 186 199  76 186 195  76 186 195  76 186 195  76 186 195  76 186 195
 76 186 195  76 186 195  76 186 195  76 186 195  76 186 195  76 186 195
 76 186 195  76 186 195  76 186 195  76 186 195  76 186 195  77 185 195  65 189 201 119
170 171 169 127  77 188 153  98 167 127  68 108 179 181 105 196 201 126 140 125 178 138
 79 193 153 100 189 149  98 175 134  72 138 151 133  96 191 197  65 183 195  81 185 196
 78 186 198  82 186 193  60 186 195 130 186 185 177 148 106 190 144  92 193 152  98 171
136  72 117 160 153  68 187 201  91 189 198 147 145 122 187 142  79 193 145  95 142 127
 86  86 187 191  75 188 196  77 185 195  76 186 195  76 186 195  76 186 195  76 186 195
 76 186 195  76 186 195  76 186 195  76 186 195  76 186 195  76 186 195
 76 186 195  76 186 195  73 186 194  76 186 195  76 186 195  81 188 194  44 182 193 149
207 208 178 164 135 178 140  77 179 134  77 184 167 139 210 200 164 154 117  39 196 156
103 197 151 100 178 137  81 156 166 142  82 191 196  66 185 197  79 188 195  74 186 197
 75 185 194  77 185 195  58 186 199 124 182 183 178 146 105 185 146  89 191 153 104 190
142  76 126 151 145  66 190 200  68 192 204 137 149 135 192 145  77 173 137  87 132 169
162  73 191 203  76 184 194  76 186 195  76 186 195  76 186 195  76 186 195  76 186 195
 76 186 195  76 186 195  76 186 195  76 186 195  76 186 195  76 186 195
 74 187 195  76 186 195  76 186 195  76 186 195  75 188 196  74 187 195  79 186 192  67
191 203 115 151 141 169 131  69 192 150 100 170 138  91 185 157 109 179 149  95 184 145
 90 195 153 103 172 126  66  91 169 169  73 193 202  80 184 193  77 185 197  77 185 195
 78 186 196  79 185 196  66 188 199 126 184 187 178 141  96 190 151  96 188 151  96 167
128  53 114 161 153  71 193 206  70 170 178 158 133  93 189 145  82 157 131  80 106 189
193  74 187 195  78 186 196  76 186 195  76 186 195  76 186 195  76 186 195  76 186 195
 76 186 195  76 186 195  76 186 195  76 186 195  76 186 195  76 186 195
 76 186 195  76 186 195  76 186 195  77 187 196  76 184 194  76 186 195  77 187 198  74
187 195  77 184 192 156 133  89 194 155 100 183 143  90 150 118  69 169 139  89 174 137
 83 197 155 105 172 127  70  93 163 163  71 191 200  78 184 195  77 187 196  75 185 194
 78 186 196  73 183 194  78 192 200 148 165 147 174 133  79 188 148  99 178 145  94 156
169 151  74 186 197  79 192 200 114 171 164 181 132  65 179 150 106 102 162 152  70 182
193  76 186 197  75 185 194  76 186 193  76 186 195  76 186 195  76 186 195  76 186 195
 76 186 195  76 186 195  76 186 195  76 186 195  76 186 195  76 186 195
 76 186 195  76 186 195  76 186 195  76 186 195  76 186 195  76 186 195  76 186 195  78
186 196  71 187 198 113 159 149 170 130  60 169 132  88 167 130  85 155 121  75 167 132
 77 189 149  96 182 143  88 140 164 150  70 188 197  77 185 197  76 186 195  76 186 195
 77 185 195  78 190 201 106 158 153 160 121  54 192 155 101 177 136  83 168 185 169 120
203 211  71 184 192  84 182 191 148 143 105 192 143  77 164 157 129  59 189 199  83 187
196  76 186 195  77 187 198  76 186 195  76 186 195  76 186 195  76 186 195  76 186 195
 76 186 195  76 186 195  76 186 195  76 186 195  76 186 195  76 186 195
 76 186 195  76 186 195  74 187 195  76 186 197  76 186 195  76 186 195  77 185 195  77
185 195  74 188 199  83 180 187 133 118  79 157 113  40 156 121  66 159 121  59 147 105
 33 181 144  90 188 147  93 168 141  98 115 188 195  64 184 193  79 186 194  78 187 194
 62 186 198 109 183 184 169 143  94 191 153 104 174 130  70 124 150 137  79 191 203  59
181 192  77 187 198  84 187 194 162 131  75 196 145  80 169 157 133  59 185 194  79 188
195  77 185 195  75 185 196  77 187 196  76 186 195  76 186 195  76 186 195  76 186 195
 76 186 195  76 186 195  76 186 195  76 186 195  76 186 195  76 186 195
 76 186 195  76 186 195  76 186 195  76 186 195  76 186 195  76 186 195  76 186 195  76
186 195  76 184 194  74 188 198  82 175 182 126 159 148 153 155 134 145 163 147 131 154
136 174 133  77 193 153 102 174 134  81 178 186 171  94 197 204  63 181 191  79 185 196
 85 189 198 145 159 144 174 138  80 186 143  91 146 153 137  71 188 195  75 185 194  79
186 194  69 187 199 114 159 152 176 140  88 197 146  89 169 157 133  61 189 198  81 185
194  76 186 195  76 186 195  76 186 195  76 186 195  76 186 195  76 186 195  76 186 195
 76 186 195  76 186 195  76 186 195  76 186 195  76 186 195  76 186 195
 76 186 195  76 186 195  76 186 195  76 186 197  77 186 193  78 186 196  74 186 198  76
186 195  77 187 196  77 185 195  75 189 197  74 191 200  94 188 196  81 190 203 126 186
184 173 145  98 189 149  96 188 148  97 169 137  96 175 199 186  98 199 203  60 186 195
 89 184 190 145 126  84 161 128  83 159 111  39 115 162 154  66 192 201  78 184 195  76
186 195  73 189 202 114 123 106 157 118  63 173 126  74 158 153 131  64 186 199  80 187
193  77 185 195  77 187 196  76 186 195  76 186 195  76 186 195  76 186 195  76 186 195
 76 186 195  76 186 195  76 186 195  76 186 195  76 186 195  76 186 195
 76 186 195  76 186 195  76 186 195  76 186 195  76 186 195  73 185 196  76 186 195  76
186 195  76 186 195  79 186 194  77 185 197  75 185 194  68 184 195  69 184 189  79 189
198 142 142 118 191 139  82 180 139  93 160 126  80 162 138  92 155 177 165 109 192 198
 78 180 190 144 118  70 163 125  78 166 128  89 144 115  57 102 161 155  71 187 200  81
185 194  64 188 198 154 171 153 155 118  73 163 122  69 149 135  98  78 183 186  73 187
198  77 186 193  76 186 195  76 186 195  76 186 195  76 186 195  76 186 195  76 186 195
 76 186 195  76 186 197  76 186 195  76 186 195  76 186 195  76 186 195
 76 186 195  76 186 197  76 186 195  76 186 195  76 186 195  78 186 196  76 186 195  76
186 195  76 186 195  74 186 197  75 185 194  77 186 193  80 188 198  81 185 196  68 190
199 118 146 134 148 113  47 164 127  85 168 132  82 160 121  78 160 111  55 133 165 160
 77 197 206 115 165 164 144 110  49 153 116  38 150 116  53 147 190 181  70 186 197  77
186 191  72 186 197 113 186 190 150 124  73 166 131  89 166 125  72 135 136 105  82 182
190  77 187 196  77 185 195  76 186 195  76 186 195  76 186 195  76 186 195  76 186 195
 76 186 197  76 186 193  76 186 197  76 186 195  76 186 195  76 186 195
 77 185 195  76 186 195  76 186 195  76 186 193  73 187 195  73 185 196  76 186 195  76
186 195  76 186 197  77 187 198  77 187 196  76 186 195  77 186 193  75 188 194  70 184
195 105 190 193 171 154 124 150 120  68 151 114  62 152 120  73 152 102  41 129 162 155
103 203 211  67 189 200  96 164 164 115 150 143 106 151 146  92 191 196  74 187 195  76
186 195  76 186 195  71 183 195 137 158 143 152 117  62 156 118  71 149 130  90 102 183
186  71 188 197  77 185 195  76 186 195  76 186 195  76 186 195  76 186 193  76 186 195
 76 186 193  76 186 197  76 186 195  76 186 195  76 186 195  76 186 195
 76 186 195  76 186 197  76 186 195  74 187 195  76 186 195  76 186 195  76 186 195  76
186 195  76 186 195  76 186 195  74 187 195  77 185 195  76 186 195  76 186 195  74 186
197  84 186 196 126 191 193  89 172 176  88 171 175  93 174 178  90 171 175  99 184 189
 82 191 198  75 183 195  76 190 201  67 191 203  69 191 200  74 187 195  76 186 197  76
186 195  78 184 195  77 187 198  70 184 194  93 172 176 119 179 177  98 183 186  71 185
193  75 185 194  76 186 195  76 186 195  76 186 195  76 186 195  76 186 195  76 186 195
 76 186 195  76 186 193  76 186 195  76 186 195  76 186 195  76 186 195
 74 186 197  76 186 195  74 187 193  76 186 195  76 186 197  76 186 195  76 186 195  76
186 195  76 186 195  74 187 195  77 187 194  76 186 195  76 186 197  75 185 194  79 185
198  73 185 196  56 186 196  74 190 201  73 189 200  72 189 198  72 188 199  68 186 195
 75 185 196  77 185 195  77 185 195  78 185 193  78 185 193  77 185 195  76 186 195  75
185 194  76 186 195  77 185 195  77 185 195  73 190 197  73 190 199  69 187 197  76 186
197  75 185 194  74 187 195  76 186 195  76 186 195  76 186 195  76 186 195  76 186 195
 76 186 195  76 186 195  76 186 195  76 186 195  74 186 197  74 186 197
146 211 217  75 188 196  77 187 196  76 186 195  78 186 196  78 186 196  78 186 196  78
186 196  76 186 195  76 186 195  76 186 195  76 186 195  76 186 195  76 186 195  76 186
195  77 185 195  79 186 194  77 185 195  78 184 195  78 184 195  79 185 196  79 188 195
 78 186 196  77 187 198  77 187 196  76 186 195  76 186 197  76 186 195  76 184 194  76
186 197  76 186 195  78 186 196  78 186 196  79 185 196  78 184 195  79 187 197  80 186
197  76 186 195  76 186 195  76 186 195  76 186 195  76 186 195  76 186 195  76 186 195
 76 186 195  76 186 195  76 186 195  78 186 196  77 187 196 146 211 217
