P3
# 8-bit ppm - RGB
50 45
255
122 201 207  77 187 196  76 186 195  76 186 195  76 186 195  76 186 195  76 186 195  76
186 195  76 186 195  76 186 195  76 186 195  76 186 195  76 186 195  76 186 195  76 186
195  76 186 195  76 186 195  76 186 195  76 186 195  76 186 195  76 186 195  76 186 195
 76 186 195  76 186 195  76 186 195  76 186 195  76 186 195  76 186 195  76 186 195  76
186 195  76 186 195  76 186 195  76 186 195  76 186 194  76 185 194  77 186 195  78 186
196  78 186 195  75 186 196  77 185 195  76 186 195  76 186 195  75 186 194  76 185 194
 76 186 195  76 186 195  76 186 194  75 186 196  76 186 195  86 190 198
 80 189 197  74 185 195  75 186 195  76 186 195  76 186 195  76 186 195  76 186 195  76
186 195  76 186 195  76 186 195  76 186 195  76 186 195  76 186 195  76 186 195  76 186
195  76 186 195  76 186 195  76 186 195  76 186 195  76 186 195  76 186 195  76 186 195
 76 186 195  76 186 195  76 186 195  76 186 195  76 186 195  76 186 195  76 186 195  76
186 195  76 186 195  76 186 195  76 186 194  76 186 195  76 185 194  73 187 197  78 190
198  88 190 197  89 189 196  78 189 201  75 186 196  78 185 193  78 186 194  77 187 194
 77 186 194  76 185 194  76 186 196  76 186 194  76 185 194  76 186 195
 76 185 195  77 186 195  75 186 195  76 186 195  76 186 195  76 186 195  76 186 195  76
186 195  76 186 195  76 186 195  76 186 195  76 186 195  76 186 195  76 186 195  76 186
195  76 186 195  76 186 195  76 186 195  76 186 195  76 186 195  76 186 195  76 186 195
 76 186 195  76 186 195  76 186 195  76 186 195  76 186 195  76 186 195  76 186 195  76
186 195  76 186 195  76 186 195  76 186 195  76 185 195  77 188 199  81 181 185  98 151
135 100 118  89 100 122 102 102 174 172  76 186 194  72 189 200  69 189 200  74 188 198
 74 189 199  74 188 198  76 186 194  76 186 195  75 186 194  76 186 194
 77 186 195  76 185 195  76 186 195  76 186 195  76 185 194  76 185 195  76 186 195  76
186 195  76 186 195  76 186 195  76 186 195  76 186 195  76 186 195  76 186 195  76 186
195  76 186 195  76 186 195  76 186 195  76 186 195  76 186 195  76 186 195  76 186 195
 76 186 195  76 186 195  76 186 195  76 186 195  76 186 195  76 186 195  76 186 195  76
186 195  76 186 195  76 186 195  76 186 194  76 188 198  80 172 173  97  97  69 115  33
  0 108  44   0  89  31   0 121  69   0 123 145 123 101 172 168 103 166 157  88 175 168
 93 170 164  87 171 172  69 188 199  76 186 195  75 187 195  76 186 195
 76 186 195  76 186 195  76 186 195  75 186 195  76 185 195  76 186 195  76 186 195  76
186 195  76 186 195  76 186 195  76 186 195  76 186 195  76 186 195  76 186 195  76 186
195  76 186 195  76 186 195  76 186 195  76 186 195  76 186 195  76 186 195  76 186 195
 76 186 195  76 186 195  76 186 195  76 186 195  76 186 195  76 186 195  76 186 195  76
186 195  76 186 195  76 186 195  76 186 195  77 187 194  89 112  94 101  10   0 107  56
 17 117  78  39 146 113  81 181 138  91 193 147  87 183 137  81 192 145  87 188 150  94
153 116  69 151 126  62 110 167 161  73 187 198  77 185 195  76 186 195
 76 186 195  76 186 195  76 186 195  76 186 195  76 186 195  76 186 196  76 186 195  76
186 195  76 186 195  76 186 195  76 186 195  76 186 195  76 186 195  76 186 195  76 186
195  76 186 195  76 186 196  76 186 195  76 186 195  76 186 195  76 186 195  76 186 195
 76 186 195  76 186 195  76 186 195  76 186 195  76 186 195  76 186 195  76 186 195  76
186 195  76 186 195  77 185 194  74 188 199  88 176 174 122  91  52 153 106  59 162 118
 60 159 133 119 126 113 111 172 147 116 197 155 102 196 152 104 188 146 101 198 145 108
185 138  98 189 141  98 157 143  93  75 179 180  77 188 198  76 186 194
 76 186 195  76 186 195  76 186 195  76 186 195  76 186 195  76 186 195  76 186 195  76
186 195  76 186 195  76 186 195  76 186 195  76 186 195  76 186 195  76 186 195  76 186
195  76 186 195  76 186 195  76 186 195  75 186 194  76 186 195  76 186 195  77 186 194
 77 185 194  77 185 194  74 186 193  74 186 195  76 186 196  76 186 195  76 186 195  76
186 195  76 186 195  77 185 194  72 188 200  92 173 167 180 139  80 196 150 106 204 156
 95 177 148 119   0   0   0 157 126  95 207 153 106 191 149  91 183 147  85 186 137 100
177 139  88 176 130  93 145 130  77  80 179 179  75 188 199  77 185 194
 76 186 195  76 186 195  76 186 195  76 186 195  76 186 195  76 186 195  76 186 195  76
186 195  76 186 195  76 186 195  76 186 195  76 186 195  76 186 195  76 186 195  76 186
195  76 186 195  77 186 195  76 186 195  74 186 195  76 186 194  76 186 196  71 189 199
 67 188 200  72 188 199  77 186 195  77 185 194  76 186 196  76 186 195  76 186 195  76
186 195  76 186 195  77 186 194  74 187 197  85 180 181 156 135  91 188 146 101 195 146
 91 190 148 107 183 148 110 193 150  96 196 146  97 201 147 103 196 149  92 178 132  63
162 122  50 152 120  45 114 155 136  74 185 193  77 186 195  76 186 195
 76 186 195  76 186 195  76 186 195  76 186 195  76 186 195  76 186 195  76 186 195  76
186 195  76 186 195  76 186 195  76 186 195  76 186 195  76 186 195  76 186 195  76 186
195  76 186 195  76 186 195  77 186 195  75 186 194  72 189 198  77 183 190 105 165 158
116 161 143 100 170 163  73 184 190  72 188 198  76 185 195  76 186 194  76 186 195  76
186 195  76 186 195  76 186 195  76 185 194  74 190 200 151 150 120 190 149  89 194 146
100 197 146  93 205 152  95 197 147  94 194 153  93 194 147  92 164 125  80 123 166 156
114 173 170  95 171 169  74 185 192  75 187 196  76 185 195  75 186 195
 76 186 195  76 186 195  76 186 195  76 186 195  76 186 195  76 186 195  76 186 195  76
186 195  76 186 195  76 186 195  76 186 195  76 186 195  76 186 195  76 186 195  76 186
195  76 186 195  76 186 195  77 185 195  75 189 199  82 176 177 137 134  94 168 119  80
167 118  88 163 122  73 134 137 104  93 174 172  71 189 200  77 186 196  77 185 194  76
186 195  76 186 195  76 186 194  77 186 196  74 183 186 160 150 102 190 142  99 194 153
 96 198 149  90 199 145  99 192 145 101 189 152  90 165 134  66 123 168 162  80 195 203
 72 189 200  73 188 199  76 186 195  76 185 194  76 186 195  76 186 194
 76 186 195  76 186 195  76 186 195  76 186 195  76 186 195  76 186 195  76 186 195  76
186 195  76 186 195  76 186 195  76 186 195  76 186 195  76 186 195  76 186 195  76 186
195  76 186 195  76 185 194  75 187 198  82 179 184 141 134  93 171 125  68 164 122  81
160 123  79 163 123  78 168 122  65 152 126  80 104 161 150  73 186 193  74 188 199  77
185 194  77 186 195  77 185 194  73 189 200  92 170 165 173 138  68 200 149 102 189 151
 95 190 146  96 192 147  94 197 148 109 186 136  80 139 142 107 103 197 202  68 184 193
 78 186 194  76 186 194  77 186 195  76 186 195  76 186 194  76 186 196
 76 186 195  77 186 194  76 185 194  75 186 195  77 187 196  76 186 195  76 186 196  75
186 195  76 186 195  76 186 195  75 186 195  75 185 193  76 186 195  77 186 196  75 186
196  75 186 194  79 186 195  70 186 195 136 145 121 159 117  59 159 128  86 175 134  86
188 145  91 185 141  87 173 128  84 168 124  77 161 117  63 128 142 116  87 176 176  74
188 197  74 186 196  79 185 192  68 189 199 118 165 151 185 139  78 194 147 102 193 148
102 191 148  99 194 148 100 196 149  99 175 133  63 118 151 128  70 188 199  78 186 194
 76 186 195  76 186 195  76 186 195  76 186 195  76 186 195  76 186 195
 76 187 196  74 188 197  72 188 197  74 188 196  76 186 194  77 186 196  75 186 196  76
186 195  77 186 195  76 186 194  76 185 195  76 185 195  76 186 196  76 186 196  76 186
195  78 185 195  70 189 200 103 160 153 160 120  53 161 127  76 178 142  95 196 150 104
197 151  99 196 149  98 191 145  94 186 143  97 175 134  89 167 121  67 152 123  55 107
152 134  88 189 196  72 190 202  76 182 190 148 138  93 192 148  93 193 146  97 194 149
 97 192 150  93 192 146  97 195 147  99 169 129  70 114 170 158  73 188 198  77 186 194
 76 186 195  76 186 195  76 186 195  76 186 195  76 186 195  76 186 195
 94 191 199  99 174 171  90 171 171  80 180 186  77 185 194  77 186 195  77 186 195  75
184 193  74 185 195  74 188 199  74 187 197  78 186 196  78 185 194  77 186 196  77 186
194  70 189 198  90 176 175 148 126  72 171 128  73 183 140  93 195 150 102 194 146  94
193 147  92 195 147  95 195 148  97 197 151 102 194 151 101 192 144  99 186 136  89 167
125  71 138 127  90 125 164 146 134 146 121 189 142  80 191 145  95 196 148  98 191 148
 95 192 148  94 196 148 100 191 144  95 147 120  69  96 179 179  74 188 197  77 186 194
 76 186 195  76 186 195  76 186 195  76 186 195  76 186 195  76 186 195
 84 181 184 128 122  71 142 121  86 101 179 176  72 190 199  76 188 196  71 186 195  78
191 200  83 189 194  84 177 180  83 180 182  67 186 193  69 188 199  78 186 194  73 186
198  86 186 188 141 137 104 167 121  73 184 143 100 199 153 107 193 147  95 194 146  90
195 148  94 195 148  95 192 146  94 192 146  94 196 149  98 195 149  98 193 147 104 195
150 106 182 140  70 179 136  61 188 141  87 191 148  99 198 146 101 194 146 102 188 146
 97 197 150 103 194 150  99 177 135  74 134 136 108  75 184 191  76 187 196  76 186 195
 76 186 195  76 186 195  76 186 195  76 186 195  76 186 195  76 186 195
 77 184 188 120 132  91 144 119  85 126 144 121 118 139 108 127 133 104 133 130 106 138
136 111 151 142 111 162 134  73 168 134  62 150 145 106 114 171 160  73 187 198 103 186
185 140 136  95 170 123  70 190 148 104 194 152 106 190 145  94 196 148  97 192 147  98
193 147  96 193 149  98 192 149  97 192 147  96 195 147  98 191 147  96 196 152  97 194
146  91 197 152 103 195 149 103 196 146  99 197 152 100 193 145  96 192 148 100 189 147
 96 197 147  96 188 145  96 161 127  60 112 166 156  76 190 201  76 185 194  76 186 195
 76 186 195  76 186 195  76 186 195  76 186 195  76 186 195  76 186 195
 74 192 200 122 143 126 153  95   1 148 103  42 145 108  57 150 108  70 149 101  54 147
102  30 166 125  42 176 160 120 158 160 134 176 138  91 175 136  37 134 147 125 121 143
117 185 128  61 204 150 110 190 148  94 192 150  98 190 148  93 194 149  99 194 149 104
195 148  97 191 147  96 192 149  98 193 149  99 194 148  98 192 147  98 193 147  99 196
148 101 194 149  99 192 149  98 192 149  97 188 147  91 194 149  96 192 149  93 196 151
103 197 151  99 173 132  73 138 136 103  88 186 187  72 186 196  77 186 195  76 186 194
 76 186 195  76 186 195  76 186 195  76 186 195  76 186 195  76 186 195
 76 188 197  90 176 183 127 131 106 148 107  53 144 101  57 143  99  64 148 107  60 140
111  53 139 166 154 129 199 203 101 198 205 118 180 176 165 143 100 184 136  68 190 139
 83 193 148  97 194 148  95 193 147  96 193 147  96 192 148  96 193 150  99 195 151 101
193 147  96 194 148  97 195 149  98 196 149  98 195 149  98 194 150  98 192 150  97 190
149  96 191 148  96 192 149  97 190 148  97 189 148  97 196 151  96 196 149  97 193 148
 92 178 136  89 153 116  62 115 171 164  73 189 199  77 185 194  76 186 195  76 186 194
 76 186 195  76 186 195  76 186 195  76 186 195  76 186 195  76 186 195
 76 185 194  77 189 199  89 184 186 101 154 136 127 146 119 133 145 120 117 144 122 109
170 158  86 190 198  55 183 194  69 182 191  69 191 202 142 181 171 170 131  82 190 144
 97 191 151 108 187 146  97 192 147  94 194 150  99 194 149  97 191 147  96 193 148  99
194 148  97 194 148  97 194 148  97 194 149  98 194 148  97 195 149  98 194 148  97 194
147  97 196 149  98 193 148  98 190 146  93 195 150  92 197 147 104 194 149  98 173 134
 85 157 115  48 126 146 128  81 190 197  75 186 195  77 186 194  77 186 195  76 186 195
 76 186 195  76 186 195  76 186 195  76 186 195  76 186 195  76 186 195
 76 186 196  76 185 195  75 186 196  70 189 199  81 190 201  90 192 202  81 191 201  70
187 199  75 186 195  79 187 194  78 187 195  75 185 195  87 188 195 145 133  82 193 149
 87 196 145 101 193 147  96 190 146  94 194 148  97 193 148  97 193 147  97 193 147  98
193 147  96 193 147  96 193 147  96 194 148  97 192 146  96 195 148  96 196 149  98 194
147  97 192 146  95 193 147  97 196 149  99 196 150  95 190 141  97 170 129  87 160 122
 61 133 137 106 100 189 193  72 187 196  76 186 194  76 186 196  76 186 195  76 186 195
 76 186 195  76 186 195  76 186 195  76 186 195  76 186 195  76 186 195
 76 186 196  75 187 195  75 186 195  76 185 194  75 184 193  72 185 194  75 185 194  77
185 194  76 185 195  76 185 195  76 186 196  77 187 195  70 185 193 154 140  95 202 143
 82 195 149 100 189 149  91 193 149  97 192 148  97 193 148  97 193 149  98 193 148  98
194 148  97 194 148  97 194 148  97 195 149  98 193 147  96 193 147  95 196 148  96 196
149  97 194 149  98 194 150 100 195 151 101 181 137  93 168 124  90 158 120  46 139 138
 88 120 190 190  71 187 197  76 185 194  75 186 195  75 186 194  76 186 194  76 185 195
 76 186 195  76 186 195  76 186 195  76 186 195  76 186 195  76 186 195
 76 186 195  75 186 195  76 186 194  75 185 194  76 185 194  77 186 196  76 186 194  77
186 195  77 186 195  77 186 195  77 186 195  76 187 195  75 187 195 135 146 107 194 143
 87 198 148 108 189 147  92 191 148  95 193 151  99 194 148  97 193 147  98 195 147  99
193 147  96 193 147  97 193 147  96 193 147  96 193 147  96 193 147  95 193 147  94 193
147  95 193 152 100 185 145  95 175 134  86 161 124  81 162 120  58 143 136 108 105 193
197  73 189 200  78 185 194  77 186 194  76 186 195  75 185 195  76 186 195  75 187 195
 76 186 195  76 186 195  76 186 195  76 186 195  76 186 195  76 186 195
 76 186 195  76 186 195  76 186 195  76 186 195  76 186 195  76 186 195  76 186 195  76
185 194  75 186 195  76 186 195  76 186 195  76 186 195  79 190 199 139 146 109 166 125
 76 189 147 103 197 149 102 192 143 105 193 153  92 196 146  97 198 149  95 192 147 103
194 147  96 198 151  96 196 146  94 194 146  97 191 146  95 196 148  95 195 147  95 192
146 100 193 146 105 185 143  97 164 123  77 165 124  82 176 135  79 159 139  93 120 144
124  96 180 183  68 187 196  76 188 199  77 186 195  76 186 195  76 186 195  76 186 195
 76 186 195  76 186 195  76 186 195  76 186 195  76 186 195  76 186 195
 76 186 195  76 186 195  76 186 195  76 186 195  76 186 195  77 186 195  76 186 196  75
186 194  75 186 195  76 186 195  77 184 194  75 191 201 108 171 167 165 134  56 174 130
 86 170 130  87 190 144  77 200 153 104 189 149  93 197 147 105 195 147  89 192 152  95
196 150 101 187 144  90 190 145  95 190 146  97 190 149  96 188 147  94 189 151  94 188
149  86 194 155  93 192 151  95 182 139  92 183 137  92 195 151  92 191 149  83 176 133
 64 159 139  63 128 157 131  78 177 182  74 187 197  76 185 194  76 186 194  77 186 195
 76 186 195  76 186 195  76 186 195  76 186 195  76 186 195  76 186 195
 76 186 195  76 186 195  76 186 195  76 186 195  76 186 195  76 186 195  75 186 195  76
186 195  76 186 195  79 186 196  78 191 199  97 165 158 172 136  77 199 148  90 199 152
106 181 144  87 146 147 104 172 150 102 191 149  94 194 147 102 193 149  96 188 149  89
194 147 102 178 135  96 160 118  82 160 120  79 170 129  86 187 147  98 193 152  99 197
152  98 189 145  94 195 150 103 195 150 108 196 151 101 190 145  93 197 147 107 200 149
115 199 147  99 190 138  62 134 151 132  86 192 200  73 184 194  77 186 196  76 186 195
 76 186 195  76 186 195  76 186 195  76 186 195  76 186 195  76 186 195
 76 186 195  76 186 195  76 186 195  76 186 195  76 186 195  76 186 194  76 186 194  76
186 195  76 186 195  73 186 196 109 165 158 175 144  77 196 150  89 193 144 102 183 139
 65 134 158 137  61 187 198 133 146 119 196 149  86 190 147  88 193 150 106 191 151 103
192 145  83 159 108  44 146 102  30 153 111  28 147  98  14 176 125  48 199 147  82 199
146  98 201 147 107 194 147 101 192 150  94 188 149  88 192 152  98 183 142  82 192 148
 84 200 149 106 194 146 101 170 138  78 117 176 168  71 189 200  78 184 193  77 186 196
 76 186 195  76 186 195  76 186 195  76 186 195  76 186 195  76 186 195
 76 186 195  76 186 195  76 186 195  76 186 195  76 186 195  76 186 195  75 186 195  77
185 194  74 189 201 112 169 165 181 140  67 196 149  98 193 149 103 180 137  72 148 151
111  98 191 196  62 188 199 146 147 111 197 146  90 192 147  89 191 149 107 187 141  79
143 149 117 114 174 170 103 170 170 104 171 167  97 167 168 100 171 170 135 152 129 167
137  80 188 143  73 196 150  86 194 149  95 195 146 104 192 149 100 166 131  74 162 128
 61 190 149  91 189 149  95 196 152  94 154 135  93  99 182 181  73 188 199  77 185 194
 77 186 195  76 186 195  76 186 195  76 186 195  76 186 195  76 186 195
 76 186 195  76 186 195  76 186 195  76 186 195  76 186 195  76 186 195  76 186 194  77
187 196  70 183 189 144 140 101 195 141  72 199 148  99 197 148 108 159 133  73 104 179
176  76 190 204  78 178 181 165 151  94 200 150 101 196 149 104 192 147  89 156 140  94
 87 186 193  70 190 200  74 190 200  71 189 200  71 190 200  68 189 200  65 185 196  86
178 178 121 154 133 169 141  90 195 146  90 197 147  96 196 152  97 185 146  90 162 125
 82 168 141  86 177 135  78 193 138  84 194 143  85 148 142 108 100 185 184  69 189 199
 75 185 195  77 185 194  76 186 194  77 186 195  76 186 195  76 186 195
 76 186 195  76 186 195  76 186 195  76 186 195  76 186 195  76 186 195  76 186 195  75
187 198  94 184 187 151 127  67 194 147 101 197 150 104 182 132  57 123 154 133  78 190
200  69 189 200 117 162 149 187 144  69 191 146 102 199 148 101 160 142  93  75 174 177
 74 187 198  78 185 193  77 185 194  77 185 194  77 185 194  78 186 193  78 186 195  75
188 198  68 188 200  76 176 179 128 152 123 178 138  73 190 147 101 197 150  96 188 148
 86 179 150 100 158 175 156 127 156 138 188 146  84 190 143  88 153 140  85 126 177 178
 84 189 198  70 188 197  76 188 199  76 186 196  77 185 193  76 185 194
 76 186 195  76 186 195  76 186 195  76 186 195  76 186 195  76 186 195  76 186 194  74
188 198  93 176 183 169 138  61 193 151 100 181 137  87 146 147 110  72 183 191  81 187
195  61 186 193 151 162 134 195 143  96 197 148 106 182 147  86  97 170 167  72 189 200
 78 186 194  76 186 195  76 186 195  76 186 195  76 186 195  76 186 195  76 186 194  76
187 194  79 185 194  77 187 198  69 187 197 104 166 160 162 135  85 196 150 104 191 147
 89 181 141  82 134 161 143  63 189 194 132 156 132 192 143  69 199 145  94 176 132  82
145 149 110 125 172 164  89 179 180  76 185 189  72 190 202  83 189 199
 76 186 195  76 186 195  76 186 195  76 186 195  76 186 195  76 186 195  77 185 194  75
189 200 125 147 133 182 139  84 185 146  75 159 153 110 125 198 201  70 186 196  77 188
197  98 173 166 178 146  95 197 148 106 192 145  73 124 160 138  67 188 197  78 185 193
 76 186 195  76 186 195  76 186 195  76 186 195  76 186 195  76 186 195  76 186 196  76
187 196  76 186 196  77 185 193  78 185 195  74 190 202  97 168 161 167 130  74 200 150
110 192 152 105 189 138  66 133 157 132  63 183 187 137 141 100 189 143  95 194 153  98
192 149  87 168 130  57 145 125  64 140 148 118 104 162 149  87 183 187
 76 186 195  76 186 195  76 186 195  76 186 195  76 186 195  76 185 194  77 187 196  68
181 184 160 143  89 194 141 107 166 134  68 137 188 170  64 187 199  77 187 196  75 180
187 159 159 123 199 148 104 196 148  90 154 149 103  66 182 188  77 186 195  76 185 194
 76 186 195  76 186 195  76 186 195  76 186 195  76 186 195  75 186 194  76 186 195  76
186 195  75 186 195  76 186 195  77 185 194  76 186 193  72 190 201 120 162 147 193 145
 81 191 144  95 197 147 112 181 145  80 107 173 166  80 185 189 141 141  82 188 144  85
182 145  96 169 128  96 165 119  84 165 122  66 155 119   9 101 170 166
 76 186 195  76 186 195  76 186 195  76 186 195  76 186 195  76 185 193  77 190 202  98
171 160 176 139  57 195 141 103 160 148 104  98 193 197  73 186 196  79 181 183 153 153
115 198 144  88 197 148 103 183 143  78  93 165 161  75 191 201  77 185 194  76 186 196
 76 186 195  76 186 195  76 186 195  76 186 195  76 186 195  76 186 195  76 186 194  75
186 194  75 186 195  76 186 195  76 186 195  76 186 194  78 186 195  66 185 192 149 158
117 201 145  88 194 147 103 189 138  79 140 159 137  70 190 203  89 180 178 153 132  71
166 119  57 160 118  72 170 123  83 165 120  83 146 110  17  98 171 168
 76 186 195  76 186 195  76 186 195  76 186 195  76 186 195  77 187 196  71 185 193 143
149 117 201 149  85 178 136  66 148 173 153  76 187 197  72 188 200  93 172 170 174 133
 46 201 153 106 194 140 101 158 154 108  71 185 193  78 186 196  77 186 195  76 186 195
 76 186 195  76 186 195  76 186 195  76 186 195  76 186 195  76 186 195  76 186 195  76
186 195  76 186 195  76 186 195  76 186 195  76 186 195  77 186 195  75 187 197  75 180
186 152 149 106 191 143  88 200 150  95 159 142  96  85 184 188  72 187 199  93 183 185
121 155 141 143 127  75 138 138 101 132 150  99 149 181 161  83 185 197
 76 186 195  76 186 195  76 186 195  76 186 195  77 186 194  75 188 198  92 171 168 172
138  68 197 147 103 171 129  67 105 174 171  76 189 200  74 188 198  89 172 174 171 135
 70 195 151  95 187 137  95 110 166 154  71 188 199  78 185 195  76 185 195  76 186 195
 76 186 195  76 186 195  76 186 195  76 186 195  76 186 195  76 186 195  76 186 195  76
186 195  76 186 195  76 186 195  76 186 195  76 186 195  76 186 196  77 185 193  75 188
198  76 179 183 148 139 101 195 146 103 188 143  69 130 167 142  77 190 201  75 187 196
 81 192 200 119 194 193  95 188 193  87 191 199  98 194 202  72 186 196
 76 186 195  76 186 195  76 186 195  76 186 195  77 186 194  70 188 198 113 152 126 184
141  79 193 146 102 172 136  67 108 180 176  71 189 200  74 188 198  89 172 171 172 134
 73 196 150  92 167 138  86  88 181 186  75 187 199  77 186 197  76 186 195  76 186 195
 76 186 195  76 186 195  76 186 195  76 186 195  76 186 195  76 186 195  76 186 195  76
186 195  76 186 195  76 186 195  76 186 195  76 186 195  76 186 194  76 186 195  76 185
193  76 189 201  89 176 174 175 142  85 200 147  99 164 132  85 134 189 188  60 187 200
 88 188 196  74 186 198  72 186 195  74 185 195  72 185 195  84 189 197
 76 186 195  76 186 195  76 186 195  76 186 195  77 186 194  71 188 198 116 149 116 160
121  60 169 128  88 156 120  50 105 169 163  73 187 198  74 188 199  85 172 169 170 131
 81 200 150  96 144 147 108  64 182 188  79 187 197  76 186 196  76 186 195  76 186 195
 76 186 195  76 186 195  76 186 195  76 186 195  76 186 195  76 186 195  76 186 195  76
186 195  76 186 195  76 186 195  76 186 195  76 186 195  76 186 196  77 186 195  77 185
196  78 185 195  68 189 200 118 155 138 192 141  78 188 144  76 150 152 116 117 191 191
 73 186 195  82 188 196  76 185 196  77 186 194  76 186 194  88 189 200
 76 186 195  76 186 195  76 186 195  76 186 195  77 186 194  73 188 198 103 159 139 152
119  39 168 125  86 162 121  76 125 140 107  77 185 194  75 189 201  99 172 169 177 136
 76 196 145  91 137 154 129  62 185 193  79 186 196  77 186 195  76 186 195  75 187 195
 76 186 195  76 186 195  76 186 195  76 186 195  76 186 195  76 186 195  76 186 195  76
186 195  76 186 195  76 186 195  76 186 195  76 186 195  76 186 196  76 185 195  76 186
195  77 186 194  76 187 198  72 178 183 164 144  97 197 150 104 163 128  70 152 139  94
119 160 137  75 183 191  76 187 196  76 186 194  76 186 195  84 188 197
 76 186 195  76 186 195  76 186 195  76 186 195  76 186 195  76 187 196  77 182 188 128
150 128 154 119  59 164 123  35 130 138  98  82 186 195  75 188 198 139 164 137 184 141
 76 190 140  79 131 155 133  63 187 196  79 186 195  76 186 194  76 186 195  76 186 195
 76 186 195  76 186 195  76 186 195  76 186 195  76 186 195  76 186 195  76 186 195  76
186 195  76 186 195  76 186 195  76 186 195  76 186 195  76 186 195  76 185 195  76 186
195  76 186 195  78 185 194  67 188 198 111 169 157 177 135  84 166 121  75 173 118  77
155 129  80  79 179 183  76 188 198  77 186 195  75 186 194  82 187 197
 76 186 195  76 186 195  76 186 195  76 186 195  76 186 195  76 186 195  75 187 197  84
190 197 107 172 163 115 161 146  90 175 176  77 187 196  73 184 192 147 134  69 200 150
 96 197 144  94 130 154 125  66 185 194  78 186 195  75 186 194  76 186 195  76 186 195
 76 186 195  76 186 195  76 186 195  76 186 195  76 186 195  76 186 195  76 186 195  76
186 195  76 186 195  76 186 195  76 186 195  76 186 195  76 186 195  76 186 195  76 186
195  76 186 195  75 187 195  76 186 195  72 186 194 118 161 142 154 125  66 163 126  72
122 150 124  76 184 191  76 187 196  76 186 194  76 186 194  80 186 196
 76 186 195  76 186 195  76 186 195  76 186 195  76 186 195  76 186 195  76 186 195  73
186 195  75 189 200  80 189 202  74 188 199  76 186 195  76 184 192 155 140  81 191 136
 91 194 143 100 140 143  94  71 183 189  78 187 197  76 186 195  75 186 195  76 186 195
 76 186 195  76 186 195  76 186 195  76 186 195  76 186 195  76 186 195  76 186 195  76
186 195  76 186 195  76 186 195  76 186 195  76 186 195  76 186 195  76 186 195  76 186
195  76 186 195  76 186 195  76 186 194  76 186 197  77 187 197  89 176 176  87 174 173
 74 184 190  75 186 195  76 186 195  75 186 196  76 186 195  78 185 195
 76 186 195  76 186 195  76 186 195  76 186 195  76 186 195  76 186 195  77 186 195  76
186 195  81 185 192  86 186 193  75 185 193  76 186 195  74 183 192 139 122  75 175 124
 87 170 125  85 151 123  45 101 180 180  71 187 198  76 185 193  76 186 194  76 186 195
 76 186 195  76 186 195  76 186 195  76 186 195  76 186 195  76 186 195  76 186 195  76
186 195  76 186 195  76 186 195  76 186 195  76 186 195  76 186 195  76 186 195  76 185
195  75 185 194  76 186 195  76 186 195  76 185 194  77 186 195  74 188 199  74 188 198
 77 187 197  76 186 195  76 186 196  75 186 194  76 186 195  78 187 194
 76 186 195  76 186 195  76 186 195  76 186 195  76 186 195  76 186 195  76 186 195  76
186 195  85 185 193  83 185 193  76 186 194  78 185 195  71 187 196 121 143 112 163 122
 53 162 127  99 162 127  73 140 143 122  84 185 194  75 186 195  77 186 196  76 186 195
 76 186 195  76 186 195  76 186 195  76 186 195  76 186 195  76 186 195  76 186 195  76
186 195  76 186 195  76 186 195  76 186 195  76 186 195  76 186 195  76 186 195  75 186
195  76 186 195  76 186 195  76 186 194  75 186 195  76 186 194  77 185 195  77 186 196
 77 186 196  75 186 195  75 186 195  75 186 194  76 186 194  77 186 195
 76 186 195  76 186 195  76 186 195  76 186 195  76 186 195  76 186 194  75 186 195  76
186 196  78 186 195  76 186 196  77 186 194  76 186 194  78 187 198  89 181 189 124 132
 94 149 115  44 160 127  64 148 115   2 115 164 151  75 189 200  75 185 195  76 186 195
 76 186 195  76 186 195  76 186 195  76 186 195  76 186 195  76 186 195  76 186 195  76
186 195  76 186 195  75 186 195  76 186 195  76 186 195  75 186 195  76 186 195  78 185
195  78 185 195  77 186 195  76 186 195  76 187 195  76 186 194  76 186 193  75 186 196
 76 187 195  76 186 195  76 186 194  76 186 194  76 186 195  76 186 195
 80 187 197  79 187 196  75 186 195  76 186 195  76 186 195  76 186 195  76 186 195  77
186 195  76 187 196  76 186 195  77 186 194  81 186 195  78 185 194  75 189 200  84 182
187  94 170 167  97 171 171  97 174 173  88 179 182  79 186 196  86 186 193  79 186 195
 75 186 195  76 186 195  76 186 195  76 186 195  76 186 195  76 186 195  76 186 195  76
186 195  78 187 195  83 186 194  79 186 195  77 187 195  77 187 196  78 187 195  78 185
196  78 186 196  78 186 196  76 186 195  76 186 195  76 186 195  76 186 195  76 186 195
 76 186 195  76 186 195  76 185 195  76 186 195  77 186 196  78 185 196
