P3
# 8-bit ppm - RGB
50 49
255
149 212 219  76 186 197  77 185 195  78 184 195  77 185 195  78 187 194  77 185 195  77
185 195  77 185 195  77 185 195  77 185 195  77 185 195  77 185 195  77 185 195  77 185
195  77 185 195  77 185 195  77 185 195  77 185 195  77 185 195  77 185 195  77 185 195
 77 185 195  77 185 195  77 185 195  77 185 195  77 185 195  77 185 195  76 186 195  76
186 195  76 186 195  76 186 195  77 187 196  77 187 196  78 188 197  77 187 196  77 187
196  77 187 196  78 186 196  77 187 196  77 187 196  76 186 195  76 186 195  74 187 195
 76 186 195  77 187 196  76 186 195  76 186 195  75 188 196 147 212 218
 75 185 196  76 186 195  76 186 195  76 186 195  76 186 193  76 186 197  76 186 195  76
186 195  76 186 195  76 186 195  76 186 195  76 186 195  76 186 195  76 186 195  76 186
195  76 186 195  76 186 195  76 186 195  76 186 195  76 186 195  76 186 195  76 186 195
 76 186 195  76 186 195  76 186 195  76 186 195  77 185 195  76 186 195  76 186 195  76
186 195  76 186 195  76 186 195  76 186 195  76 186 193  77 185 195  77 187 196  77 187
196  76 186 195  74 187 195  76 186 195  76 186 195  76 186 193  74 187 195  77 187 196
 76 186 195  76 186 195  77 185 195  76 186 193  74 187 195  77 186 193
 78 184 195  76 186 195  74 187 195  77 185 195  77 185 195  77 186 193  76 186 195  77
185 195  76 186 195  76 186 195  76 186 195  76 186 195  76 186 195  76 186 195  76 186
195  76 186 195  76 186 195  76 186 195  76 186 195  76 186 195  76 186 195  76 186 195
 76 186 195  76 186 195  76 186 195  76 186 195  76 186 195  76 186 195  76 186 195  76
186 195  76 186 195  76 186 195  75 185 196  75 185 194  76 186 195  75 185 194  76 186
195  75 185 196  76 186 195  76 186 197  74 187 195  77 185 197  74 187 195  76 186 195
 75 185 194  76 186 197  77 185 195  76 186 195  76 186 195  76 186 195
 78 184 195  76 186 193  76 186 195  76 185 198  76 186 195  74 187 195  76 186 195  76
186 195  76 186 195  76 186 195  76 186 195  76 186 195  76 186 195  76 186 195  76 186
195  76 186 195  76 186 195  76 186 195  76 186 195  76 186 195  76 186 195  76 186 195
 76 186 195  76 186 195  76 186 195  76 186 195  76 186 195  77 185 195  76 186 195  77
185 195  76 186 195  76 186 195  75 185 192  76 186 193  75 185 192  77 185 197  77 186
193  78 187 194  77 186 191  77 186 193  76 186 195  76 186 193  77 185 195  76 186 197
 76 186 195  74 187 195  74 186 197  75 185 194  74 187 195  78 185 193
 77 185 195  76 185 198  76 186 195  77 185 195  73 186 194  77 185 197  74 187 195  76
186 195  76 186 195  76 186 195  76 186 195  76 186 195  76 186 195  76 186 195  76 186
195  76 186 195  76 186 195  76 186 195  76 186 195  76 186 195  76 186 195  76 186 195
 76 186 195  76 186 195  76 186 195  76 186 195  76 186 195  76 186 195  76 186 195  76
186 195  76 186 195  76 186 195  76 184 194  77 186 193  78 187 194  73 185 196  70 189
203  71 190 202  73 191 203  74 184 195  76 186 195  78 186 198  78 187 194  76 187 191
 75 184 197  77 185 198  77 187 196  76 186 195  77 185 197  76 186 195
 77 185 195  76 186 195  77 185 195  74 187 193  77 185 197  74 186 197  76 186 195  76
186 195  76 186 195  76 186 195  76 186 195  76 186 195  76 186 195  76 186 195  76 186
195  76 186 195  76 186 195  76 186 195  76 186 195  76 186 195  76 186 195  76 186 195
 76 186 195  76 186 195  76 186 195  76 186 195  76 186 195  76 186 195  76 186 195  76
186 195  76 186 195  76 186 195  76 186 195  74 188 198  72 190 200  87 178 183 104 161
155 101 153 151  99 160 162  82 190 200  78 186 196  78 186 196  74 188 198  73 187 198
 74 187 193  79 187 197  77 186 193  77 185 195  76 186 197  76 185 198
 76 186 195  76 186 195  76 186 197  76 186 195  76 186 195  76 186 195  76 186 195  75
185 194  76 186 195  76 186 195  76 186 195  76 186 195  76 186 195  76 186 195  76 186
195  76 186 195  76 186 195  76 186 195  76 186 195  76 186 195  76 186 195  76 186 195
 76 186 195  76 186 195  76 186 195  77 185 195  76 186 195  76 186 195  76 186 195  76
186 195  76 186 195  77 185 195  71 187 198 107 158 153 116 125 108 109 102  76 110  60
  0 102  36   1 101  75  27  75 170 172  66 183 192  74 183 190  81 178 185  86 179 186
 78 186 196  64 190 199  72 188 199  76 184 196  76 186 195  76 186 195
 76 186 197  76 186 195  76 186 195  76 186 195  74 187 195  76 186 195  76 186 195  76
186 195  76 186 195  76 186 195  76 186 195  76 186 195  76 186 195  76 186 195  76 186
195  76 186 195  76 186 195  76 186 195  76 186 195  76 186 195  76 186 195  76 186 195
 76 186 195  76 186 195  76 186 195  76 186 195  76 186 195  76 186 195  76 186 195  76
186 195  77 185 195  78 184 195  67 190 205 123 137 120 107  34   1  93  46   0 101  54
 12 107  65  17 118  77  31 148 115  64 153 150 115 153 145 108 176 138  89 172 136  86
130 143 123 110 161 156 101 179 183  83 189 200  75 185 194  77 187 196
 76 186 195  76 186 195  76 186 195  77 185 195  76 186 195  76 186 195  76 186 195  76
186 195  76 186 195  77 187 196  76 186 195  76 186 195  76 186 195  77 187 196  74 187
195  76 186 195  76 186 195  76 186 195  76 186 195  76 186 195  76 186 195  76 186 195
 76 186 195  77 187 196  76 186 197  77 185 195  76 186 195  76 186 195  76 186 195  76
186 197  76 186 195  77 185 195  69 191 202 119 133 120 107  42   0 126  84  44 128  85
 35 147 122  94 162 138 112 194 157 115 197 151  99 194 149  92 196 153 101 198 155 105
167 119  69 175 124  58 152 153 121  76 185 192  77 187 196  77 185 195
 77 185 195  76 186 195  76 186 193  76 186 197  77 185 195  76 186 195  77 185 195  76
186 195  76 186 195  76 186 195  77 185 195  76 186 195  76 186 195  75 185 194  76 186
193  76 186 195  76 186 193  77 187 196  75 185 194  77 185 195  76 184 194  76 186 195
 76 186 197  74 184 195  77 186 193  77 185 195  76 186 195  76 186 195  76 186 195  76
186 195  78 186 196  75 189 199  86 169 173 149 112  57 169 128  75 184 141  91 196 153
110 158 133 103   0   0   0 172 140 102 195 154 108 192 149  99 186 140  91 186 139  97
188 147 104 183 145 100 147 136  93  84 179 183  78 188 199  77 185 195
 76 186 195  76 186 195  77 185 195  74 187 195  76 186 195  76 186 195  76 186 195  76
186 195  77 185 195  76 186 195  76 186 195  76 186 195  76 186 195  76 186 195  76 186
195  77 185 195  74 187 195  77 185 195  76 185 192  69 183 193  75 189 200  79 186 194
 78 184 195  91 191 201  76 186 197  77 184 192  75 185 194  77 185 195  74 187 195  76
186 195  75 183 193  77 185 195  74 184 193 141 141 113 179 139  70 192 151 105 198 149
106 174 141 106 131 113  89 182 144  99 194 151  99 194 148  96 194 146  98 177 130  84
159 115  68 157 120  68 145 117  52  87 178 183  74 188 196  76 186 195
 74 187 195  77 185 195  76 186 195  77 185 195  76 186 195  77 185 195  76 186 195  76
186 195  76 186 197  76 186 195  74 187 195  75 188 196  74 187 195  76 186 195  76 186
195  76 186 195  76 186 195  76 189 195  71 185 195  89 193 202 122 177 172 149 132  89
151 130  87 165 180 159  80 188 198  74 188 198  77 185 195  76 186 195  77 187 198  75
185 194  80 186 197  80 184 195  67 186 198 114 184 184 165 134  90 191 148  95 190 149
 96 196 150  98 205 159 108 196 151  94 192 149  96 195 155 102 173 134  75 186 154 115
188 161 120 148 121  78 117 150 143  77 180 187  77 187 196  77 185 197
 76 186 195  74 187 195  76 186 195  74 187 195  76 186 195  74 187 195  76 186 195  76
186 195  76 186 195  77 187 196  77 185 195  76 186 195  76 186 197  76 186 197  76 186
195  77 187 198  76 184 194  80 186 199  81 180 186 136 152 139 153 124  82 163 121  73
160 128  79 148 107  43 134 145 128 109 188 192  70 188 198  78 185 193  75 185 194  76
186 195  75 185 194  79 186 194  61 189 202 155 172 154 179 140  83 193 152  98 192 150
 94 190 147  95 194 147  91 195 148  96 193 152  98 165 126  71 147 152 132 172 203 195
175 205 195 108 174 174  69 189 198  77 185 197  74 186 197  74 186 197
 77 185 195  77 185 195  74 187 195  77 185 195  74 187 195  76 186 195  74 187 195  76
186 195  76 186 195  77 185 195  77 187 196  77 187 196  76 186 195  76 186 195  76 186
197  76 186 195  76 184 194  76 193 202 163 167 150 150 110  41 165 124  80 166 124  88
158 121  76 158 126  77 156 116  57 150 141 108 109 177 178  64 189 201  78 185 193  76
186 197  77 185 195  80 184 191  66 190 202 132 147 128 181 138  70 192 149  97 191 150
 97 192 149  96 191 148  96 196 150 101 173 134  75 187 159 120 165 206 202   0 181 196
 24 181 196  70 188 200  77 185 195  76 186 197  79 185 196  76 186 195
 76 186 197  76 186 193  78 185 193  77 184 192  76 186 197  76 186 195  76 186 195  76
186 195  74 187 195  76 186 195  75 185 194  73 186 194  76 186 197  76 186 195  76 186
195  78 184 195  70 188 198 100 170 170 147 118  76 159 128  82 163 126  82 169 127  79
179 137  87 172 132  83 161 126  84 156 118  69 141 118  64 101 160 158  69 191 202  74
187 195  77 185 195  83 186 193  63 191 200 137 150 130 190 143  75 191 151 100 192 151
 98 194 148  97 193 147  96 197 155 105 167 123  50 160 162 139 134 205 209  62 182 191
 85 188 195  79 185 196  76 186 195  74 187 195  76 186 195  74 187 195
 74 186 197  68 190 201  71 190 202  75 187 198  77 185 195  76 186 195  77 185 197  80
187 195  83 187 196  79 186 194  77 185 195  76 186 193  77 185 195  77 185 195  82 186
195  48 183 195 138 200 199 165 145 110 150 117  66 165 124  80 184 140  93 194 151 101
196 150 101 192 146  94 185 139  88 176 136  87 158 121  76 148 116  67 123 135 113  90
175 180  73 193 202  45 190 203  70 170 176 163 125  76 196 148  98 195 149  98 193 147
 96 193 150  98 193 145  97 192 149  99 169 128  64 133 156 138  53 188 199  81 185 194
 76 186 195  77 185 197  76 186 197  76 186 197  76 186 197  76 186 195
 81 184 189 102 161 155  98 154 153  74 171 178  67 186 198  77 187 198  65 185 194  43
181 192  44 184 194  61 186 198  74 186 197  77 185 197  78 187 194  78 187 194  66 184
193 103 197 199 142 158 145 150 114  56 167 131  83 184 142  92 194 151  99 196 146  95
194 146  96 196 150  98 194 148  97 197 151 102 183 143  94 177 139  90 165 123  51 137
124  90 107 161 161 146 188 178 138 161 143 192 147  92 194 148  99 194 148  99 192 146
 95 193 147  95 197 151  99 184 142  94 160 125  70 160 173 156  62 187 199  81 185 194
 75 185 194  76 185 192  76 186 195  77 185 195  76 186 195  76 186 195
130 136 102 139 108   2 152 113  10 151 179 165 107 198 203  80 179 185 100 191 196 187
222 218 219 219 209 175 201 192  90 184 192  72 188 199  63 185 198  77 183 194  91 195
204 174 189 170 149 108  44 168 130  81 185 144  90 194 153 100 192 151  97 192 145  93
194 146  96 193 145  95 192 146  95 195 148  96 197 152  97 195 147  97 191 147 100 184
143  90 158 115  37 184 145  86 183 144  89 196 156 105 194 148  97 191 149 101 191 149
 99 196 150  98 195 149  97 176 136  87 147 122  84 153 198 195  60 186 195  78 184 195
 74 186 197  77 185 195  76 186 195  77 187 196  76 186 195  76 186 195
126  97   5 137 114  70 192 170 131 221 208 173 183 165 127 121 103  55 190 174 140 215
198 168 172 143 101 170 134  84 151 126  72 133 174 170 120 195 198  24 187 202 148 179
171 158 120  75 163 124  81 188 146  98 192 150 102 191 152  95 193 147  96 192 145  93
194 148  97 193 147  96 193 147  96 190 147  95 195 147  97 194 148  99 194 146  96 196
150  99 195 151 104 184 142  94 192 150 100 193 147  96 190 148 100 190 147  97 189 147
 97 199 149  99 189 147  97 159 123  65 160 162 141  85 189 200  75 185 194  76 186 195
 76 186 195  76 186 195  76 186 195  76 186 195  76 186 195  76 186 195
194 172 133 132 100  51 135 103  62 122  87  32 138 105  60 143 109  64 130  97  42 138
104  43 163 132  76 155 134  87 160 135  81 177 137  78 158 152 126 188 195 177 190 172
134 201 167 122 194 150 103 195 149 100 191 148  98 194 146  98 193 150  97 193 150  97
194 148  96 194 148  96 194 148  97 193 145  95 191 148  98 195 147  97 191 150  96 191
148  96 195 152 100 194 148  97 193 147  96 196 150  98 191 148  96 192 149  97 197 151
100 192 150  94 173 137  87 152 124  76 139 189 188  71 188 203  74 187 193  77 185 197
 77 187 196  76 186 195  76 186 195  76 186 195  76 186 195  76 186 195
180 212 197 124 104  71 149 111  62 144 115  73 143 108  70 143 111  70 147 111  59 149
119  81 137 178 164  75 185 194 117 177 177 154 145 112 172 133  74 174 134  81 181 143
 98 199 158 114 195 152 102 189 148  94 193 147  96 194 151  99 197 149  99 197 146  99
193 147  95 193 147  96 195 149  98 195 149  98 195 148  94 192 149  96 192 149  96 192
149  97 191 144  98 194 150 103 193 147  96 189 146  93 190 149  95 190 147  95 197 151
 99 182 142  93 153 116  62 138 164 151  71 191 199  74 182 192  78 184 197  77 187 198
 76 186 193  76 186 195  77 187 196  76 186 195  76 186 195  76 186 195
 67 191 203 101 179 181 134 112  71 143 107  49 148 115  72 147 113  68 136 112  64  90
173 177  63 191 202  78 187 194  63 188 200 108 183 180 166 147 104 182 141  88 194 150
105 190 147  95 192 146  95 193 147  98 196 146  95 193 147  96 195 149  97 195 147  97
195 147  97 192 149  97 197 149  99 195 149  98 193 147  98 195 147  97 195 149  98 194
148  97 192 149  97 191 148  98 194 146  96 196 149  95 197 149  99 196 150  99 178 136
 90 161 120  66 137 126  96 102 187 192  69 186 195  79 187 197  74 187 195  76 186 195
 76 186 195  76 186 195  74 187 193  76 186 195  76 186 195  76 186 195
 71 184 192  69 185 196  84 181 190  74 177 184 144 201 206 173 212 215  77 181 188  74
188 198  80 184 193  77 187 196  77 186 193  68 192 202 118 155 148 175 131  58 192 152
101 198 148  98 193 146  94 196 150  99 194 148  96 194 146  96 193 147  95 195 147  97
194 148  97 193 147  98 195 149  97 194 148  97 194 146  96 196 150  99 194 148  97 197
147  97 195 145  95 191 145  93 194 146  96 194 151  98 190 147  97 177 138  97 162 122
 69 136 123  91  83 176 183  69 187 197  77 186 193  77 185 195  77 187 196  77 185 195
 77 185 195  76 186 195  76 186 195  76 186 195  76 186 195  76 186 195
101 193 204  78 184 195  76 188 199  74 188 198  68 186 196  63 185 196  75 188 196  77
186 193  76 186 195  77 185 197  78 185 191  68 190 201 109 154 147 184 138  65 192 151
 98 195 145  95 191 148  96 190 149  96 193 150  98 195 147  97 194 148  97 194 148  97
194 148  97 192 146  95 193 147  96 193 147  96 193 147  96 195 147  97 191 150  97 195
147  97 193 147  96 191 150  97 195 152 102 186 144  96 173 132  88 153 112  56 137 122
 91  85 178 183  71 189 199  78 184 195  76 186 195  76 186 195  76 186 195  76 186 195
 76 186 195  76 186 195  76 186 195  77 185 195  76 186 195  76 186 195
 89 191 201  78 186 196  78 187 194  76 186 195  78 186 196  78 186 196  76 186 193  76
186 195  74 187 195  76 186 195  80 184 193  71 190 202 109 151 147 182 136  63 193 152
 99 196 146  95 192 149  99 192 150 100 192 149  97 194 148  97 194 148  97 194 148  97
194 148  97 194 148  97 195 149  98 194 148  97 192 146  95 193 147  98 191 148  96 194
148  97 193 152  99 191 148  98 180 138  92 164 125  84 155 117  70 168 145 101  99 183
191  67 186 198  77 184 192  76 186 195  78 186 196  74 187 195  76 186 197  76 186 195
 76 186 195  76 186 197  76 186 195  76 186 195  76 186 195  76 186 195
 72 186 194  76 186 195  75 185 194  74 187 195  76 186 193  77 187 196  76 186 195  77
187 196  76 186 195  76 186 195  80 184 191  67 189 200 120 163 156 168 125  57 185 147
100 196 150  99 192 147  90 191 148  98 192 149  97 196 145  98 194 148  97 194 148  97
195 149  98 193 147  96 192 146  95 193 147  96 193 147  96 194 146  96 190 149  96 193
147  96 191 145  94 180 138  92 163 120  77 168 130  81 153 116  61 195 177 141 128 180
175  51 186 198  75 189 199  75 188 196  76 186 195  76 186 195  77 187 196  76 186 195
 75 185 194  77 187 196  76 186 195  76 186 193  76 186 195  76 186 195
 76 186 195  78 184 195  77 185 195  76 186 197  73 185 196  76 186 195  76 186 195  76
186 195  75 185 194  76 186 195  77 187 196  61 193 205 129 157 145 167 121  46 162 124
 85 187 144  94 199 153 101 192 149  99 190 147  97 192 149  97 195 147  99 194 148  99
195 148  96 196 148  98 194 148  97 194 148  97 195 149  98 192 146  95 195 150  95 191
148  96 193 150 100 188 145  95 171 129  83 176 135  82 191 151  98 168 128  69 152 119
 66 137 139 116 111 144 133  77 184 192  76 186 195  76 186 193  76 186 195  74 186 197
 77 185 195  76 186 195  76 186 195  76 186 195  76 186 195  76 186 195
 76 186 195  76 186 197  77 187 196  74 186 197  78 187 194  77 187 196  75 185 194  77
185 197  78 186 196  74 188 198  75 178 185 118 155 148 174 137  85 189 148  94 185 147
 98 173 133  80 181 142  87 190 150  97 195 149 100 194 147  95 192 150  94 194 146  96
193 149 102 177 135  89 172 131  85 176 135  91 185 143  97 196 150  99 190 147  97 194
148  97 194 148  99 192 149  99 193 147  96 191 148  98 191 148  98 196 155 101 191 149
 93 190 145  80 173 126  56 112 151 146  70 189 201  78 184 195  74 187 195  77 187 196
 76 186 195  76 186 193  77 187 196  76 186 197  76 186 195  77 185 195
 77 185 195  77 185 197  76 186 195  78 186 196  74 187 195  76 186 195  74 187 195  78
184 195  71 185 195  81 176 180 134 128  94 183 136  66 194 151  99 194 152  96 179 144
 86 158 136  97 177 148 106 179 140  83 190 147  95 190 150  91 196 151  96 195 155 106
179 137  91 151 100  43 154 107  53 138 100  51 140 104  54 180 144  94 194 155 100 197
150  98 193 147  96 195 149  98 196 150 101 193 145  97 191 148  96 187 146  92 194 151
 98 193 151 101 189 145  98 155 146 113  93 186 191  69 186 195  81 185 194  76 186 197
 77 185 195  76 186 197  75 188 196  77 187 196  78 186 196  75 185 194
 74 187 195  76 186 195  76 186 195  74 187 195  77 187 196  76 186 195  77 185 195  76
186 197  85 193 203 142 132  99 183 144  87 191 151 102 193 151  95 170 134  86 107 158
151 117 196 201 203 192 170 165 126  59 197 154 101 191 143  93 193 150 100 181 139  81
179 150 110 145 152 134 118 142 128 170 159 131 181 158 124 175 142  91 172 130  58 188
147  93 193 150  98 195 147  97 194 143  96 196 148  98 190 147  97 162 123  64 184 145
 88 194 151  99 196 153 101 180 139  77 132 156 142  83 192 199  69 185 196  79 186 192
 76 186 195  77 185 195  76 186 195  76 186 195  77 185 195  76 184 194
 76 186 193  76 186 197  77 187 196  75 185 194  76 186 195  76 186 195  77 186 193  67
189 200 114 160 157 174 137  83 190 147  97 194 151  99 186 141  84 129 141 117  62 191
204  77 184 192 146 142 117 185 144  90 193 150  98 194 151 101 190 143  89 155 147 111
153 199 189 114 199 204  67 189 200 143 204 199 165 206 202 131 181 180 122 171 167 149
139 106 162 130  73 186 144  84 197 154 104 193 147  98 192 150  94 177 136  83 156 121
 63 173 138  83 180 141  84 193 154  99 169 132  77 139 160 141 107 192 195  67 185 197
 78 185 191  78 187 194  78 184 195  74 187 195  76 186 195  76 186 195
 76 186 197  78 187 194  76 186 195  76 186 195  76 186 197  76 186 195  76 184 194  67
191 201 125 139 122 181 133  67 199 152 106 194 154 101 172 132  70  88 172 174  75 189
199  80 184 191 155 128  83 192 151  98 191 149  99 191 151 100 156 117  62 107 165 166
 45 189 198  64 182 194  78 185 193  47 182 194  21 180 193  55 187 199  78 190 201  78
186 196  94 163 160 166 145 102 171 132  77 188 148  97 193 152  96 189 150  95 175 140
 85 189 159 109 185 154 110 160 126  78 188 152 100 173 131  73 159 159 135  92 191 197
 76 193 202  63 187 197  73 185 196  76 186 197  76 184 194  78 186 196
 76 186 197  76 186 195  74 187 195  77 187 196  76 186 195  76 186 195  78 185 193  67
191 201 123 147 133 186 143  77 193 150 107 178 130  56 124 137 117  74 184 193  72 190
200 111 162 155 180 143  89 194 148  97 195 152 100 181 136  79 163 168 146  67 189 202
 81 185 194  79 185 196  77 185 195  79 186 194  83 187 196  79 186 194  77 186 193  77
187 196  71 187 200 126 194 195 144 166 151 178 143  85 179 138  84 196 153 101 186 149
 95 162 140  91 199 180 137 189 170 127 169 133  81 194 154 103 178 137  83 131 154 136
111 171 169 144 184 183  92 191 197  70 186 197  79 189 200  64 184 192
 74 187 195  76 186 193  78 186 196  76 186 195  77 185 195  77 185 195  73 189 200  88
171 175 157 126  82 194 155  98 175 135  66 137 166 161  74 186 197  76 188 199  77 184
192 152 142 109 192 146  87 194 152 102 178 137  75 168 159 130 124 195 197  67 185 194
 79 187 197  74 187 195  76 186 195  76 186 195  77 187 196  76 186 195  77 185 195  76
186 195  81 185 194  56 184 195  73 191 200 183 205 190 172 147 109 177 141  93 195 152
102 191 150  96 165 130  75 189 167 118 188 170 120 166 130  70 196 153 103 193 144  86
181 140  84 175 139  89 138 125  91 167 165 127 156 192 180 103 196 203
 75 185 194  76 186 193  76 186 195  76 186 195  76 186 195  78 185 193  71 189 199  99
167 168 177 137  75 184 142  92 154 151 108  79 186 192  76 186 197  59 189 199 118 165
157 189 143  84 192 150 102 185 147  98 162 134  86 126 186 184  58 187 200  78 185 193
 77 187 196  76 186 197  77 185 195  76 186 195  76 186 195  77 187 196  75 185 194  76
186 195  74 187 195  82 186 195  70 182 193  73 191 203 168 190 177 167 134  83 193 153
104 190 142  92 196 156 103 153 117  43 194 210 184 135 158 138 167 127  55 193 156 101
190 149  95 169 127  79 163 120  67 158 122  72 140 113  62 164 169 149
 76 186 195  76 186 195  77 185 195  76 186 195  76 184 196  78 186 196  66 188 201 128
150 125 191 149  93 172 133  78 111 168 162  79 191 202  74 187 195  96 175 179 179 148
101 196 146  96 196 153 103 171 130  77 170 184 167  85 192 200  72 184 195  77 187 196
 74 187 195  76 186 195  76 186 195  76 186 195  77 185 195  74 187 195  78 186 196  76
186 195  77 185 195  75 188 196  78 187 194  71 183 194  75 191 202 140 154 131 182 137
 72 194 152 102 190 150 101 182 141  79 124 169 164  67 193 202 121 145 129 166 124  52
159 125  77 164 126  87 168 130  93 160 127  86 144 107  29 110 160 149
 76 186 195  76 186 195  76 186 195  74 187 195  78 187 194  70 188 197  96 166 165 178
137  83 191 146  81 160 146 120  90 187 194  72 185 191  70 188 198 130 145 126 194 142
 85 196 149 105 188 146  96 160 141  98  80 184 191  69 185 196  78 186 196  75 185 194
 77 186 193  76 186 195  76 186 195  76 186 197  76 186 195  76 184 196  76 186 195  75
185 194  76 186 195  75 185 194  74 187 193  78 187 194  72 189 198  88 168 169 148 117
 63 181 142  87 193 151 101 191 141  90 141 149 126  75 187 198  62 186 196 146 166 154
174 141 100 140 100  15 152 112  50 156 127  70 143 160 141  82 180 189
 76 186 195  76 186 195  76 186 195  76 186 195  77 185 195  71 189 198 135 138 111 187
145  89 184 143  79 125 147 132  66 189 204  81 183 195  68 187 199 138 140 117 189 143
 84 192 154 105 170 130  81 126 169 162  72 189 198  80 184 195  76 186 197  77 187 196
 76 186 195  76 186 195  74 187 195  76 186 195  76 186 195  77 187 196  76 186 197  76
186 197  76 186 195  75 185 194  76 186 195  76 186 195  81 184 198  62 187 199 118 179
181 176 157 124 170 130  79 199 153 104 167 144 102  78 182 191  61 183 194 104 197 204
147 197 194 160 195 189 156 192 188  95 176 179 108 198 206  73 187 198
 76 186 195  76 186 195  76 186 195  77 186 193  72 190 202  99 161 158 162 130  69 191
153 108 179 143  81 128 155 136  68 187 199  78 185 191  69 188 202 133 136 115 185 146
 89 187 142  85 164 156 135 112 195 201  62 184 193  79 185 196  76 186 195  77 187 196
 76 186 195  74 187 195  76 186 195  76 186 195  76 186 193  75 185 194  76 186 195  76
186 195  78 186 196  75 185 194  76 186 195  77 185 195  76 186 195  83 185 195  58 188
198 147 196 193 182 157 126 184 146  97 185 146  81 136 144 119  90 190 196  56 181 193
 69 187 199  89 193 202  84 191 199  68 188 197  65 181 192  79 185 196
 76 186 195  74 187 195  75 185 194  78 185 193  70 189 201 102 163 158 158 121  43 169
135  90 168 130  67 134 149 128  66 188 199  81 185 194  67 186 198 135 137 114 188 147
 93 189 141  77 126 143 133  61 190 203  79 186 194  78 184 195  76 186 195  75 185 194
 77 187 196  76 186 195  76 186 195  76 186 197  76 186 195  76 186 195  76 186 195  76
186 195  76 186 195  76 186 195  76 186 195  76 186 195  76 186 197  74 187 195  80 184
195  55 187 199 140 189 186 161 121  60 191 154  99 176 137  82 124 169 162  85 192 200
 76 185 190  73 187 197  75 185 194  78 187 194  77 185 195  76 186 195
 76 186 195  76 186 197  76 186 195  78 185 193  69 191 202 104 159 154 149 114  12 164
133  87 159 125  80 143 121  82  88 169 170  75 189 199  69 186 195 137 136 114 187 146
 92 183 140  72 121 139 127  69 191 202  78 184 197  77 185 195  76 186 195  76 186 195
 76 186 195  77 185 195  76 186 195  76 186 195  76 186 195  76 186 195  76 186 195  76
186 195  76 186 195  76 186 195  77 187 196  76 186 195  76 186 195  77 185 195  76 186
195  78 188 197  69 183 193 132 130 105 182 142  91 188 151  97 158 132  84 172 163 124
123 128  98  93 172 176  74 188 198  77 185 195  76 186 195  76 186 195
 76 186 195  77 187 196  74 187 195  77 186 193  75 187 198  82 179 185 132 131 103 161
130  83 170 137  92 169 139  89  91 165 164  73 189 200  70 188 197 149 145 118 190 149
 93 176 133  64 124 143 124  67 191 201  78 184 195  77 187 198  76 186 195  74 187 195
 77 186 193  76 186 195  76 186 195  76 186 195  76 186 195  76 186 195  76 186 195  76
186 195  76 186 195  76 186 195  76 186 195  76 186 195  74 187 195  76 186 195  75 185
194  77 184 192  76 192 203 102 168 168 164 122  48 181 148  95 160 123  71 156 120  72
159 124  68 127 127 101  73 187 198  78 187 194  77 187 196  77 187 196
 77 185 195  76 186 193  76 186 195  76 186 195  77 185 195  71 189 198  87 187 193 147
187 178 155 154 132 137 141 124  90 169 173  65 193 206 108 160 156 171 137  76 194 154
103 177 133  62 118 139 124  70 189 201  78 187 194  76 186 195  76 186 197  76 186 193
 76 186 195  76 186 195  76 186 195  76 186 195  76 186 195  76 186 195  76 186 195  76
186 195  76 186 195  76 186 195  76 186 195  76 186 195  75 184 197  76 186 195  76 186
195  76 186 193  78 186 196  72 186 196 125 155 143 163 128  72 150 118  71 169 132  90
155 113  55 122 146 132  74 188 199  75 184 191  76 186 195  76 186 195
 76 186 195  77 185 195  76 186 195  76 186 197  76 186 195  77 185 195  73 187 195  69
185 198  65 187 200  72 191 197  79 185 196  65 188 203 116 156 147 182 134  50 197 156
112 181 134  66 119 141 126  66 189 204  81 183 193  76 186 195  77 185 195  74 186 197
 76 186 195  75 185 194  76 186 195  76 186 195  76 186 195  76 186 195  76 186 195  76
186 195  76 186 195  76 186 195  77 187 196  76 186 195  76 186 193  77 187 196  75 185
194  77 185 195  77 185 197  75 187 198  71 189 201 178 195 185 176 149 106 141 104   0
124 145 130  80 190 201  76 186 195  77 187 196  76 186 195  76 186 195
 77 187 196  76 186 195  76 186 195  77 187 196  76 186 195  74 187 195  76 186 195  78
186 196  79 188 193  76 184 194  78 185 193  71 189 201 106 165 161 158 126  65 163 129
 83 170 131  76 135 152 136  69 189 197  77 187 196  76 186 195  75 185 194  77 186 193
 76 186 195  76 186 195  76 186 195  76 186 195  76 186 195  76 186 195  76 186 195  76
186 195  76 186 195  76 186 195  76 186 195  76 186 197  76 186 195  77 185 195  76 186
195  75 185 194  75 185 194  78 186 196  65 185 194  95 193 202 114 188 189  79 174 178
 79 188 195  72 186 194  77 186 193  75 185 194  76 186 195  76 186 195
 76 186 195  76 186 195  76 186 195  77 187 196  76 186 197  78 185 193  74 187 195  76
186 195  77 185 195  75 188 194  77 185 195  78 188 199  74 174 180 168 154 117 195 167
130 212 189 157 214 211 194 124 194 202  62 182 191  80 187 195  77 187 198  76 185 198
 76 186 195  76 186 195  76 186 195  76 186 195  76 186 195  76 186 195  76 186 195  76
186 195  76 186 195  76 186 195  76 186 195  76 186 195  76 186 195  76 186 195  76 186
197  76 186 197  76 186 195  76 186 195  79 185 196  71 183 195  63 185 194  75 189 199
 77 185 195  77 185 195  76 186 195  76 186 197  76 186 195  76 186 195
 76 186 195  74 187 195  78 186 196  76 186 195  77 185 195  76 186 195  78 186 196  76
186 195  77 185 195  76 186 195  77 185 195  75 185 194  85 189 198 165 187 174 196 197
183 174 213 208 131 200 205  95 189 197  70 187 194  76 184 194  76 186 195  76 186 195
 76 186 195  76 186 193  76 186 195  76 186 195  76 186 195  76 186 195  76 186 195  76
186 195  76 186 195  76 186 195  75 185 194  76 186 195  76 186 195  76 186 195  76 186
195  76 186 195  77 187 196  76 186 195  76 186 195  77 185 197  78 186 196  77 185 195
 77 185 195  76 186 195  76 186 195  75 185 194  76 186 195  76 186 195
 74 186 197  74 187 195  73 188 193  77 187 196  76 186 193  76 186 195  77 187 196  76
186 195  76 186 195  76 186 195  76 186 195  79 187 197  79 187 197  74 188 198  88 188
196  73 187 197  46 181 193  72 186 194  77 185 195  76 186 195  76 186 195  76 186 195
 76 186 195  76 186 195  76 186 195  76 186 195  76 186 195  76 186 195  76 186 195  76
186 195  76 186 195  76 186 195  76 186 195  75 185 194  76 186 195  76 186 195  77 185
195  76 186 195  76 186 195  76 186 195  76 186 195  76 186 195  76 186 195  76 186 195
 76 186 195  77 187 196  77 187 196  74 187 193  74 186 197  74 186 197
146 211 217  77 187 196  78 186 196  76 186 195  76 186 195  76 186 195  76 186 195  76
186 195  76 186 195  76 186 195  76 186 195  77 185 195  78 186 196  77 185 195  72 185
193  77 185 195  79 186 194  76 186 197  76 186 195  76 184 194  76 186 195  76 186 195
 76 186 195  76 186 195  76 186 195  76 186 195  76 186 195  76 186 195  76 186 195  76
186 195  76 186 195  76 186 195  76 186 195  76 186 195  76 186 195  76 186 195  76 186
195  76 186 195  76 186 195  76 186 195  76 186 195  76 186 195  76 186 195  76 186 195
 76 186 195  76 186 195  76 186 195  78 186 196  77 187 196 146 211 217
