P3
# 8-bit ppm - RGB
50 50
255
 16  16  14  16  16  14  15  15  13  16  16  14  15  15  13  15  15  13  16  16  14  15
 15  13  15  15  13  15  15  13  16  16  14  15  15  14  16  16  14  16  16  13   9  10
 14  27  26  25  61  53  43  65  52  40  52  39  31  48  33  25  47  32  23  45  30  22
 48  32  27  49  33  29  47  31  26  45  29  23  43  29  21  43  29  20  42  28  23  41
 29  26  39  25  22  34  21  18  32  18  16  30  23  22  23  20  18  15  14  12  13  14
 12  14  14  12  14  14  12  14  14  12  14  14  12  13  13  11  14  14  12  14  14  12
 14  14  12  13  13  11  13  13  11  13  13  11  13  13  11  13  13  11
 16  16  14  16  16  14  16  16  14  16  16  14  16  16  14  16  16  14  16  16  14  16
 16  14  16  16  14  16  16  14  16  16  14  17  17  14  15  15  13  13  14  16  50  41
 37  66  53  43  66  50  39  59  42  32  53  37  30  63  45  39  62  43  35  59  39  34
 68  46  40  75  51  46  79  54  47  78  53  45  69  46  41  64  41  36  53  35  27  44
 29  25  38  23  20  36  22  17  35  23  16  28  18  14  27  21  17  24  18  17  16  15
 12  13  14  11  14  14  12  14  14  12  14  14  12  13  13  11  13  13  11  14  14  12
 13  13  11  13  13  11  13  13  11  13  13  11  13  13  11  13  13  11
 18  18  16  17  17  15  16  16  14  17  17  15  17  17  15  16  16  14  16  16  14  16
 16  14  17  17  15  16  16  14  18  18  16  14  15  15  21  20  22  54  44  40  64  48
 38  56  40  28  65  47  42  74  55  47  73  52  44  87  64  56  89  67  55  87  65  57
102  75  68 102  73  65 101  73  64 109  81  71  93  64  56  95  67  59  83  59  51  66
 47  39  61  43  37  52  34  27  39  27  19  33  22  17  27  19  13  25  15  13  22  19
 14  18  17  13  14  14  11  14  14  12  14  14  12  14  14  12  14  14  12  13  13  11
 13  13  11  13  13  11  13  13  11  13  13  11  13  13  11  13  13  11
 17  17  15  17  17  15  17  17  15  18  18  16  17  17  15  16  16  14  18  18  16  17
 17  15  17  17  16  18  18  17  15  15  17  21  19  20  50  40  36  63  44  35  68  47
 37  74  51  42  82  58  49  96  70  61 102  75  65 103  77  65 106  80  67  96  68  60
107  79  69 118  89  77 114  84  72 108  80  66  94  66  54  91  61  50  96  69  59  90
 65  54  87  62  53  79  52  44  61  36  28  46  29  21  40  26  20  31  18  14  23  15
 12  23  19  15  19  17  15  13  14  12  14  14  12  14  14  12  13  13  11  13  13  11
 13  13  11  13  13  11  13  13  11  13  13  11  13  13  11  13  13  11
 16  16  14  17  17  15  17  17  15  17  17  15  16  16  14  17  17  15  18  18  16  17
 17  15  18  17  16  19  16  17  22  18  21  44  36  31  54  41  31  71  52  44  88  62
 53 101  70  61 112  81  70 117  86  76 117  86  76 120  89  80 130  99  90 133 102  94
121  90  82 110  79  73 118  88  79 121  91  82 121  90  81 128  93  85 130  95  84 130
 94  82 124  89  74 111  76  63  93  62  48  76  47  35  57  31  24  43  23  18  34  22
 19  25  15  13  21  16  14  17  16  14  13  14  12  14  14  12  14  14  12  13  13  11
 13  13  11  14  14  12  13  13  11  13  13  11  14  14  12  13  13  11
 17  17  15  16  16  14  17  17  15  16  16  14  16  16  14  16  16  14  16  16  14  16
 16  14  17  17  16  19  16  18  40  32  28  51  38  30  63  46  39  85  63  53 115  86
 76 138 106  96 158 124 114 167 132 125 168 135 128 168 137 131 177 145 140 190 158 150
193 160 153 178 141 131 160 126 120 167 133 125 177 138 126 180 139 123 186 140 123 185
139 121 178 131 111 168 120 103 145  97  80 125  84  67 105  66  51  78  46  36  46  27
 19  32  21  15  22  14  10  21  16  13  15  15  13  14  14  12  14  14  11  13  13  11
 13  13  11  13  13  11  14  14  12  13  13  11  13  13  11  12  12  10
 16  16  14  16  16  14  17  17  15  16  16  14  17  17  15  17  17  16  16  16  15  17
 17  15  15  14  13  35  29  27  48  40  32  60  48  40  89  67  61 117  90  81 158 129
122 191 160 154 206 175 170 214 180 174 216 183 176 214 180 172 216 182 173 218 182 172
217 180 170 214 174 160 209 168 155 201 159 142 202 157 140 199 154 133 199 149 128 196
144 123 192 139 117 188 134 113 181 126 106 170 116  94 157 103  81 137  88  68 103  64
 46  49  28  19  29  18  17  25  16  13  19  16  15  15  13  12  13  13  11  13  13  11
 13  13  12  13  13  12  13  13  11  13  13  11  13  13  11  12  12  10
 16  16  14  17  17  15  16  16  14  16  16  14  17  17  15  17  17  17  17  16  16  14
 16  13  25  22  20  50  38  35  58  42  35  75  53  48 125 100  98 175 147 141 204 177
170 219 193 187 224 196 188 225 195 184 224 191 181 223 187 177 220 184 173 218 182 170
215 178 166 210 173 157 210 172 153 207 163 145 206 159 141 201 154 136 200 148 129 197
146 126 191 141 120 188 134 113 184 129 106 177 122 100 169 113  91 159 105  83 147  97
 73 109  66  47  54  30  22  27  16  12  22  15  11  17  14  13  12  13  11  13  13  11
 13  13  11  13  13  11  13  13  11  13  13  11  13  13  12  12  12  12
 17  17  15  17  17  15  17  17  15  17  17  15  17  17  15  16  16  15  18  17  17  15
 16  16  40  34  30  58  43  36  65  49  43 101  82  81 176 152 154 218 190 187 225 198
190 225 198 188 223 194 180 222 192 177 222 189 175 222 185 175 219 181 171 217 180 169
215 177 164 211 172 153 210 171 151 209 165 148 207 160 143 205 157 139 201 151 132 199
148 128 193 142 121 190 137 115 185 130 108 179 125 103 172 118  96 165 113  87 154 104
 78 141  91  68 102  62  44  38  22  16  26  15  13  20  15  13  14  14  12  13  13  11
 13  13  12  13  13  11  13  13  11  13  13  11  13  13  11  12  12  12
 17  17  15  17  17  15  17  17  15  16  16  14  17  17  15  18  18  17  16  16  17  23
 22  21  52  41  35  61  45  33  89  69  66 144 123 124 202 180 179 226 201 192 224 198
188 225 194 182 226 189 178 221 189 176 222 187 175 222 183 172 220 182 171 219 181 171
216 177 163 211 173 154 209 171 151 210 167 147 208 164 145 205 161 141 200 153 131 199
148 125 192 142 118 189 137 114 187 130 109 178 126 104 174 122 100 167 115  91 158 105
 80 146  96  72 130  85  63  75  46  32  29  15  11  21  15  12  14  14  12  13  13  12
 13  13  14  14  14  12  14  14  12  13  13  11  13  13  11  13  13  11
 15  15  13  15  15  13  15  15  12  15  15  14  16  16  15  17  17  16  13  14  14  33
 29  27  59  46  36  80  59  57 129 111 104 174 157 151 209 188 182 225 198 187 224 195
184 223 190 179 222 185 174 221 187 175 220 186 174 221 185 174 221 183 172 216 180 166
213 178 160 210 175 155 210 173 153 212 169 149 210 167 148 207 164 144 205 156 135 200
149 129 194 144 122 192 139 117 187 132 110 181 129 104 176 125  99 172 121  97 164 114
 88 150 100  76 140  92  70 110  71  51  53  30  20  27  17  12  17  16  14  14  15  13
 15  14  13  14  14  12  14  14  12  14  14  12  14  14  12  14  14  12
 16  16  14  15  15  13  15  15  13  15  15  15  15  15  16  18  18  16   4   7   6  54
 48  46  78  62  54 119 100  97 161 144 132 183 167 157 210 189 182 224 194 186 224 192
180 223 188 177 221 187 175 222 188 176 222 189 177 221 188 176 220 182 171 218 179 164
216 176 158 213 172 154 210 168 149 214 166 148 213 167 149 211 166 147 208 159 139 202
152 132 199 148 127 193 139 118 187 132 110 181 129 105 179 127 103 175 126 101 169 120
 94 155 105  82 148  98  77 124  83  63  79  50  37  39  23  16  22  16  13  14  15  13
 14  14  12  13  13  11  13  13  11  13  13  11  14  14  12  15  15  13
 16  16  14  17  17  15  17  17  15  18  18  16  17  17  16  22  21  18   0   1   6  83
 73  72 117 100  91 148 130 121 172 155 140 189 173 162 211 190 181 221 194 182 221 189
177 221 189 177 222 190 177 223 190 178 223 188 177 221 187 175 222 183 172 223 177 165
217 175 158 213 169 150 213 167 148 214 168 149 213 168 148 211 166 146 208 161 141 204
155 134 201 150 129 195 141 120 188 133 111 181 129 104 176 128 101 177 128 103 174 123
 99 160 108  85 152 102  80 130  84  65  98  64  48  57  36  26  27  16  13  17  14  12
 13  13  11  13  13  11  13  13  11  13  13  11  16  16  14  15  15  13
 18  18  16  18  18  16  18  18  16  18  18  16  17  17  15  22  20  17   0   0   2  97
 87  86 147 129 120 167 150 137 173 157 141 192 176 164 214 190 181 220 190 178 220 188
176 220 188 176 221 189 176 222 189 177 223 189 176 222 188 175 223 184 173 221 180 166
217 177 159 215 170 150 212 166 147 213 168 150 215 170 149 212 166 146 208 161 141 203
155 134 200 150 129 196 145 122 188 137 114 183 131 109 175 127 104 176 127 103 175 124
100 164 112  89 147  99  76 136  92  72 104  71  54  66  44  32  35  19  13  20  15  11
 13  14  12  13  13  11  13  13  11  14  14  12  14  14  12  15  15  13
 17  17  15  17  17  15  18  18  16  18  18  16  17  17  16  20  19  14   0   1  12 118
110 108 162 145 132 164 148 134 176 160 148 193 176 164 212 186 175 218 187 172 219 188
175 222 187 176 221 188 176 222 187 173 220 184 170 217 181 165 218 177 162 216 176 157
215 174 154 213 169 149 211 165 147 212 166 147 211 164 145 209 163 143 206 159 139 200
151 131 197 148 128 192 142 122 187 137 116 181 132 111 174 130 107 175 127 101 171 122
 96 161 113  88 146  99  76 136  97  75 116  82  61  77  51  37  38  23  13  24  17  13
 14  14  13  14  14  12  17  17  15  16  16  14  15  15  13  17  17  15
 17  17  15  17  17  15  16  16  14  18  18  16  18  18  16  18  17  12   6  12  29 133
122 119 161 147 129 164 148 130 179 162 148 201 178 166 213 185 173 217 187 173 219 189
175 222 188 175 221 187 175 219 184 171 217 181 166 213 175 158 211 165 149 208 162 142
203 157 137 206 160 141 205 157 139 207 159 142 203 157 137 201 155 134 199 148 128 193
142 123 192 145 125 188 142 124 184 137 121 181 135 118 178 135 116 179 131 112 171 121
 99 160 110  87 146 101  78 136  98  76 126  87  68  86  56  42  42  26  18  27  19  14
 16  15  13  16  16  14  16  16  13  15  15  13  15  15  13  13  13  11
 17  17  15  16  16  14  17  17  15  16  16  14  19  18  17  10   9   1  30  31  42 136
126 118 162 146 131 167 150 133 184 167 152 208 183 171 214 184 169 216 186 172 219 187
173 222 185 170 219 181 167 215 176 162 212 175 157 208 171 151 207 164 146 201 157 135
198 151 125 196 147 121 197 148 127 201 152 133 195 148 124 189 141 116 184 134 107 179
130 105 176 130 108 167 126 101 158 116  94 165 124 102 165 123 102 158 115  94 162 116
 93 157 111  88 145 102  78 138  95  75 129  89  70  96  67  50  48  31  23  27  17  13
 20  17  14  14  15  13  16  15  13  15  15  13  13  13  11  12  12  10
 16  16  14  17  17  15  17  17  15  16  16  14  19  19  18   5   3   0  38  41  47 143
133 124 166 146 132 162 145 128 187 170 161 211 187 171 213 183 168 213 183 169 217 181
163 199 160 135 184 143 119 183 142 116 167 124  94 158 112  85 161 117  92 162 117  93
171 122  98 179 130 105 186 136 114 192 140 120 184 133 109 172 121  94 157 109  81 136
 88  61 111  68  45  98  61  39  94  58  39 106  74  56 135  99  78 136  95  73 131  88
 65 143 100  78 144 101  80 136  93  73 129  89  70  99  70  53  49  32  23  33  23  17
 20  17  14  16  17  15  16  16  14  13  13  11  13  13  11  13  13  11
 17  17  15  17  17  15  16  16  14  17  17  15  20  20  18   7   4   0  39  42  49 145
134 126 162 141 123 156 138 123 192 176 165 212 188 171 212 182 167 213 183 168 200 165
140 178 136 113 171 128 103 149 108  83 100  61  41  78  43  29  74  39  25  87  46  32
125  76  57 150 100  74 173 123 102 185 133 114 175 124  99 154 103  72 128  77  53 109
 66  46  79  47  43  65  45  37  79  52  46  88  62  54  94  69  60 115  82  68 126  86
 65 122  80  61 133  95  75 132  94  72 128  90  70 100  72  54  49  31  22  37  27  21
 21  18  15  15  16  14  13  13  11  12  12  10  12  12  11  13  13  11
 16  16  14  15  15  13  16  16  14  16  16  15  20  20  20   0   0   0  48  49  56 146
132 125 158 139 120 158 141 125 196 176 165 211 186 171 211 183 168 205 175 156 186 151
126 174 140 112 142 110  93 137 111 101 152 125 110 146 113  94 128  90  74 116  82  70
 98  67  56 130  90  70 184 138 121 209 165 144 193 144 112 155 104  72 117  75  55  94
 74  67 116  96  79 132 106  84 145 112  96 150 113  97 136  97  83 114  85  73 103  77
 65 125  88  72 129  87  70 129  93  72 128  89  68 106  74  53  54  35  25  40  28  21
 22  17  13  12  12  11  13  13  11  12  12  10  12  12  10  13  13  11
 16  16  14  14  14  12  15  15  13  16  16  15  19  19  19   0   0   0  54  54  61 140
129 122 159 143 125 155 138 123 195 174 165 212 186 172 211 184 164 203 172 149 187 153
122 132 113  99 156 131 117 176 143 123 163 138 120 145 116  98 138 103  87 148 113  94
144 113  93  95  71  63 150 120 103 162 132 111 131 100  76 107  73  56  77  61  55 121
 99  85 141 114  89 143 114  94 141 117 103 135 109  97 140 110  90 137 102  80 114  88
 70  82  66  58 111  82  67 118  85  64 122  89  66  99  72  50  51  33  22  42  30  21
 25  19  14  23  17  16  20  16  13  12  13  11  13  13  11  13  13  11
 14  14  12  15  15  13  15  15  13  14  14  12  20  20  19  28  22  22  47  43  48 137
126 119 159 143 126 155 138 126 200 180 171 213 186 169 202 178 157 168 148 122 111  92
 69 135 114 101 156 124 101 115  90  80  61  67  65  47  65  69  95  76  72 125  85  75
160 122 108 140 109  93   0   0  26 132 104 110 137  95  86  24   7   0  85  67  66 134
 97  83 128  83  67 110  77  71  63  61  63  27  46  52  66  58  52 101  75  59 122  91
 70  52  37  27  56  49  44  83  64  50  76  49  36  55  35  27  40  28  22  40  29  22
 19  16   7   0   0   0   0   0   0  20  16  13  12  12  10  13  14  12
 13  13  11  14  14  12  13  13  12  17  17  17  17  12   0   0   0   0   0   0   0 124
115 111 163 144 127 154 138 118 157 142 125 146 129 122 159 143 131 137 115  96  39  37
 41 145 117 100 147 107  99 154 117 118 131 109 105 127 100  97 141  96  81 134  81  72
165 128 115 157 120  94 120 101 106 220 174 167 206 145 120 121  74  52  80  62  59 139
104  87 137  99  87 139  97  92 132 103  94 111  90  81 112  86  73  97  65  49 103  72
 62  77  57  51 123  91  73 132  97  76 122  81  63  96  61  46  44  27  21  11  12  13
 32  26  31 101  65  62  80  48  41   0   0   0  19  16  14  13  13  11
 13  13  11  13  13  12  18  17  19   2   0   0  15  26  52 142 120 129 136 103 101 112
 95  92 139 122 104 110  91  67 142 102  97 194 157 148 199 168 145 202 163 131 144 107
 83 150 130 122 193 157 133 173 131 112 170 126 108 164 116  97 151 100  85 155 111 104
183 142 124 147 113  89 160 130 132 218 171 154 197 135 110 146  90  68  79  58  52 140
100  86 148 110  98 149 108  98 148 104  89 144 104  86 136  95  78 133  93  74 117  90
 73  99  73  59 142 102  79 150 111  88 139  99  79 120  81  66  70  45  36  62  24  24
139  87  75 164 103  84 148  88  69  72  47  36   0   0   4  20  16  13
 14  14  13  14  14  14  30  25  20   0   0   0 168 145 149 225 173 158 222 169 154 214
165 152 166 123 113 136 111 112 195 171 166 198 165 144 194 162 135 198 165 140 195 158
130 144 121 109 194 163 143 186 154 133 179 146 127 176 140 124 176 138 125 188 146 131
199 156 134 137 109  98 194 155 151 218 169 151 199 135 114 165 102  81  99  61  48 120
 96  80 164 119 100 163 123 108 159 124 106 156 119 103 153 118  98 147 117  98 116  95
 79 139 101  82 151 108  82 156 114  89 147 103  82 128  82  65 111  71  59 138  85  70
149  93  71 132  74  57 133  64  50 127  75  59   0   9   8  17  14  12
 14  14  14  21  19  19   0   0   0  70  69  73 204 146 125 186  84  49 178 109  91 205
150 134 219 169 155 205 172 160 211 187 174 210 182 164 206 176 155 206 172 152 210 175
154 184 150 128 152 129 118 191 161 143 195 161 142 194 160 139 194 155 136 190 153 134
143 114  94 148 113 111 211 169 159 211 163 145 199 136 116 169 107  87 132  82  61  84
 56  48 113  86  74 146 110  92 153 118 100 150 117  99 140 113  95 131 106  91 150 112
 93 165 114  92 162 111  89 157 106  83 144  98  74 127  83  59 129  86  70 141  90  73
135  82  66 150  95  77 145  75  58 148  78  65  60  37  28   0   5   5
 14  14  13  24  21  20   0   0   0  94  86  85 199 126 107 190  93  89 199 136 126 189
130 111 190 133 115 204 164 148 209 178 161 212 181 162 215 185 165 217 185 166 216 179
164 215 177 155 195 159 139 169 135 122 168 136 125 167 137 121 162 123 110 151 109  92
151  96  84 191 144 136 217 175 168 211 160 145 200 135 117 179 116  95 140  85  67 134
 85  68 127  78  62 128  82  68 140  95  82 146 103  86 154 110  90 164 117  93 169 118
 93 169 116  93 166 115  92 157 106  82 138  93  68 122  82  59 126  81  60 139  88  73
154 100  86 159 101  83 151  77  58 154  83  67  70  44  35   0   1   3
 14  14  12  21  19  17   0   0   0  77  74  74 198 125 108 197  98  94 210 155 148 208
156 145 199 146 130 196 149 131 208 175 156 209 179 155 214 180 161 218 182 163 218 181
163 216 179 166 218 181 167 213 170 153 199 152 135 188 135 116 185 122 105 184 119  97
185 131 119 201 157 142 208 158 142 202 149 132 194 133 113 172 113  90 140  87  69 134
 82  65 164 113  92 175 119 100 172 114  95 173 116  95 174 117  99 174 120  98 173 119
 97 169 116  94 166 114  91 156 106  82 135  89  65 124  81  60 114  69  48 123  74  59
158 104  86 162 102  84 154  79  62 153  86  70  44  29  22  14  18  16
 14  14  12  17  16  14  14   4   0  21  41  44 190 128 113 204 112 101 213 157 149 216
167 148 197 134 105 174 108 103 209 174 163 207 175 153 211 175 155 213 176 158 217 182
163 220 186 169 219 182 169 215 174 160 209 165 145 201 148 129 192 133 109 184 122 102
208 154 144 202 146 122 179 126 105 181 122 106 167 106  85 143  88  65 141  86  65 145
 85  68 149  96  78 174 121 101 187 126 109 183 127 111 180 124 108 181 126 106 178 121
101 170 111  89 164 111  89 155 108  83 133  87  65 124  81  61 110  66  49  90  27  18
142  82  68 163 101  84 160  87  72 135  79  68   0   8   6  32  27  23
 13  13  11  14  14  12  33  25  22   0   0   0 160 122 114 214 138 122 214 154 142 208
143 120 182  84  49 178 107 113 212 180 166 207 175 151 210 175 155 213 176 158 216 180
162 220 183 165 220 177 161 216 173 155 210 163 142 202 144 123 188 125 100 187 128 109
199 136 113 151  82  54 107  66  61 156 105  88 142  90  68 103  60  42  96  57  47 147
 92  75 144  87  69 163 110  89 182 125 105 187 132 113 186 131 112 184 131 111 179 125
104 170 114  93 162 111  89 152 107  83 133  89  67 119  80  60 123  81  65 125  66  53
127  63  51 156  96  79 163  98  81 105  62  51   0   0   0  24  17  12
 13  13  11  15  15  13  23  21  20   0   0   0  75  68  72 204 151 145 214 156 138 201
128 108 185  83  68 202 145 144 212 183 165 207 174 153 211 177 157 214 179 158 216 179
161 217 179 160 217 172 155 212 167 148 205 154 131 191 129 105 187 131 110 199 149 130
182 118  94 142  64  51 153  94  85 162 107  87 145  89  69 128  75  59 116  64  49 125
 70  50 133  81  60 160 109  86 171 119  97 182 127 107 186 132 112 185 135 114 178 126
106 168 115  95 159 108  85 151 103  83 134  91  71 121  79  60 128  85  70 146  95  76
130  61  51 151  87  74 151  90  75  59  29  22   0   3   5  15  12  10
 15  15  13  16  16  14  16  17  14  34  28  26   0   0   0 153 118 120 223 167 154 201
134 114 195 107  96 206 154 149 212 179 167 210 176 159 213 179 160 213 180 160 214 179
159 213 176 153 210 168 146 205 158 137 197 141 117 187 132 105 200 153 135 206 163 146
204 159 142 193 144 131 193 145 129 184 132 112 165 108  94 162 109  91 148  99  77 140
 91  74 149  96  78 161 108  86 173 121  95 177 125 102 183 130 108 183 133 110 176 126
103 166 116  93 156 107  84 149 101  80 133  90  69 122  80  62 125  84  65 133  80  62
132  69  57 157  96  79 137  73  59   0   6   4  19  18  15  23  23  18
 16  16  14  17  17  15  19  19  17  21  19  19   0   0   0  69  57  66 208 158 153 220
162 148 202 129 119 207 146 144 211 178 166 210 176 159 212 178 160 211 179 160 208 175
154 206 169 144 204 163 138 201 153 128 193 141 119 201 156 140 205 166 149 203 164 146
204 165 147 203 164 148 202 158 141 189 134 114 178 129 114 175 131 110 156 116  93 149
110  91 150 107  85 160 111  90 173 124 100 178 126 103 180 129 105 179 129 105 173 123
 98 161 111  87 154 105  83 150 101  79 131  88  67 123  84  65 113  70  51 122  60  48
147  94  76 155  87  70 116  61  50   0   3   2  31  26  21  17  18  13
 17  17  15  20  21  18  19  20  14  17  18  13  34  27  23   0   0   0 170 130 132 216
153 143 217 170 163 216 164 150 208 175 161 209 178 163 211 180 163 211 181 160 208 176
151 205 166 142 205 160 137 198 151 126 201 158 142 205 167 150 199 163 145 201 164 146
205 166 151 208 166 148 206 160 139 195 139 123 193 141 127 192 139 117 171 116  93 163
116  95 157 116  94 156 115  95 164 120 101 170 124 101 174 124  99 176 126 101 167 118
 92 159 110  85 151 105  82 146 104  80 131  88  66 122  82  65 119  75  59 150  98  78
153  95  74 154  83  68  82  45  35   0  11  12  22  17  15  10  10   8
 20  20  18  19  20  17  17  18  14  16  17  13  29  25  24   0   0   0 114  95 103 218
151 150 217 166 156 217 174 158 211 175 162 210 178 163 212 180 164 209 178 157 208 175
150 207 170 145 203 161 136 202 155 135 199 162 144 189 154 134 192 161 142 206 170 151
211 164 146 203 148 130 198 134 120 197 128 117 196 127 116 182 116  98 173 107  94 170
112  98 167 116  95 161 119  96 159 120  98 158 115  96 163 116  94 172 122  97 165 116
 90 158 111  86 152 105  83 144 102  78 130  88  67 121  82  63 127  85  65 153  98  78
163 104  82 139  86  66   3   9   9  16  14  13  11  10   8  11  11   9
 21  21  19  17  17  15  16  16  14  16  16  14  18  17  16  30  24  19   0   0   0 194
152 159 234 184 174 220 176 163 210 176 165 209 177 163 211 180 163 209 178 157 209 175
150 206 172 146 203 163 138 203 160 138 193 152 129 180 139 114 190 148 127 191 138 118
180 118 103 172 104  93 167  91  85 169  87  85 159  74  70 143  72  63 143  85  75 141
 85  76 140  86  74 144  95  75 149 108  83 155 114  90 164 118  95 172 122  97 168 118
 92 159 113  88 151 104  84 141  99  78 131  88  69 123  81  63 132  85  65 150  89  71
165 100  80 101  63  45   0   0   0  22  16  12  11  11   9  11  11   9
 18  18  16  16  16  14  16  16  14  16  16  14  16  16  14  31  27  27   0   0   0 113
 98 105 231 189 184 225 169 148 210 167 154 209 179 164 209 178 162 212 178 158 210 175
152 206 172 147 204 168 143 202 163 138 191 148 116 169 120  91 143  90  71 142  79  68
158  93  95 172 102 106 169  94 101 168  89  91 158  77  79 149  73  73 139  68  64 125
 59  55 109  52  48  96  48  44 114  75  56 156 114  87 173 128 102 176 126 101 170 120
 94 158 112  87 150 103  83 141  98  77 130  88  69 120  80  60 121  75  55 156  92  71
118  70  53   0  10   6  15  12  10  12  12   9  11  11   9  11  11   9
 16  16  14  16  16  14  16  16  14  16  16  14  17  17  14  16  16  14  31  25  22   0
  0   0 157 129 123 203 137 116 191 150 140 209 182 168 209 177 162 211 176 157 209 173
152 205 171 147 207 171 147 209 164 140 191 145 116 187 146 122 189 150 132 192 145 133
205 145 139 209 143 140 209 136 135 205 129 126 200 119 120 198 117 118 180 102 100 161
 91  82 149  90  77 139  89  74 145 102  82 166 123  97 180 136 109 179 129 104 167 115
 90 155 107  82 150 102  82 142  98  77 130  88  70 113  77  60  46  30  18  62  39  28
  0   0   1   3   8   8  13  12   9  11  11   9  11  11   9  11  11   9
 16  16  14  17  17  15  17  17  15  17  17  15  17  17  15  17  17  15  18  18  16  14
 15  11   5   7   0  42   0   0 140 126 127 209 184 168 206 176 156 210 175 154 208 173
151 206 171 149 206 167 144 201 158 133 194 150 123 198 161 137 206 171 147 208 171 151
203 163 139 199 149 130 191 133 114 184 118 102 182 116 101 178 115  99 174 118 102 171
118  99 160 110  87 152 103  79 158 109  85 172 125 100 178 135 109 173 125  99 160 111
 87 150 103  83 148 102  81 140  95  75 128  88  68  96  66  50   0   0   0   0   5   6
 17  14  12  14  12  10  10  11   9  11  11   9  11  11   9  10  10  10
 16  16  15  17  17  15  17  17  15  17  17  15  17  17  14  17  17  15  17  17  15  20
 19  18  34  32  32   0   0   0 104  99 105 202 179 169 202 174 157 205 174 154 206 171
149 202 167 146 201 161 139 198 155 130 197 152 127 198 161 137 201 166 142 198 163 138
193 157 129 189 149 123 179 138 112 172 129 103 168 124 100 167 127 102 166 131 103 164
123  97 156 111  86 152 104  80 158 109  85 167 119  94 171 128 102 167 120  94 156 108
 86 148 102  83 145 100  78 136  91  71 125  86  65  71  50  36   0   0   0  22  16  12
 11  11   9  11  11   9  11  11   9  11  11   9  10  10   9   9   9   9
 17  17  17  17  17  16  16  16  14  16  16  14  16  16  14  17  17  16  16  16  16  16
 16  14  21  20  19  14   9   0  46  47  59 185 167 160 201 172 157 200 172 155 200 168
149 200 163 141 196 158 134 195 154 132 197 154 133 198 162 137 199 166 138 198 163 137
196 154 128 192 147 118 187 141 115 186 139 115 182 136 111 179 133 108 175 131 104 171
124  98 164 116  90 159 110  86 161 111  88 163 115  91 166 123  96 162 116  90 150 104
 82 147 102  81 141  99  79 129  92  71 113  80  59  39  25  15   3   8   8  13  12  10
 11  11   9  11  11   9  11  11   9  11  11   9  11  11  10  11  11  11
 16  16  16  16  16  15  16  16  14  16  16  15  16  16  14  16  16  15  15  15  15  15
 15  14  16  16  14  30  27  23   0   0   0 155 142 139 199 173 158 193 168 150 198 167
148 199 163 141 197 158 135 195 155 132 197 158 135 201 166 140 202 168 142 201 166 140
198 158 134 195 151 130 200 156 133 200 155 130 194 148 124 189 142 118 183 137 111 177
130 104 168 119  94 164 116  91 165 117  92 162 114  90 158 115  88 153 108  83 149 102
 81 146  99  80 138  95  79 124  92  72  93  66  50   0   0   3  17  14  11  11  11   9
 11  11  10  11  11   9  11  11   9  11  11   9  12  12  11  12  12  12
 16  16  16  15  15  15  16  16  16  16  16  15  15  15  13  15  15  14  15  15  15  15
 15  15  14  14  14  32  30  29   0   0   0 138 128 133 202 176 163 188 159 146 193 165
148 194 163 141 194 159 136 195 156 135 196 162 138 201 169 144 206 173 149 205 171 146
206 172 149 210 175 156 212 175 155 204 162 139 199 153 133 199 152 131 191 141 117 181
132 108 172 126 101 167 122  96 162 116  90 157 110  85 150 108  83 146 104  83 146 102
 80 141  98  79 128  90  73 119  87  67  68  47  33   0   0   1  17  14  11  11  11  10
 11  11  11  11  11  10  11  11   9  12  12  10  12  12  10  12  12  10
 16  16  15  16  16  15  15  15  14  15  15  14  15  15  14  15  15  15  15  15  15  15
 15  16  14  14  13  34  32  34   0   0   0 130 120 126 205 182 170 185 158 140 185 160
149 188 160 143 190 157 138 192 157 137 192 162 141 196 168 145 203 172 147 206 172 147
207 172 148 209 171 150 206 164 143 195 150 127 191 145 123 194 147 125 188 140 117 176
132 108 170 129 103 167 122 100 156 112  88 145 106  80 140 104  78 140 102  80 140 102
 80 131  97  77 119  90  73 115  82  66  45  30  22   0   5   4  14  12  10  11  11  10
 11  11  10  12  12  10  12  12  10  12  12  10  12  12  10  12  12  10
 15  15  13  15  15  13  15  15  13  16  16  15  16  16  17  16  16  16  16  16  16  16
 16  16  19  19  22  20  20   2   0   0   0 123 117 127 210 187 177 195 165 147 182 159
144 181 157 143 183 152 136 182 148 131 183 154 136 188 158 142 195 162 142 198 163 141
197 163 139 191 154 129 188 145 121 179 136 112 178 135 111 182 139 115 180 134 111 168
123 100 157 115  91 152 108  87 141 102  80 129  96  74 127  97  75 133  99  80 133  97
 80 124  91  77 118  88  73 106  79  61  14   9   6   9  12   9  12  11   9  11  11   9
 11  11   9  12  12  10  12  12  10  12  12  10  12  12  10  11  11   9
 15  15  13  15  15  13  16  16  14  16  16  15  15  15  15  16  16  16  16  16  16  16
 16  18  28  27  19   0   0   9 160 169 197 155 144 147 200 174 165 209 179 160 192 163
146 182 153 142 177 150 137 176 146 131 175 144 129 177 147 132 183 152 137 184 148 131
181 145 126 178 140 120 171 131 110 164 122 102 164 126 104 170 131 109 165 122 101 153
115  91 144 106  84 137  95  78 124  91  76 120  93  75 126  95  78 130  97  80 129  95
 78 119  86  74 119  88  73  95  72  55   0   0   0  18  15  12  12  11   9  11  11   9
 11  11   9  12  12  10  11  11   9  12  12  10  12  12  10  11  11   9
 15  15  13  15  15  13  15  15  13  15  15  14  15  15  15  15  15  15  15  15  15  27
 29  34   0   0   0 106 117 147 210 225 252 180 183 196 188 164 158 216 186 169 198 168
150 190 161 142 178 149 137 174 144 133 172 141 131 167 141 129 165 139 127 161 133 121
156 127 115 155 125 112 149 119 102 145 115  95 147 118  99 152 123 104 146 112  97 137
104  87 128  98  83 117  90  75 115  89  76 123  96  82 129  97  84 128  94  80 126  93
 77 119  88  74 122  91  75  80  57  42   0   0   0  19  16  12  11  11   9  11  11   9
 11  11   9  11  11   9  11  11   9  11  11   9  12  12   9  11  11   9
 15  15  15  15  15  15  15  15  15  15  15  15  15  15  15  16  16  16  16  16  17  31
 32  30   0   0   0 169 185 214 209 220 246 201 214 241 189 187 193 209 180 165 206 175
155 197 167 147 189 158 140 176 145 134 169 142 130 165 138 127 160 136 124 156 130 119
145 121 110 143 116 106 137 109  96 132 107  91 131 107  92 131 105  91 126  99  86 123
 94  81 118  91  77 113  92  77 117  95  81 124  97  84 123  96  83 121  92  78 124  93
 79 119  90  76 121  90  71  51  34  22   0   4   7  15  13  10  11  11   9  11  11   9
 11  11   9  11  11   9  12  12  10  12  12  10  12  12  10  11  11   9
 15  15  15  15  15  15  15  15  15  15  15  15  15  16  15  17  17  17  25  26  33   0
  0   0  92 100 132 202 218 248 203 214 242 203 215 242 197 210 233 196 183 188 212 179
159 201 169 149 195 165 143 186 153 136 173 142 127 168 135 125 161 134 123 156 133 120
150 123 112 144 117 106 142 113 102 138 109  98 134 108  94 128 102  88 123  96  82 122
 93  80 123  95  82 121  98  83 120  98  83 125  98  84 121  94  81 124  95  81 122  91
 78 121  90  76 114  84  70  21  16  13   6   8   7  14  14  11  12  12  10  11  12  10
 11  11  10  11  11  10  12  12  10  12  12  10  12  12  10  12  12   9
 15  15  15  15  15  15  15  15  15  14  15  15  14  17  15  16  16  16  33  34  35   0
  0   0 159 170 205 209 223 251 200 214 240 202 215 241 202 214 239 194 207 229 194 185
183 206 174 151 195 164 144 192 161 140 183 152 132 170 139 123 158 132 115 150 129 114
146 123 109 144 116 106 140 114 101 143 112 100 138 107  95 131 106  92 130 104  91 127
100  87 125 100  86 122  99  84 120  97  82 123  98  84 121  94  80 126  95  83 119  89
 77 125  92  77 104  75  64  59  50  52  26  22  19   9  10   8  13  13  11  12  12  11
 12  12  12  11  11  10  12  12  10  12  12  10  12  12  10  12  12  10
