P3
# 8-bit ppm - RGB
50 50
255
 13  13  11  13  13  11  13  13  11  13  13  11  13  13  11  12  12  10  12  12  10  12
 12  12  12  12  12  13  13  11  14  14  12  15  15  13  15  15  13  15  15  13  17  17
 15  13  13  11  12  12  10  13  13  11  13  13  11  13  13  11  13  13  11  13  14  12
 13  13  11  20  16  13  17  14  12   0   5   5   0   1   3  14  18  16  32  27  23  24
 17  12  15  12  10  23  23  18  17  18  13  10  10   8  11  11   9  11  11   9  11  11
  9  11  11   9  10  10  10   9   9   9  11  11  11  12  12  12  12  12  10  12  12  10
 11  11   9  11  11   9  11  11   9  11  11   9  12  12   9  12  12  10
 13  13  11  13  13  11  13  13  11  13  13  11  14  14  12  13  13  11  13  13  11  13
 13  12  13  13  11  13  13  11  14  14  12  14  14  12  16  16  14  14  14  12  15  15
 13  15  15  13  13  13  11  13  13  11  12  12  11  12  12  10  13  13  11  12  12  10
 19  16  14   0   0   4   0   9   8  60  37  28  70  44  35  44  29  22   0   8   6   0
  0   0   0   3   5  19  18  15  31  26  21  22  17  15  11  10   8  11  11   9  11  11
  9  11  11   9  11  11   9  10  10   9  11  11  10  12  12  11  12  12  10  12  12  10
 12  12  10  12  12  10  12  12   9  12  12  10  12  12  10  12  12  10
 13  13  11  13  13  11  13  13  11  13  13  11  13  13  11  13  13  11  13  13  11  13
 13  11  13  13  11  13  13  11  14  14  12  13  13  11  13  13  11  14  14  12  16  16
 14  15  15  13  15  15  13  13  13  11  12  12  10  12  12  10  12  13  11  20  16  13
  0   0   0  72  47  36 127  75  59 148  78  65 154  83  67 153  86  70 135  79  68 105
 62  51  59  29  22   0   6   4   0   3   2   0  11  12  16  14  13  22  16  12  12  12
  9  11  11   9  11  11   9  11  11   9  11  11   9  11  11   9  12  12  10  12  12  10
 12  12  10  12  12  10  11  11   9  12  12  10  12  12  10  12  12  10
 13  13  11  13  13  11  13  13  11  13  13  11  13  13  11  14  14  12  13  13  11  13
 13  11  13  13  11  14  14  12  14  14  12  13  13  11  13  13  11  13  13  11  17  17
 15  16  16  13  16  15  13  16  16  14  13  13  11  13  13  11  20  16  13   0   0   0
 80  48  41 148  88  69 133  64  50 145  75  58 151  77  58 154  79  62 160  87  72 163
 98  81 151  90  75 137  73  59 116  61  50  82  45  35   3   9   9   0   0   0  15  12
 10  13  12   9  10  11   9  11  11   9  11  11   9  11  11   9  11  11   9  12  12  10
 12  12  10  11  11   9  11  11   9  12  12  10  12  12  10  12  12  10
 13  13  11  13  13  11  13  13  11  13  13  11  14  14  12  13  13  11  13  13  12  13
 13  11  13  13  11  14  14  12  14  14  12  13  13  11  13  13  11  13  13  11  14  14
 12  16  16  14  14  15  13  16  17  15  15  16  14  12  12  11  23  17  16   0   0   0
101  65  62 164 103  84 132  74  57 150  95  77 159 101  83 162 102  84 163 101  84 156
 96  79 151  87  74 157  96  79 155  87  70 154  83  68 139  86  66 101  63  45   0  10
  6   3   8   8  14  12  10  11  11   9  11  11   9  11  11   9  11  11  10  12  12  10
 12  12  10  12  12  10  11  11   9  11  11   9  11  11  10  11  11  10
 14  14  12  13  13  11  13  13  11  13  13  11  13  13  11  13  13  11  13  13  12  13
 13  11  13  13  12  13  13  14  15  14  13  14  14  12  13  13  11  13  14  12  14  14
 13  16  15  13  20  17  14  20  17  14  21  18  15  22  17  13  25  19  14  19  16   7
 32  26  31 139  87  75 149  93  71 135  82  66 154 100  86 158 104  86 142  82  68 127
 63  51 130  61  51 132  69  57 147  94  76 153  95  74 163 104  82 165 100  80 118  70
 53   0   0   1  17  14  12  11  11   9  11  11   9  11  11  10  11  11  11  11  11  10
 11  11   9  11  11   9  11  11   9  11  11   9  11  11  10  12  12  12
 14  14  12  14  14  12  13  13  11  13  13  11  13  13  11  13  13  11  13  13  11  13
 13  11  13  13  11  13  13  12  14  15  13  14  15  13  17  14  12  20  15  11  24  17
 13  27  19  14  27  17  13  33  23  17  37  27  21  40  28  21  42  30  21  40  29  22
 11  12  13  62  24  24 138  85  70 141  90  73 139  88  73 123  74  59  90  27  18 125
 66  53 146  95  76 133  80  62 122  60  48 150  98  78 153  98  78 150  89  71 156  92
 71  62  39  28   0   5   6  22  16  12  13  12  10  11  11   9  11  11  10  11  11  10
 11  11   9  11  11   9  11  11   9  11  11   9  11  12  10  12  12  11
 14  14  12  13  13  11  14  14  12  13  13  11  14  14  12  14  14  11  13  13  11  12
 13  11  14  14  12  14  14  12  17  16  14  22  16  13  27  16  13  35  19  13  38  23
 13  42  26  18  48  31  23  49  32  23  49  31  22  54  35  25  51  33  22  40  28  22
 44  27  21  70  45  36 111  71  59 129  86  70 126  81  60 114  69  48 110  66  49 123
 81  65 128  85  70 125  84  65 113  70  51 119  75  59 127  85  65 132  85  65 121  75
 55  46  30  18   0   0   0   0   0   0   3   8   8  17  14  11  17  14  11  14  12  10
 12  11   9  12  11   9  11  11   9  11  11   9  12  12  10  13  13  11
 13  13  11  13  13  11  14  14  12  14  14  12  14  14  12  14  14  12  15  13  12  17
 14  13  20  15  13  21  15  12  27  17  12  39  23  16  57  36  26  66  44  32  77  51
 37  86  56  42  96  67  50  99  70  53 100  72  54 106  74  53  99  72  50  55  35  27
 96  61  46 120  81  66 128  82  65 127  83  59 122  82  59 124  81  60 124  81  61 119
 80  60 121  79  60 122  80  62 123  84  65 122  82  65 121  82  63 123  81  63 120  80
 60 113  77  60  96  66  50  71  50  36  39  25  15   0   0   3   0   0   1   0   5   4
  9  12   9  18  15  12  19  16  12  15  13  10  14  14  11   9  10   8
 14  14  12  14  14  12  14  14  12  14  14  12  13  14  12  15  15  13  19  16  15  22
 15  11  26  15  13  29  15  11  53  30  20  79  50  37  98  64  48 104  71  54 116  82
 61 126  87  68 129  89  70 129  89  70 128  90  70 128  89  68 122  89  66  76  49  36
122  81  63 139  99  79 147 103  82 144  98  74 138  93  68 135  89  65 133  87  65 133
 89  67 134  91  71 133  90  69 131  88  67 131  88  66 130  88  67 131  88  69 130  88
 69 130  88  70 128  88  68 125  86  65 113  80  59  93  66  50  68  47  33  45  30  22
 14   9   6   0   0   0   0   0   0   0   4   7   6   8   7  26  22  19
 14  14  12  14  14  12  14  14  12  13  14  12  17  16  14  21  16  13  25  16  13  27
 16  12  38  22  16  75  46  32 110  71  51 124  83  63 130  84  65 136  92  72 136  97
 75 136  98  76 138  95  75 136  93  73 132  94  72 129  93  72 118  85  64  83  64  50
132  97  76 150 111  88 156 114  89 157 106  83 157 106  82 156 106  82 155 108  83 152
107  83 151 103  83 149 101  80 150 101  79 146 104  80 144 102  78 141  99  78 141  98
 77 142  98  77 140  95  75 136  91  71 129  92  71 124  92  72 119  87  67 115  82  66
106  79  61  95  72  55  80  57  42  51  34  22  21  16  13  59  50  52
 14  14  12  14  14  12  14  14  11  19  17  15  21  16  14  22  14  10  29  18  17  54
 30  22 102  62  44 130  85  63 140  92  70 148  98  77 152 102  80 147  99  76 146  99
 76 146 101  78 145 102  78 144 101  80 133  95  75 129  87  70 111  82  67  56  49  44
123  91  73 142 102  79 151 108  82 162 111  89 166 115  92 166 114  91 164 111  89 162
111  89 159 108  85 156 107  84 154 105  83 151 105  82 152 105  83 151 104  84 150 103
 83 150 102  82 148 102  81 145 100  78 141  99  79 138  95  79 128  90  73 119  90  73
118  88  73 119  88  73 122  91  75 121  90  71 114  84  70 104  75  64
 14  14  12  13  14  11  18  17  13  23  19  15  25  15  13  32  21  15  49  28  19 109
 66  47 141  91  68 146  96  72 150 100  76 155 105  82 160 108  85 164 112  89 161 113
 88 160 110  87 157 111  88 143 100  78 122  80  61 125  88  72  82  66  58  52  37  27
 77  57  51  99  73  59 139 101  82 165 114  92 169 116  93 169 116  94 170 111  89 170
114  93 168 115  95 166 116  93 161 111  87 159 110  85 158 111  86 159 113  88 158 112
 87 155 107  82 150 103  83 148 102  83 147 102  81 146  99  80 141  98  79 131  97  77
124  91  77 119  86  74 119  88  74 119  90  76 121  90  76 125  92  77
 13  14  12  16  15  12  22  19  14  23  15  12  34  22  19  46  27  19 103  64  46 147
 97  73 154 104  78 158 105  80 164 114  88 169 120  94 174 123  99 175 124 100 171 122
 96 171 121  99 162 116  93 131  88  65 126  86  65 103  77  65 114  88  70 122  91  70
103  72  62 117  90  73 116  95  79 150 112  93 169 118  93 173 119  97 178 121 101 179
125 104 178 126 106 176 126 103 173 123  98 167 118  92 165 116  90 168 118  92 170 120
 94 167 115  90 160 111  87 156 108  86 150 104  82 149 102  81 146 102  80 140 102  80
133  97  80 129  95  78 126  93  77 124  93  79 122  91  78 119  89  77
 15  14  12  24  18  17  25  15  13  31  18  14  43  23  18  78  46  36 137  88  68 159
105  83 165 113  87 167 115  91 172 121  97 175 126 101 177 128 103 176 127 103 175 127
101 179 131 112 158 115  94 136  95  73 115  82  68 114  85  73 137 102  80 101  75  59
 97  65  49 133  93  74 147 117  98 131 106  91 164 117  93 174 120  98 181 126 106 184
131 111 185 135 114 183 133 110 179 129 105 176 126 101 172 122  97 172 122  97 176 126
101 179 129 104 173 125  99 167 120  94 162 116  90 153 108  83 146 104  83 140 102  80
133  99  80 130  97  80 128  94  80 121  92  78 124  95  81 126  95  83
 23  20  18  27  21  17  27  19  13  40  26  20  57  31  24 105  66  51 157 103  81 169
113  91 172 118  96 174 122 100 176 125  99 179 127 103 176 128 101 175 127 104 174 130
107 178 135 116 165 123 102 135  99  78  94  69  60 136  97  83 140 110  90  66  58  52
112  86  73 136  95  78 153 118  98 140 113  95 154 110  90 174 117  99 180 124 108 186
131 112 186 132 112 183 130 108 180 129 105 174 124  99 163 116  94 164 118  95 173 128
102 180 136 109 178 135 109 171 128 102 166 123  96 158 115  88 150 108  83 140 104  78
127  97  75 126  95  78 129  97  84 123  96  83 121  94  81 121  94  80
 30  23  22  28  18  14  33  22  17  46  29  21  76  47  35 125  84  67 170 116  94 177
122 100 179 125 103 178 126 104 181 129 104 181 129 105 181 129 104 183 131 109 181 132
111 181 135 118 165 124 102 106  74  56  88  62  54 150 113  97 135 109  97  27  46  52
111  90  81 144 104  86 156 119 103 150 117  99 146 103  86 173 116  95 183 127 111 187
132 113 182 127 107 177 125 102 178 126 103 170 124 101 158 115  96 155 114  90 156 114
 87 166 123  97 172 125 100 167 119  94 163 115  91 162 114  90 157 110  85 145 106  80
129  96  74 120  93  75 123  96  82 124  97  84 125  98  84 123  98  84
 32  18  16  35  23  16  39  27  19  61  36  28  93  62  48 145  97  80 181 126 106 184
129 106 185 130 108 187 130 109 187 132 110 187 132 110 188 133 111 188 137 114 187 137
116 184 137 121 158 116  94  94  58  39  79  52  46 145 112  96 141 117 103  63  61  63
132 103  94 148 104  89 159 124 106 153 118 100 140  95  82 172 114  95 187 126 109 182
125 105 171 119  97 173 121  95 173 124 100 164 120 101 159 120  98 149 108  83 114  75
 56 145 102  82 158 109  85 158 109  85 161 111  88 165 117  92 162 116  90 156 112  88
141 102  80 124  91  76 115  89  76 117  95  81 120  98  83 120  97  82
 34  21  18  36  22  17  52  34  27  79  52  44 111  76  63 168 120 103 188 134 113 188
134 113 190 137 115 189 137 114 192 139 117 193 139 118 195 141 120 196 145 122 192 142
122 188 142 124 167 126 101  98  61  39  65  45  37 132 106  84 143 114  94 110  77  71
139  97  92 149 108  98 163 123 108 146 110  92 128  82  68 175 119 100 174 121 101 163
110  89 160 109  86 161 108  86 160 111  90 156 115  95 161 119  96 144  95  75  96  48
 44 139  89  74 152 103  79 152 104  80 159 110  86 164 116  91 167 122  96 167 122 100
152 108  87 137  95  78 117  90  75 113  92  77 121  98  83 122  99  84
 39  25  22  38  23  20  61  43  37  87  62  53 124  89  74 178 131 111 192 139 117 191
141 120 193 142 121 192 142 118 194 144 122 199 148 127 201 150 129 200 150 129 197 148
128 192 145 125 176 130 108 111  68  45  79  47  43 116  96  79 141 114  89 128  83  67
137  99  87 148 110  98 164 119 100 113  86  74 127  78  62 164 113  92 149  96  78 144
 87  69 133  81  60 149  96  78 150 107  85 157 116  94 167 116  95 140  86  74 109  52
 48 149  90  77 160 110  87 156 111  86 164 116  90 168 119  94 172 126 101 170 129 103
157 115  91 144 106  84 128  98  83 118  91  77 123  95  82 125 100  86
 41  29  26  44  29  25  66  47  39  90  65  54 130  94  82 185 139 121 196 144 123 197
146 126 199 148 128 199 148 125 200 149 129 202 152 132 204 155 134 203 155 134 200 151
131 193 142 123 179 130 105 136  88  61 109  66  46  94  74  67 121  99  85 134  97  83
139 104  87 140 100  86 120  96  80  84  56  48 134  85  68 134  82  65 145  85  68 147
 92  75 125  70  50 140  91  74 149 110  91 163 116  95 170 112  98 141  85  76 125  59
 55 161  91  82 171 118  99 164 123  97 171 124  98 177 130 104 181 132 108 176 132 108
168 123 100 153 115  91 137 104  87 123  94  81 122  93  80 127 100  87
 42  28  23  53  35  27  83  59  51  96  69  59 130  95  84 186 140 123 199 149 128 200
148 129 201 151 132 200 153 131 205 156 135 208 159 139 208 161 141 208 161 141 206 159
139 199 148 128 184 134 107 157 109  81 128  77  53 117  75  55  77  61  55  85  67  66
 80  62  59  79  58  52  99  61  48 132  82  61 140  85  67 140  87  69 141  86  65  96
 57  47 116  64  49 148  99  77 156 116  93 171 116  93 173 107  94 143  85  75 139  68
 64 180 102 100 174 118 102 166 131 103 175 131 104 183 137 111 191 141 117 188 140 117
180 134 111 165 122 101 146 112  97 126  99  86 123  96  82 130 104  91
 43  29  20  64  41  36  95  67  59  91  61  50 128  93  85 180 139 123 199 154 133 201
154 136 205 157 139 205 161 141 207 164 144 211 166 147 211 166 146 212 166 146 209 163
143 201 155 134 189 141 116 172 121  94 154 103  72 155 104  72 107  73  56  24   7   0
121  74  52 146  90  68 165 102  81 169 107  87 179 116  95 172 113  90 143  88  65 103
 60  42 128  75  59 162 109  91 175 131 110 192 139 117 182 116  98 143  72  63 149  73
 73 198 117 118 178 115  99 167 127 102 179 133 108 189 142 118 199 152 131 194 147 125
182 139 115 170 131 109 152 123 104 131 105  91 128 102  88 131 106  92
 43  29  21  69  46  41  93  64  56  94  66  54 121  90  81 177 138 126 202 157 140 206
159 141 207 160 143 208 164 145 210 167 148 213 167 149 213 168 148 215 170 149 211 164
145 203 157 137 195 148 124 184 133 109 175 124  99 193 144 112 131 100  76 137  95  86
206 145 120 197 135 110 199 135 114 199 136 116 200 135 117 194 133 113 167 106  85 142
 90  68 145  89  69 165 108  94 178 129 114 193 141 127 196 127 116 159  74  70 158  77
 79 200 119 120 182 116 101 168 124 100 182 136 111 194 148 124 199 153 133 191 145 123
178 135 111 164 126 104 147 118  99 131 107  92 134 108  94 138 107  95
 45  29  23  78  53  45 109  81  71 108  80  66 121  91  82 167 133 125 201 159 142 207
163 145 209 165 148 210 167 147 212 169 149 214 166 148 214 168 149 213 168 150 212 166
147 207 159 142 201 152 133 192 140 120 185 133 114 209 165 144 162 132 111 132 104 110
220 174 167 218 171 154 218 169 151 211 163 145 211 160 145 202 149 132 181 122 106 156
105  88 162 107  87 184 132 112 189 134 114 195 139 123 197 128 117 169  87  85 168  89
 91 205 129 126 184 118 102 172 129 103 186 139 115 200 155 130 204 162 139 195 150 127
179 136 112 164 122 102 145 115  95 132 107  91 138 109  98 143 112 100
 47  31  26  79  54  47 101  73  64 114  84  72 118  88  79 160 126 120 209 168 155 210
172 153 210 171 151 209 171 151 210 173 153 210 168 149 213 167 148 212 166 147 211 165
147 205 157 139 197 148 127 186 136 114 173 123 102 184 138 121 150 120 103   0   0  26
120 101 106 160 130 132 194 155 151 211 169 159 217 175 168 208 158 142 179 126 105 107
 66  61 153  94  85 193 145 129 202 158 141 206 160 139 198 134 120 167  91  85 169  94
101 209 136 135 191 133 114 179 138 112 187 141 115 200 156 133 212 175 155 206 164 143
188 145 121 171 131 110 149 119 102 137 109  96 142 113 102 140 114 101
 49  33  29  75  51  46 102  73  65 118  89  77 110  79  73 178 141 131 214 174 160 210
173 157 211 172 153 211 173 154 210 175 155 213 172 154 213 169 150 215 170 150 213 169
149 206 160 141 196 147 121 179 130 105 150 100  74 130  90  70  95  71  63 140 109  93
157 120  94 147 113  89 137 109  98 148 113 111 191 144 136 201 157 142 202 146 122 151
 82  54 142  64  51 193 144 131 203 164 148 208 166 148 203 148 130 172 104  93 172 102
106 209 143 140 199 149 130 189 149 123 192 147 118 195 151 130 210 175 156 209 171 150
191 154 129 178 140 120 155 125 112 143 116 106 144 117 106 144 116 106
 48  32  27  68  46  40 102  75  68 107  79  69 121  90  82 193 160 153 217 180 170 215
178 166 215 177 164 216 177 163 213 178 160 216 176 158 217 175 158 217 177 159 215 174
154 203 157 137 198 151 125 171 122  98 125  76  57  98  67  56 144 113  93 160 122 108
165 128 115 183 142 124 199 156 134 143 114  94 151  96  84 185 131 119 208 154 144 199
136 113 182 118  94 204 159 142 204 165 147 205 166 151 211 164 146 180 118 103 158  93
 95 205 145 139 203 163 139 193 157 129 196 154 128 198 158 134 206 172 149 207 172 148
197 163 139 181 145 126 156 127 115 145 121 110 150 123 112 146 123 109
 45  30  22  59  39  34  87  65  57  96  68  60 133 102  94 190 158 150 218 182 172 218
182 170 217 180 169 219 181 171 216 180 166 218 179 164 223 177 165 221 180 166 216 176
157 208 162 142 201 157 135 162 117  93  87  46  32 116  82  70 148 113  94 125  85  75
134  81  72 155 111 104 188 146 131 190 153 134 151 109  92 184 119  97 184 122 102 187
128 109 199 149 130 206 163 146 203 164 146 201 164 146 206 170 151 191 138 118 142  79
 68 192 145 133 208 171 151 198 163 138 198 163 137 201 166 140 205 171 146 206 172 147
198 163 141 184 148 131 161 133 121 156 130 119 156 133 120 150 129 114
 47  32  23  62  43  35  89  67  55 106  80  67 130  99  90 177 145 140 216 182 173 220
184 173 219 181 171 220 182 171 221 183 172 220 182 171 222 183 172 223 184 173 218 177
162 211 165 149 207 164 146 161 117  92  74  39  25 128  90  74 138 103  87  95  76  72
141  96  81 151 100  85 176 138 125 194 155 136 162 123 110 185 122 105 192 133 109 188
125 100 187 131 110 200 153 135 205 166 149 199 163 145 192 161 142 190 148 127 143  90
 71 189 150 132 206 171 147 201 166 142 199 166 138 202 168 142 206 173 149 203 172 147
195 162 142 183 152 137 165 139 127 160 136 124 161 134 123 158 132 115
 48  33  25  63  45  39  87  64  56 103  77  65 120  89  80 168 137 131 214 180 172 223
187 177 222 185 175 222 183 172 221 185 174 221 188 176 221 187 175 222 188 175 217 181
165 213 175 158 208 171 151 158 112  85  78  43  29 146 113  94 145 116  98  47  65  69
127 100  97 164 116  97 176 140 124 194 160 139 167 137 121 188 135 116 201 148 129 202
144 123 191 129 105 187 132 105 201 156 140 205 167 150 189 154 134 180 139 114 169 120
 91 187 146 122 198 161 137 198 161 137 198 162 137 201 166 140 201 169 144 196 168 145
188 158 142 177 147 132 167 141 129 165 138 127 168 135 125 170 139 123
 52  39  31  53  37  30  73  52  44 102  75  65 117  86  76 168 135 128 216 183 176 224
191 181 222 189 175 222 187 175 220 186 174 222 189 177 223 188 177 223 189 176 220 184
170 217 181 166 212 175 157 167 124  94 100  61  41 152 125 110 163 138 120  61  67  65
131 109 105 170 126 108 179 146 127 195 161 142 168 136 125 199 152 135 209 165 145 210
163 142 205 154 131 197 141 117 193 141 119 201 158 142 199 162 144 193 152 129 191 148
116 191 145 116 194 150 123 197 152 127 197 154 133 197 158 135 196 162 138 192 162 141
183 154 136 175 144 129 172 141 131 169 142 130 173 142 127 183 152 132
 65  52  40  59  42  32  74  55  47  96  70  61 117  86  76 167 132 125 214 180 174 225
195 184 222 192 177 221 189 176 221 187 175 222 188 176 223 190 178 222 189 177 222 187
173 219 184 171 215 176 162 183 142 116 149 108  83 137 111 101 176 143 123 115  90  80
154 117 118 173 131 112 186 154 133 191 161 143 169 135 122 213 170 153 215 174 160 216
173 155 212 167 148 205 158 137 201 153 128 198 151 126 202 155 135 203 160 138 202 163
138 209 164 140 201 158 133 198 155 130 195 154 132 195 155 132 195 156 135 192 157 137
182 148 131 176 146 131 174 144 133 176 145 134 186 153 136 192 161 140
 61  53  43  66  50  39  65  47  42  82  58  49 112  81  70 158 124 114 206 175 170 224
196 188 223 194 180 226 189 178 222 185 174 221 187 175 222 190 177 221 189 176 221 188
176 221 187 175 219 181 167 184 143 119 171 128 103 142 110  93 156 131 117 156 124 101
147 107  99 193 157 133 194 163 143 152 129 118 195 159 139 218 181 167 219 182 169 220
177 161 217 172 155 210 168 146 204 163 138 205 160 137 203 161 136 203 163 138 204 168
143 207 171 147 206 167 144 201 161 139 196 158 134 197 158 135 194 159 136 190 157 138
183 152 136 177 150 137 178 149 137 189 158 140 195 165 143 195 164 144
 27  26  25  66  53  43  56  40  28  74  51  42 101  70  61 138 106  96 191 160 154 219
193 187 225 198 188 225 194 182 223 190 179 223 188 177 221 189 177 220 188 176 222 187
176 222 188 175 222 185 170 199 160 135 178 136 113 174 140 112 132 113  99 135 114 101
145 117 100 150 130 122 144 121 109 184 150 128 215 177 155 216 179 166 220 186 169 220
183 165 217 179 160 213 176 153 206 169 144 205 166 142 207 170 145 206 172 146 206 172
147 205 171 147 206 171 149 202 167 146 200 163 141 199 163 141 194 163 141 188 160 143
181 157 143 182 153 142 190 161 142 197 167 147 201 169 149 206 174 151
  9  10  14  50  41  37  64  48  38  68  47  37  88  62  53 115  86  76 158 129 122 204
177 170 225 198 190 224 198 188 224 195 184 224 192 180 221 189 177 220 188 176 219 188
175 219 189 175 219 187 173 217 181 163 200 165 140 186 151 126 187 153 122 111  92  69
 39  37  41 144 107  83 195 158 130 210 175 154 216 179 164 218 181 163 217 182 163 216
180 162 216 179 161 214 179 159 208 175 154 208 176 151 208 175 150 209 175 150 210 175
152 209 173 152 208 173 151 206 171 149 200 168 149 198 167 148 193 165 148 185 160 149
182 159 144 192 163 146 198 168 150 206 175 155 212 179 159 194 185 183
 16  16  13  13  14  16  54  44  40  63  44  35  71  52  44  85  63  53 117  90  81 175
147 141 218 190 187 226 201 192 225 198 187 224 194 186 221 194 182 220 190 178 218 187
172 217 187 173 216 186 172 213 183 169 213 183 168 205 175 156 203 172 149 168 148 122
137 115  96 202 163 131 198 165 140 206 172 152 217 185 166 218 182 163 213 176 158 213
176 158 214 179 158 213 180 160 211 179 160 211 181 160 209 178 157 209 178 157 212 178
158 211 176 157 210 175 154 205 174 154 200 172 155 193 168 150 188 159 146 185 158 140
195 165 147 209 179 160 216 186 169 209 180 165 196 183 188 194 207 229
 16  16  14  15  15  13  21  20  22  50  40  36  54  41  31  63  46  39  89  67  61 125
100  98 176 152 154 202 180 179 209 188 182 210 189 182 211 190 181 214 190 181 212 186
175 213 185 173 214 184 169 213 183 168 212 182 167 211 183 168 211 184 164 202 178 157
159 143 131 199 168 145 194 162 135 206 176 155 215 185 165 214 180 161 211 175 155 210
175 155 211 177 157 213 179 160 212 178 160 211 180 163 212 180 164 211 180 163 209 178
162 209 177 162 206 176 156 202 174 157 201 172 157 199 173 158 202 176 163 205 182 170
210 187 177 200 174 165 188 164 158 189 187 193 197 210 233 202 214 239
 15  15  14  17  17  14  14  15  15  21  19  20  44  36  31  51  38  30  60  48  40  75
 53  48 101  82  81 144 123 124 174 157 151 183 167 157 189 173 162 192 176 164 193 176
164 201 178 166 208 183 171 211 187 171 212 188 171 211 186 171 212 186 172 213 186 169
146 129 122 194 157 148 198 165 144 210 182 164 212 181 162 209 179 155 207 175 153 207
175 151 207 174 153 210 176 159 210 176 159 209 178 163 210 178 163 209 177 163 209 179
164 209 182 168 209 184 168 202 179 169 185 167 160 155 142 139 138 128 133 130 120 126
123 117 127 155 144 147 180 183 196 201 214 241 203 215 242 202 215 241
 16  16  14  16  16  14  18  18  16  15  15  17  22  18  21  40  32  28  48  40  32  58
 42  35  65  49  43  89  69  66 129 111 104 161 144 132 172 155 140 173 157 141 176 160
148 179 162 148 184 167 152 187 170 161 192 176 165 196 176 165 195 174 165 200 180 171
157 142 125 142 102  97 195 171 166 211 187 174 209 178 161 208 175 156 209 174 163 212
180 166 212 183 165 212 179 167 211 178 166 208 175 161 211 175 162 210 176 165 210 167
154 191 150 140 140 126 127 104  99 105  46  47  59   0   0   0   0   0   0   0   0   0
  0   0   0 160 169 197 210 225 252 209 220 246 203 214 242 200 214 240
 15  15  13  16  16  14  16  16  14  18  18  17  19  16  17  19  16  18  35  29  27  50
 38  35  58  43  36  61  45  33  80  59  57 119 100  97 148 130 121 167 150 137 164 148
134 164 148 130 167 150 133 162 145 128 156 138 123 158 141 125 155 138 123 155 138 126
154 138 118 110  91  67 136 111 112 205 172 160 204 164 148 196 149 131 174 108 103 178
107 113 202 145 144 206 154 149 207 146 144 216 164 150 217 174 158 220 176 163 225 169
148 203 137 116  42   0   0   0   0   0  14   9   0  30  27  23  32  30  29  34  32  34
 20  20   2   0   0   9 106 117 147 169 185 214 202 218 248 209 223 251
 15  15  13  16  16  14  17  17  15  17  17  16  18  17  16  17  17  16  15  14  13  25
 22  20  40  34  30  52  41  35  59  46  36  78  62  54 117 100  91 147 129 120 162 145
132 161 147 129 162 146 131 166 146 132 162 141 123 158 139 120 159 143 125 159 143 126
163 144 127 139 122 104 166 123 113 219 169 155 190 133 115 199 146 130 197 134 105 182
 84  49 185  83  68 195 107  96 202 129 119 217 170 163 217 166 156 234 184 174 231 189
184 157 129 123   5   7   0  34  32  32  21  20  19  16  16  14  14  14  14  14  14  13
 19  19  22  28  27  19   0   0   0   0   0   0  92 100 132 159 170 205
 15  15  13  16  16  14  16  16  14  17  17  15  17  17  15  16  16  14  17  17  15  14
 16  13  15  16  16  23  22  21  33  29  27  54  48  46  83  73  72  97  87  86 118 110
108 133 122 119 136 126 118 143 133 124 145 134 126 146 132 125 140 129 122 137 126 119
124 115 111 112  95  92 214 165 152 205 150 134 189 130 111 208 156 145 216 167 148 208
143 120 201 128 108 201 134 114 220 162 148 216 153 143 218 151 150 194 152 159 113  98
105   0   0   0  14  15  11  20  19  18  16  16  14  15  15  14  15  15  15  15  15  16
 16  16  16  16  16  18  27  29  34  31  32  30   0   0   0   0   0   0
 16  16  14  16  16  14  16  16  14  18  18  16  18  18  16  16  16  14  16  16  15  17
 16  16  18  17  17  16  16  17  13  14  14   4   7   6   0   1   6   0   0   2   0   1
 12   6  12  29  30  31  42  38  41  47  39  42  49  48  49  56  54  54  61  47  43  48
  0   0   0 136 103 101 222 169 154 178 109  91 199 136 126 210 155 148 213 157 149 214
154 142 214 156 138 223 167 154 208 158 153 170 130 132 114  95 103   0   0   0   0   0
  0  31  25  22  18  18  16  17  17  15  16  16  16  15  15  15  15  15  15  15  15  15
 16  16  16  16  16  16  15  15  15  16  16  17  25  26  33  33  34  35
 15  15  13  16  16  14  16  16  14  16  16  14  17  17  15  16  16  14  17  17  16  17
 17  17  16  16  15  18  18  17  17  17  16  18  18  16  22  21  18  22  20  17  20  19
 14  18  17  12  10   9   1   5   3   0   7   4   0   0   0   0   0   0   0  28  22  22
  0   0   0 142 120 129 225 173 158 186  84  49 190  93  89 197  98  94 204 112 101 214
138 122 204 151 145 153 118 120  69  57  66   0   0   0   0   0   0  30  24  19  31  27
 27  16  16  14  17  17  15  17  17  15  17  17  16  16  16  15  15  15  14  15  15  15
 16  16  16  16  16  16  15  15  15  16  16  16  17  17  17  16  16  16
 15  15  13  16  16  14  17  17  15  17  17  15  16  16  14  16  16  14  17  17  15  17
 17  15  17  17  15  17  17  15  16  16  15  15  15  16  17  17  16  17  17  15  17  17
 16  18  18  16  19  18  17  19  19  18  20  20  18  20  20  20  19  19  19  20  20  19
 17  12   0  15  26  52 168 145 149 204 146 125 199 126 107 198 125 108 190 128 113 160
122 114  75  68  72   0   0   0   0   0   0  34  27  23  29  25  24  18  17  16  16  16
 14  17  17  14  17  17  15  17  17  14  16  16  14  16  16  14  15  15  13  15  15  14
 16  16  17  15  15  15  15  15  15  15  15  15  15  16  15  14  17  15
 16  16  14  16  16  14  17  17  15  18  18  16  17  17  15  16  16  14  16  16  14  16
 16  14  17  17  15  16  16  14  15  15  14  15  15  15  18  18  16  18  18  16  18  18
 16  18  18  16  16  16  14  16  16  14  17  17  15  16  16  15  16  16  15  14  14  12
 17  17  17   2   0   0   0   0   0  70  69  73  94  86  85  77  74  74  21  41  44   0
  0   0   0   0   0  34  28  26  21  19  19  17  18  13  16  17  13  16  16  14  16  16
 14  16  16  14  17  17  15  17  17  15  16  16  14  16  16  15  16  16  15  15  15  14
 16  16  15  16  16  15  15  15  14  15  15  15  15  15  15  14  15  15
 15  15  13  16  16  14  16  16  14  17  17  15  17  17  15  17  17  15  17  17  15  16
 16  14  17  17  15  17  17  15  15  15  12  15  15  13  17  17  15  18  18  16  18  18
 16  16  16  14  17  17  15  17  17  15  16  16  14  16  16  14  15  15  13  15  15  13
 13  13  12  18  17  19  30  25  20   0   0   0   0   0   0   0   0   0  14   4   0  33
 25  22  23  21  20  16  17  14  19  19  17  19  20  14  17  18  14  16  16  14  16  16
 14  16  16  14  17  17  15  17  17  15  16  16  14  16  16  14  16  16  16  15  15  14
 15  15  13  16  16  14  15  15  13  15  15  15  15  15  15  15  15  15
 16  16  14  16  16  14  17  17  15  17  17  15  17  17  15  16  16  14  16  16  14  17
 17  15  17  17  15  17  17  15  15  15  13  15  15  13  17  17  15  18  18  16  17  17
 15  17  17  15  16  16  14  17  17  15  17  17  15  15  15  13  14  14  12  15  15  13
 14  14  12  13  13  12  14  14  14  21  19  19  24  21  20  21  19  17  17  16  14  14
 14  12  15  15  13  16  16  14  17  17  15  20  21  18  19  20  17  17  17  15  16  16
 14  16  16  14  17  17  15  17  17  15  17  17  16  16  16  15  15  15  15  16  16  15
 15  15  13  15  15  13  15  15  13  15  15  15  15  15  15  15  15  15
 16  16  14  16  16  14  18  18  16  17  17  15  16  16  14  17  17  15  16  16  14  16
 16  14  17  17  15  17  17  15  15  15  13  16  16  14  16  16  14  18  18  16  17  17
 15  17  17  15  17  17  15  16  16  14  17  17  15  16  16  14  16  16  14  14  14  12
 13  13  11  13  13  11  14  14  13  14  14  14  14  14  13  14  14  12  14  14  12  13
 13  11  13  13  11  15  15  13  16  16  14  17  17  15  20  20  18  21  21  19  18  18
 16  16  16  14  16  16  14  16  16  15  17  17  17  16  16  16  16  16  16  16  16  15
 15  15  13  15  15  13  15  15  13  15  15  15  15  15  15  15  15  15
