P3
# 8-bit ppm - RGB
50 50
255
 12  12  10  12  12  10  12  12  10  12  12  10  11  11  10  12  12  12  12  12  11  13
 13  11   9  10   8  26  22  19  59  50  52 104  75  64 125  92  77 119  89  77 126  95
 83 121  94  80 123  98  84 120  97  82 122  99  84 125 100  86 127 100  87 130 104  91
131 106  92 138 107  95 143 112 100 140 114 101 144 116 106 146 123 109 150 129 114 158
132 115 170 139 123 183 152 132 192 161 140 195 164 144 206 174 151 194 185 183 194 207
229 202 214 239 202 215 241 200 214 240 209 223 251 159 170 205   0   0   0  33  34  35
 16  16  16  14  17  15  14  15  15  15  15  15  15  15  15  15  15  15
 12  12   9  12  12  10  12  12  10  12  12  10  11  11  10  11  11  10  11  12  10  12
 12  10  14  14  11   6   8   7  21  16  13 114  84  70 121  90  76 122  91  78 124  95
 81 121  94  81 125  98  84 120  98  83 121  98  83 123  95  82 122  93  80 123  96  82
128 102  88 134 108  94 138 109  98 142 113 102 144 117 106 150 123 112 156 133 120 161
134 123 168 135 125 173 142 127 186 153 136 195 165 143 201 169 149 212 179 159 196 183
188 197 210 233 203 215 242 203 214 242 202 218 248  92 100 132   0   0   0  25  26  33
 17  17  17  15  16  15  15  15  15  15  15  15  15  15  15  15  15  15
 11  11   9  12  12  10  12  12  10  12  12  10  11  11   9  11  11   9  11  11   9  11
 11   9  15  13  10   0   4   7  51  34  22 121  90  71 119  90  76 124  93  79 121  92
 78 123  96  83 124  97  84 117  95  81 113  92  77 118  91  77 123  94  81 126  99  86
131 105  91 131 107  92 132 107  91 137 109  96 143 116 106 145 121 110 156 130 119 160
136 124 165 138 127 169 142 130 176 145 134 189 158 140 197 167 147 206 175 155 209 180
165 189 187 193 201 214 241 209 220 246 169 185 214   0   0   0  31  32  30  16  16  17
 16  16  16  15  15  15  15  15  15  15  15  15  15  15  15  15  15  15
 11  11   9  12  12   9  11  11   9  11  11   9  11  11   9  11  11   9  11  11   9  11
 11   9  19  16  12   0   0   0  80  57  42 122  91  75 119  88  74 126  93  77 128  94
 80 129  97  84 123  96  82 115  89  76 117  90  75 128  98  83 137 104  87 146 112  97
152 123 104 147 118  99 145 115  95 149 119 102 155 125 112 156 127 115 161 133 121 165
139 127 167 141 129 172 141 131 174 144 133 178 149 137 190 161 142 198 168 150 216 186
169 188 164 158 180 183 196 210 225 252 106 117 147   0   0   0  27  29  34  15  15  15
 15  15  15  15  15  15  15  15  14  15  15  13  15  15  13  15  15  13
 11  11   9  12  12  10  12  12  10  11  11   9  12  12  10  11  11   9  11  11   9  12
 11   9  18  15  12   0   0   0  95  72  55 119  88  73 119  86  74 129  95  78 130  97
 80 126  95  78 120  93  75 124  91  76 137  95  78 144 106  84 153 115  91 165 122 101
170 131 109 164 126 104 164 122 102 171 131 110 178 140 120 181 145 126 184 148 131 183
152 137 177 147 132 175 144 129 176 146 131 177 150 137 182 153 142 192 163 146 209 179
160 200 174 165 155 144 147 160 169 197   0   0   9  28  27  19  16  16  18  16  16  16
 16  16  16  15  15  15  16  16  15  16  16  14  15  15  13  15  15  13
 11  11   9  12  12  10  12  12  10  12  12  10  12  12  10  11  11   9  11  11   9  12
 11   9   9  12   9  14   9   6 106  79  61 118  88  73 124  91  77 133  97  80 133  99
 80 127  97  75 129  96  74 141 102  80 152 108  87 157 115  91 168 123 100 180 134 111
182 139 115 178 135 111 179 136 112 188 145 121 191 154 129 197 163 139 198 163 141 195
162 142 188 158 142 183 154 136 182 148 131 183 152 136 181 157 143 182 159 144 195 165
147 210 187 177 123 117 127   0   0   0  20  20   2  19  19  22  16  16  16  16  16  16
 16  16  16  16  16  17  16  16  15  15  15  13  15  15  13  15  15  13
 12  12  10  12  12  10  12  12  10  12  12  10  12  12  10  11  11  10  11  11  10  14
 12  10   0   5   4  45  30  22 115  82  66 119  90  73 131  97  77 140 102  80 140 102
 80 140 104  78 145 106  80 156 112  88 167 122 100 170 129 103 176 132 108 188 140 117
194 147 125 191 145 123 195 150 127 206 164 143 209 171 150 207 172 148 206 172 147 203
172 147 196 168 145 192 162 141 192 157 137 190 157 138 188 160 143 185 160 149 185 158
140 205 182 170 130 120 126   0   0   0  34  32  34  14  14  13  15  15  16  15  15  15
 15  15  15  15  15  14  15  15  14  15  15  14  16  16  15  16  16  15
 12  12  10  12  12  10  12  12  10  11  11   9  11  11  10  11  11  11  11  11  10  17
 14  11   0   0   1  68  47  33 119  87  67 128  90  73 141  98  79 146 102  80 146 104
 83 150 108  83 157 110  85 162 116  90 167 122  96 172 126 101 181 132 108 191 141 117
199 152 131 199 153 133 204 162 139 212 175 155 210 175 156 206 172 149 205 171 146 206
173 149 201 169 144 196 162 138 195 156 135 194 159 136 194 163 141 193 165 148 188 159
146 202 176 163 138 128 133   0   0   0  32  30  29  14  14  14  15  15  15  15  15  15
 15  15  14  15  15  13  16  16  15  16  16  16  15  15  15  16  16  16
 12  12  12  12  12  11  11  11   9  11  11   9  11  11   9  11  11  10  11  11   9  17
 14  11   0   0   3  93  66  50 124  92  72 138  95  79 146  99  80 149 102  81 153 108
 83 158 115  88 162 114  90 165 117  92 164 116  91 168 119  94 177 130 104 183 137 111
189 142 118 194 148 124 200 155 130 200 156 133 195 151 130 198 158 134 201 166 140 202
168 142 201 166 140 197 158 135 195 155 132 197 158 135 199 163 141 198 167 148 193 168
150 199 173 158 155 142 139   0   0   0  30  27  23  16  16  14  15  15  14  15  15  15
 16  16  15  16  16  14  16  16  15  16  16  14  16  16  15  16  16  16
 11  11  11  11  11  10  11  11   9  11  11   9  11  11   9  11  11   9  13  12  10   3
  8   8  39  25  15 113  80  59 129  92  71 141  99  79 147 102  81 150 104  82 162 116
 90 166 123  96 163 115  91 161 111  88 159 110  86 164 116  90 171 124  98 175 131 104
179 133 108 182 136 111 186 139 115 187 141 115 192 147 118 196 154 128 198 163 137 199
166 138 198 162 137 197 154 133 195 154 132 196 158 134 200 163 141 200 168 149 200 172
155 201 172 157 185 167 160  46  47  59  14   9   0  21  20  19  16  16  14  16  16  16
 17  17  16  16  16  14  16  16  14  16  16  14  17  17  16  17  17  17
  9   9   9  10  10   9  11  11   9  11  11   9  11  11   9  11  11   9  22  16  12   0
  0   0  71  50  36 125  86  65 136  91  71 145 100  78 148 102  83 156 108  86 167 120
 94 171 128 102 167 119  94 158 109  85 152 104  80 156 111  86 164 123  97 166 131 103
167 127 102 168 124 100 172 129 103 179 138 112 189 149 123 193 157 129 198 163 138 201
166 142 198 161 137 197 152 127 198 155 130 201 161 139 202 167 146 206 171 149 205 174
154 202 174 157 202 179 169 104  99 105   0   0   0  34  32  32  20  19  18  17  17  15
 17  17  15  17  17  14  17  17  15  17  17  15  17  17  15  16  16  15
 10  10  10  11  11   9  11  11   9  10  11   9  14  12  10  17  14  12   0   5   6   0
  0   0  96  66  50 128  88  68 140  95  75 148 102  81 150 103  83 160 111  87 173 125
 99 178 135 109 172 125 100 158 109  85 152 103  79 160 110  87 171 118  99 174 118 102
178 115  99 182 116 101 184 118 102 191 133 114 199 149 130 203 163 139 208 171 151 206
171 147 198 161 137 194 150 123 201 158 133 206 167 144 206 171 149 208 173 151 210 175
154 206 176 156 209 184 168 140 126 127  42   0   0   5   7   0  14  15  11  18  18  16
 17  17  15  17  17  15  17  17  15  17  17  15  17  17  15  16  16  14
 11  11   9  11  11   9  11  11   9  13  12   9   3   8   8   0   0   1  62  39  28  46
 30  18 113  77  60 130  88  70 142  98  77 150 102  82 155 107  82 167 115  90 179 129
104 180 136 109 166 123  97 145 102  82 139  89  74 149  90  77 161  91  82 180 102 100
198 117 118 200 119 120 205 129 126 209 136 135 209 143 140 205 145 139 192 145 133 189
150 132 187 146 122 191 145 116 209 164 140 207 171 147 205 171 147 209 173 152 211 176
157 209 177 162 209 182 168 191 150 140 203 137 116 157 129 123   0   0   0  31  25  22
 16  16  14  17  17  14  16  16  14  16  16  14  16  16  14  16  16  14
 11  11   9  11  11   9  12  12   9  15  12  10   0  10   6 118  70  53 156  92  71 121
 75  55 120  80  60 130  88  69 141  98  77 150 103  83 158 112  87 170 120  94 176 126
101 173 128 102 156 114  87 114  75  56  96  48  44 109  52  48 125  59  55 139  68  64
149  73  73 158  77  79 168  89  91 169  94 101 172 102 106 158  93  95 142  79  68 143
 90  71 169 120  91 191 148 116 202 163 138 204 168 143 206 172 147 210 175 152 212 178
158 209 178 162 209 179 164 210 167 154 225 169 148 231 189 184 113  98 105   0   0   0
 31  27  27  16  16  14  16  16  14  16  16  14  16  16  14  18  18  16
 11  11   9  11  11   9  22  16  12   0   0   0 101  63  45 165 100  80 150  89  71 132
 85  65 123  81  63 131  88  69 141  99  78 151 104  84 159 113  88 168 118  92 172 122
 97 164 118  95 155 114  90 149 108  83 144  95  75 140  86  74 141  85  76 143  85  75
143  72  63 159  74  70 169  87  85 167  91  85 172 104  93 180 118 103 191 138 118 190
148 127 180 139 114 193 152 129 203 160 138 203 163 138 206 172 146 209 175 150 209 178
157 211 180 163 209 177 163 210 176 165 220 176 163 234 184 174 194 152 159   0   0   0
 30  24  19  18  17  16  16  16  14  16  16  14  17  17  15  21  21  19
 11  11   9  11  10   8  16  14  13   3   9   9 139  86  66 163 104  82 153  98  78 127
 85  65 121  82  63 130  88  67 144 102  78 152 105  83 158 111  86 165 116  90 172 122
 97 163 116  94 158 115  96 159 120  98 161 119  96 167 116  95 170 112  98 173 107  94
182 116  98 196 127 116 197 128 117 198 134 120 203 148 130 211 164 146 206 170 151 192
161 142 189 154 134 199 162 144 202 155 135 203 161 136 207 170 145 208 175 150 209 178
157 212 180 164 210 178 163 211 175 162 217 174 158 217 166 156 218 151 150 114  95 103
  0   0   0  29  25  24  16  17  13  17  18  14  19  20  17  20  20  18
 10  10   8  22  17  15   0  11  12  82  45  35 154  83  68 153  95  74 150  98  78 119
 75  59 122  82  65 131  88  66 146 104  80 151 105  82 159 110  85 167 118  92 176 126
101 174 124  99 170 124 101 164 120 101 156 115  95 157 116  94 163 116  95 171 116  93
192 139 117 193 141 127 195 139 123 206 160 139 208 166 148 205 166 151 201 164 146 199
163 145 205 167 150 201 158 142 198 151 126 205 160 137 205 166 142 208 176 151 211 181
160 211 180 163 209 178 163 208 175 161 216 164 150 217 170 163 216 153 143 170 130 132
  0   0   0  34  27  23  17  18  13  19  20  14  20  21  18  17  17  15
 17  18  13  31  26  21   0   3   2 116  61  50 155  87  70 147  94  76 122  60  48 113
 70  51 123  84  65 131  88  67 150 101  79 154 105  83 161 111  87 173 123  98 179 129
105 180 129 105 178 126 103 173 124 100 160 111  90 150 107  85 149 110  91 156 116  93
175 131 110 178 129 114 189 134 114 202 158 141 203 164 148 204 165 147 203 164 146 205
166 149 201 156 140 193 141 119 201 153 128 204 163 138 206 169 144 208 175 154 211 179
160 212 178 160 210 176 159 211 178 166 207 146 144 202 129 119 220 162 148 208 158 153
 69  57  66   0   0   0  21  19  19  19  19  17  17  17  15  16  16  14
 23  23  18  19  18  15   0   6   4 137  73  59 157  96  79 132  69  57 133  80  62 125
 84  65 122  80  62 133  90  69 149 101  80 156 107  84 166 116  93 176 126 103 183 133
110 183 130 108 177 125 102 173 121  95 161 108  86 149  96  78 140  91  74 148  99  77
162 109  91 165 108  94 184 132 112 193 145 129 193 144 131 204 159 142 206 163 146 200
153 135 187 132 105 197 141 117 205 158 137 210 168 146 213 176 153 214 179 159 213 180
160 213 179 160 210 176 159 212 179 167 206 154 149 195 107  96 201 134 114 223 167 154
153 118 120   0   0   0  34  28  26  16  17  14  16  16  14  15  15  13
 15  12  10   0   3   5  59  29  22 151  90  75 151  87  74 130  61  51 146  95  76 128
 85  70 121  79  60 134  91  71 151 103  83 159 108  85 168 115  95 178 126 106 185 135
114 186 132 112 182 127 107 171 119  97 160 109  86 133  81  60 125  70  50 116  64  49
128  75  59 145  89  69 162 107  87 153  94  85 142  64  51 182 118  94 199 149 130 187
131 110 191 129 105 205 154 131 212 167 148 217 172 155 217 179 160 216 179 161 214 179
158 211 177 157 207 174 153 212 183 165 202 145 144 185  83  68 201 128 108 214 156 138
204 151 145  75  68  72   0   0   0  23  21  20  15  15  13  13  13  11
 24  17  12   0   0   0 105  62  51 163  98  81 156  96  79 127  63  51 125  66  53 123
 81  65 119  80  60 133  89  67 152 107  83 162 111  89 170 114  93 179 125 104 184 131
111 186 131 112 187 132 113 182 125 105 163 110  89 144  87  69 147  92  75  96  57  47
103  60  42 142  90  68 156 105  88 107  66  61 151  82  54 199 136 113 187 128 109 188
125 100 202 144 123 210 163 142 216 173 155 220 177 161 220 183 165 216 180 162 213 176
158 210 175 155 207 175 151 212 180 166 178 107 113 182  84  49 208 143 120 214 154 142
214 138 122 160 122 114   0   0   0  33  25  22  14  14  12  13  13  11
 32  27  23   0   8   6 135  79  68 160  87  72 163 101  84 142  82  68  90  27  18 110
 66  49 124  81  61 133  87  65 155 108  83 164 111  89 170 111  89 178 121 101 181 126
106 180 124 108 183 127 111 187 126 109 174 121 101 149  96  78 145  85  68 141  86  65
143  88  65 167 106  85 181 122 106 179 126 105 202 146 122 208 154 144 184 122 102 192
133 109 201 148 129 209 165 145 215 174 160 219 182 169 220 186 169 217 182 163 213 176
158 211 175 155 207 175 153 209 174 163 174 108 103 197 134 105 216 167 148 213 157 149
204 112 101 190 128 113  21  41  44  14   4   0  17  16  14  14  14  12
 14  18  16  44  29  22 153  86  70 154  79  62 162 102  84 158 104  86 123  74  59 114
 69  48 124  81  60 135  89  65 156 106  82 166 114  91 169 116  94 173 119  97 174 120
 98 174 117  99 173 116  95 172 114  95 175 119 100 164 113  92 134  82  65 140  87  69
172 113  90 194 133 113 202 149 132 208 158 142 201 157 142 185 131 119 184 119  97 185
122 105 188 135 116 199 152 135 213 170 153 218 181 167 216 179 166 218 181 163 218 182
163 214 180 161 209 179 155 208 175 156 196 149 131 199 146 130 208 156 145 210 155 148
197  98  94 198 125 108  77  74  74   0   0   0  21  19  17  14  14  12
  0   1   3  70  44  35 154  83  67 151  77  58 159 101  83 154 100  86 139  88  73 126
 81  60 122  82  59 138  93  68 157 106  82 166 115  92 169 116  93 169 118  93 164 117
 93 154 110  90 146 103  86 140  95  82 128  82  68 127  78  62 134  85  68 140  85  67
179 116  95 200 135 117 211 160 145 217 175 168 191 144 136 151  96  84 151 109  92 162
123 110 167 137 121 168 136 125 169 135 122 195 159 139 215 177 155 216 179 164 217 185
166 215 185 165 212 181 162 209 178 161 204 164 148 190 133 115 189 130 111 199 136 126
190  93  89 199 126 107  94  86  85   0   0   0  24  21  20  14  14  13
  0   5   5  60  37  28 148  78  65 145  75  58 150  95  77 135  82  66 141  90  73 129
 86  70 127  83  59 144  98  74 157 106  83 162 111  89 165 114  92 150 112  93 131 106
 91 140 113  95 150 117  99 153 118 100 146 110  92 113  86  74  84  56  48 132  82  61
169 107  87 199 136 116 211 163 145 211 169 159 148 113 111 143 114  94 190 153 134 194
155 136 194 160 139 195 161 142 191 161 143 152 129 118 184 150 128 210 175 154 206 172
152 206 176 155 210 182 164 211 187 174 205 172 160 219 169 155 205 150 134 178 109  91
186  84  49 204 146 125  70  69  73   0   0   0  21  19  19  14  14  14
 17  14  12   0   9   8 127  75  59 133  64  50 132  74  57 149  93  71 138  85  70 111
 71  59 128  82  65 147 103  82 156 114  89 151 108  82 139 101  82 116  95  79 147 117
 98 153 118  98 156 119 103 159 124 106 163 123 108 164 119 100 120  96  80  99  61  48
165 102  81 199 135 114 218 169 151 194 155 151 137 109  98 199 156 134 188 146 131 176
138 125 176 140 124 179 146 127 186 154 133 194 163 143 144 121 109 195 158 130 198 165
140 194 162 135 198 165 144 195 171 166 136 111 112 166 123 113 214 165 152 222 169 154
225 173 158 168 145 149   0   0   0  30  25  20  14  14  14  14  14  13
 20  16  13   0   0   4  72  47  36 148  88  69 164 103  84 139  87  75  62  24  24  70
 45  36 120  81  66 139  99  79 150 111  88 142 102  79  99  73  59 117  90  73 133  93
 74 136  95  78 144 104  86 148 104  89 149 108  98 148 110  98 140 100  86  79  58  52
146  90  68 197 135 110 218 171 154 160 130 132 147 113  89 183 142 124 155 111 104 151
100  85 164 116  97 170 126 108 173 131 112 193 157 133 150 130 122 144 107  83 202 163
131 199 168 145 194 157 148 142 102  97 110  91  67 139 122 104 112  95  92 136 103 101
142 120 129  15  26  52   2   0   0  18  17  19  13  13  12  13  13  11
 13  13  11  19  16  14   0   0   0  80  48  41 101  65  62  32  26  31  11  12  13  44
 27  21  96  61  46 122  81  63 132  97  76 123  91  73  77  57  51 103  72  62  97  65
 49 112  86  73 111  90  81 132 103  94 139  97  92 137  99  87 139 104  87  80  62  59
121  74  52 206 145 120 220 174 167 120 101 106 157 120  94 165 128 115 134  81  72 141
 96  81 127 100  97 131 109 105 154 117 118 147 107  99 145 117 100  39  37  41 137 115
 96 159 143 131 146 129 122 157 142 125 154 138 118 163 144 127 124 115 111   0   0   0
  0   0   0  17  12   0  17  17  17  13  13  12  14  14  12  13  13  11
 13  14  12  12  12  10  20  16  13   0   0   0   0   0   0  19  16   7  40  29  22  40
 28  22  55  35  27  76  49  36  83  64  50  56  49  44  52  37  27 122  91  70 101  75
 59  66  58  52  27  46  52  63  61  63 110  77  71 128  83  67 134  97  83  85  67  66
 24   7   0 137  95  86 132 104 110   0   0  26 140 109  93 160 122 108 125  85  75  95
 76  72  47  65  69  61  67  65 115  90  80 156 124 101 135 114 101 111  92  69 168 148
122 202 178 157 213 186 169 200 180 171 155 138 126 159 143 126 137 126 119  47  43  48
 28  22  22  20  20  19  14  14  12  15  15  13  15  15  13  14  14  12
 13  13  11  13  13  11  12  13  11  20  16  13  23  17  16  25  19  14  42  30  21  51
 33  22  99  72  50 122  89  66 118  85  64 111  82  67  82  66  58 114  88  70 137 102
 80 140 110  90 135 109  97 141 117 103 143 114  94 141 114  89 121  99  85  77  61  55
107  73  56 131 100  76 162 132 111 150 120 103  95  71  63 144 113  93 148 113  94 138
103  87 145 116  98 163 138 120 176 143 123 156 131 117 132 113  99 187 153 122 203 172
149 211 184 164 212 186 172 195 174 165 155 138 123 159 143 125 140 129 122  54  54  61
  0   0   0  19  19  19  16  16  15  15  15  13  14  14  12  16  16  14
 13  13  11  12  12  10  12  12  10  13  13  11  12  12  11  22  17  13  40  28  21  54
 35  25 106  74  53 128  89  68 129  93  72 129  87  70 125  88  72 103  77  65 114  85
 73 136  97  83 150 113  97 145 112  96 132 106  84 116  96  79  94  74  67 117  75  55
155 104  72 193 144 112 209 165 144 184 138 121 130  90  70  98  67  56 116  82  70 128
 90  74 146 113  94 152 125 110 137 111 101 142 110  93 174 140 112 186 151 126 205 175
156 211 183 168 211 186 171 196 176 165 158 141 125 158 139 120 146 132 125  48  49  56
  0   0   0  20  20  20  16  16  15  16  16  14  15  15  13  16  16  14
 13  13  11  12  12  11  12  12  10  13  13  11  15  16  14  21  18  15  37  27  21  49
 31  22 100  72  54 128  90  70 132  94  72 133  95  75 122  80  61 126  86  65 115  82
 68  94  69  60  88  62  54  79  52  46  65  45  37  79  47  43 109  66  46 128  77  53
154 103  72 175 124  99 185 133 114 173 123 102 150 100  74 125  76  57  87  46  32  74
 39  25  78  43  29 100  61  41 149 108  83 171 128 103 178 136 113 200 165 140 213 183
168 212 182 167 212 188 171 192 176 165 156 138 123 162 141 123 145 134 126  39  42  49
  7   4   0  20  20  18  17  17  15  16  16  14  17  17  15  17  17  15
 13  13  11  13  13  11  13  13  11  16  16  14  16  17  15  20  17  14  33  23  17  49
 32  23  99  70  53 129  89  70 136  93  73 144 101  80 143 100  78 131  88  65 136  95
 73 135  99  78 106  74  56  94  58  39  98  61  39 111  68  45 136  88  61 157 109  81
172 121  94 184 133 109 192 140 120 186 136 114 179 130 105 171 122  98 162 117  93 161
117  92 158 112  85 167 124  94 183 142 116 184 143 119 199 160 135 217 181 163 213 183
169 213 183 168 211 187 171 187 170 161 162 145 128 166 146 132 143 133 124  38  41  47
  5   3   0  19  19  18  16  16  14  17  17  15  17  17  15  16  16  14
 12  12  10  13  13  11  15  15  13  16  15  13  14  15  13  20  17  14  27  17  13  48
 31  23  96  67  50 129  89  70 138  95  75 145 102  78 157 111  88 162 116  93 158 115
 94 165 123 102 165 124 102 158 116  94 167 126 101 176 130 108 179 130 105 184 134 107
189 141 116 195 148 124 201 152 133 197 148 127 196 147 121 198 151 125 201 157 135 207
164 146 208 171 151 212 175 157 215 176 162 219 181 167 222 185 170 219 187 173 216 186
172 214 184 169 208 183 171 184 167 152 167 150 133 162 146 131 136 126 118  30  31  42
 10   9   1  19  18  17  16  16  14  17  17  15  16  16  14  17  17  15
 13  13  11  15  15  13  15  15  13  16  16  13  16  16  14  16  15  13  27  19  14  42
 26  18  86  56  42 126  87  68 136  98  76 146 101  78 160 110  87 171 121  99 179 131
112 178 135 116 181 135 118 184 137 121 188 142 124 192 145 125 193 142 123 199 148 128
201 155 134 203 157 137 207 159 142 205 157 139 206 160 141 203 157 137 208 162 142 211
165 149 213 175 158 217 181 166 219 184 171 221 187 175 222 188 175 219 189 175 217 187
173 213 185 173 201 178 166 179 162 148 164 148 130 161 147 129 133 122 119   6  12  29
 18  17  12  18  18  16  18  18  16  16  16  14  17  17  15  17  17  15
 17  17  15  15  15  13  16  16  14  17  17  15  14  14  12  14  14  13  24  17  13  38
 23  13  77  51  37 116  82  61 136  97  75 146  99  76 161 113  88 171 122  96 175 127
101 174 130 107 181 132 111 187 137 116 192 142 122 197 148 128 200 151 131 206 159 139
209 163 143 211 164 145 212 166 147 211 165 147 213 169 149 215 174 154 216 176 157 218
177 162 217 181 165 220 184 170 222 187 173 221 188 176 222 187 176 219 188 175 218 187
172 212 186 175 193 176 164 176 160 148 164 148 134 162 145 132 118 110 108   0   1  12
 20  19  14  17  17  16  18  18  16  18  18  16  17  17  15  17  17  15
 15  15  13  14  14  12  14  14  12  13  13  11  13  13  11  13  14  12  20  15  11  35
 19  13  66  44  32 104  71  54 136  92  72 147  99  76 164 112  89 175 124 100 176 127
103 175 127 104 183 131 109 188 137 114 196 145 122 200 150 129 203 155 134 208 161 141
212 166 146 215 170 149 213 168 150 212 166 147 215 170 150 217 177 159 221 180 166 223
184 173 222 188 175 223 189 176 222 189 177 221 189 176 220 188 176 220 188 176 220 190
178 214 190 181 192 176 164 173 157 141 167 150 137 147 129 120  97  87  86   0   0   2
 22  20  17  17  17  15  18  18  16  18  18  16  18  18  16  18  18  16
 15  15  13  16  16  14  13  13  11  13  13  11  13  13  11  13  13  11  17  14  12  27
 16  13  57  36  26  98  64  48 130  84  65 152 102  80 160 108  85 174 123  99 177 128
103 176 128 101 181 129 104 188 133 111 195 141 120 201 150 129 204 155 134 208 161 141
211 166 146 213 168 148 214 168 149 213 167 148 213 169 150 217 175 158 223 177 165 222
183 172 221 187 175 223 188 177 223 190 178 222 190 177 221 189 177 221 189 177 221 194
182 211 190 181 189 173 162 172 155 140 148 130 121 117 100  91  83  73  72   0   1   6
 22  21  18  17  17  16  18  18  16  17  17  15  17  17  15  16  16  14
 15  15  13  14  14  12  13  13  11  13  13  11  13  13  11  14  14  12  14  15  13  22
 16  13  39  23  16  79  50  37 124  83  63 148  98  77 155 105  82 169 120  94 175 126
101 179 127 103 181 129 105 187 132 110 193 139 118 199 148 127 202 152 132 208 159 139
211 166 147 213 167 149 214 166 148 210 168 149 213 172 154 216 176 158 218 179 164 220
182 171 221 188 176 222 189 177 222 188 176 221 187 175 223 188 177 224 192 180 224 194
186 210 189 182 183 167 157 161 144 132 119 100  97  78  62  54  54  48  46   4   7   6
 18  18  16  15  15  16  15  15  15  15  15  13  15  15  13  16  16  14
 14  14  12  14  14  12  14  14  12  14  14  12  14  14  12  15  14  13  14  15  13  17
 16  14  27  17  12  53  30  20 110  71  51 140  92  70 150 100  76 164 114  88 172 121
 97 176 125  99 181 129 104 187 132 110 192 139 117 194 144 122 200 149 129 205 156 135
207 164 144 210 167 148 212 169 149 210 173 153 210 175 155 213 178 160 216 180 166 221
183 172 221 185 174 220 186 174 221 187 175 222 185 174 223 190 179 224 195 184 225 198
187 209 188 182 174 157 151 129 111 104  80  59  57  59  46  36  33  29  27  13  14  14
 17  17  16  16  16  15  15  15  14  15  15  12  15  15  13  15  15  13
 13  13  11  13  13  11  13  13  11  14  14  12  14  14  12  13  13  14  13  13  12  14
 14  12  21  15  12  29  15  11  75  46  32 130  85  63 146  96  72 158 105  80 167 115
 91 174 122 100 178 126 104 187 130 109 189 137 114 192 142 118 199 148 125 200 153 131
205 161 141 208 164 145 210 167 147 209 171 151 211 173 154 216 177 163 219 181 171 220
182 171 222 183 172 222 187 175 221 189 176 226 189 178 225 194 182 224 198 188 226 201
192 202 180 179 144 123 124  89  69  66  61  45  33  52  41  35  23  22  21  16  16  17
 18  18  17  17  17  15  16  16  14  17  17  15  17  17  15  17  17  15
 12  12  12  13  13  11  13  13  11  13  13  11  13  13  11  13  13  12  13  13  11  14
 14  12  20  15  13  26  15  13  38  22  16 102  62  44 141  91  68 154 104  78 165 113
 87 172 118  96 179 125 103 185 130 108 190 137 115 193 142 121 199 148 128 201 151 132
205 157 139 207 160 143 209 165 148 210 171 151 211 172 153 215 177 164 217 180 169 219
181 171 222 185 175 222 189 175 222 192 177 223 194 180 225 198 188 225 198 190 218 190
187 176 152 154 101  82  81  65  49  43  58  43  36  40  34  30  15  16  16  18  17  17
 16  16  15  17  17  15  17  17  15  17  17  15  17  17  15  17  17  15
 12  12  12  13  13  12  13  13  11  13  13  11  13  13  11  13  13  11  13  13  11  12
 13  11  17  14  13  22  15  11  27  16  12  54  30  22 109  66  47 147  97  73 159 105
 83 169 113  91 177 122 100 184 129 106 188 134 113 191 141 120 197 146 126 200 148 129
201 154 136 206 159 141 207 163 145 210 172 153 210 173 157 215 178 166 218 182 170 220
184 173 223 187 177 224 191 181 225 195 184 224 196 188 219 193 187 204 177 170 175 147
141 125 100  98  75  53  48  58  42  35  50  38  35  25  22  20  14  16  13  17  16  16
 17  17  17  17  17  15  16  16  14  16  16  14  17  17  15  16  16  14
 12  12  10  13  13  11  13  13  11  13  13  11  13  13  12  13  13  12  13  13  11  13
 13  11  15  13  12  19  16  15  25  16  13  29  18  17  49  28  19 103  64  46 137  88
 68 157 103  81 170 116  94 181 126 106 188 134 113 192 139 117 196 144 123 199 149 128
199 154 133 202 157 140 201 159 142 209 168 155 214 174 160 217 180 170 218 182 172 216
182 173 214 180 172 216 183 176 214 180 174 206 175 170 191 160 154 158 129 122 117  90
 81  89  67  61  60  48  40  48  40  32  35  29  27  15  14  13  17  17  15  16  16  15
 17  17  16  17  17  15  16  16  14  17  17  15  16  16  14  16  16  14
 12  12  10  13  13  11  13  13  11  14  14  12  13  13  11  13  13  11  13  13  11  14
 14  11  14  14  12  15  15  13  21  16  13  22  14  10  32  21  15  46  27  19  78  46
 36 105  66  51 125  84  67 145  97  80 168 120 103 178 131 111 185 139 121 186 140 123
180 139 123 177 138 126 167 133 125 160 126 120 178 141 131 193 160 153 190 158 150 177
145 140 168 137 131 168 135 128 167 132 125 158 124 114 138 106  96 115  86  76  85  63
 53  63  46  39  51  38  30  40  32  28  19  16  18  17  17  16  16  16  14  16  16  14
 16  16  14  16  16  14  16  16  14  17  17  15  16  16  14  17  17  15
 13  13  11  14  14  12  13  13  11  13  13  11  14  14  12  13  13  11  13  13  11  14
 14  12  14  14  12  13  14  12  17  16  14  21  16  14  25  15  13  34  22  19  43  23
 18  57  31  24  76  47  35  93  62  48 111  76  63 124  89  74 130  94  82 130  95  84
128  93  85 121  90  81 121  91  82 118  88  79 110  79  73 121  90  82 133 102  94 130
 99  90 120  89  80 117  86  76 117  86  76 112  81  70 101  70  61  88  62  53  71  52
 44  54  41  31  44  36  31  22  18  21  19  16  17  18  17  16  17  17  15  18  18  16
 17  17  15  16  16  14  17  17  15  17  17  15  17  17  15  16  16  14
 13  13  11  13  13  11  13  13  11  13  13  11  13  13  11  13  13  11  13  13  11  13
 13  11  14  14  12  14  14  12  13  14  12  19  17  15  23  19  15  23  15  12  31  18
 14  40  26  20  46  29  21  61  36  28  79  52  44  87  62  53  90  65  54  96  69  59
 91  61  50  94  66  54 108  80  66 114  84  72 118  89  77 107  79  69  96  68  60 106
 80  67 103  77  65 102  75  65  96  70  61  82  58  49  74  51  42  68  47  37  63  44
 35  50  40  36  21  19  20  15  15  17  18  18  17  17  17  16  17  17  15  18  18  16
 16  16  14  17  17  15  18  18  16  17  17  15  17  17  15  17  17  15
 13  13  11  13  13  11  13  13  11  13  13  11  13  13  11  13  13  11  13  13  11  14
 14  12  14  14  12  14  14  12  14  14  12  14  14  11  18  17  13  22  19  14  25  15
 13  27  19  13  33  22  17  39  27  19  52  34  27  61  43  37  66  47  39  83  59  51
 95  67  59  93  64  56 109  81  71 101  73  64 102  73  65 102  75  68  87  65  57  89
 67  55  87  64  56  73  52  44  74  55  47  65  47  42  56  40  28  64  48  38  54  44
 40  21  20  22  14  15  15  18  18  16  16  16  14  17  17  15  16  16  14  16  16  14
 16  16  14  17  17  15  17  17  15  16  16  14  17  17  15  18  18  16
 13  13  11  13  13  11  13  13  11  13  13  11  13  13  11  13  13  11  14  14  12  13
 13  11  13  13  11  14  14  12  14  14  12  14  14  12  13  14  11  16  15  12  24  18
 17  27  21  17  28  18  14  35  23  16  36  22  17  38  23  20  44  29  25  53  35  27
 64  41  36  69  46  41  78  53  45  79  54  47  75  51  46  68  46  40  59  39  34  62
 43  35  63  45  39  53  37  30  59  42  32  66  50  39  66  53  43  50  41  37  13  14
 16  15  15  13  17  17  14  16  16  14  16  16  14  16  16  14  16  16  14  16  16  14
 16  16  14  16  16  14  16  16  14  16  16  14  16  16  14  16  16  14
 13  13  11  13  13  11  13  13  11  13  13  11  13  13  11  14  14  12  14  14  12  14
 14  12  13  13  11  14  14  12  14  14  12  14  14  12  14  14  12  13  14  12  15  14
 12  23  20  18  30  23  22  32  18  16  34  21  18  39  25  22  41  29  26  42  28  23
 43  29  20  43  29  21  45  29  23  47  31  26  49  33  29  48  32  27  45  30  22  47
 32  23  48  33  25  52  39  31  65  52  40  61  53  43  27  26  25   9  10  14  16  16
 13  16  16  14  15  15  14  16  16  14  15  15  13  15  15  13  15  15  13  16  16  14
 15  15  13  15  15  13  16  16  14  15  15  13  16  16  14  16  16  14
