P3
# 8-bit ppm - RGB
50 50
255
 15  15  15  15  15  15  15  15  15  15  15  13  15  15  13  15  15  13  16  16  15  16
 16  16  16  16  16  17  17  17  16  16  15  16  16  14  16  16  14  18  18  16  21  21
 19  20  20  18  17  17  15  16  16  14  15  15  13  13  13  11  13  13  11  14  14  12
 14  14  12  14  14  13  14  14  14  14  14  13  13  13  11  13  13  11  14  14  12  16
 16  14  16  16  14  17  17  15  16  16  14  17  17  15  17  17  15  17  17  15  18  18
 16  16  16  14  16  16  14  15  15  13  17  17  15  17  17  15  16  16  14  16  16  14
 17  17  15  16  16  14  17  17  15  18  18  16  16  16  14  16  16  14
 15  15  15  15  15  15  15  15  15  15  15  13  15  15  13  15  15  13  16  16  15  15
 15  15  16  16  15  17  17  16  17  17  15  17  17  15  16  16  14  16  16  14  17  17
 15  19  20  17  20  21  18  17  17  15  16  16  14  15  15  13  14  14  12  17  16  14
 21  19  17  24  21  20  21  19  19  14  14  14  13  13  12  14  14  12  15  15  13  14
 14  12  15  15  13  17  17  15  17  17  15  16  16  14  17  17  15  17  17  15  18  18
 16  17  17  15  15  15  13  15  15  13  17  17  15  17  17  15  17  17  15  16  16  14
 16  16  14  17  17  15  17  17  15  17  17  15  16  16  14  16  16  14
 15  15  15  15  15  15  15  15  15  15  15  13  16  16  14  15  15  13  15  15  14  16
 16  16  16  16  14  16  16  14  17  17  15  17  17  15  16  16  14  16  16  14  16  16
 14  17  18  14  19  20  14  19  19  17  16  17  14  23  21  20  33  25  22  14   4   0
  0   0   0   0   0   0   0   0   0  30  25  20  18  17  19  13  13  12  15  15  13  15
 15  13  16  16  14  16  16  14  17  17  15  17  17  15  16  16  14  18  18  16  18  18
 16  17  17  15  15  15  13  15  15  12  17  17  15  17  17  15  16  16  14  17  17  15
 17  17  15  17  17  15  17  17  15  16  16  14  16  16  14  15  15  13
 14  15  15  15  15  15  15  15  15  15  15  14  16  16  15  16  16  15  15  15  14  16
 16  15  16  16  15  16  16  14  17  17  15  17  17  15  16  16  14  16  16  14  16  16
 14  16  17  13  17  18  13  21  19  19  34  28  26   0   0   0   0   0   0  21  41  44
 77  74  74  94  86  85  70  69  73   0   0   0   2   0   0  17  17  17  14  14  12  16
 16  15  16  16  15  17  17  15  16  16  14  16  16  14  18  18  16  18  18  16  18  18
 16  18  18  16  15  15  15  15  15  14  16  16  14  17  17  15  16  16  14  16  16  14
 16  16  14  17  17  15  18  18  16  17  17  15  16  16  14  16  16  14
 14  17  15  15  16  15  15  15  15  15  15  15  15  15  15  16  16  17  15  15  14  15
 15  13  16  16  14  16  16  14  17  17  14  17  17  15  17  17  14  16  16  14  18  17
 16  29  25  24  34  27  23   0   0   0   0   0   0  75  68  72 160 122 114 190 128 113
198 125 108 199 126 107 204 146 125 168 145 149  15  26  52  17  12   0  20  20  19  19
 19  19  20  20  20  20  20  18  19  19  18  19  18  17  18  18  16  17  17  16  17  17
 15  17  17  16  15  15  16  16  16  15  17  17  15  17  17  15  17  17  15  17  17  15
 16  16  14  16  16  14  17  17  15  17  17  15  16  16  14  15  15  13
 16  16  16  17  17  17  16  16  16  15  15  15  16  16  16  16  16  16  15  15  15  15
 15  14  16  16  15  17  17  16  17  17  15  17  17  15  16  16  14  31  27  27  30  24
 19   0   0   0   0   0   0  69  57  66 153 118 120 204 151 145 214 138 122 204 112 101
197  98  94 190  93  89 186  84  49 225 173 158 142 120 129   0   0   0  28  22  22   0
  0   0   0   0   0   7   4   0   5   3   0  10   9   1  18  17  12  20  19  14  22  20
 17  22  21  18  18  18  16  17  17  16  18  18  17  16  16  15  17  17  17  17  17  16
 16  16  14  17  17  15  16  16  14  16  16  14  16  16  14  15  15  13
 33  34  35  25  26  33  16  16  17  15  15  15  16  16  16  16  16  16  15  15  15  15
 15  15  15  15  15  16  16  16  17  17  15  18  18  16  31  25  22   0   0   0   0   0
  0 114  95 103 170 130 132 208 158 153 223 167 154 214 156 138 214 154 142 213 157 149
210 155 148 199 136 126 178 109  91 222 169 154 136 103 101   0   0   0  47  43  48  54
 54  61  48  49  56  39  42  49  38  41  47  30  31  42   6  12  29   0   1  12   0   0
  2   0   1   6   4   7   6  13  14  14  16  16  17  18  17  17  17  16  16  16  16  15
 16  16  14  18  18  16  18  18  16  16  16  14  16  16  14  16  16  14
  0   0   0   0   0   0  31  32  30  27  29  34  16  16  18  16  16  16  15  15  16  15
 15  15  15  15  14  16  16  14  20  19  18  14  15  11   0   0   0 113  98 105 194 152
159 218 151 150 216 153 143 220 162 148 201 134 114 201 128 108 208 143 120 216 167 148
208 156 145 189 130 111 205 150 134 214 165 152 112  95  92 124 115 111 137 126 119 140
129 122 146 132 125 145 134 126 143 133 124 136 126 118 133 122 119 118 110 108  97  87
 86  83  73  72  54  48  46  33  29  27  23  22  21  15  16  16  14  16  13  17  17  15
 16  16  14  17  17  15  17  17  15  16  16  14  16  16  14  15  15  13
159 170 205  92 100 132   0   0   0   0   0   0  28  27  19  19  19  22  14  14  13  14
 14  14  16  16  14  21  20  19  34  32  32   5   7   0 157 129 123 231 189 184 234 184
174 217 166 156 217 170 163 202 129 119 195 107  96 185  83  68 182  84  49 197 134 105
199 146 130 190 133 115 219 169 155 166 123 113 139 122 104 163 144 127 159 143 126 159
143 125 158 139 120 162 141 123 166 146 132 162 146 131 161 147 129 162 145 132 147 129
120 117 100  91  78  62  54  59  46  36  52  41  35  40  34  30  25  22  20  15  14  13
 17  17  16  18  17  16  17  17  16  17  17  15  16  16  14  15  15  13
209 223 251 202 218 248 169 185 214 106 117 147   0   0   9  20  20   2  34  32  34  32
 30  29  30  27  23  14   9   0   0   0   0  42   0   0 203 137 116 225 169 148 220 176
163 217 174 158 216 164 150 207 146 144 206 154 149 202 145 144 178 107 113 174 108 103
196 149 131 204 164 148 205 172 160 136 111 112 110  91  67 154 138 118 155 138 126 155
138 123 158 141 125 156 138 123 162 145 128 167 150 133 164 148 130 164 148 134 167 150
137 148 130 121 119 100  97  80  59  57  61  45  33  58  43  36  50  38  35  35  29  27
 19  16  18  19  16  17  18  18  17  16  16  14  16  16  14  15  15  13
200 214 240 203 214 242 209 220 246 210 225 252 160 169 197   0   0   0   0   0   0   0
  0   0   0   0   0  46  47  59 104  99 105 140 126 127 191 150 140 210 167 154 210 176
165 211 175 162 208 175 161 211 178 166 212 179 167 212 183 165 212 180 166 209 174 163
208 175 156 209 178 161 211 187 174 195 171 166 142 102  97 157 142 125 200 180 171 195
174 165 196 176 165 192 176 165 187 170 161 184 167 152 179 162 148 176 160 148 173 157
141 172 155 140 161 144 132 129 111 104  89  69  66  65  49  43  58  42  35  48  40  32
 40  32  28  22  18  21  15  15  17  18  18  16  16  16  14  16  16  14
202 215 241 203 215 242 201 214 241 180 183 196 155 144 147 123 117 127 130 120 126 138
128 133 155 142 139 185 167 160 202 179 169 209 184 168 209 182 168 209 179 164 209 177
163 210 178 163 209 178 163 210 176 159 210 176 159 207 174 153 207 175 151 207 175 153
209 179 155 212 181 162 210 182 164 198 165 144 194 157 148 146 129 122 213 186 169 212
186 172 211 186 171 212 188 171 211 187 171 208 183 171 201 178 166 193 176 164 192 176
164 189 173 162 183 167 157 174 157 151 144 123 124 101  82  81  75  53  48  60  48  40
 51  38  30  44  36  31  21  19  20  14  15  15  17  17  14  15  15  14
202 214 239 197 210 233 189 187 193 188 164 158 200 174 165 210 187 177 205 182 170 202
176 163 199 173 158 201 172 157 202 174 157 206 176 156 209 177 162 209 178 162 211 180
163 212 180 164 211 180 163 212 178 160 213 179 160 211 177 157 210 175 155 211 175 155
214 180 161 215 185 165 206 176 155 194 162 135 199 168 145 159 143 131 202 178 157 211
184 164 211 183 168 212 182 167 213 183 168 214 184 169 213 185 173 212 186 175 214 190
181 211 190 181 210 189 182 209 188 182 202 180 179 176 152 154 125 100  98  89  67  61
 63  46  39  54  41  31  50  40  36  21  20  22  15  15  13  16  16  14
194 207 229 196 183 188 209 180 165 216 186 169 209 179 160 195 165 147 185 158 140 188
159 146 193 168 150 200 172 155 205 174 154 210 175 154 211 176 157 212 178 158 209 178
157 209 178 157 211 181 160 211 179 160 213 180 160 214 179 158 213 176 158 213 176 158
218 182 163 217 185 166 206 172 152 198 165 140 202 163 131 137 115  96 168 148 122 203
172 149 205 175 156 213 183 168 213 183 169 216 186 172 217 187 173 218 187 172 220 190
178 221 194 182 224 194 186 225 198 187 226 201 192 218 190 187 175 147 141 117  90  81
 85  63  53  71  52  44  63  44  35  54  44  40  13  14  16  16  16  13
194 185 183 212 179 159 206 175 155 198 168 150 192 163 146 182 159 144 185 160 149 193
165 148 198 167 148 200 168 149 206 171 149 208 173 151 209 173 152 210 175 152 209 175
150 208 175 150 208 176 151 208 175 154 214 179 159 216 179 161 216 180 162 217 182 163
218 181 163 216 179 164 210 175 154 195 158 130 144 107  83  39  37  41 111  92  69 187
153 122 186 151 126 200 165 140 217 181 163 219 187 173 219 189 175 219 188 175 220 188
176 221 189 177 224 192 180 224 195 184 224 198 188 225 198 190 204 177 170 158 129 122
115  86  76  88  62  53  68  47  37  64  48  38  50  41  37   9  10  14
206 174 151 201 169 149 197 167 147 190 161 142 182 153 142 181 157 143 188 160 143 194
163 141 199 163 141 200 163 141 202 167 146 206 171 149 205 171 147 206 172 147 206 172
146 207 170 145 205 166 142 206 169 144 213 176 153 217 179 160 220 183 165 220 186 169
216 179 166 215 177 155 184 150 128 144 121 109 150 130 122 145 117 100 135 114 101 132
113  99 174 140 112 178 136 113 199 160 135 222 185 170 222 188 175 222 187 176 220 188
176 221 189 177 223 188 177 223 190 179 225 194 182 225 198 188 219 193 187 191 160 154
138 106  96 101  70  61  74  51  42  56  40  28  66  53  43  27  26  25
195 164 144 195 165 143 189 158 140 178 149 137 177 150 137 183 152 136 190 157 138 194
159 136 197 158 135 196 158 134 201 161 139 206 167 144 207 171 147 204 168 143 203 163
138 203 161 136 205 160 137 204 163 138 210 168 146 217 172 155 220 177 161 219 182 169
218 181 167 195 159 139 152 129 118 194 163 143 193 157 133 147 107  99 156 124 101 156
131 117 142 110  93 171 128 103 184 143 119 219 181 167 221 187 175 221 188 176 221 189
176 222 190 177 221 187 175 222 185 174 226 189 178 223 194 180 224 196 188 206 175 170
158 124 114 112  81  70  82  58  49  65  47  42  66  50  39  61  53  43
192 161 140 186 153 136 176 145 134 174 144 133 176 146 131 182 148 131 192 157 137 195
156 135 195 155 132 195 154 132 198 155 130 201 158 133 209 164 140 202 163 138 203 160
138 202 155 135 198 151 126 201 153 128 205 158 137 212 167 148 216 173 155 215 174 160
213 170 153 169 135 122 191 161 143 186 154 133 173 131 112 154 117 118 115  90  80 176
143 123 137 111 101 149 108  83 183 142 116 215 176 162 219 184 171 222 187 173 222 189
177 223 190 178 222 188 176 221 187 175 221 189 176 222 192 177 225 195 184 214 180 174
167 132 125 117  86  76  96  70  61  74  55  47  59  42  32  65  52  40
183 152 132 173 142 127 169 142 130 172 141 131 175 144 129 183 154 136 192 162 141 196
162 138 197 158 135 197 154 133 197 152 127 194 150 123 191 145 116 191 148 116 193 152
129 199 162 144 201 158 142 193 141 119 197 141 117 205 154 131 210 163 142 209 165 145
199 152 135 168 136 125 195 161 142 179 146 127 170 126 108 131 109 105  61  67  65 163
138 120 152 125 110 100  61  41 167 124  94 212 175 157 217 181 166 220 184 170 223 189
176 223 188 177 222 189 177 220 186 174 222 187 175 222 189 175 224 191 181 216 183 176
168 135 128 117  86  76 102  75  65  73  52  44  53  37  30  52  39  31
170 139 123 168 135 125 165 138 127 167 141 129 177 147 132 188 158 142 196 168 145 201
169 144 201 166 140 198 162 137 198 161 137 198 161 137 187 146 122 169 120  91 180 139
114 189 154 134 205 167 150 201 156 140 187 132 105 191 129 105 202 144 123 201 148 129
188 135 116 167 137 121 194 160 139 176 140 124 164 116  97 127 100  97  47  65  69 145
116  98 146 113  94  78  43  29 158 112  85 208 171 151 213 175 158 217 181 165 222 188
175 221 187 175 221 188 176 221 185 174 222 183 172 222 185 175 223 187 177 214 180 172
168 137 131 120  89  80 103  77  65  87  64  56  63  45  39  48  33  25
158 132 115 161 134 123 160 136 124 165 139 127 183 152 137 195 162 142 203 172 147 206
173 149 202 168 142 199 166 138 201 166 142 206 171 147 189 150 132 143  90  71 190 148
127 192 161 142 199 163 145 205 166 149 200 153 135 187 131 110 188 125 100 192 133 109
185 122 105 162 123 110 194 155 136 176 138 125 151 100  85 141  96  81  95  76  72 138
103  87 128  90  74  74  39  25 161 117  92 207 164 146 211 165 149 218 177 162 223 184
173 222 183 172 220 182 171 221 183 172 220 182 171 219 181 171 220 184 173 216 182 173
177 145 140 130  99  90 106  80  67  89  67  55  62  43  35  47  32  23
150 129 114 156 133 120 156 130 119 161 133 121 184 148 131 198 163 141 206 172 147 205
171 146 201 166 140 198 163 137 198 163 138 208 171 151 192 145 133 142  79  68 191 138
118 206 170 151 201 164 146 203 164 146 206 163 146 199 149 130 187 128 109 184 122 102
184 119  97 151 109  92 190 153 134 188 146 131 155 111 104 134  81  72 125  85  75 148
113  94 116  82  70  87  46  32 162 117  93 201 157 135 208 162 142 216 176 157 221 180
166 223 177 165 218 179 164 216 180 166 219 181 171 217 180 169 218 182 170 218 182 172
190 158 150 133 102  94  96  68  60  87  65  57  59  39  34  45  30  22
146 123 109 150 123 112 145 121 110 156 127 115 181 145 126 197 163 139 207 172 148 206
172 149 198 158 134 196 154 128 193 157 129 203 163 139 205 145 139 158  93  95 180 118
103 211 164 146 205 166 151 204 165 147 204 159 142 182 118  94 199 136 113 208 154 144
185 131 119 151  96  84 143 114  94 199 156 134 183 142 124 165 128 115 160 122 108 144
113  93  98  67  56 125  76  57 171 122  98 198 151 125 203 157 137 215 174 154 217 177
159 217 175 158 216 176 158 213 178 160 216 177 163 215 177 164 215 178 166 217 180 170
193 160 153 121  90  82 107  79  69 102  75  68  68  46  40  48  32  27
144 116 106 144 117 106 143 116 106 155 125 112 178 140 120 191 154 129 209 171 150 210
175 156 195 151 130 192 147 118 189 149 123 199 149 130 209 143 140 172 102 106 172 104
 93 203 148 130 208 166 148 203 164 148 193 144 131 142  64  51 151  82  54 202 146 122
201 157 142 191 144 136 148 113 111 137 109  98 147 113  89 157 120  94 140 109  93  95
 71  63 130  90  70 150 100  74 179 130 105 196 147 121 206 160 141 213 169 149 215 170
150 213 169 150 213 172 154 210 175 155 211 173 154 211 172 153 210 173 157 214 174 160
178 141 131 110  79  73 118  89  77 102  73  65  75  51  46  49  33  29
140 114 101 142 113 102 137 109  96 149 119 102 171 131 110 188 145 121 206 164 143 212
175 155 200 156 133 187 141 115 179 138 112 191 133 114 209 136 135 169  94 101 167  91
 85 198 134 120 206 160 139 202 158 141 193 145 129 153  94  85 107  66  61 179 126 105
208 158 142 217 175 168 211 169 159 194 155 151 160 130 132 120 101 106   0   0  26 150
120 103 184 138 121 173 123 102 186 136 114 197 148 127 205 157 139 211 165 147 212 166
147 213 167 148 210 168 149 210 173 153 209 171 151 210 171 151 210 172 153 209 168 155
160 126 120 118  88  79 114  84  72 101  73  64  79  54  47  47  31  26
143 112 100 138 109  98 132 107  91 145 115  95 164 122 102 179 136 112 195 150 127 204
162 139 200 155 130 186 139 115 172 129 103 184 118 102 205 129 126 168  89  91 169  87
 85 197 128 117 195 139 123 189 134 114 184 132 112 162 107  87 156 105  88 181 122 106
202 149 132 211 160 145 211 163 145 218 169 151 218 171 154 220 174 167 132 104 110 162
132 111 209 165 144 185 133 114 192 140 120 201 152 133 207 159 142 212 166 147 213 168
150 214 168 149 214 166 148 212 169 149 210 167 147 209 165 148 207 163 145 201 159 142
167 133 125 121  91  82 108  80  66 109  81  71  78  53  45  45  29  23
138 107  95 134 108  94 131 107  92 147 118  99 164 126 104 178 135 111 191 145 123 199
153 133 194 148 124 182 136 111 168 124 100 182 116 101 200 119 120 158  77  79 159  74
 70 196 127 116 193 141 127 178 129 114 165 108  94 145  89  69 142  90  68 167 106  85
194 133 113 200 135 117 199 136 116 199 135 114 197 135 110 206 145 120 137  95  86 131
100  76 193 144 112 175 124  99 184 133 109 195 148 124 203 157 137 211 164 145 215 170
149 213 168 148 213 167 149 210 167 148 208 164 145 207 160 143 206 159 141 202 157 140
177 138 126 121  90  81  94  66  54  93  64  56  69  46  41  43  29  21
131 106  92 128 102  88 131 105  91 152 123 104 170 131 109 182 139 115 194 147 125 199
152 131 189 142 118 179 133 108 167 127 102 178 115  99 198 117 118 149  73  73 143  72
 63 182 116  98 192 139 117 175 131 110 162 109  91 128  75  59 103  60  42 143  88  65
172 113  90 179 116  95 169 107  87 165 102  81 146  90  68 121  74  52  24   7   0 107
 73  56 155 104  72 154 103  72 172 121  94 189 141 116 201 155 134 209 163 143 212 166
146 211 166 146 211 166 147 207 164 144 205 161 141 205 157 139 201 154 136 199 154 133
180 139 123 128  93  85  91  61  50  95  67  59  64  41  36  43  29  20
130 104  91 123  96  82 126  99  86 146 112  97 165 122 101 180 134 111 188 140 117 191
141 117 183 137 111 175 131 104 166 131 103 174 118 102 180 102 100 139  68  64 143  85
 75 173 107  94 171 116  93 156 116  93 148  99  77 116  64  49  96  57  47 141  86  65
140  87  69 140  85  67 132  82  61  99  61  48  79  58  52  80  62  59  85  67  66  77
 61  55 117  75  55 128  77  53 157 109  81 184 134 107 199 148 128 206 159 139 208 161
141 208 161 141 208 159 139 205 156 135 200 153 131 201 151 132 200 148 129 199 149 128
186 140 123 130  95  84  96  69  59  83  59  51  53  35  27  42  28  23
127 100  87 122  93  80 123  94  81 137 104  87 153 115  91 168 123 100 176 132 108 181
132 108 177 130 104 171 124  98 164 123  97 171 118  99 161  91  82 125  59  55 141  85
 76 170 112  98 163 116  95 149 110  91 140  91  74 125  70  50 147  92  75 145  85  68
134  82  65 134  85  68  84  56  48 120  96  80 140 100  86 139 104  87 134  97  83 121
 99  85  94  74  67 109  66  46 136  88  61 179 130 105 193 142 123 200 151 131 203 155
134 204 155 134 202 152 132 200 149 129 199 148 125 199 148 128 197 146 126 196 144 123
185 139 121 130  94  82  90  65  54  66  47  39  44  29  25  41  29  26
125 100  86 123  95  82 118  91  77 128  98  83 144 106  84 157 115  91 170 129 103 172
126 101 168 119  94 164 116  90 156 111  86 160 110  87 149  90  77 109  52  48 140  86
 74 167 116  95 157 116  94 150 107  85 149  96  78 133  81  60 144  87  69 149  96  78
164 113  92 127  78  62 113  86  74 164 119 100 148 110  98 137  99  87 128  83  67 141
114  89 116  96  79  79  47  43 111  68  45 176 130 108 192 145 125 197 148 128 200 150
129 201 150 129 199 148 127 194 144 122 192 142 118 193 142 121 191 141 120 192 139 117
178 131 111 124  89  74  87  62  53  61  43  37  38  23  20  39  25  22
122  99  84 121  98  83 113  92  77 117  90  75 137  95  78 152 108  87 167 122 100 167
122  96 164 116  91 159 110  86 152 104  80 152 103  79 139  89  74  96  48  44 144  95
 75 161 119  96 156 115  95 160 111  90 161 108  86 160 109  86 163 110  89 174 121 101
175 119 100 128  82  68 146 110  92 163 123 108 149 108  98 139  97  92 110  77  71 143
114  94 132 106  84  65  45  37  98  61  39 167 126 101 188 142 124 192 142 122 196 145
122 195 141 120 193 139 118 192 139 117 189 137 114 190 137 115 188 134 113 188 134 113
168 120 103 111  76  63  79  52  44  52  34  27  36  22  17  34  21  18
120  97  82 120  98  83 117  95  81 115  89  76 124  91  76 141 102  80 156 112  88 162
116  90 165 117  92 161 111  88 158 109  85 158 109  85 145 102  82 114  75  56 149 108
 83 159 120  98 164 120 101 173 124 100 173 121  95 171 119  97 182 125 105 187 126 109
172 114  95 140  95  82 153 118 100 159 124 106 148 104  89 132 103  94  63  61  63 141
117 103 145 112  96  79  52  46  94  58  39 158 116  94 184 137 121 187 137 116 188 137
114 188 133 111 187 132 110 187 132 110 187 130 109 185 130 108 184 129 106 181 126 106
145  97  80  93  62  48  61  36  28  39  27  19  35  23  16  32  18  16
123  98  84 125  98  84 124  97  84 123  96  82 120  93  75 129  96  74 145 106  80 157
110  85 162 114  90 163 115  91 167 119  94 172 125 100 166 123  97 156 114  87 155 114
 90 158 115  96 170 124 101 178 126 103 177 125 102 182 127 107 187 132 113 183 127 111
173 116  95 146 103  86 150 117  99 156 119 103 144 104  86 111  90  81  27  46  52 135
109  97 150 113  97  88  62  54 106  74  56 165 124 102 181 135 118 181 132 111 183 131
109 181 129 104 181 129 105 181 129 104 178 126 104 179 125 103 177 122 100 170 116  94
125  84  67  76  47  35  46  29  21  33  22  17  28  18  14  30  23  22
121  94  80 121  94  81 123  96  83 129  97  84 126  95  78 127  97  75 140 104  78 150
108  83 158 115  88 166 123  96 171 128 102 178 135 109 180 136 109 173 128 102 164 118
 95 163 116  94 174 124  99 180 129 105 183 130 108 186 132 112 186 131 112 180 124 108
174 117  99 154 110  90 140 113  95 153 118  98 136  95  78 112  86  73  66  58  52 140
110  90 136  97  83  94  69  60 135  99  78 165 123 102 178 135 116 174 130 107 175 127
104 176 128 101 179 127 103 176 125  99 174 122 100 172 118  96 169 113  91 157 103  81
105  66  51  57  31  24  40  26  20  27  19  13  27  21  17  23  20  18
126  95  83 124  95  81 121  92  78 128  94  80 130  97  80 133  99  80 140 102  80 146
104  83 153 108  83 162 116  90 167 120  94 173 125  99 179 129 104 176 126 101 172 122
 97 172 122  97 176 126 101 179 129 105 183 133 110 185 135 114 184 131 111 181 126 106
174 120  98 164 117  93 131 106  91 147 117  98 133  93  74  97  65  49 101  75  59 137
102  80 114  85  73 115  82  68 136  95  73 158 115  94 179 131 112 175 127 101 176 127
103 177 128 103 175 126 101 172 121  97 167 115  91 165 113  87 159 105  83 137  88  68
 78  46  36  43  23  18  31  18  14  25  15  13  24  18  17  15  14  12
119  89  77 122  91  78 124  93  79 126  93  77 129  95  78 133  97  80 140 102  80 146
102  80 149 102  81 150 104  82 156 108  86 160 111  87 167 115  90 170 120  94 168 118
 92 165 116  90 167 118  92 173 123  98 176 126 103 178 126 106 179 125 104 178 121 101
173 119  97 169 118  93 150 112  93 116  95  79 117  90  73 103  72  62 122  91  70 114
 88  70 103  77  65 126  86  65 131  88  65 162 116  93 171 121  99 171 122  96 175 124
100 174 123  99 169 120  94 164 114  88 158 105  80 154 104  78 147  97  73 103  64  46
 46  27  19  34  22  19  23  15  12  22  19  14  16  15  12  13  14  12
125  92  77 121  90  76 119  90  76 119  88  74 119  86  74 124  91  77 131  97  77 141
 98  79 146  99  80 147 102  81 148 102  83 150 103  83 155 107  82 158 112  87 159 113
 88 158 111  86 159 110  85 161 111  87 166 116  93 168 115  95 170 114  93 170 111  89
169 116  94 169 116  93 165 114  92 139 101  82  99  73  59  77  57  51  52  37  27  82
 66  58 125  88  72 122  80  61 143 100  78 157 111  88 160 110  87 161 113  88 164 112
 89 160 108  85 155 105  82 150 100  76 146  96  72 141  91  68 109  66  47  49  28  19
 32  21  15  25  15  13  23  19  15  18  17  13  13  14  11  14  14  12
104  75  64 114  84  70 121  90  71 122  91  75 119  88  73 118  88  73 119  90  73 128
 90  73 138  95  79 141  99  79 145 100  78 148 102  81 150 102  82 150 103  83 151 104
 84 152 105  83 151 105  82 154 105  83 156 107  84 159 108  85 162 111  89 164 111  89
166 114  91 166 115  92 162 111  89 151 108  82 142 102  79 123  91  73  56  49  44 111
 82  67 129  87  70 133  95  75 144 101  80 145 102  78 146 101  78 146  99  76 147  99
 76 152 102  80 148  98  77 140  92  70 130  85  63 102  62  44  54  30  22  29  18  17
 22  14  10  21  16  14  19  17  15  14  14  11  14  14  12  14  14  12
 59  50  52  21  16  13  51  34  22  80  57  42  95  72  55 106  79  61 115  82  66 119
 87  67 124  92  72 129  92  71 136  91  71 140  95  75 142  98  77 141  98  77 141  99
 78 144 102  78 146 104  80 150 101  79 149 101  80 151 103  83 152 107  83 155 108  83
156 106  82 157 106  82 157 106  83 156 114  89 150 111  88 132  97  76  83  64  50 118
 85  64 129  93  72 132  94  72 136  93  73 138  95  75 136  98  76 136  97  75 136  92
 72 130  84  65 124  83  63 110  71  51  75  46  32  38  22  16  27  16  12  25  16  13
 21  16  13  17  16  14  13  14  12  14  14  12  14  14  12  14  14  12
 26  22  19   6   8   7   0   4   7   0   0   0   0   0   0  14   9   6  45  30  22  68
 47  33  93  66  50 113  80  59 125  86  65 128  88  68 130  88  70 130  88  69 131  88
 69 130  88  67 131  88  66 131  88  67 133  90  69 134  91  71 133  89  67 133  87  65
135  89  65 138  93  68 144  98  74 147 103  82 139  99  79 122  81  63  76  49  36 122
 89  66 128  89  68 128  90  70 129  89  70 129  89  70 126  87  68 116  82  61 104  71
 54  98  64  48  79  50  37  53  30  20  29  15  11  26  15  13  22  15  11  19  16  15
 15  15  13  13  14  12  14  14  12  14  14  12  14  14  12  14  14  12
  9  10   8  14  14  11  15  13  10  19  16  12  18  15  12   9  12   9   0   5   4   0
  0   1   0   0   3  39  25  15  71  50  36  96  66  50 113  77  60 120  80  60 123  81
 63 121  82  63 122  82  65 123  84  65 122  80  62 121  79  60 119  80  60 124  81  61
124  81  60 122  82  59 127  83  59 128  82  65 120  81  66  96  61  46  55  35  27  99
 72  50 106  74  53 100  72  54  99  70  53  96  67  50  86  56  42  77  51  37  66  44
 32  57  36  26  39  23  16  27  17  12  21  15  12  20  15  13  17  14  13  15  13  12
 14  14  12  14  14  12  14  14  12  14  14  12  13  13  11  13  13  11
 13  13  11  12  12  10  11  11   9  11  11   9  12  11   9  12  11   9  14  12  10  17
 14  11  17  14  11   3   8   8   0   0   0   0   0   0  46  30  18 121  75  55 132  85
 65 127  85  65 119  75  59 113  70  51 125  84  65 128  85  70 123  81  65 110  66  49
114  69  48 126  81  60 129  86  70 111  71  59  70  45  36  44  27  21  40  28  22  51
 33  22  54  35  25  49  31  22  49  32  23  48  31  23  42  26  18  38  23  13  35  19
 13  27  16  13  22  16  13  17  16  14  14  14  12  14  14  12  12  13  11  13  13  11
 14  14  11  14  14  12  13  13  11  14  14  12  13  13  11  14  14  12
 12  12  11  11  12  10  11  11   9  11  11   9  11  11   9  11  11   9  11  11  10  11
 11  10  11  11   9  13  12  10  22  16  12   0   5   6  62  39  28 156  92  71 150  89
 71 153  98  78 150  98  78 122  60  48 133  80  62 146  95  76 125  66  53  90  27  18
123  74  59 139  88  73 141  90  73 138  85  70  62  24  24  11  12  13  40  29  22  42
 30  21  40  28  21  37  27  21  33  23  17  27  17  13  27  19  14  24  17  13  20  15
 11  17  14  12  14  15  13  14  15  13  13  13  12  13  13  11  13  13  11  13  13  11
 13  13  11  13  13  11  13  13  11  13  13  11  14  14  12  14  14  12
 12  12  12  11  11  10  11  11   9  11  11   9  11  11   9  11  11   9  11  11  10  11
 11  11  11  11  10  11  11   9  11  11   9  17  14  12   0   0   1 118  70  53 165 100
 80 163 104  82 153  95  74 147  94  76 132  69  57 130  61  51 127  63  51 142  82  68
158 104  86 154 100  86 135  82  66 149  93  71 139  87  75  32  26  31  19  16   7  25
 19  14  22  17  13  21  18  15  20  17  14  20  17  14  16  15  13  14  14  13  13  14
 12  13  13  11  14  14  12  15  14  13  13  13  14  13  13  12  13  13  11  13  13  12
 13  13  11  13  13  11  13  13  11  13  13  11  13  13  11  14  14  12
 11  11  10  11  11  10  11  11   9  11  11   9  12  12  10  12  12  10  12  12  10  11
 11  10  11  11   9  11  11   9  11  11   9  14  12  10   3   8   8   0  10   6 101  63
 45 139  86  66 154  83  68 155  87  70 157  96  79 151  87  74 156  96  79 163 101  84
162 102  84 159 101  83 150  95  77 132  74  57 164 103  84 101  65  62   0   0   0  23
 17  16  12  12  11  15  16  14  16  17  15  14  15  13  16  16  14  14  14  12  13  13
 11  13  13  11  13  13  11  14  14  12  14  14  12  13  13  11  13  13  11  13  13  12
 13  13  11  14  14  12  13  13  11  13  13  11  13  13  11  13  13  11
 12  12  10  12  12  10  12  12  10  11  11   9  11  11   9  12  12  10  12  12  10  11
 11   9  11  11   9  11  11   9  11  11   9  10  11   9  13  12   9  15  12  10   0   0
  0   3   9   9  82  45  35 116  61  50 137  73  59 151  90  75 163  98  81 160  87  72
154  79  62 151  77  58 145  75  58 133  64  50 148  88  69  80  48  41   0   0   0  20
 16  13  13  13  11  13  13  11  16  16  14  16  15  13  16  16  13  17  17  15  13  13
 11  13  13  11  13  13  11  14  14  12  14  14  12  13  13  11  13  13  11  13  13  11
 14  14  12  13  13  11  13  13  11  13  13  11  13  13  11  13  13  11
 12  12  10  12  12  10  12  12  10  11  11   9  12  12  10  12  12  10  12  12  10  12
 12  10  11  11   9  11  11   9  11  11   9  11  11   9  11  11   9  12  12   9  22  16
 12  16  14  13   0  11  12   0   3   2   0   6   4  59  29  22 105  62  51 135  79  68
153  86  70 154  83  67 148  78  65 127  75  59  72  47  36   0   0   0  20  16  13  12
 13  11  12  12  10  12  12  10  13  13  11  15  15  13  15  15  13  16  16  14  14  14
 12  13  13  11  13  13  11  14  14  12  13  13  11  13  13  11  13  13  11  13  13  11
 13  13  11  13  13  11  13  13  11  13  13  11  13  13  11  13  13  11
 12  12  10  12  12  10  12  12  10  12  12   9  12  12  10  12  12  10  12  12  10  12
 12  10  12  12  11  11  11  10  10  10   9  11  11   9  11  11   9  11  11   9  11  11
  9  11  10   8  22  17  15  31  26  21  19  18  15   0   3   5   0   0   0   0   8   6
 44  29  22  70  44  35  60  37  28   0   9   8   0   0   4  19  16  14  12  12  10  13
 13  11  12  12  10  12  12  11  13  13  11  13  13  11  15  15  13  15  15  13  14  14
 12  16  16  14  14  14  12  14  14  12  13  13  11  13  13  11  13  13  12  13  13  11
 13  13  11  14  14  12  13  13  11  13  13  11  13  13  11  13  13  11
 12  12  10  12  12   9  11  11   9  11  11   9  11  11   9  11  11   9  12  12  10  12
 12  10  12  12  12  11  11  11   9   9   9  10  10  10  11  11   9  11  11   9  11  11
  9  11  11   9  10  10   8  17  18  13  23  23  18  15  12  10  24  17  12  32  27  23
 14  18  16   0   1   3   0   5   5  17  14  12  20  16  13  13  13  11  13  14  12  13
 13  11  13  13  11  13  13  11  13  13  11  12  12  10  13  13  11  17  17  15  15  15
 13  15  15  13  15  15  13  14  14  12  13  13  11  12  12  12  12  12  12  12  12  10
 12  12  10  13  13  11  13  13  11  13  13  11  13  13  11  13  13  11
