P3
# 8-bit ppm - RGB
50 44
255
 79 187 195  75 186 195  76 186 195  76 186 195  76 186 195  76 186 195  76 186 195  76
186 195  76 186 195  76 186 195  76 186 195  76 186 194  75 184 193  75 185 194  75 186
194  75 184 193  76 185 194  76 186 195  76 186 195  76 186 195  76 186 195  76 186 195
 76 186 195  76 186 195  76 186 195  76 186 195  76 186 195  76 186 195  76 186 195  76
186 195  76 186 195  76 186 195  76 186 195  76 185 193  75 184 193  75 186 195  75 185
194  75 184 193  76 186 194  76 186 195  76 186 195  76 186 195  76 186 195  76 186 195
 76 186 195  76 186 195  76 186 195  77 186 195  75 186 194  79 187 195
 75 186 195  76 186 195  76 186 195  76 186 195  76 186 195  76 186 195  76 186 195  76
186 195  76 186 195  76 186 195  76 185 194  75 187 196  80 193 202  83 191 200  83 189
198  83 193 202  77 191 200  75 185 194  76 186 194  76 186 195  76 186 195  76 186 195
 76 186 195  76 186 195  76 186 195  76 186 195  76 186 195  76 186 195  76 186 195  76
186 195  76 186 195  76 186 194  75 185 194  78 191 200  83 193 202  83 189 198  83 191
200  80 193 202  75 187 196  76 185 194  76 186 195  76 186 195  76 186 195  76 186 195
 76 186 195  76 186 195  76 186 195  76 186 195  76 186 195  75 186 195
 76 186 195  76 186 195  76 186 195  76 186 195  76 186 195  76 186 195  76 186 195  76
186 195  76 186 195  76 185 193  76 189 198  81 184 193  70 142 148  19  89  94   0  73
 78  48 110 115  78 164 172  79 190 199  75 186 195  76 185 194  76 186 195  76 186 195
 76 186 195  76 186 195  76 186 195  76 186 195  76 186 195  76 186 195  76 186 195  76
186 195  76 185 194  75 186 195  79 190 199  78 163 171  45 109 114   0  73  78  18  90
 95  70 142 149  81 184 193  76 189 198  76 185 194  76 186 195  76 186 195  76 186 195
 76 186 195  76 186 195  76 186 195  76 186 195  76 186 195  76 186 195
 76 186 195  76 186 195  76 186 195  76 186 195  76 186 195  76 186 195  76 186 195  76
186 195  76 184 193  76 189 198  79 177 185  34  75  79   0   0   0  73  61  60 101  94
 94   0   0   0   0   0   0  68 135 141  79 189 198  75 186 195  76 186 194  76 186 195
 76 186 195  76 186 195  76 186 195  76 186 195  76 186 195  76 186 195  76 186 195  76
186 194  75 185 194  79 189 198  67 133 139   0   0   0   0   0   0 102  95  94  71  59
 57   0   0   0  35  76  80  80 178 187  76 188 197  76 185 194  76 186 195  76 186 195
 76 186 195  76 186 195  76 186 195  76 186 195  76 186 195  76 186 195
 76 186 195  76 186 195  76 186 195  76 186 195  76 186 195  76 186 195  76 186 195  76
184 192  74 184 193  80 186 195  45  94  98   0   0   0 184 187 187 246 246 246 252 252
252 230 231 231 123 125 125   0   0   0  77 155 162  78 191 200  75 185 194  76 186 195
 76 186 195  76 186 195  76 186 195  76 186 195  76 186 195  76 186 195  76 186 195  75
184 192  78 192 201  74 151 158   0   0   0 124 125 125 231 232 233 251 251 251 246 246
246 181 184 185   0   0   0  47  94  98  82 188 197  73 183 192  76 185 194  76 186 195
 76 186 195  76 186 195  76 186 195  76 186 195  76 186 195  76 186 195
 76 186 195  76 186 195  76 186 195  76 186 195  76 186 195  76 186 195  76 184 193  74
185 194  79 198 207  90 169 176   0   0   0 170 171 171 255 255 255 255 255 255 253 253
253 255 255 255 241 242 243  74  61  59   0  70  75  86 189 197  75 186 195  76 186 195
 76 186 195  76 186 195  76 186 195  76 186 195  76 186 195  76 186 195  76 185 194  74
187 196  83 187 196   4  72  76  67  57  56 245 245 246 255 255 255 254 254 254 255 255
255 255 255 255 164 167 167   0   0   0  86 169 176  79 198 207  75 185 194  76 184 193
 76 186 195  76 186 195  76 186 195  76 186 195  76 186 195  76 186 195
 76 186 195  76 186 195  76 186 195  76 186 195  76 186 195  76 185 193  76 189 198  79
185 194  88 164 171  59 103 107   0   0   0 224 225 225 255 255 255 250 250 250 252 252
252 250 250 250 255 255 255 158 157 157   0   0   0  87 180 188  76 188 198  76 185 194
 76 186 195  76 186 195  76 186 195  76 186 195  76 186 195  76 186 195  76 184 193  74
190 199  90 179 186   0   0   0 161 159 159 255 255 255 249 249 249 254 254 254 247 247
247 255 255 255 220 221 221   0   0   0  58 102 106  86 165 172  79 185 194  76 189 198
 76 185 193  76 186 195  76 186 195  76 186 195  76 186 195  76 186 195
 76 186 195  76 186 195  76 186 195  76 186 195  76 185 193  76 189 199  77 176 185  42
 89  93   0   0   0   0   0   0  76  77  78 235 235 235 255 255 255 253 253 253 253 253
253 253 253 253 255 255 255 158 158 158   0   0   0  86 179 187  76 189 198  76 185 194
 76 186 195  76 186 195  76 186 195  76 186 195  76 186 195  76 186 195  76 184 193  74
190 199  91 178 185   0   0   0 162 160 160 255 255 255 253 253 253 255 255 255 252 252
252 255 255 255 235 235 235  65  67  68   0   0   0   0   0   0  48  95  99  78 176 185
 76 189 198  76 185 193  76 186 195  76 186 195  76 186 195  76 186 195
 76 186 195  76 186 195  76 186 195  76 185 194  75 187 196  81 185 193  37  79  83   0
  0   0 174 174 174 230 231 231 240 240 240 252 252 252 254 254 254 254 254 254 251 251
251 255 255 255 238 239 240  82  68  67  11  83  88  88 192 200  74 185 194  76 186 195
 76 186 195  76 186 195  76 186 194  76 186 194  76 186 194  76 186 195  76 185 193  73
186 195  84 189 198  29  85  90  75  62  60 243 243 243 255 255 255 253 253 253 254 254
254 254 254 254 253 253 253 240 240 240 230 230 230 170 172 172   0   0   0  44  88  92
 81 184 193  75 188 197  76 185 194  76 186 195  76 186 195  76 186 195
 76 186 195  76 186 195  76 186 195  75 183 192  78 193 202  74 147 154   0   0   0 182
184 184 255 255 255 255 255 255 255 255 255 254 254 254 254 254 254 254 254 254 251 251
251 255 255 255 222 223 223   0   0   0   0  43  47  88 177 185  76 191 200  75 184 193
 75 185 194  74 185 194  75 186 195  75 186 195  74 186 195  75 185 194  74 183 192  76
192 201  85 174 181  17  52  56   0   0   0 227 227 227 255 255 255 252 252 252 254 254
254 254 254 254 254 254 254 255 255 255 255 255 255 255 255 255 180 182 182   0   0   0
 79 153 159  79 192 201  75 185 194  76 186 195  76 186 195  76 186 195
 76 186 195  76 186 195  76 186 195  74 184 193  82 192 201  43 106 112  46  14   6 242
243 243 255 255 255 251 251 251 254 254 254 254 254 254 254 254 254 254 254 254 254 254
254 252 252 252 255 255 255 207 208 208   0   0   0   0   0   0  79 173 181  77 193 202
 84 192 201  89 194 202  90 192 201  90 192 201  90 194 202  85 193 202  78 194 203  83
172 180   0   0   5   0   0   0 209 210 210 255 255 255 253 253 253 254 254 254 254 254
254 254 254 254 254 254 254 253 253 253 251 251 251 255 255 255 238 240 240  58  22  14
 26 107 113  88 192 201  74 186 195  76 185 194  76 186 195  76 186 195
 76 186 195  76 186 195  76 186 195  74 185 194  82 191 200  23  97 103  72  59  57 247
248 248 254 254 254 252 252 252 253 253 253 251 251 251 251 251 251 254 254 254 254 254
254 253 253 253 253 253 253 255 255 255 206 207 208  44  14   7  38  63  65  91 166 173
 63 146 153   5 108 114   0  87  94   0  85  92   0 103 110  53 142 149  89 164 171  53
 72  74  47  17  11 208 210 210 255 255 255 253 253 253 254 254 254 254 254 254 253 253
253 251 251 251 251 251 251 253 253 253 250 251 251 255 255 255 243 244 245  84  67  65
  0  96 102  89 192 201  74 186 195  76 185 194  76 186 195  76 186 195
 76 186 195  76 186 195  76 186 195  74 184 192  80 193 202  64 129 135   0   0   0 217
218 218 255 255 255 251 251 251 253 253 253 255 255 255 255 255 255 252 252 252 253 253
253 255 255 255 251 251 251 253 253 253 255 255 255 159 160 160   0   0   0   0   0   0
  0   0   0  85  64  61 115 104 103 118 108 106  98  82  80  27   0   0   0   0   0   0
  0   0 168 169 169 255 255 255 254 254 254 251 251 251 255 255 255 253 253 253 253 253
253 255 255 255 255 255 255 253 252 252 252 252 252 255 255 255 215 217 218   0   0   0
 66 135 141  83 192 201  75 185 194  76 186 195  76 186 195  76 186 195
 76 186 195  76 186 195  76 186 195  76 184 193  76 190 199  80 173 181   0   0   0  94
 92  92 230 232 232 255 255 255 255 255 255 234 236 236 212 213 213 255 255 255 254 254
254 251 251 251 255 255 255 255 255 255 179 179 179   0   0   0  24  33  35 168 169 169
220 221 221 242 243 244 250 251 251 251 252 252 245 247 247 229 230 230 189 190 190  95
 97  98   0   0   0 166 166 166 255 255 255 255 255 255 251 251 251 255 255 255 255 255
255 213 214 214 235 236 236 255 255 255 255 255 255 228 230 231  93  89  88   0   0   0
 84 175 182  76 190 199  75 185 193  76 186 195  76 186 195  76 186 195
 76 186 195  76 186 195  76 186 195  76 186 195  75 185 193  78 191 200  73 150 156   0
  0   0  32   0   0 140 138 138 145 144 144  70  53  51   0   0   0 193 193 194 255 255
255 254 254 254 255 255 255 171 171 171   0   0   0 117 117 117 233 233 233 255 255 255
255 255 255 255 255 255 255 255 255 255 255 255 255 255 255 255 255 255 255 255 255 247
247 247 165 165 165   0   0   0 147 147 147 255 255 255 255 255 255 255 255 255 191 192
192   0   0   0  74  59  57 147 145 145 139 138 138  32   0   0   0   0   0  76 152 159
 77 190 199  75 185 194  76 186 194  76 186 195  76 186 195  76 186 195
 76 186 195  76 186 195  76 186 195  76 186 195  76 186 195  75 185 194  78 190 199  79
165 172  30  92  97   0   0   0   0   0   0  30  94  99  33  69  72   0   0   0 194 195
196 255 255 255 180 180 180   0   0   0 147 147 147 254 254 254 255 255 255 253 253 253
251 251 251 251 251 251 252 252 252 252 252 252 252 252 252 251 251 251 252 252 252 255
255 255 255 255 255 194 194 194   0   0   0 171 171 171 255 255 255 190 192 192   0   0
  0  38  76  80  31  92  97   0   0   0   0   0   0  32  94  99  79 166 173  78 190 199
 75 185 194  76 186 194  76 186 195  76 186 195  76 186 195  76 186 195
 76 186 195  76 186 195  76 186 195  76 186 195  76 186 195  76 186 194  75 185 194  77
190 200  85 191 200  85 183 191  85 181 189  86 192 201  86 181 189   0  55  59   0   0
  0 160 161 162   0   0   0 103 103 103 252 252 252 255 255 255 249 249 249 252 252 252
254 254 254 254 254 254 254 254 254 254 254 254 254 254 254 254 254 254 252 252 252 250
250 250 252 252 252 255 255 255 168 168 168   0   0   0 167 168 168   0   0   0  24  67
 70  88 182 190  84 192 201  84 181 189  85 183 191  85 191 200  77 190 199  75 185 194
 76 186 194  76 186 195  76 186 195  76 186 195  76 186 195  76 186 195
 76 186 195  76 186 195  76 186 195  76 186 195  76 186 195  76 186 195  76 186 195  76
185 194  75 185 194  75 188 197  76 188 197  74 185 193  76 190 200  80 178 186  44  77
 80   0   0   0   0   0   0 223 223 223 255 255 255 251 251 251 255 255 255 255 255 255
252 252 252 253 253 253 254 254 254 254 254 254 253 253 253 252 252 252 255 255 255 255
255 255 253 253 252 254 254 254 252 252 252  93  95  96   0   0   0  50  83  86  83 179
187  76 190 200  74 184 193  76 188 197  75 188 197  75 185 194  76 185 194  76 186 195
 76 186 195  76 186 195  76 186 195  76 186 195  76 186 195  76 186 195
 76 186 195  76 186 195  76 186 195  76 186 195  76 186 195  76 186 195  76 186 195  76
186 195  76 186 195  76 186 194  76 185 194  76 186 195  75 184 193  76 192 202  88 170
177   0   0   0 145 147 147 255 255 255 255 255 255 255 255 255 245 245 245 251 251 251
255 255 255 254 254 254 253 253 253 254 254 254 254 254 254 255 255 255 250 250 251 245
245 245 255 255 255 255 255 255 255 255 255 196 196 196   0   0   0  87 168 175  76 193
203  75 182 191  76 186 195  76 186 194  76 186 194  76 186 195  76 186 195  76 186 195
 76 186 195  76 186 195  76 186 195  76 186 195  76 186 195  76 186 195
 76 186 195  76 186 195  76 186 195  76 186 195  76 186 195  76 186 195  76 186 195  76
186 195  76 186 195  76 186 195  76 186 195  76 186 195  75 185 194  81 191 200  75 154
161   0   0   0 198 199 199 255 255 255 239 239 239 158 158 158  96  96  96 114 114 115
205 205 205 255 255 255 254 254 254 253 253 253 255 255 255 205 205 205 115 115 115  97
 97  98 157 157 157 242 242 242 255 255 255 237 237 237  27   0   0  64 148 155  82 193
202  74 183 192  76 186 195  76 186 195  76 186 195  76 186 195  76 186 195  76 186 195
 76 186 195  76 186 195  76 186 195  76 186 195  76 186 195  76 186 195
 76 186 195  76 186 195  76 186 195  76 186 195  76 186 195  76 186 195  76 186 195  76
186 195  76 186 195  76 186 195  76 186 195  76 186 195  75 185 194  85 193 203  49 127
134   0   0   0 227 229 229 255 255 255 127 127 127   0   0   0   0   0   0   0   0   0
  0   0   0 214 214 214 255 255 255 255 255 255 215 215 215   0   0   0   0   0   0   0
  0   0   0   0   0 135 135 136 255 255 255 254 254 254 109  99  98   0 112 118  89 196
205  72 183 192  76 186 195  76 186 195  76 186 195  76 186 195  76 186 195  76 186 195
 76 186 195  76 186 195  76 186 195  76 186 195  76 186 195  76 186 195
 76 186 195  76 186 195  76 186 195  76 186 195  76 186 195  76 186 195  76 186 195  76
186 195  76 186 195  76 186 195  76 186 195  76 186 195  75 185 194  87 193 202  48 119
125  35   0   0 245 247 247 233 232 232   0   0   0  27  27  28  53  53  54  68  68  69
  0   0   0 150 150 150 254 254 254 255 255 255 142 142 142   0   0   0  61  61  62  50
 50  50  43  43  44   0   0   0 229 229 229 255 255 255 134 127 126   0  94 101  92 195
204  72 184 193  76 186 195  76 186 195  76 186 195  76 186 195  76 186 195  76 186 195
 76 186 195  76 186 195  76 186 195  76 186 195  76 186 195  76 186 195
 76 186 195  76 186 195  76 186 195  76 186 195  76 186 195  76 186 195  76 186 195  76
186 195  76 186 195  76 186 195  76 186 195  76 186 195  75 185 194  87 193 202  46 119
124  35   0   0 246 247 247 230 230 230   0   0   0   1   2   4  27  28  29  54  54  54
  0   0   0 146 146 146 255 255 255 255 255 255 137 137 137   0   0   0  40  41  41  19
 19  20  36  36  37   0   0   0 226 226 227 255 255 255 135 127 127   0  95 102  92 195
204  72 184 193  76 186 195  76 186 195  76 186 195  76 186 195  76 186 195  76 186 195
 76 186 195  76 186 195  76 186 195  76 186 195  76 186 195  76 186 195
 76 186 195  76 186 195  76 186 195  76 186 195  76 186 195  76 186 195  76 186 195  76
186 195  76 186 195  76 186 195  76 186 195  76 186 195  75 185 194  85 193 202  50 127
133   0   0   0 228 230 230 255 255 255 109 109 110   0   0   0   0   0   0   0   0   0
  0   0   0 214 214 213 219 219 219 216 216 216 212 212 212   0   0   0   0   0   0   6
  7   9   0   0   0 119 119 120 253 253 253 255 255 255 109  99  98   0 113 120  89 196
205  72 183 192  76 186 195  76 186 195  76 186 195  76 186 195  76 186 195  76 186 195
 76 186 195  76 186 195  76 186 195  76 186 195  76 186 195  76 186 195
 76 186 195  76 186 195  76 186 195  76 186 195  76 186 195  76 186 195  76 186 195  76
186 195  76 186 195  76 186 195  76 186 195  76 186 195  75 185 194  81 191 200  72 153
160   0   0   0 198 199 199 255 255 255 234 234 234 134 134 134  62  62  62  67  67  68
199 199 199 245 245 245  49  49  50   0   0   0 244 244 244 197 197 197  78  78  78  64
 64  64 133 133 133 237 237 237 255 255 255 237 237 237  32   0   0  63 149 156  81 193
202  74 183 192  76 186 195  76 186 195  76 186 195  76 186 195  76 186 195  76 186 195
 76 186 195  76 186 195  76 186 195  76 186 195  76 186 195  76 186 195
 76 186 195  76 186 195  76 186 195  76 186 195  76 186 195  76 186 195  76 186 195  76
186 195  76 185 194  76 184 193  76 184 193  76 185 194  75 183 192  77 192 202  90 169
176   0   0   0 146 147 147 255 255 255 255 255 255 255 255 255 239 239 239 244 244 244
255 255 255 202 202 202   0   0   0   0   0   0 202 202 202 255 255 255 245 245 245 239
239 239 255 255 255 255 255 255 255 255 255 196 196 196   0   0   0  88 168 175  75 193
202  75 182 191  76 185 194  76 184 193  76 184 193  76 185 194  76 186 195  76 186 195
 76 186 195  76 186 195  76 186 195  76 186 195  76 186 195  76 186 195
 76 186 195  76 186 195  76 186 195  76 186 195  76 186 195  76 186 195  76 186 195  75
184 192  74 185 194  74 189 198  75 189 198  74 185 194  76 191 200  80 177 185  56  83
 86   0   0   0   0   0   0 224 224 224 255 255 255 251 251 251 255 255 255 255 255 255
255 255 255 206 207 207 163 163 163 161 161 161 208 208 208 255 255 255 255 255 255 255
255 255 251 251 251 253 254 254 252 252 252  96  98  98   0   0   0  45  81  85  82 178
186  74 190 199  74 185 194  74 189 198  74 189 198  74 185 194  75 184 193  76 186 195
 76 186 195  76 186 195  76 186 195  76 186 195  76 186 195  76 186 195
 76 186 195  76 186 195  76 186 195  76 186 195  76 186 195  76 186 195  75 185 194  77
192 201  82 190 198  88 182 190  88 180 188  83 191 199  82 178 186   0  58  62   0   0
  0 177 178 179  37  36  36  96  96  97 252 252 252 255 255 255 250 250 250 252 252 252
254 254 254 252 252 252 255 255 255 255 255 255 253 253 253 254 254 254 252 252 252 250
250 250 253 253 253 255 255 255 166 166 166   0   0   0 180 181 181   0   0   0   0  60
 64  88 180 188  82 190 199  88 180 188  89 182 190  83 190 199  77 191 200  75 185 194
 76 186 195  76 186 195  76 186 195  76 186 195  76 186 195  76 186 195
 76 186 195  76 186 195  76 186 195  76 186 195  76 186 195  75 185 194  78 191 200  77
161 168  42  93  98   0   0   0   0   0   0  39  95 100  44  75  78   0   0   0 196 197
198 255 255 255 193 193 193   0   0   0 154 154 154 255 255 255 255 255 255 254 254 254
254 254 254 255 255 255 253 253 253 253 253 253 255 255 255 254 254 254 254 254 254 253
253 253 255 255 255 194 194 194   0   0   0 183 182 183 255 255 255 200 202 202   0   0
  0  45  78  81  50  97 102   0   0   0   0   0   0  39  93  98  78 163 170  77 190 199
 75 185 194  76 185 194  76 186 195  76 186 195  76 186 195  76 186 195
 76 186 195  76 186 195  76 186 195  76 186 195  75 185 193  78 191 201  70 147 154   0
  0   0   9   0   0 142 139 139 148 146 145  63  45  43   0   0   0 196 197 197 255 255
255 255 255 255 255 255 255 129 129 129   0   0   0 247 247 247 255 255 255 253 253 253
254 254 254 252 252 252 253 253 253 253 253 253 252 252 252 254 254 254 251 251 251 255
255 255 244 244 244   3   5   6 108 108 108 255 255 255 254 254 254 255 255 255 201 202
202   0   0   0  53  30  27 148 146 145 144 142 141  33   0   0   0   0   0  75 150 157
 77 190 200  75 185 194  76 186 194  76 186 195  76 186 195  76 186 195
 76 186 195  76 186 195  76 186 195  76 184 193  76 190 199  79 172 180   0   0   0  94
 91  91 234 235 235 255 255 255 255 255 255 239 239 239 217 218 218 255 255 255 254 254
254 250 250 250 255 255 255 178 178 178   0   0   0 233 233 233 255 255 255 251 251 251
253 253 253 254 254 254 253 253 253 253 253 253 254 254 254 253 253 253 249 249 249 255
255 255 226 226 226   0   0   0 171 171 171 255 255 255 251 250 250 255 255 255 255 255
255 219 220 220 236 237 237 255 255 255 255 255 255 236 237 237 105 100 100   0   0   0
 85 174 182  76 190 199  75 185 193  76 186 195  76 186 195  76 186 195
 76 186 195  76 186 195  76 186 195  74 184 192  80 193 202  64 129 134   0   0   0 219
220 220 255 255 255 250 250 250 253 253 253 255 255 255 255 255 255 253 253 253 254 254
254 251 251 251 255 255 255 230 230 230   0   0   0 156 158 158 255 255 255 255 255 255
255 255 255 255 255 255 255 255 255 255 255 255 255 255 255 255 255 255 255 255 255 254
255 255 140 142 142   0   0   0 228 228 228 255 255 255 253 253 253 253 253 253 253 253
253 255 255 255 255 255 255 252 252 252 251 251 251 255 255 255 224 226 226   0   0   0
 61 132 138  84 193 202  75 185 194  76 186 194  76 186 195  76 186 195
 76 186 195  76 186 195  76 186 195  74 185 194  82 191 200  24  97 103  74  60  59 247
247 247 254 254 254 254 254 254 255 255 255 253 253 253 252 252 252 254 254 254 254 254
254 253 253 253 254 254 254 255 255 255 163 164 164   0   0   0 151 147 146 204 204 204
189 188 188 156 154 153 190 191 191 196 197 197 165 163 163 188 188 188 193 194 194 131
126 125   0   0   0 158 160 160 255 255 255 255 255 255 253 253 253 254 254 254 254 254
254 252 252 252 253 253 253 255 255 255 253 253 253 255 255 255 245 247 247 101  87  86
  0  92  99  91 193 201  74 186 195  76 185 194  76 186 195  76 186 195
 76 186 195  76 186 195  76 186 195  74 184 193  82 192 201  43 107 113  42   7   0 243
243 243 255 255 255 248 248 248 252 252 252 254 254 254 254 254 254 254 254 254 254 254
254 252 252 252 255 255 255 204 205 205  37   0   0  37  63  65   0   0   8   0   0   0
  0   0   0   0   0   0   0   0   0   0   0   0   0   0   0   0   0   0   0   0   0   0
 33  40  46  67  70   1   0   0 200 200 200 255 255 255 253 253 253 254 254 254 254 254
254 254 254 254 254 254 254 252 252 252 248 248 248 255 255 255 243 245 245  76  55  52
  8 105 112  89 193 202  74 186 195  76 186 194  76 186 195  76 186 195
 76 186 195  76 186 195  76 186 195  75 183 192  79 193 202  74 148 154   0   0   0 180
182 182 255 255 255 255 255 255 255 255 255 254 254 254 254 254 254 254 254 254 251 251
251 255 255 255 223 224 224   0   0   0   0  20  28  87 176 184  90 184 192  82 163 171
 86 170 178  92 179 187  85 165 172  84 164 171  92 179 186  85 169 176  84 163 170  89
184 192  79 172 180   0  44  48   0   0   0 220 221 221 255 255 255 252 252 252 254 254
254 254 254 254 254 254 254 255 255 255 255 255 255 255 255 255 187 190 190   0   0   0
 78 152 159  80 192 201  75 185 194  76 186 195  76 186 195  76 186 195
 76 186 195  76 186 195  76 186 195  76 185 194  75 187 196  80 185 194  38  79  83   0
  0   0 169 171 172 226 226 226 238 238 238 253 253 253 254 254 254 254 254 254 251 251
251 255 255 255 238 239 239  85  73  72  20  82  86  87 191 200  74 189 198  79 192 201
 78 191 200  75 190 199  78 191 201  79 192 201  75 190 199  78 191 200  78 190 199  74
190 199  82 189 197  44  89  93  59  42  39 238 239 239 255 255 255 253 253 253 254 254
254 254 254 254 253 253 253 239 239 239 227 227 227 173 176 176   0   0   0  39  85  89
 83 185 194  75 187 196  76 185 194  76 186 195  76 186 195  76 186 195
 76 186 195  76 186 195  76 186 195  76 186 195  76 185 194  76 189 198  79 178 186  40
 89  93   0   0   0   0   0   0  70  72  72 235 235 235 255 255 255 253 253 253 253 253
253 253 253 253 255 255 255 160 159 159   0   0   0  86 179 187  76 187 196  75 184 193
 75 184 193  75 184 193  75 184 193  75 184 193  75 184 193  75 185 194  75 182 191  74
188 197  90 177 185   0   0   0 152 150 150 255 255 255 252 252 252 255 255 255 252 252
252 255 255 255 240 240 240  76  77  78   0   0   0   0   0   0  42  93  97  80 178 187
 75 189 198  76 185 193  76 186 195  76 186 195  76 186 195  76 186 195
 76 186 195  76 186 195  76 186 195  76 186 195  76 186 195  76 185 194  76 189 198  80
187 196  83 165 172  56 101 105   0   0   0 224 225 225 255 255 255 250 250 250 251 251
251 251 251 251 255 255 255 157 157 157   0   0   0  87 180 188  76 189 198  76 185 194
 76 186 195  76 186 195  76 186 195  76 186 195  76 186 195  76 186 195  76 184 193  74
190 199  90 178 186   0   0   0 148 146 146 255 255 255 251 251 251 253 253 253 248 248
248 255 255 255 228 228 228   0   0   0  49  98 102  81 165 173  82 187 196  76 189 198
 76 185 194  76 186 195  76 186 195  76 186 195  76 186 195  76 186 195
 76 186 195  76 186 195  76 186 195  76 186 195  76 186 195  76 186 195  76 185 194  74
184 193  80 197 207  89 170 177   0   0   0 169 170 170 255 255 255 255 255 255 255 255
255 255 255 255 239 241 242  73  60  58   0  72  76  86 189 198  75 186 195  76 186 195
 76 186 195  76 186 195  76 186 195  76 186 195  76 186 195  76 186 195  76 185 194  74
187 196  83 187 196  28  77  82  43  19  15 238 239 240 255 255 255 255 255 255 255 255
255 255 255 255 173 175 176   0   0   0  82 169 177  80 197 207  75 184 193  76 185 194
 76 186 195  76 186 195  76 186 195  76 186 195  76 186 195  76 186 195
 76 186 195  76 186 195  76 186 195  76 186 195  76 186 195  76 186 195  76 186 195  76
185 194  74 185 194  80 186 194  50  99 104   0   0   0 184 187 187 243 245 245 248 250
250 228 231 231 122 122 122   0   0   0  77 156 163  78 191 200  75 185 194  76 186 195
 76 186 195  76 186 195  76 186 195  76 186 195  76 186 195  76 186 195  76 186 195  75
184 192  77 192 201  75 153 159   0   0   0 112 111 111 227 229 230 247 248 249 244 246
246 187 190 190   0   0   0  44  96 101  81 188 197  74 184 193  76 186 195  76 186 195
 76 186 195  76 186 195  76 186 195  76 186 195  76 186 195  76 186 195
 76 186 195  76 186 195  76 186 195  76 186 195  76 186 195  76 186 195  76 186 195  76
186 195  76 185 193  76 189 198  80 177 185  44  85  89   0   0   0  77  59  57 107  97
 96   0   0   0   0   0   0  70 138 144  78 188 197  75 186 195  76 186 194  76 186 195
 76 186 195  76 186 195  76 186 195  76 186 195  76 186 195  76 186 195  76 186 195  76
186 194  75 186 194  78 189 198  71 136 142   0   0   0   0   0   0 107  96  95  79  62
 60   0   0   0  34  82  86  79 178 187  76 189 198  76 185 194  76 186 195  76 186 195
 76 186 195  76 186 195  76 186 195  76 186 195  76 186 195  76 186 195
 76 186 195  76 186 195  76 186 195  76 186 195  76 186 195  76 186 195  76 186 195  76
186 195  76 186 195  76 185 193  76 189 198  82 184 192  76 147 154   0  92  98   0  72
 78  49 116 122  82 166 174  78 189 198  75 186 195  76 185 194  76 186 195  76 186 195
 76 186 195  76 186 195  76 186 195  76 186 195  76 186 195  76 186 195  76 186 195  76
186 195  76 185 194  76 186 195  78 189 198  82 165 172  52 117 122   0  72  78   0  93
 99  75 147 153  82 184 193  75 189 198  76 185 194  76 186 195  76 186 195  76 186 195
 76 186 195  76 186 195  76 186 195  76 186 195  76 186 195  76 186 195
 75 186 195  76 186 195  76 186 195  76 186 195  76 186 195  76 186 195  76 186 195  76
186 195  76 186 195  76 186 195  75 184 193  75 188 197  80 192 201  89 191 200  91 191
199  86 192 201  77 191 200  75 186 194  76 185 194  76 186 195  76 186 195  76 186 195
 76 186 195  76 186 195  76 186 195  76 186 195  76 186 195  76 186 195  76 186 195  76
186 195  76 186 195  76 185 194  75 186 195  77 191 200  85 192 200  91 191 199  89 191
200  80 192 201  75 188 197  76 185 193  76 186 195  76 186 195  76 186 195  76 186 195
 76 186 195  76 186 195  76 186 195  76 186 195  76 186 195  75 186 195
 78 186 195  75 186 195  76 186 195  76 186 195  76 186 195  76 186 195  76 186 195  76
186 195  76 186 195  76 186 195  76 186 195  76 185 194  75 185 194  74 186 195  74 187
196  74 186 195  75 185 193  76 185 194  76 186 195  76 186 195  76 186 195  76 186 195
 76 186 195  76 186 195  76 186 195  76 186 195  76 186 195  76 186 195  76 186 195  76
186 195  76 186 195  76 186 195  76 185 194  75 185 193  75 186 195  74 187 196  74 186
195  75 185 194  76 185 194  76 186 195  76 186 195  76 186 195  76 186 195  76 186 195
 76 186 195  76 186 195  76 186 195  76 186 195  75 186 195  79 187 195
