P3
# 8-bit ppm - RGB
50 50
255
 77 185 195  77 187 196  76 186 197  76 186 195  77 187 196  76 186 195  76 186 195  78
188 197  81 187 198  80 189 196  96 193 200 100 194 202  97 196 202  99 196 203 101 195
203  96 193 200  92 192 200  91 191 201  87 189 201  86 190 199  86 190 201  85 189 198
 86 190 199  86 190 199  88 191 198  91 191 201  93 191 200  92 192 202  88 191 198  88
191 198  88 191 198  88 190 200  88 190 200  88 191 198  88 191 198  82 188 199  85 189
198  89 191 201  93 193 201  93 193 201  92 192 200  87 189 199  98 197 203  97 194 203
 94 192 201  87 190 197  84 188 197  81 188 196  77 185 195  84 188 197
 76 186 195  76 186 195  75 185 194  77 185 195  77 186 193  77 185 197  76 186 195  76
184 194  82 189 197  77 187 196  86 186 194  91 185 193  93 186 194  90 187 194  89 186
192  89 186 193  89 186 193  92 186 194 102 186 194 102 187 192  92 186 194  92 186 194
 93 186 194  92 186 194  89 186 193  91 186 192  86 186 194  85 185 193  87 187 197  86
186 194  82 186 193  81 185 194  78 185 193  82 186 195  82 186 195  78 187 194  77 185
197  77 185 195  77 185 195  76 186 195  77 185 195  76 186 195  74 187 195  76 186 193
 76 186 195  78 188 197  76 186 195  77 185 195  76 186 195  76 186 195
 76 186 195  76 186 195  76 186 195  76 186 193  76 186 197  76 186 195  76 186 195  77
185 195  95 192 199  61 118 111   6  14  16   6  12  12   4  12  14   5  11  11   6  14
 16   5  15  16   6  15  14   4   8   9   3   4   6   0   2   1   4   4   6   0   4   5
  2   3   5   3   3   5   3   3   5   1   2   6   2   3   5   1   6   9   2   6   5   2
  6   7   3   7   8   6  14  16   9  20  22  11  25  28   9  27  29  14  29  32  14  38
 40  16  37  38  16  37  40  16  37  42  17  38  41  16  40  42  17  41  43  17  38  41
 32  80  82  84 188 199  76 186 197  76 186 195  76 186 195  78 184 195
 76 186 197  76 186 197  74 187 195  77 185 197  74 187 193  77 185 195  76 186 195  76
186 197  93 191 200  87 158 160  50  58  35  68  72  57  55  55  53  54  53  51  54  54
 54  53  53  51  55  55  53  54  54  52  53  53  51  56  55  53  53  55  52  55  54  52
 54  54  54  54  54  52  47  46  52  46  43  52  46  43  52  49  42  50  50  45  52  48
 43  49  46  43  50  48  43  50  47  45  50  48  43  50  48  43  50  48  42  52  50  43
 50  48  42  52  48  43  49  49  42  50  49  44  50  46  43  50  50  47  56  45  37  48
 49  48  53  92 192 198  78 186 196  76 184 194  77 185 195  76 186 195
 76 186 195  76 186 197  76 186 195  76 186 195  76 184 194  74 187 195  76 186 195  81
185 194 106 185 190  72 128 125  36  44   3  52  61  32 102 122  51 109 126  54 108 126
 50 106 127  52 108 126  52 108 126  52 108 126  52 108 126  50 109 125  53 108 126  52
107 128  51 106 126  53 124 144  57 125 148  60 124 147  57 122 146  60 124 147  59 123
146  58 126 146  59 123 147  59 123 145  60 126 146  61 123 146  58 126 146  57 123 147
 59 124 147  57 124 148  62 125 147  62 124 146  61 126 146  59 125 148  60 123 148  57
124 147  59 162 179 173 102 185 191  96 186 195  77 185 197  78 186 196
 76 186 195  76 186 195  76 186 193  77 185 195  77 187 194  77 185 195  71 159 161  22
 52  54   0   1   0  46  52  24  49  53  36  59  66  35 136 160  66 141 167  68 140 166
 69 140 164  66 141 165  71 140 166  69 139 165  68 140 166  69 140 166  69 141 165  67
139 165  68 141 165  67 162 190  77 166 194  81 165 195  83 165 195  81 163 193  79 164
194  80 162 195  80 163 193  81 165 195  81 164 194  80 164 194  80 163 193  81 165 193
 80 162 195  80 164 194  80 163 193  79 165 194  78 164 194  80 165 193  82 165 195  83
164 194  80  31  59   0   0   0   0  26  66  66  80 186 197  77 187 196
 77 185 195  76 186 195  76 186 195  76 186 195  74 187 195  77 185 195  82 137 139   1
 57  32  39  73  57  49  59  35  47  52  30  57  66  35 130 153  63 136 159  68 133 158
 66 135 158  67 134 159  67 135 158  67 135 158  67 137 158  67 135 158  67 133 160  67
133 158  66 134 159  68 157 185  75 160 188  77 161 188  75 158 186  76 157 186  76 157
186  76 157 186  78 157 186  76 157 186  76 160 188  77 161 189  78 160 188  75 160 188
 77 160 188  77 160 188  78 160 188  77 160 188  77 161 189  78 157 186  76 158 186  76
157 186  76  89  96  62  56  59  52  66  99  88  84 191 197  76 186 195
 76 186 195  74 187 195  74 187 195  75 185 194  94 182 191  86 184 193 137 102  96 157
 51  29 152  59  41  68  56  32  40  52  32  59  66  35 132 155  65 137 162  68 136 159
 68 136 160  66 136 160  66 136 160  66 136 159  68 136 159  68 137 160  69 136 160  66
135 160  66 136 160  64 145 171  70 146 172  71 146 172  71 159 187  76 160 188  77 160
188  77 160 188  78 160 188  77 160 188  78 148 175  72 146 172  71 147 173  72 146 172
 71 146 172  71 146 172  71 146 172  71 146 172  71 146 172  71 157 186  76 161 189  78
159 187  76  78  92  43  29  32  15  49  63  36 102 195 202  74 187 195
 76 186 195  76 186 197  76 186 195  73 172 177  27  66  69   2   2   0 194  60  41 205
 66  53 198  63  51  77  57  33  33  52  33  60  63  34 131 156  64 137 161  67 136 159
 68 139 161  76 138 162  76 138 162  76 134 159  68 137 158  67 133 158  66 138 162  74
138 162  76 138 162  76 133 158  67 132 156  68 133 158  66 157 186  76 161 189  78 160
188  75 159 187  76 160 188  77 158 187  77 137 162  68 132 157  66 133 158  66 133 158
 66 134 159  67 133 158  66 134 159  67 133 158  66 133 158  66 155 182  77 160 188  77
157 186  76  79  92  46  35  37  24  51  57  31 107 195 204  77 185 195
 77 187 196  76 186 195  76 186 195  83 156 162  48  71  51  82  73  58 189  63  48 196
 63  48 190  62  49  76  58  34  35  52  33  59  66  35 131 154  66 137 162  68 135 158
 67 122 150   1 121 149   2 122 151   0 138 164  65 140 165  73 137 163  66 120 151   0
120 148   0 122 150   3 134 160  63 137 160  69 138 162  68 157 185  75 161 189  78 159
187  76 163 193  79 163 193  79 163 193  79 138 163  71 134 157  66 134 159  68 135 158
 67 134 159  67 133 158  66 134 159  67 133 158  66 134 161  68 161 189  78 166 196  82
163 193  77  81  95  46  33  35  22  49  59  32 100 194 202  77 185 195
 79 187 197  76 186 193  76 186 195  81 139 140   0  33   2  72  57  34 191  63  50 201
 62  49 191  62  48  76  58  34  34  51  32  60  66  38 133 153  64 135 161  62 140 164
 80 213 220 202 224 228 213 216 223 207 113 128  85  84 101  20 101 118  66 214 216 202
223 227 213 219 223 208 148 168  95 132 157  56 136 161  69 156 185  75 161 189  76 160
188  75 115 136  57 106 123  53 110 127  55 145 171  70 153 180  75 150 177  70 151 178
 71 151 178  73 152 178  71 151 177  70 151 178  71 150 177  72 114 135  58 107 125  51
107 127  54  64  73  42  43  48  26  50  55  31  99 194 200  76 186 195
 80 189 196  77 185 195  78 188 197  84 135 136  11  37   0  72  59  40 188  62  47 198
 63  49 190  63  48  76  58  34  34  51  32  59  65  37 131 155  67 134 158  60 144 165
 88 254 252 253 255 255 255 255 255 253  95  95  97   0   0   0  66  66  66 250 250 252
255 255 255 254 254 254 157 173 111 129 155  46 136 162  73 156 185  75 160 188  77 157
186  76  62  74  38   0   1  26  38  39  31 152 180  77 162 190  77 162 190  79 162 190
 80 162 190  80 162 190  80 162 190  80 161 189  78 162 190  80  68  79  37   0   0  24
 29  28  26  50  54  39  47  52  28  49  54  30  90 189 202  76 186 195
 80 189 196  77 187 194  76 186 195  84 136 134   7  37   0  76  61  42 194  62  49 206
 65  48 197  64  49  77  57  33  34  52  30  57  66  35 134 154  67 135 160  59 144 166
 84 245 245 243 255 253 254 249 249 251 101 105  91   2  26   2  77  81  64 243 243 245
255 255 255 251 251 251 154 173 109 129 155  46 138 163  72 155 184  74 161 189  78 157
186  76  68  79  37  18   5  25  45  49  32 149 176  71 163 191  80 157 186  76 160 187
 74 157 187  75 158 188  76 158 188  76 161 189  76 157 187  75  71  82  42  21  10  24
 41  43  30  51  56  36  47  53  27  48  60  36  82 189 195  77 185 195
 79 187 197  76 186 195  76 186 195  81 141 139  21  37   0  60  59  37 123  58  38 127
 59  40 121  58  40  62  57  35  43  52  33  56  65  34 132 155  67 133 158  57 143 166
 88 248 247 245 255 255 255 251 251 251  99 100  92   0   0   0  73  76  65 244 242 243
255 255 255 252 252 252 154 173 109 131 157  48 136 161  70 156 186  74 160 188  78 159
188  80 137 162  68 132 157  65 135 158  67 156 185  75 160 188  77 160 189  79 159 188
 78 160 188  78 161 187  78 160 188  78 158 188  76 161 189  79 138 162  68 133 158  66
135 158  67  72  84  44  37  41  24  51  57  31  97 194 201  77 185 195
 76 186 195  76 186 195  76 186 195  81 155 156  46  60  33  59  66  50   1  57  32   1
 57  32   0  55  32  53  57  33  53  52  32  61  65  38 133 156  66 134 160  59 143 164
 87 247 247 245 255 255 255 251 251 251 104 103  98  17  30   0  80  83  72 243 245 244
255 255 255 252 252 252 154 173 109 130 156  47 140 160  71 157 184  77 160 188  77 160
188  77 164 192  79 164 194  80 163 193  79 161 189  78 161 189  78 161 187  77 160 188
 77 159 187  76 160 188  77 160 188  77 160 188  77 160 188  77 160 193  78 164 194  80
164 194  80  81  95  46  33  35  22  51  59  36  91 191 199  76 186 195
 76 186 197  76 186 195  76 186 195  74 173 179  28  67  70   1   1   1  55  53  28  60
 58  35  58  56  33  19  57  32   0  50  31  32  65  34 135 160  69 137 162  60 148 167
 88 248 247 245 255 255 255 250 250 250  77  80  69   0   0   0  35  43   2 243 243 243
255 255 255 252 252 252 154 173 109 130 156  47 138 161  71 158 184  75 161 189  78 161
187  78 158 186  76 157 186  76 157 186  76 160 188  77 160 188  77 160 188  77 160 188
 77 160 188  78 160 188  77 160 188  77 160 188  78 160 188  77 156 185  75 158 186  76
157 186  76  79  92  46  35  37  24  51  61  35  88 190 202  76 186 195
 76 186 195  76 186 193  76 186 195  76 184 194  93 190 199 108 192 200  78 123 120  25
 44   0  64  59  38 162  61  43 171  59  45 165  62  45  99 101  51  78  99  30 103 114
 72 245 247 246 255 255 255 253 253 253 224 224 224 218 218 218 220 220 220 251 251 251
255 255 255 253 253 253 153 171 109 130 156  47 138 161  71 157 185  74 161 189  78 160
188  77 161 189  78 161 189  78 160 188  77 159 187  77 160 188  77 161 189  79 161 188
 75 161 189  78 160 188  77 160 188  77 160 188  77 160 188  77 160 188  77 160 188  77
160 188  77  80  92  44  34  36  23  51  65  40  87 189 199  75 185 194
 74 187 195  77 187 196  76 186 195  76 186 195  76 186 197  78 186 196  80 159 164   1
 36   2  72  59  40 195  62  49 206  64  52 197  62  50  73  42  37   0   4   0  68  67
 65 246 246 244 255 255 255 254 254 254 255 255 255 255 254 255 254 255 255 255 255 255
255 253 254 252 252 252 154 172 110 130 156  47 138 161  71 157 185  75 161 189  78 160
188  77 160 188  77 160 188  77 160 188  77 160 188  77 160 188  77 159 187  76 161 189
 78 160 188  77 161 189  76 160 188  77 159 189  75 160 188  75 160 188  77 160 186  76
160 188  77  80  92  46  34  36  23  51  69  43  85 189 198  76 186 195
 76 186 195  76 186 195  76 186 195  76 186 193  76 186 195  78 186 196  84 130 130   9
 36   1  72  61  42 188  63  45 196  63  48 189  61  48  80  64  41  24  50   2  79  83
 66 250 248 253 255 255 255 255 255 255 255 254 255 254 255 253 255 254 255 255 255 255
255 255 255 255 255 255 155 173 111 132 155  47 137 161  73 158 184  75 160 188  77 161
187  77 160 188  77 160 188  77 160 188  77 160 188  77 161 189  78 160 188  77 161 187
 77 159 187  76 160 188  75 160 188  77 159 189  77 160 188  77 160 188  77 159 189  77
161 187  78  80  92  46  36  38  25  53  75  54  82 189 195  77 187 196
 76 186 197  76 186 195  76 186 195  76 186 195  74 187 193  78 186 196  84 144 144   9
 36   1  71  60  40 189  62  47 199  61  50 191  62  48  77  56  35  27  49  26  64  67
 48 173 185 145 181 193 153 179 191 151 178 193 152 181 193 155 178 193 152 180 192 152
180 192 152 176 191 150 140 163  81 133 159  62 138 161  70 156 184  74 163 189  79 158
188  76 159 187  77 160 188  77 160 188  77 159 189  77 159 187  76 160 188  78 160 188
 77 160 186  77 161 188  75 160 188  77 161 187  77 160 188  77 159 187  77 161 187  78
161 189  78  80  92  46  35  37  24  54  83  63  85 192 198  76 186 195
 76 186 195  77 187 196  76 186 193  77 186 193  78 186 198  75 185 196  84 145 147   7
 37   1  70  62  41 189  62  45 199  64  50 190  61  47  78  58  34  36  51  30  57  62
 30 117 144   3 123 152   0 120 148   0 124 150   0 121 150   0 124 150   1 121 149   0
121 149   0 122 150   1 136 160  64 136 160  66 136 161  67 157 185  75 160 188  77 160
188  78 160 188  77 159 187  76 160 188  77 160 186  76 160 188  78 159 189  77 160 188
 77 160 188  77 160 188  77 160 188  77 159 187  76 160 188  78 158 187  77 160 188  77
158 186  76  79  92  48  36  36  26  55  86  68  89 189 197  76 186 195
 77 185 195  75 185 194  76 186 195  76 186 195  73 186 192  77 187 196  81 151 151   6
 38   0  74  59  40 191  62  49 202  65  49 194  65  51  78  58  34  32  54  33  59  65
 37 136 158  76 141 165  81 141 165  81 140 164  80 142 164  81 140 164  80 140 164  80
140 164  80 139 163  77 137 160  69 136 160  66 137 161  67 157 186  76 160 190  78 161
189  78 159 187  76 160 188  77 160 188  77 161 191  79 160 190  78 161 191  79 160 190
 78 162 190  79 162 190  79 163 191  80 162 192  80 161 191  79 162 190  80 163 191  78
162 190  79  80  94  45  33  35  21  58  94  80  99 193 201  76 186 195
 76 186 195  76 186 195  76 186 195  75 185 194  78 186 196  76 186 195  79 159 160  28
 43   4  61  62  44 106  58  38 114  61  43 107  59  39  60  58  33  44  52  31  58  64
 36 131 154  63 137 161  67 135 159  65 137 161  67 134 159  65 138 159  66 135 159  65
135 160  66 135 158  67 136 159  68 136 159  68 136 159  68 141 167  68 141 167  70 142
168  69 158 186  76 161 189  78 158 187  77 104 121  53  90 105  48  94 110  48  92 107
 48  92 107  48  92 107  48  93 108  49  94 109  52  94 109  52  93 108  49  93 111  53
 93 108  49  64  70  44  48  53  31  58  94  84 101 194 202  77 187 196
 76 186 195  76 186 195  76 186 195  76 186 195  76 186 195  76 186 195  78 173 179  38
 71  44  53  61  40   1  55  31   1  57  32   0  55  32  49  57  34  49  52  33  58  64
 36 132 155  65 136 159  68 136 159  68 136 159  68 136 159  68 136 159  68 136 159  68
136 159  68 136 159  68 136 159  68 136 159  68 136 159  68 135 158  67 134 157  66 134
159  68 156 183  76 161 189  78 157 185  75  64  74  37   5   1  25  30  29  27  29  24
 28  27  25  28  26  26  28  27  25  28  27  25  28  27  25  28  27  25  30  27  25  28
 29  24  28  51  55  38  45  54  27  56  92  78  98 192 200  76 186 195
 76 186 195  76 186 197  76 186 193  75 185 194  76 186 195  76 186 195  76 186 195  46
111 117  41  70  38  38  35   2  40  37   2  41  37   0  50  55  31  48  53  33  56  65
 36 131 156  65 139 162  71 136 160  66 136 159  68 138 159  68 137 160  70 136 159  68
136 159  68 137 160  69 134 159  67 134 159  67 134 159  67 135 160  68 136 159  68 136
161  67 156 186  74 161 189  78 158 185  78  74  85  42  41  43  30  52  57  33  56  62
 34  57  63  35  54  63  36  38  50   2  33  46   2  35  46   3  34  47   3  35  46   3
 34  47   3  32  44   6  24  53  31  45  93  77  94 191 198  76 186 193
 76 186 195  76 186 195  76 186 195  76 186 195  76 186 195  76 186 195  76 186 195  76
186 195  91 191 199  93 191 200  84 188 197 116 196 203  87 109 104  36  44   5  60  63
 44  76  89  43  77  91  42  80  94  43 133 156  66 138 162  68 135 160  66 139 160  69
136 159  69 138 161  70 154 181  76 156 183  78 156 182  75 156 182  73 155 182  75 155
182  75 159 187  77 160 188  78 159 188  78 147 173  72 145 171  70 143 171  71  72  83
 43  36  39  20  58  65  47 125 195 202 103 193 202  95 192 199  95 192 199  96 193 202
 93 192 198 101 194 202 105 193 202  98 193 199  93 193 203  76 186 195
 77 185 195  76 186 195  76 186 195  76 186 195  76 186 193  76 186 195  76 186 195  76
186 195  77 185 197  74 187 195  77 187 194  76 186 195  79 170 175  10  28   2  51  56
 36  40  42  28  34  33  29  46  51  31 129 152  64 137 163  66 137 157  68 135 160  66
135 158  67 136 161  67 158 188  76 160 190  78 158 188  76 161 189  78 160 188  77 159
189  77 158 188  76 158 187  77 156 189  74 161 191  79 163 193  79 160 190  76  78  91
 45  32  35  18  66 109 100  77 187 194  76 186 195  76 186 195  75 185 194  76 186 195
 75 185 194  75 185 194  77 187 196  77 185 195  77 183 194  76 186 195
 75 185 194  76 186 195  76 186 195  76 186 195  76 186 193  76 186 193  76 186 195  76
186 195  78 187 194  75 185 194  75 185 192  77 187 196  81 150 153   9  36  17  51  59
 34  54  60  34  51  56  32  59  65  37 131 154  66 137 162  68 135 160  68 135 159  65
135 159  65 137 161  65 155 184  76 156 189  76 158 186  73 156 186  74 158 186  73 155
188  75 157 186  76 159 187  76 158 186  76 156 185  75 155 188  75 155 184  74  76  87
 45  32  36  19  63  90  75  83 187 196  78 184 197  76 184 196  77 187 198  77 185 197
 76 184 194  77 187 194  75 185 194  76 186 195  76 186 197  77 185 195
 76 186 195  74 187 195  76 186 195  77 187 196  76 186 195  76 186 195  76 186 195  75
185 194  77 185 195  76 186 197  77 187 196  76 186 195  83 187 198 107 195 204  92 190
201  88 121 114  24  33   2  60  66  38 131 154  63 136 161  67 140 158  72 198 180 130
207 178 134 203 179 133 238 209 152 244 211 158 240 210 156 243 211 160 239 209 155 243
210 157 241 212 155 241 210 156 241 212 155 241 210 156 244 211 158 238 208 154 105  96
 67   2  29   0  64  85  70  90 193 198  77 185 195  76 186 195  77 185 195  76 186 195
 77 185 195  75 185 194  77 187 194  76 186 195  76 186 195  77 185 195
 76 186 195  76 186 195  76 186 195  76 186 195  76 186 195  76 186 195  76 186 195  76
186 193  73 186 194  76 186 193  76 186 195  76 186 195  79 187 197  76 186 195  74 187
195  81 169 178  10  28   4  61  67  41 131 154  64 136 161  67 137 160  69 213 180 139
220 185 147 221 186 148 255 211 169 255 217 172 255 216 172 254 216 171 255 217 173 254
216 171 255 216 172 255 217 172 254 216 171 255 217 170 255 217 172 255 214 171 112  98
 72   0  28   0  65  85  73  91 189 200  78 186 196  77 186 193  77 187 196  76 186 195
 76 186 193  77 187 196  76 186 195  76 186 195  76 186 195  76 186 195
 76 186 195  75 185 194  76 186 195  74 187 195  76 186 195  76 186 195  76 186 195  76
186 197  76 186 195  77 187 198  76 186 195  76 186 195 102 194 205  80 186 197 111 198
207  94 106  96  14  29   0  61  67  39 130 153  63 135 162  67 141 159  73 209 182 137
217 182 142 215 183 142 249 211 162 253 215 166 251 214 169 253 215 168 252 214 169 255
214 168 255 215 169 251 215 167 255 214 168 252 216 168 253 215 166 251 213 166 108  96
 70   0  28   0  63  84  69  91 191 199  76 186 195  76 186 197  76 186 195  77 187 194
 75 185 194  77 185 195  76 186 195  76 186 195  74 187 195  76 186 195
 77 185 195  76 186 195  76 186 195  76 186 195  75 185 194  77 185 195  76 186 195  76
186 195  77 185 195  76 186 195  76 186 195  91 162 164 103 142 139 114 127 120 117 118
112  64  67  50  47  52  28  58  68  34 131 154  64 136 161  67 140 160  71 210 181 139
218 183 145 217 183 145 249 213 165 254 216 169 255 215 169 255 214 171 255 215 169 255
216 167 255 215 169 255 216 170 255 215 169 255 215 169 255 217 170 255 214 168 110  98
 72   0  27   2  63  85  70  88 191 198  77 185 195  76 186 197  76 186 195  76 186 195
 76 186 195  74 187 195  76 186 195  76 186 193  76 186 195  75 185 194
 76 186 195  76 186 195  76 186 195  76 186 195  76 186 195  76 186 195  76 186 195  76
186 195  76 186 195  76 186 195  41 104 109  11  25  26   0   0   0   0   0   0   0   1
  0  43  48  28  45  47  34  53  59  33 131 154  64 136 161  67 140 160  71 210 181 139
216 184 145 216 183 142 250 212 165 254 216 169 255 215 169 255 215 169 255 215 169 255
215 169 255 215 169 253 215 168 255 215 169 255 215 169 254 216 169 255 214 168 110  98
 72   0  28   0  63  82  63  86 189 196  77 187 196  76 186 195  76 186 195  76 186 195
 76 186 195  76 186 195  76 186 195  76 186 195  76 186 195  76 186 195
 76 186 195  76 186 195  76 186 195  76 186 195  76 186 195  76 186 195  76 186 195  76
186 195  76 186 195  79 174 180  55  82  65  66  70  55  68  73  49  70  75  53  70  75
 53  57  66  37  53  62  31  63  70  37 131 154  66 137 162  68 141 160  71 209 180 140
217 183 145 217 184 143 250 212 165 254 216 169 255 215 169 255 214 168 255 215 169 255
215 171 255 215 171 255 215 169 255 215 169 255 215 169 254 216 169 253 215 168 108  98
 71   0  28   0  64  78  61  83 187 198  74 187 195  76 186 195  76 186 195  76 186 195
 76 186 195  76 186 195  76 186 195  76 186 195  76 186 195  76 186 195
 76 186 195  76 186 195  76 186 195  76 186 195  76 186 195  76 186 195  76 186 195  76
186 195  76 186 195  80 159 163  15  29   4  63  69  41 142 170  70 152 179  74 150 177
 72 151 178  73 151 178  73 149 177  74 139 163  69 134 158  64 138 161  70 209 180 136
216 183 142 217 185 144 250 212 167 255 217 168 255 214 168 255 217 168 255 214 168 255
215 169 255 215 167 255 215 169 255 217 168 255 215 169 255 215 169 252 214 167 112  98
 72   0  28   0  63  80  62  79 188 195  77 187 196  76 186 195  76 186 195  76 186 195
 76 186 195  76 186 195  76 186 195  76 186 195  76 186 195  76 186 195
 76 186 195  76 186 195  76 186 195  76 186 195  76 186 195  76 186 195  76 186 195  76
186 195  76 186 195  81 155 154  16  24   1  64  75  41 158 186  75 165 195  79 162 192
 78 162 192  76 163 193  79 161 189  76 139 162  71 134 162  62 140 158  74 210 181 139
218 184 146 216 184 143 252 211 167 253 215 168 255 216 170 255 215 171 254 216 167 254
216 167 255 217 168 254 216 169 254 216 169 255 215 169 254 216 169 254 214 165 109  97
 73   1  27   0  62  80  64  78 186 196  75 188 196  76 186 195  76 186 195  76 186 195
 76 186 195  76 186 195  76 186 195  76 186 195  76 186 195  76 186 195
 76 186 195  76 186 195  76 186 195  76 186 195  76 186 195  76 186 195  76 186 195  76
186 195  76 186 195  80 158 160  13  26   0  63  69  41 148 176  73 156 185  75 155 181
 72 157 184  77 155 187  76 157 184  77 137 162  68 135 158  67 139 162  71 207 181 133
214 183 139 216 183 142 249 213 165 253 215 168 251 213 166 253 215 166 254 213 167 255
214 168 254 212 166 255 214 168 253 215 166 251 213 168 251 213 164 249 213 163 111  97
 71   0  28   0  62  79  63  81 187 198  77 185 195  76 186 195  76 186 195  76 186 195
 74 187 195  76 186 195  76 186 195  76 186 195  76 186 195  76 186 195
 76 186 195  76 186 195  76 186 195  76 186 195  76 186 195  76 186 195  76 186 195  76
186 195  76 186 195  80 167 172  46  60  33  62  70  49  72  80  39  69  80  37  74  86
 40 132 157  65 140 164  66 138 162  68 136 159  68 136 159  68 135 158  68 147 162  77
146 161  78 146 164  80 167 187  88 171 192  91 172 190  91 214 186 139 221 186 146 217
185 144 220 187 146 218 185 142 217 186 142 177 190 100 170 191  90 172 190  91  81  92
 49  33  41  16  61  70  49  91 191 197  77 187 196  76 186 195  76 186 195  76 186 195
 76 186 195  76 186 195  76 186 195  76 186 195  76 186 195  76 186 195
 76 186 195  76 186 195  76 186 195  76 186 195  76 186 195  76 186 195  76 186 195  76
186 195  76 186 197  76 184 194  24  59  61  29  37   0  38  42  28  36  37  31  49  54
 30 131 157  66 137 161  67 134 159  67 136 160  66 136 159  68 137 160  69 132 158  61
132 157  63 132 160  60 153 186  73 154 187  70 154 187  74 210 181 137 219 181 145 215
181 143 216 182 144 217 181 145 214 182 141 164 186  86 153 187  67 153 186  69  72  83
 41  18  12  14  51  57  43  96 193 200  78 186 196  76 186 195  76 186 195  76 186 195
 76 186 195  76 186 195  76 186 195  76 186 195  76 186 195  76 186 195
 76 186 195  76 186 195  76 186 195  76 186 195  76 186 195  76 186 195  76 186 195  76
186 195  76 186 195  76 186 195  75 153 153  89 100  92  58  63  39  51  57  31  62  68
 34 128 151  63 135 158  67 132 155  65 137 160  69 136 159  68 136 159  68 139 163  67
139 162  71 139 163  69 160 187  80 161 189  79 163 189  82 210 184 135 215 184 140 213
184 140 213 184 140 217 184 141 213 184 140 167 187  88 160 190  78 161 187  78  87 100
 47  56  64  27  70  82  46 115 198 206  77 185 195  76 186 195  76 186 195  76 186 195
 76 186 195  76 186 195  76 186 195  76 186 195  76 186 195  76 186 195
 76 186 195  76 186 195  76 186 195  76 186 195  76 186 195  76 186 195  76 186 195  76
186 195  76 186 195  76 186 195  76 186 195 100 194 202  90 100  92  25  37   1  55  60
 38  62  72  37  61  71  37  67  78  38 131 156  65 137 161  67 136 159  69 155 184  74
159 187  76 155 187  76 159 187  76 159 187  76 159 187  77 161 186  84 164 186  85 163
186  82 163 186  82 163 186  82 163 186  82 159 187  77 158 187  77 159 187  77 155 182
 75 154 183  73 154 181  74  94 132 117  78 158 165  79 172 177  76 186 195  74 187 195
 76 186 197  77 185 195  77 185 195  76 186 195  76 186 195  76 186 195
 76 186 195  76 186 195  76 186 195  76 186 195  76 186 195  76 186 195  76 186 195  76
186 195  76 186 195  76 186 195  76 186 193  76 186 195  86 133 127  24  34   0  54  59
 39  39  41  28  33  34  29  46  50  33 131 154  63 137 160  69 136 159  68 157 186  76
162 190  79 162 188  78 161 191  77 162 190  79 161 191  79 157 190  73 158 193  75 158
191  74 157 190  75 158 191  74 158 191  74 161 189  79 162 190  79 161 189  78 160 190
 78 161 191  79 161 189  78  64  80   8   1   1   3  46  97  80  76 186 193  76 186 195
 76 186 195  77 185 197  76 186 193  76 186 195  76 186 195  76 186 195
 76 186 195  76 186 195  76 186 195  76 186 195  76 186 195  76 186 195  76 186 195  76
186 195  76 186 195  76 186 195  77 186 193  73 185 196  87 132 129  21  35   2  57  60
 41  64  74  37  64  74  37  69  80  40 132 155  65 137 161  67 136 162  65 156 185  77
160 188  77 156 188  77 153 180  75 152 180  70 153 180  75 153 180  75 152 179  76 153
180  75 154 181  76 152 179  74 154 179  75 157 185  75 157 186  76 158 185  78 157 185
 75 160 188  77 157 186  76  82  94  54  46  49  40  66  87  72  95 192 201  77 187 194
 77 185 197  76 186 195  76 186 193  76 186 195  76 186 195  76 186 195
 76 186 195  76 186 195  76 186 195  76 186 195  76 186 195  76 186 195  76 186 195  76
186 195  76 186 195  76 186 193  75 185 194  77 187 196  84 144 142  16  29   0  61  67
 41 130 150  63 135 158  68 135 156  65 134 159  68 134 159  67 137 160  69 158 184  74
161 189  78 157 183  76  86  97  57  68  71  54  71  80  51  72  78  52  72  82  55  73
 78  54  70  78  53  73  77  53  71  82  52 131 154  66 138 163  71 135 159  65 156 183
 76 160 187  74 157 185  74  76  89  45  32  36  21  54  62  39  87 189 199  75 185 194
 77 187 194  76 186 195  76 186 193  76 186 195  76 186 195  76 186 195
 76 186 195  76 186 195  76 186 195  76 186 195  76 186 195  76 186 195  76 186 195  76
186 195  77 185 195  76 186 195  76 186 195  76 186 195  83 148 150  14  29   0  61  67
 41 132 157  65 139 165  66 139 162  71 137 162  68 138 161  70 138 164  67 160 188  77
163 193  81 159 189  77  41  59   0   0   2   0   0   0   0   1   1   3   1   0   0   0
  1   0   2   1   0   0   0   0   1   0   0 132 153  62 139 163  67 138 163  72 158 186
 75 162 192  80 163 191  81  80  92  46  32  36  19  58  61  40  91 191 199  77 185 195
 76 186 197  77 185 195  73 186 194  76 186 195  76 186 195  76 186 195
 76 186 195  76 186 195  76 186 195  76 186 195  76 186 195  76 186 195  76 186 195  76
186 195  76 186 195  76 186 195  76 186 195  76 186 195  84 155 155  14  27   0  60  66
 40 123 145  60 129 152  64 131 151  62 129 152  64 128 151  63 130 155  64 147 174  69
151 178  71 150 175  74 110 128 112  98 132 133  98 134 130  94 144 141  91 149 152  93
147 147  94 143 140 100 129 124 108 114 104 130 149  70 129 152  61 131 151  62 149 174
 72 152 179  72 150 177  70  74  85  42  34  37  18  53  61  38  94 192 203  74 187 195
 76 186 195  76 186 195  76 186 195  76 186 195  76 186 195  76 186 195
 76 186 195  76 186 195  76 186 195  76 186 195  76 186 195  76 186 195  76 186 195  76
186 195  76 186 195  76 186 195  76 186 195  77 185 195  83 160 166  47  61  36  67  71
 56  67  72  52  68  73  53  65  73  52  67  72  50  67  72  52  67  72  52  71  76  56
 63  69  43  81  88  70 114 198 206  78 186 196  82 189 197  76 186 197  76 186 195  76
186 195  77 187 196  97 194 201  92 190 199 105 128 120  46  54  15  71  75  58  69  74
 52  68  76  53  69  74  52  66  70  55  59  63  46  65  77  65  91 191 199  76 186 195
 76 186 195  76 186 195  76 186 195  76 186 195  76 186 195  76 186 195
 76 186 195  76 186 195  76 186 195  76 186 195  76 186 195  76 186 195  76 186 195  76
186 195  76 186 195  76 186 195  77 187 198  76 186 197  76 157 160  14  34  35   0   0
  0   1   1   1   2   4   3   3   3   5   2   3   5   2   3   5   2   3   5   2   3   5
  2   3   7  38  71  50  84 188 197  76 186 195  77 187 196  76 186 195  76 186 195  77
185 195  74 187 195  76 186 195  76 186 195  81 150 153   0   1   0   0   0   0   0   0
  0   0   0   0   0   0   0   0   0   0   0   0   0  14  34  35  91 191 199  76 186 195
 76 186 195  74 187 195  76 186 195  76 186 195  76 186 195  76 186 195
 77 187 196  78 186 196  79 185 196  74 187 195  77 185 195  77 187 196  78 188 197  76
186 195  76 186 197  76 186 195  76 186 195  76 186 195  95 173 177  93 147 149 105 140
142  86 171 176  82 177 183  80 177 184  83 176 183  85 175 183  84 174 182  85 174 180
 85 174 180  81 176 182  78 186 196  78 187 194  76 186 195  76 186 195  76 186 195  76
186 195  76 186 195  80 186 197  87 191 200 103 168 170 101 130 128 111 130 124 109 130
125 111 126 121 115 121 117 116 122 118 110 119 114 106 138 135  93 191 200  76 186 195
 76 186 197  76 186 195  76 186 195  76 186 197  76 186 193  76 186 195
 76 186 195  80 187 195  77 185 195  76 186 195  76 186 195  77 187 196  76 186 195  77
187 196  76 186 195  76 186 195  76 186 197  82 189 197  88 190 202  77 185 195  79 187
197  77 185 195  78 186 196  78 186 196  78 188 197  79 187 197  79 188 195  80 189 196
 81 190 197  81 187 198  78 186 196  78 187 194  76 186 195  76 186 195  76 186 195  76
186 195  76 186 195  80 186 197  80 186 197  77 187 198  76 186 195  77 185 195  77 186
193  79 185 196  85 189 198  85 189 198  85 189 198  84 188 199  78 186 196  76 186 193
 76 186 195  77 185 195  76 186 193  76 186 197  84 188 197  78 186 196
