P3
# 8-bit ppm - RGB
50 50
255
 78 186 196  76 186 195  76 186 195  76 186 195  76 186 195  76 186 195  77 185 195  76
186 195  78 188 197  79 187 197  79 188 195  79 188 195  79 188 195  79 188 195  80 187
195  79 188 193  79 188 195  79 187 197  79 188 195  79 188 195  79 188 193  79 188 195
 79 188 195  79 188 195  79 188 195  79 188 195  79 188 195  80 189 196  78 187 194  78
187 194  79 188 195  79 188 195  79 188 195  79 188 195  79 188 195  80 189 196  79 188
195  79 188 195  79 188 195  79 188 195  80 187 195  81 188 196  79 187 197  78 188 199
 77 187 196  75 185 194  75 185 194  76 186 195  73 186 194  78 188 197
 76 186 195  76 186 197  77 185 195  75 185 192  75 185 194  75 183 193  78 186 198  74
177 184  61 116 111  57  98  92  59 102  95  59 102  93  60 101  93  60 101  93  60 101
 93  59 102  93  59 101  91  59 100  92  60 101  93  60 101  93  60 101  93  61 102  94
 61 100  93  60 101  93  60 101  93  60 101  93  60 101  93  60 101  93  60 101  93  60
101  93  60 102  92  60 102  92  60 102  92  60 101  93  60 101  93  60 101  93  61 102
 94  60 101  93  60 101  93  60 101  93  60 100  91  60 103  96  58  97  90  64 120 117
 76 179 186  77 187 196  76 186 195  76 186 195  76 186 195  76 186 195
 74 187 195  76 186 195  76 186 195  74 187 193  76 186 195  77 183 194  75 193 202  65
146 149  45   0   1  50  48  10  46  33   0  42  25   0  43  26   0  42  26   0  42  26
  0  43  26   0  43  26   0  43  26   0  42  25   0  44  27   1  43  23   0  43  26   0
 42  24   0  40  14   0  40  14   0  40  14   0  40  14   0  41  15   1  39  13   0  40
 14   0  40  13   2  40  14   0  40  14   0  42  14   1  40  14   0  41  13   0  41  13
  0  40  14   0  42  14   1  40  14   0  37  16   0  37  16   0  39  27   1  38   0   0
 64 149 152  79 191 202  76 186 195  76 186 195  76 186 197  76 186 195
 76 186 195  76 186 197  73 186 194  77 185 197  77 190 198  71 183 194  90 187 196  87
133 133  41  23   1  53  65  53  63  72  45  72  82  48  71  81  44  70  81  47  69  83
 47  71  83  47  70  82  46  70  82  46  68  83  44  71  81  46  70  82  46  70  82  46
 69  83  47  78  91  47  78  91  47  76  91  48  78  91  47  77  90  47  77  90  47  78
 91  48  76  91  48  79  92  49  76  92  47  75  92  48  76  91  48  77  92  49  76  91
 48  77  92  49  75  92  48  75  90  49  78  91  48  78  90  44  78  95  59  72  76   0
 99 150 143  86 186 196  74 184 193  76 188 199  76 186 195  77 185 195
 75 185 194  77 185 195  76 184 196  76 188 199  75 168 176  61  96  89  63  77  60  60
 61  45  53  58  34  33  32  28 107 124  54 140 164  66 134 158  70 135 160  68 135 158
 67 134 158  64 139 159  70 136 159  68 138 159  68 136 159  68 135 158  67 133 158  67
142 163  68 160 186  76 159 187  76 159 187  74 159 187  76 160 188  77 159 187  76 159
187  76 158 188  76 158 186  73 158 186  76 160 186  76 159 187  74 160 186  76 159 185
 75 159 187  74 159 185  75 159 187  74 158 188  76 159 187  77 159 185  75 165 194  78
132 151  69  36  53  61  61 102  94  72 171 177  78 188 199  76 184 194
 76 186 197  76 186 195  77 187 198  78 194 205  47 131 131   0   0   2   0  55  34  34
 54  27  57  61  34  32  30  31 109 124  57 141 164  73 134 157  66 134 161  68 137 160
 69 137 160  69 134 159  67 136 159  69 136 161  69 136 159  69 137 161  67 136 156  67
141 164  73 162 190  79 162 190  79 161 189  76 160 188  78 160 188  77 160 188  77 160
188  77 160 188  75 160 188  78 162 190  79 162 190  77 162 190  79 163 191  80 162 190
 80 163 191  81 162 190  79 162 190  79 163 189  79 162 188  78 158 185  78 166 195  79
126 149  61  16   2  27  54   0   0  66 141 144  78 190 201  77 185 195
 76 186 195  78 188 197  69 176 182  87 176 182 120 117 112 114  34   0 119  68  51  82
 55  36  45  61  33  38  33  30 107 124  54 142 163  70 135 158  68 137 160  69 135 160
 68 136 159  68 137 160  69 136 160  66 136 159  68 137 160  69 136 159  68 135 158  67
139 164  70 154 181  74 154 180  73 155 181  74 159 187  76 160 188  77 159 187  77 160
188  77 159 187  77 160 188  77 155 182  75 154 180  73 154 179  75 154 179  75 154 179
 75 154 179  75 154 180  73 154 181  76 155 181  74 157 184  77 158 186  76 165 193  80
131 151  64  25  33  44  54  43   0  62 140 142  76 190 201  76 184 194
 77 190 198  68 148 149  55  63  40  25  52  20 174  57  39 204  65  52 205  63  51 133
 57  41   0  60  34  48  33  30 108 123  56 139 164  70 134 157  67 136 160  72 139 163
 79 140 162  79 138 160  75 135 158  67 136 159  68 135 158  68 139 161  78 140 162  79
140 162  77 135 158  68 134 157  67 138 161  70 158 186  76 161 189  78 159 186  79 158
186  76 158 186  76 159 187  76 141 165  71 133 156  65 136 159  68 135 158  68 135 158
 68 135 158  68 135 158  68 136 159  68 133 156  66 148 174  73 159 187  76 163 193  79
127 150  62  24  28  40  54  34   1  66 141 144  78 190 201  76 184 194
 79 189 200  60 110 107  50   0   1  26  64  49 172  60  48 200  63  47 198  63  51 129
 58  40   0  60  34  46  31  28 105 125  52 140 164  70 137 160  70 129 155  45 120 148
  1 119 147   0 128 153  26 143 164  71 143 164  73 135 160  58 120 148   1 119 147   0
124 150   1 139 160  69 135 158  68 138 161  70 158 186  76 160 188  77 161 187  77 164
192  79 166 194  81 166 195  79 141 165  69 132 155  67 134 157  67 134 157  67 134 157
 67 134 157  67 133 156  66 136 159  71 132 154  69 151 178  71 166 195  79 170 199  83
131 154  64  18  24  40  54  36   0  65 140 143  77 191 201  76 184 194
 80 188 198  62 116 116  51  32   0  26  64  47 171  62  47 199  64  52 198  63  51 130
 59  43   1  61  35  46  31  28 107 124  54 140 165  74 128 152  42 169 183 134 202 207
183 202 211 184 174 186 150 105 124  43 103 123  38 139 152 106 199 208 181 202 207 183
187 201 166 137 160  69 134 157  66 139 162  71 158 186  76 161 189  78 159 185  76 133
156  66 126 149  61 128 151  63 144 168  72 148 174  73 147 173  72 146 172  71 147 172
 71 147 172  71 147 172  71 146 172  71 148 173  72 138 162  68 125 147  62 133 156  65
103 123  54  36  45  42  52  28   0  65 141 141  77 191 201  76 184 194
 79 189 198  63 115 111  51  23   1  29  62  45 170  61  46 199  64  50 198  63  51 129
 58  42   2  60  35  47  32  29 104 124  53 144 168  80 115 142   0 204 212 187 255 255
255 255 255 255 217 217 219   0   1   0   0   0   0 143 143 143 255 255 255 255 255 255
246 248 243 137 160  70 131 155  59 140 163  73 158 186  76 161 189  78 157 184  77  67
 77  40   0   0  24  30  30  30 146 172  71 166 195  79 159 187  77 163 191  78 162 189
 76 162 189  76 162 190  77 159 187  76 168 197  79 117 138  59   0   0  20  38  40  29
 40  40  30  52  63  47  48  20   0  67 143 143  77 191 201  76 184 194
 81 187 198  60 116 113  50  24   0  19  64  44 177  61  48 205  63  51 206  64  52 135
 58  42   0  60  32  50  32  28 103 125  51 146 165  83 117 145   0 202 208 182 255 255
255 255 254 255 213 213 211   3  23   0   1   1   1 142 143 138 255 255 253 255 254 255
238 241 234 137 160  70 132 156  60 140 163  73 158 186  75 163 191  80 159 186  79  67
 77  40   0   0  24  34  33  29 145 170  69 165 191  81 158 186  75 158 186  76 159 187
 76 159 187  77 160 188  77 158 186  75 165 194  76 113 134  57   0   1  21  39  40  32
 38  41  30  52  64  44  50  19   1  64 140 140  77 191 201  76 184 194
 79 189 198  62 117 112  49  33   0  44  62  48 120  58  37 138  59  42 138  59  42  94
 55  38  42  60  36  41  31  29 107 123  51 145 169  83 116 146   0 198 208 182 254 255
255 254 255 255 214 214 214   0  15   2   0   0   0 141 146 139 255 255 255 255 255 255
240 241 233 137 160  70 131 154  63 140 163  73 158 186  76 161 189  78 158 186  75 134
157  67 127 150  62 129 152  62 153 182  74 162 190  77 158 185  78 161 189  78 161 187
 78 161 188  75 160 188  77 159 186  79 160 190  78 147 172  70 123 147  61 134 157  66
105 120  51  39  45  43  51  30   1  65 141 141  77 191 201  76 184 194
 79 189 198  60 110 107  48   0   0  51  64  47  11  56  35   0  57  33   1  54  32  40
 55  34  61  61  35  38  33  30 105 125  52 144 166  81 116 143   0 201 209 184 255 255
255 255 255 255 214 214 214  13  27   0   0   0   0 145 146 141 254 255 253 255 255 255
238 243 237 139 159  70 132 156  62 140 163  73 160 188  78 160 188  77 161 189  78 165
193  80 165 194  78 165 193  80 162 188  78 159 187  76 160 188  77 160 188  78 160 188
 77 160 188  77 160 188  77 160 188  77 159 187  76 162 190  77 164 192  79 171 200  84
132 155  65  18  24  38  55  37   1  65 140 143  77 191 201  76 184 194
 77 190 198  67 148 151  53  66  46  51  54  25  57  52  23  58  57  37  61  56  34  40
 55  34  26  60  35   1  31  31 104 124  51 148 171  83 120 148   0 201 210 183 254 255
255 255 255 255 211 211 213   0   0   2   1   1   1 135 136 131 255 255 255 255 255 255
241 242 234 137 160  70 132 156  62 140 163  75 158 185  78 162 190  79 158 186  76 159
186  79 158 186  76 159 185  76 159 187  77 161 189  78 160 188  77 160 188  77 160 188
 77 160 188  78 160 188  77 159 187  76 160 188  78 161 187  78 157 185  75 164 192  79
126 148  63  25  28  43  54  33   2  65 140 143  77 191 201  76 184 194
 75 185 194  78 188 197  70 177 185  90 177 184  83 115 112  43  21   0  25  63  46 144
 57  40 179  63  48 177  57  48 134  80  42  79 106  63  36  57   0 185 188 179 255 255
255 255 255 255 245 245 245 224 224 222 223 223 223 233 233 233 254 254 254 255 255 255
240 243 236 137 160  70 131 156  64 141 164  74 159 187  77 161 189  78 160 188  77 160
188  77 160 188  77 160 188  77 160 188  77 160 188  75 160 188  77 160 188  77 160 188
 77 161 189  78 160 188  77 160 188  77 160 188  77 160 188  77 158 186  76 164 193  77
127 150  62  22  28  40  54  34   1  65 140 143  77 191 201  76 184 194
 77 185 195  76 186 195  75 188 196  77 193 204  63 133 133  54  15   0   1  62  47 167
 59  46 205  63  51 207  65  51 144  50  38   0  59  53   0   0   0 178 178 176 255 255
255 253 253 253 255 255 255 255 255 255 255 255 255 255 255 255 253 253 255 254 254 254
241 244 237 140 160  71 132 156  60 140 163  73 159 185  76 161 189  78 160 188  75 160
188  77 160 188  77 161 189  78 160 188  77 160 188  77 160 188  77 160 188  77 160 188
 77 160 188  77 160 188  77 160 188  77 160 188  77 160 188  78 158 186  76 165 194  78
127 150  62  22  28  40  53  34   1  65 140 143  77 191 201  76 184 194
 76 186 195  76 186 195  77 185 195  78 191 199  63 135 133  56  21   1   0  63  46 161
 60  44 198  65  52 199  64  52 141  59  38  32  73  55   0   0   0 178 178 176 255 255
255 252 252 254 254 254 255 252 252 252 252 252 254 252 252 252 253 253 253 254 254 254
239 242 235 137 160  70 132 156  62 140 163  72 158 186  76 161 189  78 160 188  78 160
188  77 160 188  77 159 187  76 162 188  78 160 188  77 160 188  77 160 188  77 160 188
 77 160 188  77 160 188  77 160 188  77 159 187  76 159 187  76 158 186  76 165 194  76
126 150  62  24  28  40  54  34   1  65 140 143  77 191 201  76 184 194
 76 186 195  76 186 193  77 185 197  76 188 199  63 134 136  55  20   0   0  63  46 162
 61  45 201  64  50 198  63  51 144  59  41   0  62  37  38  19  12 112 128  83 162 180
118 155 173 113 158 176 114 158 176 114 159 175 113 157 175 113 155 173 111 160 175 116
153 171 109 137 160  69 135 158  67 139 163  69 158 186  76 160 188  77 159 187  76 159
187  76 161 189  79 160 188  77 159 187  76 159 187  77 160 188  78 158 187  77 159 187
 77 159 187  77 159 187  76 159 187  77 159 188  80 160 188  77 158 186  76 165 194  78
128 151  63  25  29  41  54  34   1  64 139 144  78 190 201  76 184 194
 76 186 195  76 186 195  75 183 193  77 189 200  63 135 131  55  20   0   0  63  46 163
 60  45 204  64  54 203  64  49 144  58  43   0  60  34  48  32  32  95 112  40 135 159
 49 128 154  47 129 155  46 128 154  44 129 155  46 129 155  45 129 155  48 127 153  46
132 155  51 134 159  67 134 158  64 138 163  69 159 186  79 162 190  79 159 188  80 161
189  76 159 187  76 160 188  77 162 190  79 162 190  80 161 189  78 162 190  79 162 190
 80 162 190  79 161 191  79 162 192  80 162 190  79 162 190  79 160 188  75 169 196  79
127 151  63  21  27  41  54  36   0  66 139 143  77 191 201  76 184 194
 74 187 195  74 187 195  76 184 194  79 189 200  63 132 137  55  18   0   6  60  44 154
 59  41 191  62  48 190  61  48 135  60  41   1  61  35  44  30  29 101 116  57 144 164
 75 136 159  71 138 161  73 139 159  74 139 159  72 139 159  74 139 159  72 140 160  73
137 160  72 137 160  69 135 158  70 138 161  70 157 183  74 157 185  75 157 185  75 158
186  76 161 189  78 161 187  78 155 181  74 150 177  72 152 179  74 150 179  73 153 178
 74 152 179  74 154 179  75 152 177  73 151 179  76 152 179  74 150 177  74 157 184  77
123 142  60  26  33  43  53  32   1  63 141 143  80 190 201  76 185 192
 75 185 194  76 186 195  76 184 194  78 190 201  63 133 133  49  30   0  54  66  54  56
 60  43  58  61  42  58  61  42  54  57  40  55  60  36  32  31  29  99 115  52 140 164
 70 133 158  66 135 158  67 135 158  68 135 160  68 135 160  66 135 160  68 135 158  67
137 160  69 136 159  68 134 161  68 135 160  68 137 160  70 137 160  69 138 161  70 158
186  76 160 188  77 160 188  77  91 106  47  41  45  31  61  71  37  57  63  35  56  62
 36  57  61  36  56  66  42  54  68  43  55  67  43  57  67  43  57  66  45  55  67  43
 53  65  45  52  66  51  49  30   0  67 140 144  77 189 200  76 185 192
 76 186 195  76 186 195  76 184 194  79 189 200  66 141 144  49   0   0  49  36   1  47
 27   0  45  28   0  40  22   0  40  42   2  58  63  41  29  27  30 102 119  51 142 166
 70 140 161  70 138 161  70 136 159  68 136 159  68 136 159  69 137 158  67 136 159  68
136 159  68 134 157  67 134 157  69 134 157  67 135 158  68 133 156  66 134 159  68 156
183  76 161 189  78 161 187  77  80  92  44   0   1  23  42  39  32  44  47  30  49  52
 31  50  54  37  41  32   1  45  13   1  47  20   0  45  18   0  47  18   0  44  19   0
 49  22   1  49  33   0  46   0   0  67 146 150  78 188 199  76 184 194
 76 186 195  76 186 195  76 185 192  77 187 196  76 178 188  65 139 138  62 128 128  64
130 130  62 128 128  72 126 128  76  95  89  48  51   8  40  43  34  91 104  48 125 147
 65 119 140  61 128 147  65 137 160  69 135 160  68 134 159  67 136 159  69 137 160  69
135 160  68 141 167  70 141 167  70 141 167  70 141 167  70 141 167  70 142 168  71 158
186  76 161 189  78 160 188  77 110 131  54  87 102  47  98 114  52  65  75  38  50  54
 37  52  50  11  79 104 100  68 128 128  62 128 128  64 128 127  63 129 129  67 128 130
 64 130 130  63 127 128  64 142 142  74 181 189  78 188 197  76 184 194
 76 186 197  76 186 195  76 186 197  76 186 195  77 187 196  77 191 201  78 192 202  78
190 201  75 189 197  82 198 209  84 152 155  43   6   0  55  69  56  49  52  41  46  50
 33  14   1  28  90 105  50 139 163  67 135 158  68 136 159  69 141 160  71 137 157  70
144 165  72 163 189  80 164 190  81 162 190  80 162 190  80 162 190  80 162 190  80 162
188  79 162 188  79 162 188  79 165 191  81 165 191  81 168 195  82 102 117  52  21  20
 36  56  50   2  89 168 173  82 196 206  76 189 197  78 190 201  76 188 199  77 189 200
 78 190 201  77 189 200  78 190 201  77 187 198  76 186 195  76 186 195
 76 186 197  76 186 195  76 186 195  75 185 196  76 184 194  76 184 194  76 184 194  77
183 194  76 184 194  75 189 197  66 161 167  52  38   0  47  11   0  43  35   0  57  65
 40  35  34  29  92 107  50 139 163  69 135 158  68 135 158  67 127 157  57 126 156  56
133 161  58 149 185  62 149 185  62 149 185  62 150 186  63 149 185  62 149 185  62 149
185  62 150 186  63 150 186  63 149 185  62 148 183  63 152 188  64  93 114  47  29  17
 31  56  62  26  66 165 170  76 188 199  76 185 192  76 184 194  76 184 194  76 184 194
 76 184 194  76 184 194  76 184 194  77 183 194  76 186 195  76 186 195
 76 186 195  76 186 195  78 186 196  77 185 195  76 186 195  76 186 195  76 186 195  76
186 195  76 186 193  75 185 194  79 188 195  67 158 163  76 147 149  84 119 115  51  47
  2  38  40  39  92 105  51 140 163  72 133 158  67 145 160  77 176 171 106 172 168 103
180 175 109 205 199 123 206 200 126 205 199 125 205 199 125 207 199 126 206 198 126 205
198 126 205 199 125 205 199 125 207 199 126 205 199 125 209 203 127 124 120  75   1   2
  7  62  63  31  73 166 173  75 187 198  76 185 192  76 186 195  76 186 195  76 186 195
 76 186 195  77 185 195  75 185 194  77 185 195  76 186 195  76 186 195
 76 186 195  76 186 195  76 186 195  75 185 194  76 186 195  76 186 195  77 187 196  74
187 195  75 184 191  77 186 193  74 184 191  77 187 196  79 196 205  78 161 167  52  41
  0  36  37  41  91 107  45 143 164  73 124 156  55 164 167  98 222 187 149 217 182 144
228 191 149 253 216 172 254 217 173 254 215 172 254 217 173 254 217 173 252 218 172 254
217 173 254 217 173 254 217 173 252 218 173 255 216 175 254 221 176 155 131 103   0   0
  2  70  66  39  72 165 172  77 189 201  77 186 193  77 187 196  76 186 195  76 186 195
 76 186 195  76 186 195  76 186 195  77 187 196  76 186 195  76 186 195
 76 186 195  76 186 195  76 186 195  76 186 197  76 186 195  76 186 195  75 185 192  76
186 197  78 192 203  76 190 200  78 192 202  76 189 197  82 196 207  80 160 167  54  42
  2  36  40  39  91 106  47 141 165  71 129 156  61 158 166  93 221 183 144 212 181 137
222 187 145 253 215 168 252 216 166 252 214 167 255 214 168 255 214 168 253 215 170 252
216 168 253 215 168 255 214 168 255 214 168 252 214 165 255 217 170 151 130  99   0   0
  0  69  65  38  71 166 172  77 189 200  75 184 191  76 186 195  76 186 195  76 186 195
 76 186 195  76 186 195  76 186 195  76 186 195  76 186 195  76 186 195
 77 187 196  76 186 195  74 187 195  76 186 195  74 187 193  76 186 195  77 185 197  76
184 194  70 161 164  68 147 151  69 150 153  66 147 150  75 151 151  88 119 121  51  47
  0  38  40  37  92 108  46 141 164  73 124 156  55 162 165  94 218 185 144 211 182 140
223 188 148 255 215 171 255 214 168 255 214 168 255 215 169 255 217 170 255 216 167 255
215 169 255 215 169 255 215 169 255 216 167 255 214 168 255 219 171 151 130  99   0   0
  2  70  66  41  71 166 172  77 189 200  75 184 191  76 186 195  77 187 196  77 187 196
 77 187 196  77 187 196  76 186 195  76 186 195  76 186 195  76 186 195
 77 187 196  76 186 195  77 185 195  76 186 195  77 187 196  77 183 196  77 189 200  69
156 161  48  20   0  47  31   0  50  34   0  52  36   0  51  25   0  45  37   0  58  67
 40  37  37  29  92 107  50 143 162  72 126 156  58 162 165  94 219 184 144 212 180 139
220 187 144 255 214 168 255 214 168 255 214 168 255 215 169 255 215 169 255 215 169 255
214 168 254 216 169 255 215 169 255 215 169 255 214 168 255 219 171 151 130  99   0   0
  0  69  65  38  69 166 172  77 189 200  76 185 192  76 186 195  76 186 195  76 186 195
 76 186 195  76 186 195  76 186 195  76 186 195  76 186 195  76 186 195
 77 187 196  76 186 195  76 186 193  76 186 195  77 185 195  78 184 195  77 191 201  65
143 145  48  24   0  53  67  52  43  51  40  32  38  38  36  42  42  36  37  39  40  42
 31   0   0  24  86 101  46 141 164  73 128 155  58 163 166  95 224 189 149 219 184 142
228 193 151 254 220 174 254 220 172 255 219 171 254 216 169 254 216 169 255 215 169 255
215 169 255 215 169 255 215 169 255 216 167 255 214 168 255 219 171 151 130  99   0   0
  0  69  65  38  71 166 172  77 189 201  76 185 192  76 186 195  76 186 195  76 186 195
 76 186 195  76 186 195  76 186 195  76 186 195  76 186 195  76 186 195
 77 185 195  76 186 195  76 186 195  76 186 195  76 186 195  76 184 196  77 191 201  66
146 147  53  35   0  32  40  42 111 128  56 145 170  69 139 163  69 139 165  68 140 164
 68 143 164  69 139 163  69 135 158  68 137 162  68 136 150  73 126 109  83 124 110  81
133 113  86 149 128  97 142 123  93 162 139 107 250 212 167 255 217 172 255 214 168 255
215 171 255 216 170 255 215 169 255 215 169 255 213 170 253 219 171 151 130  99   0   0
  0  69  65  38  71 166 172  77 189 200  76 185 192  76 186 195  76 186 195  76 186 195
 76 186 195  76 186 195  76 186 195  76 186 195  76 186 195  76 186 195
 76 186 195  75 185 194  76 186 195  76 186 195  74 187 195  76 184 194  77 191 201  66
144 148  57  38   0  18  21  40 129 149  62 170 199  81 163 191  78 165 192  79 163 190
 77 165 195  79 155 182  75 132 155  65 141 165  71 118 140  58   1   1   3   0  28   6
  1  25   1   0  25   0   0   0   0  78  71  51 249 211 166 255 218 174 253 215 168 255
215 171 255 216 167 255 215 169 255 215 169 255 213 170 255 219 174 151 130  99   0   0
  0  70  66  39  73 166 173  77 189 200  76 185 192  76 186 195  76 186 195  76 186 195
 76 186 195  76 186 195  76 186 195  76 186 195  76 186 195  76 186 195
 76 186 195  76 186 195  76 186 195  76 186 195  76 186 195  76 184 194  77 191 199  67
145 149  54  36   0  21  23  38 123 145  62 165 193  82 158 186  76 158 188  76 158 186
 76 160 188  77 152 177  75 134 154  65 141 162  71 121 143  61  53  54  36  58  64  38
 57  62  38  71  71  47  31  47  21 102  92  65 248 210 165 255 218 173 254 213 167 255
215 171 255 216 170 255 215 169 254 216 169 252 214 165 255 218 173 151 131  98   0   0
  2  69  65  40  71 166 170  77 189 200  76 185 192  76 186 195  76 186 195  76 186 195
 76 186 195  76 186 195  76 186 195  76 186 195  76 186 195  76 186 195
 76 186 195  76 186 195  76 186 195  76 186 195  76 186 195  76 184 194  77 191 202  66
144 148  52  33   0  51  63  51  66  76  39  82  94  44  68  79  39 111 127  55 143 169
 72 139 163  69 138 162  68 133 160  67 135 158  67 143 164  71 152 178  71 150 175  74
150 177  72 147 175  72 153 178  76 150 172  74 117 107  74 106  94  72 117 106  78 210
183 138 224 191 148 218 186 147 188 190 106 174 192  92 180 194  97 108 118  58   6   9
 24  58  62  27  72 166 174  77 189 200  76 185 192  76 186 195  76 186 195  76 186 195
 76 186 195  76 186 195  76 186 195  76 186 195  76 186 195  76 186 195
 76 186 195  76 186 195  76 186 195  76 186 195  76 186 197  76 185 192  77 191 199  68
147 151  48   0   2  49  46   5  38  40  17  44  51  35   9   1  26  97 113  51 140 164
 70 137 157  68 138 161  70 137 160  69 132 155  65 142 168  71 165 192  79 162 192  76
163 191  80 163 189  79 165 194  76 154 183  75  47  63  26   1   0   0  49  55  29 205
169 133 222 184 147 217 179 142 169 186  90 150 186  63 161 191  79  97 116  52  27  14
 31  56  62  26  71 166 172  77 189 200  76 185 192  76 186 195  76 186 195  76 186 195
 76 186 195  76 186 195  76 186 195  76 186 195  76 186 195  76 186 195
 75 185 196  76 186 195  76 186 195  77 185 195  76 186 195  76 184 194  76 188 199  74
177 184  61 121 119  63 100  93  67  79  67  54  58  25  39  38  33  99 111  49 136 159
 68 129 151  66 132 155  65 136 161  69 134 157  67 142 166  68 157 184  77 157 184  79
157 186  76 155 184  76 159 187  77 151 176  72  71  77  41  40  44  30  72  72  46 199
175 129 215 187 140 210 184 136 174 188  93 158 188  76 164 192  81  98 114  51  24  11
 28  57  61  24  71 165 173  78 190 201  76 185 192  76 186 195  76 186 195  76 186 195
 76 186 195  76 186 195  76 186 195  76 186 195  76 186 195  76 186 195
 75 185 194  77 187 196  76 186 195  74 187 195  76 186 195  76 186 195  76 186 195  78
188 197  73 185 196  86 192 203  89 148 152  41  18   0  55  67  55  54  63  42  59  72
 45  40  50  39  95 110  55 138 161  70 135 158  67 136 159  68 137 160  69 135 158  67
136 159  68 137 157  68 139 163  69 131 154  66  60  71  39  39  40  32  62  69  36 153
178  76 167 191  81 160 186  79 159 187  77 159 185  76 162 190  79  99 117  55  27  29
 41  58  63  33  70 165 171  77 189 200  76 185 192  76 186 195  76 186 195  76 186 195
 76 186 195  76 186 195  76 186 195  76 186 195  76 186 195  76 186 195
 76 186 195  76 186 195  76 186 195  76 186 195  76 186 195  76 186 195  74 187 195  77
185 195  76 184 194  76 190 200  65 158 163  50   0   1  49  30   0  48  24   0  51  35
  1  24   0   0  88  99  20 143 167  73 139 162  71 139 163  69 138 161  70 139 162  71
139 163  69 138 161  70 139 164  70 132 155  65  63  70  37  41  41  33  62  69  36 151
178  73 162 190  77 157 185  74 164 191  78 163 191  78 164 197  82  97 110  28  14   0
  0  58  58   4  72 171 177  78 188 199  76 185 192  76 186 195  76 186 195  76 186 195
 76 186 195  76 186 195  76 186 195  76 186 195  76 186 195  76 186 195
 76 186 195  76 186 195  76 186 195  76 186 195  76 186 195  76 186 195  76 186 195  76
186 195  75 185 192  77 187 196  77 184 192  66 146 147  63 125 124  64 128 129  64 129
125  57 120 125 104 130 103 126 145  56 124 143  62 122 144  62 122 144  62 122 144  62
122 144  62 121 142  63 124 146  63 119 138  59  61  68  37  41  43  30  61  68  37 150
179  73 163 191  80 159 187  77 147 174  71 142 168  69 147 172  68 107 136 108  50 115
121  72 153 154  76 186 195  75 185 194  76 186 195  76 186 195  76 186 195  76 186 195
 76 186 195  76 186 195  76 186 195  76 186 195  76 186 195  76 186 195
 76 186 195  76 186 195  76 186 195  76 186 195  76 186 195  76 186 195  76 186 195  76
186 195  76 186 195  76 186 197  77 187 196  77 192 197  76 190 201  78 190 201  75 187
198  82 196 206  91 170 174  41  23   0  43  53  45  44  52  41  44  50  40  45  51  41
 45  53  42  44  46  32  43  45  31  44  46  32  58  62  37  50  53  34  63  68  38 150
177  74 162 190  79 158 186  76  83  99  52   0   0  38  47  42  10  89 174 179  79 195
206  74 188 198  76 186 197  76 186 195  76 186 195  76 186 195  76 186 195  76 186 195
 76 186 195  76 186 195  76 186 195  76 186 195  76 186 195  76 186 195
 76 186 195  76 186 195  76 186 195  76 186 195  76 186 195  76 186 195  76 186 195  76
186 195  76 186 195  76 186 195  76 186 195  76 185 192  76 184 194  76 184 196  76 184
194  76 189 197  67 174 180  55  70  51  50  12   1  50  34   0  50  30   3  50  26   2
 43  23   0  51  56  36  53  58  34  50  55  33  40  43  32  28  17  31  49  52  31 154
181  76 169 198  82 164 192  79  87  94   0  26   0   3  63  86  66  70 179 186  77 187
194  76 185 190  76 186 195  74 187 195  76 186 195  76 186 195  76 186 195  76 186 195
 76 186 195  76 186 195  76 186 195  76 186 195  76 186 195  76 186 195
 76 186 195  76 186 195  76 186 195  76 186 195  76 186 195  76 186 195  76 186 195  76
186 195  76 186 195  74 187 195  76 186 195  76 184 194  74 187 195  77 186 193  77 185
195  76 186 193  81 189 199  72 165 172  66 144 146  67 145 147  66 144 144  66 144 144
 87 131 130  58  62  38  47  51  27  59  65  39  95 109  50  94 110  47  97 111  50 129
152  64 132 157  65 132 155  65 105 142 132  60 139 144  75 168 173  79 187 197  77 185
197  74 187 195  77 185 195  76 186 195  76 186 195  76 186 195  76 186 195  76 186 195
 76 186 195  76 186 195  76 186 195  76 186 195  76 186 195  76 186 195
 76 186 195  76 186 195  76 186 195  76 186 195  76 186 195  76 186 195  76 186 195  76
186 195  76 186 195  76 186 195  77 187 196  77 187 196  75 185 194  76 186 195  76 186
195  76 186 197  75 185 194  74 191 196  77 191 201  77 191 201  77 189 201  77 195 204
 87 186 192  61  79  67  39  35   8  66  77  43 134 157  66 145 166  73 135 160  68  55
 68  50   1   0  16  37  46  45  86 183 190  79 196 205  74 186 197  77 187 194  77 186
193  76 186 197  76 186 195  76 186 195  76 186 195  76 186 195  76 186 195  76 186 195
 76 186 195  76 186 195  76 186 195  76 186 195  76 186 195  76 186 195
 76 186 195  76 186 195  76 186 195  76 186 195  76 186 195  76 186 195  76 186 195  76
186 195  77 185 195  76 186 195  74 187 195  76 186 195  76 186 193  76 186 195  76 186
195  76 186 193  77 185 195  75 183 193  76 185 192  75 185 194  76 185 190  77 187 196
 69 179 188  56  88  75  44  31   0  66  77  43 135 158  67 144 165  70 138 159  68  68
 69   1  45   0   0  65 111 101  73 183 192  75 185 196  77 185 197  76 186 195  76 186
197  78 186 196  76 186 195  77 187 196  76 186 195  76 186 195  76 186 195  76 186 195
 76 186 195  76 186 195  76 186 195  76 186 195  76 186 195  76 186 195
 76 186 195  76 186 195  76 186 195  76 186 195  76 186 195  76 186 195  76 186 195  76
186 195  76 186 195  76 186 195  76 186 197  76 186 195  77 185 195  77 185 195  76 186
195  74 187 195  76 186 195  76 186 195  76 186 195  77 185 195  75 185 196  76 189 197
 76 180 189  56  89  78  48  44  17  57  69  45  99 117  57 102 119  51 104 121  69  97
156 154  68 158 166  75 178 183  75 187 198  75 185 194  76 186 195  75 185 194  76 186
195  76 186 195  76 186 195  77 187 196  76 186 195  76 186 195  76 186 195  76 186 195
 76 186 195  76 186 195  76 186 195  76 186 195  76 186 195  76 186 195
 76 186 195  76 186 195  76 186 195  76 186 195  76 186 195  76 186 195  76 186 195  76
186 195  77 187 196  76 186 195  76 186 197  76 186 195  76 186 195  76 186 195  77 185
195  76 186 195  76 186 195  76 186 195  76 186 195  74 187 195  76 184 194  76 189 197
 76 180 187  55  79  66  49  30   0  50  53  32  35  35  33  28   0   0  45  74  72  83
187 196  76 193 202  77 185 195  76 186 195  76 186 195  76 186 195  76 186 195  76 186
195  76 186 195  76 186 195  75 185 194  76 186 195  76 186 195  76 186 195  76 186 195
 76 186 195  76 186 195  76 186 195  76 186 195  76 186 195  76 186 195
 78 186 196  76 186 195  76 186 195  76 186 195  76 186 195  76 186 195  76 186 195  76
186 195  76 186 195  76 186 195  76 186 195  76 186 195  76 186 195  76 186 195  76 186
195  76 186 195  76 186 195  76 186 195  76 186 195  76 186 195  76 184 194  76 186 197
 76 186 195  63 123 121  51  65  48  54  68  51  53  71  49  54  55  11  62 122 122  76
186 195  76 185 192  76 185 192  76 186 195  76 186 195  76 186 195  76 186 195  76 186
195  76 186 195  76 186 195  76 186 195  76 186 195  76 186 195  76 186 195  76 186 195
 76 186 195  76 186 195  76 186 195  76 186 195  76 186 195  76 186 195
 78 186 196  76 186 195  76 186 195  76 186 195  76 186 195  76 186 195  76 186 195  76
186 195  76 186 195  76 186 195  76 186 195  76 186 195  76 186 195  76 186 195  76 186
195  76 186 195  76 186 195  76 186 195  76 186 195  74 187 195  77 185 195  76 186 195
 78 186 196  77 185 195  76 178 188  73 173 181  73 173 179  78 172 180  82 185 192  78
188 197  75 185 194  76 186 195  76 186 195  76 186 195  76 186 195  76 186 195  76 186
195  76 186 195  76 186 195  76 186 195  76 186 195  76 186 195  76 186 195  76 186 195
 76 186 195  76 186 195  76 186 195  76 186 195  76 186 195  76 186 195
