P3
# 8-bit ppm - RGB
50 50
255
 76 186 195  76 186 195  75 185 194  76 186 195  77 185 195  77 185 195  83 187 198  92
192 200  76 186 195  82 189 197  86 190 199  85 189 198  88 191 198  92 192 200  92 192
200  90 193 200  92 192 200  93 191 200  94 192 201  94 192 201  94 192 201  94 192 201
 94 192 201  94 192 201  93 191 200  93 193 201  90 190 198  85 189 198  85 189 198  86
190 199  91 191 201  78 186 196  89 189 199  95 193 202  97 194 201 101 195 203 101 195
203 101 195 203 101 195 203  98 195 202  96 195 201  91 191 201  89 189 199  82 189 197
 77 187 196  76 186 195  78 184 195  77 187 196  77 185 195  77 187 196
 76 186 195  73 186 194  76 186 195  76 186 195  74 187 195  77 187 196  77 187 196  89
192 199 110 178 181  99 128 124 116 128 126 115 126 122 118 123 117 119 124 117 120 123
116 118 123 116 117 122 116 118 123 116 118 123 116 118 123 116 118 123 116 117 122 115
118 123 117 118 123 116 118 123 116 118 123 117 118 124 114 120 123 116 118 123 116 118
123 116 119 122 115 116 125 120 118 123 117 119 121 116 117 122 116 119 121 116 117 122
116 117 122 116 117 122 116 118 123 117 118 123 116 118 125 118 112 121 116 114 146 143
 87 190 195  76 186 195  78 188 195  77 185 195  76 186 197  78 186 198
 76 186 195  78 186 196  75 185 194  76 186 197  76 186 195  76 186 195  75 185 194  86
190 199  97 163 163   0   0   0   1  13   0   0   0   0   0   2   0   1   0   0   0   0
  0   0   0   0   1   1   1   0   0   0   0   0   0   0   0   0   0   2   1   0   0   0
  0   0   2   0   0   0   0   0   0   1   0   0   0   0   2   0   0   0   0   0   0   0
  0   0   0   0   0   0   0   0   1   1   1   1   1   1   0   0   0   0   0   0   0   0
  2   0   0   2   0   0   0   0   0   0   0   0   0   0   0   0   0   1   0  47  52  32
 86 190 199  76 186 195  76 186 195  77 187 196  77 187 196  75 188 196
 76 186 195  76 186 195  76 186 195  76 186 195  76 186 193  74 187 195  77 185 195  79
187 199 109 160 161   9  27   1  68  74  60  66  70  53  65  69  52  65  69  52  65  69
 52  65  69  52  66  69  52  65  69  54  63  70  52  65  69  54  64  68  51  66  70  53
 66  68  54  65  70  50  66  71  51  66  70  53  66  71  51  67  71  54  65  69  54  66
 71  51  66  71  51  66  71  51  66  71  51  66  71  51  66  71  51  67  72  52  66  71
 51  67  72  52  67  72  52  67  72  52  65  69  54  67  76  57  58  61  40  86  93  77
 95 192 199  76 186 195  76 186 195  76 186 197  77 185 195  77 185 195
 76 186 193  78 186 196  78 186 196  76 186 197  76 184 194  77 185 195  75 183 193 102
148 146  70  74  59  43  50  19  45  50  30 116 138  56 130 153  65 127 150  62 127 150
 62 126 150  62 128 151  63 130 150  63 127 150  62 126 148  63 129 152  64 127 150  60
125 149  61 146 173  70 150 177  74 149 176  71 149 175  74 148 175  72 149 178  72 149
176  73 148 176  73 149 176  73 150 177  74 149 176  71 149 176  73 148 175  72 149 176
 73 149 174  72 149 176  73 149 176  73 149 176  73 149 174  72 149 178  70 150 174  78
103 150 144  86 166 173  80 180 188  77 185 195  76 186 197  76 186 195
 76 186 193  75 185 196  76 186 195  76 186 195  77 186 193  92 171 176  17  45  46   0
 17   1  38  49  17  54  57  36  44  48  31 125 149  65 140 166  69 138 162  68 139 164
 70 139 164  70 138 163  69 138 163  69 138 163  69 138 164  67 139 162  71 139 163  69
138 163  69 160 188  77 163 193  79 162 192  78 162 192  80 163 191  78 161 191  77 162
190  77 163 190  77 163 191  78 162 192  78 161 191  77 162 192  78 162 192  76 163 191
 78 162 192  78 162 192  78 162 192  78 161 191  79 163 191  78 164 192  79 158 188  76
 39  57   0   7  21  24  71 142 142  76 186 195  75 188 196  81 188 196
 76 186 195  76 186 195  77 187 196  76 186 197  85 189 198 120 154 155  28  24   0  77
 74  59  54  57  36  48  56  31  44  48  33 124 146  63 138 162  68 133 158  66 134 159
 67 133 158  64 133 158  66 135 160  68 134 159  67 134 159  68 134 159  65 135 158  67
134 159  67 154 181  74 159 187  76 157 186  76 158 186  76 157 185  75 159 187  76 158
186  76 159 185  76 158 186  76 157 186  76 158 187  77 155 187  76 157 186  76 157 186
 76 157 186  76 157 186  76 157 186  76 158 187  77 157 187  75 160 188  77 155 182  77
 79  88  57  45  48  31  84 138 136  84 188 197  76 186 195  87 189 199
 78 188 197  76 186 195  74 187 195  84 155 157 101 136 132 171  77  67 186  57  41 185
 62  47  99  56  37  24  56  32  48  47  29 124 146  61 139 163  69 134 159  67 137 162
 71 138 161  71 138 161  71 135 160  68 134 159  67 135 160  68 138 161  71 138 161  71
138 161  71 140 164  70 140 164  68 140 164  68 156 185  75 161 189  78 160 188  78 158
188  76 159 187  77 158 187  77 141 167  70 139 163  67 140 166  69 140 164  70 141 164
 73 140 164  70 140 164  70 139 165  68 140 166  69 156 186  74 161 189  78 156 184  74
 70  80  43  19  28   1  79 128 125  90 189 202  76 186 195  89 191 201
 76 186 195  76 186 195  97 170 174  22  47  52   0  20   0 177  54  38 204  65  52 201
 64  50 109  58  37  14  56  32  49  47  32 122 146  62 139 163  69 134 159  67 133 157
 59 133 158  57 133 158  57 138 159  66 137 160  69 138 159  66 134 159  58 133 158  57
134 159  58 136 160  66 135 158  67 135 158  67 156 183  76 162 188  78 161 187  77 161
189  76 162 190  79 161 189  78 138 162  68 132 157  66 133 158  66 133 158  66 133 158
 66 132 157  66 133 158  66 134 157  66 135 158  67 158 186  76 162 190  77 157 185  75
 70  80  43  21  27   1  79 127 127  88 191 198  77 185 195  86 190 199
 77 187 196  78 186 196 115 163 163   0  14   0  57  73  60 174  62  48 198  63  49 196
 63  50 106  58  36  18  56  31  49  47  32 124 146  61 138 162  68 135 158  67 139 163
 77 141 165  81 141 167  80 136 159  71 133 158  66 133 158  66 139 163  79 143 165  83
141 165  79 136 161  70 136 159  68 137 158  67 156 183  76 161 189  78 160 188  75 157
186  76 157 186  76 157 185  75 139 166  69 136 159  68 138 163  69 137 161  67 137 161
 67 137 161  67 136 161  69 137 161  67 138 162  68 155 182  75 159 187  77 155 181  74
 69  81  43  23  27   0  80 129 126  85 189 198  77 185 195  85 189 198
 77 187 196  79 187 197 121 156 152   1   1   1  40  63  45 175  62  44 198  63  52 196
 63  48 106  58  36  17  57  31  47  48  30 124 146  63 139 163  69 132 157  53 229 232
221 247 247 245 245 246 241 125 132 116  37  54   0  69  78  35 226 228 223 249 250 245
244 245 240 159 177 119 130 154  44 137 163  72 158 184  75 162 190  79 156 188  79  94
110  48  69  81  41  79  92  46 150 175  73 159 188  78 156 183  76 157 186  76 156 185
 75 156 185  75 157 183  76 157 186  76 153 180  73  87 102  43  73  84  41  77  91  42
 57  62  40  32  40   1  80 130 127  81 188 196  76 186 195  81 188 196
 76 186 195  78 188 195 124 154 156   0   0   0  43  64  49 178  60  48 202  63  50 197
 64  49 105  59  35  18  56  31  51  48  31 124 146  64 140 163  72 129 155  48 242 243
237 255 255 255 255 255 253 127 127 125   0   0   0  37  41  26 238 238 240 255 255 255
254 254 254 163 180 125 130 155  35 138 161  71 156 184  74 161 189  78 160 188  78  68
 79  39   0   0  24  38  41  30 151 178  73 160 190  76 160 188  77 159 189  77 161 189
 78 159 189  75 161 189  78 162 190  79 157 187  75  59  68  37  13   1  25  32  33  28
 52  56  39  34  43   0  78 128 127  82 189 197  76 186 195  82 189 197
 77 187 196  83 187 196 126 155 151   0   1   0  41  64  44 172  61  44 196  63  48 195
 63  51 106  57  40  21  56  34  49  48  30 125 147  65 138 162  68 130 155  51 234 239
233 255 253 254 255 254 255 124 129 123   0   4   0  48  57  28 235 234 230 255 255 253
253 253 255 162 179 125 126 153  36 138 163  72 157 183  74 161 189  78 158 187  79  84
 98  45  52  61  32  66  76  39 150 177  72 162 190  79 157 187  75 160 186  77 160 188
 78 160 188  78 159 187  77 160 188  75 155 184  74  77  91  40  56  65  36  63  73  38
 55  58  37  33  41   0  80 130 127  80 187 195  76 186 195  81 188 196
 77 187 196  83 190 198 125 156 158   0   1   0  66  70  56  78  57  36  83  56  35  85
 57  33  62  58  33  54  56  33  49  48  30 123 146  64 138 161  70 129 155  48 239 240
234 255 255 255 255 255 253 130 129 125   0  19   0  55  60  40 236 236 236 255 255 255
254 254 254 162 179 125 127 154  37 138 161  71 156 183  76 161 189  78 160 188  77 154
181  76 152 179  74 152 179  74 158 187  77 160 188  78 161 189  78 160 188  77 160 188
 75 159 187  76 160 188  75 159 187  76 160 188  77 152 179  76 153 180  75 145 176  72
 69  79  44  23  29   1  78 130 128  81 188 196  75 185 194  81 188 196
 77 187 196  84 188 197 110 161 164   6  12  12  43  50  19  28  53  24  28  56  34  27
 55  32  38  58  33  41  56  33  30  47  29 125 149  65 140 164  70 131 156  52 239 240
234 255 254 255 255 254 255 122 123 115   0   0   0  19  33   0 235 235 235 255 255 255
254 255 255 162 179 125 129 154  37 138 161  71 156 184  73 161 189  78 160 188  77 163
189  79 162 190  77 161 189  79 161 187  77 160 188  75 160 188  78 160 188  77 160 188
 77 160 188  78 161 189  78 159 189  77 160 188  78 162 190  79 163 191  78 160 188  77
 71  81  46  22  28   2  79 131 127  81 188 196  74 187 195  81 188 196
 76 186 193  77 187 196  97 176 181  65 137 133  83  94  86  61  62  44  55  55  29  56
 55  33  65  58  32  65  57  36  62  49  31 125 144  63 136 159  68 128 153  49 237 240
233 255 254 255 255 255 255 137 136 132  51  56  34  75  79  65 237 237 237 255 255 255
255 255 255 164 178 125 129 154  37 138 161  71 157 183  74 161 189  78 161 187  77 158
187  77 159 187  76 159 187  76 159 189  77 158 188  76 160 188  77 160 188  77 160 188
 77 160 188  77 160 188  77 160 188  77 160 188  77 159 185  76 160 188  77 156 183  76
 69  79  42  22  28   0  79 131 127  81 188 196  76 186 195  81 188 196
 76 186 195  76 186 195  76 186 195  77 185 195  80 186 197 129 140 136   0   0   0  44
 63  44 168  61  43 191  64  49 188  62  47 105  74  43  51  75  39  50  60   0 232 232
230 255 255 255 254 252 253 245 245 245 242 244 243 243 243 243 252 252 252 254 254 254
255 254 255 162 179 124 127 154  39 139 162  71 155 184  74 162 190  79 160 188  78 160
188  75 160 188  77 160 188  77 160 188  77 160 188  77 160 188  77 161 187  77 160 188
 77 160 188  77 160 188  77 160 188  77 161 189  78 159 187  76 161 189  78 157 183  74
 70  80  43  18  27   0  79 131 127  81 188 196  76 186 195  81 188 196
 77 185 195  77 187 196  74 187 195  75 185 194  78 187 194 127 153 150   0   0   0  43
 64  47 179  62  45 203  64  51 201  64  50 106  52  40   0  47  31  12   7   3 235 235
237 255 255 255 255 255 255 255 254 255 255 255 255 255 255 255 254 254 254 255 255 255
254 254 255 163 180 125 129 154  35 139 162  72 156 184  74 160 190  78 159 187  77 159
189  77 160 188  77 160 188  77 159 189  77 159 189  77 160 188  77 160 188  78 160 188
 78 160 188  77 160 188  77 161 188  75 162 188  78 160 188  77 161 189  78 156 183  76
 70  80  43  20  29   0  79 131 127  81 188 196  76 186 195  81 188 196
 76 186 195  76 186 195  76 186 195  76 186 195  77 185 195 116 156 156   0   1   0  42
 63  44 174  61  45 198  63  49 196  63  50 104  62  38  30  59  37  34  39   0 228 228
228 255 255 255 249 249 247 250 249 245 250 249 247 249 247 248 251 250 246 252 250 251
252 252 250 163 178 123 128 155  40 137 162  71 156 184  74 162 188  79 160 188  77 161
187  77 160 188  77 161 187  77 160 188  77 160 188  77 160 188  77 161 188  75 160 188
 77 159 187  74 160 188  77 160 188  77 160 188  77 160 188  77 160 190  78 156 184  74
 68  80  42  19  28   0  78 130 125  81 187 198  76 186 195  81 187 198
 76 186 195  76 186 195  76 186 195  76 186 195  77 187 196 109 163 165   2   0   1  44
 63  44 175  62  46 198  63  51 197  64  51 104  57  37  18  56  30  49  48  28 139 159
 96 155 175 106 149 172 102 151 172 107 149 172 104 151 173 108 151 172 107 150 171 106
150 171 104 139 162  74 138 159  66 136 159  69 157 183  73 160 188  75 159 186  79 160
188  77 160 188  77 160 188  77 155 187  76 157 189  78 158 186  76 158 187  79 158 186
 75 159 188  78 159 186  79 159 187  77 158 187  77 159 187  76 160 188  77 155 182  75
 73  81  44  22  28   0  82 132 129  82 189 195  76 186 195  80 186 197
 77 187 196  76 186 195  76 186 195  76 186 197  76 186 195 101 166 168   0   0   0  43
 64  45 178  61  46 202  63  50 199  62  48 104  58  35  20  55  31  51  49  34 119 141
 40 132 159  44 130 154  44 128 155  42 130 154  42 130 154  40 130 154  42 131 155  41
128 154  44 135 159  65 135 160  68 136 160  64 155 184  76 162 188  78 158 188  76 160
188  77 160 188  77 160 188  77 161 191  77 162 188  78 163 191  81 163 191  78 161 190
 80 161 189  78 161 190  80 161 191  79 161 190  80 160 190  78 163 190  77 159 186  79
 70  80  43  21  27   1  78 134 133  78 186 198  76 186 195  80 188 198
 75 188 196  77 187 196  76 186 195  76 186 195  76 186 195  96 169 173   0   0   0  44
 63  44 172  60  46 194  63  47 191  62  48 103  58  37  21  55  31  48  50  29 128 149
 70 140 164  76 137 161  75 138 162  74 138 162  74 139 163  75 138 162  74 139 162  74
138 162  74 134 161  68 137 160  69 135 158  67 155 182  75 157 186  76 157 186  76 160
188  77 160 188  77 159 187  76 155 184  74 155 182  75 155 181  74 154 183  77 155 181
 74 156 181  77 155 182  75 156 182  75 156 182  75 154 183  75 156 184  73 151 180  74
 69  79  44  19  28   0  80 140 142  76 186 195  76 186 195  78 186 196
 76 186 195  77 187 196  76 186 195  75 185 194  75 185 194  88 178 186  13  39  36  67
 71  56  78  65  47  84  67  49  82  65  47  58  57  35  50  55  31  46  50  33 124 146
 61 138 162  68 135 158  67 138 158  69 138 159  68 138 158  69 136 159  68 136 159  69
138 159  68 138 159  68 136 159  68 138 159  68 138 163  69 138 164  67 137 164  69 156
185  75 160 188  78 158 187  77  88 103  48  64  74  39  72  83  41  68  79  39  66  78
 40  68  79  37  75  85  51  75  86  52  75  85  51  75  85  51  75  84  53  74  84  50
 64  68  51  52  77  56  79 157 161  76 186 195  75 185 196  76 186 195
 76 186 197  76 186 193  76 186 195  73 186 194  77 185 195  75 185 194  44 103 107  40
 57  21   1  27   0   0  28   0   1  27   0  42  52  25  52  57  35  45  49  32 126 148
 63 140 166  69 137 161  67 136 160  66 136 159  68 136 159  68 136 159  68 136 159  68
136 159  68 134 159  68 134 159  67 134 159  67 136 159  68 133 158  66 135 158  67 156
184  74 161 189  78 159 187  76  68  75  41   5   1  25  33  34  29  39  42  31  43  45
 32  41  43  30   1   1   1   0   0   0   1   0   0   0   0   0   0   0   0   0   0   0
 32  64  40  42 103 108  76 184 194  76 186 195  77 187 198  76 186 195
 74 186 197  76 186 197  76 186 195  76 186 195  76 186 195  76 186 195  77 185 195  83
158 161  86 134 134  87 116 112  92  95  86  62  66  49  47  52  28  46  50  33 121 143
 60 132 159  66 131 154  64 134 159  67 136 159  68 137 160  69 136 159  68 136 159  68
135 159  65 137 162  70 137 161  67 137 162  68 139 163  69 138 162  68 139 165  68 156
183  78 163 190  77 159 187  76  86 101  46  62  72  37  69  80  38  53  62  31  53  59
 33  57  63  35  88  92  78  92  95  84  89 105  94  86 125 120  84 138 138  81 152 154
 79 170 175  76 186 195  74 187 195  76 186 195  76 186 195  76 186 195
 77 187 196  76 186 195  76 186 195  76 186 195  76 186 195  76 186 197  76 186 195  75
185 194  76 186 195  84 188 197  95 192 201 119 144 141   9  28   0  66  70  56  63  69
 41  60  70  36  58  67  36 125 149  63 138 162  68 134 159  67 138 161  70 137 160  69
137 160  69 156 183  78 160 187  80 159 187  77 160 187  80 159 187  77 160 187  82 161
189  79 161 189  79 161 189  79 156 183  78 157 183  76 155 180  76  74  85  43  29  33
  8  71  85  72 114 199 204 103 196 203 100 194 202  76 186 195  76 186 195  76 186 195
 74 187 195  76 186 197  76 186 195  76 186 195  76 186 195  76 186 195
 76 186 195  77 187 196  76 186 197  75 188 196  76 186 195  75 185 194  76 186 195  76
186 195  74 187 195  76 186 193  76 186 197  91 170 174  12  36  38  30  41   1  40  45
 21  46  50  35  40  44  30 125 148  60 138 163  69 135 159  65 133 158  64 132 159  62
131 158  63 152 184  73 156 189  72 154 187  72 155 188  73 155 188  73 154 187  72 153
186  73 155 188  71 154 187  72 158 188  72 155 190  72 154 187  72  75  88  45  26  31
  7  72 102  92  77 187 198  76 186 195  77 185 195  76 186 195  76 184 194  76 186 195
 76 186 197  77 187 196  76 186 195  78 186 196  76 186 195  76 186 195
 76 186 195  78 188 199  76 184 196  76 186 195  76 186 195  76 186 193  75 185 194  76
186 193  78 186 196  76 186 195  77 186 193  77 185 195  77 152 155  92 117 111  65  68
 51  47  56  27  50  55  33 128 148  63 139 164  70 134 159  68 142 162  77 145 163  79
145 163  77 166 187  86 169 190  89 170 191  90 168 189  88 170 189  84 169 190  89 169
190  87 171 189  89 169 189  90 167 189  88 170 191  90 170 188  88  79  87  50  26  32
  6  70  81  67  80 189 194  78 186 196  74 187 195  76 186 193  76 186 195  77 187 198
 75 185 192  76 186 195  76 186 195  77 186 193  76 186 195  76 186 195
 76 186 195  76 186 195  76 186 195  75 188 196  76 186 195  76 186 195  76 186 195  76
186 197  76 186 195  76 186 195  74 187 195  76 186 195  76 186 195  97 194 201 123 130
123   1   1   1  51  58  42 124 148  62 138 163  69 134 160  63 204 175 131 213 181 142
209 180 138 245 208 163 252 214 167 249 213 163 249 213 165 250 213 168 247 214 163 249
213 165 250 214 162 247 214 161 250 212 163 250 214 164 249 211 166 106  94  68   0  24
  0  73  77  63  87 189 199  74 187 195  77 185 195  76 186 195  76 186 195  77 186 193
 76 186 197  76 186 193  74 187 195  76 186 195  76 186 195  76 186 195
 75 185 194  76 186 195  76 186 195  76 186 195  77 187 196  76 186 195  76 186 195  76
186 195  77 185 195  75 185 194  77 185 195  77 187 196  77 185 195  78 186 196 111 151
151   0   0   0  55  59  44 126 148  63 138 163  69 134 159  67 208 181 136 219 184 144
217 183 145 252 211 167 255 217 168 255 215 169 254 216 169 253 215 168 255 215 169 255
215 169 254 216 169 254 216 169 254 216 169 254 216 169 255 214 168 106  94  70   1  23
  0  73  75  62  88 191 198  77 185 195  76 186 195  76 186 195  76 186 193  77 187 196
 77 187 196  76 186 195  74 187 195  76 186 195  76 186 195  76 186 195
 76 186 195  77 187 196  76 186 195  76 186 195  76 186 195  77 186 193  75 185 194  76
186 195  76 186 197  78 186 196  74 187 195  76 186 195  75 187 198  78 184 195 107 153
153   1   0   0  54  58  43 125 147  62 138 163  69 134 159  65 207 178 134 217 184 143
214 182 143 248 210 163 255 216 170 255 214 168 253 215 168 252 216 168 253 215 166 253
215 168 252 216 166 253 215 166 255 214 168 255 215 169 251 213 168 106  94  68   0  24
  0  73  75  62  92 190 199  76 186 195  76 186 195  76 186 195  76 186 195  76 186 195
 76 186 195  76 186 193  76 186 195  76 186 197  76 186 195  76 186 195
 76 186 195  76 186 195  76 186 195  74 187 195  76 186 195  76 186 195  76 186 195  76
186 195  76 186 197  76 186 195  76 186 193  77 187 198  76 186 195  78 186 196 117 143
140   0  11   0  58  63  43 126 148  63 138 163  69 134 159  65 204 180 134 218 184 146
215 182 141 250 209 163 255 215 169 255 215 169 255 215 169 255 215 171 255 216 170 255
215 169 255 215 169 255 215 169 255 215 169 254 216 169 254 213 167 106  94  72   0  24
  0  73  75  62  96 194 203  77 185 197  76 186 195  76 186 195  76 186 195  76 186 195
 76 186 195  76 186 195  76 186 195  74 187 195  76 186 195  76 186 195
 76 186 195  76 186 195  76 186 195  76 186 195  76 186 195  76 186 195  76 186 195  76
186 195  76 186 195  76 186 195  76 186 195  76 186 195  80 186 197  96 192 204 118 139
140   0   0   0  45  46  41 127 147  62 138 163  69 134 159  65 206 179 134 218 184 146
215 182 141 248 210 165 254 216 171 255 215 169 255 215 169 255 215 169 255 215 171 255
215 169 255 216 170 255 215 169 255 215 169 254 216 169 254 213 167 106  94  68   0  24
  0  73  75  62  97 194 201  75 185 192  76 186 195  76 186 195  76 186 193  76 186 195
 76 186 195  76 186 195  76 186 195  76 186 195  76 186 195  76 186 195
 76 186 195  76 186 195  76 186 195  76 186 195  76 186 195  76 186 195  76 186 195  76
186 195  75 185 194  76 186 195  77 185 195  76 186 195  87 190 197  93 191 200 115 147
142  43  63   0  74  84  49 126 151  60 141 162  71 133 160  65 206 180 132 217 183 145
215 182 141 247 211 163 254 216 169 254 216 169 255 216 170 255 215 169 255 216 170 255
215 169 254 216 169 255 215 169 255 214 170 254 216 169 252 214 165 106  94  70   1  25
  3  73  75  62  95 192 201  76 186 197  76 186 195  76 186 193  76 186 195  76 186 195
 76 186 195  75 185 194  76 186 195  76 186 195  76 186 195  76 186 195
 76 186 195  76 186 195  76 186 195  76 186 195  76 186 195  76 186 195  76 186 195  76
186 195  77 185 197  66 136 133  81 112 107  78 105  96  78  95  79  78  81  72 145 171
 74 159 187  76 155 184  74 140 166  69 135 158  67 135 160  68 206 179 134 217 185 144
215 183 142 247 209 162 252 216 168 254 213 167 255 214 170 255 215 169 254 213 167 255
215 171 255 214 168 255 214 168 252 216 168 255 216 170 253 212 166 103  96  70   0  23
  0  75  78  67  90 190 196  74 187 195  77 185 195  76 186 197  74 187 195  76 186 195
 76 186 195  77 186 193  77 185 195  76 186 195  76 186 195  76 186 195
 76 186 195  76 186 195  76 186 195  76 186 195  76 186 195  76 186 195  76 186 195  76
186 195  84 179 183  18  41  46  42  49  18   7  18   2   1   3   0   0   0   2 147 172
 70 163 193  79 162 190  80 140 167  70 133 158  66 133 160  63 209 177 136 220 182 146
217 182 144 254 211 168 255 221 173 255 219 171 255 217 168 254 216 169 255 218 171 253
215 168 254 216 171 253 215 168 255 215 169 255 217 172 253 215 168 105  93  69   3  22
  2  70  86  73  87 191 202  77 186 193  76 186 195  76 186 195  77 185 195  76 186 197
 75 185 194  76 186 195  76 186 195  76 186 195  76 186 195  76 186 195
 76 186 195  76 186 195  76 186 195  76 186 195  76 186 195  76 186 195  76 186 195  76
186 195  95 174 179   1  12   6  65  69  54  77  84  50  79  91  53  76  86  51 146 173
 70 160 188  78 156 184  73 141 165  69 135 158  67 137 160  69 200 178 129 214 185 141
208 184 136 238 204 158 243 204 161 242 204 159 248 210 165 250 212 167 251 211 162 251
213 166 250 214 164 250 212 165 246 213 162 248 212 160 244 211 160 106  94  70   0  25
  0  73  81  70  90 190 196  78 186 198  74 187 195  77 185 195  76 186 195  76 186 195
 76 186 195  76 186 197  76 186 195  76 186 193  76 186 195  76 186 195
 76 186 195  76 186 195  76 186 195  76 186 195  76 186 195  76 186 195  76 186 195  76
186 195  98 169 173   0   0   2  51  54  43 141 167  68 159 187  77 155 182  75 140 165
 71 134 159  67 136 159  68 136 160  66 136 159  68 136 160  66 157 182  78 164 187  83
161 188  83  96 102  54  65  59  45  74  73  45 205 173 134 220 187 144 215 186 144 216
183 142 217 184 143 217 184 143 171 188  92 162 190  80 164 187  83  76  88  42  48  51
 34  56  65  36  73 118 113  71 142 142  75 184 191  76 184 194  78 184 195  76 186 197
 75 185 194  76 186 195  76 186 195  76 186 195  76 186 195  76 186 195
 76 186 195  76 186 195  76 186 195  76 186 195  76 186 195  76 186 195  76 186 195  76
186 195  99 170 174   0   1   0  50  51  43 148 175  72 166 197  78 163 191  78 143 167
 69 136 159  68 138 162  66 136 159  68 136 159  68 139 160  69 155 184  74 160 190  76
159 189  77  74  91  37   0  19  17  35  49  24 203 170 135 219 185 147 215 179 143 217
182 144 217 181 145 216 181 143 165 185  86 155 188  71 156 186  74  68  76  37  24  17
 25  40  42  29  37  44  10   2  24   1  67 113 110  80 188 198  76 186 195  75 184 197
 76 186 195  76 186 195  76 186 195  76 186 195  76 186 195  76 186 195
 76 186 195  76 186 195  76 186 195  76 186 195  76 186 195  76 186 195  76 186 195  76
186 195  93 172 176   1   5   6  51  54  43 137 162  68 153 180  73 149 178  72 134 157
 66 128 150  65 129 152  62 134 159  67 136 159  68 136 159  68 154 181  76 158 186  76
158 185  78  84  96  46  45  45  35  59  63  39 197 173 129 214 188 139 211 183 136 210
184 136 212 184 137 210 184 136 167 187  88 159 189  77 159 188  80  90 105  48  70  83
 40  75  87  41  63  68  48  46  51  27  77  87  76  86 190 199  76 186 195  77 185 195
 76 186 197  76 186 195  76 186 195  77 185 197  76 186 195  76 186 195
 76 186 195  76 186 195  76 186 195  76 186 195  76 186 195  76 186 195  76 186 195  76
186 195  85 180 186  19  60  44  69  73  59  65  73  50  69  74  52  67  75  52  59  65
 39  55  61  33  52  57  33 125 147  62 137 160  70 133 158  66 134 159  67 136 159  68
136 159  68  73  84  41  42  44  31  51  56  32 150 175  74 162 190  80 159 186  79 162
185  79 160 186  79 160 186  79 159 187  77 159 187  77 159 187  76 157 186  76 160 188
 77 155 182  75  73  83  46  26  31   1  74  80  68  84 188 197  76 186 195  76 186 195
 76 186 195  76 186 195  76 186 195  77 185 195  76 186 195  76 186 195
 76 186 195  76 186 195  76 186 195  76 186 195  76 186 195  76 186 195  76 186 195  76
186 195  76 186 195  46 111 117  17  55  38   0   0   0   0   0   0   1   1   1  40  46
 18  50  53  34  42  46  31 128 151  63 140 165  71 140 161  68 139 160  67 138 162  68
139 163  69  74  85  42  41  43  32  52  56  32 151 178  71 164 194  80 161 191  77 161
191  77 161 191  77 161 191  77 161 188  75 161 189  78 160 188  77 162 188  78 160 190
 76 160 188  75  74  85  43  26  29   0  74  86  74  79 188 195  76 186 197  76 186 195
 76 186 193  76 186 195  76 186 195  77 185 195  76 186 195  76 186 195
 76 186 195  76 186 195  76 186 195  76 186 195  76 186 195  76 186 195  76 186 195  76
186 195  76 186 195  76 186 195  82 170 179  93 154 156 100 136 134 111 118 111  69  73
 58  44  55  25  50  55  35 118 140  58 130 155  63 130 150  63 127 151  63 130 150  65
129 152  62  70  81  38  41  45  30  49  54  30 140 166  69 153 180  73 149 176  73 151
176  74 150 177  74 150 177  74 156 185  77 156 185  75 156 185  77 158 188  76 161 189
 78 153 185  74  73  84  42  22  29   0  74  94  82  78 186 196  75 188 196  76 186 195
 74 187 195  76 186 195  76 186 195  76 186 195  76 186 195  76 186 195
 76 186 195  76 186 195  76 186 195  76 186 195  76 186 195  76 186 195  76 186 195  76
186 195  76 186 197  76 186 195  77 187 196  77 185 195  83 189 200  95 193 202 102 160
163  18  32   0  70  72  59  65  70  48  66  71  51  67  71  54  66  69  50  66  71  51
 68  71  50  63  70  52  63  67  50  65  68  49  67  71  54  69  72  53  67  75  54  55
 65  38  54  60  34  56  65  34 128 151  63 139 160  67 135 160  66 157 183  76 160 188
 75 157 185  75  81  91  57  49  51  40  82 116 115  76 186 195  73 185 196  77 185 195
 77 185 195  77 185 195  76 186 195  76 186 195  76 186 195  76 186 195
 76 186 195  76 186 195  76 186 195  76 186 195  76 186 195  76 186 195  76 186 195  76
186 195  76 186 195  76 186 195  76 186 195  76 186 195  76 184 194  78 187 194  83 176
184  30  71  75   9  37  25   0   0   0   0   0   0   1   0   0   1   1   1   0   0   0
  0   0   2   0   0   0   0   0   0   0   0   2   1   0   0   0   1   0   1   0   0  41
 47  21  46  50  35  49  54  32 131 156  65 140 163  72 139 163  69 158 188  76 164 194
 80 160 189  73  46  65   1   1   0   0  58 110  95  75 185 194  77 187 194  76 186 197
 74 187 195  73 186 194  77 187 196  77 187 196  76 186 195  76 186 195
 76 186 195  76 186 195  76 186 195  76 186 195  76 186 195  76 186 195  76 186 195  76
186 195  75 185 196  76 186 197  77 185 195  75 185 194  76 186 197  75 185 196  77 187
194  76 186 195  87 170 176  89 160 162  92 157 159  90 155 157  92 156 157  91 157 157
 93 157 159  92 156 157  94 154 156  97 153 152 100 146 146 100 144 143  97 147 146  65
 72  56  46  52  24  55  60  36 120 142  59 129 152  62 126 150  62 148 175  70 149 178
 70 149 174  73 115 131 120  97 145 147  88 173 178  77 185 195  74 183 196  76 186 195
 76 186 195  76 186 193  75 185 194  76 186 195  76 186 195  76 186 195
 76 186 195  76 186 195  76 186 195  76 186 195  76 186 195  76 186 195  76 186 195  76
186 195  76 186 193  78 186 196  74 187 195  74 187 195  76 186 193  76 186 193  76 186
195  76 186 195  76 186 195  76 186 193  76 186 195  76 186 195  74 187 195  76 186 195
 76 186 195  74 187 195  76 186 195  76 186 195  77 187 196  86 190 199  80 188 198  92
160 163  43  70  37  68  72  57  63  70  54  65  69  54  65  69  52  67  71  54  61  66
 44  79  87  72  98 195 202  79 187 197  76 186 195  76 186 197  76 186 195  76 186 195
 77 187 196  76 186 195  76 186 195  76 186 195  76 186 195  76 186 195
 76 186 195  76 186 195  76 186 195  76 186 195  76 186 195  76 186 195  76 186 195  76
186 195  76 186 197  77 185 195  76 186 195  76 186 195  76 186 195  76 186 195  76 186
195  76 186 195  77 187 196  76 186 195  76 186 195  75 185 194  76 186 195  77 187 198
 76 186 195  76 186 195  76 186 195  77 187 196  77 187 198  78 184 195  77 185 195  79
182 189  33  82  86   0   0   0   0   0   0   0   0   2   0   0   0   0   0   0   0   0
  0  27  38   6  79 188 195  77 185 195  76 186 193  76 186 195  76 186 197  76 186 195
 76 186 195  77 185 195  76 186 197  76 186 195  76 186 195  76 186 195
 77 187 196  77 187 196  76 186 195  76 186 195  77 187 196  76 186 195  76 186 195  76
186 195  76 186 195  76 186 195  76 186 195  76 186 195  76 186 195  76 186 195  76 186
195  76 186 195  76 186 195  76 186 195  76 186 195  76 186 195  76 186 195  76 186 195
 76 186 195  76 186 195  74 187 195  77 185 197  76 186 195  76 186 195  78 187 194  84
184 194  97 141 142 114 130 127 113 129 128 113 130 124 112 131 127 113 132 128 108 129
124 110 146 146  79 187 197  76 186 195  76 186 195  76 186 195  76 186 195  76 186 195
 76 186 195  76 186 195  76 186 195  77 187 196  78 186 196  77 185 195
 77 187 196  78 186 196  74 187 195  76 186 195  76 186 195  76 186 195  76 186 195  76
186 195  76 186 195  76 186 195  76 186 195  76 186 195  76 186 195  76 186 195  76 186
195  76 186 195  76 186 195  76 186 195  76 186 195  76 186 195  76 186 195  76 186 195
 76 186 195  76 186 195  75 185 194  76 186 197  75 188 196  82 186 197  78 186 196  78
186 196  80 188 198  92 192 198  87 191 198  86 190 199  83 190 198  81 188 196  80 189
196  79 187 199  80 186 197  77 185 195  76 186 195  76 186 195  76 186 195  76 186 195
 76 186 195  76 186 195  76 186 195  77 187 196  77 187 196  76 186 195
