P3
# 8-bit ppm - RGB
50 50
255
 81 188 196  77 185 195  76 186 195  76 186 195  76 186 195  75 185 194  76 186 195  76
186 195  76 186 197  76 186 195  77 187 196  76 186 195  76 186 197  79 187 197  81 187
198  81 188 196  81 188 196  81 188 196  81 188 196  81 188 196  81 188 196  81 188 196
 81 188 196  81 188 196  81 188 196  81 188 196  81 188 196  83 187 196  84 188 197  81
188 196  81 188 196  81 187 198  81 188 196  81 188 196  83 187 196  81 188 196  81 188
196  81 188 196  81 188 196  81 188 196  81 188 196  81 188 196  80 186 197  76 186 195
 76 186 195  76 186 193  76 186 195  76 186 195  77 185 195  78 186 196
 77 187 196  76 186 195  76 186 195  76 186 197  74 187 195  75 185 194  77 187 196  76
186 195  76 186 195  77 185 197  75 185 194  76 186 195  76 186 195  76 186 195  76 186
195  76 186 195  76 186 195  76 186 195  76 186 195  76 186 195  76 186 195  76 186 195
 76 186 195  76 186 195  76 186 195  76 186 195  76 186 195  77 187 196  75 185 194  76
186 195  76 186 195  76 186 195  76 186 195  76 186 195  74 187 195  76 186 195  76 186
195  76 186 195  76 186 195  76 186 195  75 185 196  76 186 195  76 186 197  76 186 195
 76 186 193  76 186 195  76 186 195  77 186 193  76 186 195  78 186 196
 77 187 196  75 185 196  76 186 195  77 185 195  76 186 195  76 186 195  76 186 195  76
186 195  74 187 195  76 186 195  74 186 197  76 186 195  74 187 195  76 186 193  78 186
198  81 187 198  81 188 196  81 188 196  81 188 196  81 188 196  81 188 196  81 188 196
 81 188 196  81 188 196  81 188 194  81 188 196  81 188 196  80 187 193  82 189 197  81
188 196  82 189 195  80 187 195  81 188 196  81 188 196  83 187 196  81 188 196  83 187
196  81 188 196  83 187 196  81 188 196  83 187 198  81 187 200  76 186 193  76 186 193
 77 185 195  74 187 195  76 186 197  77 185 195  77 187 196  85 189 198
 76 186 195  76 186 195  75 185 194  76 186 195  77 186 193  76 186 195  76 186 195  76
186 195  77 185 195  77 187 196  76 186 195  88 186 195 121 191 198 134 192 195 141 192
193 141 192 195 143 192 196 143 192 196 143 192 196 143 192 196 143 192 196 143 192 196
143 192 196 143 192 196 144 191 198 144 192 196 143 191 195 143 192 198 143 192 196 143
192 196 142 191 195 142 192 193 144 192 196 143 192 196 143 192 196 143 192 196 140 194
196 143 192 196 142 193 196 142 193 196 142 193 198 140 191 194 138 193 197 130 191 194
108 188 195  77 186 193  74 187 195  77 187 196  76 186 195  78 188 195
 78 186 196  76 186 195  77 185 195  76 186 193  76 186 195  76 186 195  76 186 195  74
186 197  74 187 195  76 186 195  83 166 172  26  67  69   7  17  18   1   0   0   0   0
  2   1   1   1   0   0   0   0   0   0   0   0   0   0   0   0   0   0   0   0   0   0
  0   0   0   0   0   0   0   0   0   0   1   0   1   1   1   0   0   0   0   0   0   0
  1   0   0   1   0   0   1   0   0   1   0   0   0   0   0   0   0   0   0   0   3   0
  0   1   0   0   1   0   0   1   0   0   2   0   1   1   0   0   0   0   0   0   0   0
 13  31  33  44 107 112  78 187 194  81 188 194  84 188 197  77 185 197
 76 184 196  75 185 194  76 186 195  74 187 195  76 186 195  76 186 195  77 187 196  74
187 195  77 185 195 122 205 211 119 148 146   1  13   0  77  80  69  55  56  50  53  53
 51  54  54  52  54  54  52  54  54  52  54  54  52  54  54  52  54  54  52  54  54  52
 54  54  52  54  54  52  55  53  54  49  47  50  46  44  49  48  46  51  47  45  50  47
 45  50  47  45  50  47  45  50  47  45  50  47  45  50  47  45  50  49  44  50  47  45
 50  49  44  50  49  44  50  49  44  50  49  44  50  48  43  49  47  45  50  48  45  52
 51  49  54   4   5   7 118 198 205  80 188 198  81 187 198  76 186 195
 76 186 195  76 186 195  76 186 195  76 186 193  76 186 193  77 187 196  76 186 195  76
186 195 100 181 184 151 177 176  88  91  82  22  33   1  53  58  38 103 120  50 113 134
 55 112 130  54 110 131  54 110 131  54 110 131  54 110 131  54 110 131  54 110 131  54
110 131  54 110 131  54 109 130  53 125 148  58 131 154  63 127 152  61 129 154  62 130
153  62 130 153  62 129 154  62 129 154  62 129 154  62 130 153  62 130 153  62 132 153
 62 130 153  62 130 153  62 132 153  62 130 153  62 132 153  62 130 153  62 129 154  60
129 154  62 128 153  52 155 167 153 131 179 183 116 177 179  78 186 196
 76 186 197  76 186 195  76 186 195  76 186 197  76 186 195  76 186 197  76 186 195  84
165 169  17  41  43   0   1   0  37  44   0  53  58  38  47  52  32 131 151  64 143 169
 70 139 163  69 140 166  69 140 166  69 140 166  69 140 166  69 140 166  69 140 166  69
140 166  69 140 166  69 140 164  70 160 188  77 166 194  81 163 193  79 164 194  80 164
194  80 164 194  80 165 195  81 164 194  80 164 194  80 164 194  80 164 194  80 164 194
 80 164 194  80 164 194  80 164 194  80 164 194  80 164 194  80 164 194  80 164 194  80
164 192  79 166 199  82  70  94   0   0   0   0   8  22  25  80 187 195
 76 186 195  77 185 195  76 186 195  76 186 195  76 186 195  77 185 195 120 203 211 113
145 142   1  25   1  66  80  67  50  60  36  49  54  32  49  54  34 123 145  62 138 162
 68 134 158  64 134 159  65 135 158  67 133 158  66 135 158  67 135 158  67 135 158  67
135 160  68 135 158  67 133 158  64 155 182  75 159 189  77 159 187  76 158 186  76 158
186  76 157 186  76 157 186  76 157 186  76 157 186  76 158 187  77 158 188  76 158 187
 77 158 187  77 158 187  77 158 187  77 158 187  77 158 187  79 159 187  77 158 186  76
157 186  76 160 190  78 100 114  61  57  55  58  42  65  21  80 187 195
 76 186 195  76 186 195  76 186 195  76 186 195  76 186 193  85 173 182 125 155 155 169
 81  71 177  51  29 175  64  47  92  57  37  23  55  32  54  51  32 125 148  60 139 165
 68 135 158  67 137 162  71 138 161  71 136 161  70 134 159  67 138 159  66 136 159  68
137 162  71 140 160  71 138 161  71 140 166  69 142 168  69 141 167  68 156 184  74 160
188  77 160 188  77 160 188  77 160 186  77 160 188  77 146 172  71 140 166  69 142 168
 69 141 167  70 142 168  69 142 168  69 142 168  71 141 167  68 140 166  67 155 182  75
159 189  75 162 190  79  94 110  48  32  27  33   3  26   8  84 188 199
 75 185 194  74 187 195  76 186 195  76 186 195  76 186 197  32  73  77   0   3   0 184
 53  35 205  66  53 201  62  49 101  59  37   2  54  32  58  53  32 126 148  65 141 162
 71 134 159  67 133 157  59 133 158  56 134 159  57 136 159  68 137 160  69 137 160  69
134 159  58 131 159  56 132 157  56 136 157  64 133 157  69 134 157  66 155 181  74 161
189  78 158 187  77 161 189  78 162 188  78 162 190  79 141 165  71 132 155  65 135 158
 67 134 157  66 134 158  64 134 157  66 132 157  65 133 158  66 133 156  66 155 182  77
162 192  80 163 193  81  96 112  50  37  32  38   4  28   6  91 190 196
 77 185 195  76 186 195  76 186 195  76 186 195  89 172 178  10  44  27  75  79  65 179
 63  48 198  64  47 192  63  49  99  58  38  10  55  32  58  53  32 123 147  61 139 163
 67 135 158  68 141 165  81 144 165  86 142 163  84 137 160  70 133 156  65 133 158  66
140 163  83 143 164  85 142 164  82 137 162  71 137 161  67 136 159  68 155 182  75 161
189  78 158 186  76 157 186  76 154 186  75 158 186  76 141 167  70 136 159  68 138 162
 68 136 161  67 137 162  68 137 162  70 137 162  68 137 162  68 136 161  69 152 179  72
158 186  76 159 189  75  93 111  49  35  33  36   2  27   6  92 190 201
 75 185 194  76 186 195  76 186 195  78 186 196  93 164 166   1   0   0  61  67  53 178
 61  46 197  64  51 195  63  50  99  58  38  10  56  30  56  55  33 127 149  67 139 163
 69 132 156  58 230 233 222 250 250 248 246 247 242 131 137 123   8  40   0  67  77  40
222 225 218 252 252 252 244 244 244 170 184 135 124 150  15 138 162  76 153 180  73 163
189  79 160 190  78 103 120  50  67  75  36  74  85  42 143 169  72 161 189  78 153 185
 74 158 186  76 156 185  75 157 185  75 157 185  75 158 186  76 159 189  77 106 121  56
 64  74  39  80  92  44  56  65  36  53  57  40   3   4   6  91 191 197
 76 186 195  76 186 195  76 186 195  75 185 194  97 162 166   0   0   0  62  69  53 183
 62  46 204  65  50 198  63  49  99  59  36   5  54  33  57  55  33 125 147  62 136 163
 66 132 156  58 241 243 238 255 255 253 255 255 255 131 132 127   1   0   2  42  49  33
234 233 238 255 255 255 255 255 255 171 187 140 123 152   0 140 162  79 155 182  75 161
187  77 161 189  78  82  96  43   0   0  20  13   1  25 143 169  70 164 194  82 159 188
 78 161 189  78 161 189  78 161 189  79 161 189  78 161 187  77 162 191  81  85 100  45
  2   1  19  32  31  29  46  48  34  57  62  42   4   6   5  92 190 201
 76 186 195  76 186 195  77 185 197  76 186 195  93 164 166   0   0   0  60  67  51 169
 60  43 188  62  48 183  62  46  94  58  36  14  56  32  55  54  32 126 148  66 138 164
 67 132 156  58 238 239 233 255 255 255 254 254 254 132 133 127   0   2   1  52  57  33
229 231 230 255 255 255 253 253 255 169 185 138 123 152   0 139 163  79 155 181  74 161
189  78 161 189  78 107 122  53  72  83  40  79  93  44 145 171  70 162 192  78 158 186
 76 160 188  78 159 187  77 158 187  77 159 188  78 158 187  77 163 191  80 107 127  54
 71  82  40  84  98  45  61  68  35  53  57  40   1   3   2  94 191 198
 76 186 195  76 186 195  76 186 195  76 186 195  88 173 178  17  46  24  75  79  65  55
 58  37  53  55  32  54  56  33  58  58  34  59  54  35  57  55  33 125 147  65 137 163
 66 131 155  57 237 240 233 255 255 255 255 255 255 136 137 132   3  10   3  66  70  55
232 232 232 255 255 255 254 254 254 170 186 139 125 151   0 139 163  79 154 181  74 161
189  78 157 186  76 159 187  77 157 186  76 158 187  79 160 188  77 161 187  77 159 187
 76 160 188  77 160 188  77 160 188  77 160 188  77 159 187  76 160 188  78 158 187  77
159 187  76 162 190  79  96 110  49  34  32  35   0  24   0 105 194 200
 76 186 195  76 186 195  76 186 195  76 186 195  74 187 195  31  72  76   0   0   0  33
 45   7  49  58  37  45  55  31  14  56  32   0  53  31   0  54  31 128 152  66 142 166
 68 135 162  59 239 240 235 255 255 253 254 255 255 117 118 112   0   0   2   0   0   0
229 229 229 255 255 255 253 254 255 170 186 139 125 151   0 139 163  79 154 182  72 161
189  78 158 187  77 160 188  77 161 189  79 160 188  77 160 188  75 160 188  77 160 188
 77 160 188  77 160 188  77 160 188  75 160 188  77 160 188  77 160 188  77 160 188  77
161 187  77 162 192  80  95 111  49  36  31  37   0  24   2 111 195 203
 76 186 195  76 186 195  76 186 195  76 186 193  77 186 193  90 175 180 134 160 159  80
 82  69  39  44   3  56  61  39 109  58  37 118  57  39 115  56  38 120 132  60 119 143
 59 117 137  50 236 238 233 254 255 255 254 255 255 178 178 176 140 140 138 150 151 146
238 238 238 255 255 255 254 255 255 170 186 139 125 151   0 140 164  80 155 182  75 161
189  78 158 187  77 160 188  77 160 188  78 160 188  78 160 188  77 160 188  77 159 187
 76 160 188  77 160 188  77 160 188  77 160 188  77 160 188  78 160 188  77 158 186  75
158 187  77 161 191  79  95 111  49  34  32  35   0  24   2 117 196 203
 77 185 195  76 186 195  74 187 195  76 186 197  77 187 196  77 187 196 150 213 220 127
130 123   0   0   0  62  68  54 184  63  47 206  63  47 199  64  50 100  51  37   0  36
 22  37  25   0 232 230 231 255 255 255 250 250 250 255 255 255 254 254 254 255 255 253
253 255 254 254 252 253 255 255 255 169 185 138 123 154   1 139 162  80 154 181  74 162
188  78 157 186  76 160 188  77 160 188  77 160 188  78 161 189  78 160 188  75 161 189
 79 160 188  75 160 188  77 160 188  77 160 188  77 160 188  77 161 189  78 160 188  78
160 188  77 161 189  76  95 111  49  33  31  32   0  24   0 123 198 204
 76 186 195  75 185 194  76 186 195  74 187 195  76 186 195  77 185 195  86 190 199 110
142 139   0   0   0  62  69  53 178  61  44 202  63  50 195  63  50 103  62  42   7  56
 27  50  47   4 238 239 241 255 255 255 255 255 255 254 254 254 254 255 255 255 255 255
255 255 253 255 255 255 254 255 255 173 189 144 123 149   0 140 162  79 154 182  72 161
189  78 156 189  76 159 187  76 161 189  78 161 189  79 159 187  76 160 188  78 159 187
 74 160 188  77 160 188  77 160 188  77 159 189  77 160 188  77 159 187  76 160 188  75
158 185  78 164 191  76  95 111  49  35  33  36   0  25   0 122 197 202
 76 186 195  76 186 195  76 186 195  77 185 195  76 186 195  77 187 196  77 185 195 102
152 153   0   0   0  61  70  53 180  61  45 200  63  47 194  65  49 102  59  40   1  54
 26  53  49  24 194 201 183 220 224 207 211 218 200 215 222 204 213 220 202 215 220 200
213 220 202 214 221 203 213 219 205 159 174 115 127 155  44 138 160  75 154 181  76 161
189  76 159 187  77 160 188  77 160 188  77 160 188  75 161 189  78 159 187  74 161 189
 79 161 189  78 161 189  78 161 189  78 160 188  77 160 188  77 161 189  78 161 187  78
160 188  77 162 188  78  95 111  48  36  31  35   0  24   0 125 198 204
 76 186 195  76 186 195  76 186 195  74 187 195  76 184 194  76 186 195  76 186 195  99
159 161   0   0   2  63  70  54 177  60  43 199  64  50 192  63  50 100  60  37   8  56
 32  58  53  34 109 137   0 122 152   2 118 148   0 120 148   0 119 149   2 119 149   1
120 148   0 119 147   0 117 150   1 133 158  57 135 160  69 135 158  67 153 181  71 162
190  79 158 187  77 159 187  74 161 189  78 160 188  77 158 186  75 158 185  78 158 186
 76 158 186  76 158 186  76 158 186  76 158 186  76 158 186  76 158 186  76 158 186  75
156 185  75 161 191  79  94 110  48  34  32  35   0  25   0 125 198 204
 76 186 195  75 185 192  76 186 195  76 186 195  77 187 196  76 186 195  76 186 195  94
164 164   0   0   0  62  69  53 185  62  47 207  64  50 201  64  48 104  59  36   0  56
 31  59  54  33 127 150  72 143 166  78 139 161  78 139 163  77 140 164  76 139 163  77
139 163  77 139 163  77 139 163  77 136 159  69 137 161  67 134 159  67 156 184  74 162
190  77 161 189  78 160 188  77 160 188  77 160 188  77 164 192  79 164 193  77 164 194
 80 164 194  80 164 194  82 164 194  80 164 194  80 164 194  80 164 194  80 163 193  79
164 192  79 167 197  81  98 114  51  32  30  35   1  27   0 133 200 206
 76 186 195  76 186 195  76 186 197  76 186 193  76 186 195  75 185 194  74 187 195  90
168 172   3   4   6  62  68  54 124  57  38 138  59  42 135  60  41  76  58  34  37  55
 33  51  53  32 124 146  61 138 164  67 134 157  66 135 160  66 135 159  65 135 160  66
135 159  65 135 159  65 135 159  63 136 159  68 135 159  65 135 158  67 145 169  71 146
172  73 145 171  70 156 183  76 161 189  78 161 189  78 124 148  60 105 127  53 112 133
 56 110 131  56 110 131  56 110 131  56 110 131  56 109 130  55 110 131  56 110 131  54
110 131  56 113 134  57  73  84  42  47  50  39   0  10   1 135 200 206
 76 186 195  76 186 195  76 186 195  74 187 195  76 186 195  75 187 198  75 185 192  83
178 184  17  43  44  69  73  59  14  59  38   0  60  39   0  61  40  44  58  35  51  55
 31  47  52  32 124 146  63 139 163  69 133 158  66 136 159  68 138 159  68 138 159  68
136 159  68 137 160  69 136 159  68 137 160  69 135 160  68 136 159  68 136 159  68 133
158  66 132 157  66 153 182  76 161 191  79 162 190  79  83  97  44   0   0  20  35  36
 30  19   8  25  19   7  27  19   8  25  32  21  35  32  26  36  32  26  38  33  25  36
 33  27  37  32  24  37  50  56  42  63  68  48   2  16   0 133 200 206
 76 186 195  76 186 195  77 185 195  75 185 192  76 186 195  76 186 195  76 186 195  75
185 192  46 111 117  32  65  38   3   3   3   5   3   4   0   0   0  46  51  21  52  57
 37  47  52  30 126 148  63 140 166  69 137 161  67 136 161  67 136 159  68 136 159  68
135 158  67 137 160  70 135 158  67 133 158  66 136 157  66 133 158  66 133 160  67 133
158  67 135 158  67 155 182  75 161 189  78 162 190  79  89 102  46  15   1  28  51  56
 34  53  58  34  55  64  35  58  64  38  19  36   0   1  15   2   0  24   0   2  19   1
  0  21   0   0  22   0   0   2   0   1   8   0   0   0   0 132 199 205
 76 186 195  76 186 195  76 186 195  76 186 195  76 186 195  76 186 195  76 186 195  76
186 195  74 187 195  93 191 200  82 188 199  84 188 197 123 198 203 110 125 120   0  19
  0  66  70  56  78  92  43  85  98  44  81  93  43 126 151  60 139 163  69 134 159  67
137 161  67 137 160  69 136 161  69 151 178  73 156 184  74 155 182  77 155 181  74 156
181  77 154 181  76 160 186  76 159 187  77 161 189  78 146 174  72 141 165  69 142 170
 70  86  99  45  37  38  33  28  38   1 182 198 198 108 195 204 113 196 202 129 202 206
129 199 206 119 197 207 119 198 205 119 198 205 126 199 205  99 193 203
 76 186 195  76 186 195  76 186 195  77 185 195  78 186 198  76 186 195  76 186 195  75
187 198  76 186 195  76 186 195  78 187 194  76 186 195  78 188 197  90 167 173   3   7
  8  58  62  45  36  39  22  37  38  33  32  31  26 125 147  64 140 166  69 135 160  69
136 160  66 135 160  66 135 159  65 153 182  74 161 191  77 158 186  75 159 189  77 160
190  76 157 190  75 157 187  73 157 187  75 156 186  74 162 190  77 160 193  76 165 194
 78  93 111  49  33  28  34   8  39   8  90 190 198  76 186 195  78 186 196  77 186 199
 73 185 196  76 186 195  76 186 193  75 185 194  77 187 196  73 186 194
 77 187 198  76 186 195  74 187 195  77 187 198  77 185 195  76 186 195  76 186 195  75
185 192  74 186 197  76 186 195  73 185 196  76 186 195  75 185 194  76 186 195  46 117
111  79  91  81  56  61  39  52  58  32  50  58  35 124 146  61 138 164  65 136 157  64
138 162  68 139 159  72 137 162  71 158 183  79 163 191  81 161 188  83 163 186  78 164
187  79 162 188  79 162 188  81 162 189  82 162 191  83 160 187  80 161 187  80 162 191
 81  92 107  48  33  33  35  18  35   3 118 197 204  76 184 194  76 186 195  76 184 194
 77 185 195  76 186 195  76 186 195  78 187 194  76 186 195  79 187 197
 76 186 195  76 186 195  76 186 195  76 186 195  76 186 195  76 186 195  76 186 195  76
186 195  77 185 195  76 186 195  77 187 196  77 185 195  77 187 196  75 185 194  76 186
195 138 207 212 123 126 119   0   0   0  63  63  51 125 147  64 139 164  70 133 158  64
197 177 126 212 180 139 206 179 134 238 205 154 248 215 162 245 209 161 246 213 160 244
211 158 245 212 157 244 211 160 245 212 159 244 211 158 245 212 159 244 213 159 248 215
162 134 121  87   0   9   1  34  38   3 101 191 200  76 186 195  76 186 195  76 186 195
 73 186 194  77 187 196  76 186 195  76 186 195  77 187 196  74 187 195
 76 186 195  76 186 195  76 186 195  76 186 195  77 185 195  76 186 195  76 186 195  76
186 195  76 186 195  77 187 196  76 186 195  76 186 195  76 184 194  77 187 196  76 186
193  78 186 196 113 147 146   0   0   0  63  67  53 123 145  60 139 165  68 133 158  64
206 179 134 223 185 148 217 183 145 251 210 166 255 218 173 255 215 171 253 215 168 254
216 169 254 216 171 254 216 169 254 216 169 254 216 169 255 217 170 254 216 171 255 219
174 140 121  91   0   4   0  38  38   2  90 190 200  75 185 194  77 185 195  76 186 195
 78 186 196  76 186 195  74 187 195  76 186 197  76 186 195  77 187 196
 76 186 195  76 186 195  76 186 195  76 186 195  77 187 198  76 186 195  76 186 195  76
186 195  76 186 195  76 186 195  76 186 195  76 186 195  76 186 195  76 186 195  76 186
195  84 188 197 114 146 145   0   0   0  62  65  54 124 146  61 138 164  67 133 158  64
201 179 130 219 184 146 214 182 141 247 209 162 254 216 167 252 214 167 253 215 166 253
215 166 253 216 164 254 216 167 253 215 166 254 216 167 255 214 168 255 214 168 255 218
171 137 122  91   1   6   0  39  41   4  86 189 196  77 185 195  76 186 195  76 186 195
 76 186 195  75 185 192  76 186 195  76 186 195  77 187 196  76 186 195
 76 186 195  76 186 195  76 186 195  76 186 195  76 186 195  76 186 195  76 186 195  76
186 195  76 186 195  76 186 195  76 186 195  76 186 195  76 186 195  74 187 195  76 186
195 102 195 203 118 140 137   0   0   0  67  71  54 125 147  62 139 163  69 133 158  64
203 179 131 219 184 144 214 182 141 246 207 164 255 215 169 253 212 166 255 215 169 255
215 169 255 215 169 255 215 169 255 215 169 254 216 171 255 216 170 255 215 169 255 218
173 140 120  93   0   5   0  39  41   4  85 189 200  76 186 195  76 186 195  76 186 195
 77 187 196  75 185 194  76 186 195  76 186 195  76 186 195  76 186 195
 76 186 195  76 186 195  76 186 195  76 186 195  76 186 195  76 186 195  76 186 195  76
186 195  76 186 195  76 186 195  77 187 196  75 185 194  76 186 195  77 185 195  87 190
197 123 203 210 127 127 127   2   0   3  48  46  51 123 145  62 139 163  67 133 158  64
203 180 130 221 183 146 214 182 143 254 213 167 255 223 174 253 221 172 254 216 169 252
215 170 255 215 169 255 216 167 255 215 171 255 217 170 255 215 169 255 216 167 255 219
171 140 121  91   0   5   1  38  38   2  91 189 198  76 186 195  76 186 195  77 185 195
 77 187 196  76 186 195  76 186 195  76 186 195  76 186 195  76 186 195
 76 186 195  76 186 195  76 186 195  76 186 195  76 186 195  76 186 195  76 186 195  76
186 195  76 186 195  77 187 196  76 186 195  76 186 197  90 189 195  98 192 200  98 192
200 119 198 205 131 144 116  80  98   0  99 113  60 128 152  64 138 161  70 134 159  65
204 180 132 219 184 146 215 182 141 223 188 148 225 190 148 223 190 147 248 210 163 255
217 170 255 215 169 255 214 168 255 216 170 255 215 169 255 216 167 255 215 171 255 219
171 141 122  92   0   5   0  40  38   0  97 191 199  76 186 195  77 185 195  76 186 195
 77 187 196  76 186 195  76 186 195  76 186 195  76 186 195  76 186 195
 76 186 195  76 186 195  76 186 195  76 186 195  76 186 195  76 186 195  76 186 195  76
186 195  74 187 195  76 186 195  75 188 196  45 110 114  33  65  42   2  18   5   5  21
 10   3   5   4 147 172  68 166 196  84 161 189  78 141 167  68 132 157  66 134 159  65
200 178 131 217 183 145 217 184 143 108  97  69   1   0   0   0  31   0 226 191 151 255
218 173 249 211 166 255 215 169 255 214 168 255 214 168 254 213 169 251 215 165 255 216
170 138 123  94   1   6   2  37  37   0  93 190 197  76 186 195  77 185 195  76 186 195
 76 186 195  76 186 195  76 186 195  76 186 195  76 186 195  76 186 195
 76 186 195  76 186 195  76 186 195  76 186 195  76 186 195  76 186 195  76 186 195  76
186 195  76 186 195  76 186 195  83 177 185  18  43  47  70  74  57  38  38  38  31  20
 37  28  14  39 145 173  70 165 195  79 161 187  77 141 166  72 133 158  66 134 160  63
205 178 135 225 185 150 220 186 148 112  93  77   0   0   0  12   0  24 239 198 154 255
227 177 254 221 170 253 219 171 255 218 171 255 216 170 255 217 172 255 216 173 253 220
175 143 122  93   0   3   0  41  43   6  86 189 196  76 186 195  76 186 195  76 186 195
 74 187 195  77 185 195  76 186 195  76 186 195  76 186 195  76 186 195
 76 186 195  76 186 195  76 186 195  76 186 195  76 186 195  76 186 195  76 186 195  76
186 195  76 186 195  76 186 195  90 169 173   2   3   5  65  69  55 104 121  51 115 136
 59 113 129  56 144 170  69 151 178  73 150 177  74 139 165  68 134 157  66 134 160  63
184 181 112 197 186 123 196 185 121 135 145  75 105 127  52 111 132  53 188 165 123 209
175 138 200 171 131 233 196 152 244 203 160 241 202 159 226 204 144 218 205 137 227 206
141 124 116  77   0  19  10  34  45  13  80 187 195  76 186 195  76 186 195  76 186 195
 76 186 195  77 185 195  76 186 195  76 186 195  76 186 195  76 186 195
 76 186 195  76 186 195  76 186 195  76 186 195  76 186 195  76 186 195  76 186 195  76
186 195  77 185 195  76 186 195  95 166 168   0   0   0  62  66  52 148 177  71 167 197
 81 162 190  77 138 164  67 131 154  64 132 157  66 134 159  68 136 160  66 134 159  68
150 183  68 152 190  69 150 188  69 162 192  78 165 195  81 166 196  82  63  93  19   0
  0   0   0   0   0 188 160 123 217 185 144 209 177 139 167 184  88 144 185  53 153 188
 68  87 107  44  37  31  35  12  41  11  83 187 196  76 186 195  76 186 195  76 186 195
 76 186 195  76 186 195  76 186 195  76 186 195  76 186 195  76 186 195
 76 186 195  76 186 195  76 186 195  76 186 195  76 186 195  76 186 195  76 186 195  76
186 195  76 186 193  76 186 195  96 165 168   1   0   0  62  66  52 149 176  73 168 197
 81 162 190  77 145 171  70 139 164  70 141 167  70 138 162  68 136 159  68 135 160  68
156 181  77 161 189  79 160 186  79 158 186  76 156 185  75 160 188  77  97 108  52  52
 45  39  54  63  34 200 167 134 228 190 151 221 183 147 178 188 101 154 189  73 168 191
 85  93 108  49  33  31  34  16  37   4  85 188 195  77 187 196  76 186 195  76 186 193
 76 186 195  76 186 195  76 186 195  77 185 195  76 186 195  76 186 195
 76 186 195  76 186 195  76 186 195  76 186 195  76 186 195  76 186 195  76 186 195  76
186 195  76 186 195  76 186 195  90 169 173   3   4   6  64  68  53 103 123  52 116 137
 58 112 133  56 102 119  51  98 114  51  99 115  50 129 152  64 138 162  68 135 158  67
154 183  75 162 190  79 159 187  76 160 188  77 160 188  77 162 190  79  90 103  47  25
 25  27  44  54  28 158 153  97 180 175 110 174 168 106 164 184  85 155 190  74 162 190
 79  92 107  48  32  30  33  16  43  11  84 188 199  77 185 195  74 187 195  77 187 196
 76 186 195  76 186 195  76 186 195  76 186 195  76 186 195  76 186 195
 76 186 195  76 186 195  76 186 195  76 186 195  76 186 195  76 186 195  76 186 195  76
186 195  76 186 195  76 186 197  83 177 185  18  44  45  71  75  61  38  36  39  33  25
 40  35  29  39  45  41  40  43  43  41  41  37  38 125 144  63 138 163  69 134 158  64
155 182  75 162 188  78 158 187  77 160 188  77 160 188  77 162 190  79  91 104  48  30
 28  31  51  56  32 113 142  50 129 160  56 123 153  53 152 182  70 161 187  80 161 189
 78  93 110  55  45  43  46  43  78  46  79 187 197  76 186 195  76 186 195  76 186 195
 77 185 195  76 186 195  76 186 195  76 186 195  76 186 195  76 186 195
 76 186 195  76 186 195  76 186 195  76 186 195  76 186 195  76 186 195  76 186 195  76
186 195  73 186 194  76 186 195  76 186 195  48 113 119  26  65  44   4   5   7   0   8
  0   0   5   0   1   1   1   1   1   1   1   1   3 123 148  56 143 167  71 137 160  69
154 183  75 159 192  79 159 189  77 161 187  77 161 189  76 163 189  80  90 105  48  29
 27  28  49  57  32 126 148  65 147 168  73 139 162  71 159 186  79 163 193  79 164 194
 80  79  96   0   1   3   2  44 105 110  77 185 195  76 186 195  76 186 195  76 186 195
 76 186 195  76 186 195  76 186 195  76 186 195  76 186 195  76 186 195
 76 186 195  76 186 195  76 186 195  76 186 195  76 186 195  76 186 195  76 186 195  76
186 195  76 186 195  76 186 195  77 187 196  75 188 196  98 190 201  84 188 197  83 187
196 107 194 201 112 195 203 107 194 203 141 202 205 130 137 119  63  83   0  90 101  58
132 157  66 147 171  73 140 166  69 154 182  72 160 188  78 162 190  77  89 104  47  29
 27  30  56  60  35  80  93  47  89 103  54  86 100  51  96 111  52 102 116  55  88 109
 32 143 197 197  92 190 199  77 187 196  74 187 195  76 186 195  76 186 195  76 186 195
 77 185 195  76 186 195  76 186 195  76 186 195  76 186 195  76 186 195
 76 186 195  76 186 195  76 186 195  76 186 195  76 186 195  76 186 195  76 186 195  76
186 195  76 186 195  77 185 195  75 185 194  77 185 195  73 188 193  76 186 195  76 186
193  76 186 197  77 187 198  78 186 196  82 189 197 127 136 131   2   0   1  53  51  54
120 142  59 137 163  66 135 155  66 156 183  76 162 190  77 162 190  80  90 105  48  29
 27  28  56  65  36  30  32  19  21  21   9  25  28  11  17  12  16  13   8  15  23  53
 53  78 187 194  75 185 194  75 185 194  78 186 196  76 186 195  76 186 195  76 186 195
 74 187 195  76 186 195  76 186 195  76 186 195  76 186 195  76 186 195
 76 186 195  76 186 195  76 186 195  76 186 195  76 186 195  76 186 195  76 186 195  76
186 195  77 187 196  76 186 195  76 186 195  74 187 195  77 185 195  76 186 193  75 185
194  76 186 193  77 186 193  77 187 196  85 192 198 117 148 150   0   0   2  65  69  54
124 146  61 141 162  69 133 158  66 154 181  74 160 188  77 159 189  77  89 104  47  29
 27  28  57  63  35  60  72  52  63  84  67  65  87  74  69 111 101  73 137 136  69 167
168  74 187 195  77 185 195  77 185 197  77 187 196  76 186 195  76 186 195  76 186 195
 76 186 195  76 186 195  76 186 195  76 186 195  76 186 195  76 186 195
 76 186 195  76 186 195  76 186 195  76 186 195  76 186 195  76 186 195  76 186 195  76
186 195  76 186 195  76 186 195  76 186 195  75 185 194  74 187 193  76 186 197  76 186
195  76 184 194  76 186 195  76 186 195  76 186 195 103 161 164   0   0   0  73  77  63
 73  82  51  78  88  51  76  85  54  82  94  54  85  98  55  83  95  55  69  74  52  59
 63  48  43  52  21 108 192 200  93 191 202  85 189 198  79 187 197  75 185 194  76 186
195  76 186 195  76 186 197  76 186 195  77 185 195  76 186 195  76 186 195  76 186 195
 76 186 195  76 186 195  76 186 195  76 186 195  76 186 195  76 186 195
 76 186 195  76 186 195  76 186 195  76 186 195  76 186 195  76 186 195  76 186 195  76
186 195  76 186 197  76 186 195  76 186 195  76 186 195  76 186 195  76 186 195  76 186
195  76 186 195  76 186 195  76 186 195  76 186 195  91 165 166   9  29  28  38  45   4
  0   0   0   0   0   0   0   0   2   0   0   0   0   0   0   0   0   0   0  11   0   0
 21   0   2   3   5  99 193 201  82 189 197  76 186 195  76 186 195  76 186 195  76 186
195  76 186 195  76 186 195  76 186 197  76 186 195  76 186 195  76 186 195  76 186 195
 76 186 195  76 186 195  76 186 195  76 186 195  76 186 195  76 186 195
 77 187 196  78 186 196  76 186 195  76 186 195  76 186 195  76 186 195  76 186 195  76
186 195  76 186 195  76 186 195  76 186 195  76 186 195  76 186 195  76 186 195  76 186
195  76 186 195  77 187 196  76 186 197  76 186 193 100 175 180  82 114 109 107 118 112
104 111 104 103 113 105 105 112 105 104 114 105 104 114 105 104 114 105 104 114 106 103
114 108  91 118 113 113 196 202  81 188 194  77 187 194  76 186 195  76 186 195  74 187
195  75 188 196  76 186 195  77 185 195  76 186 195  76 186 195  76 186 195  76 186 195
 76 186 195  76 186 195  76 186 195  76 186 195  76 186 193  78 186 196
 76 186 195  78 186 196  76 186 195  76 186 195  76 186 195  76 186 195  76 186 195  76
186 195  76 186 195  76 186 195  76 186 195  76 186 195  76 186 195  76 186 195  76 186
195  76 186 195  76 186 193  76 186 195  79 185 198  88 190 200 116 200 208 123 203 210
121 204 210 123 203 210 122 202 209 124 204 211 123 203 210 125 203 213 123 203 210 119
204 209 118 201 209 107 197 205  96 193 202  85 189 198  76 186 195  76 186 195  76 186
195  77 187 196  76 186 195  76 186 195  76 186 195  76 186 195  76 186 195  76 186 195
 76 186 195  76 186 195  76 186 195  76 186 195  90 190 200  79 185 196
