P3
# 8-bit ppm - RGB
50 50
255
 77 187 196  78 187 194  76 186 195  77 185 197  76 186 195  76 186 195  76 186 195  77
185 195  78 184 195  79 185 196  78 186 196  79 187 197  86 190 197  88 190 200  89 191
201  93 191 200 101 195 203 103 196 204 105 195 203 107 197 205 108 198 206 107 197 206
 97 194 201  92 192 202  84 188 197  83 187 196  81 188 196  81 190 197  87 191 200  85
189 198  82 189 197  79 186 194  78 187 194  78 186 196  77 185 195  80 186 197  82 189
197  83 190 198  86 190 199  85 189 200  86 190 201  86 190 199  85 189 198  85 189 198
 74 186 198  74 187 193  76 186 195  76 186 195  78 187 194  78 187 194
 78 186 196  75 185 194  77 187 194  78 184 195  76 186 195  75 185 194  76 186 195  76
186 195  75 185 196  79 187 197  79 187 197  79 188 195  80 189 196  79 188 195  79 188
195  79 187 197  79 187 197  78 186 196  79 187 197  79 188 195  79 187 197  77 187 196
 80 184 195  80 187 195  79 187 197  79 187 197  80 189 196  85 189 198  81 188 196  79
187 197  79 187 197  78 186 196  77 185 195  75 188 196  76 186 195  75 185 194  77 187
196  76 186 195  76 186 195  77 187 196  77 187 196  75 185 194  76 186 195  76 186 195
 76 186 193  78 184 197  77 187 198  76 186 195  76 186 195  76 186 195
 76 186 195  75 185 192  77 185 195  76 186 195  76 186 197  76 186 195  77 185 197  76
186 197  76 186 195  90 188 199  89 189 199  80 184 195  77 187 196  79 185 196  79 187
197  79 188 195  83 187 196  85 187 197  87 190 197  88 188 196  86 189 194  84 186 196
 81 187 198  91 189 200  88 191 196  87 190 195  88 188 196  82 189 197  88 188 198  85
189 196  87 189 199  90 190 198  88 191 198  88 188 196  86 189 196  85 189 196  84 188
197  91 191 201  84 188 197  79 185 196  81 185 196  80 188 198  79 186 194  76 186 195
 76 186 197  74 187 195  77 187 196  76 186 195  76 186 195  76 186 195
 76 186 195  78 186 196  76 186 195  76 186 195  74 187 195  76 186 195  77 187 196  76
186 195 100 193 200  31  75  78   8  16  18   6  15  20   8  20  20   9  20  22   8  20
 20   5  13  15   5   9  10   3   7   6   2   3   5   3   4   6   3   4   6   3   9   9
  2   6   5   1   5   4   1   5   6   1   5   8   1   7   5   3   7   8   2   8   8   7
 15  17  14  30  30  18  42  44  17  43  44  16  45  43  17  43  42  13  31  33   7  15
 17   2   3   5   4   8  11   8  18  19  18  44  45  32  94  83  46 113 119  91 166 169
 76 187 191  76 186 195  77 187 198  75 185 194  76 186 195  76 186 195
 76 186 195  73 186 194  76 186 195  76 186 197  77 185 195  76 186 195  74 187 195  85
189 198  80 188 198  21  47  48  64  68  51  56  58  45  41  41  41  44  43  41  43  42
 40  42  42  40  44  43  41  44  43  41  42  42  40  45  41  42  43  42  40  42  42  40
 44  44  42  36  33  40  33  27  39  34  29  36  35  27  40  35  30  37  34  28  38  33
 30  39  34  28  40  34  28  38  35  29  39  35  27  38  34  28  40  33  30  39  34  28
 38  35  29  39  34  29  36  32  29  38  33  27  37  47  44  51   0   0   0 120 145 149
 79 187 199  76 186 197  76 186 195  76 186 195  76 186 195  76 186 195
 76 186 195  76 186 195  76 186 195  76 186 195  76 186 197  76 186 195  79 185 196  94
187 195 127 175 177  33  48   9  49  51  38  76  89  46 110 127  55 106 126  57 107 124
 56 105 125  54 104 126  54 104 126  54 105 125  54 105 126  51 106 126  55 107 127  56
106 123  53 117 138  59 124 146  63 122 144  62 122 144  61 123 145  62 124 146  61 125
144  63 123 145  60 123 145  62 123 145  62 123 145  62 124 146  63 125 144  62 123 145
 62 122 144  61 126 145  63 123 145  60 124 146  63 124 145  68 118 142  44 141 155 106
133 188 192  88 184 196  76 186 195  76 186 195  76 186 195  76 186 195
 76 186 195  76 186 195  76 186 195  76 186 195  76 186 195  78 186 196  53 130 136   3
  9   9   0   0   0  56  61  37  34  35  30  93 108  49 143 169  68 139 164  70 140 166
 69 140 166  69 140 166  69 140 166  69 140 166  69 141 165  71 140 166  69 141 165  69
138 163  69 156 183  76 166 196  80 163 193  77 163 193  81 164 194  80 164 194  80 162
195  80 164 194  82 163 193  79 164 194  80 164 194  80 164 194  80 164 194  80 164 194
 80 164 194  80 164 194  80 164 194  80 164 194  80 163 193  79 168 198  84 146 172  63
  0   0   2  29  68  73  81 179 188  76 186 195  76 186 195  76 186 195
 76 186 195  74 187 195  76 186 195  76 186 195  77 187 194  79 185 196  32  69  49  47
 68  51  50  67  49  53  59  33  36  37  29  89 104  47 138 163  69 133 158  66 135 158
 68 135 158  67 135 158  67 134 157  66 134 159  67 134 159  67 135 158  67 135 158  67
133 156  65 151 178  73 161 189  78 158 187  77 159 187  76 158 186  75 158 186  76 158
186  76 158 186  76 158 186  76 158 187  79 160 188  78 158 186  76 159 187  77 160 186
 77 159 187  77 159 187  77 159 187  77 158 187  77 157 186  76 161 189  76 144 170  71
 66  69  62   8  20  18 104 174 181  76 186 197  76 186 195  76 186 195
 76 186 195  76 186 195  74 187 195  75 185 194 100 165 169 137 137 135 175  60  41 181
 62  48 156  60  44  35  59  35  38  38  28  90 103  49 139 164  70 135 158  67 135 160
 68 136 161  70 136 161  70 135 160  69 136 159  68 138 159  68 135 160  69 137 162  71
137 160  70 140 165  71 142 168  69 139 165  66 154 181  74 161 189  79 161 187  77 158
187  77 159 187  77 157 186  76 144 170  71 140 166  69 141 167  70 141 167  68 141 167
 68 141 167  68 141 167  70 140 166  69 143 169  70 159 187  76 164 191  78 144 170  69
 53  54  46   0   0   0 112 170 173  76 186 195  73 185 196  79 187 197
 74 187 195  76 186 195  76 186 195  64 155 156  18  44  45  84  12   0 201  64  50 207
 65  53 177  61  46  26  58  34  40  37  30  90 103  47 138 166  66 137 161  67 133 159
 60 130 156  49 130 156  49 133 159  60 140 161  68 138 161  70 134 159  58 129 156  49
133 156  48 133 157  61 134 159  67 133 156  66 153 180  75 161 189  78 159 187  77 160
190  76 162 190  79 160 190  78 138 163  69 132 157  66 133 158  66 134 157  66 133 158
 66 134 157  66 133 158  67 133 156  65 138 163  69 161 189  78 164 194  80 145 171  70
 51  52  44   1   0   0 115 169 169  78 186 196  74 187 195  80 189 196
 75 185 194  76 186 195  77 187 196  74 142 142  32  61  41 103  65  52 195  62  47 198
 63  51 173  60  44  29  59  35  40  38  26  90 104  45 140 163  72 134 158  64 142 163
 84 152 173 106 153 172 106 144 162  88 130 153  62 130 153  63 143 164  87 156 172 107
152 173 106 141 164  82 135 161  64 133 158  66 153 180  73 161 189  78 161 189  78 155
181  74 152 181  75 153 180  75 141 167  70 138 161  70 139 163  67 138 163  69 139 163
 69 138 163  69 139 163  69 139 163  69 140 166  69 152 181  75 156 185  75 138 164  65
 54  56  45   1   1   1 117 165 167  82 189 197  76 186 197  81 187 198
 79 187 199  76 186 195  76 186 195  70 129 123   3  48  17 100  59  39 194  62  49 199
 64  52 174  63  46  29  59  33  38  38  30  90 103  47 142 167  75 119 147   0 192 203
173 255 255 255 255 254 255 192 192 190   2   0   1   1   0   0 198 198 198 255 255 255
254 254 254 187 198 166 122 153   0 141 160  78 153 180  73 161 189  78 161 189  76  92
110  48  48  56  31  64  74  37 149 176  73 160 190  78 158 184  77 159 188  80 157 189
 80 159 188  80 158 185  78 160 188  77 148 175  72  63  70  37  59  70  36  60  69  38
 58  65  49   0   0   2 117 168 169  80 186 197  76 186 195  81 188 196
 80 186 199  76 186 195  77 187 196  72 124 122   0  49  17 103  60  43 202  65  51 205
 63  51 177  62  44  24  58  33  40  37  30  92 102  49 143 166  78 119 147   0 195 205
178 255 255 255 255 255 255 193 193 193   0   0   2   0   0   0 200 202 199 255 255 255
255 255 255 191 200 169 123 149   0 138 160  75 153 180  77 161 189  76 164 190  80  80
 92  42   0   1  21  26  24  27 150 177  72 162 190  77 158 187  77 159 187  74 162 186
 76 159 187  74 158 188  76 162 192  78 148 175  72  17   9  24  19   1  27  31  27  24
 62  67  47   0   0   0 119 167 169  81 188 194  76 186 193  81 188 196
 79 187 197  76 186 195  76 186 193  71 130 126  23  49  20  90  59  39 167  60  42 172
 61  44 148  61  42  36  58  33  40  37  30  90 103  47 144 167  79 119 147   0 193 206
176 255 254 255 255 255 253 193 194 189   2   1   0   0   0   0 201 200 198 254 254 254
254 254 254 190 201 167 122 151   0 138 160  75 153 180  75 161 189  78 161 189  78 115
136  57  97 113  50 100 120  51 153 180  73 160 190  78 158 187  77 160 188  77 160 188
 77 161 189  78 159 187  77 161 189  78 152 179  74 101 116  51 103 120  52  91 109  47
 55  61  47   0   0   0 117 168 171  80 187 195  76 186 195  81 188 196
 76 186 195  76 186 195  76 186 195  75 146 148  58  69  52  59  68  51   0  55  32   1
 57  32  26  56  32  59  59  33  47  38  31  91 106  49 142 164  79 118 148   1 195 204
177 255 255 255 255 255 255 194 194 194   0   1   0   0   0   0 201 203 202 255 255 255
254 255 255 190 202 166 120 150   0 138 161  73 153 180  73 161 189  78 160 186  77 162
190  77 163 193  79 163 191  80 161 189  78 160 188  77 161 189  78 160 188  77 161 189
 78 160 188  77 161 187  77 160 188  77 161 189  78 162 192  78 166 196  80 147 174  71
 53  54  48   0   0   0 118 168 169  82 189 197  77 185 195  81 188 196
 76 186 195  76 186 195  74 186 197  63 156 164  21  52  54   1   1   1  57  56  34  57
 57  33  44  56  32   2  58  31   1  34  27  79 107  48 145 170  78 125 154   0 196 205
174 254 254 254 255 255 255 186 186 184   0   0   0   0   0   2 195 195 193 255 255 255
255 255 255 191 202 168 122 150   1 138 160  75 153 180  73 161 189  76 158 186  76 158
187  77 158 187  77 158 187  77 160 188  77 161 187  77 160 188  77 160 188  77 159 188
 78 160 188  77 160 188  77 160 188  77 160 188  77 158 186  76 161 191  79 143 169  72
 52  53  45   1   0   0 118 168 169  81 188 196  77 185 195  81 188 196
 77 187 196  76 186 195  76 186 195  76 186 195 131 192 197 170 186 185  45  50  18  34
 56  33  93  58  38 156  61  43 155  53  41 138  83  45 101 122  63  70  94   0 184 188
171 255 255 255 255 255 253 230 230 230 195 195 193 195 195 193 233 233 233 255 255 255
254 254 254 190 201 167 122 150   1 138 160  75 153 180  73 161 189  78 160 188  77 160
188  78 160 188  77 160 188  77 160 188  77 160 188  77 160 188  77 160 188  77 160 188
 77 160 188  77 160 188  77 160 188  77 160 188  77 158 187  77 162 192  78 144 170  69
 52  53  45   0   0   0 118 168 169  81 188 196  76 186 195  81 188 196
 77 187 196  76 186 195  77 185 195  76 186 195  88 191 198  80 187 195  46  65  35   2
 55  33 115  60  40 205  63  51 207  65  51 169  55  44   1  50  47   0   0   0 172 172
172 255 255 253 252 252 250 255 255 255 255 255 255 254 255 255 254 255 255 253 253 255
254 255 255 189 200 166 121 151   1 138 160  75 154 181  74 161 189  78 159 189  77 159
189  77 159 189  77 160 188  77 159 189  77 161 189  78 160 188  78 160 188  77 160 188
 77 159 187  76 159 189  77 161 189  78 160 188  77 159 188  78 163 193  79 144 170  69
 52  53  45   0   0   0 117 168 169  81 188 196  76 186 195  81 188 196
 74 187 195  76 186 195  76 186 195  75 185 194  76 186 197 101 194 201  42  50  11  12
 56  31 111  60  43 196  63  46 198  63  51 166  64  44  38  70  49   0   0   0 175 175
175 254 254 255 255 255 255 255 254 255 255 253 254 255 253 254 255 255 255 255 254 255
255 255 253 191 202 170 121 149   0 138 160  75 153 181  71 160 189  79 161 189  78 161
187  77 162 188  78 160 188  77 160 188  77 160 188  77 160 188  77 159 187  76 160 188
 78 160 188  77 160 188  77 160 188  78 160 188  75 158 187  77 161 191  77 144 170  69
 51  54  43   0   0   0 118 168 169  81 188 196  76 186 195  81 187 198
 76 186 195  76 186 195  77 185 195  76 186 197  76 186 193  79 187 197  46  69  39  10
 53  33 113  61  40 200  63  49 199  64  50 166  61  44  16  61  38  29  18   0 116 128
 92 172 189 135 167 183 134 167 183 134 168 184 135 167 185 135 167 185 135 166 182 135
169 185 138 148 170  98 134 158  62 133 157  69 153 181  71 161 189  78 157 187  75 161
189  78 160 188  77 160 188  77 159 187  77 160 188  78 158 186  75 160 187  80 160 186
 76 160 188  78 160 188  77 158 187  77 160 188  78 158 186  75 162 190  77 144 170  69
 52  53  47   0   0   2 117 168 171  82 189 197  76 186 195  80 186 197
 74 187 193  76 186 197  76 186 195  77 187 194  76 186 197  79 186 194  46  65  33   8
 56  32 111  60  41 199  64  50 205  63  51 169  62  46   1  60  32  43  38  34  91 109
 33 128 157  29 127 153  30 129 153  31 128 152  30 129 153  31 127 153  28 129 155  30
127 152  24 133 158  57 135 162  67 134 159  67 154 181  78 163 191  81 160 188  77 159
187  76 159 187  76 160 188  77 162 190  79 161 189  79 163 191  80 161 189  78 162 190
 79 161 189  78 162 188  78 162 190  77 162 190  79 161 189  79 163 193  79 146 172  71
 53  55  44   0   0   0 115 169 171  78 186 198  76 186 195  80 188 198
 76 186 195  74 187 195  76 186 195  76 186 197  77 186 193  98 192 202  40  56  20  17
 55  30 107  59  39 188  62  47 189  63  48 157  60  43  18  61  34  41  34  26  98 114
 52 141 166  74 137 160  72 138 161  73 138 162  74 137 161  73 138 162  74 138 162  74
138 160  75 138 159  68 136 159  69 135 158  67 151 178  73 158 185  78 154 183  75 159
188  80 160 188  77 160 188  77 153 182  76 151 178  71 152 179  74 152 179  74 154 179
 75 153 178  74 153 180  75 152 179  74 153 180  75 151 178  71 155 181  74 138 164  67
 53  54  48   0   0   2 110 171 176  77 186 193  76 186 195  78 186 196
 76 186 195  74 187 195  76 186 195  76 186 193  76 186 195  86 190 199  56  97  83  59
 66  48  65  67  53  67  66  48  68  66  51  62  63  45  52  58  32  35  36  30  96 112
 49 139 165  68 133 158  66 136 159  68 136 159  68 138 158  69 136 159  68 136 159  69
135 158  67 135 160  68 136 159  68 136 159  68 138 161  70 137 161  67 136 159  68 154
181  74 160 190  78 160 188  78  82  96  43  50  55  33  58  69  37  55  61  35  55  61
 35  56  62  36  66  71  51  67  71  54  66  71  51  64  72  51  66  71  51  65  70  50
 70  74  59  12  33  34  99 176 182  76 186 195  75 185 196  76 186 195
 76 186 195  76 186 195  76 186 195  76 186 197  76 186 195  76 186 195  55 134 141  22
 53  56   1   0   0   0   0   0   0   0   0   0   0   0  57  63  37  32  33  28  99 115
 52 143 169  70 138 165  68 138 162  68 136 159  68 136 159  68 136 159  68 136 159  68
136 159  68 135 158  67 133 156  65 133 158  66 133 158  66 133 158  66 132 155  65 153
180  73 160 190  78 160 188  77  67  78  38   0   1  23  29  24  28  47  50  31  51  56
 36  42  47  23   0   0   0   1   0   0   0   0   0   0   0   0   0   0   0   3   4   6
 16  40  42  43 104 109  77 185 195  76 186 195  77 187 198  76 186 195
 76 186 197  76 186 197  76 186 195  76 186 195  77 185 195  76 186 195  76 186 193  83
183 191 110 178 181 132 170 171 160 169 166 139 140 135  30  41   0  45  47  34  84  98
 45 118 140  57 115 131  58 126 148  63 137 162  68 136 159  68 136 159  68 138 159  66
134 159  67 141 167  68 145 171  70 144 170  71 146 170  72 145 169  73 145 169  71 157
183  76 161 189  78 160 188  77 114 135  56 104 121  53 106 121  54  58  67  38  41  47
 19  72  76  61 144 166 164 134 172 173 124 174 175 117 176 180 110 178 181 102 180 182
 87 184 190  78 186 196  76 186 195  76 186 195  76 186 195  76 186 195
 76 186 195  76 186 195  76 186 195  76 186 195  77 185 195  76 186 195  76 186 195  77
186 193  77 185 195  76 186 195 114 198 208 145 202 207   1   1   3  71  75  61  54  58
 44  37  41  27   1   1  25 100 117  49 141 165  71 135 158  67 138 161  70 138 163  71
135 158  68 153 180  75 164 192  82 162 190  80 163 189  80 163 189  80 162 190  80 161
189  79 162 190  80 161 188  81 165 191  81 168 195  80 162 189  82  76  83  49   0   4
  0 100 108  97  79 187 197  82 189 197  77 187 196  76 186 195  76 186 195  76 186 195
 77 187 196  76 186 197  76 186 195  76 186 193  76 186 195  76 186 195
 76 186 195  76 186 195  76 186 195  76 186 195  76 186 193  76 186 195  76 186 195  74
187 195  76 186 195  76 186 195  74 186 197  80 187 195  16  44  47   1   5   4   2   2
  0  61  65  40  36  36  26 105 122  54 140 166  69 136 159  69 132 158  61 129 157  54
125 155  55 141 176  60 149 188  63 146 184  61 147 185  62 145 185  60 147 185  62 148
186  63 148 186  63 148 186  65 146 184  63 147 186  61 147 182  64  67  82  43   5  13
  0  91 122 116  82 189 197  74 187 195  76 186 195  76 186 195  76 186 197  76 186 193
 76 186 197  76 186 193  76 186 195  76 186 197  76 186 195  76 186 195
 76 186 195  76 186 195  76 186 195  76 186 195  76 186 193  76 186 193  77 185 195  76
186 195  77 185 197  76 186 195  76 186 193  73 186 194  92 186 194 106 193 198  92 182
190   2  14  10  43  43  41 104 121  53 142 166  72 130 158  58 168 169  99 193 176 124
187 172 117 213 195 133 224 206 140 223 205 141 224 204 141 224 204 141 222 204 140 224
206 142 224 206 142 224 206 140 224 204 143 225 205 142 219 201 137  87  85  60   0   3
  0  89 139 136  77 185 195  76 186 197  76 186 195  75 185 194  75 185 194  76 186 197
 76 186 193  76 186 195  74 187 195  76 186 193  76 186 195  76 186 195
 76 186 195  76 186 195  76 186 195  77 185 195  76 186 195  76 186 195  76 186 195  76
186 195  77 187 196  76 186 197  76 186 195  79 187 199  79 185 196  77 185 195  76 186
195  19  47  50  50  50  48 102 121  55 141 165  71 126 156  56 192 175 123 226 188 151
217 181 145 247 206 163 255 220 175 255 216 173 255 218 173 255 217 170 255 217 172 255
217 172 255 217 172 255 215 172 255 217 171 255 218 173 255 214 171  99  88  66   2   0
  1  86 146 146  76 186 195  74 187 195  76 186 197  76 186 195  77 187 196  77 186 193
 77 185 195  76 186 195  76 186 195  74 187 195  76 186 195  76 186 195
 76 186 195  76 186 195  76 186 195  76 186 195  76 186 195  76 186 195  76 186 195  76
186 195  76 186 195  76 186 195  77 186 193  83 190 198  88 191 198  76 186 195  79 185
196  15  36  39  49  47  48 101 122  57 143 164  69 126 157  54 186 173 118 220 185 147
213 180 139 240 203 158 254 216 167 252 214 165 255 214 168 255 213 170 255 214 170 255
214 170 255 215 169 255 215 169 252 214 167 253 217 167 249 211 164  97  89  66   0   1
  0  88 143 145  77 185 195  76 186 195  76 186 195  76 186 195  76 184 194  76 186 197
 76 186 193  76 186 197  76 186 195  76 186 195  76 186 195  76 186 195
 76 186 195  76 186 195  76 186 195  76 186 195  76 186 195  76 186 195  76 186 195  76
186 195  76 186 195  76 186 195  91 166 171  87 174 181  79 181 193  92 167 172  97 112
105  46  54  13  39  40  34 104 121  53 141 165  71 126 157  54 188 173 118 220 185 147
212 180 142 242 204 159 255 217 170 252 214 167 255 215 169 255 215 169 255 215 169 255
216 170 255 214 168 255 215 169 255 215 169 254 216 167 249 211 162  96  88  65   2   0
  1  91 133 131  76 186 195  76 186 195  76 186 195  76 186 195  77 187 196  76 186 193
 76 186 195  76 186 195  77 187 196  76 186 195  76 186 195  76 186 195
 76 186 197  76 186 195  76 186 195  76 186 195  76 186 195  76 186 195  76 186 195  76
186 197  76 186 195  45 106 111  18  51  32   4   5   9   4   9  12   1   1   1   0   0
  0  46  50  35   5   0  24 101 117  52 142 166  72 126 157  54 188 172 120 220 185 147
212 180 141 242 203 160 255 216 172 255 214 168 255 215 169 255 216 170 255 215 169 255
215 169 255 215 171 255 215 169 253 215 168 254 216 169 250 212 165  96  90  66   1   0
  0  96 115 111  89 192 199  76 184 196  76 186 195  76 186 195  76 186 195  76 186 195
 76 186 195  76 186 195  76 186 195  76 186 193  76 186 195  76 186 195
 76 186 195  76 186 195  76 186 195  76 186 195  76 186 195  76 186 195  76 186 195  76
186 195  96 190 198  18  53  46  60  64  49  67  76  47  85  97  51  83  96  52  82  94
 48  80  94  43  72  83  40 112 130  56 141 165  71 126 157  54 188 173 118 220 185 147
212 180 141 243 204 161 255 217 170 255 214 168 255 215 169 255 215 169 255 215 169 255
215 169 255 215 169 255 215 169 255 216 167 254 216 169 249 211 164  99  88  66   0   7
  0  94  96  85 109 196 203  77 187 196  77 185 195  76 186 195  76 186 195  76 186 195
 77 185 195  76 186 195  76 186 195  77 185 195  76 186 195  76 186 195
 76 186 195  76 186 195  76 186 195  76 186 195  76 186 195  76 186 195  76 186 195  76
186 195 119 198 205   2  11   8  35  33  36 101 120  54 162 192  78 157 186  76 159 187
 76 158 187  79 161 191  79 148 175  70 135 158  67 127 158  55 186 173 118 220 184 148
212 180 139 242 204 159 253 215 166 252 214 165 254 213 169 255 214 168 255 214 168 255
214 168 255 214 168 255 215 166 252 214 169 254 216 167 249 211 164  99  89  62  32  51
 21  57  63  37  57  79  64  68 171 178  76 184 194  76 186 195  76 186 195  76 186 195
 75 188 196  76 186 195  76 186 195  76 186 197  76 186 195  76 186 195
 76 186 195  76 186 195  76 186 195  76 186 195  76 186 195  76 186 195  76 186 195  76
186 195 124 199 204   0   9   0  35  30  36 105 124  58 168 199  80 162 195  80 162 192
 80 161 189  76 163 191  78 149 176  73 135 158  70 126 159  55 190 175 120 225 187 150
218 180 144 247 206 163 255 219 174 255 217 172 255 218 169 255 217 170 255 217 170 255
217 170 255 217 170 255 217 170 255 217 170 255 218 177 254 213 167  88  72  57   0   0
  4  35  29  29  53  57  40  25  63  64  77 187 196  74 187 195  76 186 195  76 186 195
 77 185 195  77 185 195  76 186 195  77 185 195  76 186 195  76 186 195
 76 186 195  76 186 195  76 186 195  76 186 195  76 186 195  76 186 195  76 186 195  76
186 195 117 197 204   5   9  10  45  46  40  88 101  45 132 158  67 129 149  60 139 165
 66 152 179  74 152 179  74 143 169  70 136 160  66 132 158  59 169 170 102 193 176 122
187 172 117 214 195 135 228 207 144 223 205 139 237 204 153 241 202 159 240 203 159 241
202 159 242 203 162 242 203 160 229 204 146 225 206 140 222 202 141 124 137  68 106 128
 53 106 123  55  62  67  45   7  29  17  85 172 179  76 186 195  76 186 195  76 186 195
 77 187 196  76 186 195  76 186 195  76 186 197  76 186 195  76 186 195
 76 186 195  76 186 195  76 186 195  76 186 195  76 186 195  76 186 195  76 186 195  76
186 195  89 189 197  19  62  45  67  71  56  53  59  49  29  23  25   0   1  23  89 104
 47 138 162  68 131 154  64 134 159  67 136 159  68 137 160  69 131 157  60 125 160  58
126 156  56 142 177  61 152 187  67 145 184  55 198 183 124 215 181 144 213 180 139 212
180 141 212 180 142 212 180 141 158 183  79 146 185  60 150 186  63 163 193  79 164 193
 83 158 188  76  66  72  44   0   0   0  88 166 170  76 186 195  76 186 195  76 186 195
 75 185 194  77 185 195  76 186 195  76 186 195  76 186 195  76 186 195
 76 186 195  76 186 195  76 186 195  76 186 195  76 186 195  76 186 195  76 186 195  76
186 195  77 187 196  42 101 109   2   2   2   1   0   0  61  66  42  37  39  28 100 116
 51 143 169  70 139 164  70 137 161  67 136 160  66 138 159  68 136 161  69 135 158  67
132 157  66 153 178  76 162 190  80 154 189  73 206 185 132 222 182 149 219 184 146 218
182 148 219 183 149 219 183 147 170 190  93 160 190  74 163 190  83 160 188  75 162 190
 77 153 178  74  62  71  42   0   0   0  88 165 171  76 186 195  76 186 195  76 186 195
 76 186 193  76 186 195  76 186 195  76 186 195  76 186 195  76 186 195
 76 186 195  76 186 195  76 186 195  76 186 195  76 186 195  76 186 195  76 186 195  76
186 195  76 186 195  74 187 195  98 191 199 132 183 186   3  17   2  54  58  44  72  83
 43  96 112  49  88 101  47 115 136  57 139 165  68 133 158  66 145 171  70 153 180  77
151 178  73 155 184  76 160 188  78 158 188  76 177 187 100 183 186 109 181 185 108 182
187 107 183 186 107 183 186 105 151 172  77 143 169  68 145 172  69 144 170  69 146 172
 71 140 166  69  63  71  46   7  24  18  85 172 179  76 186 195  76 186 195  76 186 195
 76 186 195  76 186 195  76 186 195  76 186 195  76 186 195  76 186 195
 76 186 195  76 186 195  76 186 195  76 186 195  76 186 195  76 186 195  76 186 195  76
186 195  76 186 195  76 186 195  79 188 195  99 192 199   3   4   6  56  64  43  43  48
 28  39  41  30   0   0  26 100 116  51 140 166  69 132 157  66 151 178  75 162 192  78
161 189  78 161 189  78 160 188  77 160 188  78 156 189  74 154 189  69 156 190  70 154
189  69 154 189  69 154 189  69 137 163  66 134 157  66 135 158  67 133 158  66 136 159
 68 129 152  61  57  66  39  25  60  62  76 186 195  76 186 195  76 186 195  76 186 193
 77 187 196  76 186 195  76 186 195  76 186 195  76 186 195  76 186 195
 76 186 195  76 186 195  76 186 195  76 186 195  76 186 195  76 186 195  76 186 195  76
186 195  76 186 195  76 186 195  75 185 194  80 189 196  36  87  92  66  70  55  59  64
 44  58  64  36  37  38  30 104 121  53 141 165  69 133 156  66 149 176  73 160 188  77
158 187  77 158 187  77 159 187  76 157 187  75 159 187  77 159 187  77 159 187  77 159
187  77 159 187  77 159 186  79 139 165  68 134 159  65 136 159  68 135 158  67 136 161
 67 131 154  64  68  89  72  55 137 135  76 186 195  76 186 195  76 186 195  76 186 195
 76 186 195  76 186 195  76 186 195  76 186 195  76 186 195  76 186 195
 76 186 195  76 186 195  76 186 195  76 186 195  76 186 195  76 186 195  76 186 195  76
186 195  76 186 195  76 186 195  76 186 193  76 186 195  79 188 195  91 191 199  97 187
195  20  50  52  47  47  45 104 121  53 140 166  69 133 156  66 148 176  73 160 188  75
162 190  77 115 136  61  71  80  49  84  95  52  80  91  49  81  92  50  79  92  49  82
 93  51  80  93  50  81  92  50  75  85  51  74  84  49  76  83  49  77  87  52  62  74
 26 101 122 107 136 205 210  77 185 195  76 186 195  76 186 195  76 186 195  76 186 195
 76 186 195  76 186 195  76 186 195  76 186 195  76 186 195  76 186 195
 76 186 195  76 186 195  76 186 195  76 186 195  76 186 195  76 186 195  76 186 195  76
186 195  76 186 195  76 186 195  74 187 195  76 184 194  74 187 195  78 186 196  77 187
196  37  86  90  49  49  47 106 121  54 141 165  69 134 157  69 151 178  73 160 193  80
167 197  83  95 116  23   0   0   0   1   0   2   1   1   1   1   0   0   2   0   1   0
  1   0   1   1   1   0   0   0   1   0   0   0   0   0   0   0   0   8  18  19  26  60
 61  76 154 158  77 187 196  76 186 195  76 186 195  76 186 195  76 186 195  76 186 195
 76 186 195  76 186 195  76 186 195  76 186 195  76 186 195  76 186 195
 76 186 195  76 186 195  76 186 195  76 186 195  76 186 195  76 186 195  76 186 195  76
186 195  76 186 195  76 186 195  76 186 195  76 186 195  78 186 196  74 186 197  84 186
196   9  20  22  49  49  47 103 120  52 140 166  69 133 158  66 141 169  69 147 173  72
148 176  66 132 147 108 119 131 131 110 144 143 104 155 156  99 160 162  96 161 163  94
162 165  96 161 165  97 162 164  95 164 169  95 164 171  91 169 173  88 173 178  75 185
196  77 185 195  75 185 194  75 185 194  76 186 195  76 186 195  76 186 195  76 186 195
 76 186 195  76 186 195  76 186 195  76 186 195  76 186 195  76 186 195
 76 186 195  76 186 195  76 186 195  76 186 195  76 186 195  76 186 195  76 186 195  76
186 195  76 186 195  76 186 195  76 186 195  76 186 195  74 187 195  77 185 195  84 186
196  11  22  24  50  49  47 102 121  55 138 163  69 139 163  69 102 117  60  55  54  59
  0   0   0 174 205 208  80 186 197  80 186 197  77 187 196  76 186 195  77 187 196  76
186 195  77 187 196  78 186 196  77 186 193  77 187 196  75 185 194  76 186 197  77 187
196  74 187 193  76 186 195  76 186 193  76 186 195  76 186 195  76 186 195  76 186 195
 76 186 195  76 186 195  76 186 195  76 186 195  76 186 195  76 186 195
 76 186 195  76 186 195  76 186 195  76 186 195  76 186 195  76 186 195  76 186 195  76
186 195  77 185 195  76 186 193  76 186 195  75 188 194  76 186 195  76 186 193  84 187
194  14  34  35  47  45  46 106 123  53 143 169  68 145 169  75  86 110   0   0   0   0
 16  37  40  97 190 197  76 186 195  76 186 197  75 185 194  76 186 195  76 186 195  76
186 195  76 186 195  75 185 194  74 187 195  74 187 195  76 186 197  75 188 196  76 186
197  76 186 195  76 186 195  77 187 196  76 186 195  76 186 195  76 186 195  76 186 195
 76 186 195  76 186 195  76 186 195  76 186 195  76 186 195  76 186 195
 76 186 195  76 186 195  76 186 195  76 186 195  76 186 195  76 186 195  76 186 195  76
186 195  74 186 197  76 186 195  75 185 194  77 185 195  74 187 193  76 186 197  88 188
196  23  54  57  56  57  49  86 101  46 114 134  61 103 124  23 152 159 141 167 183 183
 96 183 190  75 185 194  77 185 195  75 185 196  77 187 196  76 186 193  77 187 196  76
186 193  76 186 195  76 186 195  77 187 194  76 186 195  76 186 195  76 186 197  77 187
194  76 186 195  77 187 196  76 186 195  76 186 195  76 186 195  76 186 195  76 186 195
 76 186 195  76 186 195  76 186 195  76 186 195  77 187 196  77 187 196
 76 186 195  76 186 195  76 186 195  76 186 195  76 186 195  76 186 195  76 186 195  76
186 195  76 186 195  76 186 195  77 185 195  76 186 195  76 186 195  76 186 195  95 189
197  25  63  66  70  74  59  55  58  47  60  59  57   0   4   5 124 193 200  81 188 196
 76 186 195  77 187 196  77 185 195  76 186 195  76 186 195  76 186 195  76 186 195  77
185 197  74 187 195  76 186 195  76 186 197  75 185 194  76 186 195  76 186 195  77 187
196  76 186 197  76 186 195  76 186 195  76 186 195  76 186 195  76 186 195  76 186 195
 76 186 195  76 186 195  76 186 195  76 186 195  76 186 195  76 186 195
 76 186 195  77 185 195  76 186 195  77 185 195  75 185 194  77 187 196  78 186 196  76
186 195  76 186 195  76 186 195  77 187 196  76 186 197  76 186 195  80 186 197  99 189
197  33  78  83  10  26  26  10  26  25   5  16  10  11  26  31  94 187 195  76 186 195
 76 186 195  77 185 195  76 186 195  76 186 195  76 186 195  76 186 195  76 186 195  76
186 195  76 186 195  76 186 195  76 186 195  76 186 195  76 186 195  76 186 195  76 186
195  76 186 195  76 186 195  76 186 195  76 186 195  76 186 195  76 186 195  76 186 195
 76 186 195  76 186 195  76 186 195  76 186 195  78 185 193  76 186 195
 77 187 196  79 187 197  76 186 195  77 187 196  75 185 194  76 186 195  76 186 195  76
186 195  76 186 195  76 186 195  76 186 195  77 187 194  77 187 196  81 187 198  81 188
196  80 187 195  79 187 199  83 187 198  96 190 198  77 187 198  76 186 193  76 186 195
 76 186 195  76 186 195  76 186 195  76 186 195  76 186 195  76 186 195  76 186 195  76
186 195  76 186 195  76 186 195  76 186 195  76 186 195  76 186 195  76 186 195  76 186
195  76 186 195  76 186 195  76 186 195  76 186 195  76 186 195  76 186 195  76 186 195
 76 186 195  76 186 195  76 186 195  76 186 195  81 188 196  77 187 196
