P3
# 8-bit ppm - RGB
50 50
255
 93 193 201  82 186 197  77 187 196  76 186 195  76 186 195  76 186 195  77 187 196  77
187 196  78 187 194  76 186 195  77 187 196  78 186 196  78 186 196  78 186 196  78 186
198  78 186 196  78 186 196  78 186 198  77 185 197  76 186 195  78 188 197  77 185 195
 77 185 195  78 186 196  79 185 196  76 186 195  77 187 196  78 186 196  78 186 196  78
187 194  79 188 195  81 188 196  82 189 197  86 190 199  85 189 198  86 188 198  87 189
199  77 187 196  77 187 196  77 187 196  79 187 197  78 186 196  77 187 196  77 187 196
 78 186 196  81 188 196  80 186 197  77 185 195  77 185 195  86 189 196
 76 186 195  76 186 197  77 185 197  75 185 194  77 185 195  74 187 195  76 186 195  81
188 196  87 190 197  81 187 200  79 185 196  87 189 199  88 188 196  85 187 197  87 187
197  81 187 198  80 186 197  80 186 199  80 186 197  81 188 196  80 186 197  82 186 197
 80 187 195  79 187 197  78 186 196  78 187 194  78 186 196  80 189 196  81 187 198  78
186 196  78 186 196  86 189 194  91 191 197  95 192 199 101 194 202  99 192 200  95 192
199  90 190 200  87 190 197  80 187 195  77 187 194  81 188 196  80 188 198  76 186 195
 77 187 196  75 185 194  76 186 195  75 185 194  76 186 195  76 186 195
 77 187 196  77 185 195  76 186 195  76 186 195  77 187 196  76 186 195  76 186 195  82
176 184  41 106 110  48  88  61  35  63  38  37  64  32  35  64  32  36  67  36  37  68
 37  38  69  38  37  72  42  38  73  43  39  71  47  38  72  45  38  72  45  39  73  46
 38  72  45  40  73  46  40  73  46  40  74  47  40  73  44  40  69  39  37  70  39  40
 73  46  45  85  61  46  98  76  57 123 111  64 146 142  43  83  57  39  70  39  38  71
 42  41  76  46  42  82  55  46  96  71  47  98  79  39  72  41  42  76  42  57 116  98
 46 119 125  78 186 196  75 185 196  76 186 195  76 186 193  76 186 195
 74 187 195  77 187 196  76 186 195  77 187 196  75 185 194  74 187 195  80 186 197 106
148 147   2   0   1  59  63  46  45  45  33  38  41  32  41  41  31  40  43  32  40  40
 30  42  42  32  40  42  31  40  42  31  39  40  32  40  42  31  39  42  33  39  40  32
 38  41  34  34  30  27  32  31  29  33  34  29  32  31  29  33  33  33  33  32  30  33
 33  31  33  32  30  33  32  28  35  31  28  34  32  33  33  32  30  35  31  28  32  33
 28  35  31  30  33  32  30  32  32  30  33  32  30  32  31  29  37  37  35  39  38  36
  4   4   6 124 202 206  78 186 196  76 186 195  77 185 195  77 187 196
 77 185 195  76 186 197  77 185 195  76 184 194  76 186 197  89 189 199  86 189 196 105
115 107  17  30   0  54  58  41  77  88  45  87 100  47  81  97  48  86  96  44  85  99
 48  85  97  47  85  97  47  85  98  45  88  98  48  85  97  47  85  97  47  82  99  45
 85  99  46  95 110  51  96 112  50  97 111  52  96 111  52  96 110  49  96 112  50  95
111  49  94 112  50  96 112  50  96 111  52  96 112  50  96 111  52  94 112  52  97 111
 52  95 111  48  96 110  49  97 111  50  94 112  52  96 112  50  97 111  52  99 114  57
 81 102   0 142 197 199  78 187 194  80 186 197  84 188 195  79 188 195
 78 186 196  76 186 195  75 185 192  76 186 197  68 144 141  17  47  49   6  14  16  46
 51  19  52  60  35  34  35  30 119 138  57 141 168  71 139 160  67 139 163  69 139 163
 69 139 163  69 138 163  69 140 164  70 139 163  69 139 163  69 138 163  69 137 161  67
139 166  69 162 188  78 162 192  78 161 191  77 163 191  78 162 192  78 163 191  78 161
194  79 162 192  76 163 193  77 163 192  76 163 190  77 162 190  77 162 190  77 161 191
 77 161 189  76 162 190  77 162 190  79 162 190  77 162 190  77 163 191  78 161 189  76
166 196  84  78 102   8   9  20  22  18  42  44  80 186 197  82 189 197
 79 187 197  78 184 195  78 186 198  88 191 198  66 105  98   1  48  16  23  64  46  46
 59  32  53  58  34  36  37  29 116 137  58 138 164  67 134 159  67 136 159  68 133 160
 67 136 160  66 137 160  69 133 158  66 134 159  67 133 158  66 137 160  69 134 161  68
139 160  65 158 187  77 161 189  78 162 188  78 159 189  77 158 187  77 157 187  75 158
187  77 158 187  77 158 187  79 160 188  77 162 190  79 161 189  79 161 191  77 160 188
 77 161 189  78 161 189  78 161 189  78 161 189  78 161 189  78 157 186  76 158 188  76
161 191  79  97 112  57  54  54  52   5   6   8  85 187 197  82 189 197
 79 187 197  77 185 195  86 189 196 129 194 200 130  78  65 125  53  29 129  63  47  69
 57  33  46  59  32  37  37  29 116 137  58 140 165  71 134 159  67 135 160  68 136 159
 68 138 159  68 136 159  68 136 159  68 136 159  68 136 159  68 136 159  68 134 159  67
137 161  67 151 178  75 152 179  74 152 179  72 157 187  75 160 188  77 161 187  77 160
188  77 159 187  77 159 189  77 155 185  73 151 178  73 154 180  73 151 178  73 152 179
 74 152 179  74 152 179  74 151 178  73 152 179  74 152 179  74 159 187  76 159 187  77
162 190  77  94 109  52  51  51  49   3   4   6  98 188 197  83 187 198
 77 185 197  46 111 117   5   9  10  41   3   3 196  61  47 203  64  51 204  62  50  99
 59  36  28  58  34  41  37  28 117 138  59 140 164  70 135 159  65 139 162  72 140 162
 77 140 164  78 138 161  73 135 158  67 135 158  67 136 159  68 138 162  76 138 162  76
138 162  76 135 158  67 133 158  66 132 157  66 154 181  74 161 189  78 159 187  77 158
187  77 158 187  77 160 188  77 148 175  72 134 157  67 135 160  68 136 159  69 135 158
 67 135 158  67 135 158  67 135 158  67 134 157  66 134 159  67 155 184  74 159 187  76
161 191  79  94 109  50  49  49  47   3   4   6 103 190 197  79 187 197
 76 186 195  51 105  91  51  68  50  84  65  49 192  65  50 195  62  49 196  62  51  96
 58  39  30  58  33  41  37  28 118 137  58 139 166  69 136 161  70 130 155  38 118 148
  0 120 148   0 128 155  24 142 167  73 143 164  71 137 162  60 122 148   0 119 149   0
121 149   0 135 161  64 139 160  69 132 159  66 156 183  78 160 188  75 159 188  80 162
192  78 165 193  80 166 196  82 151 178  75 134 154  65 134 159  67 134 159  67 133 158
 66 133 158  67 133 158  66 133 158  66 134 157  66 134 159  67 162 190  77 163 193  79
169 198  82  96 112  50  48  46  47   3   4   6 106 190 198  80 186 197
 77 187 196  20  62  52  44  59  40  79  61  41 193  61  48 196  63  48 196  63  50  96
 58  35  30  58  35  41  37  26 117 138  61 140 165  73 131 153  44 169 187 139 200 210
184 200 210 183 173 184 150 102 123  32 105 127  45 132 146  93 197 207 180 198 207 180
192 205 175 142 163  84 133 159  58 137 160  69 154 183  75 162 190  79 162 190  79 140
166  67 126 149  61 126 149  61 136 160  66 147 175  73 146 172  71 146 172  71 146 172
 71 146 172  71 146 172  71 146 172  71 147 173  72 146 172  71 130 153  63 130 148  62
129 154  63  79  92  46  54  55  47   3   4   6 107 190 198  81 187 198
 76 184 196   8  34  23  41  58  39  80  59  42 190  62  49 196  62  51 195  63  50  95
 58  39  30  58  33  41  37  28 117 138  61 142 168  77 117 147   0 214 218 201 255 255
255 255 254 255 221 219 222   0   0   0   0   0   0 125 125 125 255 254 255 255 255 255
255 255 253 150 170 101 132 157  53 135 161  70 154 181  74 159 187  76 164 193  77 104
121  51   0   0  24   0   0  22 113 136  56 167 196  80 160 188  77 160 189  79 162 190
 80 162 190  80 162 190  79 161 189  79 159 192  79 160 188  78  63  73  36   8   0  23
 34  31  26  48  53  33  63  67  50   4   5   7 108 191 197  81 188 196
 78 187 194   4  24  13  40  58  36  80  60  36 197  64  49 204  65  50 202  63  50 100
 58  34  28  58  34  41  37  28 117 138  59 145 165  78 122 147   1 206 216 192 254 255
255 252 255 253 213 213 211   1   0   2  19  34   1 125 128 121 254 254 254 255 255 255
248 250 247 149 169  98 130 156  49 136 161  70 154 180  73 161 189  78 163 193  79 101
120  54   0   1  23   1   0  22 112 133  56 163 196  81 156 186  74 157 187  75 159 187
 77 159 187  76 159 187  76 157 187  75 162 188  78 158 184  75  59  70  38   9   1  24
 29  29  31  47  51  34  61  68  50   1   5   6 106 189 195  84 188 195
 78 186 196   4  28  15  47  59  39  69  61  40 141  58  42 149  61  41 147  60  41  75
 57  35  43  59  33  39  36  29 117 139  57 143 166  78 118 148   0 206 214 189 255 255
255 255 253 254 215 215 215   0   0   0  11  27   0 126 128 123 255 255 255 255 255 255
250 250 248 151 168  98 131 156  54 136 161  70 154 181  74 159 187  76 163 191  80 136
161  67 117 140  58 117 139  57 138 165  68 161 191  79 159 188  78 160 188  77 160 188
 77 160 188  78 160 188  78 161 189  79 160 188  77 156 188  77 125 147  62 117 140  60
124 147  59  76  87  44  57  58  50   3   7   8 106 190 198  87 189 199
 99 193 203  33  43   8  63  70  54  61  68  52   1  57  30   0  56  31   0  56  31  51
 56  32  60  58  33  47  38  33 116 137  58 142 165  77 118 148   1 207 215 192 255 255
255 255 255 255 214 216 215   0   0   0  38  45  11 129 132 125 255 255 255 255 255 255
251 251 249 151 168  98 130 157  52 135 160  69 154 181  74 161 189  78 159 187  77 162
192  78 164 194  80 164 194  80 162 190  77 159 187  77 160 188  77 160 188  77 160 188
 77 160 188  75 160 188  77 160 188  77 160 188  75 160 188  77 162 192  78 165 194  78
167 197  83  96 112  50  48  46  47   3  13  14 102 189 196  88 191 198
111 196 201   3   4   6   1   0   0   1   1   1  54  52  27  59  57  35  58  56  33   1
 57  32   0  58  34   1  34  27 115 142  61 146 171  79 123 154   1 209 217 194 255 255
255 255 255 255 211 211 211   0   0   0   0   0   0 107 108 102 255 254 255 255 255 255
249 251 248 149 169  98 131 156  52 136 161  70 154 183  75 161 189  78 160 188  77 158
187  77 159 187  77 158 186  76 158 187  77 161 187  77 160 188  77 160 188  77 160 188
 77 160 188  77 160 188  77 160 188  77 161 187  78 160 188  77 158 186  76 157 186  76
162 190  80  93 108  49  49  49  47   9  23  24 102 190 199  92 192 200
 95 193 202 154 195 197 169 201 200 194 195 197  68  70  56  42  49  18  48  57  36 145
 60  40 158  61  44 158  55  41 122 102  49  97 121  61  67  92   1 199 202 191 255 255
255 255 255 255 239 239 239 198 198 196 200 200 198 213 213 213 255 255 255 255 255 255
250 250 250 149 169  98 131 156  52 136 161  70 153 182  72 162 190  79 161 187  77 159
187  76 160 188  77 161 189  78 160 188  77 160 188  77 160 188  77 161 189  78 160 188
 75 160 188  77 161 189  78 159 189  75 160 188  77 160 188  77 159 187  76 157 186  76
163 191  78  93 108  49  49  49  47  11  29  31 103 190 197  92 192 200
 77 187 194  80 186 197  80 187 195 116 200 208  78  81  72  30  41   0  47  59  37 186
 64  45 206  64  50 207  65  51 121  47  38   0  49  46   0   0   0 189 189 189 255 255
255 251 251 253 253 255 254 254 255 253 254 255 253 254 255 255 252 254 253 255 255 255
249 249 247 149 169  98 131 156  52 136 161  70 155 184  76 160 188  77 161 189  79 160
188  77 160 188  77 160 188  77 160 188  77 160 188  78 160 188  77 161 187  77 160 188
 77 160 188  77 160 188  77 160 188  78 161 187  78 159 187  76 160 188  77 159 187  77
162 190  77  94 108  49  49  50  45  11  29  31 103 190 197  92 192 200
103 198 204  75 185 194  73 186 194  95 193 202  77 104  95  33  44   1  48  57  36 179
 62  45 196  63  48 199  64  52 123  62  41  40  71  53   1   1   1 196 196 198 255 255
253 255 255 255 255 255 255 255 255 255 255 255 255 255 255 253 255 255 255 255 255 253
255 255 255 153 170  98 131 157  50 135 160  68 154 183  75 161 189  78 160 186  76 160
188  78 160 188  77 160 188  77 160 188  77 161 188  75 160 188  78 159 189  77 159 187
 76 160 188  77 160 188  77 161 189  76 161 189  78 160 190  76 161 189  78 159 187  77
161 191  79  92 110  50  50  49  47  11  27  27 103 190 197  92 192 200
 77 187 196  77 187 196  76 186 195  77 184 192  78 124 122  32  40   1  50  60  36 181
 60  44 197  62  48 199  62  48 124  59  39  20  62  38   5   0   0 142 151 122 194 205
171 187 198 164 188 199 165 188 199 165 186 200 165 185 199 166 187 201 166 189 200 168
187 199 163 140 164  80 133 159  62 134 160  71 155 183  73 161 189  79 161 189  78 160
188  77 161 187  77 160 188  77 160 188  75 159 188  78 160 188  75 160 186  77 163 189
 79 161 187  77 162 188  78 161 187  78 160 186  76 161 187  78 159 187  77 156 188  77
162 189  74  92 110  50  48  49  44   6  20  20 101 190 196  89 192 199
 75 185 196  75 185 196  75 185 196  74 187 195  75 134 132  32  43   1  47  59  37 180
 61  45 199  64  50 200  63  49 124  59  39   1  60  32  47  37  36  95 116  11 125 154
  0 122 150   1 125 151   2 122 150   1 124 150   1 125 151   2 121 149   0 121 150   0
123 149   0 137 158  63 135 160  68 135 159  65 155 182  75 162 190  79 159 187  77 160
188  78 160 188  77 160 188  77 159 186  79 159 187  77 158 187  77 156 189  76 156 188
 77 158 187  77 155 188  75 156 189  76 157 189  78 159 189  77 156 188  77 160 186  76
160 192  81  92 107  48  49  49  47   7  12  16 101 190 196  87 190 197
 76 186 195  76 186 195  76 186 195  77 185 195  76 144 144  31  42   0  47  59  39 184
 61  46 202  63  50 204  62  50 124  59  39   0  60  34  40  31  26 109 124  57 143 167
 79 139 161  76 138 162  76 138 162  76 138 162  74 138 162  76 138 162  76 138 162  76
139 163  75 135 160  68 136 159  68 133 159  68 155 184  74 162 190  77 162 190  80 160
188  75 160 188  77 160 188  77 162 190  77 162 192  78 162 192  78 161 191  79 163 193
 79 162 191  81 164 193  77 162 192  78 163 191  78 162 192  78 162 192  78 161 191  75
165 193  80  96 112  50  48  46  47   1   5   6 107 191 201  88 190 200
 76 186 195  76 186 195  76 186 197  74 187 195  76 155 159  40  54  19  53  61  40 107
 59  39 117  60  41 117  61  40  78  57  36  45  59  34  36  32  29 106 123  53 141 167
 70 135 158  67 136 159  68 136 159  68 136 159  69 138 159  66 136 159  68 136 159  68
136 159  68 137 160  69 136 159  68 136 159  68 140 166  69 142 170  70 140 166  67 153
180  75 159 187  76 162 192  80 135 158  67  87 102  45  98 114  51  97 113  50  96 112
 49  96 112  49  96 112  49  97 113  51  95 113  51  96 111  52  96 112  50  96 112  50
 99 115  52  67  76  45  61  64  53   2   0   3  96 189 194  76 186 195
 76 186 195  76 186 195  76 186 195  76 186 195  76 176 182  48  88  62  57  62  42  22
 57  33   8  57  35   4  58  32  42  57  34  56  60  35  32  32  30 106 123  53 140 166
 69 134 159  67 136 159  68 136 159  68 136 159  68 136 159  68 136 159  68 136 159  68
137 160  69 139 160  69 136 159  68 136 159  68 134 159  67 133 158  66 132 157  66 151
178  73 160 188  77 165 195  81 124 143  61   0   0  20  40  42  31  32  31  27  30  29
 25  30  29  27  31  29  30  33  32  30  33  32  30  33  31  32  33  32  28  34  32  33
 32  30  31  50  54  37  65  69  52   0   1   0 102 189 196  76 186 195
 76 186 195  76 186 195  77 185 195  76 186 197  76 186 195  53 136 142  42  85  65  30
 43  16  30  31   0  28  28   0  45  50  18  54  60  34  31  30  26 107 124  54 141 167
 70 136 161  69 137 160  69 136 159  68 136 160  66 137 160  69 136 159  68 135 160  68
135 160  68 134 159  67 134 159  67 134 159  65 134 159  68 136 159  69 136 157  64 151
178  73 161 187  77 164 192  79 123 145  60   6   1  25  49  58  31  50  55  33  55  61
 35  55  61  35  49  58  29  26  38   0  26  42   5  26  40   4  24  39   0  25  39   3
 25  41   4  25  44  12  45  73  50  25  58  63  98 188 196  76 186 193
 76 186 195  76 186 195  74 187 195  77 187 196  76 186 195  76 186 195  83 187 196 116
196 203 136 203 209 179 220 224 144 145 139   2   0   1  58  62  47  67  77  43  80  92
 42  70  81  39 100 119  53 138 161  70 134 159  67 136 159  68 136 159  69 136 159  68
137 160  69 154 181  76 156 183  76 155 182  75 155 182  75 155 181  74 155 182  75 158
186  76 160 189  79 161 189  78 155 180  76 144 170  69 148 175  70 127 150  62  40  41
 35  18  33   2 106 109 100 189 220 222  84 188 197  91 189 198  91 190 196  87 190 197
 85 189 198  86 188 200  84 186 198  80 186 197  78 187 194  76 186 195
 76 186 195  75 185 196  78 186 196  76 186 195  76 186 193  74 186 197  76 186 193  75
185 194  76 186 195  79 187 197 116 173 178   4  16  16  57  62  42  44  47  26  43  47
 32  20  12  27  84 101  46 140 164  70 134 159  67 136 159  68 136 160  66 135 158  67
137 160  69 158 186  76 161 189  78 159 189  75 159 189  75 160 190  78 158 188  74 156
189  76 158 188  76 159 187  77 159 189  77 160 190  78 166 196  80 139 165  68  39  37
 38   0  21   0 114 123 118  79 188 195  75 188 196  74 186 197  75 188 196  75 185 196
 77 187 196  76 186 195  76 186 195  74 187 195  76 186 195  77 187 196
 76 186 195  76 186 195  76 186 195  77 187 196  76 186 195  76 186 193  76 186 195  76
186 193  76 186 195  76 186 195  77 185 195  46 107 112  68  76  65  53  61  38  55  61
 35  38  40  29  91 106  51 140 164  70 135 158  67 136 159  68 137 160  69 136 159  68
137 161  67 158 186  76 160 187  80 159 188  80 161 188  81 158 187  79 161 189  79 160
188  78 161 190  80 161 187  78 160 188  78 159 187  77 162 191  81 139 164  72  39  37
 38   0  24   0 102 138 136  77 185 197  76 186 195  77 185 195  76 185 192  77 187 196
 74 186 197  76 186 195  77 185 195  77 185 195  77 187 198  76 186 195
 76 186 195  75 185 194  76 186 195  76 186 195  76 186 195  76 186 197  76 186 195  76
184 194  77 185 195  76 186 193  78 186 196  91 191 197 162 217 219 170 179 178   1   0
  0  51  52  47  91 106  49 139 163  67 131 158  61 152 163  84 209 180 136 206 179 134
210 181 137 243 210 157 244 211 158 244 211 156 244 211 156 247 212 157 245 212 157 245
212 159 244 211 158 244 213 159 245 212 159 242 209 158 251 218 165 214 183 137   1  25
  9  17  25   0  95 149 149  78 187 194  77 187 196  76 186 195  77 187 198  76 186 195
 76 186 195  76 186 193  74 187 195  76 186 195  75 185 192  76 186 195
 75 185 196  76 186 195  76 186 193  76 186 195  77 185 195  76 186 195  75 185 194  77
187 196  75 185 192  75 185 194  76 186 195  85 189 196  78 186 198 100 187 192   2   4
  3  53  54  49  91 106  47 140 164  70 131 157  60 152 165  86 218 182 146 218 185 144
220 185 147 255 215 169 253 217 169 253 216 171 254 216 169 254 216 171 254 216 169 254
216 169 253 217 169 254 216 169 254 216 169 255 215 169 255 221 175 222 187 145   0  21
  2  20  29   2  94 155 157  76 186 195  75 185 194  76 186 195  77 186 193  77 185 195
 76 186 195  76 186 195  76 186 195  77 185 195  76 186 195  76 186 195
 75 185 194  76 186 195  74 187 195  76 184 196  76 186 195  76 186 195  77 185 195  76
186 195  77 185 195  76 186 195  79 187 197  81 187 198  79 188 195 141 185 188   1   1
  1  51  52  47  91 106  49 140 164  70 131 158  61 153 164  86 217 184 143 215 181 143
217 184 143 251 213 164 255 215 169 255 215 166 253 215 166 254 216 167 253 215 166 252
216 166 253 215 166 254 216 167 253 215 166 254 213 167 254 220 172 219 186 143   0  24
  2  17  26   0  92 157 159  74 187 195  76 186 195  76 186 195  76 186 195  76 186 195
 76 186 193  76 186 195  75 185 196  76 186 195  76 186 195  76 186 195
 74 187 195  77 187 196  76 186 195  76 186 195  77 185 195  76 186 195  76 186 195  76
186 195  76 186 195  81 162 166  86 136 135  87 116 111  89 120 114  75  81  67  51  56
 26  40  41  33  91 106  47 139 163  69 131 158  61 154 165  87 217 184 143 215 181 143
219 184 144 254 213 167 254 216 167 254 216 169 255 215 169 255 215 169 255 215 169 255
215 169 255 215 169 255 215 169 255 215 169 255 214 168 253 221 172 220 187 144   0  24
  0  18  27   0  90 158 161  76 186 195  76 186 197  76 186 195  76 186 195  76 186 195
 76 186 195  76 186 195  76 186 195  76 186 195  76 186 195  76 186 195
 76 186 195  76 186 195  76 186 195  77 185 195  76 186 195  76 186 195  76 186 195  76
186 195  44 109 113  44  71  39  11  23   0   4  15   0   0  10   0  30  34   9  48  51
 34  22  14  27  88 103  46 141 165  71 131 158  63 153 164  86 217 184 143 215 182 141
218 185 144 251 213 166 254 216 167 255 215 169 255 215 169 255 215 169 255 215 169 254
216 169 255 215 169 255 215 169 255 215 169 255 214 168 254 220 172 220 187 144   0  24
  0  18  27   0  90 158 161  76 186 195  76 186 195  76 186 195  76 186 195  76 186 195
 76 186 195  76 186 195  76 186 195  76 186 195  76 186 195  76 186 195
 76 186 195  76 186 195  77 185 195  76 186 195  75 185 194  76 186 195  76 186 195  84
179 185  16  53  43  59  63  48  68  78  43  75  87  47  74  85  45  73  84  42  73  84
 42  64  74  37 101 116  51 139 164  72 132 157  63 153 166  87 217 184 143 216 183 142
218 185 144 255 214 168 254 216 167 255 216 170 255 215 169 255 214 171 255 217 168 255
215 169 255 215 169 255 215 169 255 215 169 255 215 167 254 220 174 220 187 142   0  25
  0  17  27   1  90 158 161  76 186 195  76 186 195  76 186 195  76 186 195  76 186 195
 76 186 195  76 186 195  76 186 195  76 186 195  76 186 195  76 186 195
 76 186 195  76 186 195  76 186 195  77 187 196  74 187 195  76 186 195  76 186 195  89
166 172   3  21   7  40  35  39 136 156  67 158 191  78 155 184  74 157 184  77 157 185
 75 158 187  77 151 178  75 135 158  67 132 159  62 152 163  85 218 184 146 215 182 141
217 184 143 249 211 166 255 215 169 254 213 167 255 215 171 255 214 168 255 215 169 254
216 169 255 215 169 255 215 169 255 215 169 252 214 169 254 221 170 217 186 142   0  22
  1  18  27   0  90 158 161  76 186 195  76 186 195  76 186 195  76 186 195  76 186 195
 76 186 195  76 186 195  76 186 195  76 186 195  76 186 195  76 186 195
 76 186 197  76 186 195  76 186 195  76 186 197  74 187 195  76 186 195  76 186 195  91
165 166   0  17   0  38  33  40 139 163  67 166 196  80 160 190  76 161 191  77 161 189
 78 161 191  77 154 181  74 135 158  67 132 158  61 155 163  86 221 183 146 218 183 145
220 187 146 255 217 170 255 217 170 254 220 172 254 216 169 254 218 170 255 216 167 255
215 169 254 216 171 254 216 169 254 216 169 255 216 167 254 220 175 223 188 148   0  21
  2  18  26   1  92 157 161  76 186 195  76 186 195  76 186 195  76 186 195  76 186 195
 76 186 195  76 186 195  76 186 195  76 186 195  76 186 195  76 186 195
 76 186 195  76 186 195  76 186 195  76 186 193  76 186 195  76 186 195  76 186 195  92
167 173   0  12   0  41  40  38 127 150  62 152 179  74 146 172  73 152 179  76 155 184
 74 157 185  75 149 176  73 135 158  67 130 160  60 152 163  84 205 181 135 207 178 134
209 180 136 232 197 155 238 201 157 235 198 154 248 210 165 250 209 163 248 210 165 247
209 164 248 210 163 251 210 167 247 211 161 240 209 155 249 217 160 209 182 137   2  26
 12  14  27   0  90 158 161  76 186 195  76 186 195  76 186 195  76 186 195  76 186 195
 76 186 195  76 186 195  76 186 195  76 186 195  76 186 195  76 186 195
 76 186 195  77 185 195  76 186 195  76 186 195  77 187 196  76 186 195  75 185 194  85
174 180  22  50  28  65  69  54  51  56  34  51  55  31  27  27  27 105 122  54 140 165
 71 133 158  66 134 159  67 136 159  68 136 159  69 136 159  68 135 160  66 136 161  67
131 158  65  59  71  35  42  50  29  21  46  15 194 164 126 218 186 147 214 181 140 215
182 141 214 183 139 218 182 146 192 185 117 152 187  67 164 192  81 138 164  67  39  37
 38   0  24   2  91 159 162  76 186 195  76 186 195  76 186 195  76 186 195  76 186 195
 76 186 195  76 186 195  76 186 195  76 186 195  76 186 195  76 186 195
 76 186 195  76 186 195  76 186 195  76 186 195  76 186 195  76 186 195  76 186 195  76
185 192  29  77  79   0   0   0  33  41   0  54  62  37  29  28  26 108 125  55 142 168
 69 138 161  70 138 162  68 136 159  68 136 159  69 135 160  68 133 158  66 134 159  67
131 154  64  49  57  34  24  22  27   0   0   7 201 169 131 223 190 147 220 187 146 219
184 146 217 182 144 222 182 149 194 185 120 152 187  67 164 192  81 138 164  67  39  37
 38   0  24   0  90 159 162  76 186 197  76 186 195  76 186 195  76 186 195  76 186 195
 76 186 195  76 186 195  76 186 195  76 186 195  76 186 195  76 186 195
 76 186 195  76 186 195  76 186 195  76 186 195  76 186 195  76 186 195  76 186 195  76
186 195  85 175 183 124 156 153  90  93  82  40  49   4  41  42  34  96 112  49 127 149
 64 120 142  60 127 150  62 137 161  65 136 159  68 137 161  65 141 167  70 142 168  69
141 165  71  97 113  51  90 105  48  87 105  43 179 155 117 198 168 132 192 164 127 200
178 129 205 186 128 207 184 134 185 185 111 154 187  70 166 192  83 139 165  68  38  36
 37   0  24   0  87 165 167  77 187 196  76 186 195  76 186 195  76 186 195  76 186 195
 76 186 195  76 186 195  76 186 195  76 186 195  76 186 195  76 186 195
 76 186 195  76 186 195  76 186 195  76 186 195  76 186 195  76 186 195  76 186 195  76
186 195  76 186 195 117 202 207 138 169 171   0   0   0  70  73  62  59  61  48  56  60
 46  42  40  45  92 106  53 138 165  68 133 158  67 140 164  70 160 190  78 160 188  77
159 189  77 162 190  79 161 191  79 164 192  79  79  99  38   0  15   8   1   0   5 128
155  60 161 191  75 153 186  71 157 187  75 158 187  77 161 189  76 139 164  72  53  51
 52  38  62  28  85 174 180  76 186 195  76 186 195  76 186 195  76 186 195  76 186 195
 76 186 195  76 186 195  76 186 195  76 186 195  76 186 195  76 186 195
 76 186 195  76 186 195  76 186 195  76 186 195  76 186 195  76 186 195  76 186 195  76
186 195  76 186 195  76 186 195  90 179 185  29  73  74   8  22  23   0   0   0   0   0
  0   0   0   2  72  93   0 144 170  73 137 162  68 143 169  70 163 191  80 161 189  78
161 189  78 158 188  76 158 187  77 163 191  81  89 102  46  45  47  33  31  27  28 136
159  68 169 198  82 163 191  80 163 193  81 162 192  80 168 198  84 138 163  59   1   1
  1  32  77  80  74 187 195  76 186 195  76 186 195  76 186 195  76 186 195  76 186 195
 76 186 195  76 186 195  76 186 195  76 186 195  76 186 195  76 186 195
 76 186 195  76 186 195  76 186 195  76 186 195  76 186 195  76 186 195  76 186 195  76
186 195  76 186 195  76 186 195  77 185 195  73 186 192  96 179 185 113 173 175 130 164
165 153 158 154 143 151 130 116 137  44 116 137  62 127 147  60 153 180  73 153 178  76
153 180  75 158 187  77 161 189  78 161 189  78  89 102  48  40  42  29  39  40  32 115
136  59 140 168  68 137 160  69 138 161  70 139 163  69 136 163  58 141 161  98 134 162
166  87 180 185  75 185 194  77 187 198  76 186 195  76 186 195  76 186 195  76 186 195
 76 186 195  76 186 195  76 186 195  76 186 195  76 186 195  76 186 195
 76 186 195  76 186 195  76 186 195  76 186 195  76 186 195  76 186 195  76 186 195  76
186 195  77 187 196  76 186 195  76 186 193  76 186 195  78 186 196  77 187 196  83 190
198 138 208 216 142 202 204   3   7  10  58  53  57  77  87  60 133 158  67 134 157  67
135 158  67 155 184  76 157 186  76 161 189  79  85 102  47  35  34  30  54  63  36  38
 40  29  28  26  29  28  27  25  41  37  36  61  57  58   0   0   0 136 162 163 119 204
209  76 184 196  75 185 194  76 186 195  76 186 195  76 186 195  76 186 195  76 186 195
 76 186 195  76 186 195  76 186 195  76 186 195  76 186 195  76 186 195
 76 186 195  76 186 195  76 186 195  76 186 195  76 186 195  76 186 195  76 186 195  76
186 195  76 186 195  76 186 197  77 185 197  73 186 194  77 185 197  75 185 194  75 185
196  77 187 194  77 187 198  29  64  68   1   1   1  38  60   0 141 167  70 139 163  69
140 166  69 163 190  77 165 195  83 166 197  78  91 104  48  32  35  28  52  57  35  52
 57  33  52  58  32  57  62  42   6  29   1   1   1   3  15  38  43  94 173 180  76 186
197  75 188 194  77 187 196  76 186 195  76 186 195  76 186 195  76 186 195  76 186 195
 76 186 195  76 186 195  76 186 195  76 186 195  76 186 195  76 186 195
 76 186 195  76 186 195  76 186 195  76 186 195  76 186 195  76 186 195  76 186 195  76
186 195  76 186 195  76 186 195  76 186 193  77 185 195  76 186 193  76 186 195  76 186
195  77 185 197  77 185 195  91 184 191 136 175 178 158 166 155 113 132  51 112 133  58
113 134  55 131 154  64 131 156  65 132 157  66  77  89  41  42  44  33  50  58  33  52
 57  35  56  61  39  14  29   0 126 126 118 158 177 181 103 178 184  74 187 195  76 186
195  77 185 197  73 186 194  76 186 195  76 186 195  76 186 195  76 186 195  76 186 195
 76 186 195  76 186 195  76 186 195  76 186 195  76 186 195  76 186 195
 76 186 195  76 186 195  76 186 195  76 186 195  76 186 195  76 186 195  76 186 195  76
186 195  76 186 195  76 186 195  77 187 196  74 187 195  76 186 195  76 186 195  76 186
195  76 186 193  77 187 198  77 185 197  82 189 197 127 202 208  31  32  27  51  51  49
 55  55  53  44  42  47  45  43  48  46  41  47  60  63  52  64  68  51  64  68  51  64
 68  53  73  77  63   0   0   0 178 190 190 149 214 218  74 186 197  76 186 195  76 186
195  74 187 193  76 186 195  76 186 195  76 186 195  76 186 195  76 186 195  76 186 195
 76 186 195  76 186 195  76 186 195  76 186 195  76 186 195  76 186 195
 76 186 195  76 186 195  76 186 195  76 186 195  76 186 195  76 186 195  76 186 195  76
186 195  76 186 195  77 187 196  76 186 195  76 186 195  76 186 195  76 186 195  74 187
195  76 186 195  76 186 195  76 186 195  76 184 194 113 197 205  20  45  49   2   0   1
  0   0   0   1   0   0   0   1   0   0   0   0   0   1   0   1   0   0   0   0   0   0
  0   0   0   0   0   0   0   0 136 180 181  96 193 200  76 186 195  76 186 195  76 186
195  75 185 194  76 186 195  74 187 195  76 186 195  76 186 195  76 186 195  76 186 195
 76 186 195  76 186 195  76 186 195  76 186 195  76 186 195  76 186 195
 77 185 195  77 185 195  76 186 195  76 186 195  75 185 194  77 187 196  77 187 196  76
186 195  76 186 195  76 186 195  76 186 195  76 186 195  76 186 195  76 186 195  76 186
195  76 186 195  76 186 193  74 187 195  76 186 195 117 200 206 142 183 185 178 184 184
184 184 182 183 183 181 184 183 181 179 183 182 177 183 183 179 183 182 180 184 183 182
184 183 184 186 183 159 179 178 144 201 206  83 190 198  75 185 194  76 186 195  76 186
195  76 186 193  76 186 195  76 186 195  76 186 195  76 186 195  76 186 195  76 186 195
 76 186 195  76 186 195  76 186 195  76 186 195  75 185 192  76 186 195
 78 186 196  79 187 197  76 186 195  77 187 196  75 185 194  76 186 195  76 186 195  76
186 195  76 186 195  76 186 195  76 186 195  76 186 195  76 186 195  76 186 195  76 186
195  76 186 195  76 186 197  76 186 195  83 190 198  91 190 203  83 190 198  81 188 196
 81 187 198  89 191 201  86 188 198  80 189 194  79 187 197  88 190 200  88 191 198  96
194 203  82 189 197  82 189 197  81 190 197  78 186 196  80 186 197  76 186 195  76 186
195  76 186 193  76 186 197  76 186 195  76 186 195  76 186 195  76 186 195  76 186 195
 76 186 195  76 186 195  76 186 195  76 186 195  78 187 194  80 188 198
