P3
# 8-bit ppm - RGB
50 50
255
 84  77  85  79  72  80  81  74  82  82  75  83  82  75  83  82  75  83  83  76  84  83
 76  84  83  76  84  83  76  84  84  77  85  85  78  86  87  80  88  82  74  83  69  61
 69  81  76  81 107 102 107 126 119 123 121 113 119 116 108 118 125 118 127 115 111 121
118 113 125 121 113 125 115 109 120  99  92 101  92  85  93  83  76  84  83  76  84  84
 77  85  85  78  86  83  76  84  83  76  84  83  76  84  83  76  84  83  76  84  83  76
 84  82  75  83  82  75  83  82  75  83  82  75  83  81  74  82  81  74  82  81  74  82
 81  74  82  81  74  82  81  74  82  81  74  82  78  71  79  83  76  84
 84  77  85  80  73  81  81  74  82  82  75  83  82  75  83  82  75  83  82  75  83  83
 76  84  83  76  84  85  78  86  84  77  85  87  80  87  78  71  79  92  85  91 162 155
161 188 181 183 202 196 195 222 212 213 215 203 206 196 185 187 191 181 182 193 190 193
186 184 188 175 172 175 174 167 173 165 159 166 127 121 129  87  81  89  84  77  85  86
 79  87  84  77  85  85  78  86  83  76  84  83  76  84  83  76  84  83  76  84  83  76
 84  82  75  83  82  75  83  82  75  83  82  74  83  81  74  82  81  74  82  81  74  82
 81  74  82  81  74  82  81  74  82  81  74  82  79  72  80  84  77  84
 85  78  86  80  73  81  82  75  83  82  75  83  82  75  83  83  76  84  83  76  84  83
 76  84  83  76  84  84  77  85  88  81  89  84  78  85 112 104 113 178 173 179 220 213
214 208 196 194 212 200 196 221 207 207 217 202 204 215 199 199 213 201 200 221 213 213
236 227 229 216 209 214 195 185 190 182 167 171 160 144 149 122 110 119  93  85  93  81
 75  82  85  78  86  86  79  87  83  76  84  83  75  84  83  76  84  83  76  84  83  76
 84  83  76  84  83  76  84  82  75  83  82  75  83  82  75  83  82  75  83  81  74  82
 81  74  82  81  74  82  81  74  82  81  74  82  79  72  80  84  77  85
 85  78  86  80  73  81  82  75  83  82  75  83  82  75  83  82  75  83  82  75  83  83
 76  84  84  77  85  84  77  85  88  81  89 138 131 138 174 168 176 219 215 220 228 221
218 210 200 195 216 204 204 218 206 206 219 207 208 220 208 211 223 209 212 219 208 211
216 201 206 217 206 210 199 186 192 171 156 158 148 133 134 137 118 121 120 105 116  97
 89  98  82  75  83  85  77  85  83  76  84  82  75  84  83  76  84  83  76  84  83  76
 84  83  76  84  82  75  83  82  75  83  82  75  83  82  75  83  81  74  82  81  74  82
 81  74  82  80  73  81  80  73  81  80  73  81  79  72  80  84  77  85
 85  78  86  80  73  81  82  75  83  82  75  83  82  75  83  82  75  83  82  75  83  82
 75  83  85  78  85  77  68  78 129 124 130 188 178 187 196 185 194 220 211 212 220 210
211 219 210 210 219 208 210 230 218 224 232 221 227 225 209 210 215 188 188 220 192 194
213 193 194 203 185 185 199 176 179 193 176 179 174 157 161 152 134 140 138 119 127 129
114 123 128 121 129 103  96 104  82  75  83  84  77  85  82  75  83  83  76  84  83  76
 84  82  75  83  82  75  83  82  75  83  82  75  83  82  75  83  81  74  82  81  74  82
 81  74  82  80  73  81  80  73  81  80  73  81  79  72  80  83  76  84
 85  78  86  80  73  81  83  76  84  83  76  84  83  76  84  83  76  84  83  76  84  85
 78  86  78  70  79 123 119 124 200 192 198 200 189 197 196 183 189 205 192 197 208 195
196 216 199 201 222 203 206 221 200 201 218 193 191 221 196 195 223 188 181 226 196 194
221 192 191 211 182 178 194 157 152 186 145 140 184 146 142 165 132 132 147 121 125 137
120 124 146 130 138 170 161 170 114 107 117  79  72  80  85  78  85  83  76  84  82  75
 83  82  75  83  82  75  83  82  75  83  82  75  83  81  74  82  81  74  82  81  74  82
 81  74  82  81  74  82  80  73  81  81  74  82  79  72  80  85  78  86
 85  78  86  81  74  82  83  76  84  82  75  83  83  76  84  83  76  84  85  78  86  80
 73  81  97  90  97 185 181 185 219 210 215 195 182 187 192 180 184 214 200 206 207 186
189 209 179 180 210 175 170 221 189 185 227 194 190 228 197 194 234 203 198 235 207 206
233 194 186 222 179 170 204 157 147 202 150 141 204 152 142 187 140 129 165 123 119 153
123 123 144 124 129 180 169 179 178 170 180 101  93 102  84  77  85  84  77  85  82  75
 83  82  75  83  82  75  83  82  75  83  82  75  83  81  74  82  81  74  82  81  74  82
 81  74  82  81  74  82  81  74  82  81  74  82  80  73  81  86  79  87
 85  78  86  79  72  80  81  74  82  81  74  82  82  74  83  82  75  83  84  77  85  78
 71  79 125 119 123 196 189 194 218 207 213 200 186 190 197 175 180 199 176 176 208 178
179 218 182 176 221 183 173 230 197 188 245 213 208 244 207 201 239 204 200 239 199 193
237 192 180 232 181 169 224 168 156 224 168 154 215 159 143 199 143 126 181 130 116 168
124 119 175 152 157 198 186 196 205 195 204 157 147 158  89  81  92  84  77  85  83  76
 84  83  76  84  83  76  84  82  75  83  82  75  83  82  75  83  81  74  82  81  74  82
 81  74  82  82  75  83  82  74  83  82  75  83  80  73  82  86  79  87
 85  78  86  79  72  80  82  74  83  82  75  83  82  75  83  82  75  83  82  75  83  86
 80  88 132 125 129 206 195 201 220 208 213 203 185 185 161 132 132 170 129 123 215 172
166 226 187 178 238 201 193 248 213 206 250 214 208 252 217 212 249 215 212 246 205 199
238 192 177 241 187 173 241 182 171 237 180 167 227 167 149 210 148 130 186 130 112 171
124 112 174 139 140 200 187 197 201 193 202 180 167 177 124 114 124  84  78  86  84  77
 85  83  76  84  83  76  84  83  76  84  82  75  83  82  75  83  82  75  83  83  76  84
 82  75  83  82  75  83  82  75  83  82  75  83  81  74  82  86  79  87
 85  78  86  80  73  81  82  75  83  82  75  83  82  75  83  82  75  83  85  78  86  74
 68  76 146 138 143 211 199 206 212 197 204 192 170 173 165 131 128 200 160 154 236 191
183 242 195 188 248 207 199 252 218 210 252 221 216 253 228 227 253 234 229 252 220 212
251 204 192 249 194 182 246 188 179 243 182 173 236 170 156 218 155 138 193 137 120 169
122 110 163 122 117 185 163 168 204 196 205 173 161 168 150 138 143 103  96 102  80  74
 82  84  77  85  83  76  84  83  76  84  83  76  84  83  76  84  82  75  83  83  76  84
 83  76  84  82  75  83  82  75  83  82  75  83  81  74  82  86  79  87
 86  79  87  81  74  82  83  76  84  83  76  84  83  76  84  83  76  84  84  77  85  76
 70  78 145 138 144 197 186 188 209 192 197 196 175 179 187 155 152 228 188 183 250 206
197 252 204 191 253 208 198 253 218 211 253 233 233 252 239 240 253 237 237 252 223 219
252 206 201 250 194 189 249 190 184 240 180 170 225 164 149 217 160 140 200 145 126 170
121 112 151 110 103 162 132 131 206 195 204 175 166 170 151 136 140 132 118 127  82  75
 84  84  77  85  83  76  84  83  76  84  83  76  84  83  76  84  83  76  84  83  76  84
 83  76  84  82  75  83  82  75  83  83  75  84  81  74  82  86  79  87
 87  80  88  82  75  83  83  76  84  84  77  85  83  76  84  83  76  84  85  78  86  79
 72  81 130 122 128 192 179 179 209 192 199 197 179 186 194 165 164 236 193 185 251 202
194 251 203 187 253 208 195 253 215 210 252 234 235 252 241 243 252 228 230 250 212 209
249 206 201 248 198 193 245 187 180 234 175 164 224 166 150 214 158 139 196 140 123 175
125 113 148 109 106 147 107 105 192 174 183 189 179 183 151 135 139 141 129 133  92  83
 92  83  74  83  85  78  86  83  76  84  83  76  84  83  76  84  83  75  83  83  76  84
 83  76  84  83  76  84  82  76  83  83  76  84  81  74  82  86  79  87
 88  80  88  82  75  83  84  77  85  84  76  85  85  78  86  85  78  86  87  80  87  78
 72  81 116 106 113 175 162 162 204 187 194 205 187 194 210 178 179 237 193 181 245 198
182 249 199 184 253 205 192 253 213 208 251 221 221 253 223 225 252 214 214 249 205 200
251 204 200 245 196 190 238 179 172 228 169 160 213 154 140 199 142 128 191 134 119 173
125 111 142 105 101 136  99  96 182 164 172 189 179 184 159 143 145 142 131 132  97  88
 97  83  72  81  86  77  86  84  77  85  85  75  84  85  75  84  84  75  84  83  76  84
 83  76  84  82  75  83  82  75  83  82  75  83  81  74  82  87  80  88
 87  80  88  82  75  83  84  77  85  83  76  84  83  76  84  84  77  85  86  79  87  79
 73  81 108  98 106 171 156 160 200 183 189 210 193 200 211 183 183 237 190 179 239 191
175 243 194 179 249 199 186 250 205 196 250 203 200 250 206 203 252 206 203 247 201 195
247 196 192 238 183 175 232 172 163 217 157 146 205 149 134 193 139 123 186 135 117 164
117 104 136 101  97 125  94  90 174 154 159 181 169 174 161 145 148 137 122 127  98  86
 97  86  75  84  86  78  86  85  75  84  86  74  84  86  75  85  84  76  84  83  76  84
 83  76  84  82  75  83  82  75  83  82  75  83  80  73  81  86  79  87
 86  79  87  81  74  82  82  75  83  83  76  84  82  75  83  84  77  85  87  80  87  79
 73  81 107  97 106 173 157 164 177 158 164 203 189 195 213 189 195 232 187 176 231 182
165 238 189 174 242 194 179 245 196 186 246 204 196 246 207 200 247 200 196 239 188 180
240 186 179 240 184 179 231 174 164 216 157 144 210 153 138 198 144 126 179 131 111 163
116 103 140 103  99 119  87  84 146 124 127 163 151 156 154 138 143 128 112 119  88  75
 86  87  76  85  85  76  85  85  74  84  86  74  84  86  75  85  85  75  84  83  75  84
 82  75  83  82  75  83  83  74  83  83  75  83  80  73  81  85  78  86
 86  79  87  81  74  82  82  75  83  83  76  84  83  76  84  84  77  85  86  79  87  82
 75  83  97  87  97 157 148 152 161 144 148 190 176 181 208 187 195 221 181 174 228 178
161 235 186 171 239 190 176 242 194 180 245 203 194 249 209 202 248 202 197 242 193 188
242 195 188 239 187 182 231 173 166 229 174 162 224 172 154 193 143 121 183 136 120 176
128 115 141 103  97 118  87  83 127 103 101 158 144 148 146 131 137 103  90  97  85  74
 83  87  75  85  86  74  84  86  74  84  86  74  84  86  74  84  86  74  84  84  74  83
 82  75  83  83  74  83  84  74  83  84  74  83  81  73  81  86  79  87
 85  78  86  80  73  81  82  75  83  82  75  83  83  76  84  83  76  84  85  78  86  82
 75  83  92  86  94 160 152 158 168 153 158 183 164 169 196 178 183 213 179 179 227 179
167 233 185 171 237 189 175 245 197 183 249 208 198 251 213 207 250 204 199 244 195 192
244 196 192 238 188 185 236 189 184 240 192 179 212 159 146 189 138 126 197 150 138 181
133 119 146 108 100 127  95  87 122  93  90 158 138 144 126 110 116  83  72  79  87  76
 86  86  74  84  86  74  84  86  74  84  86  74  84  86  74  84  86  74  84  84  74  83
 82  75  83  83  74  83  84  74  83  84  74  83  81  74  82  86  80  87
 85  78  86  81  73  82  82  75  83  82  75  83  82  75  83  83  76  84  84  77  85  85
 78  86  87  80  89 155 145 158 180 168 175 175 160 164 187 169 172 208 178 178 226 180
169 236 188 173 243 195 182 245 197 186 243 201 192 250 210 204 247 202 196 241 189 183
241 186 181 240 188 183 234 187 180 214 165 153 197 147 141 195 152 150 200 163 158 197
158 151 164 124 117 139 107 101 118  92  88 127 106 110 107  83  88  84  74  83  88  76
 86  86  74  84  86  74  84  86  74  84  86  74  84  86  74  84  83  75  84  83  75  83
 82  75  83  82  74  83  83  74  83  83  75  83  81  74  82  86  79  87
 85  78  86  81  74  82  82  75  83  82  75  83  82  75  83  84  77  85  84  77  86  85
 78  85  84  77  87 132 122 134 184 171 181 176 165 174 183 161 166 200 159 155 233 188
173 239 198 182 246 202 196 243 203 200 239 197 191 234 187 183 230 181 170 225 170 157
218 159 149 217 158 147 198 144 131 176 131 122 171 139 138 157 132 134 155 125 125 150
117 113 136 103  97 133 103 102 117  88  84 112  90  89 106  89  92  84  73  84  87  75
 85  86  74  84  86  74  84  86  74  84  85  73  83  85  74  84  83  76  84  83  76  84
 83  76  84  82  75  83  82  75  83  82  75  83  81  74  82  87  79  88
 86  79  87  81  74  82  82  75  83  82  75  83  83  76  84  85  78  86  85  78  86  84
 77  85  85  78  85  77  70  80 157 136 144 181 169 176 169 152 156 195 148 136 238 193
182 237 199 187 240 200 192 223 184 179 195 155 153 188 143 142 192 142 132 187 135 122
192 137 123 186 127 113 150 100  88 114  80  75  93  63  59  91  56  49 108  71  65 104
 68  61 106  78  72 113  84  82 125  94  92 126  99  98 107  94  99  85  76  85  86  74
 84  86  74  84  86  75  84  85  75  84  84  74  83  85  75  84  84  75  84  83  76  84
 82  75  83  82  75  83  82  75  83  82  75  83  81  74  82  86  79  87
 86  79  87  81  74  82  83  76  84  82  75  83  84  77  85  85  78  86  85  78  86  84
 77  85  86  78  86  77  73  84 112  88  91 184 148 150 154 131 136 202 155 146 235 192
183 219 179 174 217 177 169 209 164 155 177 131 121 141  98  82 134  88  80 147 100  91
213 170 162 222 178 166 156 117 106  88  56  55  91  60  54  80  62  60  53  49  52  80
 59  60  95  69  63 111  83  80 128  98  94 125  97  92 103  87  91  90  79  89  85  74
 84  86  74  84  83  76  84  83  76  84  83  76  84  83  76  84  83  76  84  83  76  84
 82  75  83  82  75  83  82  75  83  82  75  83  80  73  81  86  79  87
 86  79  87  81  74  82  83  76  84  83  76  84  84  77  85  85  78  86  85  78  86  85
 78  86  86  78  86  85  79  85  77  73  82 173 139 139 167 137 139 217 174 162 223 181
172 200 161 157 190 148 146 138 105 102  94  76  72 111  82  76 125  82  74 127  80  61
225 191 184 246 207 197 156 117 105  62  35  26 113  76  75 144 103 105 141 101 101 128
 92  91 105  77  68 124  90  78 131 101  98 110  84  82 104  88  91  93  83  93  86  75
 84  87  76  86  83  76  84  83  76  84  83  76  84  83  76  84  82  75  83  82  75  83
 82  75  83  82  75  83  82  75  83  82  75  83  80  73  81  86  79  87
 86  79  87  81  74  82  83  76  84  83  76  84  83  76  84  84  77  85  84  77  85  84
 77  85  85  78  86  87  79  86  72  65  75 148 131 141 181 161 164 184 145 132 209 165
152 220 177 164 155 109  97 153 114 111 151 121 124 164 117 113 170 109  98 194 143 125
200 152 143 223 174 167 150 106  96 125  89  82 151 105  97 154 105  97 152 102  94 140
 94  82 166 118 104 176 126 111 142 111 108 126 100 102 109  93 101  89  78  88  87  75
 84  87  76  86  85  76  84  84  75  84  84  75  84  83  75  84  82  75  83  82  75  83
 82  75  83  82  75  83  82  75  83  81  74  82  80  73  81  86  79  87
 86  79  87  82  75  83  83  76  84  83  76  84  83  76  84  83  76  84  83  76  84  84
 77  85  85  78  86  87  80  88  75  68  76 128 119 131 186 165 171 172 138 135 197 159
149 233 186 170 231 183 166 212 158 141 195 135 126 179 118 105 222 172 161 204 157 142
192 157 152 253 213 209 157 107 101 122  87  82 170 118 108 187 137 122 202 149 136 204
150 137 217 162 147 195 143 129 146 113 109 128 103 103 105  90  99  84  73  83  86  75
 84  85  75  84  87  76  85  86  74  84  85  74  84  83  74  83  82  75  83  82  75  83
 82  75  83  82  75  83  82  75  83  82  75  83  81  74  82  86  79  87
 87  80  88  82  75  83  83  76  84  83  76  84  84  77  85  85  78  86  85  78  86  85
 78  86  85  78  86  86  79  87  85  77  85  90  81  91 178 160 168 209 178 176 193 159
152 232 184 167 248 202 188 235 194 183 227 187 179 237 205 198 250 206 196 216 167 150
226 183 176 253 208 206 187 126 123 132  92  87 149 102  94 194 137 127 222 163 152 221
164 151 208 153 136 183 138 125 147 111 110 125  99  97 107  92  99  84  73  83  87  76
 85  85  75  84  85  75  84  85  75  84  85  74  84  83  75  83  82  75  83  82  75  83
 82  75  83  82  75  83  82  75  83  82  75  83  81  74  82  86  79  87
 87  80  88  82  75  83  83  76  84  84  77  85  84  77  85  85  78  86  85  78  86  85
 78  86  85  78  86  84  77  85  89  81  89  70  60  72 136 125 134 210 184 189 196 164
156 224 182 169 249 204 193 255 219 216 253 218 215 248 208 199 224 170 160 211 159 150
250 204 198 245 197 196 202 138 133 169 116 113 159 114 109 150 103  96 192 134 125 191
134 122 176 120 106 154 110 101 128  95  89 120  94  92 104  89  95  85  73  84  87  77
 86  85  75  84  84  75  84  83  75  84  84  76  84  83  76  84  82  75  83  82  75  83
 82  75  83  82  75  83  83  76  84  82  75  83  81  74  82  86  80  87
 87  80  88  81  74  82  82  75  83  82  75  83  83  76  84  83  76  84  84  77  85  84
 77  85  86  80  87  91  85  92  92  86  94  88  80  89 106  97 108 208 186 194 220 187
182 227 184 177 236 188 176 233 185 176 225 174 167 200 141 133 198 146 137 243 197 192
249 199 197 245 194 194 214 146 143 184 127 125 184 132 130 125  84  76 129  84  78 125
 77  68 124  76  67 111  73  66 112  81  72 117  92  90 102  88  96  85  73  84  86  76
 85  84  75  84  84  75  84  82  76  84  83  76  84  83  76  84  83  76  84  83  75  84
 82  75  83  83  76  84  83  76  84  83  76  84  81  74  82  87  79  88
 86  79  87  81  74  82  83  75  84  82  75  83  82  75  83  83  76  84  84  77  85  90
 83  91  86  79  87  62  52  64  59  46  60  63  53  64  23   0  34 178 166 172 228 196
190 231 184 171 210 156 140 179 125 110 154 101  95 134  79  74 191 143 137 213 168 162
231 182 179 229 175 172 195 136 134 125  86  82  76  39  39  99  64  62 105  73  71  98
 71  68  92  63  56 105  75  69  99  68  63 115  92  93 105  91 100  85  73  84  86  75
 84  83  76  84  83  76  84  83  76  84  83  76  84  83  76  84  83  76  84  83  76  84
 83  76  84  83  76  84  83  76  84  83  75  84  81  74  82  88  79  88
 86  79  87  81  75  83  86  79  87  88  82  89  90  84  92  92  84  91  93  83  92  67
 53  67  77  64  80 138 133 140 152 151 155 142 141 145 176 174 179 222 218 227 221 193
195 210 170 162 176 128 123 130  80  75 109  68  63 155 108 105 193 141 139 164 116 117
144 105 103 123  80  75  83  50  46  56  36  35  77  57  56 106  85  84 129 104 108 127
104 105 107  82  80 111  82  79 100  73  71 121  99 101 102  90  97  85  73  84  88  77
 86  83  75  84  83  76  84  83  76  84  83  76  84  83  76  84  83  76  84  83  76  84
 83  76  84  82  75  83  82  75  83  82  75  83  81  74  82  87  79  87
 91  83  91  91  83  91  84  75  84  68  57  70  57  41  56  53  41  55  61  54  66 123
121 127 217 215 219 254 253 254 251 251 251 253 253 253 255 255 255 250 249 253 223 204
212 190 158 156 146 106 107 124  83  83 148 116 116 188 155 155 212 179 179 207 176 175
176 148 147 125 101 100  77  57  55  84  62  61 104  82  82 115  93  96  99  79  81  69
 52  51 126 103 104 131 103 102 116  93  95 129 110 116  96  85  94  83  72  79  84  74
 83  85  76  84  85  77  85  85  76  85  83  76  84  83  76  84  82  75  83  82  75  83
 82  75  83  82  75  83  82  75  83  82  75  83  81  74  82  86  79  87
 83  72  82  47  18  43  86  78  89 131 127 135 166 164 172 195 193 200 214 213 218 245
244 248 255 255 255 253 254 254 251 251 251 249 248 251 253 253 252 251 252 251 230 221
226 200 171 174 178 140 138 189 148 148 174 148 148 167 147 149 184 159 163 185 159 161
176 149 147 130 101  98 104  75  72  83  57  56  85  57  62  81  53  56  75  46  43  95
 68  63 141 116 118 133 111 113 119  99 101 116 101 108  95  89  97 103  95 106  94  83
 93  83  71  81  82  70  79  82  72  80  83  76  83  84  77  85  83  76  85  82  75  83
 81  75  83  82  75  83  82  75  83  82  75  83  81  74  82  87  80  88
109 104 114 188 185 191 228 228 231 249 249 252 255 255 255 255 255 255 255 255 255 253
253 255 252 252 252 250 250 251 251 251 251 246 245 250 250 250 252 255 255 255 241 240
243 202 182 189 207 177 178 216 176 175 195 156 155 165 128 126 173 129 125 168 120 119
170 121 128 161 116 124 145  99 107 115  69  75 101  64  62 113  85  81 115  85  83 121
 91  92 132 105 110 128 106 108 135 116 122 127 119 133  88  83  92 100  91 105 113 104
119 109 100 114 102  95 108  89  84  95  82  74  83  77  69  77  78  71  77  82  74  82
 83  76  85  82  74  83  81  74  82  82  75  83  80  73  81  86  79  87
236 236 236 255 255 255 255 255 255 254 254 254 253 253 252 250 250 249 246 246 247 243
242 248 248 248 251 250 249 251 246 245 252 239 238 248 244 244 249 255 255 254 254 255
255 224 216 221 206 187 193 205 175 178 195 151 151 211 165 161 230 183 177 218 179 173
215 167 166 206 151 152 184 126 130 156 107 110 133 101  96 128  98  96 122  91  88 129
103 103 129 107 106 125 104 105 141 127 138 149 144 162 117 113 127  85  74  86 105  97
112 114 109 123 126 122 137 128 125 142 124 119 134 112 107 121  95  89 102  78  70  78
 76  65  73  85  75  84  83  74  83  81  74  82  80  73  81  85  78  86
255 255 255 252 253 251 252 253 251 253 253 253 248 248 249 248 248 249 250 249 252 249
247 254 247 246 252 251 251 251 249 248 252 235 234 245 247 246 250 253 253 253 255 255
254 247 246 249 210 198 209 191 170 175 196 172 175 216 185 185 226 187 182 217 182 176
198 170 169 178 147 149 159 125 129 153 125 126 129  99  99 121  91  89 146 115 114 151
127 130 141 123 124 127 111 116 125 114 125 144 140 157 138 135 150 104  99 112  97  89
103 104  99 113 118 115 129 123 120 137 131 129 147 141 139 158 143 140 162 133 131 149
106 102 113  75  62  71  79  70  78  85  76  86  80  73  81  85  78  86
253 253 253 254 254 254 254 254 255 250 250 250 249 249 251 252 252 254 251 251 254 248
247 252 247 246 252 248 247 253 249 248 253 242 240 250 254 254 254 253 253 253 254 253
253 254 255 255 239 239 243 205 193 201 209 195 203 216 198 201 221 196 194 223 190 187
213 185 184 189 164 165 180 149 155 173 140 144 152 118 120 157 122 121 171 144 146 160
142 150 149 133 142 127 112 123 110  99 109 133 127 141 143 139 157 128 123 141  98  92
107  93  88 101 108 101 117 117 109 127 114 111 129 129 126 147 142 139 160 152 149 170
157 153 175 137 135 153  88  83  94  76  65  69  83  76  84  85  78  86
253 253 253 252 252 252 253 253 253 252 252 252 251 251 252 250 250 254 246 245 251 246
246 252 243 241 252 246 244 252 246 245 250 249 248 252 254 254 253 253 253 253 252 252
252 254 253 253 255 255 255 234 233 241 214 203 216 216 204 211 223 207 209 226 200 200
223 196 196 215 185 187 211 178 178 204 166 166 187 155 157 173 137 136 159 135 136 160
147 154 125 111 118 112  98 109 103  91 101 118 107 119 143 138 155 135 131 148 128 124
139  97  90 104 101  93 106 122 113 131 118 113 132 124 121 142 134 131 152 144 141 162
154 151 173 167 164 186 160 158 177 103 100 110  71  62  70  87  80  88
253 253 253 250 250 252 249 249 250 254 254 254 248 247 251 246 245 252 245 244 252 239
237 249 240 240 250 239 237 249 245 245 249 253 253 252 254 254 254 253 253 253 250 250
252 252 252 254 254 254 253 251 250 255 213 209 222 202 196 208 214 204 211 213 190 194
217 192 192 214 186 187 201 169 169 195 165 164 199 174 180 160 132 137 139 116 119 145
126 135  68  42  48 101  86  92 100  88  99 105  95 105 140 136 151 140 137 154 140 135
155 122 118 134  96  91 100 115 106 124 129 123 144 123 119 140 137 134 155 146 143 164
155 152 173 161 158 178 170 168 189 170 168 189 115 109 123  78  67  74
254 254 254 252 252 253 248 247 251 251 252 252 247 246 254 240 238 251 244 243 250 232
231 243 236 236 248 236 234 247 245 244 250 255 255 254 254 254 254 254 254 254 252 252
253 251 250 251 252 252 250 255 255 255 207 201 217 127 106 122 180 163 173 202 188 198
204 190 196 201 186 192 191 172 174 174 155 158 178 165 174 139 119 128 138 120 126 114
 91  92  40   0   0 102  87  94  97  85  96  95  84  94 129 125 140 144 141 158 139 135
154 137 134 149 113 110 119 105  99 114 130 126 144 127 124 145 136 133 154 148 145 166
156 153 174 163 159 182 169 166 188 179 177 200 163 163 184  85  75  85
253 253 253 252 251 252 248 248 253 248 248 251 242 241 250 233 231 247 239 238 250 233
233 244 228 227 246 238 237 248 244 244 247 255 255 254 254 254 254 254 254 254 254 254
254 253 253 253 253 253 252 247 246 251 208 201 222 133 118 132 102  69  62 154 134 141
168 157 167 167 151 161 150 134 141 153 139 144 144 130 137 121  99 107 118  90  94  89
 61  57  49  22  23  92  77  83  96  85  94 101  90  99 115 110 124 141 138 155 143 140
157 141 137 155 133 130 146 108 104 119 124 120 138 133 130 152 137 134 154 149 146 167
156 152 174 162 158 182 172 169 193 175 173 196 185 184 205 138 133 148
253 253 253 253 253 253 248 247 253 246 245 251 243 243 251 230 229 244 227 226 244 238
238 249 221 220 240 242 241 250 251 251 251 254 254 252 253 253 253 253 253 252 252 252
252 251 251 250 246 244 252 232 231 245 213 213 230 173 162 182  98  65  67 117  70  63
112  75  75 107  83  82 109  88  93 102  78  80  94  67  65  99  65  60 101  68  63  67
 44  41  60  40  40  85  70  74  92  82  88 101  90  98 106  98 110 133 129 144 147 144
161 144 141 159 143 139 159 132 127 147 119 115 133 133 130 151 140 137 158 148 145 166
157 153 177 164 160 185 173 170 193 177 175 198 180 178 199 170 170 190
252 253 254 253 253 254 251 250 254 244 243 250 244 245 252 232 231 246 217 215 234 240
239 251 222 221 240 236 235 245 255 255 254 254 254 252 255 255 255 255 255 255 255 255
255 253 252 255 245 245 255 238 239 252 231 235 246 197 197 214 121 109 120 121  92  91
124  82  78 100  60  50  95  64  59  86  56  52  80  50  47  94  64  60  89  61  58  52
 29  30  84  72  76  83  71  77  97  84  94  92  80  90 106  94 105 125 120 135 145 143
160 148 145 163 146 143 162 149 145 165 140 137 157 129 126 147 140 137 158 150 147 168
158 156 179 166 164 187 174 172 195 175 173 196 177 175 196 172 169 191
250 249 254 250 249 253 250 249 254 242 241 249 242 242 250 236 236 249 207 207 227 230
231 247 231 230 246 243 242 245 255 255 254 250 250 250 244 244 245 233 232 236 218 216
222 200 196 206 183 179 189 163 159 167 163 157 166 208 204 217 135 129 147 122 114 128
148 130 137 122  96  98 102  73  70  81  52  44  62  30  20  65  37  30  51  17   0  60
 37  42 110 100 110  95  88  96  96  86  95 100  90 100 101  91 102 121 114 129 137 132
148 153 148 168 156 154 173 155 152 171 157 155 176 145 143 163 139 137 157 151 149 170
158 156 179 169 168 190 178 176 198 169 167 189 175 173 194 173 170 191
249 248 254 247 246 253 249 248 254 244 243 252 239 238 249 240 241 251 211 212 230 216
218 233 235 236 248 231 230 239 221 219 230 172 165 178 152 144 160 125 114 130 111  99
114  93  76  89  93  76  88 109  93 105  81  56  75 181 176 185 218 215 229 136 135 152
147 146 163 152 146 162 134 124 138 114 102 112  97  85  92  95  81  87  94  79  85 100
 88  97 114 107 122 113 107 119 105  99 112 100  96 110 107 102 118 117 110 125 103  96
109 118 109 125 137 132 149 150 147 165 160 158 179 168 166 188 157 155 177 152 149 171
162 160 183 174 171 195 181 179 202 164 162 182 169 167 188 180 178 199
249 248 254 248 247 253 247 246 251 245 243 254 236 234 247 239 237 250 213 212 231 203
204 225 233 235 249 188 187 210 202 199 222 150 141 159 129 115 136 129 120 137 127 120
135 117 109 121 111 104 113 133 127 142 137 130 146 118 111 128 202 202 214 208 207 224
171 169 187 154 150 166 147 143 161 138 132 149 125 119 134 119 113 126 119 112 126 121
117 129 123 119 135 117 113 131 121 113 129 109 104 120 115 111 128 130 126 143 123 119
136 122 117 136 128 123 142 135 131 149 134 130 148 141 137 157 153 150 170 157 155 175
168 167 189 176 173 199 182 180 205 160 157 177 165 164 184 183 185 206
248 247 253 247 245 252 244 243 251 242 241 253 236 235 247 231 229 243 209 210 231 191
192 215 228 229 247 191 191 210 192 193 213 178 174 191 134 128 148 152 149 170 152 148
168 146 144 161 118 116 132 152 149 168 169 166 187 156 155 175 151 148 170 169 167 186
183 183 202 179 180 200 163 160 177 148 145 162 131 127 143 116 112 125 121 118 133 144
142 158 136 132 149 127 122 140 124 120 137 123 120 136 129 126 144 139 136 155 124 119
139 134 131 152 139 137 158 151 148 169 153 149 168 140 137 154 139 135 154 157 157 179
171 173 194 177 176 199 182 180 202 157 153 174 162 161 181 186 187 207
247 247 254 245 244 253 240 239 252 236 235 251 233 235 249 223 221 240 200 199 220 179
178 199 214 215 235 200 201 222 186 187 208 200 200 219 152 151 173 175 177 198 176 175
197 184 181 204 150 146 170 168 166 189 191 192 213 177 179 200 184 184 205 173 172 192
142 139 159 174 174 192 180 177 195 166 163 181 150 146 164 134 128 147 168 168 186 156
158 176 136 135 150 134 132 149 131 129 148 142 139 161 140 139 158 119 111 128 122 117
136 137 135 155 139 136 156 147 145 166 159 158 178 162 160 181 162 159 181 167 165 189
175 176 198 177 177 198 180 177 201 154 150 172 158 155 176 188 190 209
245 245 254 244 245 254 239 239 251 228 228 242 228 230 246 222 221 243 196 194 214 172
170 191 196 197 218 209 210 231 183 185 206 211 212 232 172 169 190 191 192 212 187 188
209 199 199 221 178 180 201 172 174 195 202 203 225 196 197 218 189 190 210 204 208 228
155 156 175 141 139 158 158 156 175 165 162 181 155 152 171 161 157 177 193 195 216 156
157 178 140 139 156 140 139 158 152 152 173 148 144 164 111 104 115 111 104 118 133 130
149 142 140 160 146 143 163 151 149 170 158 156 177 163 161 182 164 162 183 173 171 194
179 179 201 174 173 194 178 175 200 152 148 169 155 151 171 191 192 212
243 243 253 243 244 254 239 238 252 223 223 238 223 224 240 220 219 240 194 192 212 165
163 184 185 186 207 210 211 233 183 184 206 215 215 235 183 182 202 196 198 219 199 200
221 203 204 224 199 204 223 177 179 199 202 203 223 212 213 233 191 192 212 214 219 238
184 187 207 156 153 174 163 162 180 153 151 170 150 146 166 187 185 204 196 201 222 155
158 178 160 160 181 170 169 191 151 151 170 110 102 113 110  99 115 126 121 143 135 133
154 145 142 163 151 148 169 155 153 174 160 158 179 162 160 183 168 166 189 179 178 200
178 179 201 170 169 190 176 173 198 149 146 166 150 146 167 194 193 214
242 242 252 243 243 253 239 240 253 220 221 240 215 216 236 211 212 232 191 191 211 153
150 172 173 174 196 207 209 231 188 189 210 213 214 234 194 196 215 194 196 216 209 210
230 202 203 223 214 215 235 190 191 211 197 198 218 219 220 240 194 195 215 200 201 221
206 207 227 169 170 190 180 181 200 173 177 196 154 156 176 201 203 223 199 205 225 178
180 200 183 184 204 151 149 166 108  98 113 111 102 116 124 115 137 128 123 146 134 132
152 141 138 159 149 146 167 153 152 173 159 157 180 166 164 187 173 170 193 181 179 202
175 176 198 164 163 184 175 171 194 146 143 163 148 144 165 195 194 218
236 237 249 239 240 253 239 240 255 222 221 240 211 209 230 200 199 220 186 184 205 148
145 164 158 159 179 200 202 224 194 195 217 208 209 228 207 208 228 192 192 212 216 217
237 203 204 224 216 217 237 206 207 227 194 195 215 217 218 238 213 214 234 188 189 209
209 210 230 188 189 210 188 189 209 192 196 216 206 209 228 224 225 244 203 208 228 186
189 208 143 140 155 107  96 111 117 106 123 121 114 134 121 115 136 125 120 141 128 124
144 132 128 149 140 136 158 147 144 165 153 151 174 163 161 184 175 173 196 179 177 199
163 162 184 158 156 177 170 168 190 145 141 160 149 145 165 195 195 217
