P3
# 8-bit ppm - RGB
35 34
255
 76 186 195  76 186 195  76 186 195  76 186 195  76 186 195  76 186 195  76 186 195  76
186 195  76 186 195  75 186 194  78 185 194  81 186 195  77 188 197  69 191 200  61 192
201  54 189 199  51 186 195  53 185 194  51 187 196  54 190 199  61 192 201  69 191 200
 78 188 197  81 186 195  77 185 194  75 186 195  76 186 195  76 186 195  76 186 195  76
186 195  76 186 195  76 186 195  76 186 195  76 186 195  76 186 195
 76 186 195  76 186 195  76 186 195  76 186 195  76 186 195  76 186 195  76 186 195  76
186 195  75 185 194  81 185 194  78 189 198  58 191 200  46 187 195  70 168 176 101 136
143 126 110 117 141 100 106 148 100 105 140 101 106 126 111 118 101 137 145  65 169 177
 42 186 195  58 190 199  79 189 198  82 185 194  75 185 194  76 186 195  76 186 195  76
186 195  76 186 195  76 186 195  76 186 195  76 186 195  76 186 195
 76 186 195  76 186 195  76 186 195  76 186 195  76 186 195  76 186 195  75 186 195  77
184 193  83 187 196  66 191 200  44 180 189  99 150 157 161  78  83 204   0   0 227  85
 81 240 157 155 246 188 187 246 196 195 245 186 184 240 151 148 226  71  67 202   0   0
160  86  91  95 150 157  38 181 189  65 191 200  84 187 196  76 184 193  76 186 195  76
186 195  76 186 195  76 186 195  76 186 195  76 186 195  76 186 195
 76 186 195  76 186 195  76 186 195  76 186 195  76 186 195  75 186 195  78 184 193  84
189 198  51 189 198  80 154 161 171  86  89 231   0   0 251   0   0 252 184 184 250 243
243 248 255 255 247 255 255 246 255 255 247 255 255 247 255 255 249 239 239 252 172 170
253   0   0 230   0   0 166  85  89  74 155 162  46 189 198  84 189 198  77 184 193  76
186 195  76 186 195  76 186 195  76 186 195  76 186 195  76 186 195
 76 186 195  76 186 195  76 186 195  76 186 195  74 186 195  79 184 192  84 190 199  44
184 192 121 122 127 216   0   0 255   0   0 255  59  59 241 216 215 242 255 255 244 249
249 244 242 242 245 241 241 245 241 241 245 241 241 244 242 242 245 250 251 242 255 255
242 200 199 255  27  32 255   0   0 215   0   0 116 124 130  35 185 194  84 190 199  76
184 193  76 186 195  76 186 195  76 186 195  76 186 195  76 186 195
 76 186 195  76 186 195  76 186 195  75 186 195  78 184 192  84 190 199  39 181 189 143
 99 103 239   0   0 255  35  37 250   0   0 239 202 200 245 255 255 247 242 243 246 243
243 246 246 246 246 246 246 246 246 246 246 246 246 246 246 246 246 242 242 247 242 243
245 255 255 240 180 179 251   0   0 255   4   7 238   0   0 135 102 107  32 183 191  85
189 198  74 184 193  76 186 195  76 186 195  76 186 195  76 186 195
 76 186 195  76 186 195  76 186 195  77 184 193  84 189 198  41 183 192 145  96 101 246
  0   0 255  62  63 249   0   0 244 141 139 246 250 250 246 245 245 246 245 245 246 246
246 246 246 246 246 246 246 246 246 246 246 246 246 246 246 246 246 247 247 245 242 242
247 248 248 245 245 244 246 109 108 251   0   0 255  44  45 243   0   0 134 101 106  41
187 196  86 188 197  73 184 193  76 186 195  76 186 195  76 186 195
 76 186 195  76 186 195  76 185 194  84 187 196  50 190 198 127 116 121 242   0   0 255
 41  43 251  39  40 250   0   0 244 208 207 246 252 252 246 245 245 246 246 246 246 246
246 246 246 246 246 246 246 246 246 246 246 246 246 246 246 246 246 246 246 246 247 247
246 241 241 246 255 255 246 183 182 253   0   0 251   0   0 255  36  38 240   0   0 109
119 125  61 191 200  83 185 194  74 186 194  76 186 195  76 186 195
 76 186 195  75 185 194  82 186 195  64 191 200  90 140 147 225   0   0 255  27  29 249
 43  43 255   0   0 250  64  61 245 231 230 246 251 250 246 245 245 246 246 246 246 246
246 246 246 246 246 246 246 246 246 246 246 246 246 246 246 246 246 246 246 246 246 246
246 242 242 247 254 254 244 216 215 250   0   0 255   0   0 251  26  26 255   0   0 218
  0   0  57 155 162  81 192 201  77 183 192  76 186 195  76 186 195
 76 186 195  78 186 195  76 187 196  53 175 183 184 158 158 255 100  99 252   0   0 253
 59  58 255   0   0 248  96  96 245 237 237 246 250 250 246 244 244 246 246 246 246 246
246 246 246 246 246 246 246 246 246 246 246 246 246 246 246 246 246 246 246 246 246 246
246 243 243 246 252 252 245 227 226 250  54  50 254   0   0 254  24  24 254   0   0 253
126 125 170 178 178  23 167 176  89 192 201  74 184 193  76 186 195
 76 185 194  80 188 197  53 180 190 124 161 166 240 233 232 251 151 151 251   0   0 254
 70  70 254   0   0 249  91  93 245 236 236 246 250 250 246 245 245 246 246 246 246 246
246 246 246 246 246 246 246 246 246 246 246 246 246 246 246 246 246 246 246 246 246 246
246 243 243 246 252 252 245 225 225 251  48  46 254   0   0 254  30  30 253   0   0 251
157 157 233 236 235  95 141 147  68 191 200  82 185 194  75 186 195
 78 186 195  74 189 198  59 166 174 192 189 189 255 255 255 242 161 161 253   0   0 254
 59  59 255   0   0 250  42  40 245 226 226 246 251 251 246 245 245 246 246 246 246 246
246 246 246 246 246 246 246 246 246 246 246 246 246 246 246 246 246 246 246 246 246 246
246 242 242 246 255 255 244 210 209 251   0   0 254   0   0 254  32  32 253   0   0 248
158 159 250 255 255 174 174 175   0 168 177  90 193 202  74 184 193
 79 187 195  63 187 196 106 156 162 234 226 225 250 255 255 242 171 171 254   0   0 254
 43  43 254  44  45 252   0   0 245 197 195 246 253 252 246 245 245 246 245 245 246 246
246 246 246 246 246 246 246 246 246 246 246 246 246 246 246 246 246 246 246 246 246 246
246 242 242 246 255 255 246 169 168 252   0   0 254   3   3 254  27  27 254   0   0 245
158 158 251 255 255 220 212 212  64 150 158  77 194 203  80 184 193
 77 187 196  51 179 189 154 165 168 252 248 247 243 251 251 245 173 174 253   0   0 254
 40  40 253  45  45 255   0   0 246 113 111 245 246 245 246 248 248 246 245 245 246 246
246 246 246 246 246 246 246 246 246 246 246 246 246 246 246 246 246 247 247 245 242 242
247 252 252 244 235 235 248  82  80 254   0   0 254  27  27 254  19  19 254   0   0 247
154 154 249 255 255 241 233 232 127 158 162  43 183 193  87 189 197
 75 188 198  51 169 178 191 187 186 255 255 255 242 246 246 247 159 158 253   0   0 254
 50  50 253   0   0 254  44  44 251   0   0 242 178 176 246 255 255 246 246 246 246 244
244 246 246 246 246 246 246 246 246 246 246 246 246 246 246 246 245 243 243 247 247 247
245 254 253 243 152 151 252   0   0 254  20  20 254  11  11 254  18  18 254   0   0 245
139 139 246 255 255 249 243 243 167 177 179   0 170 180  90 193 202
 72 189 198  69 161 169 215 205 205 254 255 255 242 239 238 249 120 118 254   0   0 254
 50  49 254   0   0 253  14  14 255  16  18 251   0   0 243 186 185 245 253 253 247 252
252 246 246 246 246 245 245 246 245 245 246 245 245 246 245 246 247 252 252 245 251 250
242 166 165 251   0   0 255   0   0 254  20  20 254   0   0 254  16  16 254   0   0 247
111 109 246 249 248 252 249 249 192 193 194  11 161 170  87 194 203
 69 189 198  87 157 165 227 217 217 251 255 255 242 217 216 250   0   0 255   0   0 253
 31  31 254   0   0 254   0   0 253  14  14 255   0   0 250   0   0 242 145 144 242 226
224 245 248 248 245 252 252 246 253 253 246 252 252 244 247 246 243 219 218 244 127 125
251   0   0 255   5   7 254  20  19 254   0   0 254   1   1 254  12  12 255   0   0 250
 57  55 244 234 234 253 255 254 206 202 202  40 157 166  82 194 203
 67 188 198  96 155 162 232 226 225 250 255 255 243 160 159 253   0   0 254  50  50 254
  0   0 254   1   1 254   1   1 254   0   0 253   7   6 254  26  26 252   0   0 248   0
  0 245 122 121 243 163 162 244 172 172 244 159 159 245 113 111 249   0   0 254   0   0
254  30  29 253   8   8 254   0   0 254   1   1 254   0   0 254  10  10 254   0   0 251
  0   0 241 200 199 253 255 255 212 204 204  58 157 165  77 193 202
 67 188 197  95 155 162 232 234 233 248 229 229 248   0   0 255   0   0 253  30  29 254
  0   0 254   1   1 254   0   0 254   1   0 254   0   0 254   0   0 254  35  36 255  11
 13 255   0   0 255   0   0 255   0   0 255   0   0 255   0   0 255  22  24 254  31  31
255   0   0 255   0   0 254   1   1 254   0   0 253   0   0 254   3   3 254  18  18 253
  0   0 245 124 123 251 255 255 214 213 213  60 152 161  77 194 203
 70 188 197  83 163 170 222 209 207 250 138 136 251   0   0 254  51  50 253   0   0 254
  2   2 254   0   0 255   0   0 253   0   0 252   6   3 252  26  14 251  26   8 249  28
 16 247  41  39 247  45  45 245  44  45 246  45  46 247  40  38 247  29  16 248  28  11
250  23  14 252   1   1 254   0   0 255   0   0 255   0   0 254   0   0 253  16  16 254
  0   0 251   0   0 249 194 191 206 214 213  40 152 161  82 194 203
 75 189 198  58 174 182 199  87  85 255   0   0 251  26  27 254   0   0 254   2   2 255
  1   1 252   0   0 247   6   5 247  33  19 246  27  16 241   0   0 232   0   0 223   0
  0 216   0   0 210   0   0 208   0   0 209   0   0 213   0   0 215   0   0 222   0   0
230   0  12 233  38  27 236  35  24 243  10  10 251   0   1 255   0   0 255   0   0 253
 10  10 254   0   0 253  16   5 181 133 134  12 176 185  88 189 198
 78 187 196  47 186 195 161  77  82 255   0   0 251  33  35 254   0   0 253   6   5 247
  0   2 242  24  17 246  33  19 241   0   0 224   0   0 203   0   9 192  83  52 194 125
 76 192 143  90 196 155  98 197 159 102 194 153  96 190 139  87 190 117  72 188  73  47
196   0   7 209   0   0 219   0  11 224  44  33 222  34  28 235  14  15 249   6   4 255
  0   0 255  28  28 241   0   0 133  99 105  44 192 201  87 185 194
 79 185 194  65 191 200  94 153 160 228   0   0 255  37  39 245  12  12 244   0   0 243
 24  17 247   0   3 227   0   0 196  47  34 188 133  83 207 182 113 224 202 120 231 207
121 253 225 137 255 225 138 255 225 137 255 226 138 250 223 135 230 205 120 219 195 118
203 172 108 182 116  73 186  27  28 206   0   0 218  26  26 210  35  33 219  24  22 237
 28  30 242   0   0 190  21  15  63 164 171  79 192 201  78 183 192
 77 185 194  78 187 196  50 185 194 151 100 104 250   0   0 249  43  47 239  32  27 246
  0   0 212   0   0 182 123  79 216 195 121 247 222 138 255 226 129 245 222 169 224 214
199 243 209 119 250 216 132 246 213 131 251 215 125 242 210 131 224 213 194 247 223 171
255 224 124 242 218 136 212 188 115 177 122  78 190   0  12 217  19  23 208  43  44 216
 43  46 206   0   0 119 118 123  62 190 199  82 185 194  75 185 194
 76 186 195  78 185 194  77 189 198  54 177 186 167  80  84 244   0   0 255  27  25 214
  0  32 186 153  95 243 220 135 255 225 137 251 216 134 246 212 116 220 209 179 210 215
221 230 200 117 254 221 135 247 216 135 252 218 124 232 205 134 213 217 222 230 216 185
245 208 106 254 220 137 255 224 136 246 221 136 178 146  92 196   0  36 226  30  27 210
  0   0 140 100 104  59 182 191  82 188 197  75 184 193  76 186 195
 76 186 195  75 186 195  79 185 193  77 190 199  45 178 186 150 114 115 229   0   0 197
 31   0 228 206 129 255 225 136 245 211 128 245 214 131 255 224 136 177 156 106  71  73
 79 231 202 124 254 221 134 245 214 131 255 222 134 227 198 123  91  93  96 188 168 115
255 222 133 247 215 132 242 210 128 255 225 136 224 203 125 177   0   0 200   0   0 126
120 126  56 182 190  80 189 199  77 184 193  76 186 195  76 186 195
 76 186 195  76 186 195  75 186 195  80 184 193  79 190 199  46 189 196 100 146 157 143
 97  94 227 194 117 253 222 135 248 216 131 247 215 130 255 226 139 163 143  84   0   0
  0 234 205 127 254 221 134 244 213 129 255 224 137 227 197 120   0   0   0 171 147  82
255 226 139 248 216 131 247 215 131 252 220 135 228 196 118 121  91  96  94 156 165  47
188 197  80 189 198  77 184 193  75 186 195  76 186 195  76 186 195
 76 186 195  76 186 195  76 186 195  75 186 195  78 184 193  88 187 195  53 198 207  25
156 168 214 183 115 255 221 133 248 217 133 247 215 131 255 224 136 197 173 111  84  80
 67 246 215 132 251 218 132 246 214 130 255 223 135 237 207 127 102  95  74 197 174 110
255 226 137 247 215 131 246 214 130 255 224 138 215 180 108  31 160 173  63 196 205  83
187 195  77 184 193  75 186 195  76 186 195  76 186 195  76 186 195
 76 186 195  76 186 195  76 186 195  76 186 195  75 186 195  75 182 191  95 192 198  18
173 190 169 160 121 253 218 127 248 218 136 247 214 130 252 219 133 242 212 130 226 200
123 250 220 133 249 216 132 248 217 132 250 218 132 248 217 132 229 202 125 240 211 129
252 220 134 248 215 130 244 214 133 255 224 134 166 152 112  49 179 193  84 187 195  76
184 193  76 186 195  76 186 195  76 186 195  76 186 195  76 186 195
 76 186 195  76 186 195  76 186 195  76 186 195  76 186 195  75 186 195  81 185 192  74
191 200  70 149 159 215 179 105 255 227 138 247 218 136 245 213 129 250 217 132 254 221
134 248 217 132 249 217 132 249 217 132 249 216 131 249 217 132 253 221 134 250 217 132
245 213 129 245 216 134 255 230 142 218 178  97  76 152 160  70 189 199  77 185 194  76
186 195  76 186 195  76 186 195  76 186 195  76 186 195  76 186 195
 76 186 195  76 186 195  76 186 195  76 186 195  76 186 195  76 186 195  74 185 194  83
188 195  62 187 198  95 145 148 211 173 100 255 220 129 255 226 139 251 221 136 247 217
134 247 216 133 247 216 133 247 217 133 247 217 134 247 217 134 248 218 134 251 221 136
255 225 138 255 220 130 213 174  99  97 144 147  61 186 197  79 187 195  76 186 195  76
186 195  76 186 195  76 186 195  76 186 195  76 186 195  76 186 195
 76 186 195  76 186 195  76 186 195  76 186 195  76 186 195  76 186 195  76 186 195  75
185 194  81 188 196  63 187 198  69 156 166 157 147 117 214 180 105 241 203 115 251 214
123 255 218 127 255 219 129 255 218 128 254 218 128 253 216 126 249 212 122 237 201 115
212 178 107 157 148 118  70 155 165  61 186 198  79 188 196  76 185 194  76 186 195  76
186 195  76 186 195  76 186 195  76 186 195  76 186 195  76 186 195
 76 186 195  76 186 195  76 186 195  76 186 195  76 186 195  76 186 195  76 186 195  76
186 195  76 185 194  79 187 195  71 189 199  45 179 192  60 159 171 105 149 149 137 149
133 154 151 124 157 153 124 154 151 123 154 150 124 148 151 129 130 149 137 100 150 152
 58 161 173  47 179 193  71 189 199  79 187 195  76 185 194  76 186 195  76 186 195  76
186 195  76 186 195  76 186 195  76 186 195  76 186 195  76 186 195
 76 186 195  76 186 195  76 186 195  76 186 195  76 186 195  76 186 195  76 186 195  76
186 195  76 186 195  76 186 195  78 186 194  78 187 196  74 190 199  64 189 200  52 185
198  44 182 195  38 181 194  42 181 194  44 181 195  48 183 196  55 186 198  66 189 200
 75 190 199  78 187 196  78 186 194  76 186 195  76 186 195  76 186 195  76 186 195  76
186 195  76 186 195  76 186 195  76 186 195  76 186 195  76 186 195
