P3
# 8-bit ppm - RGB
50 50
255
203 183 175 208 184 167 207 185 169 207 185 173 207 190 170 213 189 172 211 187 183 210
191 176 210 191 178 215 189 178 215 191 176 213 194 185 214 197 180 212 197 179 217 194
188 216 196 179 220 194 183 220 196 181 216 196 184 217 198 184 219 198 182 222 198 190
217 198 191 217 197 192 218 197 187 218 200 183 217 202 185 219 202 190 220 201 191 220
200 187 221 203 187 221 203 189 223 201 194 224 205 187 223 206 191 224 204 197 223 205
194 223 206 191 227 206 197 229 203 199 225 207 195 227 205 195 227 207 190 228 207 195
225 210 198 229 207 197 229 206 200 224 205 199 225 208 194 225 207 193
206 181 176 206 185 169 207 185 171 209 185 167 206 189 178 210 192 174 210 189 179 210
190 177 215 190 174 213 192 174 213 193 177 213 192 182 211 197 175 215 194 178 216 195
186 218 196 186 216 196 183 213 198 178 216 197 184 215 198 186 220 198 183 223 200 191
223 202 190 226 202 187 221 204 193 220 200 191 223 199 189 220 202 185 219 201 184 220
203 180 221 203 184 222 201 188 221 202 195 226 204 190 225 204 194 224 202 191 223 205
192 224 206 189 229 204 190 226 204 192 224 206 187 224 205 197 228 203 196 227 205 195
227 209 189 231 206 191 231 203 194 229 203 196 222 208 194 224 206 189
206 181 167 204 184 174 206 185 171 209 185 170 207 186 178 206 190 182 208 191 177 209
192 178 216 192 176 216 191 179 210 192 181 213 193 178 214 196 172 214 197 177 219 194
186 218 194 190 220 196 190 219 201 186 221 197 188 221 198 186 214 194 180 199 179 161
181 161 141 172 150 138 181 159 152 193 178 166 206 183 179 212 192 184 217 203 188 223
200 187 225 206 190 226 206 192 226 203 199 226 202 194 221 201 188 223 201 188 223 203
190 224 202 191 225 203 190 224 203 194 223 206 189 228 202 196 229 202 196 224 207 193
227 206 196 229 205 191 227 205 191 229 205 192 228 204 189 227 203 188
207 182 170 209 181 172 204 186 171 204 186 179 208 188 175 208 190 176 208 191 183 212
190 177 214 190 181 211 194 176 209 194 178 211 192 178 210 197 181 215 196 186 218 198
186 213 196 177 201 183 165 178 157 148 156 139 129 150 131 123 123 109  99  92  78  73
 85  68  84  80  65  76  93  76  78 123 117 115 150 143 138 178 167 159 181 164 161 181
161 159 196 183 169 213 192 180 218 198 194 219 198 191 222 202 187 226 205 191 222 205
197 224 203 189 223 205 189 224 204 191 224 203 193 228 203 192 226 204 190 225 206 186
229 204 188 228 204 191 227 205 191 225 205 197 226 205 191 226 204 186
203 184 170 205 186 166 204 187 168 203 188 170 209 188 174 210 191 175 211 190 177 209
194 172 212 191 179 212 194 173 211 193 175 216 195 180 215 195 182 207 183 174 168 153
128 127 112  89  87  69  67  50  23  50  49   9  46  46  13  38  54  39  48  77  55  71
 76  59  72  73  61  62  74  60  68  79  67  70  95  87  88 112 104 104 121 106 114 122
111 115 145 133 136 149 137 140 149 138 138 162 143 136 185 169 160 202 186 176 213 192
188 224 203 196 223 205 190 223 200 188 222 202 189 223 203 188 225 205 186 228 204 187
227 203 195 225 204 199 225 206 188 226 205 190 224 206 190 228 202 191
202 188 163 204 187 169 208 187 174 211 187 170 209 188 178 209 187 178 213 187 181 214
190 180 212 191 178 213 193 180 211 194 172 198 178 160 170 153 135 109  88  83  29   0
 24  46   0  31  60  39  53  60  49  59  59  51  58  62  54  57  59  48  55  55  39  51
 57  46  50  73  67  76  72  61  66  64  52  64  82  70  84  97  87  89  94  90  91 105
 98 101 117 103 111 125 115 120 119 112 121 106  98  91 104  96  95 102  90  92 113  96
 95 167 149 145 215 192 185 227 202 191 223 200 188 225 201 191 227 203 184 220 206 191
221 207 191 223 205 192 222 206 190 224 206 185 227 201 187 232 201 193
203 183 169 208 184 171 208 184 177 208 186 174 208 188 173 207 192 171 212 190 178 214
187 181 215 191 182 216 198 180 169 155 138  80  62  64  37  14  13  44  16  50  69  54
 59  67  54  57  60  41  50  51  41  48  52  39  50  52  44  55  51  43  45  55  42  42
 59  49  60  83  79  84  97  88  96  93  89  97  91  80  89  96  86  91  88  83  90  91
 77  93 112  98 105 116 105 117 114 108 118 122 118 121  99  87  96  98  83  90  94  82
 91  72  52  68 139 125 115 209 195 176 228 203 190 225 199 190 225 201 182 222 203 179
223 204 183 224 203 184 223 206 186 222 205 188 224 202 185 227 201 189
203 183 175 206 185 176 206 186 171 208 186 172 209 187 180 207 192 176 209 189 176 216
192 188 205 185 171 157 147 128  63  41  64  33  21  48  68  57  56  65  50  57  52  37
 45  50  35  47  48  36  49  48  42  45  48  36  48  45  36  51  45  39  48  48  38  49
 47  34  48  46  35  44  78  60  69 101  86  96 100  87  93 105  97  99 105  99 103  81
 67  85  85  68  78  90  80  87  78  71  80  86  79  83  82  67  81  72  61  67  81  71
 75  96  82  96  70  59  59 120 107  93 193 174 155 222 198 182 225 201 184 225 200 183
224 203 187 226 202 189 228 201 188 224 202 183 222 203 182 225 199 192
203 182 172 207 183 177 203 188 172 209 187 169 211 187 170 210 188 174 214 192 176 192
171 156 115 101  95   0   0  16  45  39  37  61  53  50  46  39  41  46  39  38  48  38
 46  48  36  42  47  35  46  44  37  47  45  30  46  41  37  48  54  43  61  51  44  58
 54  46  49  69  54  60  83  63  67 105  81  84 114 101 100 135 125 120 142 134 132 121
113 113  85  84  89  68  63  69  60  48  54  43  21  44  55  39  54  55  44  53  59  46
 55  76  57  71  92  78  86  74  56  62  97  78  72 171 147 134 219 194 181 223 199 189
222 200 185 226 200 189 225 200 194 224 200 188 222 203 183 222 202 186
200 185 166 201 186 170 205 187 167 202 188 168 207 190 169 215 191 171 181 160 141  89
 77  67   0   0   0  61  46  55  52  46  46  44  37  41  50  42  49  48  40  45  45  34
 34  45  34  35  42  35  40  44  36  39  46  35  44  48  41  51  57  43  54  56  40  48
 48  40  42  51  35  48  51  41  50  63  52  58  80  62  64  94  77  86 116 106 110 120
109 111  96  90  91  89  79  84  76  69  79  51  44  60  50  43  47  49  43  44  56  46
 55  63  47  55  80  62  64  87  76  74  72  62  63  72  61  66 152 130 128 209 184 172
221 199 186 222 203 185 222 204 181 226 199 191 222 201 184 220 203 184
200 183 166 203 181 172 201 184 172 202 188 173 202 183 166 157 137 124  76  60  61  27
 13  41  57  46  51  46  37  40  44  37  36  45  32  35  44  34  42  40  34  38  35  31
 35  38  30  41  39  28  33  35  29  31  36  30  35  41  31  35  41  28  36  46  28  39
 36  34  38  35  28  42  33  29  44  37  29  43  47  27  42  49  34  55  63  56  61  66
 61  75  71  61  76  81  66  83  78  67  76  63  51  61  44  38  50  39  35  47  36  35
 43  42  36  41  51  34  41  52  36  42  65  47  53  75  60  68  66  54  60 173 155 136
225 205 179 224 200 184 224 199 184 223 198 187 223 197 189 225 198 187
203 177 164 204 179 171 200 181 171 204 185 160 152 131 120  35   0  36  42  35  53  47
 40  50  30  23  35  27  23  41  34  25  39  32  27  35  34  27  46  36  30  34  33  27
 39  33  23  44  38  23  46  36  24  40  33  28  33  36  25  31  34  25  35  35  23  36
 34  25  38  37  26  43  35  29  42  37  29  40  37  29  41  41  35  39  44  35  49  43
 40  56  57  53  61  73  63  75  80  69  68  68  60  61  53  41  59  48  39  52  40  35
 50  40  35  38  37  35  34  41  31  45  44  28  39  61  44  55  82  64  72 111  92  83
198 173 155 223 195 192 222 195 189 222 196 182 221 197 185 223 197 188
201 176 169 202 177 163 204 183 167 166 151 130  48  34  38  43  36  39  49  47  52  40
 41  45  38  33  44  32  28  46  30  30  36  35  35  37  36  34  44  35  30  40  34  27
 33  33  25  32  35  23  45  38  22  48  33  23  43  34  25  38  36  32  35  37  29  49
 43  22  44  35  28  38  36  30  33  38  26  47  38  25  36  36  29  31  41  34  60  38
 32  61  36  25  36  40  33  38  41  31  39  45  38  47  52  39  50  44  35  47  37  30
 43  40  34  37  44  36  41  35  35  52  38  34  50  39  33  39  63  51  62  62  47  55
129 108 104 210 189 176 226 196 180 224 194 179 220 197 183 218 201 185
201 176 161 203 176 162 194 175 160 129 115 103  25   7  31  52  46  56  38  36  42  36
 36  38  37  31  47  38  35  41  43  38  37  39  36  39  37  31  34  34  28  34  29  28
 35  33  27  36  34  25  37  38  26  46  33  28  46  33  31  34  41  31  38  39  27  48
 38  26  41  41  27  46  38  30  38  36  29  40  36  29  36  34  25  39  31  27  45  34
 25  48  31  23  39  33  25  36  32  27  36  38  34  39  47  40  47  52  44  52  42  31
 50  33  28  44  42  30  47  47  35  54  48  35  51  42  36  40  43  37  35  67  48  64
 84  59  69 197 173 163 226 196 181 217 195 183 221 196 189 220 195 181
198 173 156 201 177 168 187 160 151  99  75  79  35  28  38  58  54  63  42  38  47  35
 30  40  39  26  41  39  29  31  39  32  32  39  29  35  36  25  35  33  27  33  34  29
 33  44  29  45  45  32  38  42  36  36  45  31  48  45  29  42  39  29  45  33  29  38
 33  30  40  39  26  39  41  28  38  36  29  42  34  29  43  36  28  44  34  27  41  31
 24  51  32  27  39  33  23  37  30  23  33  35  28  32  40  27  38  51  38  46  52  42
 53  37  28  47  36  28  52  45  31  58  49  42  61  49  41  57  39  31  35  61  51  53
 61  36  43 175 155 142 221 193 185 218 191 179 217 193 185 218 193 180
196 170 155 199 175 160 162 140 127  38  20  34  43  30  33  48  41  47  39  37  41  36
 27  36  36  27  32  35  29  36  38  35  38  50  35  44  52  33  41  41  27  34  40  32
 35  55  36  45  68  40  49  67  43  37  65  45  43  63  43  44  57  39  45  47  30  42
 36  29  38  40  25  42  39  26  38  39  26  40  40  25  48  37  31  39  37  29  40  36
 28  42  33  28  36  32  25  30  32  27  33  38  24  34  36  25  36  43  34  44  49  43
 48  45  34  43  42  30  45  42  32  49  48  38  50  50  42  48  39  33  43  50  45  45
 76  58  61 174 159 143 213 191 173 213 191 169 216 191 172 217 191 173
187 167 162 191 169 154 146 126 111  34  25  34  44  31  44  43  32  44  43  36  43  33
 31  29  33  29  36  39  30  38  49  33  45  59  41  47  69  43  50  53  33  46  45  31
 44  60  38  40  76  47  51  75  53  48  81  53  46  85  53  55  82  50  64  76  48  54
 55  35  44  48  26  46  40  28  42  44  29  37  48  29  44  51  31  46  52  31  47  45
 31  44  35  32  33  27  25  44  31  28  41  35  23  37  34  28  39  42  32  50  54  39
 55  55  41  45  44  31  43  42  32  52  57  38  50  51  38  53  52  37  45  66  44  47
 88  65  70 196 172 155 217 189 174 214 186 172 212 187 171 215 187 171
186 161 148 188 162 150 157 137 123  63  48  56  37  25  42  43  37  42  44  35  44  38
 33  41  41  32  43  46  34  39  51  39  45  60  44  49  69  45  46  60  42  47  45  34
 44  55  35  42  75  45  41  83  56  52  87  59  62  96  58  66 100  64  65 101  64  70
 81  51  58  59  38  45  44  34  46  41  30  42  40  33  47  48  34  45  67  40  48  68
 41  58  55  41  44  46  34  44  35  30  42  31  25  37  36  28  46  48  28  54  57  43
 57  66  46  52  45  32  39  39  34  45  58  42  56  50  37  51  61  43  52  66  44  54
 94  76  72 200 170 159 216 183 176 211 183 170 210 184 172 211 186 167
180 155 137 183 157 145 146 126 118  49  35  41  40  34  41  42  39  38  44  37  41  43
 30  43  46  34  46  46  41  42  50  42  33  64  45  48  62  49  45  62  46  43  53  42
 42  46  36  45  57  37  42  75  47  39  87  55  57  91  62  61  90  61  52  92  54  58
 86  57  55  90  58  63  83  55  64  65  38  51  44  26  38  26  21  38  49  29  41  82
 52  59  98  62  68  88  59  59  66  43  48  46  31  37  31  25  36  40  33  43  66  47
 54  74  51  55  50  37  46  45  31  43  54  44  58  48  44  47  58  48  44  46  37  51
 97  85  81 196 171 160 210 179 171 206 180 169 208 180 169 211 180 173
176 147 138 177 150 137 137 113 105  52  38  38  45  39  41  44  38  42  44  39  47  38
 34  37  59  41  47  83  62  56  74  57  48  74  51  52  75  54  56  73  47  52  63  43
 42  51  39  46  42  37  37  55  37  38  67  43  46  75  53  52  85  60  62 103  65  72
120  81  74 131  90  90 134  88  96 118  81  79 100  68  74  86  60  69  75  49  65  93
 59  71 110  75  73 102  72  70  80  56  55  65  42  51  46  32  45  37  30  41  61  40
 49  80  54  54  67  43  48  45  34  34  67  48  55  51  44  48  54  47  44  39  27  40
114  96  92 199 172 156 207 176 168 204 176 168 205 179 164 207 177 170
171 140 130 170 142 131 150 126 118  72  56  61  38  33  34  53  38  46  48  35  46  35
 30  35  79  52  57 123  94  80  99  77  59  62  43  45  53  39  44  50  34  40  44  32
 38  41  36  37  46  35  46  60  38  58  70  51  55  87  65  70 120  87  81 141  95  94
147 102  96 152 107 104 156 107 104 153 108 107 144 103 105 133  99  97 113  83  89  88
 62  74  74  52  55  71  51  58  61  46  57  54  39  52  49  37  47  47  32  34  46  26
 40  80  52  64 121  91  84 127  95  87 113  83  88  56  40  48  57  44  48   7   0  35
138 116 110 202 171 159 200 170 159 202 172 159 201 173 158 200 174 160
157 136 126 164 139 132 165 138 133 113  94  97  27  28  33  48  40  32  49  38  32  42
 22  39 101  72  65 121  94  80  79  57  59  55  38  34  52  38  39  42  38  44  37  32
 47  29  28  39  32  27  47  36  31  46  45  37  41  67  48  50 104  72  70 126  90  79
145 102  92 158 108 109 159 111 102 155 113 103 137  97  96  99  69  72  69  54  61  52
 43  57  37  31  44  31  25  43  39  26  44  33  32  38  36  34  44  54  42  52  67  46
 49  76  54  51 133 106  93 174 135 124 161 120 118  76  55  64  40  25  39  54  41  48
168 141 134 197 169 160 195 167 159 198 167 154 199 168 160 199 169 164
144 116 106 132 104  98 138 105 103 118  89  92  49  36  47  48  35  42  43  32  34  57
 41  46 124  99  75 122  96  80 113  80  78 121  89  80 119  87  79 109  81  78 101  72
 71  92  64  70  86  52  62  72  44  53  69  44  53  71  49  46  88  58  64 104  76  74
141 102  94 161 111 107 163 113 106 151 108 105 114  80  87  78  51  53  73  45  49  69
 42  48  71  42  55  82  50  66  87  60  65  97  68  66 106  78  73 115  86  80 126  94
 87 125  96  83 136 105  89 175 137 121 173 135 124  84  65  68   0   0  10 107  82  84
186 156 149 189 161 147 191 159 153 191 159 148 194 162 148 195 161 153
129  92  80  87   0  39  92  31  48  96  36  49  78  43  48  51  38  46  38  25  40  73
 55  53 143 111  95 140 110  93 140 106  88 137  97  84 125  90  76 113  78  63 107  69
 68 104  68  70  96  62  63  94  52  57  85  48  50  94  64  57 108  75  59 116  87  77
146 110 100 167 117 108 168 118 116 152 107 100 129  88  86 111  73  75  98  61  61  87
 43  52  87  49  57  91  53  66  96  67  65 102  63  55 112  74  64 127  86  76 142  94
 93 154 110  99 159 118  97 178 134 116 166 131 115  71  52  60  52  32  44 103  57  78
127  74  88 131  86  81 133  82  83 132  83  83 133  84  84 134  84  91
126  82  78  92  20  42  96  42  50  97  24  47  80  25  44  49  40  39  37  30  41  72
 52  50 146 111  99 151 115 102 141 105  79 120  85  58  94  65  51 101  79  80  87  76
 76  49  35  52  55  44  55  79  61  63  99  72  78  92  56  59  99  65  61 125  87  78
165 116 103 178 124 110 175 123 106 155 107  95 129  85  82 109  65  67  99  56  67  99
 77  85  65  54  58  50  45  54  54  34  45 115  96 101 123  95 104 101  62  71 120  75
 76 147 105  92 165 125  97 181 142 121 155 124 109  57  42  52  68  41  50 160 115 106
150  97  97 100   0  34 110  26  37 105  14  44 104  10  54 101  15  45
121  71  72  99  35  48 100  44  47 118  66  67 140  95  83  76  61  53  34  35  45  57
 46  46 145 111  89 162 118 102 150 103  93 124  83  72 108  70  69 134 102 108 127 107
118  61  48  62  56  44  59 106  92  92 120  93 100 102  66  62  99  70  48 138  93  84
178 122 109 182 127 112 189 130 114 164 115  95 127  85  78 112  70  73 103  63  76 117
 92 102  95  75  84  55  39  51  81  62  68 144 119 117 149 115 109 122  84  85 134  90
 74 153 106  91 174 128 107 191 147 129 145 113 115  41  26  52  81  44  54 184 106  91
184 119 114 107  42  59 118  51  59 116  46  51 115  45  54 117  43  50
110  58  59 103  40  61 100  38  55 140  92  83 159  98  85 109  63  55  53  38  45  57
 44  49 148 114  85 164 125 107 156 111  96 145 102  80 134  98  81 132  88  84 124  89
 94 112  82  82 113  71  74 117  79  78 108  75  66 111  76  73 126  84  61 161 111  88
184 126 113 191 129 111 200 139 123 183 131 117 155 108  92 129  87  74 112  79  65 110
 76  71 113  74  81 114  72  75 125  82  88 132  87  82 138  89  83 145 100  98 155 107
 96 164 116  96 181 134 112 203 156 139 145 113 113  54  37  58 146  86  82 185  83  76
156  83  89 115  45  61 125  49  53 119  47  55 116  44  65 117  43  62
105  47  57 107  47  53 110  45  60 124  58  62 142  66  61 143  82  79 106  72  71  71
 49  50 157 121  99 170 128 103 165 121 101 153 116  99 149 112  98 147 107  89 140  96
 81 133  91  76 129  85  79 128  84  86 129  96  77 144 100  84 156 107  97 176 124 101
189 132 115 195 135 116 199 143 120 192 138 118 182 128 108 168 120  94 148 106  86 136
 92  93 135  90  89 135  92  89 140  95  90 148 100  94 157 109  99 161 116 101 168 119
104 177 127 111 191 138 122 203 156 141 145 116 112 107  70  69 198 132 119 180 102  89
135  70  68 126  51  60 129  50  69 124  49  67 120  51  63 122  44  66
110  50  60 112  47  58 114  47  48 113  51  50 146  79  81 167 105  95 131  91  85  75
 52  57 160 122 104 172 130 107 174 130 102 169 125 107 166 122 105 167 118 103 162 117
 96 156 116  91 153 117  98 160 113 102 165 117  94 167 119  93 167 118 102 181 126 111
191 134 110 197 135 111 195 139 117 186 137 117 184 134 118 182 133 109 179 130 109 169
122  96 165 118 101 162 114 106 166 117 102 171 120 108 178 126 109 180 130 112 186 135
117 189 139 126 194 143 123 197 152 126 134 105  97 118  73  64 194 123 109 175 109 101
130  59  70 133  61  71 133  56  68 131  56  61 128  51  57 128  49  57
114  55  66 115  49  66 117  49  55 114  50  61 140  77  76 172 108  95 125  72  74  63
 36  52 154 116 106 175 128 117 177 130 110 183 128 109 181 127 110 179 124 111 176 125
105 174 124 102 174 126 106 179 125 103 172 120 100 163 116  91 173 121 101 191 132 116
194 138 115 196 139 119 198 140 121 191 141 124 181 131 116 174 123 106 177 123 108 183
129 103 180 129 107 182 128 113 185 127 116 187 128 114 191 128 113 191 132 114 197 139
118 194 144 123 196 150 124 190 144 126 107  77  77 121  51  61 184 114 109 173 106 106
140  55  74 140  65  74 138  63  68 136  56  67 134  55  66 130  54  72
122  55  66 121  53  69 125  53  62 118  50  67 138  75  71 167 105  90 151 107 106  84
 63  66 134 104  86 174 130 113 175 126 116 181 130 111 186 130 113 185 127 113 185 128
117 187 128 111 186 123 110 181 123 109 171 116  98 164 114  90 178 126 102 194 137 122
196 139 121 195 140 116 201 143 118 205 147 129 190 136 116 183 127 109 175 117 108 177
119 105 187 127 113 189 131 119 193 134 115 193 134 120 194 136 122 193 137 124 195 141
119 194 143 116 196 148 124 173 130 112 130 104 107 182 142 141 183 117 106 169 100 106
148  65  79 146  70  80 144  63  80 145  61  77 141  62  69 138  58  73
125  57  65 127  52  73 126  57  60 123  54  65 136  66  76 157 102  98 199 178 168 135
121 112 111  82  70 169 128 109 170 123 111 173 126 108 178 128 109 184 128 110 186 130
114 186 128 112 183 125 103 174 118 104 172 121  99 184 132 112 182 132 113 189 135 116
197 136 121 194 137 127 200 135 119 201 142 119 195 141 122 204 145 130 191 137 117 168
110 101 182 124 109 191 127 121 196 132 120 195 136 122 194 139 125 192 138 126 191 138
122 191 138 114 187 146 120 148 112  98 165 144 142 228 204 206 183 117 110 161  91  94
154  72  92 153  74  88 150  68  93 148  68  86 147  62  82 145  60  78
126  58  77 127  55  80 128  56  76 133  56  78 137  58  74 147  88  90 209 188 175 174
157 146 108  72  73 158 119 108 162 122 104 164 121 110 174 126 109 181 131 106 183 131
114 185 128 105 179 123 102 168 116 103 170 118 103 174 118 110 161 113 108 168 116 102
180 122 109 185 126 122 187 129 114 175 124 101 158 102 101 164 109 104 174 122 106 167
112 105 176 117 106 184 124 110 194 127 115 198 132 120 194 137 119 187 137 117 186 133
122 185 135 115 176 138 111 126  90  88 199 179 175 223 189 188 175 105 110 164  84  91
163  79  93 156  77  96 156  74  94 154  72  84 149  73  81 149  66  82
130  61  73 130  59  76 133  60  74 137  61  71 138  65  78 134  57  72 194 166 157 201
186 169 116  79  78 136 108  92 149 117  98 155 119 104 170 124 109 179 127 113 183 125
111 180 123 106 172 116 110 167 116 100 159 111  99 136  90  89 125  83  77 134  90  83
144  98  87 152 108  95 161 113 101 149 104  89 136  93  87 133  91  93 157 108 103 174
120 109 176 119 109 178 120 107 188 124 109 193 130 117 193 136 121 186 137 124 179 131
115 173 133 110 152 117 102 158 133 126 232 212 206 208 155 148 176  97 103 170  84  95
166  82  95 161  81  92 161  79  87 160  76  84 154  79  76 154  75  77
135  62  74 136  61  75 138  62  72 138  63  75 141  66  82 139  53  72 157 114 123 215
204 192 137 117 107 120  91  77 137 108  88 145 112  96 159 118 110 171 122 115 176 123
105 171 119 103 162 118 105 155 116  98 148 109  92 126  95  84 112  83  70 115  85  72
116  87  81 120  90  89 127  90  90 125  92  83 125  97  81 134 102  94 151 112 101 169
122 105 175 124 109 173 121 111 179 123 106 185 131 114 189 134 118 182 135 124 174 127
117 164 128 108 135 103  91 176 159 154 223 187 187 179  92 106 177  97 103 174  90 100
174  82 103 170  84  92 162  85  88 165  78  92 161  77  91 155  77  88
139  64  81 140  59  79 139  66  74 138  69  86 142  68  88 146  69  73 147  72  88 172
138 136 133  99  96 124  93  84 137 103  97 141 106  95 149 111 105 159 117 106 168 121
102 159 112  97 143 106  94 131  98  90 118  88  79 109  82  78 107  82  74 110  81  72
 96  75  64  94  73  72  97  71  77 103  74  69 115  82  73 123  89  84 124  95  82 135
106  90 143 107  94 151 112  93 171 119 108 184 128 115 183 135 114 171 132 114 165 121
112 154 119 105 145 102  94 171 111 117 186 110 119 181  91 109 179  98 111 180  91 101
177  88 102 174  86  93 171  84  91 169  82  97 164  80  94 161  78  99
142  69  76 141  69  69 142  68  75 140  72  82 141  76  80 146  73  77 152  74  79 149
 55  71 141  72  80 126  97  82 140 108  89 143 107  94 141 107  96 150 114 100 159 120
 96 147 104  94 121  88  84 118  85  88 122  90  79 128  96  83 137  97  85 139 103  91
136 100  86 124  89  81 134  96  93 140 104  90 139 104  89 141 104  92 143 102  96 132
 98  94 116  90  82 126  94  87 156 109 100 177 126 118 178 132 116 164 130 115 169 128
116 152 119 106 157  99 103 193  99 116 186  97 110 186 102 107 185  96 106 182  96 104
179  93  98 181  86 103 178  82 106 173  83 103 171  81 100 169  82  96
144  70  86 140  71  79 142  71  82 149  65  86 150  68  84 148  75  78 151  77  81 157
 73  89 154  77  87 131  90  76 128 105  89 140 110  94 143 109  93 146 112 103 151 116
104 133  98  88 110  80  76 102  65  68 105  66  72 119  73  67 130  76  69 128  76  81
135  82  83 137  86  85 136  85  80 128  75  74 129  74  72 130  83  74 121  75  79 108
 70  67 105  75  55 116  84  72 144 102  90 172 122 117 167 125 116 166 128 107 167 128
112 143 112 104 176 102 109 196 108 116 190 106 111 191  98 111 187  98 113 185  96 106
181  93 100 180  89 110 180  88  99 179  84 103 176  83  96 171  84  92
143  70  80 145  69  81 145  70  83 146  71  78 149  67  87 152  70  92 152  75  91 155
 76  86 159  77  85 143  78  81 118  93  76 136 109  87 145 112  89 140 112  89 145 112
 95 128  98  84 118  89  69 131  95  73 134  97  85 137  89  82 137  81  78 145  74  83
143  77  81 141  74  80 143  71  87 146  74  82 148  79  85 147  86  90 136  90  79 132
 91  81 136  88  77 133  90  71 157 108 100 169 123 113 168 127 113 174 134 109 159 127
106 154 105  99 194 107 117 198 105 113 195 107 108 193 101 115 193  97 112 190  97 105
185  96 104 183  95 102 184  90 108 183  87 100 177  85  98 174  85  89
144  76  84 150  77  90 152  76  98 152  77  89 153  80  81 156  79  95 158  82  96 156
 84  86 160  83  93 157  84  89 129  92  79 126 105  89 145 112  92 144 111  91 144 109
 96 141 104  85 135 100  88 151 107  84 151 110  91 146 105  97 142  98  87 145  93  85
145  91  84 144  90  93 150  90  93 152  92  94 157  98  95 161 112 104 164 119 103 165
116 100 156 109  94 149 103  85 161 117 104 172 129 116 173 127 114 157 124 109 139 107
 94 185 105 108 202 107 119 199 104 118 201 102 117 195 102 113 194  99 114 191  98 109
186  97 105 185  94 101 186  92 104 180  89 105 181  84 106 179  84  99
146  79  89 142  66  75 143  54  63 144  52  64 144  49  61 148  45  66 150  53  74 153
 59  74 155  72  83 160  79  88 152  74  74 115  78  66 120  94  83 133 107  91 144 109
 99 145 103  91 132  92  88 145 101  86 149 103  92 138  99  79 122  87  70 102  76  79
 87  62  64  75  52  64  89  52  63 106  66  62 125  89  77 138  98  92 146 102  91 151
106  96 150 107  94 152 108  90 170 123 108 178 132 119 164 123 115 136 104  98 164  95
103 200 107 116 197 105 119 200 103 118 201 102 119 198  99 117 193 100 109 191  98 111
187  97 115 189  94 108 184  95  99 181  92 110 183  85 104 182  84  99
133  33  51 144  69  87 159 107 116 167 119 126 176 131 141 178 129 139 169 104 114 165
 84  92 154  66  78 157  54  80 162  73  80 146  81  70 106  83  74 113  87  76 129 102
 86 139 106  88 134 100  87 134  98  85 149 107  83 144 105  83 129  92  77 106  74  71
 85  59  56  75  54  56  86  58  57 102  71  60 125  83  74 144 100  88 152 111  92 150
111  93 151 109  96 156 116 102 164 128 116 158 122 108 141 109  99 158 108 103 203 112
122 200 115 124 197 114 128 198 105 127 196 103 120 196 100 122 194 100 112 191 100 110
193  98 111 190  96 114 185  96 109 182  93 102 180  90 103 182  90  98
189 176 182 232 224 226 249 245 246 243 239 238 212 207 210 225 221 222 234 229 227 232
224 225 230 218 220 222 204 207 235 224 226 238 227 225 146 120 103 101  74  69 102  80
 70 117  91  72 129 102  81 129 102  82 140 105  83 141 105  87 139 101  95 140 105  97
132 105  92 127  99  92 130  98  88 141 107  95 146 110 103 152 114 101 160 121 106 156
116 102 151 115 103 150 118 104 145 114 104 128  96  94 150 114  96 185 109 106 191  74
 90 191  74  90 195  91 110 199 108 128 198 113 128 196 108 126 194 102 113 193 100 107
192  98 105 188  99 106 186  96 108 183  94 106 181  94 104 184  89 111
255 255 255 240 245 246 251 255 255 255 255 255 218 216 214 169 164 173 193 197 199 198
200 208 217 219 228 250 255 253 243 245 249 223 222 224 152 119 104 132  95  81  99  71
 58  80  54  59  91  74  70 109  89  76 121  93  76 117  91  78 117  91  86 127  98  92
130 101  90 126 100  86 128  99  92 126  97  95 126  97  99 127  96  87 135 104  96 136
105 102 129  98  93 118  90  77 122  90  79 150 103 101 180 130 114 209 161 160 219 170
179 216 162 168 202 122 133 189  76  94 192  73  96 194  89 107 194 107 116 193 111 122
192  99 121 190  95 110 189  95 113 186  93 112 187  93 104 185  91 104
222 222 224 175 177 181 176 180 188 209 209 219 221 219 223 175 168 174 112 104 119  95
 82  96  97  86 107 155 155 159 112 105 117  81  35  51 140 106  86 143 104  79 130  94
 67  89  66  49  56  38  42  61  50  42  80  68  45  96  75  62 101  77  75  98  75  69
105  76  76 109  80  77 112  84  87 104  82  82 104  80  79 106  79  78  99  80  83  91
 69  79  91  65  81 107  80  61 143 104  79 170 121 111 179 128 116 201 188 188 215 211
215 230 225 229 247 240 242 232 212 212 213 166 170 200 121 135 192  74 100 190  65  85
193  98 114 192 106 117 189  95 107 185  94 101 188  90 102 184  92  98
122 123 138 134 132 137  97  97 108  91  91 112 104 104 120 129 129 134  96  97 109 103
 97 105  88  81  80   0   0  25   0   0   0 105  76  70 144 110  91 141 101  79 141  98
 83 125  92  72  93  68  62  68  48  48  56  42  33  65  46  46  66  50  52  60  46  41
 59  46  43  64  44  52  69  46  53  64  51  45  69  50  53  73  51  66  83  64  62  95
 73  70 121  91  75 149 105  88 161 118  99 168 125 103 180 134 113 160 136 129 126 127
130 140 136 147 194 195 198 237 235 239 255 255 255 245 238 239 233 207 213 216 165 170
190  98 109 186  84  88 189 112 112 192 106 117 191 101 109 183  94 106
 60  50  75  58  58  75  51  53  69  60  56  70  71  66  70  59  46  54  72  66  74  55
 48  53  42  28  31  48  39  50  82  60  65 134 100  90 140 103  91 143 104  79 143 102
 86 137 100  86 127  93  75 112  79  62  98  68  48  89  59  51  83  61  50  81  61  52
 82  62  51  76  56  48  86  52  64  97  67  66 102  74  60 106  72  71 123  88  82 139
106  93 150 114  84 161 114  97 165 120 105 175 126 105 183 135 116 156 125 104 109 108
107  88  81  86  52   0  47 147 134 151 235 230 238 255 255 255 255 255 255 255 255 255
238 224 227 198 131 145 181  56  88 181  66  89 181  78  85 184  96 104
 67  71  79  78  73  84  75  64  74  71  67  65  61  59  66  66  53  66  58  46  55  47
 24  31  58  37  41  77  51  53 110  75  58 137 101  77 143 102  85 142 105  82 144 104
 84 140 106  80 136 101  81 125  95  79 116  87  69 115  81  72 113  79  72 115  81  85
119  87  76 118  88  69 124  90  85 130  96  78 129  99  72 136  96  86 142 106  96 152
113  94 155 112  99 160 115 102 168 120 105 172 126 113 176 134 108 166 131 105 104  91
 95 120 114 116  87  83  95  55  51  69 153 143 153 222 217 222 253 253 253 255 255 255
255 255 255 250 246 247 224 195 200 207 165 171 200 141 149 185  92 107
 69  73  76  68  57  67  67  55  64  63  51  66  52  44  49  58  48  59  53  39  47  56
 38  40  78  50  54  91  65  40 124  88  75 135 102  74 139 104  85 142 105  90 143 104
 89 141 104  89 139 104  84 141 101  79 131  96  83 123  89  86 118  85  82 115  85  81
122  88  87 128  93  89 131  95  77 129  97  71 133 100  84 145 106  88 151 109  93 153
109  91 155 112  96 164 116  93 171 120 112 167 126 112 171 131 108 167 128 106  93  75
 76 101  96 101 113 112 122  86  85  97  69  57  70 173 167 172 238 236 241 255 255 255
254 254 253 255 255 255 255 255 255 255 255 255 253 252 253 243 233 234
 47  45  47  50  44  49  51  49  49  55  46  65  53  42  53  54  49  46  51  39  40  68
 43  55  82  58  57 107  77  57 133  96  78 139 103  80 140 106  85 142 102  84 143 100
 88 143 103  92 139 103  89 138 101  82 135  98  84 130  97  83 128  91  82 123  87  74
118  89  82 128  85  84 131  90  80 136  95  94 143 101 100 145 109  96 151 108  93 154
107  98 156 115  94 165 116 100 168 118 112 169 122 105 170 128 106 158 118 105  85  68
 76  83  85  96  98 100 116 110 105 119  65  59  63 102  86 101 180 174 183 239 237 242
255 254 255 254 254 254 255 255 255 255 255 255 255 255 255 255 255 255
