P3
# 8-bit ppm - RGB
35 33
255
 77 185 195  76 186 195  76 186 195  76 186 195  76 186 195  76 186 195  76 186 195  76
186 195  76 186 195  76 186 195  76 186 195  76 186 197  76 186 197  78 185 191  76 186
195 139 151  89 177 129  19 167 133  34 176 130  19 144 147  78  74 187 195  77 184 190
 74 187 195  76 186 195  77 187 196  76 186 195  77 186 193  76 186 195  76 186 195  76
186 195  76 186 195  76 186 195  76 186 195  76 186 195  76 186 195
 76 186 195  76 186 195  77 185 195  76 186 195  76 186 195  76 186 195  76 186 195  76
186 195  76 186 195  76 186 195  78 186 196  73 186 194  78 186 198  76 186 195  77 185
195 141 140  76 196 127  10 177 116  10 193 126   9 148 136  60  76 186 195  76 186 193
 74 187 195  75 188 196  76 186 195  76 186 195  77 185 195  76 186 195  77 185 195  76
186 195  76 186 193  76 186 193  76 186 195  76 186 195  76 186 195
 77 187 196  77 185 195  76 186 195  76 186 195  76 186 195  76 186 195  74 187 195  76
186 195  76 186 195  76 186 195  74 187 195  76 184 196  73 186 194 140 152  86 149 131
 55 204 186  28 236 207   7 228 201   8 237 205   8 211 189  26 149 133  58 142 148  76
 77 186 193  76 186 195  75 185 194  77 187 196  76 186 197  74 187 193  74 186 197  77
185 195  76 186 195  77 185 195  76 186 195  76 186 195  76 186 195
 75 185 194  76 186 195  76 186 195  76 186 195  76 186 195  76 186 195  76 186 195  77
185 195  76 186 195  76 186 195  77 187 196  74 184 191  78 186 196 167 134  31 194 125
  6 230 196   9 252 228   8 248 221  10 251 227   7 235 201   8 192 126   4 172 131  23
 77 186 193  74 187 195  76 184 194  76 186 195  76 186 195  76 186 195  76 186 195  76
186 195  76 186 195  76 186 195  76 186 195  76 186 195  76 186 195
 77 187 196  76 186 195  76 186 195  76 186 195  77 185 195  76 186 195  76 186 195  76
186 195  76 186 195  76 186 195  76 185 192  77 184 192  72 186 196 161 141  70 182 119
 40 229 209  24 255 244   4 250 237   8 255 246   6 232 215  21 180 121  43 169 137  60
 80 185 189  78 187 194  77 186 193  74 187 195  76 186 195  77 185 195  76 186 195  76
186 195  76 186 195  76 186 195  76 186 195  76 186 195  76 186 195
 75 185 194  76 186 195  76 186 195  77 185 195  74 187 195  76 186 195  76 186 195  76
186 195  76 186 197  76 186 195  76 186 195  75 185 192  78 186 196 157 125  38 176  86
  0 230 219   3 255 254  22 252 255   2 255 255  19 234 226   3 176  91   0 161 120  28
 75 185 194  75 185 194  76 186 193  76 182 193  76 186 195  76 186 195  77 185 195  77
187 196  76 186 197  76 186 195  76 186 195  76 186 195  76 186 195
 76 186 195  76 186 195  76 186 195  76 186 195  76 186 195  76 186 195  77 185 195  77
185 195  77 186 193  78 186 196  79 184 188 112 168 139 110 166 129 192 180 154 212 183
167 239 232  98 255 255   2 254 252  30 255 255   2 242 236  88 212 183 165 199 183 157
112 167 135 112 166 130  81 184 189  76 186 195  77 186 193  77 186 193  79 186 194  76
186 195  77 185 195  76 186 195  76 186 195  76 186 195  76 186 195
 76 186 195  76 186 195  76 186 195  76 186 195  76 186 195  77 185 195  76 186 195  76
186 195  74 187 195  76 186 195  82 182 188 177 118  16 190 121   0 247 242 239 255 255
255 255 255 165 255 255   1 254 255  55 255 255   1 255 254 151 255 255 255 250 248 249
192 130  32 186 122   1  87 181 181  76 186 195  76 186 195  76 186 195  77 185 195  77
185 195  76 186 195  76 186 195  76 186 195  76 186 195  76 186 195
 76 184 194  76 184 194  76 184 194  77 185 195  76 186 193  76 186 197  83 183 183  95
175 164  95 177 165  91 177 172 102 174 160 186 150  28 192 144   0 242 237 215 255 254
250 254 253 147 255 255   2 255 254  48 255 255   1 254 254 134 255 255 247 246 244 222
194 149  30 191 148   7 106 173 153  92 176 174  95 176 167  97 175 162  83 181 182  76
186 195  76 186 193  77 185 195  77 185 195  76 184 194  76 184 194
 76 186 197  76 186 195  76 186 193  74 187 195  76 187 191  76 186 195 115 161 122 193
130   1 180 121   4 180 118   1 188 131   0 244 218   1 248 223   0 252 249 118 255 255
137 254 254  78 255 255   1 255 255  25 255 255   1 255 255  73 255 254 136 254 251 120
249 222   7 245 221   0 191 139   2 179 117   0 181 122   2 195 131   0 123 157 107  76
186 195  78 187 192  74 187 195  77 187 196  76 186 195  76 186 195
 75 182 188  78 181 186  79 182 186  82 182 188  80 184 185  76 186 193 119 163 126 196
140  27 183 133  38 183 129  57 190 142  57 243 218  30 249 224  20 253 249 116 255 254
137 255 255  80 255 255   0 255 255  24 254 255   1 255 255  71 254 254 134 255 250 120
247 224  32 247 223  27 193 147  54 182 127  60 183 134  40 197 141  28 128 159 117  76
186 195  80 184 185  82 183 187  80 183 187  78 181 186  78 181 186
113  97  38 117  79  16 158 122  28 173 132  26 172 133  38 164 116  20 204 185  93 252
252 120 247 245 160 248 248 248 250 246 235 252 251 135 254 251 122 254 255  74 252 253
 36 253 254  29 255 254   3 255 254  12 255 254   4 254 255  27 255 255  43 253 254  65
255 250 120 253 251 128 249 247 232 249 244 248 249 243 167 253 253 119 210 194  99 166
118  22 173 134  39 172 131  25 162 124  25 117  84  17 118  85  18
120  85  17 127  75   0 168 109   5 187 121  11 181 121   7 175  95   2 214 189  89 254
254 130 255 254 171 255 255 255 254 255 255 255 255 145 255 255 133 255 253  60 255 254
  3 255 255  11 255 255  10 255 255   5 255 255  10 255 255  13 253 254   0 255 254  53
255 255 136 255 255 140 254 255 250 254 255 255 254 254 180 255 254 128 220 198  97 173
 93   0 183 122   5 184 121  10 174 112   5 124  74   1 125  75   2
117  92  26 115  61   1 209 182  17 232 203   3 233 216  85 237 228 123 240 239  99 254
255  56 254 253  87 255 255 139 255 250 132 250 232  74 252 230  67 170 163  31 116 117
  0 223 223  11 254 254  10 252 252   8 255 254  11 228 230   9 122 123   4 160 157  26
249 227  66 249 231  69 253 251 128 255 255 139 255 252  93 254 254  58 245 238  96 240
229 122 234 219  92 232 203   1 214 186  15 117  69   5 123  77   4
123  83  11 125  61   0 233 208  18 255 235   0 255 251 107 255 255 148 253 255 109 255
255   1 255 255   2 255 255   1 254 253   2 246 222   0 247 221   2 108  93   0   0   0
  0 210 209   3 255 255   9 251 250  10 255 255   9 220 219   5   0   0   0  84  69   0
243 219   0 247 221   0 254 251   0 255 255   1 255 255   1 255 255   0 255 255 104 255
255 149 255 252 113 255 233   0 239 216  17 127  68   0 135  80   0
 95 143 117  91 130 111 169 160  39 194 162   0 206 180  69 215 193  94 227 212  69 251
238   0 252 238  26 255 255  35 253 253  33 246 224  17 250 223  18 125 115   4   1   0
  0 212 211   5 255 255  10 251 250   8 255 255   9 220 221   6   0   0   0 108  98   3
246 221  15 248 223  17 254 251  32 254 254  36 249 240  25 252 236   0 230 214  67 215
193  94 206 182  72 190 160   0 172 159  31  93 135 111  97 137 110
 76 186 195  75 185 192 103  77  46 113  38   1 155  92   0 175  97   1 208 165   0 254
228  11 249 229   8 253 255   6 254 252   7 247 224   7 248 223   7 119 108   1   0   0
  0 212 211   5 255 255   9 251 250   8 255 255   9 220 221   6   0   0   0  98  91   1
246 219   6 248 223   9 253 251   6 255 255   9 252 230   5 253 226  11 214 172   0 173
 94   1 160  96   1 113  37   3 102  68  31  76 186 195  76 186 195
 77 184 190  77 187 196 102 138 102 105 117  69 143 121  45 163 107  20 190 152  15 228
194   7 230 207   8 255 255   9 255 251   9 248 223   7 247 222   8 138 117   0   0   0
  0 215 213   6 255 255   7 252 251   9 255 255  10 224 220   7  15   1   1 126 101   1
246 221   7 249 222   9 252 250   7 254 255   9 235 209   8 230 195   8 194 157  14 162
106  19 146 121  39 106 118  72 105 133  93  76 184 194  76 183 191
 76 186 197  77 183 194  76 186 195  76 186 195 101 121  86 127  73   0 147  93   5 176
103   9 195 158   7 254 255   9 253 253   5 247 222   8 248 221   6 157 122   2  88   0
  0 220 214   4 255 255   9 251 253   6 255 255   9 228 223   7  95   0   0 147 111   1
244 218   7 246 221   5 253 251   6 255 255   9 202 168   7 172 101   9 152  96   3 125
 72   2 105 113  72  76 186 195  76 186 195  76 186 195  76 186 195
 77 187 196  75 187 198  78 182 189  76 186 197 101 134 103 113  89  29 138 112  27 171
110   6 194 156   9 255 253  11 252 246  10 251 228  10 249 229   8 179 141   4 136  60
  3 228 218   7 255 255   9 253 251   9 255 255   9 230 224   6 141  71   2 171 131   7
247 227   6 249 229  10 252 245   7 255 254   9 197 169  10 174 109   9 145 115  27 113
 87  28 102 129  96  77 187 196  76 185 188  76 186 195  76 184 194
 74 186 197  75 185 194  77 187 196  75 185 192  77 187 194  76 186 195  95 147 122 119
 56   2 159 129   7 246 223   6 247 224   6 251 253   4 255 255  10 243 187  16 238 150
 17 249 231   9 255 255   8 253 253   5 255 255   7 253 235  15 237 154  18 242 181  15
255 255   9 255 255   7 247 224   7 249 223   6 168 138   6 117  51   1 100 141 109  76
186 197  76 186 193  76 186 195  77 187 198  76 186 195  76 186 195
 78 186 196  76 186 195  76 186 195  77 187 196  75 182 190  74 187 195  96 146 119 119
 59   1 161 127   4 250 225   9 247 224   7 254 252   9 254 254  10 243 192  13 239 158
 17 250 230  12 255 255   8 253 253   7 255 255   9 250 235  10 239 162  20 242 185  16
255 253   8 255 253   8 248 225   8 251 225   8 168 140   5 121  54   1 101 141 107  77
187 198  77 184 190  76 186 195  76 186 195  75 188 196  77 185 195
 76 186 195  76 186 195  76 186 197  76 186 195  77 184 190  76 186 195  98 148 121 121
 61   0 158 129   2 248 223   7 247 224   7 252 254   7 255 254   9 253 250  11 253 248
  9 253 253   7 255 255   9 254 252   7 255 255   9 253 253   7 253 248   9 255 250   9
255 255   9 254 254   8 248 225   8 253 224   8 168 140   5 119  57   0 100 140 106  77
185 197  77 184 190  76 186 195  76 186 195  77 185 197  76 186 195
 76 186 195  76 186 195  75 185 194  77 187 196  77 185 195  76 186 195  96 150 126 117
 56   1 156 126   4 249 222   7 247 224   7 253 253   7 255 255   9 255 255   7 255 255
  9 255 255   9 255 255   9 255 255   7 254 255   9 254 254   8 255 255   9 255 255   9
255 255  11 255 253  10 247 224   9 250 224   5 167 137   5 117  51   1  98 141 111  74
187 195  76 186 195  76 186 195  76 186 195  77 185 197  76 186 197
 76 186 195  76 186 195  77 186 193  74 187 195  98 138 111 110  93  37 138 113  33 171
105   8 193 157   9 253 251   8 253 248   7 255 253   8 255 255   9 251 234   7 247 227
  8 247 229   7 247 229   9 247 229   9 247 229   9 247 229   7 248 228   9 250 232  10
255 253   8 255 253   8 253 248   7 255 251   9 197 167   9 170 104   7 142 114  31 108
 91  37 102 131  99  76 186 195  76 185 192  74 187 195  76 186 195
 76 186 197  76 186 195  76 183 191  76 186 195 105 122  78 136  79   0 150 100   3 175
112   9 197 162   8 255 255   9 255 255   7 255 255   9 255 255   9 249 230   4 246 223
  6 251 227   9 252 226   9 253 227  10 253 227  10 251 227   9 246 223   8 249 229   8
255 255   9 255 255   9 254 255   9 255 254   9 202 173   9 175 110  10 153 103   4 134
 78   1 109 112  65  76 186 195  77 184 192  76 186 195  76 186 195
 76 186 195  76 186 195  77 184 192  77 187 198 104 126  87 119  68   2 165 117   7 220
148  14 226 179  13 254 254   8 253 251   9 249 236   8 247 235   9 240 201  12 244 192
 13 207 172   8 182 158   6 188 162   7 183 159   7 205 172   9 242 191  14 241 197  12
248 233   6 249 234   7 254 249   7 255 255  10 226 184  10 221 147  16 172 120  10 119
 68   2 108 117  72  76 186 195  77 184 192  76 186 195  76 186 195
 76 186 195  74 187 195  77 184 192  76 186 195 106 124  82 117  66   0 178 120  10 247
161  16 244 188  15 255 255   7 255 255   5 249 227   6 251 225   8 245 177  18 248 166
 20 179 112   7  96   5   2 122  55   2  99  16   2 168 102   5 248 167  18 242 174  16
250 223   8 250 227   9 255 255   9 254 254   6 246 194  15 245 158  15 189 128  11 114
 66   0 110 119  72  76 186 195  77 184 192  76 186 195  76 186 195
 77 187 196  76 186 195  78 184 195  76 186 195 107 128  87 115  61   0 176 135   7 246
190  15 242 196  13 248 228  10 246 222  12 227 193   8 224 192  11 206 153  13 210 141
 14 146 133  54 100 120  82 114 124  72 100 121  80 140 133  55 208 141  13 207 149  14
223 191   8 226 192   9 245 221  11 251 228  11 238 197  11 248 193  15 185 143   9 117
 58   0 111 120  73  76 186 195  77 184 192  76 186 195  76 186 195
 76 186 195  76 186 195  77 185 195  76 186 195 105 128  84 115  44   0 183 158   6 255
238   8 247 215   8 242 156  17 236 158  16 183 116   9 177 113   7 127  75   0 118  65
  0  88 146 134  76 186 195  76 186 195  76 186 195  83 154 146 116  65   0 123  73   0
175 113   6 179 117  10 234 155  18 243 155  19 247 212   9 254 237   7 195 167   6 113
 40   0 110 122  72  76 186 195  77 184 192  76 186 195  77 185 195
 76 186 195  77 186 199  76 185 192  77 185 195 103 128  86 121  56   0 171 142   6 233
207   6 225 191   8 221 152  12 218 151  13 177 121   8 171 117   8 129 106  36 115  93
 33  90 154 137  76 186 195  78 181 186  76 186 195  89 160 150 115  95  34 124 105  39
170 118   9 173 117   6 216 150  12 221 152  12 223 187   5 234 208   9 180 149   5 119
 54   0 108 120  72  76 186 195  77 184 192  76 186 195  77 185 195
 76 186 197  76 186 195  75 184 191  76 186 195 102 122  85 132  79   0 120  71   2 117
 63   0 116  65   0 117  68   0 118  69   0 120  72   0 123  73   0  82 167 162  77 185
197  76 186 195  76 186 195  76 186 195  76 186 195  77 185 195  76 186 195  82 173 174
121  74   4 120  72   0 118  69   0 117  68   0 116  65   0 117  62   0 120  71   4 132
 79   0 107 115  74  76 186 195  78 185 193  77 187 196  77 187 196
 76 186 195  78 186 196  77 185 195  76 186 195 102 122  85 132  79   1 122  76   3 124
 76   0 124  75   0 124  75   0 124  75   0 123  75   1 125  76   0  85 164 158  76 186
195  77 186 193  76 186 195  76 186 195  76 186 195  76 186 193  76 186 195  84 170 169
123  77   4 124  75   0 124  76   0 124  75   0 124  75   0 124  76   0 122  76   3 131
 80   1 107 116  73  76 186 195  77 184 192  80 186 197  77 187 196
