P3
# 8-bit ppm - RGB
50 50
255
128 123 124 126 121 122 126 121 121 125 119 119 123 118 118 121 116 117 120 115 116 120
113 116 118 112 115 118 111 113 116 110 111 115 109 110 115 108 109 114 107 107 112 106
106 110 104 104 110 102 105 108 101 103 109 103 105  87  79  80  43  27  27  31  23  24
 40  35  36  75  71  70  94  90  89 100  96  96 102  97  98 101  96  96 100  95  94 100
 94  94  99  93  92  97  92  92  96  92  91  96  91  90  95  91  88  95  90  87  94  89
 86  93  88  85  93  88  86  92  88  87  89  87  85  83  81  78  75  70  69  61  56  55
 39  36  36  31  27  26  50  45  42  65  63  58  58  56  55  18  15  18
122 117 117 121 116 116 120 115 115 120 114 114 117 112 114 115 111 111 114 110 111 114
108 111 113 107 110 112 106 108 111 106 106 110 105 105 109 104 104 108 102 103 107 101
102 106 100 101 105  99 101 105  99 101 105 100 101 102  94  94  58  46  44  28  21  21
 16  13  16  25  16  20  70  62  60  84  78  76  88  82  83  91  85  85  92  87  86  92
 87  86  91  84  83  89  82  80  87  81  78  84  78  76  81  75  69  77  70  67  73  65
 63  70  60  57  64  56  54  60  54  53  51  47  45  44  39  39  31  25  33  40  34  42
 59  56  54  76  72  68  71  66  63  74  71  67  51  49  48  15  11  16
112 108 109 112 110 109 112 108 107 111 106 107 110 105 107 109 105 107 109 105 107 109
104 106 108 102 104 105 103 103 106 102 101 104 100 100 105  99  99 104  97  98 104  97
 97 103  96  97 103  96  95 100  94  92  98  91  89  96  89  87  64  53  52  30  20  20
 24  21  23  28  21  22  69  61  51  92  81  66  90  78  67  67  59  52  50  44  42  56
 48  46  56  44  42  51  38  35  48  34  32  44  31  27  43  30  25  41  27  22  39  23
 19  37  22  16  34  20  16  22   6   7  15   0   6  48  38  41  68  62  54  88  83  72
 71  64  62  68  61  62  77  70  67  79  74  71  43  38  38  16  13  12
110 106 107 104  99 100 101  95  95 103  96  95 102  95  94  99  93  92  97  89  89  97
 87  87  92  85  85  91  84  83  86  79  78  87  77  77  88  74  74  84  70  71  78  67
 65  77  66  64  74  63  62  66  54  53  59  48  46  49  41  41  38  31  33  29  23  27
 26  22  24  26  20  23  41  36  34  56  49  42  55  47  40  45  37  35  23  13  15  29
 19  21  33  22  24  34  23  23  34  23  23  36  23  22  38  25  23  40  27  25  40  27
 23  41  27  23  34  23  23  43  37  36  32  25  27  60  52  49  82  74  63  95  88  77
 69  62  62  65  60  62  71  66  63  70  65  63  38  33  35  20  16  16
 95  89  86  92  86  85  75  68  67  58  46  47  67  55  55  72  57  56  72  57  59  68
 54  58  68  54  54  64  53  52  59  52  53  48  39  40  51  37  37  46  34  34  36  25
 25  32  23  24  32  25  28  32  25  29  31  23  27  27  23  25  21  21  23  23  21  23
 23  20  22  23  20  23  21  16  22  12   8  18  15  12  21  25  20  25  28  23  26  28
 23  26  29  23  27  33  28  30  34  28  29  37  30  29  38  30  28  37  28  25  39  28
 25  43  31  28  31  16  13  80  72  65  71  63  56  69  58  50  75  61  55  74  62  57
 61  49  46  63  52  50  54  42  37  55  43  39  48  37  32  43  31  26
 49  40  32  50  43  38  78  71  69  34  27  28  30  16  20  43  24  25  66  49  54  61
 49  53  46  37  34  45  37  36  48  41  43  36  31  33  33  28  30  32  27  30  32  28
 30  33  31  34  32  30  33  32  27  30  30  25  29  28  24  27  23  22  23  21  20  21
 23  20  22  22  21  22  24  22  23  23  21  22  23  21  22  24  22  23  24  21  23  23
 20  22  21  17  20  18  17  19  20  17  18  26  21  21  29  23  23  31  23  24  37  29
 29  44  36  34  48  37  31  64  52  43  63  50  41  52  38  30  50  35  29  46  30  23
 39  25  18  36  22  15  38  25  23  33  21  20  30  20  16  28  20  16
 54  47  40  37  32  30  48  43  42  40  35  35  32  25  25  45  33  32  57  42  41  51
 38  35  44  36  35  40  32  34  39  29  33  38  31  36  36  30  34  35  30  34  33  29
 31  32  28  29  29  25  27  27  23  25  26  21  26  23  20  24  22  19  23  22  19  21
 24  23  24  24  24  25  23  21  22  23  20  22  23  20  21  23  20  21  24  21  23  26
 22  24  23  20  22  22  19  21  21  18  20  18  15  17  20  16  18  22  18  21  23  21
 24  24  21  23  27  22  21  13   7   3  15   6   4  22  10  11  18  12  11  19  15  14
 21  15  15  22  17  17  20  14  15  21  15  16  21  15  15  21  15  14
 54  42  41  66  54  49  65  54  47  59  48  41  60  52  47  57  50  46  47  41  39  43
 36  38  39  31  35  37  31  36  38  32  37  37  31  34  36  31  34  33  29  33  29  25
 29  24  22  22  24  21  22  23  20  21  23  19  23  22  19  23  23  19  23  24  21  24
 28  24  26  25  24  25  28  24  26  32  28  30  34  30  32  35  31  33  33  29  31  32
 28  30  33  29  31  31  30  31  27  26  27  26  25  26  22  21  22  18  17  19  19  17
 22  17  17  19  20  19  19  27  25  24  29  24  24  28  22  22  27  20  21  25  19  19
 24  17  17  24  17  16  24  16  18  23  16  16  22  17  13  23  17  16
 58  43  39  59  46  39  57  44  39  57  44  38  58  46  44  49  43  42  42  37  36  38
 34  33  37  35  35  39  36  38  38  34  36  34  28  30  30  25  29  28  23  29  26  22
 26  23  19  23  23  19  21  22  18  19  21  17  20  21  17  20  22  18  21  23  20  22
 24  21  23  27  23  25  31  27  29  36  32  34  38  34  36  38  34  36  33  31  33  30
 28  30  31  29  31  33  32  33  29  28  29  30  28  30  27  26  27  26  26  27  25  24
 26  25  24  25  23  23  24  23  22  24  26  22  25  26  22  25  27  22  23  27  21  21
 26  19  18  26  18  17  27  16  17  27  18  16  26  18  15  25  16  16
 28  20  20  28  20  16  30  21  20  41  31  33  44  36  38  38  33  35  38  34  35  38
 34  34  40  35  36  38  35  36  35  31  33  30  26  29  27  23  27  26  22  25  25  20
 24  21  17  23  20  16  22  20  16  21  20  16  22  20  17  22  20  16  19  23  19  21
 24  22  24  28  24  26  29  25  29  29  26  28  27  25  27  23  22  23  23  22  23  23
 21  23  22  21  22  24  21  23  24  21  23  26  21  23  28  24  26  31  30  31  33  32
 33  30  29  30  26  25  27  26  25  29  24  23  26  24  22  25  24  23  22  26  23  19
 30  22  21  33  21  21  33  20  18  30  18  15  28  21  19  34  25  21
 32  25  23  34  27  25  42  35  35  48  38  44  46  38  42  42  37  40  41  37  40  41
 37  38  41  36  37  36  32  32  32  28  29  28  24  26  26  22  24  22  19  21  21  17
 20  20  16  19  19  15  20  18  15  20  18  15  20  20  17  21  23  21  23  29  25  27
 30  26  28  29  25  27  29  23  26  28  24  26  26  22  24  22  21  22  21  20  21  23
 20  22  23  20  22  23  19  21  24  21  23  26  22  24  24  22  23  25  24  26  30  29
 31  29  27  29  24  22  26  24  22  26  24  23  26  23  21  25  23  21  22  27  21  21
 30  21  20  35  23  22  39  25  23  48  28  22  56  33  22  65  37  25
 41  29  28  42  32  32  46  38  40  48  38  44  46  38  42  44  37  41  42  38  40  45
 39  40  41  35  36  32  28  28  29  25  25  25  22  22  23  19  20  20  16  19  19  15
 18  19  15  18  18  14  17  19  14  17  20  16  19  25  20  23  28  24  26  28  23  26
 26  24  26  25  23  25  24  21  24  26  22  25  27  22  25  24  22  23  22  21  22  23
 22  23  23  21  23  24  19  22  26  21  23  28  23  26  28  24  25  23  22  23  22  21
 22  23  22  23  23  21  23  22  19  23  22  19  23  23  20  23  23  20  22  26  21  22
 39  27  23  52  32  25  67  43  31  80  53  39  87  64  48  92  73  57
 49  34  34  49  38  36  49  40  41  47  41  41  44  38  39  43  37  38  46  40  41  42
 36  37  35  29  30  29  25  25  24  21  21  22  19  18  20  16  19  19  15  20  18  15
 20  18  14  19  18  14  19  18  14  19  20  16  21  24  19  23  28  22  24  27  23  24
 25  23  25  24  24  26  24  23  26  25  20  25  25  19  24  24  19  22  23  20  21  23
 19  21  22  19  20  22  18  20  22  18  21  23  19  21  23  20  21  22  19  19  22  19
 19  23  19  18  22  19  19  19  18  19  19  18  19  21  18  20  20  20  21  22  19  21
 42  32  25  75  61  48  86  72  56  91  76  64  86  77  65  79  72  60
 74  57  53  66  49  50  46  40  40  46  40  39  43  36  36  44  38  40  45  39  42  37
 31  34  30  23  29  26  20  25  22  17  22  20  16  22  19  15  18  19  14  19  19  15
 20  19  15  20  21  17  19  23  19  21  24  21  23  28  24  26  32  30  29  35  31  31
 31  25  28  29  24  25  27  25  25  27  23  25  26  20  24  26  22  23  24  22  21  23
 20  19  22  19  19  21  17  20  22  18  19  22  18  19  21  17  19  21  17  17  21  17
 17  21  17  17  21  17  18  20  17  19  18  17  19  20  17  19  21  18  19  20  17  19
 27  25  21  78  72  60  80  71  61  72  63  53  78  72  60  76  67  53
 77  59  56  64  49  50  44  37  37  44  38  38  46  39  41  47  40  43  42  35  37  38
 32  35  32  25  30  27  20  25  24  18  23  23  19  21  23  19  22  22  19  23  23  19
 22  22  17  20  23  20  22  30  25  29  33  28  31  35  30  32  35  31  32  34  30  32
 35  28  31  34  29  30  30  26  26  32  25  27  33  25  27  31  26  27  29  23  26  27
 22  22  26  21  22  24  19  21  22  18  20  22  18  20  21  17  19  22  17  17  21  17
 18  21  17  17  20  16  17  19  15  18  19  16  18  20  16  18  20  17  17  18  17  18
 22  18  19  64  58  48  72  64  52  81  73  57  91  82  65  88  75  57
 66  53  51  47  41  41  44  37  38  46  40  41  49  44  46  44  36  39  40  33  35  38
 33  36  33  27  31  30  23  27  29  23  25  28  24  24  31  25  28  29  25  29  27  22
 23  27  22  21  26  22  23  27  22  25  29  26  28  31  27  29  36  29  29  39  31  31
 36  30  31  37  31  30  37  31  29  31  25  27  25  23  25  29  23  25  33  25  27  32
 25  23  32  25  23  30  23  24  25  19  20  25  20  20  24  21  20  23  18  18  23  17
 18  22  17  18  20  17  17  19  16  16  19  15  16  19  15  16  18  18  17  19  18  18
 21  15  20  65  57  49  77  71  57  82  74  58  84  73  56  89  75  58
 53  45  45  47  40  42  44  37  37  47  40  40  48  42  42  43  36  36  43  36  38  37
 32  34  33  28  30  33  27  28  32  25  27  32  25  27  30  25  25  28  23  23  32  25
 25  39  30  29  51  37  34  64  45  40  70  51  45  79  56  49  83  57  46  84  58  45
 80  56  43  82  58  45  82  59  48  71  48  39  62  41  36  54  36  34  49  32  29  54
 36  31  55  37  32  56  41  35  53  37  32  41  29  25  33  25  23  27  20  20  24  18
 18  22  18  18  22  17  18  21  17  16  20  15  15  18  14  14  16  16  15  19  18  17
 17  11  13  54  47  40  82  76  61  87  80  65  99  89  72 111  99  80
 48  42  41  48  42  41  46  40  38  47  41  39  51  43  43  47  39  39  41  34  34  35
 28  28  35  28  28  36  29  30  35  28  28  33  25  27  47  34  33  57  38  34  63  41
 36  73  46  41  85  54  45 101  64  52 107  67  53 111  69  55 106  68  55 100  64  47
101  65  49 105  69  51 106  70  51 106  69  51 102  66  50  93  58  47  83  52  43  82
 48  40  82  49  40  83  52  42  82  51  41  71  44  34  57  36  29  50  34  28  39  27
 22  29  23  21  25  19  19  24  18  19  21  16  17  19  15  15  16  14  14  20  16  16
 16  12  13  40  33  30  99  87  70 115  97  79 124 105  86 114  93  75
 47  40  38  46  40  39  46  41  39  49  43  41  52  44  43  47  40  39  37  30  29  38
 31  30  41  34  34  39  31  30  37  30  30  51  37  35  81  54  48  91  58  50  92  57
 47  97  58  48 102  64  49 110  67  50 114  69  50 114  70  53 109  69  52 106  66  50
105  66  51 107  67  51 111  69  50 114  72  51 112  72  51 109  67  50 103  62  48  97
 56  44  95  55  42  94  54  41  92  52  39  85  50  36  74  44  34  67  41  33  56  35
 27  39  28  22  28  22  21  23  19  21  21  17  18  20  17  16  19  15  14  20  15  15
 19  16  16  36  29  28  71  53  46  75  54  42  71  47  34  65  38  26
 47  40  38  45  37  37  46  40  39  49  43  41  50  42  41  47  39  39  40  33  32  44
 36  35  46  38  38  40  32  31  39  31  29  66  45  41  95  61  50 101  62  52 103  63
 49 105  63  50 105  63  52 108  65  52 111  67  53 113  70  54 113  71  51 111  69  51
109  69  52 111  69  51 115  71  53 117  73  54 120  76  57 119  75  54 115  70  51 109
 64  47 104  61  45 100  56  43  94  53  40  86  48  38  79  43  34  72  41  29  68  39
 29  54  35  28  34  23  20  24  18  19  23  19  19  22  17  17  20  16  15  19  15  15
 20  17  17  22  17  17  10   5   8   0   0   3   0   0   4   6   6   8
 52  44  38  43  36  35  45  40  38  49  43  41  48  40  39  46  40  38  46  40  36  43
 38  34  41  35  33  36  28  27  44  33  29  77  53  46 103  66  55 109  69  55 113  73
 56 117  74  57 118  73  57 119  73  57 121  74  57 122  76  56 123  77  56 123  76  58
119  73  55 119  72  54 121  73  53 122  74  54 125  76  56 123  75  54 121  73  52 116
 69  49 111  66  49 107  64  48 102  58  44  94  55  41  86  48  36  81  43  30  74  42
 30  65  38  30  44  26  23  29  19  19  27  16  18  24  16  19  22  17  16  21  16  15
 22  16  15  25  19  19  20  16  17  20  15  16  21  15  14  21  15  14
 44  38  36  44  38  37  47  42  40  50  44  42  50  42  41  47  41  40  44  39  36  40
 34  31  37  30  27  48  34  31  69  48  43  96  64  55 116  76  63 124  83  66 128  87
 67 130  86  67 132  85  66 136  86  68 142  92  72 145  95  73 145  93  71 144  91  69
141  87  67 136  83  64 132  82  61 133  82  61 136  84  63 135  82  60 133  80  57 128
 77  57 124  74  54 119  72  56 113  69  54 106  64  50  95  57  44  84  49  38  72  44
 33  62  37  30  48  28  26  32  20  19  27  16  17  24  16  18  23  17  17  21  16  14
 14  13  10   0   0   0  20  15  18  25  19  23  31  23  32  27  16  23
 68  57  47  50  42  40  45  39  38  50  45  42  50  43  42  46  39  40  41  35  35  37
 28  28  51  35  32  74  48  41 103  68  57 130  93  79 136 100  83 122  87  70 112  78
 61 113  78  63 116  79  65 120  81  66 134  91  74 142  96  76 148  97  74 151  98  76
152  99  76 148  95  73 144  93  71 145  93  71 146  94  71 147  94  71 143  91  67 138
 87  65 127  77  57 115  73  57 102  67  54  84  54  42  73  47  40  63  40  35  56  36
 32  46  28  26  40  24  23  31  22  19  26  18  17  24  16  18  23  18  18  24  17  16
 39  29  29  68  61  60  38  34  34  26  20  26  39  30  45  31  23  37
 97  79  55  51  39  31  44  35  33  50  41  40  47  40  38  42  35  34  34  25  26  39
 28  25  72  46  39  96  59  48 122  85  69 131  96  80 114  85  74  76  57  55  62  50
 53  59  50  54  56  48  53  57  46  51  71  57  56  85  64  60  95  66  55 112  72  56
136  90  68 147  95  73 145  93  71 145  93  71 143  89  66 145  93  71 138  89  68 121
 76  59 111  72  58  94  68  62  64  47  48  35  27  23  31  25  22  30  22  20  30  21
 21  30  21  21  30  20  20  27  20  19  24  18  18  24  18  19  19  18  16  36  21  22
 65  36  40 115 103  97  61  59  58  28  23  34  37  26  44  36  27  43
 68  53  38  69  56  47  42  38  36  25  27  29  36  31  31  30  23  24  26  19  19  47
 32  28  85  56  43 101  68  55 103  73  61  86  59  50  70  46  42  42   3   0  23   0
  0   0   0   0   0   0   0   0   0   0   0   0   0   0   0   0   0   0   0  64  45  39
 99  65  51 125  82  63 136  87  63 141  89  65 142  88  62 142  90  65 129  84  60 112
 74  55  96  62  50  43   2   0   0   0   0  31  19  15  29  19  16  29  19  16  27  16
 15  27  16  17  22  11  13  20  13  12  23  17  17  30  21  23  29  22  23  43  24  28
 58  20  28 117 101  96  82  76  73  36  33  37  39  30  45  38  31  45
 49  38  34  48  38  34 104  81  75 111  84  76  64  44  38  44  31  27  20  14  19  57
 39  35  89  61  48  99  70  55 103  74  61 101  73  66  81  58  52 101  98 110 124 131
152 147 158 179 154 165 186 163 170 189 181 183 198 184 179 188 151 137 134  69  49  42
 61  42  38  90  61  47 112  76  56 121  79  60 121  78  57 116  74  52 103  67  48  84
 53  34  66  43  19 105  95 116 105  92 117  74  58  59  70  52  48  59  40  36  53  34
 27  55  37  32  61  44  40  48  34  30  25  16  15  27  19  20  34  25  26  44  30  30
 50  11  19 114  95  90  90  83  77  20  16  19  40  33  44  40  33  47
 28  21  20   0   0   0 121  82  75 147  94  80 136  89  73 109  77  67  44  34  35  38
 18  22  67  44  40  90  69  59  95  75  69  76  52  32 127 124 150 166 182 236 171 196
252 172 201 249 182 220 255 172 208 255 178 212 255 207 219 255 184 172 194  94  49  35
 91  66  67  54  42  36  71  60  54  55  41  37  65  53  48  33  20  22  25  16  23  23
 13  17 161 155 198 211 207 255 165 160 214  65  51  63  52  41  41  63  43  43  61  39
 34  54  32  26  76  50  44  77  50  44  47  30  27  22  16  15  25  19  16  36  28  23
 46   9  13 104  86  79  96  88  80   0   0   0  37  30  40  41  31  46
 40  26  32  52  44  45 113  78  67 141  81  66 167 109  87 122  80  68  32  25  30  68
 52  48  44  28  29  39  38  40  52  50  51  66  43  31 132 113 131 152 150 196 147 148
196 154 155 195 172 185 223 146 174 227 118 157 224 137 161 224 128 119 154 102  59  45
102  70  63  63  44  40  39  29  29 102  72  59 109  76  54  92  63  52  32  15   3  63
 56  69 158 148 192 171 167 219 151 147 191  63  48  58  58  39  34  91  64  60  77  48
 43  61  31  24  80  49  42  85  52  44  60  39  35  32  26  23  30  26  22  27  20  16
 41   9   9  91  72  66 100  90  83  15   7  23  33  27  36  34  28  40
 58  37  52  69  62  65  98  75  69 118  71  59 161 109  88 105  65  52  22  11  21 130
100  85 143 109  90 108  80  63  18   4   6  99  74  66 125  80  57 127  73  43 129  77
 58 128  75  57 128  78  68 132  91  90 120  78  78 109  67  66  97  59  49  99  63  51
 93  58  42  66  42  38  40  23  23 113  71  56 126  80  58 107  68  51  55  34  27  40
 25  23  84  45   8  99  49  16 110  67  56 110  74  63 105  66  51 100  60  46  90  51
 38  90  53  43  94  58  48  84  54  44  66  44  41  41  29  28  36  30  27  66  56  51
 50  19  21  84  57  55 111  99  91  26  24  29  25  16  29  32  25  38
 68  46  59  61  55  62  60  44  49 106  74  69 146 105  92 134  94  79 101  71  61 148
109  89 173 125 100 178 130 105  94  67  55 104  77  66 152 104  85 150  98  81 150  99
 79 148  96  78 143  91  71 142  87  66 139  86  64 131  80  59 121  75  58 115  70  54
109  67  55  73  45  42  72  45  38 133  84  67 135  84  63 117  72  54  76  48  36  31
 19  23  91  61  56 116  75  67 119  75  63 120  72  57 122  72  56 115  70  53 108  65
 49 102  64  48  99  63  50  86  56  45  66  43  38  46  26  28  63  52  50  86  75  70
 61  34  35  77  47  47 109  97  88  48  41  39  33  20  25  43  30  37
 67  45  59  59  53  64  68  52  58  96  70  67 122  92  81 154 115  97 144 103  85 155
112  94 172 123 102 184 133 110 158 117  95  84  57  47 162 113  93 169 113  85 164 108
 81 159 102  79 151  95  77 147  91  76 144  89  74 143  88  72 141  87  66 140  88  71
106  66  55  67  39  33 129  87  70 160 107  85 149  95  73 132  80  58 106  64  51  41
 24  20  69  44  36 116  72  57 116  69  51 120  68  50 121  68  50 122  69  50 117  68
 48 114  68  49 107  65  51  85  54  41  69  48  40  46  32  31  45  34  32  53  42  38
 45  31  30  44  26  23  49  35  30  39  29  27  35  23  23  34  23  22
 66  45  58  53  48  59  54  43  53  93  71  69 104  79  69 146 113  95 141  98  79 155
110  93 172 122 102 183 129 107 188 134 110 130  90  74 109  72  57 169 114  91 175 115
 91 172 108  86 164 102  82 162  97  78 164  98  78 163 101  81 159 102  81 127  82  67
 72  43  36 107  72  60 152 101  79 169 111  87 161 104  81 140  85  64 113  66  49  72
 43  33  44  22  21  91  53  44 125  78  61 132  78  59 131  74  56 129  72  53 126  70
 53 120  70  55  98  58  48  73  44  35  69  50  44  49  35  34  13   7   5   1   0   0
 15  15  13  17  18  16  10   6   9  20  15  16  22  18  19  21  17  17
 70  48  59  47  39  51  69  55  62  93  64  64 100  72  65 151 118  98 146 106  86 147
102  84 167 117  97 183 128 105 187 129 105 185 130 109 131  90  79 110  68  57 140  90
 75 154  98  81 162 101  83 163 101  83 159  98  80 142  90  74 116  72  61 105  71  62
103  64  55 142  92  75 178 120  96 192 132 106 179 119  93 154  96  73 122  72  56  87
 46  37  81  50  44  80  53  46  82  50  38 102  64  48 110  66  51 107  63  49  97  54
 46  75  38  34  58  32  29  66  43  36  71  50  42  51  37  34  35  29  28  28  24  21
  8   2   1   4   0   0  14   0   0   0   0   0   0   0   0   0   0   0
 79  55  67   0   0  24 112 100  99 114 100  94 139 115 109 177 141 123 147 107  88 142
100  82 160 113  92 178 126 103 184 127 102 190 128 102 191 127 105 168 109  93 139  88
 74 124  79  65 122  77  67 117  74  63 114  72  58 123  80  68 140  90  80 141  89  76
147  92  76 170 112  92 205 144 118 213 149 121 198 132 106 173 109  86 142  89  72 102
 57  49  82  43  34 118  79  63 128  86  69 114  72  61  97  58  48  87  54  44  82  52
 42  87  54  43  90  58  45  90  59  44  78  52  38  46  35  28  32  27  25  40  34  32
 57  51  49  64  58  56  66  60  58  68  63  60  70  65  61  70  65  61
 85  66  68 103  96  95 125 120 115 134 130 122 132 120 112 128 103  91 122  90  75 148
106  89 156 108  89 166 115  93 178 123  99 183 124  99 188 123  96 192 124 101 188 121
 96 182 117  94 177 116  94 172 113  91 169 110  87 174 113  91 170 105  84 168 106  86
200 139 115 204 138 115 211 141 118 211 141 117 209 138 112 203 135 112 168 109  89 124
 74  59 109  63  46 117  68  50 152  98  77 164 103  82 157  96  75 148  93  71 136  84
 63 124  75  55 111  67  49  97  58  42  75  47  37  40  32  27  31  27  26  33  28  28
 54  48  47  64  56  55  70  60  58  61  55  54  60  58  56  58  54  52
110 102 100 124 118 112 119 113 107 134 128 122 110 102  97  81  73  73  99  79  72 145
106  87 153 105  87 159 109  87 173 121  99 180 124 102 184 122  97 184 119  92 184 117
 90 183 115  89 183 114  92 183 114  92 181 113  88 178 111  85 174 108  84 177 111  91
183 121  96 177 110  89 176 105  86 180 111  90 186 118  96 183 118  95 156  98  77 124
 71  51 126  75  56 129  78  59 144  92  70 156  99  74 156  98  71 149  92  66 137  84
 61 124  74  53 108  63  44  94  56  41  68  44  36  35  29  27  33  29  29  32  28  28
 30  23  25  42  28  30  61  43  38  31  16  16  31  31  34  24  15  18
120 112 111 109 101  99 123 116 112 127 119 113 102  92  88  87  80  80  91  76  71 135
100  83 151 107  87 157 109  87 169 118  98 177 122 100 179 119  95 181 116  91 179 112
 86 177 110  84 178 110  87 177 109  87 178 110  88 177 110  87 179 111  89 177 110  90
170 104  84 161  95  78 156  93  73 153  92  71 153  93  72 143  84  65 123  72  53 115
 66  49 122  72  56 128  77  58 133  80  59 143  86  63 147  89  66 141  88  64 132  81
 59 118  72  55 106  62  46  92  57  41  56  39  30  32  27  23  34  29  27  35  31  29
 37  30  29  37  29  28  60  53  48  50  44  42  38  38  40  36  30  32
111 104 101 107 100  97 119 112 109 117 111 104  96  89  83  89  79  77  83  70  68 119
 91  80 149 109  89 157 113  90 168 118  94 175 121  97 179 120  96 181 120  95 173 108
 82 172 106  80 178 111  85 176 109  84 178 112  91 177 113  88 176 111  87 174 110  87
170 108  86 164 105  83 156  99  77 147  92  69 141  86  64 136  84  64 119  74  54 107
 65  47 110  67  50 110  64  48 117  69  50 125  74  54 129  77  57 131  80  57 126  79
 56 115  71  51 105  62  48  85  52  41  49  34  27  31  26  22  33  28  25  36  31  29
 37  31  30  35  29  27  39  34  33  49  47  44  58  54  52  44  36  36
111 104  98 106  99  96 115 108 105 112 107 100  92  86  81  88  82  79  75  67  66  90
 69  63 141 106  87 154 112  88 165 116  91 172 118  94 177 120  95 179 120  95 176 116
 89 177 112  87 178 115  88 176 112  87 169 109  86 166 107  83 165 108  81 167 112  87
169 113  90 169 112  89 160 102  80 149  91  71 138  83  62 134  82  60 127  80  59 113
 69  48 109  67  48 110  68  50 109  67  49 108  68  46 112  68  46 118  71  48 120  74
 51 111  68  49  97  58  44  75  47  38  44  33  26  31  27  23  35  29  28  37  31  30
 38  32  31  38  32  32  39  31  33  44  39  37  53  48  44  54  48  46
110 102  96 105  98  95 115 108 105 110 103  96  92  85  79  90  84  80  73  62  61  54
 38  36 118  89  76 155 111  91 164 114  89 166 113  88 172 118  93 175 120  93 177 120
 92 179 118  91 177 113  88 171 110  86 161 103  80 154  98  76 153 101  77 162 110  87
161 105  85 149  92  72 141  84  64 141  80  63 144  84  67 135  79  64 125  72  58 117
 65  52 110  62  47 112  68  53 111  70  52 108  68  48 112  67  46 115  68  47 114  67
 49 106  64  48  88  54  42  67  41  35  43  33  27  34  30  27  35  30  28  36  30  29
 38  33  31  40  35  34  39  33  33  36  33  32  41  36  34  45  40  39
 99  93  87 105  99  93 109 104  97 106  99  93  94  87  81  89  82  79  71  60  59  48
 37  37  80  58  51 140 101  83 160 110  87 163 112  88 165 113  88 171 116  91 172 115
 89 175 116  88 176 112  85 167 106  81 154  97  76 135  83  62 125  75  57 124  74  58
128  74  61 135  73  63 135  64  57 130  55  49 139  63  57 135  60  55 124  53  49 120
 54  52 104  48  45  95  50  39 102  60  46 107  65  47 112  67  47 113  67  46 111  66
 48  94  57  42  76  48  36  55  37  32  43  35  31  41  34  32  34  29  27  34  29  28
 36  31  30  38  32  31  40  34  31  35  31  28  38  35  32  40  35  35
 79  74  71 101  97  91 103  99  92 104  98  92  93  86  81  84  76  73  68  60  58  54
 46  45  75  61  56  96  74  61 134  98  79 153 108  84 155 106  82 159 107  84 162 109
 84 164 110  84 166 108  81 156  99  75 142  90  66 139  85  64 140  87  66 149  95  75
153 100  82 163  98  85 170  93  83 166  83  75 163  77  71 167  82  75 160  81  73 138
 68  61 115  57  49 104  57  45 101  58  44 103  59  42 109  65  45 113  68  48 105  62
 46  82  50  36  65  40  29  47  31  25  45  37  32  45  37  36  38  32  30  37  30  28
 39  33  32  36  31  29  39  33  28  37  30  27  35  31  28  38  35  33
 51  46  45  90  86  82 100  96  90 101  96  90  90  84  80  76  71  67  62  57  52  68
 60  57  91  80  73  65  57  50  85  63  52 130  95  76 142  99  76 150 102  79 155 104
 80 156 105  79 155 101  77 147  93  70 144  91  68 147  92  70 151  95  71 153  97  73
152  96  73 148  89  68 147  83  65 151  82  66 148  80  63 144  78  62 139  75  61 124
 66  53 116  64  50 109  63  49 103  61  45 100  57  40 106  62  45 110  67  49  95  57
 42  75  44  33  61  37  27  49  34  26  44  35  30  46  39  37  42  34  32  36  29  25
 41  35  34  40  35  34  36  31  28  39  34  29  36  32  28  36  31  28
 41  35  36  70  65  64 100  95  92 100  95  91  93  87  84  75  70  66  60  54  48  82
 74  68  90  80  75  71  60  57  53  39  36  71  49  39 117  83  68 137  94  76 147  97
 75 153 100  77 152  98  75 147  94  72 144  91  69 143  89  67 147  91  69 147  92  70
145  90  68 139  84  63 130  76  56 124  73  52 122  72  51 122  70  49 123  72  50 123
 72  52 120  70  51 111  65  48 104  61  41 100  57  37 103  61  44  97  61  43  78  47
 33  67  41  29  66  44  36  54  36  31  42  32  27  44  37  34  42  36  31  34  30  27
 35  29  30  42  35  36  36  31  30  36  31  28  36  30  28  36  29  27
 47  41  42  51  45  46  92  86  84 102  96  93  95  89  86  75  68  63  63  56  50  90
 83  77  90  82  76  64  57  54  54  46  44  35  22  19  59  34  27 102  70  58 128  86
 68 140  93  70 145  92  69 147  93  71 148  95  72 148  93  71 147  92  71 152  95  72
156  97  74 156  98  75 152  96  74 147  91  69 141  84  63 137  82  60 135  82  60 133
 80  59 123  71  52 110  63  47 102  58  41  96  56  39  94  56  42  82  50  38  69  41
 27  68  44  32  63  42  34  45  28  24  37  28  25  42  35  30  41  35  32  35  33  30
 34  29  27  44  38  35  39  36  31  36  31  30  37  30  31  34  28  25
 50  44  44  49  43  44  74  68  66 101  95  92  95  90  84  74  68  62  64  58  51  87
 81  75  82  75  69  63  55  49  56  47  43  51  37  32  50  30  24  55  31  24  89  60
 48 113  78  60 128  84  64 140  90  69 148  96  75 152  98  76 152  95  74 155  98  75
162 103  80 163 104  82 159 100  77 154  95  70 148  90  67 141  84  62 133  81  59 128
 76  55 119  68  48 108  61  46  99  55  41  93  55  41  81  49  37  69  39  30  70  42
 34  65  43  34  47  30  23  41  27  22  36  28  25  37  31  29  41  36  33  38  34  31
 35  29  27  45  38  34  45  39  34  36  30  29  36  30  30  32  28  25
 49  44  42  53  48  46  60  55  52  92  87  81  96  90  84  78  73  66  70  65  58  84
 79  73  85  79  73  70  63  57  58  46  42  53  39  36  56  37  33  62  37  31  65  38
 28  79  52  39  93  63  49 110  75  58 130  87  70 142  94  75 148  97  73 151  98  73
155  99  76 154  98  74 151  94  70 145  88  65 140  86  63 136  82  59 131  79  57 122
 72  51 112  65  45 107  62  43  96  56  41  82  46  35  69  38  28  70  42  32  67  41
 34  49  30  25  40  32  26  40  33  27  35  29  27  38  33  31  44  37  32  41  34  31
 31  26  23  37  31  28  46  40  36  34  29  25  34  30  25  30  29  25
 51  44  43  56  49  48  61  54  52  82  76  71  97  90  85  87  79  73  76  68  63  88
 80  75  89  82  76  64  58  51  56  47  41  59  46  42  56  39  34  64  39  31  71  42
 32  72  44  32  74  46  36  80  50  40  94  60  48 111  74  58 128  87  66 136  89  67
138  87  65 139  86  64 137  84  62 131  79  57 130  78  56 129  78  57 123  76  55 115
 70  51 106  62  45  96  56  40  82  49  33  69  39  27  72  44  32  68  45  34  53  34
 24  44  32  25  43  36  31  43  36  33  37  32  30  38  35  33  45  39  35  42  36  34
 33  28  27  39  36  31  44  39  34  36  29  25  35  29  25  33  28  23
 52  45  45  54  47  47  59  53  51  76  70  65  89  82  77  93  85  80  76  68  63  87
 77  72  80  73  67  64  58  52  59  51  45  58  46  41  61  44  37  64  40  29  74  44
 32  78  44  30  81  45  35  82  45  35  81  44  34  85  47  34  92  57  41 105  65  50
110  67  51 112  68  52 112  69  51 113  69  48 116  71  50 113  70  52 104  64  47  95
 57  42  87  49  36  80  42  30  74  42  29  77  46  32  74  46  34  55  36  27  44  33
 24  46  39  31  46  38  34  44  37  31  39  34  29  40  34  32  44  38  37  41  34  35
 33  27  28  46  40  36  43  37  32  35  28  25  35  29  27  33  27  25
 50  45  44  52  47  46  55  50  46  71  66  61  76  70  68  84  79  74  81  76  71  79
 73  67  84  78  72  75  70  63  60  54  47  51  44  38  62  49  41  62  43  33  75  48
 38  82  48  37  83  46  35  82  45  34  83  46  35  85  47  35  84  46  37  84  46  37
 84  46  37  85  48  36  85  50  36  85  51  36  85  51  38  80  49  36  76  47  33  75
 45  28  77  46  29  80  48  32  84  50  35  85  51  36  66  38  30  49  34  33  44  38
 31  44  39  34  46  39  37  45  38  34  41  35  30  43  36  33  43  37  35  39  33  33
 29  23  23  45  39  35  46  40  35  34  29  25  33  29  27  31  27  26
