P3
# 8-bit ppm - RGB
35 34
255
 79 187 197  76 186 195  76 186 195  77 187 198  77 187 196  76 186 195  76 186 195  74
187 195  76 186 195  76 186 195  76 186 195  76 186 197  76 186 195  75 181 192  75 185
194  77 185 195  71 174 181  41  98 103  94 124 132 124 138 139 120 139 146  57 103 127
 62 155 162  76 186 195  76 186 195  76 184 194  74 187 195  77 187 196  76 186 195  76
186 195  76 186 195  76 186 195  76 186 193  79 188 195  80 189 196
 76 186 195  76 186 195  77 186 193  76 186 195  76 186 195  76 186 195  77 185 197  76
186 195  76 186 193  76 186 195  76 186 195  76 184 194  77 187 198  76 186 195  72 179
187  38  94 115 147 152 158 220 222 217 209 216 200 169 185 149 184 198 162 198 205 187
152 154 143  73 110 120  68 166 175  76 186 195  77 185 195  75 183 193  76 186 195  76
186 195  76 186 195  74 187 193  76 186 195  76 186 195  76 186 195
 76 186 195  76 186 195  76 186 195  75 183 195  78 182 193  75 183 193  74 187 195  78
186 196  76 186 195  76 186 195  75 183 193  76 186 195  76 186 195  49 117 138 128 136
138 186 194 171 188 202 167 149 177  93  94 134   2  84 119   1 102 145   3 125 161   9
143 167 107 204 210 198 158 157 162  51 121 128  77 186 193  78 186 196  76 184 194  77
187 196  75 185 194  76 186 195  76 186 195  76 186 195  76 186 195
 76 186 197  75 185 194  77 187 196  77 187 194  76 186 195  75 185 192  77 183 194  74
187 193  77 187 196  77 185 195  78 186 196  77 187 196  81 145 155 193 199 189 192 202
175 114 145  39  94 138   1 118 155   0 109 136  31 104 131  34 123 153  31 124 158   1
 88 119   0 101 139   4 193 207 171 165 172 156  43 103 111  74 187 195  77 185 197  76
186 195  74 187 195  76 186 195  76 186 195  76 186 195  76 186 195
 77 185 195  76 186 195  75 185 196  58 140 151  37  90  96  56 133 141  74 187 195  78
184 197  77 185 195  76 185 192  76 186 195  74 174 182 153 178 174 180 202 140  65 118
 12  99 129  17 123 153  39 124 158   2 101 133  10 104 131  14 118 151   0 122 158   0
109 135  34 107 136  28  99 143   2 144 171 102 202 202 200  64 132 145  75 185 192  77
185 197  77 185 195  76 186 195  76 186 195  76 186 195  76 186 195
 76 186 195  76 186 195  72 122 129 194 194 196 232 227 223 182 181 177  56 131 137  76
186 193  76 184 194  79 186 194  73 185 196  80 168 178 119 145  82 125 161   0 104 131
 28 108 134  27 117 154   0 122 157   1 101 130  14 102 131  11 119 152   1 123 157   0
108 138  14 102 129  14 130 163  48  66 112   3 187 200 173 173 185 185  74 183 190  76
186 195  76 184 194  76 186 195  76 186 195  76 186 195  76 186 195
 76 186 195  86 139 145 226 217 210 215 184 166 188 135  93 220 189 171 172 180 182  63
156 163  76 186 195  78 182 189  76 186 195  70 149 128 106 139   0 127 161   5  99 128
 20 104 134  10 121 154   1 125 156   0  99 127  14 104 134  12 120 153   0 121 156   2
109 140  11 102 129  16 123 157   0 112 142  30  86 124   3 188 198 171  85 163 176  76
186 195  77 185 195  76 186 195  76 186 195  76 186 195  76 186 195
 65 159 167 195 190 186 201 150 121 173  82   2 177 110  42 179 107  21 217 186 166 133
161 164  76 186 195  76 186 195  74 187 195  78 143 103 123 157   9 124 159   5 102 131
 15 110 139  13 121 154   1 124 155   0 101 129  16 107 137  11 120 153   0 121 155   0
112 142   8 104 132  19 121 155   0 117 149  24  87 120   5 150 173  93 104 162 165  76
186 197  78 187 194  76 186 195  76 186 195  76 186 195  76 186 195
104 157 162 205 159 135 174 104   6 148  99  67 172 110  59 184 119  63 188 115  46 165
120  89  59 146 153  76 186 195  73 176 190  85 135  64 128 165   0 121 157   8 104 135
 16 111 140  11 121 155   0 121 154   1 104 133  17 112 144  11 120 153   2 123 154   1
114 145   7 103 131  18 118 153   0 119 152   1  94 120  29 123 159   1  84 130  66  76
186 195  77 186 193  76 186 195  76 186 195  76 186 195  76 186 195
120 124 109 192 120  61 177 116  62 106  66  30 169 106  55 186 121  63 187 120  65 173
109  48  82 133 126  77 187 196  71 157 170  90 128  27 128 164   2 119 155   6 105 134
 16 112 142  10 121 155   0 122 153   0 104 132  19 111 143   8 119 154   0 121 154   1
115 146   6 101 129  18 118 151   2 122 156   0  95 119  23 121 152  12  93 130  25  74
180 191  76 186 195  77 185 195  76 186 195  76 186 195  76 186 195
131 106  66 192 121  65 179 116  62 180 115  61 183 117  59 181 116  62 185 119  61 183
118  64  99 133 119  76 186 195  73 143 140  99 128   2 125 160   0 117 149   4 104 133
 17 112 144   9 121 155   0 121 154   1 104 131  18 113 144   6 121 154   3 119 152   0
117 149   2 101 129  19 117 149   4 123 157   0  99 126  19 109 140  10  91 120   2  64
153 167  77 187 196  75 183 193  76 186 195  76 186 195  76 186 195
144 104  68 190 121  62 179 116  62 184 115  56 182 115  62 181 116  62 185 119  61 184
118  60 102 133 115  75 187 198  70 123  92 102 139   0 124 160   8 118 151   0 107 137
 15 113 144   4 122 155   2 118 153   1 103 134  15 114 145   8 118 151   0 119 152   1
119 152   1 103 129  19 119 152   1 122 155   2 107 134  17  86 119  15  91 125   2  61
133 129  76 186 195  78 182 189  76 186 195  76 186 195  76 186 195
148  97  54 187 118  61 177 114  61 180 117  63 182 117  59 181 116  62 184 118  60 185
116  61  86 118 107  75 185 192  74 107  38  95 130   0 116 154   5 117 148   8  88 110
 28 112 142  10 123 157   0 120 153   0 100 122  22 112 143   6 121 154   1 120 154   0
114 145   7  61  76  35 101 129  18 125 159   0 110 135  16  58  76  36  93 128   0  66
123  88  76 186 195  76 183 189  77 187 196  76 186 195  76 186 195
148  97  50 188 119  62 179 117  60 181 116  60 181 116  62 181 116  62 186 120  62 160
103  52  13  36  41  49  88  69  71  98   1  90 129   4  97 129   2  89 119  21  81 101
 30 101 128  21 123 157   1 111 141   9  76  96  33  86 111  30 119 152   0 120 153   2
 77  98  31  91 123  12  66  87  28 109 138   9  90 115  24  73 100  19  78 105  26  72
115  43  76 184 194  77 187 194  76 186 195  76 186 195  76 186 195
145 107  68 189 120  63 178 115  61 181 116  60 180 115  59 184 117  62 182 117  61 121
 68  37 107  74  29 107 132   4  80 112   3  82 110   0  81 113  14  84 110  23 119 152
  0 101 127  20 104 133  17  92 117  25 117 149   6  97 124  21  89 116  23  82 105  25
 92 119  16 125 159   2 106 138   5  58  73  34  77 102  21  92 132   0  75  99  23  65
 96  26  72 176 183  76 186 195  75 185 194  76 186 195  76 186 195
132 100  62 195 125  66 180 119  64 179 117  60 183 118  62 190 121  64 140  89  44 100
 56  29 161 105  54  93 129   3 103 135   0  65  89   5  74 101  24  85 116  13 118 155
  0 115 146   9  72  90  32 101 128  23 125 156   1 123 157   0  77  97  28  69  91  26
116 150   1 121 154   3 117 152   0  76 103  22  81 110  17  90 124   1  88 122   9  66
 88  24  55 122 139  77 185 195  73 183 192  75 185 194  77 187 196
 60 102 101 143  90  46 180 115  57 178 116  59 175 112  58 133  85  39  45  30   9 139
 86  44 128  75  41  40  96   0 114 146   1  71  95   7  67  93  18  91 126   0  97 129
  2 118 151   0 100 127  22 110 141  11 120 153   0 123 157   0 104 134  12 101 130  14
120 153   0 118 150   3  95 130   0  80 110  14  81 111  13  95 130   0  85 118   3  42
 61   6  50  72  10  58 130 140  76 186 195  76 185 192  76 186 195
 75 185 194  52 128 142  60  75  70  76  61  40  63  45  31  10  27  35  93  58  28 142
 89  45  56  30  33  20  64  15 107 140   1  97 128   0  66  95   2  91 125   2  90 121
  0 100 133   0 105 134  16 115 146   8 119 154   0 120 155   0 108 136  13 110 139  13
122 156   0 102 133   3  89 123   0  81 111  15  85 115  15  76 107   1  46  67   0  98
128   2 111 146   0  61 100  43  77 185 195  77 187 194  76 184 194
 76 185 192  75 185 194  76 186 195  74 173 186  72 176 187  72 176 187  90  77  58 155
 99  50  57  41  41   0  28  31  86 116   0 113 148   2  80 105   1  73 104   1  96 132
  0  86 119   2  89 114  20 111 143   6 120 153   0 124 158   1 107 137  13 102 129  12
100 131   1  87 121   1  89 123   0  88 122   9  51  70  15  61  85   0 116 146   0 123
159   1 116 149   0  75 110  16  69 169 177  76 186 195  75 183 193
 76 186 197  76 184 194  76 185 192  75 188 196  74 187 195  76 186 197  84 133 127 163
104  49  75  57  43   0   1  40  57  73  10 106 141   0 109 142   3  58  81   0  80 114
  1  94 129   1  76 104  19  85 118   5  95 130   0 104 138   2  93 120  17  79 110  14
 86 122   0  87 123   0  94 129   0  65  91   2  74 100   1 123 153   3 113 147   1  98
134   0  97 130   0  70 103  20  73 179 190  77 185 195  76 184 194
 76 186 193  76 186 195  77 187 196  75 183 193  77 183 194  78 187 194  74 174 182 107
 83  57  83  59  35   0  27  46  41  38  29  76 107   3 119 152   3 104 134   2  61  85
  0  79 106   1  86 111  19  92 122   8  92 127   0  94 129   1  79 114  14  86 117  14
 92 127   0  96 128   1  64  90   1  68  93   0 121 154   1  99 135   0  87 120   3  75
106   0  62  88   1  52 105  93  76 186 195  75 184 189  76 186 195
 76 186 197  76 186 193  73 186 194  77 187 194  73 186 194  77 187 194  76 186 195  63
118 122  43  35  32  42  51  48  35  24  40  47  63  14  83 118   0 117 151   3 107 138
  0   0  31   0   0  24   0  62  88   0  66  95   2  71 104   0  66  93  14  68  96  11
 68  95   2  53  77   1   0   0   2  43  31   5  67  97   1  73 104   0  35  49  13  19
 13  27  27   0  19  57 121 130  76 186 195  77 179 191  76 186 193
 76 186 195  76 186 193  77 185 195  75 185 194  76 186 195  74 182 194  76 186 195  76
186 195  43  86  92  41  40  38  46  50  49  30  19  36  43  56  12  87 123   0  78 110
  0 134  86  40 136  75  46  63  69   9  82 112   0  88 110   1  78 100   0  74  95   0
101 125   3  84 117   0 129  82  40 172 106  56  87  52  22   0   3  22  43  33  44  35
 40  44  79  53  28  88  95  77  76 186 195  76 183 189  76 186 195
 76 186 195  76 186 195  76 186 195  76 186 195  74 186 197  77 187 196  75 183 193  76
186 195  65 152 159  31  31  33  44  43  41  42  46  45  45  29  39   0  43   0 115  85
 31 178 113  59 185 116  61 125  87  38 102 139   0 126 161   0 122 156   0 125 156   3
117 157   0 113 113  23 175 107  58 179 114  60 158 101  50  19  27  29  44  44  44  25
 33  36  87  54  23 127  83  46  65 159 169  76 186 195  75 181 192
 76 186 195  76 186 195  76 186 195  76 186 195  76 186 195  75 185 194  74 184 193  76
186 195  76 186 195  48  97 101  37  37  35  49  49  47  42  42  42   1   7  33 146  92
 48 176 113  59 176 114  57 156  93  50  79 100   5  92 132   0 100 133   3 104 133   5
 71 122   1 132  95  40 180 113  60 173 110  57 176 114  55  73  48  28  19  36  43  35
 30  26  89  56  25 154  96  49  92 112 100  76 186 197  79 182 187
 74 187 195  76 186 195  76 186 195  75 188 196  75 185 194  76 186 195  77 187 196  74
182 192  76 186 195  69 173 180  32  51  55  51  46  42  25  42  49  46  41  35 159 101
 53 186 120  62 186 120  62 171 104  59  79  78  14  59  99   0  77 106   0  69  92   1
  0  61   1 145  93  44 187 118  59 183 116  61 185 119  61 104  65  36   0  14  27  83
 52  23  91  58  25 140  89  44 152  98  50  55 134 141  77 185 195
 76 186 195  76 186 195  76 186 195  76 186 195  76 186 195  75 185 194  76 186 195  76
186 195  75 183 195  77 185 195  61 150 156  44  40  37   1  32  37  62  49  41 164 104
 52 184 118  60 180 115  59 181 114  59  94  53  36   0   0  26  34  18  28  40  19  36
  1   0  31 154  97  54 185 118  63 179 114  60 189 120  61 128  84  47   5  12  18  99
 64  26  98  63  33 111  71  35 184 115  60 122  82  47  51 120 133
 76 186 195  75 185 194  76 186 195  77 187 196  76 186 195  76 186 195  75 185 194  76
184 194  73 186 194  76 186 193  76 185 192  70 129 125   0   4  16  58  43  36 165 105
 55 190 121  64 180 113  61 188 117  61 116  76  41   2  31  39  46  45  43  54  49  43
  1  25  37 152  96  47 187 118  61 179 116  62 191 122  65 149 102  60  61 149 159  58
 56  43  92  59  26  95  61  26 163 106  53 197 125  66 118  74  39
 76 186 195  76 186 195  75 185 194  75 185 194  76 186 195  76 186 195  76 186 195  76
186 195  76 184 194  77 186 193  75 188 196  82 134 130  75  50  22  74  44  16 163 106
 55 188 119  62 176 114  57 189 120  61 134  86  46   0  30  40  37  38  40  58  48  46
  0  21  34 153  99  55 189 120  65 181 116  60 185 119  59 165 105  55  66 163 172  72
180 190  41  89  93  49  42  32  70  61  44  77  74  59  70 105  99
 76 186 195  76 186 195  76 186 195  76 186 195  76 186 195  76 186 195  76 186 195  77
185 195  77 185 197  74 187 193  76 186 193  78 136 137  95  61  33 106  67  36 168 106
 55 192 122  62 178 113  59 191 120  64 137  89  43   1  28  35  31  35  38  45  34  28
  1   0  14 150  93  40 181 112  47 181 116  60 188 117  65 164 104  52  63 151 160  76
186 195  76 186 197  73 179 190  73 181 191  76 186 193  76 184 194
 76 186 195  76 186 195  76 186 195  76 186 195  76 186 195  76 186 195  76 186 195  76
186 195  76 184 194  77 183 194  76 186 197  66 115 112  64  34   0  75  39   3  98  64
 39 132  87  54 176 111  57 193 123  64 134  88  52   8  24  39   6  17  19  53  52  50
 34  31  26  93  71  58 100  91  84 166 106  58 189 121  60 159 101  53  63 155 166  75
185 194  75 182 190  76 186 195  76 186 195  76 184 194  76 184 194
 76 186 195  76 186 195  76 186 195  76 186 195  76 186 195  76 186 195  76 186 195  76
186 195  77 183 196  76 186 195  76 186 195  75 113 116  88  92  95 111 116 119 148 156
159 139 144 147 159 111  71 204 126  54 130 125  96  58 144 159 102 120 122 118 120 119
120 128 130 154 158 159 162 173 175 144 108  82 192 123  58 161 108  58  64 161 168  76
186 195  75 185 194  76 184 196  77 183 194  76 186 195  76 186 195
 78 184 195  76 184 194  77 187 196  77 187 196  76 186 195  76 186 195  76 186 195  76
186 195  77 183 194  74 187 195  72 174 184 103 128 132 120 124 125 133 137 138 172 173
175 145 150 153 143 104  73 203 125  45 129 118  90  50 129 144 102 106 109 109 111 110
123 129 129 152 152 152 153 158 161 119  92  75 175 107  46 150  93  48  63 152 164  76
186 193  75 185 194  75 185 194  77 185 195  76 186 193  87 189 199
 80 186 197  77 185 195  76 186 195  76 186 195  76 186 195  76 186 195  76 186 195  76
186 195  76 182 193  76 186 195  72 172 180  62  81  87  62  66  67  47  51  52  51  52
 54  46  47  49  45  46  40  64  65  47  65 106 102  61 151 159  37  90  95  32  77  80
 36  85  89  34  82  86  34  82  86  40  97 102  50 109 115  36  94 106  71 169 178  75
185 196  77 185 195  76 186 195  77 185 195  86 190 199  76 186 195
