P3
# 8-bit ppm - RGB
50 50
255
131  91  64 131  91  65 132  92  62 133  93  61 133  93  62 131  93  64 129  94  66 129
 93  67 132  93  68 131  94  69 132  94  69 133  95  68 135  95  68 133  97  69 134  97
 70 134  97  70 136  99  72 139 100  73 139 100  73 140  99  73 141 100  75 130  90  65
108  69  46 100  66  40 110  78  54 103  73  53  78  48  35  67  38  33  60  32  28  57
 27  24  53  28  23  48  28  21  46  28  19  46  26  18  46  26  18  48  28  20  49  27
 15  93  83  77 150 145 144 194 190 191 220 215 214 223 219 218 222 221 220 221 221 221
219 217 216 215 208 205 207 196 189 200 188 180 196 186 175 196 186 173
130  89  62 131  90  63 131  91  64 130  92  64 132  92  64 130  92  65 128  92  64 128
 92  64 129  92  65 130  92  66 132  93  67 131  93  66 132  94  67 132  94  67 133  95
 68 133  96  68 134  97  70 135  99  71 136  99  71 136  99  73 117  82  60  87  50  32
 81  49  32  89  59  41  97  69  49  93  64  48  77  48  37  64  40  33  55  33  28  49
 28  25  43  24  21  39  25  23  43  28  24  43  28  23  42  28  21  40  25  19  40  27
 19  15   0   0   0   0   0  25   0   0 147 140 139 217 211 209 223 221 220 223 223 224
224 223 224 225 220 220 224 217 214 218 211 206 209 202 196 201 194 186
131  88  61 130  89  61 129  89  63 127  90  64 128  90  65 127  90  64 127  90  61 127
 90  61 127  90  61 127  90  62 127  90  63 128  91  61 129  92  63 130  93  66 131  94
 67 132  95  67 131  95  68 131  95  67 134  97  70 113  79  57  70  39  23  68  40  28
 76  50  39  94  68  54 102  75  59  82  52  36  73  45  33  60  39  31  45  30  23  36
 23  18  34  22  18  39  27  22  44  32  26  45  30  25  41  29  22  36  23  18  37  25
 18  44  32  27  48  40  36  41  31  26   0   0   0 154 144 139 221 216 214 223 223 223
222 221 221 223 219 220 223 219 218 221 219 217 220 218 216 217 213 211
109  73  48 119  83  57 125  88  57 127  90  57 126  90  58 125  89  59 123  88  56 124
 88  56 124  87  57 125  88  60 125  88  60 125  88  60 126  90  62 127  91  63 128  91
 64 129  92  65 128  91  64 130  93  66 116  80  57  65  33  16  57  31  19  64  40  31
 67  46  40  89  68  60 103  81  68  88  62  49  80  56  43  57  39  30  42  26  19  40
 25  19  40  25  20  44  28  24  50  34  30  48  32  28  42  28  22  37  25  18  37  25
 18  40  27  23  38  25  23  43  32  28  37  28  23  67  56  49 142 135 129 199 197 189
216 215 208 220 216 213 220 219 215 221 222 216 221 221 218 220 219 219
 43  18   5  59  34  20  79  49  26  96  65  38 107  77  51 116  83  57 121  87  56 123
 87  57 124  86  60 123  86  59 123  85  58 123  85  59 124  87  60 125  88  60 125  89
 61 127  90  63 130  93  66 124  88  63  76  44  27  50  24  11  57  34  27  62  41  37
 62  43  39  68  50  44  85  65  54  90  68  56  77  56  44  49  34  21  44  31  22  41
 27  19  48  32  26  55  39  33  55  39  34  52  36  30  45  29  24  41  27  20  38  25
 18  39  25  21  41  28  25  39  27  25  39  28  25  48  38  32   0   0   0 125 120 105
217 212 200 229 225 218 227 226 219 227 228 222 225 225 222 222 222 222
 42  26  20  39  22  18  40  16  11  40  14   7  46  22  13  58  33  19  78  50  26  94
 63  39 108  74  53 116  81  57 118  84  58 119  85  59 120  86  60 122  88  61 123  89
 61 117  84  56 107  77  52  79  55  35  46  26   9  48  32  23  52  36  31  60  44  39
 59  44  37  60  41  34  63  40  31  72  51  42  61  42  31  47  31  19  44  28  18  54
 38  27  62  46  36  60  44  34  58  43  31  55  38  30  50  30  25  42  25  19  40  25
 17  44  29  24  45  32  26  41  28  25  37  25  23  40  28  25  46  37  32   6   0   0
134 128 117 220 218 211 234 234 228 231 231 225 228 228 224 224 223 222
 40  25  23  42  26  22  47  27  21  47  27  20  41  27  20  39  22  17  40  17  11  42
 17   6  48  23   8  57  35  20  62  42  25  66  45  29  70  49  33  74  52  35  83  61
 44  72  51  38  36  21  14  30  16  10  44  33  24  42  31  23  51  37  31  62  46  38
 83  64  55  96  75  67  81  59  51  65  44  34  50  29  20  53  32  22  69  49  39  84
 64  53  84  64  55  92  72  61  76  55  45  60  39  29  52  31  22  43  24  15  40  25
 17  53  39  31  52  38  31  42  29  23  36  23  21  38  25  23  39  28  23  44  38  30
  0   0   0 164 163 156 226 225 221 227 227 221 226 226 222 223 223 220
 41  27  21  41  28  22  42  26  22  42  26  21  40  27  20  40  27  20  40  27  20  42
 28  20  39  25  16  24  16   9   0   3   2   0   0   0   0   0   0   0   0   2   0   0
  3  33  27  27  53  43  44  44  35  36  39  30  28  42  31  26  46  30  27  63  44  37
 88  66  57  97  74  64  90  64  54  76  49  38  83  57  47  83  57  47  85  59  49  75
 49  41  94  69  59 109  83  72  89  63  53  69  43  32  56  33  22  45  25  14  37  22
 11  49  36  25  52  38  29  38  25  17  37  23  18  40  25  21  39  25  23  44  35  29
 15   0   0 122 118 113 211 210 204 224 223 219 224 224 218 223 223 217
 41  28  22  41  28  22  43  27  21  42  26  21  41  28  22  41  27  22  40  27  21  38
 25  19  36  22  18  29  19  15  23  16  13  21  15  11  20  15  12  19  14  14  19  14
 15   8   5   8  23  16  22  40  33  36  38  30  29  42  29  28  46  27  28  54  32  29
 62  34  27  79  51  40  91  63  51  96  67  55 106  77  66  97  67  56  79  47  36  71
 40  29  80  48  37  92  61  49  88  57  45  80  50  39  73  46  34  61  38  27  52  31
 22  49  29  21  46  29  21  40  25  17  43  27  22  46  29  24  45  28  23  46  35  29
 29  15   7  79  71  65 201 197 192 224 224 218 222 222 216 222 222 215
 41  28  23  42  27  24  43  27  22  42  26  21  41  28  22  41  28  22  42  26  21  42
 26  21  39  25  19  32  20  18  26  18  15  23  17  15  20  15  15  18  14  13  18  13
 13  16  11  13  26  21  23  40  34  36  39  30  29  41  26  27  47  26  29  52  29  27
 66  39  31  79  52  41  79  52  39  78  48  35  85  50  38  86  47  37  85  46  36  84
 46  36  84  46  36  94  55  45  98  59  49  95  58  48 100  70  58  85  57  46  67  40
 33  57  32  24  51  28  21  46  28  22  46  29  24  46  29  23  49  32  26  46  32  28
 42  31  29  25   0   0 185 178 175 228 224 220 221 220 214 221 220 216
 39  28  21  41  28  21  41  27  21  41  27  20  41  28  22  41  28  22  42  28  23  41
 28  22  41  28  22  38  25  19  34  23  17  33  22  18  28  20  16  26  18  17  25  16
 17  18  12  13  35  28  29  46  38  40  37  29  29  41  26  28  53  31  34  66  39  38
 79  51  45  79  51  41  68  40  28  72  38  25  90  51  38 111  68  58 107  63  53 101
 56  47  93  49  39 103  60  49 126  82  72 108  66  55 115  79  66  99  65  54  83  53
 43  69  41  30  61  35  24  53  30  21  52  31  25  51  31  26  46  28  24  42  26  21
 50  36  34   0   0   0 162 152 150 230 220 218 224 218 212 223 217 211
 49  38  31  47  34  28  43  30  24  41  28  22  41  28  22  41  28  22  41  28  22  41
 28  22  41  28  22  41  28  21  41  28  21  39  28  20  36  27  19  36  25  18  36  23
 20  30  20  15  50  37  39  54  42  44  42  28  30  51  34  35  70  43  44  93  62  60
107  70  66  89  53  43  82  45  31  98  57  43 126  80  66 135  84  70 129  76  63 113
 61  49 106  52  40 126  75  61 124  75  61 108  63  48 103  63  49  96  59  44  91  59
 44  80  49  37  72  41  30  57  32  22  54  33  26  51  31  27  46  28  24  38  21  19
 48  34  32   0   0   0 153 143 140 226 216 211 220 213 206 220 213 204
 58  46  39  57  44  38  55  43  36  51  42  35  52  39  33  49  38  31  46  36  29  45
 33  26  44  31  25  43  30  24  42  29  23  39  29  22  41  29  22  43  29  21  43  29
 21  42  26  19  55  39  36  61  43  44  57  36  38  68  42  44 101  68  67 126  85  82
130  81  74 126  77  63 128  82  64 137  85  68 135  79  61 142  78  61 143  75  55 150
 85  67 180 116  95 161 101  77 134  80  54 110  64  42  96  55  36 101  64  42  98  63
 44  91  57  40  72  42  29  53  28  21  47  29  22  45  28  23  45  28  25  37  20  20
 47  35  33   0   0   0 152 144 137 217 210 202 212 206 195 214 209 193
 69  53  46  66  53  46  64  51  44  62  49  42  62  46  41  60  46  40  58  44  37  55
 41  34  53  37  34  50  35  30  47  32  27  42  29  23  36  23  18  35  22  16  37  25
 18  39  27  20  51  36  34  61  43  44  64  44  46  94  68  67 135 100  97 150 105 101
150  90  82 156  96  82 156 103  82 135  79  59 117  51  33 146  78  56 169  99  76 201
127 107 206 136 110 151  88  61 142  84  59 112  62  41 103  59  42 111  68  49 114  72
 53 114  74  56  95  58  44  56  24  15  47  24  18  44  25  19  44  27  24  40  23  23
 47  34  34   0   0   0 165 157 150 215 208 200 209 203 191 210 205 187
 85  64  55  81  62  54  76  57  50  72  53  47  73  52  46  72  52  46  71  51  44  69
 50  43  66  47  42  62  45  40  60  42  37  52  37  32  34  21  15  18   4   1  27  15
 11  30  21  16  44  33  32  54  39  41  63  44  46 112  87  88 136 102  99 130  87  81
121  68  57 134  80  63 153  99  80 127  69  52 130  65  47 170 102  79 185 116  93 166
 98  79 134  69  49 101  43  24 108  59  49 104  60  51  88  47  34  84  43  28  97  54
 36 122  78  62 128  84  70 102  64  53  64  33  24  45  22  14  45  25  21  43  27  24
 41  28  27  31  11   2 184 176 168 213 206 196 208 203 187 210 205 186
102  75  63 100  74  63  96  70  59  92  67  56  92  66  55  90  65  55  86  64  53  83
 62  51  81  60  51  78  58  49  75  57  48  74  57  48  65  46  39  49  32  27  42  26
 21  39  28  22  45  31  31  50  35  40  59  41  52  75  53  69  70  42  52  60  25  37
 59  22  32  86  41  44 120  67  61 127  68  56 162 101  85 182 122 100 137  80  57  90
 38  24  89  43  36  94  48  40  96  56  50  92  56  51  80  51  42  75  43  33  75  36
 26  76  37  25  94  55  45 109  70  58  97  64  52  53  29  19  46  26  20  47  32  28
 23   0   0  79  72  65 200 190 183 212 205 194 213 208 191 214 211 193
111  81  67 110  80  66 109  80  66 108  80  65 105  77  63 103  76  63  99  76  61  99
 74  59  96  73  58  94  71  57  92  69  56  91  68  56  90  67  56  87  65  56  83  62
 55  67  49  43  63  44  47  71  51  58  70  50  63  80  56  74  92  66  78  97  70  78
 94  65  73  90  57  68  90  54  56  76  33  27  65   0   0  80  37  31  85  47  41 107
 70  64 103  62  57  97  54  47 112  69  62 121  79  73 110  68  65 100  61  55 103  67
 56  82  49  39  53  16   2  87  51  40  80  49  36  57  33  22  47  30  23  54  41  35
  0   0   0 128 119 113 218 208 200 220 213 202 223 218 202 223 221 206
117  84  67 116  83  66 117  84  69 114  84  68 112  82  66 110  82  66 109  82  63 108
 81  63 107  80  64 106  81  65 105  80  65 102  79  63 102  77  63 100  75  62  98  75
 63  87  64  57  88  65  67 103  78  84  89  62  69 110  78  85 148 109 117 139 100 107
109  73  79  93  61  66  95  63  67  91  59  51 173 137 124 128  96  85  83  45  39  97
 62  58  84  43  43  92  47  45 110  65  60 122  77  72 104  56  51  98  54  47 102  64
 53  97  59  48 101  58  47 131  85  70 119  77  61  70  41  27  48  28  16  55  38  31
  0   0   0 173 157 151 230 219 211 226 220 208 231 225 212 229 228 214
117  87  67 116  86  66 115  86  65 115  85  65 114  85  65 113  85  66 112  85  65 112
 85  65 112  84  64 112  84  65 111  83  66 110  82  64 110  83  67 110  84  67 111  84
 68 108  80  67 104  76  70 139 108 106 135 103 103 141 106 108 142 102 108 109  72  78
 73  36  44  79  48  53  74  25  40 203 155 145 255 227 200 232 178 149  98  48  38 103
 67  61  95  51  50 103  55  57  88  43  46  55   0   0  90  50  43  86  47  37 100  60
 48 105  61  46 124  74  55 152  99  76 151 100  79 110  72  54  49  16   0  79  47  34
100  52  30 186 159 148 240 229 218 237 232 222 241 236 224 238 237 224
118  92  69 118  90  67 117  89  66 116  88  65 115  88  65 116  87  66 116  87  66 116
 87  65 117  86  64 117  86  65 117  85  65 114  84  65 114  84  65 115  85  66 117  86
 67 121  87  69 120  86  74 141 106  97 146 110 104 150 115 116 109  76  81 106  76  80
 75  40  47  97  64  70 104  58  63 230 177 165 255 226 191 238 161 120 117  53  40 163
111  98 208 150 139 191 135 127 147  93  90 124  72  68 113  62  56 113  65  55 129  82
 66 122  72  52 148  94  66 168 110  79 159 102  74 126  79  57  81  38  18 126  79  59
128  66  43 151 113  96 236 223 209 224 219 210 213 210 200 202 200 189
120  94  70 121  94  70 121  92  70 120  91  69 119  90  69 119  89  68 120  89  67 120
 89  66 120  89  66 122  88  66 121  87  65 120  88  67 120  88  67 120  88  67 120  89
 68 125  91  71 125  89  74 148 109  98 150 108 100 169 131 128 156 116 117 140  98  99
144 101  99 167 120 116 142  91  86 237 191 171 255 221 183 244 165 117 158  88  62 157
 94  80 218 147 126 217 145 126 199 128 117 183 114 104 176 108  90 186 119  99 196 131
109 161 102  73 200 136  98 192 125  87 168 106  72 138  82  56 106  50  30 135  79  58
147  84  61 149 100  84 194 173 163 181 171 164 176 168 160 175 169 159
122  95  71 122  94  71 124  92  71 124  91  72 123  91  72 124  91  70 124  92  69 122
 92  67 121  92  66 124  90  67 124  88  66 123  89  68 123  90  68 123  90  68 124  90
 69 128  93  74 119  80  64 167 131 121 173 131 123 203 157 150 214 164 156 197 141 133
187 130 120 164 108  98 185 128 115 255 214 187 254 216 179 255 181 136 230 150 112 142
 69  53 192 119 100 227 148 134 219 140 127 212 139 120 220 145 122 235 158 131 215 141
112 219 146 109 242 164 122 213 138  97 172 103  68 147  84  55 116  55  34 113  52  31
137  72  49 171 122 106 197 173 163 187 175 166 188 176 168 187 177 169
124  95  73 123  94  71 126  92  71 127  91  71 127  92  71 126  92  70 123  93  70 122
 93  70 121  93  68 122  92  69 124  91  68 126  90  69 127  90  71 126  92  70 127  93
 70 129  93  73 129  92  74 133  90  78 175 128 120 199 148 138 192 134 120 182 117 103
174 109  96 177 110  99 244 180 163 255 217 187 254 215 175 255 179 135 252 161 123 202
117  93 169  87  63 209 126 107 216 137 115 213 139 113 216 138 110 213 133 100 211 128
 89 227 143  99 227 144  99 210 129  87 167  94  58 153  86  55 147  82  57 125  57  37
135  63  45 189 148 134 197 178 165 187 178 163 188 177 166 188 176 167
125  95  73 124  94  71 127  93  72 128  92  73 128  92  72 128  92  71 125  93  72 125
 93  71 125  93  70 123  93  70 125  93  68 129  92  71 130  92  71 128  94  70 128  94
 70 130  94  73 134  96  76 131  87  70 197 148 137 225 167 153 211 143 124 212 138 121
202 128 115 228 154 144 255 192 175 253 209 179 254 206 165 255 173 130 255 163 123 244
150 114 172  86  49 180  93  59 203 115  82 214 124  88 220 131  93 217 130  90 208 121
 80 199 112  67 197 113  69 184 106  65 159  87  52 150  85  52 144  80  51 128  59  34
161  94  76 200 163 150 201 181 171 194 180 168 192 180 168 192 179 169
127  94  72 126  94  72 128  93  73 129  93  73 130  93  72 128  93  71 126  94  72 125
 95  70 127  94  71 126  94  71 127  94  71 130  93  72 132  93  73 130  95  72 129  96
 71 132  95  74 134  96  75 134  92  73 182 134 121 214 152 137 210 136 119 201 121 109
192 113 105 237 156 147 255 176 162 255 185 159 255 178 142 241 142 105 238 127  90 240
140 101 208 114  80 206 114  82 204 111  79 199 106  70 194 104  63 193 105  63 189 103
 60 184 100  59 175  96  55 164  91  53 153  85  52 148  86  54 136  74  43 152  85  60
181 115  94 207 175 162 206 186 179 201 185 175 197 184 174 195 183 171
127  94  72 127  94  71 128  94  74 128  95  75 129  94  73 128  94  70 126  96  73 126
 96  72 129  95  70 128  95  70 128  95  70 130  94  73 132  95  74 132  96  72 132  96
 72 133  97  75 135  98  76 134  92  73 168 119 107 204 141 130 208 133 121 205 120 110
207 125 116 208 125 118 200 109  98 207 111  94 196  99  76 151  56  29 136  40   6 160
 64  28 227 136 104 255 163 128 250 152 120 244 147 112 214 124  85 188 102  60 178  96
 55 168  92  52 158  87  48 152  83  46 148  82  51 149  84  54 156  88  62 173 103  78
197 142 123 213 188 177 203 190 182 202 189 180 200 187 175 199 186 170
127  95  73 129  95  70 128  95  72 128  96  73 129  95  72 129  95  70 129  96  71 129
 96  71 129  95  72 129  95  70 129  96  70 129  96  73 131  96  75 134  96  72 134  96
 72 134  98  75 135  98  74 137  96  76 158 106  96 202 139 132 222 145 136 217 129 119
232 152 142 193 125 118 127  53  50 135  67  63 118  54  45 100  41  29 103  46  34 115
 32   0 218 142 108 255 174 135 253 152 117 248 149 112 237 145 106 213 126  89 175  95
 57 155  86  44 144  81  42 138  77  42 138  77  46 146  81  55 160  83  62 184 120 106
215 180 165 211 195 185 205 194 186 204 193 183 203 190 175 202 188 171
128  96  75 129  95  73 130  96  71 130  97  71 132  97  70 132  96  71 130  96  73 130
 96  74 130  96  74 130  96  74 130  96  73 130  96  73 132  97  74 134  96  72 134  97
 74 134  98  75 134  98  75 137  98  76 146 100  85 184 126 116 204 127 119 209 123 113
238 159 147 198 131 121 131  68  63 125  64  59 108  51  42  96  43  33  94  34  19 121
 49  16 228 149 116 255 171 134 248 149 113 233 134  96 220 127  90 206 119  85 172  94
 60 142  77  39 134  76  40 131  75  43 132  77  50 125  67  38 171 127 110 221 185 176
219 195 189 212 196 189 208 197 189 206 195 185 205 192 178 204 191 175
129  96  74 131  96  74 133  98  73 132  97  72 132  98  71 133  98  71 134 100  77 134
101  79 134 101  78 133  98  77 132  98  76 134  99  76 135  99  76 137  98  72 135  98
 72 134  98  73 134  98  75 136  99  77 140  96  79 169 114 103 197 124 115 208 128 117
207 130 118 200 128 118 146  79  71 119  56  48 117  60  50 111  56  45 143  84  66 202
130 104 230 148 115 229 137 101 230 136 100 221 126  88 207 116  78 187 104  69 161  89
 52 138  75  39 131  75  43 127  72  44 129  76  54 107  52  18 189 164 149 225 204 196
214 196 191 212 200 193 210 199 191 209 198 187 208 195 181 208 193 178
132  95  75 131  94  72 130  90  61 137  93  64 140  94  64 137  91  61 130  87  59 126
 86  57 124  87  59 131  95  69 129  92  68 125  88  63 126  88  61 126  91  58 134  97
 68 140  99  73 138  98  73 139 100  78 141  97  82 162 111 101 194 136 127 186 112 108
141  40  44 103   0   0 134  61  58 131  67  64 109  49  45 103  41  36 150  80  65 201
121  97 200 117  89 173  89  55 186 101  66 209 123  84 199 116  76 179 103  64 154  85
 50 137  76  44 130  74  44 126  71  44 123  71  50 116  71  49 203 182 173 221 208 202
215 203 197 215 204 196 214 203 193 213 201 189 212 198 183 211 197 180
131  94  73 137  98  73 207 173 142 236 207 171 238 210 173 235 208 169 225 197 162 217
181 148 195 147 116 162 112  79 164 118  85 179 130 104 185 134 111 184 134 108 144  95
 67 128  81  59 140  97  74 138  94  72 130  74  66 144  79  82 198 141 128 220 178 150
197 152 125 130  58  53 103  48  37 114  66  58  95  51  44  71  29  23  47   0   0  58
  0   0  89  22   0 122  58  41 164  92  63 196 120  81 193 117  78 170 100  61 149  83
 46 136  75  42 125  69  41 121  68  43 113  59  36 137 103  85 222 203 195 219 208 206
216 206 201 217 206 200 216 206 198 215 204 194 214 201 189 214 200 185
130  87  65 182 140 116 255 222 189 255 240 196 255 239 192 255 237 189 255 234 189 255
228 187 255 224 185 248 201 162 248 188 146 255 191 163 255 194 174 255 199 172 242 189
161 201 146 121 141  88  65 148 112  88 192 163 128 227 207 148 250 236 155 255 228 149
247 191 129 185 105  78 141  69  63 143  82  70 138  76  68 147  75  75 184 102 103 176
 95  90 162  90  75 174 105  82 176 105  75 186 113  77 180 111  74 160  93  56 143  79
 43 132  71  39 120  66  38 113  63  41 106  54  29 147 114  99 234 215 209 227 219 217
224 217 214 222 215 210 217 210 203 218 207 199 218 205 195 217 204 193
135  91  67 223 170 145 246 175 151 238 160 133 245 167 138 248 168 135 250 167 133 255
184 148 255 218 179 255 228 188 252 208 166 254 175 142 252 156 131 252 158 129 254 164
134 253 164 131 242 206 146 250 236 159 255 237 155 246 218 130 230 186  96 217 129  64
208  98  64 241 134 119 232 120 122 192  79  82 181  65  66 193  78  78 192  81  80 180
 74  62 198 106  81 200 116  87 190 110  79 178 103  72 162  93  61 147  82  51 135  74
 46 121  66  39 111  57  36 104  54  33 113  67  46 119  84  70 138 126 122 162 156 156
177 171 170 199 192 191 221 214 212 222 214 212 220 210 203 219 208 200
168 127 101 247 194 166 231 157 136 203 112  98 190  71  65 216  95  84 221  99  80 234
119  96 255 160 135 255 209 173 254 241 201 254 230 187 255 164 125 230 112  80 199  41
  0 211 106  64 240 181 113 227 175  91 193 130  60 161  89  43 164  86  71 182 110  98
166  88  79 160  64  64 155  58  60 143  39  46 129  24  27 113   0   0 107   0   0 162
 83  59 199 117  87 206 120  89 194 110  81 171  94  66 152  84  55 136  74  49 118  64
 39 106  54  33 100  49  30 102  53  30 120  75  52 113  74  59   0   0   0   0   0   0
  0   0   0   0   0   0 139 132 134 223 216 219 220 214 211 219 212 204
203 169 143 255 227 194 255 230 195 255 229 194 240 206 176 244 194 165 235 164 129 198
 90  61 190  66  45 227 123 101 252 179 154 254 192 153 243 145  96 214 113  71 175  74
 35 185  97  56 167  88  40 144  82  53 138  92  69 138  96  76 137  91  76 156 103  94
169 108 101 135  69  65 109  46  44 105  49  45 115  57  48 149  85  69 191 119 102 226
152 126 233 156 123 215 134 101 179  99  71 156  81  56 140  77  52 112  58  34  97  46
 24  93  44  24  96  47  32 104  57  36 123  76  53 125  81  63  68  44  39  33  28  32
 42  35  37  37  29  32   0   0   0 194 186 190 227 221 222 220 214 211
237 193 171 255 225 195 254 232 195 255 237 194 255 245 201 255 246 201 255 230 180 244
187 150 180 105  83 132   0   0 194  78  63 212  78  61 201  68  38 227 125  96 226 138
107 191 105  76 159  97  68 144 100  70 143 100  72 142  99  74 134  87  69 129  77  65
198 140 126 216 141 127 223 139 122 235 152 133 239 157 133 248 168 140 255 178 144 255
175 138 248 166 131 219 138 105 160  85  57 130  65  42 107  53  34  85  39  19  85  39
 22  92  45  29  98  49  34 109  60  39 127  77  51 130  83  59  80  46  34   6   0   2
 22   6   9  44  37  39   5   0   0 133 126 129 228 221 223 222 216 214
252 186 172 244 166 152 246 170 148 247 175 145 252 193 158 255 209 170 255 215 172 255
222 178 255 206 175 203 141 118 133  56  27 156  64  47 192  84  71 250 142 126 233 135
114 178  98  74 150  95  68 145  97  71 143  97  69 141  99  65 141  96  63 116  72  33
167 114  84 236 155 129 247 151 126 245 146 118 243 145 116 238 147 117 236 147 109 230
144 101 213 132  94 162  92  63 114  56  31  87  39  16  73  31  16  70  30  18  79  39
 29  90  46  34  99  51  33 113  61  37 128  74  47 128  81  52  89  54  31  44  21   7
 34  20   5  51  40  36  58  50  48  23   7  16 199 193 192 234 228 227
224 147 135 194  91  84 183  70  61 192  84  67 202  96  78 214 111  92 238 149 123 253
190 155 255 203 170 255 201 174 210 148 126 139  46  25 174  65  54 214 110  96 181  91
 72 156  89  64 142  96  68 140  99  73 141 100  73 142 101  70 142 102  70 135  95  66
120  68  39 164  94  75 192 107  91 192  98  76 186  93  65 185  98  66 190 105  68 171
 94  55 133  66  34  88  37  13  69  29  10  67  29  13  68  32  20  74  36  26  81  42
 30  87  45  32  98  50  31 114  62  38 128  73  45 124  73  44  86  41  18  80  46  35
 96  70  63  62  46  43  56  44  44  41  31  31  80  75  73 182 176 177
204 123 112 176  86  74 141  45  33 166  79  69 165  74  66 156  55  49 175  73  61 217
126 105 249 168 144 255 194 168 255 209 174 225 143 115 170  51  37 166  82  63 151  86
 62 144  92  68 138  99  76 130  98  78 122  92  74 116  86  69 112  86  67 116  87  71
112  77  63  78  35  25  98  49  43 116  61  47 118  59  38 120  58  34 114  54  32  94
 41  22  72  29  16  61  27  15  60  27  17  71  37  26  81  45  34  80  43  32  81  42
 28  87  44  29  98  50  31 115  63  39 125  71  44 107  53  27  80  29   8 104  65  56
 98  68  63  57  35  37  53  37  40  55  44  47  36  20  27  16   0   0
194  98  90 192  98  86 182  93  83 153  37  38 145  29  26 151  63  51 142  53  39 150
 56  40 197 102  86 234 148 130 246 157 132 221 117  93 167  64  48 149  81  62 143  93
 71 137  96  81 102  75  68  73  53  55  58  42  53  40  28  42  23  11  25  25  15  26
 37  23  31  44  26  31  44  22  25  50  21  25  76  46  48  81  51  48  70  39  34  68
 36  31  68  33  30  66  31  24  70  36  28  78  41  31  83  44  32  81  42  28  82  41
 27  89  44  29  97  50  34 106  57  38 104  55  35  87  40  19  86  44  32  99  61  57
 74  45  45  58  37  41  56  38  42  50  36  40  49  37  41  53  46  50
242 163 144 252 193 164 255 213 180 238 196 166 194 135 111 153  59  43 117   3   0 130
 51  38 138  62  40 145  61  38 159  57  47 152  51  40 144  61  49 141  89  70 135  98
 82 102  73  72  58  40  56  55  46  63  55  46  66  48  39  57  39  32  43  36  29  38
 32  25  36  31  23  30  35  22  25   0   0   0 112  90  92 135 106 106 116  86  84  93
 63  62  83  49  46  77  42  34  76  41  32  77  39  29  78  40  26  77  39  25  81  41
 28  88  44  30  92  47  32  94  49  32  88  45  30  83  42  30  88  50  45  79  46  46
 63  37  41  58  39  44  52  38  41  47  34  35  39  28  33  45  37  44
255 202 168 255 204 166 255 222 176 255 242 192 255 235 190 238 189 155 185 119  99 129
 38  23 139  66  45 136  64  44 129  56  40 128  57  44 134  73  57 137  98  81 108  82
 74  62  47  51  49  41  48  41  35  49  38  31  50  35  29  46  27  23  35  20  15  27
 16   9  22  22  13  23  29  19  23   0   0   0 100  80  85 139 110 114 126  93  97 102
 69  73  82  46  47  76  41  34  72  38  29  74  37  27  73  36  25  73  37  26  76  39
 27  81  40  28  84  41  28  84  42  29  84  42  30  88  51  43  85  52  51  67  40  43
 59  38  43  53  39  45  46  37  39  43  32  32  36  25  30  45  37  46
248 175 140 244 159 121 253 176 135 255 201 158 255 220 173 255 223 173 255 208 159 217
149 110 145  64  36 141  63  44 141  66  50 131  66  49 136  84  68 122  88  75  43  27
 23  41  33  34  20  13  22  11   4  21  23  13  34  33  25  45  23  18  33  15   8  23
 21  15  28  22  16  26  22  12  19   0   0   0  60  44  50 137 107 115 131  96 105 103
 67  76  78  40  44  70  35  33  68  36  29  70  34  27  70  36  29  72  39  31  76  42
 31  79  40  30  80  39  29  79  38  29  82  43  35  89  56  52  73  47  49  58  38  44
 53  39  45  48  38  44  44  36  39  41  31  33  34  25  30  48  38  48
186 103  77 170  75  50 182  83  56 204 109  79 229 143 108 245 170 126 255 181 132 255
183 137 233 155 118 167  85  64 140  61  45 138  75  56 135  86  71  93  63  58  11   0
 18  39  29  42  27  22  35  37  31  46  48  41  61  49  43  63  27  21  38  23  15  31
 27  22  34  21  15  23  15   7  12  21   8  16   0   0   0 108  83  89 132  99 106 115
 75  85  87  46  54  69  35  36  65  33  31  66  33  31  71  40  34  76  44  38  80  44
 35  79  40  31  77  37  27  75  37  29  79  46  42  75  51  49  58  41  44  50  39  45
 47  40  46  47  39  43  45  35  40  36  27  33  36  27  33  50  42  51
131  50  32 133  54  39 128  48  29 122  38  17 129  42  20 163  68  49 216 115  92 245
149 113 255 178 135 242 165 135 159  78  58 140  74  57 103  59  54  53  33  44  54  43
 62  35  29  46  32  28  40  43  40  53  49  44  63  45  41  60  26  22  39  33  28  44
 34  29  43  16  12  22  15   7  13  21   8  16   2   0   0  59  35  41 114  81  88 113
 75  85  99  57  66  81  45  47  69  36  35  70  37  36  76  44  41  78  45  42  76  43
 35  72  35  29  70  35  29  74  44  40  74  50  48  63  43  46  54  39  44  51  38  46
 48  37  47  49  37  44  44  34  39  33  25  31  41  31  39  53  43  52
138  63  41 145  72  51 138  65  47 125  55  38 119  49  34 119  46  31 133  54  36 172
 90  62 216 131 101 232 150 123 191 112  89 135  64  50  84  45  52  59  46  65  52  46
 67  28  23  40  37  32  45  46  39  56  49  44  63  43  39  57  34  30  48  42  37  53
 30  25  39  15   9  20  15   8  15  17   5  13  23   6  13  24   0   2  78  48  55 100
 63  72  94  55  63  85  50  51  77  45  43  78  45  44  83  51  49  81  49  46  74  39
 34  69  35  32  71  41  39  75  48  48  69  44  48  58  39  46  54  39  47  52  38  47
 49  37  47  45  37  44  39  31  36  34  25  34  44  35  43  53  43  52
147  67  45 152  76  55 143  69  50 133  62  47 128  56  40 130  54  39 135  58  46 135
 54  41 150  60  47 163  73  59 182 103  88 142  73  61  71  43  60  62  52  77  49  42
 62  26  23  37  41  36  52  47  41  62  48  43  67  43  36  57  38  33  47  22  16  29
 10   5  16  16  12  20  16   8  12  19   6  11  22   6  10  25   5   8  44  20  23  76
 46  49  80  49  50  79  48  47  80  48  46  87  53  54  94  64  61  83  54  48  71  40
 34  69  40  35  73  47  48  69  46  51  61  41  49  55  40  48  52  39  46  49  39  44
 47  39  42  43  34  39  34  25  34  34  25  34  45  34  44  51  43  52
164  76  53 162  78  53 170  91  68 148  74  54 143  67  48 147  67  51 147  67  54 149
 70  57 153  69  57 158  74  62 162  84  71 137  73  63  66  46  68  61  52  81  46  36
 59  29  23  38  43  39  55  47  43  65  48  44  66  42  37  54  26  21  32   8   3  10
 15  10  18  18  12  19  16   9  12  19   7  10  20   6   8  22   6   7  39  18  18  63
 39  37  72  45  43  75  45  43  82  50  48 100  67  66 106  76  73  86  56  50  73  43
 36  77  50  45  73  51  53  64  45  52  57  41  52  53  41  48  50  39  45  48  39  41
 45  37  39  39  31  36  32  23  30  36  27  35  46  38  45  52  42  51
193 105  74 167  75  45 182  98  72 192 116  92 159  81  61 155  75  57 154  76  61 153
 75  59 156  74  58 159  79  64 154  79  66 120  64  61  61  44  67  59  48  78  43  34
 55  34  25  40  46  39  56  48  44  65  46  45  66  39  35  51  18  13  23  10   7  13
 16  12  18  16  12  14  16  13  13  16  10  11  19   7  11  19   6   7  33  15  15  57
 34  34  71  44  43  76  45  43  89  55  54 110  77  77 116  83  81  93  60  57  87  55
 50  77  50  46  59  39  42  62  46  51  55  41  51  52  41  48  48  38  45  46  38  42
 44  35  38  38  30  33  31  23  29  39  30  36  48  38  48  50  39  47
238 146 115 190  93  64 177  84  57 201 119  94 207 127 102 183 102  84 167  88  71 161
 81  63 158  79  63 152  77  63 138  71  60  96  53  55  57  45  67  58  46  73  41  30
 51  38  27  43  46  38  57  48  44  63  47  46  66  37  33  50  18  12  25  13   9  18
 13   9  16  13   9  15  19  14  17  16  10  13  19   8  12  20   7  10  29  12  14  56
 32  31  72  43  41  80  48  46  91  58  57 108  76  78 101  74  73  70  46  44  61  37
 35  37  15  15  21   1   5  46  31  36  54  41  48  50  39  47  46  36  44  45  35  40
 42  33  37  36  27  31  32  23  29  42  33  38  48  38  46  45  34  43
