P3
# 8-bit ppm - RGB
50 50
255
 76  89 111  76  89 112  76  89 112  77  90 113  78  91 114  79  91 114  80  92 115  80
 93 115  81  93 116  82  94 117  82  95 118  83  96 118  84  96 120  84  97 121  85  97
121  85  98 121  86  99 122  87 100 123  89 101 124  90 102 126  92 105 128  92 105 128
 92 105 128  92 105 128  91 104 126  91 104 127  94 107 131  95 108 132  97 109 134  97
109 133  95 108 132  96 108 132  96 108 133  97 109 133  98 110 134  98 111 135  99 112
135  99 112 136  99 112 136  99 112 136  99 112 136  99 112 136 100 112 137 100 113 138
100 114 139 101 114 140 101 114 139 100 114 140 100 114 140 100 114 140
 76  89 111  77  89 112  77  90 113  78  90 113  78  91 113  79  91 114  80  92 115  81
 93 116  82  94 116  82  94 117  83  95 118  84  96 119  84  97 120  85  98 121  86  98
122  86  99 122  88 100 124  89 101 125  87 100 124  87  99 119  92 104 117  84  94 104
 76  86  99  76  86  98  77  87  95  73  82  92  76  85  98  75  85  97  84  94 109  94
106 129  99 111 136  99 112 136  98 111 134  98 110 134  99 111 135 100 112 136 100 113
136 101 113 137 101 113 137 101 114 137 101 113 138 101 114 138 100 114 138 101 115 139
102 115 140 102 115 140 101 115 140 102 115 141 102 115 141 102 116 141
 76  88 111  77  89 112  77  90 113  78  90 113  78  91 113  79  91 114  80  92 114  81
 93 115  81  94 116  82  94 116  83  95 118  84  97 120  85  97 120  86  98 121  87  99
122  90 102 124  88 101 123  88 100 119  92 101 115  88  96 101  82  89  91  89  97 103
 93 101 105  81  89  95  87  97 104  73  80  85  65  72  76  69  76  78  66  72  72  80
 88  96  79  89 102  94 106 125 101 114 138 100 112 136 100 112 136 101 113 137 101 113
137 101 114 137 102 114 138 102 114 138 102 114 138 102 115 139 102 115 140 102 116 139
103 116 140 102 116 141 103 117 141 104 117 142 103 117 142 103 117 142
 76  89 111  77  89 111  77  90 112  77  90 113  78  91 113  79  92 114  80  93 115  81
 94 116  82  94 116  82  95 117  84  96 119  85  97 120  85  97 119  87  99 122  87  99
122  80  93 116  84  95 109 114 122 127 115 122 127 103 110 115 111 118 124 103 110 115
 87  92  95  86  92  97  89  97 103  81  88  93  93 103 108  82  89  93  79  87  91  84
 92  94  70  76  74  68  75  80  90 100 119 100 112 134 101 113 137 102 114 137 102 114
138 102 114 138 103 115 139 103 115 139 103 115 139 103 116 140 103 116 141 103 117 141
104 117 141 104 118 142 104 118 143 105 118 143 104 118 143 105 118 143
 76  88 111  77  89 111  78  90 112  78  90 112  79  91 113  80  93 114  81  93 115  82
 94 116  82  95 117  83  96 118  85  97 119  85  98 119  87 100 122  81  94 115  97 111
125 114 125 133 131 137 142 140 144 150 143 151 158 104 110 115 111 116 121 115 120 125
 81  80  81  85  85  87  91  96 101  99 107 113  95 103 108 102 109 114  98 106 109  73
 79  80  78  85  87  59  64  66  54  60  64  82  92 107 101 113 136 102 114 138 103 115
139 103 115 139 104 116 140 104 116 140 104 117 140 105 117 141 104 117 141 104 118 142
105 118 143 106 119 143 106 119 143 106 118 143 105 119 144 106 119 144
 76  88 110  77  89 111  77  90 111  78  90 112  80  92 114  81  93 115  81  93 115  82
 94 116  83  95 117  84  97 119  85  97 119  88 100 123  82  95 116 119 130 140 143 151
157 140 144 150 135 136 142  98  94  98 118 118 123 128 133 139 109 110 116 133 137 142
109 110 113  92  87  88 104 105 110 120 128 134 126 134 140 130 137 143  99 103 106  80
 83  84  68  71  72  59  64  67  48  52  54  59  65  72  97 109 127 106 118 141 104 116
139 105 117 140 105 117 141 105 117 141 105 118 141 106 118 142 105 118 142 105 119 142
106 119 143 107 120 144 106 120 144 106 119 144 107 120 145 107 120 146
 76  88 110  77  89 111  78  90 112  79  91 113  80  92 114  81  93 115  82  94 116  83
 95 117  84  96 118  85  97 119  88 100 123  79  91 112 103 113 121 151 159 165 115 113
118  90  86  89 112 107 111 113  99 101 127 112 113 141 134 139 135 131 135 127 120 123
127 115 118 109  93  93 118 114 117 115 114 118  93  91  92  94  95  97  96  98 101  70
 69  68  38  33  32  43  44  46  57  61  65  76  85  90  79  89  97  93 105 122 104 116
139 105 117 141 105 117 141 106 118 142 106 118 142 106 118 142 106 119 142 106 120 143
107 120 144 107 120 145 108 121 145 108 121 146 108 122 146 108 122 147
 77  89 111  77  89 112  78  90 112  80  92 114  81  93 115  82  94 116  82  95 117  83
 96 117  84  97 119  86  98 120  85  97 120  88 101 114 127 137 143 110 111 116  70  66
 69  97  83  85 156 127 127 171 141 141 181 151 151 185 162 165 176 150 151 170 136 134
168 130 128 166 129 130 158 128 130 129 108 108  85  67  66  88  70  69  95  87  87  79
 67  66  58  44  41  56  52  53  57  60  64  76  82  88  73  80  84  52  58  58  93 104
121 109 122 146 106 118 141 107 119 143 107 119 143 107 119 143 108 120 144 108 121 145
108 121 145 109 121 146 109 122 146 109 122 146 109 123 148 109 123 148
 77  89 111  78  90 112  79  91 113  80  92 114  81  93 115  82  94 116  83  95 117  83
 96 118  85  97 119  86  98 120  86  98 118 108 122 132 116 122 129  79  74  76  96  77
 76 174 131 129 202 156 153 205 162 159 210 167 163 214 173 172 216 175 174 216 174 173
213 166 167 209 162 163 205 159 161 189 142 143 165 125 124 150 110 108 136  95  91 112
 76  74  97  69  66  82  60  57  66  56  57  59  60  64  78  85  91  53  60  62  52  59
 63  98 110 130 110 122 146 108 120 144 109 121 145 108 121 145 109 121 145 109 122 146
110 122 146 110 122 147 110 123 147 110 123 147 110 123 148 110 124 149
 78  89 111  78  90 112  79  91 113  80  93 114  82  94 116  83  95 117  83  96 118  84
 97 118  86  98 120  85  97 119  96 110 125 114 125 133 111 112 117  79  66  67 170 128
127 210 159 157 205 154 150 212 161 156 215 165 159 220 171 169 222 177 177 222 175 175
221 174 175 220 172 174 215 169 170 208 156 157 197 143 144 182 132 129 168 117 114 151
104 102 132  92  91 117  84  82  92  68  66  65  54  54  77  82  89  84  94 101  31  37
 35  51  57  65 100 111 132 110 123 147 109 122 145 110 122 146 110 122 146 110 123 147
111 123 147 111 123 147 111 124 148 111 124 149 112 124 149 112 125 149
 78  90 112  79  91 113  79  91 113  81  93 114  82  94 116  83  95 117  84  96 118  85
 97 119  86  98 120  88 100 119 105 117 126 125 132 139  98  95  99 145 113 112 209 160
159 211 163 161 217 167 164 219 166 161 221 171 167 227 178 177 228 182 180 227 182 182
226 178 177 222 175 171 215 170 167 208 164 162 201 152 148 194 146 143 180 130 127 169
116 115 148  99  97 128  86  85 109  76  75  83  62  60  74  72  76  91 100 107  68  76
 81  34  41  39  77  86 100 112 124 148 110 122 147 111 123 147 112 124 148 112 124 148
112 124 148 112 125 149 112 125 149 112 126 150 113 126 150 113 126 151
 78  91 112  79  91 113  80  92 114  81  93 115  82  94 116  83  95 117  84  96 118  85
 97 119  86  98 120  86  98 111 112 122 129 121 126 133 115 101 103 195 152 150 217 168
166 220 169 168 225 174 172 226 175 171 227 177 173 230 181 177 231 185 183 230 186 184
227 183 179 225 180 175 220 174 170 210 166 162 200 153 145 200 154 150 190 139 137 176
123 121 155 106 103 126  84  80 115  79  77  98  71  70  67  57  57  86  92  98  83  92
 98  49  56  57  42  47  54 104 115 137 112 124 148 112 124 148 113 125 149 113 126 149
113 125 149 113 125 149 113 126 150 114 126 150 113 126 151 113 127 152
 79  91 113  79  92 113  80  92 114  81  93 115  82  94 116  83  95 117  84  96 118  85
 97 119  85  97 119 104 117 128 111 119 127 109 111 117 158 130 128 215 171 166 218 169
166 223 174 172 227 179 174 230 184 179 233 187 183 234 189 184 234 192 187 233 193 188
231 189 183 230 189 184 228 184 179 221 176 171 209 161 154 204 157 151 195 148 142 177
127 121 155 108 102 127  88  83 118  85  82 106  77  75  71  55  52  82  84  89  73  80
 84  51  59  60  30  36  35  92 102 121 114 127 151 113 125 149 114 126 150 114 127 150
114 127 151 114 127 151 114 127 151 114 127 151 114 127 151 114 128 152
 79  91 113  80  92 114  81  93 115  81  94 115  82  94 116  83  95 117  84  97 118  84
 96 118  91 104 123 100 113 122 116 124 132 106 103 107 181 151 150 218 174 168 219 172
167 224 180 176 229 183 177 235 192 187 240 201 197 243 206 204 242 206 205 241 205 203
239 204 201 236 197 196 234 194 191 229 187 184 218 174 168 207 162 154 198 153 146 181
136 130 156 111 106 133  93  88 124  90  86 104  76  73  74  60  55  84  84  88  67  74
 79  43  50  52  22  28  23  92 102 120 117 129 153 114 126 149 115 127 151 115 127 151
115 127 151 115 128 152 115 128 152 116 128 152 116 129 153 116 129 153
 79  91 113  80  92 114  81  93 115  82  94 116  83  95 116  84  96 118  84  97 118  87
 99 121  89 101 120  96 107 115 128 138 146 112 104 105 194 165 163 216 171 165 219 174
167 225 184 178 232 187 184 239 200 196 244 212 208 246 218 216 246 221 220 244 215 214
242 211 209 237 201 200 236 200 196 230 190 185 222 181 175 212 168 162 198 152 147 179
134 127 164 119 114 147 103  98 131  91  86 105  77  73  81  64  61  85  81  83  72  78
 82  46  54  56   5  11   0  84  94 110 117 130 154 114 126 150 116 128 152 116 129 153
117 129 153 116 129 153 117 130 153 117 130 153 116 130 154 117 131 154
 80  91 113  80  93 114  81  94 115  82  94 116  83  95 117  84  96 118  85  97 119  87
 99 121  84  96 114  85  96 103 118 125 132 143 137 141 199 171 170 214 171 165 223 178
172 227 185 179 233 191 186 239 202 197 245 215 213 247 220 219 246 221 220 245 217 216
243 213 212 238 203 201 236 199 195 229 189 185 219 175 169 214 169 163 198 150 144 182
135 129 176 130 125 162 116 110 142  98  93 111  81  76  88  69  66  77  71  71  67  70
 72  48  55  57   2   7   0  79  88 102 118 130 154 116 128 152 117 129 153 117 130 153
117 130 154 118 130 154 118 131 154 118 131 154 117 131 155 118 132 155
 80  92 114  81  93 115  82  94 115  82  95 116  83  95 117  84  96 118  85  97 119  86
 98 121  89 102 120  76  85  91 103 109 114 151 143 146 199 171 168 213 169 162 223 177
170 230 186 180 235 195 189 240 199 194 245 212 209 247 218 217 245 214 212 246 218 217
242 210 210 238 203 201 235 199 195 228 186 181 220 175 169 214 168 160 201 154 146 188
139 133 178 129 123 173 128 122 148 105 100 111  83  78  88  70  64  77  68  66  66  67
 68  48  55  57   9  16   0  71  79  92 118 131 155 117 129 152 118 130 154 118 130 154
118 131 154 119 131 155 119 131 155 119 132 156 120 132 156 120 133 156
 80  92 114  81  93 115  82  94 116  83  95 117  83  96 118  85  97 119  86  98 119  87
 99 121  88 101 120  89 100 107 105 112 119 155 146 148 199 169 165 213 168 159 221 177
168 231 185 178 237 195 189 238 198 192 241 204 200 242 205 201 241 203 199 241 203 201
239 202 198 236 197 193 232 192 188 228 186 182 222 176 169 216 171 163 203 156 148 190
140 132 179 133 125 171 124 117 146 104  98 113  83  78  85  68  62  71  62  58  63  63
 63  47  52  54  13  19   5  70  79  92 119 132 155 118 130 153 119 131 155 119 131 155
120 132 156 120 133 156 120 133 156 121 133 157 120 133 157 121 134 157
 80  93 114  81  93 115  82  94 116  83  95 117  84  96 118  86  98 119  86  98 120  87
 99 121  90 103 122  81  89  96  94  96  99 152 143 145 195 162 156 213 170 161 221 179
170 233 189 183 236 194 187 238 198 193 239 203 199 241 202 197 240 200 196 239 200 197
237 197 193 234 193 190 233 192 190 231 188 185 224 178 173 219 177 170 205 163 154 194
151 141 185 145 137 167 120 112 140  96  88 108  78  71  83  65  59  68  60  56  61  62
 60  45  49  51   4  12   0  77  86 100 121 133 157 118 130 153 119 132 155 120 132 156
121 133 157 121 134 157 121 134 157 121 134 157 121 134 158 122 135 158
 80  92 114  81  93 114  82  94 115  83  95 117  85  97 118  86  98 119  86  99 120  88
100 122  90 102 123 106 118 127 117 118 121 149 138 138 189 156 148 212 168 159 222 179
171 233 191 185 238 200 194 243 209 205 245 213 210 244 209 205 243 211 209 241 208 206
236 195 193 233 193 189 235 198 195 235 198 196 230 188 184 226 183 179 212 171 165 198
161 152 187 147 140 168 127 120 141 103  97 101  74  68  77  59  52  71  58  52  57  58
 55  48  52  52  19  24   9  78  87 101 122 134 157 120 132 154 121 133 155 121 133 156
121 133 157 122 134 157 122 134 158 123 135 158 123 135 159 123 136 159
 80  92 114  81  94 114  83  95 116  84  96 118  85  97 118  86  98 119  87  99 120  88
100 122  87 100 121 127 140 150 135 140 144 139 127 125 192 154 146 209 167 158 222 182
175 223 182 176 219 178 175 227 191 189 231 196 192 239 203 201 246 211 211 242 212 210
239 205 203 235 196 193 232 195 191 235 202 200 216 182 178 180 148 145 145 117 111 122
 96  89 121  91  83 117  88  82 117  90  84  96  75  68  73  55  48  75  59  52  55  53
 50  48  51  51  30  33  21  85  95 109 123 135 159 120 132 154 121 133 156 121 133 156
122 134 157 123 135 158 123 135 159 123 136 159 124 136 159 124 136 160
 81  93 113  82  94 115  83  95 117  84  96 117  85  97 119  86  98 120  87  99 121  88
100 121  89 103 124 126 138 147 130 132 137 149 129 125 198 160 149 207 170 162 186 153
146 132  98  91 135 101  96 120  92  87 107  81  76 146 114 110 200 161 157 224 186 182
233 198 193 227 185 181 218 177 169 210 171 165 142 107 102  74  53  47  74  56  48  79
 61  52  63  49  41  51  40  32  48  34  26  69  54  47  67  52  46  74  55  48  59  51
 47  48  50  50  30  31  19  79  88  99 123 135 158 122 134 156 123 135 157 123 135 157
123 135 158 124 136 159 125 137 159 125 137 160 124 137 160 125 137 160
 81  93 113  82  94 115  83  95 116  84  96 118  85  97 119  86  98 120  88 100 121  88
100 120  89 102 122 129 140 148 123 125 129 170 145 140 201 164 155 171 138 130 114  84
 76 143 118 112 140 113 107 149 121 114 143 109 100 150 110 100 171 127 120 200 155 147
228 189 181 223 182 175 194 150 137 167 123 113 149 109 100 151 116 104 154 120 110 165
136 127 158 126 116 139 103  93  94  68  61  49  37  29  56  42  34  72  52  45  66  51
 44  48  49  48  36  38  33  65  73  80 121 133 155 122 134 156 123 135 157 124 136 158
125 137 159 125 137 159 125 137 159 125 137 160 126 138 161 126 138 162
 80  93 113  82  94 114  83  95 116  84  96 117  85  97 119  86  98 120  88 100 121  88
100 121  92 104 124 130 141 150 137 138 142 186 157 151 197 161 150 138 110 102 171 132
131 201 157 153 205 168 159 189 159 150 152 120 112 154 115 103 180 132 117 200 156 144
235 198 188 234 198 189 179 135 122 121  83  74 166 126 115 159 135 131 125 127 133  90
 84  79 108  84  75 136  98  86 134  95  84  79  59  50  43  34  26  71  53  45  74  56
 49  49  47  44  43  48  46  61  68  72 121 133 154 125 138 160 124 136 158 125 137 159
126 137 160 125 137 160 126 138 160 126 138 160 126 139 161 127 139 162
 81  93 113  82  94 115  83  95 116  84  96 117  85  98 118  87  99 120  88 100 122  88
100 121  89 104 124 138 150 159 161 161 165 200 168 161 195 161 150 156 129 121 192 155
146 163 117 105 126  94  88  92  90  97  82  93  95 137 108 108 181 135 128 215 177 164
229 190 182 232 188 182 163 116 107 119  86  76 186 147 139 194 167 169 150 142 149 104
 87  89 111  81  86  77  55  48 110  81  70 110  81  69  78  59  48  69  52  43  81  62
 55  57  48  44  48  55  55  44  47  46  78  74  83 121 130 151 127 139 161 126 138 160
126 138 160 126 138 160 127 139 161 127 139 161 127 139 161 128 140 162
 81  93 113  82  94 114  83  95 116  84  96 117  85  97 118  86  98 119  89 101 121  81
 98 119 117 114 130 159 164 172 165 164 167 206 173 164 195 160 149 169 136 120 189 149
132 169 131 119 163 127 127 176 141 143 182 142 142 186 128 127 208 166 159 222 184 171
226 179 172 227 176 172 162 112 105 105  63  51 186 154 147 200 160 156 196 153 151 184
143 139 166 122 115 145 108  96 128  98  85 126  92  78 137 103  84 102  75  63  82  61
 54  65  54  49  45  51  52  50  45  47  32   0   0 100  98 113 130 143 166 126 138 160
127 139 161 127 139 161 127 139 161 128 140 162 129 141 163 130 141 163
 81  93 113  82  94 115  83  95 116  84  96 117  85  97 118  86  98 119  90 100 120  73
 98 120 169 134 142 177 168 173 169 170 173 206 171 161 206 169 153 210 174 152 214 177
160 225 189 176 224 187 176 219 182 174 213 171 167 213 173 169 222 183 175 223 176 168
225 177 171 223 170 167 155 103 100 103  57  48 160 113 106 214 177 171 210 171 161 195
153 142 184 138 125 196 152 139 200 160 146 164 127 113 133 101  87 111  83  69  83  63
 55  63  51  46  46  49  49  53  43  44  35   0   0  92  84  96 130 143 165 127 138 160
127 139 161 128 140 162 129 140 163 130 141 164 130 142 164 131 142 164
 81  93 113  82  94 115  83  95 116  84  96 117  85  97 118  86  98 119  91 101 120  73
101 123 188 144 147 189 167 171 159 156 159 208 170 161 214 177 159 221 187 170 227 193
180 236 197 185 231 192 181 231 195 188 236 199 196 238 200 195 232 186 178 222 175 167
221 167 163 225 167 165 168 115 113 105  66  57 152 100  93 202 147 141 221 173 167 209
159 151 205 153 144 211 160 151 213 165 154 180 132 120 133  94  84  92  70  59  77  58
 49  65  51  45  46  45  45  49  37  38  36   0   0  92  80  92 131 143 165 128 139 161
129 141 163 129 141 163 130 142 164 131 142 164 131 143 165 132 143 165
 81  93 113  82  94 114  83  95 116  84  96 117  85  98 118  86  98 119  92 101 121  62
 95 119 189 146 150 189 160 164 156 149 151 206 166 156 210 175 160 222 182 168 236 192
183 239 193 186 236 189 182 237 187 180 238 189 184 238 188 185 235 189 183 220 174 169
225 168 167 228 175 175 186 132 130  87  48  38 140  95  87 201 150 145 220 168 165 223
170 166 217 163 158 211 155 151 204 150 143 177 124 115 141  99  87  99  72  62  67  51
 43  69  54  49  45  36  33  43  28  29  44   0   0  98  88 101 132 145 167 129 140 162
131 142 164 131 143 165 132 143 165 132 143 165 132 144 166 133 144 166
 81  93 113  82  94 114  83  95 115  84  96 116  85  98 118  86  99 119  93 102 121  56
 92 115 183 148 155 196 163 164 161 144 145 207 166 154 209 171 156 226 183 171 234 186
178 243 193 191 243 192 190 241 193 191 242 199 198 245 202 199 229 182 176 218 171 167
231 187 183 233 191 190 192 142 140  95  58  54 102  56  52 199 159 154 233 190 188 227
180 176 222 174 169 212 157 150 201 145 141 176 120 113 140  99  89  97  72  62  71  54
 46  68  53  46  48  36  33  31  13  17  51   0   0 108 107 123 133 146 168 131 142 163
132 144 165 133 144 166 133 144 166 133 144 166 133 145 167 134 145 167
 81  93 113  82  94 114  83  95 115  84  96 116  85  98 118  87  99 119  93 103 122  65
 94 116 162 135 146 228 183 182 185 153 149 205 166 152 210 173 159 226 183 174 235 188
184 244 197 196 245 201 200 246 210 209 242 202 200 234 187 181 219 169 167 210 170 165
226 189 188 226 182 183 150 109 106 100  72  68 111  69  66 145 102  97 224 181 178 234
190 189 228 180 177 216 165 159 201 148 142 172 120 114 130  90  81  96  72  64  77  59
 50  65  51  45  48  38  35  35   9   8  56   7   0 121 127 147 133 145 167 132 143 164
133 144 166 133 144 166 133 144 166 133 145 167 134 146 168 134 146 168
 81  93 113  82  94 114  83  96 115  84  97 116  85  97 117  86  99 119  92 101 121  76
 98 118 129 118 135 233 181 180 207 169 162 197 162 149 211 172 157 222 180 172 234 190
186 241 198 194 246 210 209 244 206 205 227 175 170 221 168 160 216 169 165 164 116 113
172 129 129 162 119 118  80  53  51  64  41  38  94  56  53 130  81  74 211 166 158 227
182 179 222 175 171 212 164 158 196 147 142 164 116 111 115  80  72  98  75  65  80  62
 54  63  51  46  57  45  43  32   0   0  83  74  85 133 144 165 132 143 164 133 144 166
133 145 167 134 145 167 134 146 167 135 146 168 136 147 169 136 148 169
 81  93 113  82  95 114  83  96 116  84  97 116  85  97 117  86  98 118  89 100 120  88
101 121  90 102 123 215 169 174 208 169 164 193 161 150 211 172 161 218 178 170 230 187
181 235 191 189 238 199 197 231 186 183 215 160 153 235 191 185 227 182 180 170 122 124
138 101 101 132 106 105  83  62  62  40  20  15  87  62  61 144 103 101 190 144 138 208
164 155 208 162 155 199 154 148 182 135 128 156 112 106 115  84  76 102  79  69  79  63
 55  63  52  47  57  44  42  49   8   0 119 126 144 134 146 168 132 144 165 133 145 167
134 146 168 135 147 168 136 147 169 136 147 169 137 148 170 137 148 170
 81  93 112  82  94 113  83  95 115  84  96 116  85  97 118  86  98 118  87  99 120  95
104 123  64  92 115 170 146 158 211 176 174 187 159 148 210 174 165 219 179 171 223 182
175 223 180 179 225 181 176 217 169 163 217 176 170 210 169 167 178 141 142 117 100  99
 84  66  62  93  74  70  81  68  63  42  28  23  81  73  72 108  96  96 120  92  92 142
112 108 178 138 129 200 158 146 184 146 136 156 118 108 131  98  89 106  79  69  73  57
 50  67  58  55  42   0   0  86  81  92 134 146 168 132 143 164 134 145 167 134 146 167
135 147 168 136 147 169 136 148 169 137 148 169 137 148 170 137 149 170
 81  92 112  82  93 113  83  95 114  84  96 116  85  97 117  86  98 119  88 100 120  91
102 122  81  99 120 119 116 135 208 172 174 188 159 150 204 172 162 218 181 171 221 181
174 221 180 176 222 180 173 220 180 175 169 144 141 157 132 130 152 139 139 106 103 100
104  94  90 102  97  92  95  94  91  72  69  66 102 102 103 104 102 102  92  84  82  91
 90  90  90  73  73 176 137 126 194 156 144 175 142 132 144 112 104 110  83  74  75  59
 53  64  51  46  65  48  49 118 125 143 133 145 166 133 144 164 134 146 167 135 147 167
136 147 169 137 148 169 137 148 169 137 149 170 138 149 171 139 150 171
 81  92 112  81  93 113  83  94 114  84  96 115  85  97 117  87  98 118  88 100 120  90
102 122  90 103 123  95 103 125 185 154 159 193 161 154 202 167 158 218 184 176 229 194
188 229 193 186 233 196 189 201 176 173 146 143 144 172 161 158 167 150 148 116 103 104
136 106 105 133 106 104 130 104 107 100  74  73 103  95  95  97  88  87  63  46  37  89
 85  85  72  78  80 163 134 130 198 164 156 174 144 138 153 122 116 113  89  81  76  60
 52  65  53  51 121 130 149 134 146 167 132 143 163 134 146 166 135 146 167 136 147 168
136 147 169 137 148 169 137 148 170 138 149 171 139 150 172 140 151 171
 80  93 112  81  93 113  82  94 114  83  96 115  85  97 117  86  98 118  87  99 119  89
101 121  92 103 123  90 104 124  91 103 125 171 145 143 204 168 160 216 178 174 229 193
188 233 200 193 234 203 198 163 141 136 121 105 103 129 103 101 141 105  98 149 127 113
174 147 139 183 157 154 169 136 126 132 108  88 118  97  78  84  58  46  87  45  52 119
 88  87  96  83  80 194 165 161 198 166 160 172 141 135 162 131 124 121  94  90  70  49
 37  81  77  84 133 144 165 132 143 163 134 145 166 135 146 167 135 147 168 136 148 168
137 148 169 138 149 170 139 150 171 139 150 171 139 151 172 140 152 173
 80  91 111  81  92 112  82  94 114  84  95 116  84  97 116  86  98 118  87  99 119  89
101 121  91 103 123  96 106 126  83 101 126 136 126 134 200 167 160 212 173 170 226 189
185 230 198 193 230 197 192 144 117 112 134 100  93 198 144 145 181 114 122 194 143 139
200 176 167 206 190 181 191 167 152 175 131 119 173 105 106 142  76  83 144  94  94 173
130 124 131 103  98 206 179 174 193 163 156 166 134 125 162 131 124 119  92  89  60  38
 18  96  98 109 135 146 167 133 143 163 134 145 166 135 146 167 136 147 168 137 148 169
138 149 170 138 150 171 139 150 171 139 151 172 140 152 173 142 153 174
 80  91 111  81  92 112  82  94 114  84  95 115  84  97 116  86  98 118  88  99 119  89
101 121  91 103 123  93 104 125  92 105 126 100 108 127 179 153 150 211 177 171 221 186
180 228 192 187 233 200 194 170 146 141 169 132 127 233 189 185 218 162 165 219 147 162
220 146 161 217 143 157 212 133 147 204 116 129 183 109 116 145  92  92 149 107 101 184
142 135 159 126 121 175 147 143 190 160 153 164 133 123 155 123 114 109  85  80  57  37
 24 110 116 131 136 148 169 133 144 165 135 146 166 135 146 167 136 148 168 138 149 169
138 150 170 139 151 171 140 152 172 142 153 173 142 153 174 143 154 174
 79  91 112  81  92 112  82  94 113  83  95 115  84  96 116  85  97 117  87  99 119  89
100 120  90 102 122  92 104 124  96 106 127  85 102 125 146 133 139 200 169 162 211 177
171 223 188 182 223 191 186 172 149 144 205 166 162 226 184 179 202 158 154 199 151 151
206 157 161 201 145 150 185 125 129 171 120 120 133  97  93 122  88  83 150 105 102 173
127 122 192 156 150 180 151 145 171 141 133 161 128 119 150 116 110 103  79  76  58  42
 36 116 122 139 136 147 168 134 145 166 135 146 167 135 146 168 137 148 169 139 149 170
139 150 171 141 152 172 142 153 173 142 153 174 143 154 175 142 155 175
 79  91 111  80  92 112  81  93 113  83  94 114  84  96 115  85  97 117  87  98 118  88
100 120  90 102 122  92 104 124  95 106 126  91 105 127 108 112 130 186 157 154 212 178
172 217 183 177 210 178 173 173 160 160 209 173 170 210 163 158 158 124 119 133 111 109
115  91  82 110  80  71 112  89  84 129 110 106 129 113 109  93  73  66 128  88  82 162
113 109 173 142 139 173 146 141 153 122 114 145 113 105 143 109 103  90  69  68  56  39
 34 109 115 131 138 150 171 134 145 165 135 146 167 136 147 169 139 150 170 140 151 171
141 152 172 142 153 173 142 153 173 143 154 174 143 155 175 143 155 175
 79  91 111  80  91 111  81  92 112  82  94 114  83  96 115  85  97 117  86  98 118  88
 99 119  89 101 122  91 103 124  94 105 126  97 107 128  88 105 127 154 136 141 211 175
169 216 184 177 205 180 177 174 161 161 207 178 175 185 146 143 140 108 107 139 114 113
116  98  97 106  87  85 109  97  96 104  88  84 124 104 103 114  88  85 128  91  86 162
118 114 152 128 127 136 114 112 126 101  94 135 106  98 122  95  90  74  61  62  66  53
 53  51  48  53 123 134 154 138 149 169 135 147 167 138 149 170 140 151 171 141 152 172
141 152 172 141 152 173 142 153 174 143 154 175 144 155 176 144 155 175
 79  90 111  80  91 111  81  92 112  82  93 113  83  95 115  85  97 117  86  98 118  88
 99 119  89 101 121  91 103 124  93 104 126  96 106 128  89 104 126 140 132 144 190 160
158 207 179 174 202 175 172 190 174 174 199 184 184 178 146 146 168 137 137 164 140 141
164 131 133 148 128 129 143 124 125 144 117 118 137 110 110 147 125 126 153 123 124 150
125 126 140 132 133 103  96  97  98  82  76 120  99  93  91  73  73  69  57  61  70  56
 57   4   0   0  70  78  92 138 150 171 138 148 169 139 150 170 140 151 171 140 151 172
141 152 172 142 153 174 143 154 174 143 154 175 144 155 176 145 156 177
 79  90 110  80  91 111  80  92 112  82  93 113  83  95 115  85  97 117  86  98 119  88
 99 119  89 101 121  91 103 124  93 106 128  91  99 118 107 129 159 153 153 179 168 141
142 191 165 164 203 175 170 186 174 175 184 182 186 187 178 181 192 178 180 195 175 177
195 171 173 184 177 179 194 180 182 208 186 188 187 167 168 189 177 179 173 167 169 151
149 152 142 148 153  85  87  90  83  68  64  95  78  77  76  64  69  68  57  61  67  50
 48  38  26  20   0   8  21 125 136 156 141 152 172 138 149 169 140 150 171 140 151 172
142 153 173 143 154 174 143 154 174 144 155 175 145 156 176 146 157 177
 79  90 110  79  91 111  80  92 112  81  93 113  83  95 114  84  96 116  86  98 118  87
 99 119  89 101 121  90 102 122  91 103 125  98 107 126 130 160 200 124 115 139 170 139
139 168 148 154 189 161 159 191 173 173 190 191 197 205 204 208 220 202 204 212 188 190
198 188 190 193 186 187 199 183 185 205 194 195 193 179 180 193 176 178 182 182 186 159
166 171 115 123 129  69  68  73  72  61  62  77  67  72  72  63  69  67  54  56  62  44
 41  36  25  23   0   0   0 104 115 134 142 153 174 139 149 170 140 151 172 141 152 172
142 153 174 143 154 175 144 155 175 144 155 176 146 157 177 147 158 178
 78  90 110  79  91 111  80  92 112  81  93 113  82  94 114  84  96 116  85  98 117  87
 99 119  88 100 121  91 104 125  85  95 114 112 130 159 143 171 213 113  94 102 180 144
143 161 139 146 169 146 150 186 164 163 183 182 186 199 202 207 213 206 210 207 196 198
200 193 195 191 184 186 196 181 183 186 175 177 183 177 180 172 171 175 145 145 149 127
136 142  76  81  88  66  56  59  76  66  72  77  66  74  70  58  62  65  48  48  56  36
 33  23  13  12   6  31  56  82  95 115 141 152 173 138 149 169 140 151 172 141 152 173
142 153 174 143 154 174 144 155 175 145 156 177 147 158 178 147 158 179
 78  90 110  79  91 111  80  92 111  80  92 112  82  94 114  83  96 115  85  97 117  86
 98 119  89 102 123  93 106 128  83  91 109 148 172 206 158 182 222 108  87  98 188 149
147 175 145 145 160 135 140 169 146 148 184 175 179 188 197 204 197 203 209 189 190 194
183 178 180 187 189 194 182 182 187 181 180 183 177 180 184 153 158 164 113 119 125  93
101 108  66  58  62  79  68  75  80  69  76  75  62  66  68  53  53  62  42  41  49  27
 24   9   7  14  46  66 100  54  77 104 127 138 158 145 156 177 140 151 171 140 151 172
142 153 174 143 154 174 144 155 175 146 157 177 147 158 178 147 159 179
 77  89 109  78  90 110  79  91 111  80  92 113  81  93 113  82  95 115  85  98 118  87
100 121  85  96 115  78  86 103 100 116 143 176 203 240 155 180 220  93  75  91 191 151
146 190 152 153 173 141 140 161 134 135 157 136 140 170 164 170 182 188 195 159 168 176
151 160 168 159 170 177 149 159 167 156 166 174 143 152 160 111 117 126  90  95 103  70
 63  69  84  72  79  85  69  76  78  61  64  71  55  55  65  47  46  65  43  43  39  15
  6  22  29  46  79 102 142  73  98 131  54  67  80 120 131 151 141 153 174 146 157 177
145 156 176 143 154 175 144 155 175 146 157 177 147 158 178 148 159 179
 77  89 108  78  89 109  79  90 111  80  92 112  81  93 113  82  95 114  79  90 110  77
 87 104 100 118 146 135 160 195 157 186 225 171 201 242 160 185 226  87  77  97 191 143
136 203 163 163 190 152 152 181 148 144 162 132 129 145 118 118 148 130 133 144 130 135
128 118 124 121 119 127 113 113 123 102 104 113  89  85  93  86  76  83  86  73  80  89
 74  81  86  66  71  78  57  58  78  58  57  73  54  53  73  48  48  66  43  47  26   0
  0  65  78 108 110 136 179  97 123 161  21  46  60  19  45  67  69  84 106 113 125 148
135 147 167 147 157 177 149 159 179 147 158 178 147 158 179 148 159 180
 77  88 108  78  89 109  78  90 111  79  92 112  81  93 113  82  94 115  98 115 141 130
155 192 158 190 232 168 199 241 172 201 241 176 204 241 163 188 230 107 110 136 176 125
116 215 171 167 206 168 166 199 164 160 187 156 150 170 140 135 153 122 119 143 112 111
138 109 109 129 103 105 118  96 100 109  89  92 107  84  87 103  81  83  98  74  75  93
 66  65  88  61  60  91  66  65  92  67  65  86  57  56  79  51  53  62  39  42  51  28
 29 108 128 167 111 142 189  96 127 171  58  80 107  56  78 108  62  87 121  47  78 119
 77 103 142 102 120 150 129 143 168 144 156 177 148 159 179 148 160 180
